<svg width="668" height="668" viewBox="0 0 668 668" fill="none" xmlns="http://www.w3.org/2000/svg">
<path d="M285.477 429.818L284.248 437.34L282.938 445.422L270.914 519.129H251.262L263.272 445.422L264.595 437.34L265.824 429.818H285.477Z" fill="#EEEBFE"/>
<path d="M282.631 429.818C281.589 437.286 280.48 444.741 279.358 452.182L275.885 474.534L272.251 496.845L270.38 507.987L268.43 519.129L270.033 507.934L271.703 496.751L275.217 474.414L278.85 452.102C280.04 444.661 281.295 437.233 282.631 429.818Z" fill="#C7C7C7"/>
<path d="M284.249 437.34L282.939 445.422H263.273L264.596 437.34H284.249Z" fill="#C7C7C7"/>
<path d="M382.523 429.818L383.753 437.34L385.062 445.422L397.086 519.129H416.738L404.728 445.422L403.405 437.34L402.176 429.818H382.523Z" fill="#EEEBFE"/>
<path d="M385.436 429.818C386.464 437.286 387.587 444.741 388.709 452.182L392.169 474.534L395.803 496.845L397.687 507.987L399.637 519.129L398.034 507.934L396.364 496.751L392.89 474.414L389.256 452.102C388.014 444.661 386.758 437.233 385.436 429.818Z" fill="#C7C7C7"/>
<path d="M383.754 437.34H403.406L404.729 445.422H385.063L383.754 437.34Z" fill="#C7C7C7"/>
<path d="M284.755 409.083H269.178L271.115 394.547H282.818L284.755 409.083Z" fill="#C7C7C7"/>
<path d="M291.277 386.715C292.671 378.816 287.399 371.283 279.5 369.889C271.602 368.495 264.069 373.768 262.675 381.666C261.281 389.565 266.553 397.098 274.452 398.492C282.35 399.886 289.883 394.613 291.277 386.715Z" fill="#DBDBDB"/>
<path d="M287.717 386.718C289.124 380.78 285.451 374.826 279.514 373.419C273.576 372.012 267.622 375.685 266.215 381.623C264.808 387.56 268.481 393.514 274.419 394.921C280.357 396.328 286.311 392.655 287.717 386.718Z" fill="white"/>
<path d="M286.198 383.526C286.095 382.209 285.722 380.928 285.101 379.762C284.481 378.597 283.626 377.572 282.591 376.752C281.549 375.943 280.353 375.354 279.076 375.021C277.799 374.688 276.468 374.618 275.163 374.815C273.867 375.019 272.63 375.493 271.529 376.207C270.429 376.92 269.491 377.857 268.777 378.956C268.022 380.132 267.528 381.456 267.328 382.839C267.127 384.221 267.225 385.631 267.614 386.972C268.278 389.291 269.828 391.254 271.93 392.437C273.979 393.6 276.385 393.971 278.69 393.479C280.919 393.002 282.918 391.776 284.354 390.005C285.773 388.255 286.592 386.096 286.692 383.846C286.692 383.753 286.692 383.659 286.599 383.659C286.505 383.659 286.505 383.739 286.505 383.846C286.455 384.756 286.279 385.655 285.984 386.518C285.677 387.365 285.268 388.173 284.769 388.923C284.242 389.65 283.632 390.314 282.952 390.9C282.252 391.484 281.485 391.982 280.667 392.383C279.491 392.937 278.212 393.24 276.913 393.272C275.613 393.305 274.321 393.065 273.119 392.57C271.913 392.059 270.832 391.293 269.951 390.325C269.07 389.356 268.41 388.208 268.015 386.959C267.61 385.676 267.486 384.321 267.652 382.986C267.818 381.651 268.27 380.368 268.977 379.224C269.66 378.138 270.568 377.211 271.64 376.506C272.712 375.801 273.922 375.333 275.189 375.135C276.902 374.863 278.656 375.059 280.267 375.701C281.878 376.343 283.285 377.407 284.341 378.783C284.849 379.492 285.262 380.264 285.57 381.081C285.868 381.909 286.065 382.77 286.158 383.646C286.158 383.646 286.198 383.566 286.198 383.526Z" fill="#EEEBFE"/>
<path d="M284.902 383.539C284.807 382.412 284.48 381.316 283.942 380.321C283.404 379.325 282.667 378.452 281.776 377.754C280.883 377.067 279.861 376.565 278.772 376.276C277.683 375.987 276.547 375.917 275.43 376.071C274.314 376.237 273.246 376.637 272.295 377.245C271.344 377.853 270.532 378.655 269.913 379.598C269.254 380.604 268.817 381.74 268.633 382.929C268.449 384.118 268.52 385.333 268.844 386.491C269.12 387.495 269.592 388.433 270.235 389.252C270.877 390.071 271.676 390.754 272.585 391.261C274.369 392.282 276.471 392.596 278.476 392.143C280.411 391.726 282.142 390.655 283.379 389.11C284.605 387.59 285.312 385.717 285.397 383.766C285.397 383.686 285.397 383.606 285.317 383.606C285.236 383.606 285.21 383.672 285.21 383.766C285.101 385.332 284.575 386.84 283.687 388.134C282.799 389.428 281.581 390.462 280.16 391.127C279.148 391.619 278.044 391.891 276.92 391.923C275.796 391.955 274.678 391.748 273.64 391.314C272.596 390.873 271.661 390.209 270.899 389.369C270.138 388.529 269.569 387.534 269.231 386.451C268.885 385.341 268.784 384.168 268.936 383.014C269.088 381.861 269.49 380.754 270.113 379.771C270.701 378.844 271.484 378.056 272.406 377.461C273.329 376.866 274.37 376.478 275.457 376.324C276.911 376.108 278.397 376.281 279.763 376.826C281.128 377.37 282.326 378.267 283.232 379.424C283.669 380.027 284.028 380.682 284.301 381.375C284.552 382.084 284.726 382.819 284.822 383.566L284.902 383.539Z" fill="#EEEBFE"/>
<path d="M283.606 383.552C283.51 382.613 283.223 381.704 282.764 380.879C282.304 380.054 281.682 379.332 280.934 378.756C279.432 377.614 277.542 377.105 275.67 377.34C274.733 377.463 273.833 377.785 273.029 378.282C272.225 378.78 271.536 379.442 271.007 380.226C270.436 381.072 270.053 382.031 269.884 383.039C269.716 384.046 269.767 385.078 270.032 386.064C270.257 386.924 270.653 387.729 271.197 388.432C271.742 389.134 272.422 389.719 273.199 390.152C274.73 391.008 276.525 391.265 278.235 390.873C279.884 390.49 281.348 389.546 282.377 388.201C283.395 386.911 283.992 385.34 284.087 383.699C284.087 383.619 284.087 383.552 283.993 383.552C283.978 383.554 283.962 383.559 283.948 383.566C283.934 383.574 283.922 383.584 283.912 383.597C283.902 383.609 283.895 383.623 283.89 383.639C283.886 383.654 283.885 383.67 283.887 383.686C283.783 385 283.336 386.265 282.59 387.353C281.845 388.441 280.827 389.314 279.638 389.885C278.787 390.305 277.855 390.54 276.906 390.572C275.957 390.604 275.012 390.434 274.134 390.072C273.246 389.705 272.452 389.145 271.807 388.434C271.162 387.722 270.684 386.876 270.406 385.957C270.13 385.021 270.058 384.037 270.196 383.071C270.335 382.105 270.68 381.18 271.208 380.359C271.712 379.595 272.375 378.949 273.152 378.464C273.93 377.98 274.802 377.67 275.71 377.554C276.911 377.412 278.128 377.554 279.264 377.968C280.408 378.401 281.411 379.141 282.163 380.105C282.535 380.597 282.841 381.136 283.072 381.708C283.296 382.294 283.453 382.904 283.539 383.525C283.539 383.525 283.619 383.566 283.606 383.552Z" fill="#EEEBFE"/>
<path d="M282.323 383.566C282.127 382.059 281.344 380.691 280.146 379.758C278.947 378.861 277.453 378.451 275.964 378.609C275.206 378.697 274.476 378.944 273.82 379.333C273.164 379.722 272.597 380.245 272.156 380.867C271.678 381.553 271.351 382.334 271.199 383.156C271.047 383.979 271.073 384.824 271.275 385.636C271.452 386.351 271.774 387.021 272.223 387.605C272.671 388.189 273.235 388.674 273.88 389.03C275.149 389.733 276.636 389.938 278.048 389.604C279.391 389.279 280.583 388.507 281.428 387.413C282.232 386.346 282.698 385.061 282.764 383.726C282.766 383.712 282.765 383.698 282.761 383.684C282.758 383.67 282.751 383.657 282.743 383.646C282.734 383.635 282.723 383.626 282.711 383.619C282.698 383.612 282.685 383.607 282.671 383.606C282.671 383.606 282.577 383.606 282.564 383.713C282.484 384.771 282.135 385.791 281.551 386.677C280.966 387.564 280.165 388.286 279.224 388.776C278.536 389.135 277.778 389.341 277.003 389.378C276.228 389.415 275.454 389.282 274.735 388.99C274.006 388.69 273.355 388.228 272.829 387.641C272.304 387.053 271.919 386.354 271.702 385.596C271.488 384.836 271.442 384.039 271.566 383.259C271.691 382.479 271.983 381.736 272.424 381.081C272.837 380.477 273.375 379.97 274.002 379.595C274.63 379.219 275.331 378.983 276.057 378.903C277.008 378.817 277.965 378.94 278.863 379.264C279.765 379.597 280.563 380.164 281.174 380.907C281.468 381.3 281.714 381.726 281.909 382.176C282.099 382.645 282.238 383.134 282.323 383.632V383.566Z" fill="#EEEBFE"/>
<path d="M398.49 409.083H382.898L384.836 394.547H396.552L398.49 409.083Z" fill="#C7C7C7"/>
<path d="M405.292 385.446C406.495 377.506 401.033 370.093 393.093 368.89C385.153 367.687 377.741 373.149 376.538 381.089C375.335 389.029 380.796 396.441 388.736 397.645C396.677 398.848 404.089 393.386 405.292 385.446Z" fill="#DBDBDB"/>
<path d="M401.606 385.829C402.526 379.797 398.381 374.161 392.349 373.242C386.317 372.322 380.681 376.466 379.761 382.498C378.841 388.531 382.986 394.167 389.018 395.086C395.05 396.006 400.686 391.862 401.606 385.829Z" fill="white"/>
<path d="M399.933 383.525C399.828 382.209 399.454 380.929 398.833 379.764C398.212 378.599 397.359 377.573 396.326 376.752C395.283 375.943 394.087 375.355 392.81 375.022C391.533 374.689 390.202 374.618 388.898 374.815C387.602 375.019 386.364 375.493 385.264 376.206C384.164 376.92 383.226 377.857 382.511 378.956C381.751 380.13 381.254 381.454 381.054 382.837C380.853 384.221 380.954 385.631 381.349 386.972C382.007 389.293 383.559 391.258 385.664 392.437C387.714 393.602 390.12 393.972 392.425 393.479C394.654 393.002 396.653 391.776 398.089 390.005C399.507 388.255 400.327 386.096 400.427 383.846C400.427 383.753 400.427 383.659 400.334 383.659C400.24 383.659 400.24 383.739 400.227 383.846C400.174 384.755 400.003 385.653 399.719 386.518C399.413 387.368 399 388.176 398.49 388.923C397.445 390.412 396.032 391.604 394.389 392.383C393.216 392.941 391.939 393.246 390.641 393.278C389.343 393.31 388.052 393.069 386.853 392.57C385.646 392.06 384.563 391.294 383.68 390.326C382.796 389.357 382.133 388.208 381.737 386.959C381.333 385.675 381.211 384.32 381.38 382.985C381.548 381.65 382.002 380.367 382.712 379.223C383.395 378.138 384.303 377.211 385.375 376.506C386.446 375.801 387.657 375.333 388.924 375.135C390.637 374.863 392.391 375.059 394.002 375.701C395.612 376.342 397.02 377.407 398.076 378.783C398.579 379.495 398.992 380.267 399.305 381.081C399.598 381.91 399.791 382.771 399.879 383.646C399.879 383.646 399.933 383.566 399.933 383.525Z" fill="#EEEBFE"/>
<path d="M398.637 383.539C398.535 382.413 398.205 381.32 397.668 380.325C397.13 379.331 396.396 378.456 395.51 377.754C394.617 377.067 393.596 376.565 392.506 376.276C391.417 375.987 390.281 375.917 389.164 376.071C388.046 376.235 386.975 376.635 386.021 377.242C385.068 377.85 384.254 378.653 383.633 379.598C382.974 380.604 382.538 381.74 382.354 382.929C382.169 384.118 382.241 385.333 382.564 386.491C382.84 387.495 383.313 388.433 383.955 389.252C384.598 390.071 385.396 390.754 386.305 391.261C388.091 392.279 390.192 392.594 392.197 392.143C394.136 391.729 395.873 390.657 397.113 389.11C398.333 387.586 399.039 385.716 399.131 383.766C399.131 383.686 399.131 383.606 399.037 383.606C398.944 383.606 398.944 383.672 398.93 383.766C398.824 385.331 398.301 386.839 397.415 388.133C396.529 389.427 395.314 390.461 393.894 391.127C392.883 391.619 391.778 391.891 390.654 391.923C389.53 391.955 388.412 391.748 387.374 391.314C386.327 390.875 385.389 390.212 384.625 389.372C383.861 388.532 383.29 387.535 382.952 386.451C382.61 385.34 382.511 384.168 382.664 383.015C382.816 381.862 383.215 380.756 383.834 379.771C384.425 378.847 385.208 378.06 386.13 377.466C387.052 376.871 388.092 376.482 389.178 376.324C390.636 376.102 392.128 376.272 393.499 376.816C394.87 377.361 396.072 378.261 396.98 379.424C397.421 380.024 397.78 380.68 398.049 381.375C398.311 382.081 398.486 382.817 398.57 383.566C398.582 383.566 398.594 383.563 398.606 383.559C398.617 383.554 398.628 383.547 398.637 383.539Z" fill="#EEEBFE"/>
<path d="M397.34 383.552C397.238 382.615 396.949 381.707 396.49 380.883C396.031 380.06 395.412 379.336 394.668 378.756C393.165 377.616 391.276 377.108 389.404 377.34C388.472 377.467 387.577 377.79 386.778 378.287C385.979 378.785 385.294 379.445 384.768 380.226C384.198 381.072 383.814 382.031 383.644 383.038C383.473 384.045 383.52 385.076 383.78 386.064C384.011 386.923 384.411 387.727 384.957 388.429C385.503 389.131 386.184 389.717 386.959 390.152C388.486 391.007 390.277 391.265 391.983 390.874C393.635 390.49 395.103 389.546 396.138 388.202C397.159 386.914 397.752 385.34 397.835 383.699C397.835 383.619 397.835 383.552 397.754 383.552C397.739 383.554 397.723 383.559 397.709 383.566C397.695 383.574 397.683 383.584 397.673 383.597C397.663 383.609 397.656 383.623 397.651 383.639C397.647 383.654 397.646 383.67 397.647 383.686C397.541 385 397.093 386.263 396.348 387.351C395.603 388.438 394.586 389.312 393.399 389.885C392.548 390.306 391.616 390.54 390.667 390.572C389.718 390.604 388.773 390.434 387.895 390.072C387.007 389.705 386.213 389.146 385.568 388.434C384.923 387.722 384.445 386.876 384.167 385.957C383.891 385.021 383.819 384.037 383.957 383.071C384.096 382.105 384.441 381.18 384.969 380.359C385.469 379.594 386.13 378.947 386.905 378.463C387.68 377.978 388.551 377.668 389.458 377.554C390.663 377.411 391.885 377.553 393.025 377.968C394.169 378.401 395.172 379.141 395.924 380.105C396.296 380.597 396.602 381.136 396.833 381.709C397.045 382.298 397.201 382.907 397.3 383.526C397.31 383.538 397.324 383.548 397.34 383.552Z" fill="#EEEBFE"/>
<path d="M396.044 383.566C395.952 382.82 395.714 382.099 395.342 381.446C394.971 380.792 394.474 380.219 393.88 379.758C392.68 378.862 391.187 378.452 389.698 378.609C388.939 378.692 388.207 378.936 387.55 379.325C386.893 379.715 386.327 380.24 385.891 380.867C385.412 381.553 385.086 382.334 384.934 383.156C384.782 383.979 384.807 384.824 385.009 385.636C385.186 386.351 385.509 387.021 385.957 387.605C386.405 388.189 386.97 388.674 387.614 389.03C388.879 389.732 390.361 389.937 391.769 389.604C393.114 389.276 394.31 388.504 395.163 387.413C395.967 386.346 396.432 385.061 396.499 383.726C396.503 383.713 396.504 383.699 396.502 383.685C396.5 383.671 396.495 383.658 396.487 383.647C396.479 383.635 396.469 383.626 396.457 383.619C396.445 383.611 396.432 383.607 396.418 383.606C396.39 383.606 396.363 383.617 396.343 383.637C396.323 383.657 396.312 383.684 396.312 383.713C396.214 384.776 395.845 385.797 395.239 386.677C394.633 387.557 393.811 388.266 392.851 388.736C392.165 389.093 391.41 389.298 390.637 389.335C389.864 389.371 389.093 389.24 388.376 388.95C387.647 388.649 386.996 388.188 386.47 387.601C385.945 387.013 385.56 386.314 385.343 385.556C385.129 384.796 385.083 383.999 385.207 383.219C385.332 382.439 385.624 381.696 386.064 381.041C386.477 380.437 387.015 379.929 387.643 379.553C388.27 379.177 388.971 378.942 389.698 378.863C390.644 378.777 391.597 378.9 392.491 379.224C393.395 379.553 394.193 380.121 394.802 380.867C395.104 381.256 395.356 381.683 395.55 382.136C395.74 382.605 395.879 383.093 395.964 383.592C395.964 383.592 396.058 383.579 396.044 383.566Z" fill="#EEEBFE"/>
<path d="M431.93 401.682H236.059V439.143H431.93V401.682Z" fill="#DBDBDB"/>
<path d="M276.326 401.682L262.11 439.143H236.807L251.022 401.682H276.326Z" fill="#EEEBFE"/>
<path d="M328.175 401.682L313.96 439.143H288.656L302.871 401.682H328.175Z" fill="#EEEBFE"/>
<path d="M380.011 401.682L365.81 439.143H340.506L354.721 401.682H380.011Z" fill="#EEEBFE"/>
<path d="M431.876 401.682L417.661 439.143H392.357L406.572 401.682H431.876Z" fill="#EEEBFE"/>
<path d="M427.974 473.786H240.025V497.5H427.974V473.786Z" fill="#DBDBDB"/>
<path d="M278.65 473.786L265.023 497.486H240.748L254.389 473.786H278.65Z" fill="#EEEBFE"/>
<path d="M328.415 473.786L314.775 497.486H290.486L304.127 473.786H328.415Z" fill="#EEEBFE"/>
<path d="M378.156 473.786L364.515 497.486H340.24L353.881 473.786H378.156Z" fill="#EEEBFE"/>
<path d="M427.908 473.786L414.267 497.486H389.992L403.633 473.786H427.908Z" fill="#EEEBFE"/>
<path d="M624.982 223.259H473.773C473.773 223.259 488.763 182.311 511.836 182.311C534.909 182.311 542.137 210.567 542.137 210.567C542.137 210.567 557.701 195.216 570.5 195.216C583.299 195.216 594.401 215.51 594.401 215.51C594.401 215.51 612.477 204.595 624.982 223.259Z" fill="#EEEBFE"/>
<path d="M219.731 127.214H149.07C149.07 127.214 164.848 104.342 177.3 104.342C189.752 104.342 193.412 119.585 193.412 119.585C193.412 119.585 202.19 112.478 210.326 113.747C218.462 115.016 219.731 127.214 219.731 127.214Z" fill="#EEEBFE"/>
<path d="M600.907 291.929H530.246C530.246 291.929 546.038 269.057 558.476 269.057C570.914 269.057 574.588 284.301 574.588 284.301C574.588 284.301 583.365 277.18 591.502 278.462C599.638 279.745 600.907 291.929 600.907 291.929Z" fill="#EEEBFE"/>
<path d="M180.668 184.542H43.0195C43.0195 184.542 61.8705 142.458 82.0307 139.826C102.191 137.194 111.837 171.088 111.837 171.088C111.837 171.088 124.85 159.064 135.07 159.064C145.29 159.064 153.186 174.842 153.186 174.842C153.186 174.842 173.68 164.074 180.668 184.542Z" fill="#EEEBFE"/>
<path d="M47.9766 519.464L118.811 519.143L189.659 519.023L331.329 518.796L473.012 519.023L543.846 519.143L614.681 519.464L543.846 519.784L473.012 519.904L331.329 520.132L189.659 519.904L118.811 519.784L47.9766 519.464Z" fill="#263238"/>
<path d="M334.001 624.754C489.016 624.754 614.681 610.105 614.681 592.035C614.681 573.965 489.016 559.316 334.001 559.316C178.985 559.316 53.3203 573.965 53.3203 592.035C53.3203 610.105 178.985 624.754 334.001 624.754Z" fill="#F7F5FF"/>
<path d="M370.7 598.141C373.479 599.076 453.025 599.356 456.071 597.446C457.233 596.724 457.941 585.141 458.409 571.127C458.516 568.094 458.596 564.968 458.676 561.775L465.115 519.357L411.943 519.009L406.919 561.454L407.12 570.806C407.12 570.806 376.619 584.326 373.506 586.771C370.393 589.216 367.935 597.192 370.7 598.141Z" fill="#AD6359"/>
<path d="M370.7 598.14C373.479 599.076 453.025 599.356 456.071 597.446C457.474 596.564 458.248 579.65 458.676 561.788L406.919 561.467L407.12 570.819C407.12 570.819 376.619 584.34 373.506 586.784C370.393 589.229 367.935 597.192 370.7 598.14Z" fill="white"/>
<path d="M370.7 598.141C373.479 599.076 453.025 599.356 456.071 597.446C457.233 596.724 457.941 585.141 458.409 571.127L407.12 570.793C407.12 570.793 376.619 584.313 373.506 586.758C370.393 589.203 367.935 597.192 370.7 598.141Z" fill="#FDC500"/>
<path d="M371.864 594.961C385.224 594.68 439.011 594.801 452.211 595.535C452.318 595.535 452.318 595.616 452.211 595.629C438.998 596.19 385.184 595.629 371.85 595.175C371.57 595.161 371.583 594.961 371.864 594.961Z" fill="#263238"/>
<path d="M378.637 583.912C380.129 583.87 381.613 584.141 382.993 584.707C384.374 585.273 385.621 586.122 386.653 587.199C388.52 589.109 389.581 591.663 389.619 594.333C389.619 594.413 389.459 594.413 389.446 594.333C389.009 591.7 387.733 589.279 385.806 587.432C383.879 585.584 381.407 584.411 378.758 584.086C378.734 584.102 378.706 584.108 378.679 584.103C378.651 584.098 378.627 584.082 378.611 584.059C378.595 584.036 378.588 584.008 378.594 583.98C378.599 583.953 378.614 583.928 378.637 583.912Z" fill="#263238"/>
<path d="M401.95 572.102C407.294 572.102 413.466 573.959 416.766 578.328C416.9 578.501 416.659 578.675 416.499 578.595C411.821 576.133 406.895 574.176 401.803 572.757C401.716 572.737 401.641 572.684 401.593 572.609C401.545 572.534 401.53 572.443 401.549 572.356C401.569 572.269 401.622 572.193 401.697 572.146C401.772 572.098 401.863 572.082 401.95 572.102Z" fill="#263238"/>
<path d="M397.822 573.692C403.166 573.692 409.339 575.549 412.639 579.931C412.772 580.091 412.532 580.278 412.371 580.185C407.697 577.719 402.77 575.767 397.675 574.36C397.6 574.328 397.538 574.272 397.5 574.199C397.463 574.127 397.452 574.044 397.469 573.964C397.487 573.884 397.532 573.814 397.596 573.764C397.661 573.714 397.741 573.688 397.822 573.692Z" fill="#263238"/>
<path d="M393.694 575.295C399.038 575.228 405.21 577.139 408.524 581.521C408.644 581.681 408.403 581.868 408.243 581.788C403.572 579.313 398.644 577.355 393.547 575.95C393.46 575.93 393.385 575.877 393.337 575.802C393.29 575.727 393.274 575.636 393.293 575.549C393.313 575.462 393.366 575.386 393.441 575.339C393.516 575.291 393.607 575.275 393.694 575.295Z" fill="#263238"/>
<path d="M389.565 576.885C394.909 576.885 401.095 578.728 404.395 583.11C404.515 583.271 404.275 583.458 404.114 583.378C399.443 580.903 394.515 578.945 389.418 577.539C389.331 577.52 389.256 577.467 389.208 577.392C389.161 577.316 389.145 577.225 389.164 577.139C389.184 577.052 389.237 576.976 389.312 576.929C389.387 576.881 389.478 576.865 389.565 576.885Z" fill="#263238"/>
<path d="M448.896 582.857C454.895 582.857 454.842 592.209 448.896 592.209C442.951 592.209 442.858 582.817 448.896 582.857Z" fill="#263238"/>
<path d="M396.633 565.662C399.492 569.39 403.874 571.755 407.668 574.386C407.758 574.437 407.857 574.466 407.959 574.471C408.062 574.476 408.164 574.457 408.257 574.415C408.351 574.374 408.433 574.311 408.498 574.231C408.563 574.152 408.608 574.059 408.63 573.959C408.651 573.963 408.673 573.963 408.693 573.957C408.714 573.952 408.733 573.941 408.748 573.927C408.764 573.912 408.776 573.894 408.783 573.875C408.791 573.855 408.793 573.833 408.791 573.812C408.419 568.914 406.765 564.2 403.994 560.145C402.338 557.807 398.944 555.616 396.232 557.847C393.52 560.078 394.95 563.498 396.633 565.662ZM396.393 561.24C396.954 555.442 402.177 559.904 403.326 561.681C404.05 562.84 404.698 564.045 405.264 565.288C406.389 567.878 407.383 570.522 408.243 573.211C406.466 571.795 404.569 570.539 402.739 569.203C400.561 567.613 396.099 564.447 396.393 561.24Z" fill="#263238"/>
<path d="M427.762 570.472C427.361 566.985 423.38 566.224 420.574 566.745C415.769 567.752 411.31 570 407.642 573.264C407.623 573.276 407.607 573.293 407.596 573.313C407.585 573.333 407.579 573.355 407.579 573.378C407.579 573.401 407.585 573.423 407.596 573.443C407.607 573.463 407.623 573.479 407.642 573.491C407.586 573.577 407.551 573.676 407.54 573.778C407.53 573.881 407.544 573.984 407.582 574.08C407.62 574.175 407.681 574.26 407.759 574.328C407.836 574.395 407.929 574.443 408.029 574.467C412.599 575.188 417.381 576.537 422.044 575.803C424.77 575.429 428.15 573.772 427.762 570.472ZM415.19 574.146C412.933 573.852 410.715 573.438 408.51 573.224C411.035 571.955 413.494 570.552 416.139 569.577C417.41 569.072 418.713 568.653 420.04 568.321C422.098 567.853 428.965 568.241 425.384 572.81C423.287 575.322 417.876 574.48 415.19 574.146Z" fill="#263238"/>
<path d="M543.272 323.232C543.272 323.232 481.509 428.295 479.852 435.67C477.314 447.012 463.82 558.942 463.82 558.942L399.559 557.793C399.559 557.793 410.634 459.09 421.122 426.585C428.683 403.165 483.179 325.49 483.179 325.49L543.272 323.232Z" fill="#37474F"/>
<path d="M405.423 547.934C414.655 547.867 447.36 547.506 459.638 548.642C459.663 548.642 459.687 548.652 459.704 548.669C459.722 548.687 459.732 548.711 459.732 548.735C459.732 548.76 459.722 548.784 459.704 548.801C459.687 548.819 459.663 548.829 459.638 548.829C455.417 549.43 414.655 548.482 405.423 548.188C405.403 548.194 405.382 548.196 405.361 548.193C405.34 548.189 405.32 548.181 405.303 548.169C405.286 548.156 405.272 548.14 405.263 548.121C405.253 548.103 405.248 548.082 405.248 548.061C405.248 548.04 405.253 548.019 405.263 548C405.272 547.981 405.286 547.965 405.303 547.952C405.32 547.94 405.34 547.932 405.361 547.929C405.382 547.925 405.403 547.927 405.423 547.934Z" fill="#263238"/>
<path d="M532.731 332.878C528.723 339.224 524.407 345.436 520.266 351.729C516.124 358.021 512.009 364.327 507.934 370.673C499.803 383.338 491.858 396.119 484.1 409.016C480.339 414.952 477.116 421.212 474.468 427.72C472.056 434.262 470.245 441.01 469.057 447.881C467.788 454.788 466.959 461.748 466.184 468.709C465.347 476.119 464.519 483.529 463.699 490.94C462.007 506.081 460.315 521.249 458.623 536.444C458.409 538.301 458.209 540.171 458.021 542.028C458.021 542.309 458.476 542.362 458.516 542.028C460.4 526.958 461.976 511.848 463.699 496.751L466.265 474.28C467.053 467.293 467.814 460.305 468.937 453.345C469.939 446.499 471.453 439.738 473.466 433.118C475.668 426.258 478.63 419.667 482.297 413.465C489.738 400.626 497.621 388.001 505.503 375.416C513.385 362.831 521.468 350.032 529.791 337.567C530.807 336.031 531.849 334.494 532.918 332.985C533.065 332.864 532.811 332.757 532.731 332.878Z" fill="#263238"/>
<path d="M488.67 606.971C491.596 607.159 570.526 586.357 572.985 583.738C573.093 583.58 573.157 583.395 573.172 583.204C573.479 580.612 569.444 570.926 566.612 558.515C566.438 557.726 564.955 553.959 562.871 548.869C557.14 534.908 546.919 510.913 546.919 510.913L495.39 524.139L514.361 562.282L516.926 571.247C516.926 571.247 490.861 592.102 488.483 595.295C486.105 598.488 485.757 606.758 488.67 606.971Z" fill="#AD6359"/>
<path d="M488.669 606.972C491.595 607.159 570.526 586.357 572.984 583.739C573.092 583.58 573.157 583.396 573.171 583.204C573.478 580.612 569.444 570.926 566.611 558.515C566.438 557.727 564.955 553.959 562.871 548.869L514.374 562.229L516.939 571.193C516.939 571.193 490.873 592.048 488.495 595.241C486.117 598.435 485.757 606.758 488.669 606.972Z" fill="white"/>
<path d="M488.669 606.958C491.595 607.172 570.526 586.357 572.984 583.738C573.919 582.75 571.875 572.075 566.611 558.515L516.939 571.26C516.939 571.26 490.873 592.088 488.495 595.308C486.117 598.528 485.757 606.758 488.669 606.958Z" fill="#FDC500"/>
<path d="M488.978 603.591C501.803 599.931 553.881 586.357 566.84 583.698C566.947 583.698 566.96 583.698 566.84 583.792C554.215 587.693 502.03 600.853 489.018 603.832C488.764 603.872 488.71 603.672 488.978 603.591Z" fill="#263238"/>
<path d="M492.732 591.193C494.157 590.782 495.651 590.672 497.121 590.87C498.591 591.067 500.003 591.569 501.269 592.342C503.556 593.717 505.229 595.917 505.945 598.488C505.945 598.568 505.811 598.608 505.784 598.488C504.685 596.044 502.822 594.023 500.475 592.729C498.128 591.436 495.425 590.939 492.772 591.314C492.763 591.326 492.752 591.336 492.738 591.342C492.724 591.348 492.709 591.35 492.694 591.348C492.68 591.346 492.666 591.34 492.654 591.331C492.643 591.321 492.634 591.309 492.629 591.294C492.624 591.28 492.624 591.265 492.627 591.25C492.631 591.236 492.638 591.222 492.649 591.212C492.66 591.201 492.673 591.194 492.688 591.191C492.702 591.187 492.718 591.188 492.732 591.193Z" fill="#263238"/>
<path d="M512.263 573.839C517.406 572.423 523.873 572.69 528.175 576.083C528.348 576.217 528.175 576.457 527.988 576.417C522.857 575.212 517.612 574.563 512.343 574.48C512.27 574.47 512.202 574.437 512.15 574.384C512.098 574.332 512.064 574.264 512.055 574.19C512.046 574.117 512.062 574.043 512.099 573.979C512.137 573.916 512.194 573.866 512.263 573.839Z" fill="#263238"/>
<path d="M508.682 576.431C513.826 575.014 520.292 575.282 524.594 578.675C524.768 578.809 524.594 579.049 524.394 579.009C519.261 577.83 514.016 577.207 508.749 577.152C508.653 577.161 508.558 577.131 508.484 577.07C508.41 577.009 508.364 576.92 508.355 576.825C508.346 576.729 508.376 576.634 508.437 576.56C508.498 576.486 508.587 576.439 508.682 576.431Z" fill="#263238"/>
<path d="M505.089 579.022C510.246 577.606 516.699 577.873 521.014 581.267C521.174 581.4 521.014 581.628 520.814 581.601C515.683 580.399 510.438 579.754 505.169 579.677C505.09 579.674 505.014 579.643 504.956 579.589C504.897 579.535 504.86 579.463 504.85 579.384C504.84 579.305 504.859 579.225 504.903 579.159C504.947 579.093 505.013 579.044 505.089 579.022Z" fill="#263238"/>
<path d="M501.509 581.601C506.653 580.198 513.119 580.465 517.421 583.859C517.595 583.992 517.421 584.219 517.234 584.179C512.101 582.99 506.857 582.35 501.589 582.269C501.501 582.279 501.412 582.254 501.341 582.199C501.271 582.144 501.226 582.063 501.215 581.975C501.205 581.886 501.23 581.797 501.285 581.727C501.34 581.657 501.421 581.611 501.509 581.601Z" fill="#263238"/>
<path d="M560.373 572.302C566.171 570.806 568.496 579.824 562.684 581.307C556.873 582.79 554.561 573.785 560.373 572.302Z" fill="#263238"/>
<path d="M505.477 568.962C509.204 571.835 514.04 572.97 518.369 574.587C518.468 574.614 518.572 574.618 518.673 574.597C518.774 574.577 518.868 574.533 518.949 574.469C519.03 574.406 519.094 574.324 519.137 574.23C519.181 574.137 519.201 574.035 519.197 573.932C519.219 573.932 519.241 573.926 519.26 573.915C519.279 573.905 519.296 573.889 519.308 573.871C519.32 573.852 519.327 573.831 519.328 573.809C519.33 573.787 519.326 573.765 519.318 573.745C517.711 569.094 514.91 564.948 511.195 561.721C509.004 559.891 505.156 558.622 503.099 561.481C501.041 564.34 503.312 567.292 505.477 568.962ZM504.141 564.754C503.206 558.996 509.391 562.002 510.954 563.418C511.953 564.35 512.886 565.35 513.747 566.411C515.501 568.621 517.137 570.922 518.65 573.304C516.565 572.396 514.415 571.674 512.304 570.833C509.765 569.844 504.648 567.92 504.127 564.754H504.141Z" fill="#263238"/>
<path d="M536.806 565.689C535.537 562.416 531.462 562.697 528.91 563.926C524.514 566.114 520.772 569.423 518.062 573.518C518.048 573.535 518.038 573.556 518.034 573.577C518.029 573.599 518.031 573.622 518.037 573.643C518.044 573.664 518.056 573.684 518.072 573.699C518.088 573.715 518.107 573.726 518.129 573.732C518.1 573.83 518.094 573.933 518.111 574.033C518.129 574.134 518.17 574.229 518.231 574.31C518.292 574.392 518.372 574.458 518.463 574.504C518.554 574.55 518.655 574.574 518.757 574.574C523.366 574.106 528.336 574.186 532.651 572.329C535.176 571.247 538.022 568.775 536.806 565.689ZM525.584 572.449C523.339 572.73 521.081 572.904 518.904 573.264C520.961 571.335 523.115 569.511 525.356 567.8C526.456 566.991 527.608 566.255 528.803 565.596C530.674 564.607 537.421 563.244 535.069 568.575C533.72 571.527 528.282 572.115 525.584 572.449Z" fill="#263238"/>
<path d="M510.833 559.784L568.575 544.634C568.575 544.634 513.292 435.843 513.799 428.335C514.2 421.655 554.293 363.298 556.551 352.37C560.172 334.481 551.461 318.502 543.018 308.616L483.298 325.45C483.298 325.45 488.055 335.777 496.792 342.297C496.792 342.297 459.264 404.955 458.302 425.583C457.34 446.211 510.833 559.784 510.833 559.784Z" fill="#37474F"/>
<path d="M509.737 549.096C518.101 546.705 515.669 547.279 524.073 544.968C528.188 543.845 555.215 536.457 559.223 536.07C559.316 536.07 559.356 536.204 559.223 536.244C555.535 537.9 528.388 544.821 524.26 545.863C515.816 548 518.208 547.292 509.737 549.35C509.644 549.363 509.577 549.096 509.737 549.096Z" fill="#263238"/>
<path d="M487.534 339.932C493.256 342.055 498.785 344.665 504.06 347.734C504.103 347.755 504.135 347.793 504.15 347.838C504.165 347.883 504.162 347.932 504.141 347.975C504.119 348.017 504.082 348.049 504.037 348.064C503.992 348.079 503.943 348.076 503.9 348.055C498.329 345.623 492.638 343.299 487.213 340.573C487.139 340.525 487.085 340.451 487.062 340.365C487.038 340.28 487.047 340.188 487.087 340.109C487.127 340.03 487.194 339.968 487.277 339.935C487.359 339.902 487.451 339.901 487.534 339.932Z" fill="#263238"/>
<path d="M494.548 338.462C494.972 339.512 495.329 340.587 495.617 341.682C495.93 342.536 496.071 343.445 496.031 344.354C496.014 344.385 495.988 344.41 495.958 344.427C495.927 344.445 495.893 344.454 495.857 344.454C495.822 344.454 495.788 344.445 495.757 344.427C495.727 344.41 495.701 344.385 495.684 344.354C495.183 343.555 494.805 342.686 494.562 341.776C494.201 340.774 493.813 339.785 493.493 338.783C493.266 338.142 494.321 337.821 494.548 338.462Z" fill="#263238"/>
<path d="M494.547 333.051C494.307 332.13 494.066 331.221 493.812 330.299C493.559 329.377 493.211 328.429 493.024 327.467C493.024 327.32 492.757 327.387 492.797 327.467C493.024 328.389 493.131 329.351 493.291 330.286C493.452 331.221 493.639 332.156 493.826 333.078C494.178 334.829 494.624 336.559 495.162 338.262C494.221 338.193 493.308 337.915 492.49 337.447C491.693 336.788 491.123 335.895 490.86 334.895C490.486 333.853 490.152 332.798 489.764 331.769C489.284 330.641 488.899 329.475 488.615 328.282C488.615 328.122 488.348 328.188 488.375 328.282C488.835 330.8 489.547 333.267 490.499 335.643C490.913 336.578 491.221 337.54 492.142 337.995C493.156 338.424 494.248 338.638 495.349 338.623C495.469 338.623 495.656 338.623 495.629 338.449C495.349 336.739 495.002 334.855 494.547 333.051Z" fill="#263238"/>
<path d="M495.536 344.381C493.265 348.482 490.673 352.397 488.241 356.405C485.81 360.413 483.619 364.314 481.401 368.322C476.939 376.418 472.797 384.728 469.016 393.171C467.146 397.349 465.365 401.575 463.672 405.85C461.912 410.104 460.461 414.48 459.33 418.943C458.268 423.397 458.068 428.014 458.742 432.543C459.587 437.188 460.784 441.761 462.323 446.224C465.418 456.446 469.185 466.452 473.599 476.177C473.746 476.498 474.28 476.257 474.16 475.923C471.007 467.025 467.747 458.154 464.901 449.203C462.163 440.466 458.903 431.408 460.412 422.122C461.256 417.669 462.526 413.307 464.207 409.096C465.828 404.768 467.556 400.488 469.39 396.258C473.024 387.908 477.086 379.798 481.254 371.715C483.579 367.186 486.024 362.711 488.388 358.195C490.753 353.679 493.078 349.003 495.736 344.621C495.816 344.367 495.656 344.26 495.536 344.381Z" fill="#263238"/>
<path d="M539.024 335.617C537.942 335.443 536.352 335.817 531.689 335.496C530.393 335.382 529.107 335.172 527.842 334.868C526.558 334.667 525.337 334.174 524.275 333.426C522.581 331.823 521.199 329.921 520.2 327.814C518.95 325.643 517.993 323.316 517.354 320.894C517.354 320.747 517.1 320.814 517.127 320.961C517.381 322.297 517.514 323.633 517.875 325.049C518.219 326.321 518.665 327.563 519.211 328.763C520.069 331.137 521.507 333.258 523.393 334.935C525.504 336.525 528.456 336.819 531.008 337.006C532.491 337.113 538.303 337.006 539.024 336.124C539.238 335.977 539.224 335.657 539.024 335.617Z" fill="#263238"/>
<path d="M554.24 532.209C546.954 517.406 539.829 502.51 532.864 487.52C525.899 472.53 519.139 457.429 512.584 442.216C510.77 438.644 509.324 434.898 508.268 431.034C507.373 426.799 508.682 423.018 510.473 419.183C513.803 412.23 517.528 405.472 521.628 398.943C525.636 392.37 529.965 385.944 534.2 379.491C538.58 373.17 542.594 366.604 546.224 359.825C549.511 353.265 551.341 346.278 550.406 338.93C549.47 331.582 546.304 324.795 542.924 318.342C542.029 316.645 541.107 314.962 540.252 313.252C540.185 313.132 539.985 313.252 540.065 313.372C543.833 320.132 547.453 327.227 549.217 334.748C550.125 338.497 550.405 342.371 550.045 346.211C549.575 350.088 548.484 353.864 546.812 357.393C543.672 364.287 539.29 370.647 535.162 376.966C531.034 383.285 526.638 389.858 522.523 396.405C518.343 402.958 514.503 409.723 511.02 416.672C509.497 419.785 507.827 423.031 507.453 426.518C507.052 430.352 508.429 434.013 509.912 437.473C516.324 452.517 523.084 467.44 529.951 482.283C536.819 497.126 543.939 512.022 551.167 526.771L553.839 532.343C554.013 532.65 554.347 532.436 554.24 532.209Z" fill="#263238"/>
<path d="M481.977 197.194C483.313 191.088 490.099 177.274 503.5 179.973C522.631 183.834 525.397 220.694 534.922 232.183C552.17 252.998 552.731 273.599 538.596 276.899C522.751 280.587 507.334 263.539 507.868 226.799C508.229 203.793 501.749 193.6 497.18 194.281C492.611 194.962 490.086 200.774 490.086 200.774L481.977 197.194Z" fill="#263238"/>
<path d="M482.617 194.909C483.563 192.061 484.851 189.338 486.452 186.8C488.057 184.198 490.186 181.96 492.704 180.226C495.31 178.465 498.404 177.568 501.548 177.661C504.666 177.755 507.714 178.603 510.433 180.133C513.083 181.718 515.361 183.855 517.113 186.399C518.844 188.898 520.283 191.587 521.401 194.415C523.524 200.02 525.011 205.846 525.837 211.783C524.381 206.043 522.496 200.42 520.199 194.962C519.007 192.294 517.543 189.755 515.83 187.387C514.167 185.05 512.027 183.092 509.551 181.643C507.072 180.229 504.292 179.427 501.441 179.305C498.62 179.172 495.825 179.899 493.425 181.389C490.964 182.941 488.827 184.955 487.133 187.321C486.248 188.502 485.431 189.733 484.688 191.008C483.94 192.237 483.258 193.56 482.617 194.909Z" fill="#263238"/>
<path d="M507.8 214.121C508.001 217.768 507.8 221.429 507.72 225.076C507.64 228.723 507.493 232.357 507.48 235.991C507.466 239.625 507.586 243.246 507.96 246.839C508.265 250.417 508.919 253.956 509.911 257.407C510.85 260.836 512.433 264.055 514.574 266.893C516.819 269.655 519.533 272.002 522.59 273.827C525.65 275.684 529.106 276.792 532.676 277.06C534.462 277.198 536.259 277.103 538.02 276.779C538.926 276.61 539.819 276.378 540.692 276.084C541.563 275.827 542.391 275.445 543.151 274.949C541.661 276.033 539.965 276.802 538.167 277.207C536.375 277.674 534.529 277.903 532.676 277.888C530.807 277.854 528.95 277.589 527.145 277.1C525.346 276.594 523.611 275.881 521.975 274.976C520.336 274.077 518.787 273.021 517.353 271.823L516.297 270.914L515.282 269.966C514.593 269.316 513.95 268.62 513.358 267.881C511.061 264.901 509.356 261.509 508.335 257.888C506.484 250.736 505.771 243.338 506.224 235.964C506.331 232.304 506.611 228.656 506.932 225.022C507.252 221.389 507.68 217.768 507.8 214.121Z" fill="#263238"/>
<path d="M480.88 197.3C480.666 195.604 481.695 193.292 482.764 192.878C483.833 192.464 492.356 195.203 493.251 197.247C494.146 199.291 490.7 201.469 490.7 201.469L480.88 197.3Z" fill="#FDC500"/>
<path d="M491.088 257.474C485.838 264.969 447.869 295.977 427.161 297.126C417.809 297.634 381.229 293.653 373.079 290.299C363.073 286.185 382.859 261.402 389.111 262.457C396.94 263.793 424.702 266.719 430.233 266.866C439.104 267.093 466.305 252.17 484.622 248.282C494.094 246.292 495.15 251.702 491.088 257.474Z" fill="#AD6359"/>
<path d="M490.673 258.89C484.874 269.004 464.407 286.345 464.407 286.345L460.92 279.905L449.377 258.65C449.377 258.65 468.776 250.927 481.641 247.173C483.152 246.71 484.698 246.37 486.264 246.158C494.574 245.089 495.656 250.206 490.673 258.89Z" fill="#DBDBDB"/>
<path d="M490.674 258.89C484.876 269.004 464.409 286.345 464.409 286.345L460.922 279.905L458.544 275.523L449.365 258.663C449.365 258.663 468.777 250.914 481.643 247.16C483.156 246.709 484.702 246.374 486.266 246.158C486.43 246.146 486.595 246.146 486.76 246.158C494.616 245.303 495.577 250.38 490.674 258.89Z" fill="#DBDBDB"/>
<path d="M466.479 253.426C466.924 255.27 466.924 257.193 466.479 259.037C466.033 257.193 466.033 255.27 466.479 253.426ZM460.988 264.434C460.046 264.419 459.107 264.532 458.195 264.768C459.108 264.999 460.046 265.111 460.988 265.102C461.933 265.11 462.876 264.998 463.793 264.768C462.877 264.533 461.933 264.42 460.988 264.434ZM489.364 248.75C488.418 248.736 487.475 248.848 486.559 249.084C487.475 249.32 488.418 249.432 489.364 249.418C490.305 249.425 491.244 249.313 492.156 249.084C491.244 248.855 490.305 248.743 489.364 248.75ZM478.436 262.698C479.097 263.37 479.842 263.954 480.653 264.434C480.173 263.623 479.589 262.878 478.917 262.217C478.253 261.547 477.508 260.964 476.699 260.48C477.183 261.289 477.766 262.034 478.436 262.698ZM467.654 276.058C468.315 276.734 469.06 277.323 469.872 277.808C469.396 276.994 468.812 276.248 468.135 275.59C467.475 274.913 466.729 274.325 465.917 273.84C466.378 274.65 466.944 275.396 467.601 276.058H467.654Z" fill="white"/>
<path d="M467.975 281.602C466.038 277.688 457.488 261.923 455.417 258.636C455.27 258.409 455.096 258.436 455.203 258.636C458.991 266.513 463.201 274.179 467.815 281.602C467.868 281.762 468.029 281.709 467.975 281.602Z" fill="#263238"/>
<path d="M490.674 258.89C484.876 269.004 464.408 286.345 464.408 286.345L460.921 279.905L458.543 275.523C469.645 264.568 483.018 251.088 486.759 246.131C494.615 245.303 495.577 250.38 490.674 258.89Z" fill="#A6A6A6"/>
<path d="M471.742 305.476L474.774 338.876C478.86 338.688 482.931 338.278 486.972 337.647C497.629 336.049 508.187 333.85 518.595 331.061C528.923 328.389 541.027 324.701 554.868 319.785C554.868 319.785 523.565 263.326 501.962 247.748C501.468 247.387 500.987 247.053 500.492 246.746C500.399 246.666 500.305 246.626 500.212 246.559C490.392 240.346 481.508 245.223 476.591 252.143C475.349 253.88 463.325 281.215 463.926 290.38C464.474 298.436 471.742 305.476 471.742 305.476Z" fill="#DBDBDB"/>
<path d="M489.109 269.725C489.346 270.636 489.459 271.576 489.443 272.517C489.458 273.463 489.345 274.407 489.109 275.323C488.874 274.407 488.761 273.463 488.775 272.517C488.767 271.576 488.879 270.638 489.109 269.725ZM496.391 304.701C496.383 305.647 496.495 306.59 496.725 307.507C496.967 306.592 497.08 305.648 497.059 304.701C497.073 303.756 496.961 302.812 496.725 301.896C496.495 302.813 496.383 303.756 496.391 304.701ZM519.704 284.795C519.69 285.741 519.802 286.685 520.038 287.601C520.483 285.757 520.483 283.833 520.038 281.989C519.802 282.906 519.69 283.849 519.704 284.795ZM476.952 300.44C476.938 301.386 477.05 302.329 477.286 303.245C477.731 301.401 477.731 299.478 477.286 297.634C477.05 298.55 476.938 299.494 476.952 300.44ZM503.886 275.817C502.94 275.809 501.997 275.922 501.08 276.151C502.924 276.596 504.847 276.596 506.691 276.151C505.778 275.923 504.84 275.811 503.899 275.817H503.886ZM523.765 300.734C522.819 300.713 521.875 300.825 520.96 301.068C522.804 301.513 524.727 301.513 526.571 301.068C525.659 300.833 524.72 300.72 523.779 300.734H523.765ZM493.545 320.48C492.603 320.464 491.664 320.577 490.753 320.814C491.664 321.05 492.603 321.163 493.545 321.148C494.491 321.162 495.434 321.05 496.351 320.814C495.438 320.585 494.499 320.473 493.558 320.48H493.545ZM528.749 316.632C527.807 316.624 526.869 316.737 525.956 316.966C527.796 317.411 529.715 317.411 531.554 316.966C530.637 316.736 529.694 316.624 528.749 316.632ZM489.363 248.71C488.417 248.695 487.474 248.808 486.558 249.044C487.474 249.28 488.417 249.392 489.363 249.378C490.304 249.385 491.243 249.272 492.156 249.044C491.241 248.829 490.303 248.73 489.363 248.75V248.71ZM503.658 254.895C504.319 255.572 505.065 256.16 505.876 256.646C505.403 255.829 504.819 255.083 504.139 254.428C503.479 253.751 502.733 253.163 501.922 252.678C502.403 253.504 502.992 254.263 503.672 254.935L503.658 254.895ZM532.85 286.144C533.511 286.821 534.256 287.409 535.068 287.895C534.591 287.081 534.007 286.335 533.331 285.677C532.668 285.003 531.923 284.415 531.113 283.927C531.591 284.752 532.175 285.511 532.85 286.185V286.144ZM486.17 289.484C486.831 290.161 487.576 290.749 488.388 291.235C487.391 289.598 486.016 288.224 484.38 287.227C484.872 288.069 485.474 288.842 486.17 289.525V289.484ZM513.024 312.103C513.684 312.78 514.43 313.368 515.242 313.853C514.244 312.217 512.87 310.843 511.234 309.845C511.728 310.673 512.33 311.432 513.024 312.103ZM478.502 262.671C479.163 263.343 479.908 263.927 480.719 264.408C480.239 263.596 479.655 262.851 478.983 262.19C478.319 261.521 477.574 260.937 476.765 260.453C477.226 261.268 477.787 262.022 478.435 262.698L478.502 262.671ZM476.604 280.226C477.278 279.563 477.866 278.818 478.355 278.008C477.54 278.484 476.794 279.069 476.137 279.745C475.46 280.406 474.872 281.151 474.387 281.963C475.17 281.482 475.892 280.907 476.538 280.253L476.604 280.226ZM539.998 304.087C540.674 303.429 541.258 302.683 541.734 301.869C540.094 302.862 538.719 304.237 537.726 305.877C538.534 305.387 539.275 304.794 539.931 304.114L539.998 304.087ZM480.065 313.653C480.737 312.992 481.321 312.246 481.802 311.435C480.161 312.427 478.786 313.803 477.794 315.443C478.601 314.953 479.342 314.36 479.998 313.679L480.065 313.653ZM515.843 267.601C516.519 266.94 517.108 266.195 517.593 265.383C516.779 265.865 516.033 266.453 515.375 267.133C514.699 267.794 514.11 268.539 513.625 269.351C514.412 268.869 515.134 268.29 515.776 267.627L515.843 267.601ZM506.972 327.587C507.652 326.929 508.24 326.183 508.722 325.369C507.908 325.851 507.162 326.44 506.504 327.12C505.828 327.78 505.239 328.526 504.754 329.337C505.541 328.856 506.263 328.277 506.905 327.614L506.972 327.587ZM506.972 291.515C507.655 290.861 508.244 290.114 508.722 289.297C507.086 290.295 505.711 291.669 504.714 293.305C505.531 292.807 506.277 292.2 506.932 291.502L506.972 291.515Z" fill="white"/>
<path d="M494.08 245.984C493.893 247.32 488.575 256.004 482.777 256.231C480.88 256.298 480.038 246.011 480.038 246.011L479.798 245.263L476.498 234.829L488.308 225.784L490.032 224.568C490.032 224.568 490.74 227.494 491.595 231.128L491.715 231.649C491.715 231.849 491.822 232.036 491.862 232.237L492.263 233.88C492.356 234.308 492.45 234.722 492.53 235.216L492.811 236.552C493.448 239.664 493.872 242.815 494.08 245.984Z" fill="#AD6359"/>
<path d="M491.65 231.128C490.834 234.211 489.356 237.078 487.319 239.531C485.281 241.984 482.733 243.963 479.853 245.33L476.553 234.896L488.31 225.784L490.033 224.568C490.033 224.568 490.741 227.427 491.65 231.128Z" fill="#263238"/>
<path d="M461.856 219.104C461.763 238.316 473.265 240.547 477.407 240.56C481.161 240.56 493.973 240.146 496.111 221.041C498.249 201.936 489.284 195.831 480.694 195.336C472.103 194.842 461.95 199.852 461.856 219.104Z" fill="#AD6359"/>
<path d="M495.002 222.337C491.862 222.658 490.994 216.071 490.994 216.071C490.994 216.071 484.594 216.258 482.256 207.093C482.504 209.85 483.554 212.474 485.276 214.642C485.276 214.642 473.933 213.76 468.936 204.408C468.936 204.408 470.954 209.177 472.771 210.847C469.886 210.034 467.36 208.274 465.596 205.851C465.596 205.851 463.753 211.355 462.27 212.892C462.27 212.892 460.079 203.219 464.1 198.196C472.57 187.508 486.478 196.86 486.478 196.86C486.478 196.86 494.253 198.035 497.032 203.86C501.321 212.771 495.002 222.337 495.002 222.337Z" fill="#263238"/>
<path d="M492.986 222.457C492.986 222.457 496.673 216.138 499.519 217.407C502.364 218.676 499.92 227.601 496.847 229.044C496.467 229.258 496.048 229.393 495.615 229.441C495.181 229.49 494.743 229.45 494.325 229.326C493.908 229.201 493.519 228.994 493.184 228.716C492.848 228.438 492.572 228.095 492.371 227.708L492.986 222.457Z" fill="#AD6359"/>
<path d="M464.261 215.216C464.712 215.138 465.158 215.031 465.597 214.896C466.068 214.843 466.51 214.636 466.852 214.308C466.947 214.188 466.998 214.04 466.998 213.887C466.998 213.734 466.947 213.586 466.852 213.466C466.624 213.266 466.347 213.13 466.049 213.071C465.751 213.012 465.443 213.033 465.156 213.132C464.544 213.248 463.997 213.586 463.619 214.081C463.546 214.193 463.505 214.324 463.5 214.459C463.496 214.593 463.529 214.726 463.595 214.843C463.661 214.96 463.758 215.057 463.876 215.123C463.993 215.189 464.126 215.221 464.261 215.216Z" fill="#263238"/>
<path d="M476.792 216.713C476.343 216.668 475.897 216.596 475.456 216.499C474.968 216.489 474.497 216.315 474.12 216.004C474.023 215.885 473.971 215.737 473.971 215.584C473.971 215.43 474.023 215.282 474.12 215.163C474.329 214.944 474.594 214.786 474.885 214.706C475.177 214.626 475.485 214.627 475.777 214.709C476.396 214.777 476.97 215.066 477.393 215.523C477.48 215.633 477.533 215.766 477.547 215.905C477.561 216.044 477.535 216.185 477.472 216.31C477.408 216.435 477.311 216.539 477.191 216.61C477.07 216.682 476.932 216.717 476.792 216.713Z" fill="#263238"/>
<path d="M474.281 220.64C474.281 220.64 474.375 220.64 474.375 220.761C474.375 222.097 474.548 223.593 475.711 224.007V224.087C474.281 223.9 474 221.896 474.281 220.64Z" fill="#263238"/>
<path d="M475.39 219.251C477.5 219.051 477.741 223.259 475.777 223.486C473.813 223.713 473.613 219.411 475.39 219.251Z" fill="#263238"/>
<path d="M476.231 219.425C476.618 219.652 477.006 220.052 477.46 220.079C477.914 220.106 478.342 219.625 478.663 219.184H478.729C478.729 219.999 478.516 220.854 477.661 221.028C476.805 221.201 476.325 220.493 476.004 219.692C475.964 219.572 476.084 219.344 476.231 219.425Z" fill="#263238"/>
<path d="M466.919 220.707C466.919 220.707 466.812 220.774 466.825 220.827C466.946 222.163 466.825 223.673 465.703 224.181C467.159 223.954 467.24 221.936 466.919 220.707Z" fill="#263238"/>
<path d="M465.651 219.411C463.527 219.411 463.634 223.633 465.651 223.66C467.668 223.686 467.441 219.438 465.651 219.411Z" fill="#263238"/>
<path d="M464.781 219.705C464.447 219.946 464.127 220.36 463.726 220.4C463.325 220.44 462.898 219.986 462.59 219.545H462.523C462.523 220.36 462.817 221.201 463.606 221.335C464.394 221.469 464.821 220.747 464.942 219.932C465.035 219.839 464.928 219.612 464.781 219.705Z" fill="#263238"/>
<path d="M469.124 226.532C469.124 226.532 468.937 228.456 468.937 229.431C470.736 229.377 472.533 229.565 474.281 229.992C474.696 230.113 474.669 229.765 474.201 229.511C472.807 228.761 471.222 228.44 469.645 228.59C469.579 228.336 469.993 225.557 469.846 225.557C469.129 225.647 468.427 225.836 467.762 226.118C468.029 221.99 468.964 217.928 469.165 213.813C469.165 213.781 469.152 213.751 469.129 213.728C469.107 213.706 469.076 213.693 469.044 213.693C469.012 213.693 468.982 213.706 468.959 213.728C468.937 213.751 468.924 213.781 468.924 213.813C467.795 218.124 467.097 222.537 466.84 226.986C466.88 227.481 468.764 226.706 469.124 226.532Z" fill="#263238"/>
<path d="M471.115 229.431C471.785 230.311 472.723 230.949 473.787 231.248C475.404 231.409 475.511 229.912 473.707 229.231C472.841 229.059 471.945 229.128 471.115 229.431Z" fill="#263238"/>
<path d="M473.813 231.248C473.205 231.146 472.636 230.878 472.17 230.473C472.464 229.952 473.212 229.364 474.975 230.206C475.256 230.821 474.842 231.355 473.813 231.248Z" fill="#FF99BA"/>
<path d="M491.261 243.686C493.612 243.686 497.567 244.274 502.911 248.336C502.911 248.336 491.769 257.3 481.401 257.3C477.701 257.3 476.592 252.13 476.592 252.13C476.592 252.13 481.575 243.767 491.261 243.686Z" fill="#AD6359"/>
<path d="M667.279 628.348H623.632C591.915 628.348 572.516 606.424 569.029 566.624C567.306 546.998 566.251 523.244 565.142 498.101C561.722 420.84 557.032 315.069 526.959 315.069H492.396V307.053H526.959C564.687 307.053 568.989 404.006 573.144 497.767C574.253 522.83 575.309 546.504 577.019 565.903C579.196 590.726 589.043 620.318 623.632 620.318H667.279V628.348Z" fill="#FDC500"/>
<path opacity="0.2" d="M517.78 307.026L516.07 315.042H492.396V307.026H517.78Z" fill="black"/>
<path d="M427.254 263.058H413.279V360.707H427.254V263.058Z" fill="#FDC500"/>
<path d="M413.293 270.273H360.16V352.49H413.293V270.273Z" fill="#FDC500"/>
<path opacity="0.2" d="M413.278 270.286V352.504H400.079L394.16 270.286H413.278Z" fill="black"/>
<path d="M319.385 285.036H360.146V297.327H319.385C317.989 297.327 316.65 296.772 315.663 295.785C314.676 294.798 314.121 293.459 314.121 292.063V290.313C314.119 289.62 314.254 288.934 314.518 288.294C314.782 287.654 315.169 287.072 315.658 286.582C316.147 286.092 316.728 285.703 317.367 285.437C318.007 285.172 318.693 285.036 319.385 285.036Z" fill="#DBDBDB"/>
<path d="M360.146 285.036H345.838V297.313H360.146V285.036Z" fill="#A6A6A6"/>
<path d="M319.385 325.45H360.146V337.741H319.385C317.989 337.741 316.65 337.186 315.663 336.199C314.676 335.212 314.121 333.873 314.121 332.477V330.727C314.119 330.034 314.254 329.348 314.518 328.708C314.782 328.068 315.169 327.486 315.658 326.996C316.147 326.506 316.728 326.117 317.367 325.852C318.007 325.586 318.693 325.45 319.385 325.45Z" fill="#DBDBDB"/>
<path d="M360.146 325.45H345.838V337.727H360.146V325.45Z" fill="#A6A6A6"/>
<path d="M509.832 303.539H468.322V319.932H509.832V303.539Z" fill="#FDC500"/>
<path d="M509.832 303.552H468.322V319.945H509.832V303.552Z" fill="#FDC500"/>
<path opacity="0.2" d="M482.898 303.552L481.535 319.945H468.322V303.552H482.898Z" fill="black"/>
<path d="M427.254 273.372H460.106C462.285 273.372 464.375 274.238 465.916 275.779C467.457 277.32 468.323 279.41 468.323 281.589V341.188C468.323 343.367 467.457 345.457 465.916 346.998C464.375 348.538 462.285 349.404 460.106 349.404H427.254V273.372Z" fill="#FDC500"/>
<path opacity="0.2" d="M444.729 273.372L438.811 349.404H427.268V273.372H444.729Z" fill="black"/>
<g opacity="0.2">
<path d="M441.669 288.736H439.051V334.027H441.669V288.736Z" fill="black"/>
<path d="M449.097 288.736H446.479V334.027H449.097V288.736Z" fill="black"/>
<path d="M456.525 288.736H453.906V334.027H456.525V288.736Z" fill="black"/>
</g>
<path d="M505.984 257.674C510.579 270.567 503.993 317.794 496.204 327.801C484.634 342.631 461.775 356.271 453.038 360.533C449.217 362.39 432.103 335.029 435.83 332.477C443.846 326.986 469.377 313.88 471.542 311.275C473.706 308.669 485.356 283.646 490.018 269.578C496.284 250.687 503.672 251.168 505.984 257.674Z" fill="#AD6359"/>
<path d="M453.012 360.613C440.894 367.534 416.779 366.518 413.493 365.516L409.244 364.18C404.181 362.751 402.818 359.958 402.818 359.958C402.818 359.958 396.486 360.039 395.791 356.218C395.016 351.929 404.061 352.651 409.284 350.005C421.308 343.953 436.566 331.983 439.839 329.898L453.012 360.613Z" fill="#AD6359"/>
<path d="M426.291 352.49C422.812 354.313 419.21 355.889 415.51 357.206C411.381 358.404 407.171 359.297 402.911 359.878C402.891 359.886 402.873 359.9 402.861 359.917C402.849 359.935 402.842 359.957 402.842 359.979C402.842 360 402.849 360.022 402.861 360.04C402.873 360.057 402.891 360.071 402.911 360.079C411.271 359.851 419.408 357.338 426.438 352.811C426.612 352.704 426.465 352.41 426.291 352.49Z" fill="#263238"/>
<path d="M430.994 359.184C427.44 360.653 421.174 363.192 409.23 364.073C409.23 364.073 409.23 364.14 409.23 364.154C416.816 364.678 424.397 363.082 431.128 359.544C431.341 359.384 431.234 359.09 430.994 359.184Z" fill="#263238"/>
<path d="M423.246 341.816C424.488 340.48 423.754 339.758 420.467 340.346C417.181 340.934 404.689 346.091 403.259 341.588C401.83 337.086 419.572 330.059 425.116 329.484C430.126 329.225 435.148 329.373 440.133 329.925C436.953 331.983 429.418 337.701 423.246 341.816Z" fill="#AD6359"/>
<path d="M493.092 260.921C501.175 243.913 508.55 248.416 509.258 265.236C509.496 276.917 508.97 288.601 507.681 300.213L478.383 291.822C478.383 291.822 487.922 271.809 493.092 260.921Z" fill="#DBDBDB"/>
<path d="M500.386 251.008C502.022 252.005 503.397 253.379 504.394 255.016C502.758 254.018 501.384 252.644 500.386 251.008ZM488.776 272.544C488.762 273.49 488.874 274.433 489.11 275.35C489.346 274.433 489.459 273.49 489.444 272.544C489.459 271.602 489.347 270.663 489.11 269.752C488.88 270.664 488.768 271.603 488.776 272.544ZM503.9 275.844C502.954 275.836 502.012 275.948 501.094 276.178C502.938 276.623 504.861 276.623 506.705 276.178C505.789 275.939 504.847 275.818 503.9 275.817V275.844ZM486.171 289.525C486.832 290.201 487.577 290.79 488.389 291.275C487.391 289.638 486.017 288.264 484.381 287.267C484.876 288.095 485.478 288.854 486.171 289.525ZM506.933 291.502C507.616 290.848 508.205 290.101 508.683 289.284C507.046 290.282 505.672 291.656 504.675 293.292C505.505 292.801 506.265 292.199 506.933 291.502Z" fill="white"/>
<path d="M490.313 266.104C489.217 268.335 488.069 270.527 486.92 272.784C487.115 271.742 487.276 270.687 487.401 269.618H487.32C487.16 270.446 486.96 271.275 486.799 272.103C486.733 272.504 486.652 272.905 486.572 273.305C486.572 273.386 486.572 273.466 486.572 273.559C485.677 275.269 484.795 276.993 483.9 278.73C482.885 280.814 481.936 282.911 480.974 285.009C480.012 287.106 479.117 289.671 478.035 291.796C478.956 292.179 479.914 292.466 480.894 292.651C481.148 292.744 481.282 292.49 481.014 292.45C480.747 292.41 478.556 291.542 478.529 291.528C479.491 289.404 480.68 287.4 481.696 285.316C482.711 283.232 483.753 281.174 484.729 279.077C486.706 274.828 488.443 270.46 490.407 266.198C490.407 266.091 490.313 266.051 490.313 266.104Z" fill="#263238"/>
<path d="M510.473 276.231C510.206 277.1 509.898 277.968 509.671 278.903C509.591 279.277 509.498 279.638 509.404 280.012C509.511 276.966 509.609 273.929 509.698 270.901C509.284 275.871 508.856 280.827 508.536 285.797C508.071 290.557 507.852 295.337 507.881 300.119C507.003 299.911 506.109 299.772 505.209 299.705C506.18 300.118 507.199 300.409 508.242 300.573C508.977 295.764 509.03 290.446 509.27 285.61C509.337 284.274 509.377 282.938 509.431 281.508C509.591 280.667 509.832 279.838 510.059 279.01C510.286 278.182 510.459 277.22 510.647 276.338C510.58 276.205 510.486 276.178 510.473 276.231Z" fill="#263238"/>
<path d="M506.493 295.777C502.364 294.307 485.264 288.91 481.496 287.988C481.229 287.921 481.122 288.068 481.389 288.162C489.586 291.208 497.944 293.799 506.426 295.924C506.533 295.964 506.599 295.804 506.493 295.777Z" fill="#263238"/>
<path d="M362.859 291.248C366.867 292.477 366.052 287 366.052 287C366.052 287 369.192 294.588 373.854 294.254C378.517 293.92 377.074 287.334 376.994 286.853C377.154 287.253 380.227 294.147 384.876 293.332C389.525 292.517 387.294 286.078 387.134 285.677C387.415 285.998 391.142 290.259 394.562 288.83C400.387 286.372 391.089 275.203 391.77 270.126L399.96 270.366C400.229 270.34 400.496 270.3 400.761 270.246L401.069 266.064C398.451 265.002 395.923 263.733 393.507 262.27C390.421 260.533 387.441 258.957 385.224 258.903C384.229 258.85 383.243 259.119 382.413 259.67C381.582 260.221 380.952 261.025 380.614 261.963C380.614 261.963 378.21 258.169 374.522 258.703C372.638 258.984 371.409 262.257 371.409 262.257C370.817 261.419 370.004 260.762 369.061 260.358C368.117 259.955 367.08 259.821 366.065 259.972C363.473 260.507 362.645 263.713 362.645 263.713C362.645 263.713 359.359 261.776 356.887 263.192C351.93 265.944 354.202 288.576 362.859 291.248Z" fill="#AD6359"/>
<path d="M392.785 269.645L399.919 270.299C400.189 270.273 400.456 270.233 400.721 270.179C409.726 268.549 415.337 258.235 408.737 257.501C403.78 256.926 398.41 263.513 393.4 262.19L392.785 269.645Z" fill="#AD6359"/>
<path d="M362.472 264.127H362.351C361.216 272.03 362.511 280.091 366.065 287.24C366.186 287.467 366.6 287.36 366.52 287.093C364.061 279.675 362.697 271.939 362.472 264.127Z" fill="#263238"/>
<path d="M371.409 262.083C371.409 261.99 371.262 261.99 371.249 262.083C370.046 270.797 371.998 279.653 376.753 287.053C376.927 287.307 377.341 287.36 377.154 287.053C374.188 281.896 371.409 269.418 371.409 262.083Z" fill="#263238"/>
<path d="M387.668 285.998C383.058 278.73 381.228 270.714 380.547 262.217C380.547 262.11 380.386 262.137 380.36 262.217C379.571 266.465 380.573 271.836 381.696 275.951C382.676 279.788 384.643 283.302 387.4 286.144C387.534 286.265 387.775 286.158 387.668 285.998Z" fill="#263238"/>
<path d="M274.815 590.512C272.05 591.434 192.865 591.207 189.845 589.296C188.71 588.575 188.069 577.032 187.694 563.071C187.601 560.065 187.548 556.952 187.494 553.785C187.494 550.045 187.387 546.25 187.36 542.563C187.267 526.023 187.494 511.461 187.494 511.461H239.05V542.563V553.785L238.783 563.071C238.783 563.071 269.057 576.725 272.183 579.183C275.309 581.641 277.581 589.657 274.815 590.512Z" fill="#AD6359"/>
<path d="M274.816 590.512C272.05 591.434 192.866 591.207 189.846 589.296C188.711 588.575 188.069 577.032 187.695 563.071C187.602 560.065 187.548 556.952 187.495 553.785C187.495 550.045 187.388 546.25 187.361 542.563H239.024V553.785L238.757 563.071C238.757 563.071 269.031 576.725 272.157 579.183C275.283 581.641 277.581 589.657 274.816 590.512Z" fill="white"/>
<path d="M275.057 590.686C273.253 591.287 239.532 591.407 214.937 590.9C209.245 590.766 204.048 590.619 199.866 590.432C194.082 590.165 190.207 589.857 189.579 589.457C188.176 588.561 187.522 571.621 187.201 553.745H238.998L238.731 563.097C238.731 563.097 269.178 576.831 272.278 579.303C275.377 581.775 277.889 589.751 275.057 590.686Z" fill="#8471FE"/>
<path d="M273.88 587.506C260.52 587.132 206.68 586.918 193.453 587.573C193.346 587.573 193.346 587.64 193.453 587.653C206.68 588.308 260.534 588.081 273.88 587.72C274.201 587.706 274.214 587.506 273.88 587.506Z" fill="#263238"/>
<path d="M240.667 560.131C235.417 559.143 228.99 559.931 224.969 563.658C224.809 563.805 224.969 564.019 225.196 563.966C230.22 562.356 235.402 561.295 240.654 560.799C240.742 560.801 240.828 560.768 240.892 560.706C240.956 560.645 240.993 560.561 240.994 560.472C240.996 560.384 240.963 560.298 240.901 560.234C240.84 560.17 240.756 560.133 240.667 560.131Z" fill="#263238"/>
<path d="M244.487 562.456C239.237 561.454 232.811 562.242 228.776 565.983C228.629 566.117 228.776 566.344 229.003 566.29C234.034 564.671 239.226 563.601 244.487 563.097C244.557 563.077 244.617 563.035 244.661 562.977C244.704 562.919 244.728 562.849 244.728 562.777C244.728 562.704 244.704 562.634 244.661 562.576C244.617 562.518 244.557 562.476 244.487 562.456Z" fill="#263238"/>
<path d="M248.242 564.727C242.991 563.725 236.565 564.513 232.544 568.241C232.383 568.388 232.544 568.615 232.757 568.561C237.783 566.957 242.964 565.891 248.215 565.382C248.291 565.37 248.361 565.332 248.413 565.274C248.464 565.216 248.494 565.143 248.497 565.065C248.5 564.988 248.476 564.912 248.43 564.851C248.383 564.789 248.317 564.745 248.242 564.727Z" fill="#263238"/>
<path d="M252.023 567.025C246.772 566.023 240.346 566.811 236.325 570.539C236.164 570.686 236.325 570.913 236.552 570.859C241.57 569.247 246.748 568.181 251.996 567.68C252.072 567.668 252.142 567.63 252.193 567.572C252.245 567.514 252.275 567.441 252.278 567.363C252.281 567.286 252.257 567.21 252.211 567.149C252.164 567.087 252.098 567.043 252.023 567.025Z" fill="#263238"/>
<path d="M250.406 548.014C248.349 545.168 244.501 546.437 242.31 548.268C238.595 551.494 235.793 555.641 234.187 560.292C234.178 560.312 234.174 560.334 234.176 560.356C234.178 560.378 234.185 560.399 234.197 560.417C234.209 560.436 234.225 560.451 234.244 560.462C234.264 560.473 234.285 560.478 234.307 560.479C234.307 560.88 234.681 561.307 235.122 561.133C239.464 559.544 244.314 558.381 248.028 555.495C250.206 553.812 252.357 550.713 250.406 548.014ZM241.214 557.366C239.103 558.194 236.952 558.929 234.868 559.837C236.384 557.453 238.02 555.148 239.771 552.93C240.628 551.866 241.562 550.866 242.564 549.938C244.127 548.508 250.326 545.502 249.377 551.274C248.856 554.44 243.739 556.364 241.214 557.366Z" fill="#263238"/>
<path d="M220.841 558.862C225.156 560.719 230.193 560.639 234.735 561.107C234.837 561.106 234.938 561.082 235.029 561.036C235.121 560.991 235.201 560.925 235.263 560.844C235.325 560.762 235.367 560.668 235.387 560.567C235.406 560.467 235.403 560.364 235.376 560.265C235.393 560.253 235.406 560.236 235.416 560.218C235.425 560.199 235.43 560.179 235.43 560.158C235.43 560.137 235.425 560.117 235.416 560.098C235.406 560.08 235.393 560.064 235.376 560.051C232.68 555.957 228.958 552.64 224.581 550.432C221.99 549.203 217.901 548.936 216.672 552.209C215.443 555.482 218.316 557.78 220.841 558.862ZM218.476 555.121C216.125 549.777 222.871 551.113 224.742 552.115C225.941 552.781 227.097 553.521 228.202 554.333C230.451 556.041 232.609 557.865 234.668 559.797C232.424 559.437 230.166 559.263 227.908 558.982C225.209 558.648 219.772 558.061 218.476 555.121Z" fill="#263238"/>
<path d="M246.373 550.111L182.485 551.26C182.485 551.26 173.788 494.734 168.07 459.584C165.905 446.371 164.195 436.164 163.501 433.091C161.844 425.756 129.473 309.337 129.473 309.337L175.912 309.271H191.784C191.784 309.271 190.768 328.736 191.37 330.78C199.653 358.956 216.58 408.923 221.87 426.331C229.98 453.091 246.373 550.111 246.373 550.111Z" fill="#A6A6A6"/>
<path d="M240.56 540.319C231.396 540.252 198.877 539.891 186.666 541.027C186.649 541.034 186.634 541.046 186.624 541.061C186.613 541.076 186.607 541.095 186.607 541.113C186.607 541.132 186.613 541.15 186.624 541.166C186.634 541.181 186.649 541.193 186.666 541.2C190.875 541.801 231.396 540.866 240.574 540.572C240.594 540.578 240.616 540.578 240.636 540.574C240.657 540.57 240.676 540.56 240.692 540.547C240.709 540.534 240.722 540.517 240.73 540.498C240.739 540.478 240.743 540.457 240.742 540.436C240.741 540.415 240.735 540.395 240.724 540.376C240.713 540.358 240.699 540.343 240.681 540.331C240.663 540.32 240.643 540.313 240.622 540.31C240.601 540.308 240.58 540.311 240.56 540.319Z" fill="#263238"/>
<path d="M183.526 492.142C181.317 477.526 178.854 462.946 176.138 448.402C174.802 441.254 173.345 434.12 171.475 427.026C169.604 419.932 167.226 412.917 164.795 405.957C160.012 392.116 155.443 378.208 151.154 364.207C146.866 350.206 142.871 336.151 139.13 321.976C138.649 320.186 138.182 318.396 137.661 316.632C137.661 316.485 137.407 316.552 137.434 316.632C138.89 323.766 140.774 330.834 142.577 337.888C144.381 344.942 146.318 351.969 148.335 358.97C152.397 373.025 156.801 386.981 161.548 400.84C163.913 407.734 166.371 414.614 168.469 421.602C170.566 428.589 172.196 435.67 173.653 442.804C176.605 457.286 179.117 471.862 181.441 486.438C183.766 501.013 185.757 515.83 187.707 530.526C187.961 532.383 188.202 534.253 188.442 536.123C188.509 536.645 189.337 536.645 189.284 536.123C187.774 521.468 185.703 506.785 183.526 492.142Z" fill="#263238"/>
<path d="M175.912 309.244L168.07 459.584C165.905 446.371 164.195 436.164 163.501 433.091C161.844 425.756 129.473 309.337 129.473 309.337L175.912 309.244Z" fill="#263238"/>
<path d="M195.577 603.177C192.811 604.099 113.627 603.872 110.607 601.948C109.472 601.24 108.83 589.697 108.456 575.736C108.363 572.717 108.309 569.617 108.256 566.451C108.256 562.697 108.149 558.916 108.122 555.228C108.029 538.689 108.256 524.126 108.256 524.126H159.799V566.464L159.531 575.749C159.531 575.749 189.805 589.403 192.931 591.861C196.058 594.32 198.342 602.269 195.577 603.177Z" fill="#AD6359"/>
<path d="M195.578 603.177C192.812 604.099 113.627 603.872 110.608 601.948C109.472 601.24 108.831 589.697 108.457 575.736C108.364 572.717 108.31 569.617 108.257 566.451C108.257 562.697 108.15 558.916 108.123 555.228H159.786V566.464L159.519 575.749C159.519 575.749 189.793 589.403 192.919 591.861C196.045 594.32 198.343 602.269 195.578 603.177Z" fill="white"/>
<path d="M195.817 603.298C194.013 603.885 160.279 604.006 135.697 603.498C130.019 603.378 124.822 603.217 120.627 603.044C114.855 602.777 110.981 602.456 110.339 602.055C109.003 601.16 108.282 584.233 107.975 566.357H159.771L159.504 575.709C159.504 575.709 189.978 589.43 193.078 591.848C196.177 594.266 198.595 602.362 195.817 603.298Z" fill="#8471FE"/>
<path d="M194.681 600.105C181.321 599.744 127.467 599.517 114.254 600.171C114.147 600.171 114.147 600.252 114.254 600.265C127.467 600.906 181.335 600.692 194.681 600.332C194.962 600.318 194.962 600.118 194.681 600.105Z" fill="#263238"/>
<path d="M161.429 572.743C156.179 571.741 149.753 572.529 145.731 576.257C145.571 576.404 145.731 576.631 145.945 576.577C150.97 574.973 156.152 573.907 161.402 573.398C161.479 573.386 161.549 573.348 161.6 573.29C161.651 573.232 161.681 573.159 161.684 573.081C161.688 573.004 161.664 572.928 161.617 572.867C161.571 572.805 161.504 572.761 161.429 572.743Z" fill="#263238"/>
<path d="M165.21 575.041C159.96 574.039 153.533 574.827 149.512 578.555C149.352 578.702 149.512 578.929 149.739 578.875C154.762 577.262 159.945 576.196 165.197 575.696C165.273 575.682 165.341 575.642 165.391 575.584C165.441 575.525 165.47 575.451 165.471 575.374C165.473 575.297 165.448 575.222 165.4 575.161C165.352 575.1 165.285 575.058 165.21 575.041Z" fill="#263238"/>
<path d="M169.005 577.326C163.754 576.337 157.328 577.125 153.293 580.853C153.146 581 153.293 581.213 153.521 581.16C158.546 579.558 163.728 578.497 168.978 577.994C169.067 577.997 169.153 577.965 169.218 577.905C169.283 577.845 169.322 577.762 169.325 577.673C169.329 577.585 169.297 577.498 169.237 577.433C169.177 577.368 169.093 577.329 169.005 577.326Z" fill="#263238"/>
<path d="M172.785 579.624C167.534 578.635 161.108 579.423 157.087 583.151C156.926 583.298 157.087 583.511 157.3 583.458C162.326 581.858 167.508 580.796 172.758 580.292C172.846 580.295 172.933 580.263 172.998 580.203C173.063 580.143 173.102 580.06 173.105 579.971C173.109 579.882 173.077 579.796 173.017 579.731C172.957 579.666 172.873 579.627 172.785 579.624Z" fill="#263238"/>
<path d="M171.168 560.626C169.11 557.767 165.263 559.036 163.058 560.88C159.343 564.106 156.542 568.253 154.935 572.904C154.929 572.925 154.928 572.947 154.932 572.969C154.936 572.991 154.944 573.011 154.957 573.029C154.97 573.047 154.987 573.062 155.006 573.073C155.025 573.083 155.047 573.089 155.069 573.091C155.063 573.193 155.081 573.295 155.123 573.388C155.164 573.482 155.228 573.564 155.307 573.628C155.387 573.692 155.481 573.736 155.581 573.757C155.682 573.777 155.785 573.773 155.884 573.745C160.226 572.155 165.062 570.993 168.79 568.107C171.007 566.464 173.105 563.311 171.168 560.626ZM161.976 569.978C159.852 570.819 157.714 571.541 155.63 572.463C157.22 570.125 158.703 567.733 160.52 565.556C161.384 564.494 162.317 563.49 163.312 562.55C164.889 561.133 171.074 558.127 170.139 563.886C169.671 567.052 164.501 568.976 161.976 569.964V569.978Z" fill="#263238"/>
<path d="M141.615 571.474C145.944 573.331 150.967 573.251 155.523 573.719C155.627 573.719 155.729 573.695 155.821 573.649C155.914 573.603 155.994 573.535 156.055 573.451C156.117 573.368 156.157 573.271 156.174 573.169C156.19 573.067 156.183 572.962 156.151 572.864C156.172 572.857 156.191 572.845 156.206 572.83C156.222 572.815 156.234 572.796 156.242 572.776C156.25 572.755 156.253 572.733 156.251 572.712C156.249 572.69 156.242 572.669 156.231 572.65C153.509 568.56 149.764 565.253 145.369 563.057C142.778 561.828 138.689 561.561 137.46 564.834C136.231 568.107 139.063 570.392 141.615 571.474ZM139.264 567.72C136.913 562.376 143.659 563.712 145.53 564.727C146.732 565.383 147.888 566.12 148.99 566.932C151.236 568.648 153.394 570.476 155.456 572.409C153.198 572.035 150.941 571.875 148.683 571.594C145.971 571.26 140.533 570.672 139.237 567.72H139.264Z" fill="#263238"/>
<path d="M167 561.962H104.488C104.488 561.962 118.075 368.135 115.884 357.273C112.291 339.491 114.682 319.064 123.099 309.177H178.716C178.716 309.177 179.825 324.782 174.081 334.107C174.081 334.107 168.857 337.407 166.332 338.863L167 561.962Z" fill="#A6A6A6"/>
<path d="M161.175 551.848C152.518 551.634 155.016 551.568 146.345 551.447C142.11 551.381 114.281 550.993 110.273 551.621C110.18 551.621 110.18 551.781 110.273 551.795C114.281 552.476 142.097 552.383 146.345 552.356C155.003 552.356 152.518 552.236 161.175 552.102C161.202 552.093 161.225 552.076 161.241 552.053C161.258 552.031 161.267 552.003 161.267 551.975C161.267 551.947 161.258 551.92 161.241 551.897C161.225 551.874 161.202 551.857 161.175 551.848Z" fill="#263238"/>
<path d="M177.555 331.662C172.087 334.298 166.853 337.396 161.911 340.92C161.87 340.945 161.841 340.985 161.829 341.032C161.818 341.078 161.826 341.127 161.85 341.168C161.875 341.208 161.915 341.238 161.962 341.249C162.008 341.26 162.057 341.253 162.098 341.228C167.442 338.302 172.786 335.47 177.916 332.263C177.996 332.215 178.053 332.138 178.076 332.048C178.098 331.957 178.084 331.862 178.036 331.782C177.988 331.703 177.911 331.645 177.82 331.623C177.73 331.6 177.635 331.614 177.555 331.662Z" fill="#263238"/>
<path d="M170.46 330.86C170.143 331.939 169.893 333.037 169.711 334.147C169.484 335.019 169.425 335.925 169.538 336.819C169.538 336.993 169.818 336.979 169.898 336.819C170.318 335.977 170.606 335.076 170.753 334.147C171.021 333.118 171.315 332.103 171.542 331.074C171.702 330.42 170.673 330.192 170.46 330.86Z" fill="#263238"/>
<path d="M169.965 325.503C170.112 324.568 170.259 323.646 170.433 322.724C170.607 321.802 170.847 320.8 170.941 319.838C170.941 319.678 171.208 319.732 171.181 319.838C171.034 320.774 171.021 321.736 170.941 322.671C170.861 323.606 170.78 324.555 170.687 325.49C170.499 327.253 170.222 329.005 169.859 330.74C170.781 330.583 171.658 330.223 172.424 329.685C173.134 328.953 173.601 328.02 173.76 327.013C174.027 325.944 174.267 324.875 174.548 323.806C174.926 322.649 175.199 321.459 175.363 320.253C175.363 320.092 175.63 320.146 175.603 320.253C175.386 322.792 174.912 325.304 174.187 327.748C174.031 328.717 173.533 329.598 172.784 330.233C171.82 330.747 170.761 331.061 169.672 331.154C169.551 331.154 169.364 331.154 169.378 331.007C169.482 329.164 169.678 327.327 169.965 325.503Z" fill="#263238"/>
<path d="M124.916 356.565C124.516 352.477 123.848 348.415 123.407 344.327C122.571 336.143 123.068 327.877 124.876 319.852C124.876 319.705 124.676 319.638 124.649 319.852C123.067 326.9 122.332 334.112 122.458 341.335C122.819 348.549 124.102 355.657 124.208 362.884C124.315 370.112 123.754 377.513 123.287 384.808C122.819 392.103 122.338 399.504 121.87 406.839C119.973 436.351 118.223 465.863 116.42 495.389C115.921 503.618 115.44 511.857 114.977 520.105C114.496 528.481 113.908 536.872 113.641 545.275C113.641 545.996 114.683 545.943 114.75 545.275C116.005 530.459 116.727 515.589 117.675 500.773C118.624 485.957 119.466 471.381 120.347 456.685C121.229 441.989 122.124 427.293 123.019 412.597C123.447 405.258 123.892 397.919 124.355 390.58C124.783 383.272 125.317 375.95 125.424 368.629C125.483 364.601 125.313 360.574 124.916 356.565Z" fill="#263238"/>
<path d="M144.609 319.304C144.597 319.285 144.581 319.269 144.561 319.258C144.541 319.247 144.519 319.241 144.496 319.241C144.473 319.241 144.451 319.247 144.431 319.258C144.411 319.269 144.394 319.285 144.382 319.304C144.05 320.272 143.875 321.287 143.861 322.31C143.688 323.405 143.434 324.486 143.1 325.543C142.486 327.669 141.336 329.602 139.76 331.154C136.259 334.428 131.57 335.643 127.054 336.739C127.024 336.748 126.998 336.767 126.98 336.792C126.961 336.817 126.951 336.848 126.951 336.879C126.951 336.91 126.961 336.941 126.98 336.966C126.998 336.991 127.024 337.01 127.054 337.019C129.738 337.14 132.418 336.722 134.937 335.79C137.184 335.103 139.257 333.942 141.016 332.383C142.695 330.786 143.842 328.71 144.302 326.438C144.541 325.25 144.666 324.043 144.676 322.831C144.676 322.257 144.676 321.682 144.676 321.094C144.772 320.499 144.749 319.891 144.609 319.304Z" fill="#263238"/>
<path d="M170.793 244.328C171.942 253.413 189.738 287.187 208.682 302.15C215.629 307.641 252.463 310.887 261.681 310.166C272.463 309.337 274.079 283.673 268.041 281.669C260.492 279.171 225.569 276.084 218.716 273.653C210.379 270.634 195.202 251.248 180.773 239.251C173.358 233.038 169.912 237.34 170.793 244.328Z" fill="#AD6359"/>
<path d="M261.682 310.179C265.089 310.086 280.68 308.295 284.915 306.826C289.15 305.356 300.947 300.253 300.199 296.899C299.451 293.546 295.817 294.762 295.817 294.762C295.817 294.762 300.48 291.809 299.371 288.509C298.262 285.209 292.691 287.293 292.691 287.293C292.691 287.293 297.26 283.913 295.91 280.694C294.561 277.474 289.364 280.507 289.364 280.507C289.364 280.507 293.693 277.607 291.475 275.416C288.803 272.744 281.428 279.037 276.645 280.306C275.55 280.6 254.174 284.595 254.174 284.595L261.682 310.179Z" fill="#AD6359"/>
<path d="M289.912 280.253C284.474 284.822 281.308 285.891 274.387 286.839C274.364 286.847 274.343 286.863 274.329 286.883C274.314 286.904 274.307 286.928 274.307 286.953C274.307 286.978 274.314 287.002 274.329 287.023C274.343 287.043 274.364 287.058 274.387 287.066C281.241 286.746 285.409 285.984 290.139 280.507C290.339 280.239 290.125 280.039 289.912 280.253Z" fill="#263238"/>
<path d="M293.159 286.919C287.107 291.248 283.687 292.357 276.553 293.92C276.459 293.92 276.486 294.12 276.553 294.107C283.714 293.185 287.855 292.33 293.346 287.28C293.573 287.026 293.44 286.719 293.159 286.919Z" fill="#263238"/>
<path d="M295.443 294.829C289.284 298.529 285.584 299.986 278.423 300.587C278.387 300.587 278.353 300.601 278.328 300.626C278.303 300.651 278.289 300.685 278.289 300.72C278.289 300.756 278.303 300.79 278.328 300.815C278.353 300.84 278.387 300.854 278.423 300.854C284.666 301.23 290.808 299.138 295.523 295.029C295.884 294.748 295.831 294.601 295.443 294.829Z" fill="#263238"/>
<path d="M249.23 281.789C252.829 279.464 256.593 277.405 260.493 275.63C264.26 274.294 280.159 274.294 280.333 277.741C280.573 282.177 271.395 283.953 266.786 284.247C266.786 284.247 267.36 294.495 261.041 297.207C254.721 299.919 249.23 281.789 249.23 281.789Z" fill="#AD6359"/>
<path d="M280.012 278.984C277.34 283.179 271.235 283.165 266.786 283.78C266.719 283.783 266.653 283.804 266.596 283.839C266.538 283.874 266.491 283.923 266.458 283.982C266.424 284.041 266.406 284.107 266.405 284.174C266.404 284.242 266.42 284.308 266.452 284.368C266.452 288.683 265.116 294.748 261.308 297.3C261.188 297.38 261.308 297.554 261.402 297.487C265.824 295.296 267.614 289.471 267.36 284.702C271.93 284.154 278.048 283.9 280.052 278.997C280.066 278.97 280.026 278.957 280.012 278.984Z" fill="#263238"/>
<path d="M229.859 309.685C229.859 309.685 210.994 304.528 208.696 302.724C206.189 300.754 203.798 298.639 201.536 296.392C184.368 279.518 174.001 256.512 171.195 248.496C168.229 239.959 170.954 231.783 178.904 237.287C179.543 237.74 180.159 238.226 180.747 238.743C190.099 246.893 215.109 271.676 218.155 272.945C221.201 274.214 235.884 276.138 235.884 276.138L229.859 309.685Z" fill="#4E34FE"/>
<path d="M201.536 296.392C184.368 279.518 174.001 256.512 171.195 248.496C168.229 239.959 170.954 231.783 178.904 237.287L201.536 296.392Z" fill="#263238"/>
<path d="M229.792 275.55C228.914 278.128 228.187 280.756 227.614 283.419C226.96 286.091 226.278 288.763 225.731 291.435C224.541 296.675 223.649 301.979 223.059 307.32C223.059 307.352 223.071 307.383 223.094 307.405C223.116 307.428 223.147 307.44 223.179 307.44C223.211 307.44 223.241 307.428 223.264 307.405C223.286 307.383 223.299 307.352 223.299 307.32C224.742 302.083 225.811 296.726 226.906 291.408C227.454 288.736 227.948 286.145 228.496 283.526C229.044 280.907 229.698 278.182 229.992 275.59C229.998 275.564 229.992 275.536 229.977 275.513C229.962 275.491 229.939 275.475 229.912 275.47C229.886 275.465 229.858 275.47 229.836 275.485C229.813 275.5 229.797 275.523 229.792 275.55Z" fill="#263238"/>
<path d="M189.098 262.831C189.539 264.809 189.887 266.839 190.154 268.923C190.147 268.843 190.147 268.763 190.154 268.683C190.261 267.547 190.341 266.385 190.541 265.263C190.541 265.263 190.648 265.196 190.648 265.263C190.717 266.418 190.672 267.577 190.515 268.723C190.448 269.271 190.381 269.819 190.301 270.353C190.394 271.275 190.474 272.197 190.528 273.105C190.635 274.842 190.969 282.257 190.929 283.526C190.929 283.793 190.621 283.82 190.555 283.526C190.301 282.19 189.633 274.588 189.446 272.838C189.096 269.501 188.927 266.147 188.938 262.791C188.965 262.751 189.072 262.765 189.098 262.831Z" fill="#263238"/>
<path d="M191.221 318.329C188.549 320.734 185.289 324.247 166.532 325.556C165.356 325.556 164.154 325.65 162.951 325.556C144.889 325.049 119.545 310.86 118.035 309.738C118.035 309.738 137.501 257.073 163.245 236.859C166.919 233.96 174.802 235.39 179.732 238.369C181.495 239.438 187.32 249.177 188.496 258.048C189.671 266.919 193.88 315.924 191.221 318.329Z" fill="#4E34FE"/>
<path d="M176.593 251.569C172.051 251.943 165.545 244.087 163.407 238.209C163.26 237.808 164.436 233.974 165.638 229.244C166.36 226.372 167.094 223.165 167.549 220.186C167.642 219.572 169.553 221.015 169.553 221.015L173.267 222.538L185.558 227.588C183.916 231.15 182.718 234.902 181.991 238.757C181.951 239.174 181.951 239.595 181.991 240.012C181.997 240.079 181.997 240.146 181.991 240.213C181.951 242.578 180.975 251.168 176.593 251.569Z" fill="#AD6359"/>
<path d="M181.937 239.999C181.943 240.066 181.943 240.133 181.937 240.199C181.287 240.191 180.639 240.129 179.999 240.012C167.441 237.808 168.336 221.549 168.336 221.549L173.279 222.524L185.571 227.574C183.928 231.137 182.73 234.888 182.003 238.743C181.942 239.159 181.919 239.579 181.937 239.999Z" fill="#263238"/>
<path d="M166.278 200.614C163.887 207.214 166.438 226.746 170.981 231.342C177.567 238.022 188.856 239.131 194.588 231.088C200.159 223.312 196.378 197.902 191.261 193.68C183.713 187.494 169.805 190.874 166.278 200.614Z" fill="#AD6359"/>
<path d="M184.074 214.134C184.074 214.134 183.981 214.214 183.994 214.268C184.195 215.604 184.221 217.113 183.072 217.701C183.072 217.701 183.072 217.781 183.072 217.768C184.529 217.381 184.488 215.337 184.074 214.134Z" fill="#263238"/>
<path d="M182.725 212.905C180.588 213.012 180.962 217.274 182.939 217.18C184.916 217.087 184.516 212.811 182.725 212.905Z" fill="#263238"/>
<path d="M192.171 213.252C192.171 213.252 192.278 213.252 192.278 213.359C192.358 214.695 192.665 216.192 193.894 216.539C192.385 216.526 192.024 214.522 192.171 213.252Z" fill="#263238"/>
<path d="M193.239 211.769C195.35 211.435 195.911 215.684 193.921 216.005C191.93 216.325 191.463 212.063 193.239 211.769Z" fill="#263238"/>
<path d="M181.069 209.752C181.63 209.552 182.124 209.271 182.672 209.017C183.268 208.843 183.79 208.477 184.155 207.975C184.244 207.795 184.27 207.591 184.228 207.395C184.187 207.199 184.081 207.022 183.928 206.893C183.581 206.692 183.187 206.587 182.786 206.587C182.385 206.587 181.991 206.692 181.643 206.893C180.877 207.182 180.247 207.75 179.88 208.483C179.813 208.652 179.795 208.837 179.829 209.016C179.864 209.195 179.948 209.361 180.072 209.494C180.197 209.627 180.357 209.722 180.533 209.767C180.71 209.813 180.895 209.808 181.069 209.752Z" fill="#263238"/>
<path d="M194.576 210.327C193.992 210.262 193.412 210.164 192.839 210.033C192.214 210.013 191.613 209.787 191.129 209.391C191.01 209.234 190.945 209.041 190.945 208.844C190.945 208.646 191.01 208.454 191.129 208.296C191.404 208.004 191.753 207.792 192.139 207.684C192.525 207.576 192.933 207.575 193.32 207.681C194.138 207.766 194.895 208.152 195.444 208.763C195.56 208.914 195.628 209.095 195.642 209.285C195.656 209.474 195.614 209.663 195.522 209.829C195.43 209.995 195.291 210.131 195.123 210.219C194.955 210.307 194.765 210.345 194.576 210.327Z" fill="#263238"/>
<path d="M190.313 220.44C190.447 221.401 190.531 222.369 190.566 223.339C188.76 223.347 186.962 223.598 185.222 224.087C184.822 224.221 184.822 223.874 185.222 223.606C186.583 222.797 188.158 222.419 189.738 222.524C189.738 222.27 189.284 219.505 189.431 219.492C190.149 219.565 190.854 219.731 191.528 219.986C191.114 215.871 190.045 211.85 189.685 207.748C189.685 207.601 189.885 207.548 189.925 207.681C191.216 211.953 192.071 216.344 192.477 220.787C192.597 221.308 190.687 220.587 190.313 220.44Z" fill="#263238"/>
<path d="M167.694 216.9C171.061 216.659 170.633 208.429 170.633 208.429C170.633 208.429 175.763 207.441 178.182 200.413C178.182 200.413 184.862 204.421 190.379 203.406C199.037 201.723 198.662 190.434 195.389 188.176C190.74 184.969 182.59 189.819 182.59 189.819C182.59 189.819 170.139 186.519 166.558 194.963C164.951 195.094 163.453 195.831 162.367 197.023C161.281 198.216 160.688 199.776 160.707 201.389C160.386 207.468 165.196 217.073 167.694 216.9Z" fill="#263238"/>
<path d="M169.444 209.418C171.935 208.957 174.202 207.678 175.884 205.784C176.788 204.76 177.431 203.533 177.759 202.207C178.087 200.881 178.09 199.496 177.768 198.169C177.776 198.145 177.791 198.125 177.811 198.11C177.832 198.096 177.856 198.088 177.881 198.088C177.906 198.088 177.93 198.096 177.951 198.11C177.971 198.125 177.986 198.145 177.995 198.169C178.395 199.558 178.482 201.019 178.251 202.447C178.02 203.874 177.476 205.233 176.659 206.425C175.842 207.556 174.744 208.453 173.474 209.03C172.204 209.606 170.806 209.841 169.418 209.712C169.337 209.645 169.297 209.445 169.444 209.418Z" fill="#263238"/>
<path d="M182.257 190.193C183.33 188.422 185.011 187.101 186.986 186.479C189.388 185.797 191.957 186.026 194.201 187.12C195.093 187.588 195.847 188.282 196.386 189.134C196.926 189.985 197.232 190.963 197.274 191.97C197.3 194.306 196.522 196.58 195.069 198.409C195.069 198.409 194.949 198.409 194.989 198.409C196.148 196.682 196.741 194.637 196.686 192.558C196.649 191.568 196.334 190.609 195.776 189.791C195.218 188.974 194.441 188.33 193.533 187.935C189.952 186.399 184.742 186.719 182.444 190.367C182.377 190.447 182.177 190.313 182.257 190.193Z" fill="#263238"/>
<path d="M169.671 216.592C169.671 216.592 165.489 210.193 162.59 211.676C159.691 213.159 162.724 222.364 166.024 223.7C166.435 223.9 166.882 224.016 167.338 224.04C167.795 224.063 168.251 223.994 168.68 223.837C169.11 223.68 169.503 223.438 169.836 223.125C170.169 222.812 170.436 222.435 170.62 222.016L169.671 216.592Z" fill="#AD6359"/>
<path d="M163.459 214.281C163.459 214.281 163.459 214.348 163.459 214.375C164.515 214.943 165.44 215.726 166.174 216.674C166.909 217.622 167.435 218.714 167.721 219.879C167.593 219.639 167.414 219.43 167.197 219.266C166.98 219.102 166.73 218.988 166.464 218.931C166.198 218.873 165.923 218.875 165.658 218.935C165.393 218.995 165.144 219.112 164.929 219.278C164.929 219.278 164.929 219.411 164.929 219.398C165.344 219.28 165.785 219.294 166.192 219.438C166.599 219.581 166.951 219.847 167.2 220.2C167.614 220.793 167.964 221.429 168.242 222.097C168.349 222.31 168.723 222.204 168.656 221.963C168.843 218.93 166.652 214.682 163.459 214.281Z" fill="#263238"/>
<path d="M43.6471 628.348H0V620.332H43.6471C78.2228 620.332 88.0825 590.739 90.2602 565.916C91.9702 546.477 93.0123 522.804 94.1212 497.78C98.2762 404.02 102.578 307.066 140.307 307.066H174.882V315.082H140.28C110.22 315.082 105.544 420.88 102.11 498.114C100.988 523.271 99.9328 547.025 98.2227 566.651C94.7491 606.424 75.3638 628.348 43.6471 628.348Z" fill="#8471FE"/>
<path opacity="0.2" d="M174.883 307.026V315.042H147.308L145.598 307.026H174.883Z" fill="black"/>
<path d="M294.828 362.818H309.551V259.972H294.828V362.818Z" fill="#8471FE"/>
<path d="M294.829 264.849H238.877V356.872H294.829V264.849Z" fill="#8471FE"/>
<path opacity="0.2" d="M294.829 264.849V356.872H280.934L274.695 264.849H294.829Z" fill="black"/>
<path d="M154.121 319.224H195.631V302.831H154.121V319.224Z" fill="#8471FE"/>
<path d="M195.631 302.844H154.121V319.237H195.631V302.844Z" fill="#8471FE"/>
<path opacity="0.2" d="M181.055 319.224L182.417 302.844H195.63V319.224H181.055Z" fill="black"/>
<path d="M238.877 351.422H203.847C201.668 351.422 199.578 350.556 198.037 349.015C196.496 347.474 195.631 345.384 195.631 343.205V279.558C195.631 277.379 196.496 275.289 198.037 273.748C199.578 272.207 201.668 271.342 203.847 271.342H238.877V351.422Z" fill="#8471FE"/>
<path opacity="0.2" d="M220.467 351.421L226.706 271.355H238.877V351.421H220.467Z" fill="black"/>
<g opacity="0.2">
<path d="M223.686 335.229H226.451V287.534H223.686V335.229Z" fill="black"/>
<path d="M215.869 335.229H218.635V287.534H215.869V335.229Z" fill="black"/>
<path d="M208.041 335.229H210.807V287.534H208.041V335.229Z" fill="black"/>
</g>
<path d="M151.57 255.376C150.234 274.668 148.711 313.96 157.235 325.49C168.417 340.613 199.987 349.792 209.339 352.544C213.347 353.733 222.952 327.16 220.574 323.339C218.196 319.518 185.611 311.315 183.046 309.07C180.481 306.826 172.358 275.51 168.497 259.558C163.5 239.438 152.118 247.761 151.57 255.376Z" fill="#AD6359"/>
<path d="M244.648 333.546C249.791 334.775 257.593 332.13 257.847 336.071C258.074 339.571 252.503 340.867 252.503 340.867C252.503 340.867 259.263 341.442 258.435 345.276C257.607 349.11 251.194 349.284 251.194 349.284C251.194 349.284 257.393 350.126 256.284 353.893C255.175 357.661 249.23 358.182 249.23 358.182C249.23 358.182 250.793 359.344 248.816 361.655C245.997 364.969 236.592 364.581 231.742 363.218C226.892 361.856 210.099 353.252 207.547 351.876L216.057 320.613C216.057 320.613 225.823 319.064 230.873 318.877C235.924 318.689 252.717 322.697 252.009 326.893C251.301 331.088 239.477 328.095 236.418 327.988C233.358 327.881 232.824 328.563 234.16 329.685C235.028 330.473 242.363 332.998 244.648 333.546Z" fill="#AD6359"/>
<path d="M252.197 340.8C244.301 342.136 240.614 341.255 233.373 338.128C233.226 338.061 233.105 338.262 233.252 338.342C240.066 342.016 244.542 343.686 252.277 341.161C252.665 341.054 252.584 340.747 252.197 340.8Z" fill="#263238"/>
<path d="M251.502 349.15C243.179 349.751 239.184 348.91 231.355 346.211C231.248 346.211 231.168 346.358 231.275 346.411C238.743 349.685 243.232 351.274 251.475 349.578C251.849 349.511 251.89 349.124 251.502 349.15Z" fill="#263238"/>
<path d="M249.123 358.128C241.014 358.128 236.591 357.38 229.324 353.8C229.29 353.783 229.252 353.78 229.216 353.791C229.18 353.801 229.15 353.825 229.131 353.858C229.112 353.89 229.107 353.928 229.115 353.965C229.124 354.001 229.146 354.033 229.177 354.053C236.231 358.436 241.748 359.397 249.096 358.382C249.591 358.302 249.631 358.128 249.123 358.128Z" fill="#263238"/>
<path d="M184.688 346.278C184.688 346.278 159.21 333.479 155.296 323.673C150.486 311.435 148.522 275.75 150.393 257.447C152.263 239.144 165.009 241.415 169.097 257.594C173.105 273.386 182.149 304.929 183.085 306.412C184.274 308.322 198.809 311.916 198.809 311.916" fill="#4E34FE"/>
<path d="M182.137 302.323C181.696 300.814 180.921 297.407 180.48 295.937C179.585 292.998 178.69 290.046 177.808 287.106C176.927 284.167 175.978 281.215 175.003 278.289C174.829 277.795 174.669 277.287 174.508 276.793C174.589 276.472 174.228 272.598 174.255 271.649C174.255 271.502 174.014 271.489 174.027 271.649C174.063 272.599 174.032 273.549 173.934 274.495C173.934 274.668 173.934 274.855 173.934 275.029C173.319 273.105 172.705 271.195 172.077 269.324C172.077 269.191 171.81 269.244 171.85 269.324C173.052 273.332 173.64 275.857 174.522 279.104C175.404 282.35 176.312 285.37 177.194 288.456C178.076 291.542 179.104 294.682 180.08 297.808C180.628 299.661 181.27 301.484 182.003 303.272C182.565 304.474 182.591 303.913 182.137 302.323Z" fill="#263238"/>
<path d="M153.4 313.105C152.879 309.805 152.358 306.425 151.957 303.165C151.142 296.485 150.621 289.912 150.327 283.232C150.154 279.411 149.873 275.617 149.659 271.809C149.659 271.77 149.644 271.733 149.616 271.705C149.589 271.678 149.551 271.662 149.512 271.662C149.473 271.662 149.436 271.678 149.409 271.705C149.381 271.733 149.366 271.77 149.366 271.809C149.366 275.203 149.245 278.583 149.366 281.976C149.366 282.47 149.366 282.965 149.366 283.459L149.205 282.764C148.711 280.827 148.016 278.93 147.589 276.966C147.577 276.943 147.558 276.926 147.534 276.916C147.51 276.906 147.484 276.906 147.46 276.914C147.436 276.922 147.415 276.938 147.402 276.96C147.389 276.982 147.384 277.008 147.388 277.033C147.869 278.984 148.123 281.041 148.577 282.951C148.818 283.927 149.058 284.902 149.325 285.877L149.459 286.291C149.539 288.242 149.633 290.193 149.766 292.143C150.129 298.837 150.9 305.503 152.078 312.103C152.885 316.419 154.051 320.66 155.565 324.782C155.572 324.802 155.586 324.82 155.604 324.832C155.622 324.845 155.643 324.851 155.665 324.851C155.687 324.851 155.708 324.845 155.726 324.832C155.744 324.82 155.757 324.802 155.765 324.782C154.977 321.482 153.935 316.405 153.4 313.105Z" fill="#263238"/>
<path d="M194.082 311.903C192.686 314.301 191.437 316.782 190.341 319.331C189.165 321.842 187.976 324.354 186.867 326.893C184.619 331.891 182.652 337.012 180.975 342.23C180.972 342.259 180.979 342.288 180.994 342.314C181.009 342.339 181.032 342.358 181.06 342.369C181.087 342.379 181.117 342.381 181.146 342.373C181.174 342.364 181.198 342.347 181.216 342.323C183.701 337.38 185.825 332.237 187.989 327.146C189.058 324.635 190.087 322.096 191.142 319.585C192.198 317.073 193.4 314.548 194.215 311.956C194.242 311.876 194.122 311.836 194.082 311.903Z" fill="#263238"/>
<path d="M334.215 242.765C334.038 242.765 333.868 242.694 333.743 242.569C333.617 242.444 333.547 242.274 333.547 242.097V223.299C333.547 223.122 333.617 222.952 333.743 222.827C333.868 222.701 334.038 222.631 334.215 222.631C334.392 222.631 334.562 222.701 334.687 222.827C334.812 222.952 334.883 223.122 334.883 223.299V242.097C334.883 242.274 334.812 242.444 334.687 242.569C334.562 242.694 334.392 242.765 334.215 242.765Z" fill="#263238"/>
<path d="M300.2 251.769C300.082 251.77 299.965 251.739 299.862 251.68C299.759 251.622 299.673 251.537 299.613 251.435L290.261 235.149C290.206 235.074 290.167 234.988 290.148 234.896C290.128 234.805 290.128 234.71 290.147 234.619C290.166 234.527 290.205 234.441 290.259 234.365C290.314 234.289 290.384 234.226 290.465 234.179C290.546 234.132 290.636 234.103 290.729 234.092C290.821 234.082 290.915 234.092 291.005 234.12C291.094 234.149 291.176 234.196 291.245 234.258C291.315 234.32 291.371 234.396 291.41 234.481L300.762 250.767C300.807 250.842 300.836 250.926 300.849 251.012C300.861 251.099 300.856 251.188 300.834 251.272C300.811 251.357 300.772 251.436 300.718 251.506C300.665 251.575 300.597 251.633 300.521 251.676C300.425 251.735 300.314 251.768 300.2 251.769Z" fill="#263238"/>
<path d="M290.42 385.797C290.302 385.798 290.187 385.765 290.086 385.703C290.012 385.655 289.947 385.592 289.898 385.518C289.848 385.444 289.814 385.361 289.798 385.273C289.782 385.186 289.784 385.096 289.803 385.009C289.823 384.922 289.86 384.84 289.913 384.768L299.265 368.496C299.308 368.419 299.367 368.352 299.437 368.299C299.506 368.245 299.586 368.205 299.671 368.182C299.756 368.16 299.845 368.154 299.932 368.165C300.019 368.176 300.103 368.205 300.18 368.248C300.256 368.292 300.323 368.351 300.377 368.421C300.43 368.49 300.47 368.57 300.493 368.655C300.516 368.74 300.522 368.828 300.511 368.916C300.499 369.003 300.471 369.087 300.427 369.164L291.075 385.436C291.014 385.555 290.919 385.652 290.803 385.717C290.686 385.781 290.553 385.809 290.42 385.797Z" fill="#263238"/>
<path d="M333.787 397.527C333.61 397.527 333.44 397.456 333.315 397.331C333.19 397.206 333.119 397.036 333.119 396.859V378.088C333.119 377.911 333.19 377.741 333.315 377.616C333.44 377.49 333.61 377.42 333.787 377.42C333.963 377.423 334.131 377.495 334.256 377.619C334.38 377.744 334.452 377.912 334.455 378.088V396.886C334.448 397.058 334.375 397.221 334.25 397.341C334.126 397.46 333.96 397.527 333.787 397.527Z" fill="#263238"/>
<path d="M377.207 386.011C377.09 386.01 376.976 385.979 376.875 385.92C376.775 385.861 376.691 385.778 376.633 385.677L367.281 369.404C367.237 369.328 367.208 369.244 367.197 369.156C367.186 369.069 367.192 368.98 367.215 368.895C367.238 368.81 367.277 368.731 367.331 368.661C367.384 368.591 367.451 368.533 367.528 368.489C367.604 368.445 367.688 368.417 367.776 368.405C367.863 368.394 367.951 368.4 368.036 368.423C368.121 368.446 368.201 368.485 368.271 368.539C368.341 368.593 368.399 368.66 368.443 368.736L377.795 385.009C377.84 385.084 377.87 385.167 377.882 385.254C377.894 385.341 377.889 385.429 377.867 385.514C377.844 385.598 377.805 385.678 377.752 385.747C377.698 385.816 377.631 385.874 377.554 385.917C377.45 385.981 377.329 386.014 377.207 386.011Z" fill="#263238"/>
<path d="M368.176 251.983C368.058 251.984 367.942 251.951 367.842 251.889C367.766 251.847 367.699 251.789 367.645 251.719C367.591 251.65 367.552 251.571 367.53 251.486C367.507 251.401 367.502 251.313 367.514 251.226C367.527 251.139 367.556 251.056 367.602 250.981L376.954 234.695C377.051 234.561 377.194 234.468 377.356 234.434C377.518 234.4 377.687 234.427 377.83 234.511C377.973 234.594 378.08 234.727 378.13 234.884C378.18 235.042 378.171 235.212 378.103 235.363L368.751 251.649C368.69 251.748 368.606 251.831 368.506 251.889C368.405 251.947 368.292 251.98 368.176 251.983Z" fill="#263238"/>
</svg>
