<svg width="280" height="280" viewBox="0 0 280 280" fill="none" xmlns="http://www.w3.org/2000/svg">
<path d="M70.7143 88.5947C76.2494 86.4188 78.9726 80.1678 76.7967 74.6327C74.6209 69.0975 68.3699 66.3743 62.8347 68.5502C57.2996 70.7261 54.5764 76.9771 56.7523 82.5122C58.9282 88.0474 65.1792 90.7706 70.7143 88.5947Z" fill="#EBEBEB"/>
<path d="M77.0783 81.7152C76.0767 80.8416 74.9425 80.1328 73.7183 79.6152C71.5847 78.6744 65.7775 77.6496 63.0783 76.2888C59.2983 74.3848 58.8279 72.3296 58.8503 71.2488C59.7916 70.2323 60.9189 69.4054 62.1711 68.8128C62.4399 69.9328 63.4535 73.2928 69.7311 75.5328C72.9735 76.6528 76.0759 75.9136 77.1287 75.656C77.6954 77.6385 77.6779 79.7424 77.0783 81.7152Z" fill="#DBDBDB"/>
<path d="M72.6832 87.5896C70.618 88.9434 68.1509 89.548 65.6938 89.3024C63.2366 89.0568 60.938 87.9758 59.1816 86.24C59.7935 85.9112 60.442 85.6556 61.1136 85.4784C64.0088 84.7728 67.1952 86.156 68.36 86.8112C69.663 87.5758 71.1955 87.8517 72.6832 87.5896Z" fill="#DBDBDB"/>
<path d="M76.4396 83.328L76.3052 83.5912L76.182 83.8264C76.0812 84.0056 75.9804 84.1736 75.874 84.3416C75.7676 84.5096 75.678 84.644 75.5772 84.7896L75.4596 84.952L75.3252 85.1312L75.1908 85.3104L75.0172 85.512L74.8492 85.7136L74.698 85.8816C74.586 86.0048 74.4684 86.1224 74.3508 86.24C73.6788 86.4472 72.7828 86.3576 71.4668 85.8368C69.5124 85.0696 67.4012 83.2216 63.6268 81.8664C61.3014 81.0506 58.7965 80.8898 56.386 81.4016C55.802 79.2541 55.8998 76.9782 56.666 74.8888C57.3548 74.8888 59.5668 75.18 64.2876 79.0776C65.756 80.323 67.3493 81.4134 69.042 82.3312C73.074 84.4424 75.4036 83.8152 76.378 83.328H76.4508H76.4396Z" fill="#DBDBDB"/>
<path d="M66.2034 87.36C66.3938 86.9232 67.0658 86.8 67.7042 87.0688C68.3426 87.3376 68.7066 87.9312 68.5106 88.368C68.3146 88.8048 67.6482 88.928 67.0098 88.6592C66.3714 88.3904 66.013 87.8248 66.2034 87.36Z" fill="#C7C7C7"/>
<path d="M69.2495 86.6152C69.3615 86.3688 69.7591 86.3072 70.1399 86.4696C70.5207 86.632 70.7447 86.9736 70.6383 87.22C70.5319 87.4664 70.1343 87.5336 69.7479 87.3656C69.3615 87.1976 69.1431 86.8616 69.2495 86.6152Z" fill="#C7C7C7"/>
<path d="M60.9003 73.388C61.0627 73.0128 61.6451 72.9064 62.2051 73.1528C62.7651 73.3992 63.0843 73.8976 62.9219 74.2728C62.7595 74.648 62.1715 74.7544 61.6115 74.508C61.0515 74.2616 60.7323 73.7632 60.9003 73.388Z" fill="#C7C7C7"/>
<path d="M62.883 73.0184C62.9478 72.9156 63.0499 72.8418 63.1678 72.8126C63.2858 72.7834 63.4105 72.8009 63.5158 72.8616C63.6295 72.8979 63.7255 72.9756 63.7846 73.0794C63.8437 73.1831 63.8617 73.3052 63.835 73.4216C63.7554 73.4997 63.6542 73.5523 63.5445 73.5726C63.4348 73.5928 63.3216 73.5799 63.2193 73.5353C63.117 73.4908 63.0304 73.4168 62.9704 73.3227C62.9105 73.2286 62.8801 73.1187 62.883 73.0072V73.0184Z" fill="#C7C7C7"/>
<path d="M63.2015 74.0152C63.2446 73.9532 63.3098 73.9101 63.3837 73.8945C63.4575 73.8789 63.5346 73.892 63.5991 73.9312C63.7671 74.004 63.8623 74.1608 63.8063 74.2784C63.7503 74.396 63.5767 74.4352 63.4087 74.3624C63.2407 74.2896 63.1511 74.1384 63.2015 74.0152Z" fill="#C7C7C7"/>
<path d="M69.9218 74.0432C69.9446 73.8522 70.0269 73.6732 70.157 73.5315C70.2871 73.3897 70.4584 73.2924 70.6467 73.2533C70.8351 73.2141 71.0309 73.2351 71.2067 73.3133C71.3825 73.3914 71.5293 73.5228 71.6264 73.6888C71.7235 73.8549 71.766 74.0473 71.748 74.2388C71.7299 74.4303 71.6521 74.6113 71.5257 74.7563C71.3992 74.9012 71.2304 75.0028 71.0431 75.0467C70.8558 75.0905 70.6594 75.0745 70.4818 75.0008C70.2821 74.9456 70.1118 74.8146 70.0072 74.6358C69.9026 74.4569 69.872 74.2443 69.9218 74.0432Z" fill="#C7C7C7"/>
<path d="M69.6636 75.5104C69.6891 75.428 69.739 75.3553 69.8067 75.3018C69.8745 75.2484 69.9568 75.2169 70.0429 75.2113C70.129 75.2058 70.2147 75.2265 70.2887 75.2708C70.3628 75.3151 70.4216 75.3808 70.4574 75.4593C70.4932 75.5378 70.5044 75.6253 70.4893 75.7102C70.4743 75.7951 70.4338 75.8735 70.3732 75.9349C70.3127 75.9963 70.2349 76.0379 70.1501 76.0541C70.0654 76.0703 69.9778 76.0603 69.8988 76.0256C69.8007 75.9867 69.7214 75.9113 69.6775 75.8153C69.6337 75.7193 69.6287 75.61 69.6636 75.5104Z" fill="#C7C7C7"/>
<path d="M232.669 199.522C236.668 199.522 239.909 196.281 239.909 192.282C239.909 188.283 236.668 185.041 232.669 185.041C228.67 185.041 225.428 188.283 225.428 192.282C225.428 196.281 228.67 199.522 232.669 199.522Z" fill="#EBEBEB"/>
<path d="M235.306 187.986C235.323 188.333 235.228 188.677 235.037 188.966C234.843 189.266 234.57 189.507 234.247 189.661C233.918 189.828 233.537 189.863 233.183 189.756C232.85 189.647 232.565 189.425 232.377 189.129C232.633 189.323 232.93 189.455 233.245 189.515C233.391 189.54 233.541 189.54 233.687 189.515C233.835 189.492 233.979 189.447 234.113 189.381L234.315 189.269C234.376 189.224 234.443 189.185 234.499 189.14C234.625 189.048 234.737 188.941 234.835 188.821C235.044 188.575 235.203 188.292 235.306 187.986Z" fill="#C7C7C7"/>
<path d="M232.703 188.401C232.67 188.159 232.723 187.913 232.854 187.706C232.986 187.489 233.182 187.317 233.414 187.214C233.53 187.155 233.657 187.12 233.787 187.11C233.916 187.1 234.047 187.117 234.17 187.158C234.411 187.232 234.613 187.399 234.73 187.622C234.546 187.507 234.34 187.43 234.126 187.398C233.933 187.374 233.737 187.409 233.566 187.499C233.175 187.681 232.867 188.003 232.703 188.401Z" fill="#C7C7C7"/>
<path d="M232.67 195.686C232.751 195.909 232.751 196.153 232.67 196.375C232.594 196.61 232.447 196.815 232.25 196.963C232.054 197.114 231.809 197.183 231.564 197.157C231.318 197.131 231.093 197.011 230.934 196.823C231.133 196.885 231.341 196.914 231.55 196.907C231.736 196.896 231.913 196.827 232.059 196.711C232.215 196.594 232.346 196.448 232.446 196.28C232.553 196.096 232.629 195.895 232.67 195.686Z" fill="#C7C7C7"/>
<path d="M231.169 196.51C231.129 196.436 231.104 196.355 231.095 196.271C231.087 196.187 231.094 196.103 231.119 196.022C231.168 195.853 231.27 195.704 231.41 195.597C231.483 195.541 231.567 195.5 231.657 195.478C231.746 195.456 231.84 195.453 231.931 195.468C232.013 195.482 232.092 195.514 232.163 195.56C232.233 195.606 232.293 195.666 232.339 195.737C232.2 195.715 232.059 195.715 231.919 195.737C231.805 195.753 231.697 195.8 231.606 195.871C231.395 196.031 231.242 196.255 231.169 196.51Z" fill="#C7C7C7"/>
<path d="M230.06 189.168C230.124 189.227 230.176 189.299 230.211 189.379C230.247 189.459 230.266 189.545 230.267 189.633C230.269 189.825 230.194 190.01 230.06 190.148C229.99 190.216 229.907 190.268 229.814 190.299C229.722 190.33 229.624 190.339 229.528 190.327C229.356 190.308 229.196 190.231 229.074 190.109C229.224 190.115 229.374 190.105 229.522 190.081C229.64 190.061 229.749 190.007 229.836 189.924C229.922 189.836 229.985 189.728 230.021 189.61C230.058 189.466 230.071 189.317 230.06 189.168Z" fill="#C7C7C7"/>
<path d="M229.164 189.874C229.11 189.838 229.066 189.791 229.034 189.736C229.002 189.68 228.983 189.618 228.979 189.554C228.976 189.484 228.987 189.414 229.012 189.349C229.037 189.283 229.075 189.224 229.125 189.174C229.176 189.122 229.239 189.084 229.308 189.061C229.377 189.039 229.451 189.033 229.522 189.045C229.584 189.054 229.643 189.075 229.696 189.108C229.749 189.141 229.795 189.184 229.83 189.235C229.728 189.247 229.627 189.266 229.528 189.291C229.46 189.311 229.399 189.348 229.349 189.398C229.298 189.45 229.256 189.51 229.225 189.577C229.192 189.673 229.172 189.772 229.164 189.874Z" fill="#C7C7C7"/>
<path d="M235.093 196.806C235.051 196.884 234.994 196.951 234.925 197.005C234.855 197.059 234.775 197.098 234.69 197.12C234.597 197.146 234.498 197.153 234.402 197.139C234.306 197.126 234.213 197.093 234.13 197.042C234.048 196.992 233.978 196.924 233.926 196.844C233.874 196.763 233.84 196.672 233.828 196.577C233.803 196.404 233.839 196.228 233.929 196.078C233.959 196.227 234.006 196.371 234.069 196.51C234.114 196.619 234.192 196.711 234.293 196.773C234.4 196.836 234.521 196.87 234.645 196.874C234.797 196.875 234.949 196.852 235.093 196.806Z" fill="#C7C7C7"/>
<path d="M234.191 196.106C234.214 196.047 234.249 195.994 234.294 195.95C234.34 195.907 234.395 195.874 234.455 195.854C234.521 195.832 234.592 195.825 234.661 195.833C234.731 195.841 234.798 195.863 234.858 195.899C234.92 195.936 234.973 195.987 235.012 196.049C235.051 196.11 235.075 196.18 235.082 196.252C235.091 196.377 235.053 196.501 234.975 196.599C234.936 196.503 234.891 196.41 234.841 196.319C234.81 196.258 234.761 196.207 234.701 196.174C234.638 196.135 234.567 196.11 234.494 196.101C234.393 196.086 234.291 196.088 234.191 196.106Z" fill="#C7C7C7"/>
<path d="M237.574 191.71C237.581 191.797 237.571 191.884 237.544 191.967C237.517 192.05 237.474 192.126 237.417 192.192C237.355 192.264 237.28 192.323 237.195 192.365C237.111 192.407 237.018 192.432 236.924 192.438C236.827 192.444 236.73 192.427 236.641 192.389C236.552 192.351 236.472 192.293 236.409 192.22C236.29 192.094 236.22 191.929 236.213 191.755C236.32 191.861 236.439 191.955 236.566 192.035C236.667 192.097 236.783 192.128 236.902 192.125C237.026 192.116 237.145 192.075 237.249 192.007C237.373 191.927 237.483 191.827 237.574 191.71Z" fill="#C7C7C7"/>
<path d="M236.432 191.638C236.417 191.576 236.416 191.511 236.43 191.449C236.443 191.387 236.471 191.329 236.51 191.279C236.555 191.224 236.61 191.179 236.672 191.147C236.735 191.114 236.804 191.094 236.874 191.089C236.946 191.084 237.019 191.097 237.085 191.126C237.151 191.155 237.21 191.2 237.255 191.257C237.333 191.355 237.371 191.479 237.361 191.604C237.276 191.545 237.186 191.493 237.092 191.447C237.03 191.415 236.961 191.4 236.891 191.402C236.817 191.408 236.745 191.427 236.678 191.458C236.589 191.509 236.507 191.569 236.432 191.638Z" fill="#C7C7C7"/>
<path d="M227.976 193.346C227.986 193.433 227.978 193.521 227.952 193.605C227.926 193.689 227.882 193.767 227.825 193.833C227.763 193.905 227.688 193.963 227.603 194.006C227.519 194.048 227.426 194.073 227.332 194.079C227.234 194.084 227.137 194.067 227.047 194.03C226.956 193.992 226.876 193.934 226.811 193.861C226.696 193.732 226.628 193.568 226.615 193.396C226.726 193.5 226.846 193.594 226.974 193.676C227.074 193.738 227.191 193.77 227.31 193.766C227.433 193.755 227.552 193.715 227.657 193.648C227.782 193.569 227.891 193.466 227.976 193.346Z" fill="#C7C7C7"/>
<path d="M226.84 193.278C226.825 193.217 226.824 193.152 226.838 193.09C226.851 193.028 226.879 192.97 226.918 192.92C226.961 192.865 227.015 192.819 227.077 192.787C227.139 192.754 227.207 192.734 227.277 192.73C227.349 192.724 227.422 192.737 227.488 192.766C227.554 192.795 227.613 192.84 227.657 192.898C227.698 192.945 227.729 193 227.748 193.06C227.767 193.12 227.775 193.182 227.769 193.245C227.684 193.186 227.594 193.134 227.501 193.088C227.439 193.054 227.369 193.039 227.299 193.043C227.225 193.049 227.153 193.068 227.086 193.099C226.998 193.149 226.915 193.209 226.84 193.278Z" fill="#C7C7C7"/>
<path d="M207.261 33.684L209.188 31.7632C209.452 31.4986 209.6 31.1402 209.6 30.7664C209.6 30.3927 209.452 30.0342 209.188 29.7696C209.057 29.6375 208.902 29.5327 208.731 29.4611C208.56 29.3895 208.376 29.3527 208.191 29.3527C208.005 29.3527 207.822 29.3895 207.651 29.4611C207.48 29.5327 207.324 29.6375 207.194 29.7696L205.268 31.6904C205.004 31.955 204.855 32.3135 204.855 32.6872C204.855 33.061 205.004 33.4194 205.268 33.684C205.532 33.948 205.891 34.0963 206.265 34.0963C206.638 34.0963 206.997 33.948 207.261 33.684Z" fill="#EBEBEB"/>
<path d="M233.519 52.7464L234.74 50.316C234.824 50.1508 234.875 49.9705 234.889 49.7855C234.904 49.6005 234.881 49.4145 234.822 49.2384C234.764 49.0623 234.671 48.8995 234.549 48.7596C234.428 48.6196 234.279 48.5053 234.113 48.4232C233.947 48.3395 233.767 48.2894 233.582 48.2756C233.398 48.2619 233.212 48.2848 233.036 48.3431C232.86 48.4014 232.697 48.4939 232.557 48.6153C232.417 48.7367 232.303 48.8845 232.22 49.0504L230.999 51.4808C230.833 51.8153 230.806 52.2018 230.923 52.5562C231.041 52.9107 231.294 53.2044 231.626 53.3736C231.961 53.5411 232.348 53.5691 232.703 53.4515C233.057 53.334 233.351 53.0804 233.519 52.7464Z" fill="#EBEBEB"/>
<path d="M216.719 28.252L218.164 28.0504C218.348 28.0243 218.524 27.9623 218.684 27.868C218.843 27.7736 218.983 27.6488 219.094 27.5006C219.205 27.3524 219.286 27.1837 219.332 27.0042C219.378 26.8247 219.389 26.6379 219.363 26.4544C219.337 26.2709 219.275 26.0944 219.18 25.9348C219.086 25.7753 218.961 25.6359 218.813 25.5246C218.665 25.4133 218.496 25.3323 218.316 25.2863C218.137 25.2402 217.95 25.2299 217.767 25.256L216.322 25.4632C216.138 25.4893 215.962 25.5513 215.802 25.6456C215.643 25.7399 215.503 25.8648 215.392 26.013C215.281 26.1612 215.2 26.3299 215.154 26.5094C215.108 26.6889 215.097 26.8757 215.123 27.0592C215.15 27.2425 215.212 27.4188 215.306 27.5781C215.4 27.7374 215.525 27.8764 215.674 27.9872C215.822 28.0981 215.991 28.1785 216.17 28.224C216.35 28.2694 216.536 28.2789 216.719 28.252Z" fill="#EBEBEB"/>
<path d="M205.217 47.3368L205.01 45.8864C204.956 45.5168 204.757 45.1838 204.458 44.9602C204.159 44.7366 203.783 44.6407 203.414 44.6936C203.23 44.7197 203.054 44.7817 202.894 44.876C202.735 44.9703 202.595 45.0952 202.484 45.2434C202.373 45.3916 202.292 45.5602 202.246 45.7398C202.199 45.9193 202.189 46.1061 202.215 46.2896L202.422 47.7344C202.477 48.1043 202.675 48.4378 202.974 48.6623C203.273 48.8868 203.648 48.984 204.018 48.9328C204.202 48.9067 204.378 48.8447 204.538 48.7504C204.698 48.656 204.837 48.5312 204.948 48.383C205.059 48.2348 205.141 48.0661 205.187 47.8866C205.233 47.7071 205.243 47.5203 205.217 47.3368Z" fill="#EBEBEB"/>
<path d="M236.225 44.4864V42.6272C236.225 41.9592 235.683 41.4176 235.015 41.4176H234.617C233.949 41.4176 233.408 41.9592 233.408 42.6272V44.4864C233.408 45.1545 233.949 45.696 234.617 45.696H235.015C235.683 45.696 236.225 45.1545 236.225 44.4864Z" fill="#EBEBEB"/>
<path d="M214.077 59.5896L215.488 59.9704C215.849 60.0662 216.233 60.0151 216.556 59.8283C216.879 59.6415 217.115 59.3341 217.213 58.9736C217.261 58.7945 217.273 58.6077 217.249 58.4238C217.225 58.2399 217.165 58.0625 217.073 57.9018C216.98 57.741 216.857 57.6002 216.71 57.4872C216.563 57.3742 216.395 57.2913 216.216 57.2432L214.805 56.868C214.626 56.8198 214.439 56.8073 214.256 56.8314C214.072 56.8554 213.895 56.9155 213.735 57.0081C213.575 57.1007 213.434 57.2241 213.322 57.3711C213.21 57.5181 213.127 57.6859 213.08 57.8648C213.032 58.0435 213.019 58.23 213.043 58.4135C213.067 58.597 213.127 58.774 213.22 58.9343C213.312 59.0945 213.436 59.2349 213.583 59.3474C213.73 59.4598 213.898 59.5421 214.077 59.5896Z" fill="#EBEBEB"/>
<path d="M218.959 59.2144C227.944 59.2144 235.227 51.931 235.227 42.9464C235.227 33.9618 227.944 26.6784 218.959 26.6784C209.975 26.6784 202.691 33.9618 202.691 42.9464C202.691 51.931 209.975 59.2144 218.959 59.2144Z" fill="#EBEBEB"/>
<path d="M224.879 33.2976C224.919 34.0789 224.707 34.8525 224.274 35.504C223.84 36.1766 223.23 36.717 222.51 37.0664C221.769 37.4386 220.912 37.5108 220.119 37.268C219.367 37.031 218.723 36.5374 218.299 35.8736C218.879 36.3 219.546 36.5926 220.253 36.7304C220.583 36.7892 220.92 36.7892 221.25 36.7304C221.58 36.6827 221.9 36.5805 222.196 36.428C222.352 36.3536 222.503 36.2714 222.65 36.1816C222.796 36.0864 222.941 35.9968 223.076 35.8904C223.353 35.6815 223.606 35.443 223.832 35.1792C224.3 34.6263 224.656 33.9871 224.879 33.2976Z" fill="#C7C7C7"/>
<path d="M219.032 34.2328C218.956 33.6905 219.075 33.1388 219.368 32.676C219.659 32.1911 220.085 31.8018 220.594 31.556C220.852 31.4253 221.134 31.3471 221.422 31.3259C221.711 31.3048 222 31.3411 222.274 31.4328C222.806 31.6083 223.248 31.984 223.506 32.48C223.094 32.226 222.635 32.0566 222.157 31.9816C221.726 31.9313 221.289 32.0092 220.902 32.2056C220.048 32.6243 219.381 33.3474 219.032 34.2328Z" fill="#C7C7C7"/>
<path d="M213.522 45.4048C213.723 45.9001 213.737 46.4512 213.561 46.956C213.39 47.4805 213.061 47.9398 212.621 48.272C212.396 48.448 212.139 48.5769 211.864 48.651C211.589 48.7251 211.301 48.7428 211.019 48.7032C210.488 48.6314 210.002 48.3638 209.658 47.9528C210.106 48.1011 210.576 48.1675 211.047 48.1488C211.456 48.1158 211.846 47.9618 212.167 47.7064C212.517 47.4431 212.812 47.114 213.035 46.7376C213.272 46.3244 213.437 45.8736 213.522 45.4048Z" fill="#C7C7C7"/>
<path d="M210.151 47.2528C209.972 46.9171 209.934 46.5245 210.044 46.1608C210.15 45.7804 210.378 45.4456 210.694 45.2088C210.857 45.0818 211.045 44.9903 211.245 44.9401C211.446 44.89 211.655 44.8823 211.859 44.9176C212.049 44.9457 212.231 45.0136 212.393 45.1168C212.555 45.2201 212.694 45.3564 212.799 45.5168C212.486 45.4533 212.165 45.4381 211.847 45.472C211.59 45.5102 211.347 45.6143 211.142 45.7744C210.658 46.1445 210.309 46.6642 210.151 47.2528Z" fill="#C7C7C7"/>
<path d="M207.687 41.7872C207.831 41.92 207.947 42.0809 208.027 42.26C208.107 42.4391 208.149 42.6327 208.151 42.8288C208.151 43.2479 207.986 43.6502 207.692 43.9488C207.539 44.1048 207.351 44.2229 207.144 44.2938C206.937 44.3648 206.716 44.3866 206.499 44.3576C206.112 44.3163 205.751 44.1445 205.475 43.8704C205.814 43.8788 206.153 43.8563 206.488 43.8032C206.752 43.7601 206.997 43.637 207.188 43.4504C207.383 43.2541 207.523 43.0111 207.597 42.7448C207.68 42.4329 207.711 42.1092 207.687 41.7872Z" fill="#C7C7C7"/>
<path d="M205.67 43.3664C205.553 43.2847 205.455 43.1771 205.385 43.0519C205.315 42.9267 205.275 42.7872 205.267 42.644C205.259 42.4873 205.283 42.3305 205.339 42.1839C205.395 42.0372 205.481 41.904 205.592 41.7928C205.705 41.6765 205.845 41.5896 205.999 41.5398C206.153 41.49 206.317 41.4788 206.477 41.5072C206.616 41.5271 206.749 41.5745 206.869 41.6466C206.989 41.7187 207.094 41.8141 207.177 41.9272C206.945 41.9586 206.715 42.0034 206.488 42.0616C206.34 42.1032 206.205 42.1822 206.096 42.2912C205.979 42.4084 205.886 42.5472 205.822 42.7C205.742 42.9144 205.691 43.1385 205.67 43.3664Z" fill="#C7C7C7"/>
<path d="M229.975 36.96C229.994 37.1551 229.972 37.3519 229.913 37.5386C229.853 37.7253 229.756 37.898 229.628 38.0464C229.489 38.2107 229.318 38.345 229.126 38.4413C228.933 38.5375 228.723 38.5937 228.508 38.6064C228.291 38.6182 228.073 38.5805 227.872 38.4961C227.672 38.4117 227.493 38.2828 227.349 38.1192C227.086 37.8313 226.932 37.4611 226.912 37.072C227.157 37.3056 227.426 37.5138 227.713 37.6936C227.935 37.8389 228.198 37.9095 228.463 37.8952C228.74 37.8766 229.007 37.7901 229.242 37.6432C229.522 37.4566 229.769 37.2259 229.975 36.96Z" fill="#C7C7C7"/>
<path d="M227.421 36.8088C227.386 36.6701 227.383 36.5252 227.413 36.3853C227.444 36.2454 227.506 36.1144 227.595 36.0024C227.692 35.8789 227.814 35.7771 227.952 35.7038C228.091 35.6305 228.244 35.5872 228.401 35.5768C228.564 35.5671 228.727 35.5966 228.876 35.6628C229.025 35.7291 229.156 35.8302 229.258 35.9576C229.348 36.0648 229.415 36.1889 229.457 36.3226C229.498 36.4562 229.512 36.5968 229.499 36.736C229.305 36.6055 229.103 36.4877 228.894 36.3832C228.756 36.3103 228.601 36.2773 228.446 36.288C228.281 36.2992 228.119 36.341 227.97 36.4112C227.77 36.5192 227.586 36.6529 227.421 36.8088Z" fill="#C7C7C7"/>
<path d="M225.586 46.1767C226.397 44.3575 225.589 42.2294 223.781 41.4234C221.973 40.6173 219.85 41.4386 219.039 43.2578C218.228 45.0769 219.036 47.205 220.844 48.0111C222.652 48.8171 224.775 47.9958 225.586 46.1767Z" fill="#DBDBDB"/>
<path d="M224 43.0304C224.468 43.2399 224.88 43.5572 225.202 43.9562C225.524 44.3552 225.747 44.8247 225.853 45.3264C225.952 44.7313 225.899 44.1208 225.7 43.5514C225.5 42.9821 225.161 42.4722 224.712 42.0688C224.263 41.6655 223.72 41.3818 223.133 41.2438C222.546 41.1059 221.933 41.1182 221.352 41.2796C220.771 41.441 220.239 41.7463 219.807 42.1673C219.375 42.5883 219.056 43.1115 218.88 43.6884C218.703 44.2653 218.675 44.8774 218.798 45.4681C218.92 46.0588 219.19 46.609 219.581 47.068C219.316 46.291 219.356 45.4422 219.693 44.6936C220.045 43.9031 220.696 43.2842 221.503 42.9725C222.31 42.6607 223.208 42.6816 224 43.0304Z" fill="#C7C7C7"/>
<path d="M227.293 45.36C227.314 46.3161 227.038 47.2552 226.503 48.048C225.961 48.8592 225.213 49.5123 224.336 49.9408C223.436 50.389 222.401 50.483 221.435 50.204C220.521 49.9119 219.732 49.32 219.195 48.524C219.896 49.0789 220.717 49.4624 221.592 49.644C221.802 49.6759 222.013 49.6964 222.225 49.7056C222.433 49.7085 222.641 49.6916 222.847 49.6552C223.248 49.5899 223.637 49.4633 224 49.28C224.191 49.1848 224.387 49.0784 224.56 48.972C224.734 48.8656 224.924 48.7368 225.087 48.5968C225.43 48.3334 225.744 48.0329 226.022 47.7008C226.603 47.0168 227.036 46.2197 227.293 45.36Z" fill="#C7C7C7"/>
<path d="M231.229 46.6984C231.488 46.7605 231.76 46.7442 232.01 46.6516C232.259 46.559 232.476 46.3942 232.632 46.1783C232.788 45.9623 232.876 45.7049 232.886 45.4386C232.895 45.1724 232.825 44.9094 232.685 44.683C232.544 44.4567 232.34 44.2771 232.097 44.1672C231.854 44.0573 231.584 44.0219 231.322 44.0657C231.059 44.1094 230.815 44.2302 230.621 44.4128C230.427 44.5954 230.292 44.8316 230.232 45.0912C230.152 45.4365 230.211 45.7997 230.398 46.101C230.585 46.4023 230.884 46.6172 231.229 46.6984Z" fill="#DBDBDB"/>
<path d="M232.029 44.6488C232.216 44.6925 232.39 44.7797 232.537 44.9033C232.684 45.0268 232.799 45.1833 232.874 45.36C232.866 45.0623 232.76 44.7757 232.573 44.5441C232.386 44.3124 232.128 44.1486 231.838 44.0776C231.491 43.999 231.126 44.0616 230.825 44.2517C230.524 44.4418 230.31 44.7437 230.231 45.0912C230.173 45.3376 230.186 45.5956 230.269 45.8347C230.353 46.0739 230.503 46.2842 230.702 46.4408C230.547 46.1755 230.5 45.8603 230.573 45.5616C230.645 45.2475 230.839 44.9749 231.112 44.8037C231.385 44.6325 231.715 44.5768 232.029 44.6488Z" fill="#C7C7C7"/>
<path d="M233.396 45.2592C233.492 45.6078 233.468 45.9783 233.329 46.312C233.194 46.6574 232.965 46.9581 232.668 47.18C232.365 47.4161 231.981 47.5246 231.599 47.4824C231.236 47.4396 230.9 47.2688 230.652 47.0008C230.953 47.1381 231.28 47.2088 231.61 47.208C231.917 47.1953 232.212 47.0877 232.456 46.9C232.714 46.7028 232.93 46.4561 233.091 46.1744C233.253 45.8926 233.357 45.5815 233.396 45.2592Z" fill="#C7C7C7"/>
<path d="M222.006 55.4064C222.383 55.428 222.758 55.3372 223.084 55.1454C223.409 54.9537 223.671 54.6696 223.835 54.3292C223.999 53.9888 224.058 53.6073 224.006 53.2331C223.953 52.8589 223.79 52.5088 223.538 52.2271C223.286 51.9454 222.957 51.7447 222.591 51.6506C222.225 51.5564 221.839 51.5729 221.482 51.6981C221.126 51.8233 220.814 52.0514 220.587 52.3537C220.361 52.6559 220.228 53.0187 220.208 53.396C220.18 53.9008 220.354 54.3959 220.691 54.7728C221.028 55.1496 221.501 55.3775 222.006 55.4064Z" fill="#DBDBDB"/>
<path d="M222.621 52.3376C222.892 52.3525 223.155 52.4313 223.39 52.5676C223.625 52.7039 223.824 52.8937 223.971 53.1216C223.907 52.8079 223.765 52.5154 223.557 52.2711C223.35 52.0269 223.085 51.8388 222.786 51.7243C222.487 51.6098 222.164 51.5726 221.847 51.616C221.53 51.6595 221.228 51.7822 220.971 51.9729C220.714 52.1636 220.509 52.4161 220.375 52.707C220.242 52.9979 220.183 53.3179 220.206 53.6373C220.229 53.9567 220.332 54.2652 220.505 54.5343C220.679 54.8034 220.917 55.0243 221.199 55.1768C220.985 54.9174 220.85 54.6013 220.812 54.2671C220.775 53.9328 220.835 53.5947 220.985 53.294C221.136 52.9932 221.371 52.7427 221.661 52.5729C221.952 52.4031 222.285 52.3214 222.621 52.3376Z" fill="#C7C7C7"/>
<path d="M224.682 52.8528C224.865 53.3236 224.902 53.8389 224.788 54.3312C224.676 54.8349 224.43 55.2992 224.077 55.6752C223.721 56.0682 223.228 56.3105 222.699 56.3528C222.192 56.388 221.687 56.252 221.266 55.9664C221.716 56.1167 222.197 56.1552 222.666 56.0784C223.109 55.9946 223.513 55.7708 223.819 55.44C224.135 55.1023 224.375 54.7014 224.525 54.264C224.674 53.8095 224.727 53.329 224.682 52.8528Z" fill="#C7C7C7"/>
<path d="M213.494 36.96C212.637 38.276 210.733 38.556 209.249 37.5816C207.765 36.6072 207.25 34.7536 208.129 33.4376C209.009 32.1216 210.89 31.8472 212.38 32.816C213.869 33.7848 214.357 35.6664 213.494 36.96Z" fill="#DBDBDB"/>
<path d="M208.767 34.72C208.542 35.075 208.412 35.4811 208.387 35.9003C208.363 36.3195 208.445 36.7381 208.627 37.1168C208.141 36.6593 207.826 36.0503 207.732 35.3899C207.639 34.7294 207.772 34.0568 208.112 33.4824C208.968 32.1664 210.872 31.8864 212.362 32.8608C212.859 33.1649 213.265 33.5963 213.539 34.1103C213.812 34.6243 213.944 35.2022 213.919 35.784C213.701 35.0909 213.248 34.4963 212.636 34.104C211.276 33.2472 209.545 33.4992 208.767 34.72Z" fill="#C7C7C7"/>
<path d="M214.546 34.8096C214.765 35.1494 214.915 35.5291 214.987 35.927C215.059 36.3248 215.052 36.7329 214.966 37.128C214.873 37.5357 214.691 37.9179 214.434 38.248C214.178 38.5865 213.863 38.8766 213.505 39.1048C213.132 39.3137 212.724 39.4522 212.301 39.5136C211.892 39.5642 211.479 39.5529 211.074 39.48C210.294 39.3399 209.558 39.0196 208.924 38.5448C209.645 38.7542 210.387 38.882 211.136 38.9256C211.832 38.9766 212.527 38.827 213.141 38.4944C213.434 38.3243 213.697 38.1067 213.919 37.8504C214.147 37.5922 214.326 37.2942 214.445 36.9712C214.674 36.2731 214.709 35.526 214.546 34.8096Z" fill="#C7C7C7"/>
<path d="M235.292 237.63C238.751 224.724 231.093 211.457 218.187 207.998C205.281 204.539 192.014 212.197 188.555 225.103C185.095 238.009 192.753 251.276 205.659 254.735C218.566 258.194 231.832 250.536 235.292 237.63Z" fill="#455A64"/>
<path d="M233.374 223.938C230.418 223.638 227.432 223.804 224.526 224.431C219.408 225.456 207.463 231.045 200.799 232.019C191.43 233.397 187.919 230.244 186.598 228.273C187.013 225.201 188.017 222.239 189.554 219.548C191.447 221.2 197.669 226.111 212.005 222.085C219.397 220.002 224.095 214.614 225.691 212.789C229.272 215.689 231.939 219.56 233.374 223.938Z" fill="#37474F"/>
<path d="M232.886 240.341C230.85 245.478 227.111 249.76 222.296 252.469C217.48 255.179 211.879 256.152 206.432 255.226C207.121 253.832 207.977 252.527 208.98 251.339C213.37 246.299 220.986 244.754 223.96 244.451C227.331 244.191 230.497 242.733 232.886 240.341Z" fill="#37474F"/>
<path d="M234.282 227.718C234.321 227.937 234.349 228.15 234.377 228.368C234.405 228.586 234.427 228.766 234.45 228.962C234.495 229.41 234.534 229.858 234.551 230.3C234.567 230.742 234.584 231.106 234.584 231.498C234.584 231.65 234.584 231.795 234.584 231.946C234.584 232.098 234.584 232.282 234.584 232.445C234.584 232.607 234.584 232.781 234.584 232.949C234.584 233.117 234.556 233.341 234.539 233.542C234.523 233.744 234.506 233.934 234.483 234.102C234.461 234.27 234.439 234.438 234.422 234.606C234.371 234.976 234.315 235.334 234.248 235.698C233.285 236.936 231.527 237.938 228.458 238.672C223.888 239.792 217.655 239.12 208.992 241.506C203.689 243.007 198.9 245.934 195.143 249.967C191.313 246.794 188.563 242.508 187.275 237.703C188.502 236.768 192.959 234.494 206.601 235.553C210.889 235.938 215.205 235.882 219.481 235.385C229.561 234.063 233.039 229.914 234.192 227.763C234.221 227.747 234.251 227.732 234.282 227.718Z" fill="#37474F"/>
<path d="M200.703 221.491C200.91 222.544 199.835 223.636 198.306 223.927C196.777 224.218 195.377 223.614 195.17 222.561C194.963 221.508 196.044 220.422 197.567 220.125C199.09 219.828 200.479 220.444 200.703 221.491Z" fill="#8471FE"/>
<path d="M196.06 226.766C196.172 227.36 195.5 227.982 194.604 228.161C193.708 228.34 192.851 228.004 192.739 227.41C192.627 226.817 193.271 226.195 194.19 226.016C195.108 225.837 195.942 226.178 196.06 226.766Z" fill="#8471FE"/>
<path d="M228.222 240.559C228.396 241.455 227.449 242.39 226.116 242.654C224.784 242.917 223.552 242.39 223.378 241.494C223.204 240.598 224.145 239.658 225.484 239.4C226.822 239.142 228.048 239.68 228.222 240.559Z" fill="#8471FE"/>
<path d="M225.034 243.757C225.13 244.233 224.693 244.72 224.06 244.843C223.801 244.926 223.521 244.905 223.278 244.785C223.034 244.665 222.847 244.455 222.755 244.199C222.66 243.723 223.097 243.236 223.73 243.113C223.988 243.03 224.269 243.051 224.512 243.171C224.756 243.291 224.943 243.501 225.034 243.757Z" fill="#8471FE"/>
<path d="M223.182 242.323C223.238 242.609 222.958 242.883 222.555 242.984C222.151 243.085 221.782 242.889 221.726 242.603C221.67 242.318 221.95 242.043 222.353 241.942C222.756 241.842 223.126 242.038 223.182 242.323Z" fill="#8471FE"/>
<path d="M210.755 250.79C210.912 251.597 210.195 252.414 209.075 252.622C207.955 252.829 207.015 252.342 206.835 251.541C206.656 250.74 207.395 249.922 208.487 249.715C209.579 249.508 210.604 249.99 210.755 250.79Z" fill="#8471FE"/>
<path d="M209.378 247.761C209.437 247.946 209.438 248.145 209.382 248.33C209.325 248.516 209.213 248.681 209.061 248.802C208.909 248.922 208.724 248.994 208.53 249.007C208.336 249.02 208.143 248.974 207.976 248.875C207.809 248.775 207.676 248.628 207.595 248.451C207.514 248.274 207.489 248.077 207.522 247.886C207.556 247.695 207.647 247.518 207.783 247.38C207.92 247.241 208.095 247.148 208.286 247.111C208.4 247.082 208.519 247.075 208.636 247.092C208.753 247.109 208.865 247.149 208.967 247.209C209.068 247.269 209.157 247.349 209.227 247.444C209.298 247.539 209.349 247.646 209.378 247.761Z" fill="#8471FE"/>
<path d="M234.55 230.3C227.9 233.837 221.048 236.984 214.032 239.725C206.866 242.591 199.533 245.022 192.074 247.005C180.533 250.006 172.306 250.527 171.248 247.845C170.189 245.162 176.394 239.954 186.569 234.36C186.637 234.92 186.726 235.48 186.833 236.04L186.967 236.678C181.804 239.96 178.937 242.799 179.581 244.434C180.225 246.07 184.385 246.193 190.551 244.994C196.588 243.83 204.551 241.433 213.08 238.067C221.609 234.702 229.079 230.989 234.281 227.702C239.579 224.37 242.53 221.469 241.875 219.811C241.22 218.154 237.21 218.07 231.235 219.19C230.822 218.482 230.369 217.797 229.88 217.14C241.365 214.166 249.777 213.713 250.835 216.39C251.893 219.066 245.325 224.493 234.55 230.3Z" fill="#8471FE"/>
<path d="M234.561 232.439C228.039 235.85 221.345 238.923 214.507 241.646C207.719 244.39 200.794 246.783 193.759 248.814C178.001 253.294 166.286 254.184 164.763 250.393C163.239 246.602 172.149 239.305 186.395 231.739C186.395 232.109 186.395 232.484 186.44 232.859C174.619 239.378 167.4 245.56 168.699 248.814C169.999 252.067 179.692 251.541 192.953 247.99C207.407 243.988 221.369 238.384 234.578 231.28C246.562 224.706 253.892 218.45 252.576 215.174C251.26 211.898 241.841 212.436 228.843 215.863C228.603 215.578 228.351 215.303 228.093 215.023C243.566 210.672 255.018 209.854 256.519 213.601C258.019 217.347 248.998 224.812 234.561 232.439Z" fill="#37474F"/>
<path d="M108.752 116.85C106.273 116.467 103.866 115.711 101.612 114.61C90.7708 109.346 89.606 96.5888 88.374 83.0816C87.254 70.6384 86.0612 57.7752 77.3588 50.008C59.2428 33.8576 30.6828 45.6344 30.3972 45.7576L28.0508 40.2248C33.9876 37.8905 40.2171 36.383 46.5644 35.7448C60.5644 34.3336 72.6156 37.7048 81.3516 45.5C91.8292 54.8408 93.1732 69.5408 94.3548 82.5104C95.4748 94.7912 96.4436 105.398 104.233 109.178C120.563 117.102 131.36 97.3112 131.808 96.4656L137.116 99.2656C134.695 103.56 131.556 107.408 127.837 110.645C121.84 115.758 115.36 117.841 108.752 116.85Z" fill="#FDC500"/>
<path opacity="0.1" d="M108.752 116.85C106.273 116.467 103.866 115.711 101.612 114.61C90.7708 109.346 89.606 96.5888 88.374 83.0816C87.254 70.6384 86.0612 57.7752 77.3588 50.008C59.2428 33.8576 30.6828 45.6344 30.3972 45.7576L28.0508 40.2248C33.9876 37.8905 40.2171 36.383 46.5644 35.7448C60.5644 34.3336 72.6156 37.7048 81.3516 45.5C91.8292 54.8408 93.1732 69.5408 94.3548 82.5104C95.4748 94.7912 96.4436 105.398 104.233 109.178C120.563 117.102 131.36 97.3112 131.808 96.4656L137.116 99.2656C134.695 103.56 131.556 107.408 127.837 110.645C121.84 115.758 115.36 117.841 108.752 116.85Z" fill="#CA0000"/>
<path opacity="0.1" d="M137.116 99.2824C134.695 103.575 131.556 107.422 127.837 110.656C124.23 113.725 120.445 115.696 116.564 116.57L109.805 110.88C122.976 112.644 131.409 97.188 131.813 96.4488L137.116 99.2824Z" fill="#CA0000"/>
<path d="M156.056 128.52C155.524 128.834 123.817 118.266 122.456 117.286C122.391 117.24 122.333 117.186 122.282 117.124C120.731 115.595 114.868 104.804 114.442 103.958C113.412 101.802 145.36 74.8776 151.302 72.38C152.791 71.7528 172.307 78.7304 175.23 81.564C176.485 82.7792 178.842 87.696 178.714 88.368C178.506 89.3312 156.594 128.206 156.056 128.52Z" fill="#FDC500"/>
<path opacity="0.1" d="M156.056 128.52C155.524 128.834 123.817 118.266 122.456 117.286C122.391 117.24 122.333 117.186 122.282 117.124C120.731 115.595 114.868 104.804 114.442 103.958C113.412 101.802 145.36 74.8776 151.302 72.38C152.791 71.7528 172.307 78.7304 175.23 81.564C176.485 82.7792 178.842 87.696 178.714 88.368C178.506 89.3312 156.594 128.206 156.056 128.52Z" fill="#A60202"/>
<path opacity="0.1" d="M156.055 128.52C155.523 128.834 123.816 118.266 122.455 117.286C122.39 117.24 122.332 117.186 122.281 117.124C128.016 110.488 154.963 79.3688 155.444 79.2904C155.926 79.212 174.395 86.3744 178.718 88.3736C178.505 89.3312 156.592 128.206 156.055 128.52Z" fill="#CA0000"/>
<path d="M110.029 192.993L84.7615 205.722C79.9231 208.124 75.7231 210.325 73.6567 211.663C73.6459 211.659 73.634 211.659 73.6232 211.663C72.8392 212.167 72.3688 212.542 72.3016 212.783V212.828C72.044 214.754 90.1487 254.005 91.2407 255.158C92.3327 256.312 95.7207 253.294 96.2303 251.21C96.7399 249.127 96.5271 230.994 96.5271 230.994L121.643 218.042L110.029 192.993Z" fill="#455A64"/>
<path d="M68.4609 214.48L69.3625 216.524C69.5976 216.438 69.8459 216.395 70.0961 216.395C70.5827 216.396 71.0551 216.56 71.4382 216.859C71.8214 217.159 72.0934 217.579 72.2111 218.051C72.3288 218.523 72.2855 219.021 72.088 219.466C71.8905 219.91 71.5501 220.276 71.1209 220.506L71.9329 222.365C72.1762 222.272 72.4343 222.225 72.6945 222.225C73.1833 222.225 73.658 222.389 74.0422 222.691C74.4265 222.993 74.6979 223.415 74.813 223.89C74.928 224.366 74.88 224.865 74.6765 225.31C74.4731 225.754 74.1261 226.117 73.6913 226.341L74.5089 228.206C74.7556 228.103 75.0204 228.052 75.2873 228.054C75.8651 228.054 76.4192 228.284 76.8277 228.692C77.2362 229.101 77.4657 229.655 77.4657 230.233C77.4684 230.638 77.3569 231.036 77.144 231.38C76.931 231.725 76.6253 232.003 76.2617 232.182L77.0793 234.035C77.3385 233.936 77.6137 233.884 77.8913 233.884C78.386 233.882 78.8666 234.049 79.2539 234.357C79.6412 234.665 79.9123 235.095 80.0224 235.577C80.1326 236.06 80.0753 236.565 79.86 237.011C79.6446 237.456 79.2841 237.815 78.8377 238.028L79.6553 239.882C79.9178 239.771 80.1995 239.714 80.4841 239.714C80.9812 239.712 81.4641 239.88 81.8525 240.19C82.2409 240.5 82.5115 240.934 82.6194 241.419C82.7273 241.904 82.666 242.412 82.4457 242.858C82.2253 243.303 81.8592 243.66 81.4081 243.869L82.2257 245.722C82.4929 245.601 82.7835 245.54 83.0769 245.543C83.5739 245.545 84.0552 245.717 84.4415 246.029C84.8278 246.342 85.096 246.777 85.2017 247.263C85.3074 247.748 85.2444 248.255 85.023 248.7C84.8017 249.145 84.4352 249.501 83.9841 249.71L84.8017 251.569C85.0765 251.439 85.3769 251.372 85.6809 251.373C86.1799 251.376 86.6628 251.549 87.0494 251.865C87.4359 252.18 87.7028 252.619 87.8055 253.107C87.9083 253.595 87.8408 254.104 87.6142 254.549C87.3876 254.993 87.0156 255.347 86.5601 255.55L87.3273 257.298L91.2473 255.175L72.3025 212.8L68.4609 214.48Z" fill="#37474F"/>
<path d="M80.9033 208.981C81.5547 210.073 81.9717 211.289 82.1279 212.551C82.284 213.813 82.176 215.093 81.8105 216.311C81.1497 218.305 79.8393 220.433 77.7337 221.519C77.6721 221.553 77.6105 221.441 77.6665 221.402C81.2505 218.646 82.7065 213.175 80.7801 209.048C80.7765 209.032 80.778 209.016 80.7845 209.002C80.791 208.987 80.8021 208.975 80.8161 208.968C80.8301 208.96 80.8462 208.957 80.8619 208.959C80.8777 208.962 80.8922 208.969 80.9033 208.981Z" fill="#37474F"/>
<path d="M86.0839 207.054C87.6967 209.726 89.0911 212.531 90.4519 215.337C91.8127 218.142 93.1287 220.903 94.4447 223.698C95.1951 225.299 95.9455 226.906 96.6063 228.547C96.6167 228.569 96.6181 228.594 96.6103 228.616C96.6024 228.639 96.5859 228.657 96.5643 228.668C96.5428 228.678 96.518 228.679 96.4954 228.672C96.4729 228.664 96.4543 228.647 96.4439 228.626C94.8703 225.932 93.4927 223.115 92.0815 220.338C90.6703 217.56 89.2815 214.822 87.9711 212.033C87.2039 210.431 86.4871 208.818 85.8431 207.166C85.8343 207.136 85.8367 207.103 85.85 207.074C85.8633 207.044 85.8866 207.021 85.9156 207.007C85.9447 206.994 85.9776 206.991 86.0085 207C86.0393 207.008 86.0661 207.028 86.0839 207.054Z" fill="#37474F"/>
<path d="M88.414 206.265C90.0324 208.936 91.4212 211.742 92.782 214.553C94.1428 217.364 95.4588 220.119 96.7748 222.914C97.5252 224.515 98.2756 226.122 98.9364 227.758C98.9416 227.768 98.9446 227.78 98.9452 227.792C98.9459 227.803 98.9442 227.815 98.9403 227.827C98.9364 227.838 98.9304 227.848 98.9225 227.857C98.9146 227.866 98.9051 227.873 98.8944 227.878C98.8837 227.883 98.8722 227.886 98.8603 227.887C98.8485 227.888 98.8367 227.886 98.8255 227.882C98.8143 227.878 98.804 227.872 98.7952 227.864C98.7864 227.856 98.7792 227.847 98.774 227.836C97.2004 225.142 95.8228 222.326 94.4116 219.548C93.0004 216.77 91.6116 214.032 90.3012 211.243C89.5396 209.642 88.8172 208.029 88.1732 206.377C88.1643 206.346 88.1668 206.313 88.1801 206.284C88.1934 206.255 88.2166 206.231 88.2457 206.218C88.2747 206.204 88.3077 206.202 88.3385 206.21C88.3694 206.219 88.3962 206.238 88.414 206.265Z" fill="#37474F"/>
<path d="M92.2949 201.925L105.36 226.43C105.36 226.43 109.28 227.276 114.141 225.025C124.898 220.058 142.908 208.499 151.913 199.623C161.22 190.445 170.353 126.112 170.353 126.112L148.401 113.445C148.401 113.445 137 174.11 132.811 178.489C129.031 182.442 107.113 191.094 96.7805 196.504C94.6301 197.65 93.0184 199.598 92.2949 201.925Z" fill="#FDC500"/>
<path d="M96.9981 201.634C98.7173 204.243 100.218 206.987 101.691 209.742C103.164 212.498 104.581 215.197 106.003 217.941C106.821 219.509 107.633 221.088 108.361 222.695C108.366 222.716 108.365 222.738 108.357 222.758C108.349 222.778 108.334 222.794 108.315 222.805C108.296 222.815 108.274 222.819 108.253 222.815C108.232 222.811 108.213 222.801 108.198 222.785C106.518 220.153 105.034 217.392 103.511 214.67C101.988 211.949 100.515 209.266 99.0757 206.534C98.2525 204.966 97.4685 203.381 96.7629 201.757C96.7527 201.726 96.7536 201.693 96.7655 201.664C96.7774 201.634 96.7995 201.61 96.8279 201.595C96.8563 201.58 96.889 201.576 96.9202 201.583C96.9514 201.59 96.979 201.608 96.9981 201.634Z" fill="#8471FE"/>
<path opacity="0.1" d="M140.918 150.17L170.352 126.09L148.4 113.445C148.4 113.445 144.816 132.608 140.918 150.17Z" fill="#CA0000"/>
<path opacity="0.1" d="M146.048 189.952C145.269 190.058 144.476 189.985 143.729 189.739C142.98 189.511 142.257 189.203 141.573 188.821C140.228 188.055 138.991 187.113 137.894 186.021C137.334 185.461 136.841 184.901 136.343 184.341C135.845 183.781 135.391 183.148 134.971 182.515C134.551 181.882 134.153 181.233 133.789 180.572C133.425 179.911 133.101 179.211 132.826 178.494C133.412 178.98 133.973 179.496 134.506 180.04C135.033 180.572 135.581 181.082 136.08 181.619C136.578 182.157 137.121 182.661 137.62 183.198L138.398 183.971C138.656 184.229 138.897 184.503 139.165 184.744C140.201 185.763 141.26 186.738 142.369 187.65C143.459 188.616 144.702 189.394 146.048 189.952Z" fill="#CA0000"/>
<path d="M157.201 196.229C159.639 191.093 158.661 185.528 155.017 183.799C151.374 182.07 146.444 184.831 144.007 189.966C141.57 195.102 142.547 200.667 146.191 202.396C149.834 204.125 154.764 201.364 157.201 196.229Z" fill="#FDC500"/>
<path opacity="0.1" d="M157.201 196.229C159.639 191.093 158.661 185.528 155.017 183.799C151.374 182.07 146.444 184.831 144.007 189.966C141.57 195.102 142.547 200.667 146.191 202.396C149.834 204.125 154.764 201.364 157.201 196.229Z" fill="#CA0000"/>
<path d="M105.151 137.71L98.4758 110.219C97.227 104.961 96.0398 100.369 95.2054 98.056C95.2054 98.056 95.2054 98.056 95.2054 98.0168C95.0677 97.4533 94.8034 96.9285 94.4326 96.4824C94.4326 96.4824 94.4326 96.4824 94.3934 96.4824C92.579 95.7936 50.2486 104.535 48.8766 105.342C47.5046 106.148 49.6774 110.118 51.5926 111.093C53.5078 112.067 71.1926 115.959 71.1926 115.959L78.1254 143.36L105.151 137.71Z" fill="#455A64"/>
<path d="M93.6485 92.3608L91.4533 92.7752C91.4866 93.0235 91.4752 93.2757 91.4197 93.52C91.3092 93.9951 91.0429 94.4196 90.6631 94.7257C90.2833 95.0318 89.812 95.202 89.3242 95.2091C88.8365 95.2162 88.3604 95.0598 87.9719 94.7648C87.5834 94.4699 87.3048 94.0533 87.1805 93.5816L85.1869 93.9568C85.2213 94.2146 85.208 94.4766 85.1477 94.7296C85.0369 95.2052 84.7695 95.6298 84.3884 95.9352C84.0073 96.2405 83.5346 96.409 83.0463 96.4135C82.558 96.4181 82.0823 96.2584 81.6956 95.9601C81.309 95.6618 81.0337 95.2423 80.9141 94.7688L78.9149 95.1384C78.965 95.4011 78.965 95.6709 78.9149 95.9336C78.783 96.497 78.433 96.985 77.9416 97.2906C77.4503 97.5961 76.8577 97.6942 76.2941 97.5632C75.8998 97.4742 75.5386 97.2756 75.2523 96.9903C74.9659 96.7049 74.7661 96.3444 74.6757 95.9504L72.6821 96.3256C72.719 96.6001 72.7058 96.8791 72.6429 97.1488C72.532 97.6286 72.2617 98.0566 71.8763 98.3631C71.4909 98.6696 71.013 98.8365 70.5205 98.8365C70.0281 98.8365 69.5502 98.6696 69.1647 98.3631C68.7793 98.0566 68.5091 97.6286 68.3981 97.1488L66.4045 97.524C66.4626 97.8773 66.4327 98.2395 66.3175 98.5785C66.2023 98.9175 66.0053 99.2228 65.744 99.4676C65.4826 99.7123 65.165 99.8888 64.8192 99.9816C64.4734 100.074 64.11 100.08 63.7613 99.9992C63.3565 99.9039 62.9872 99.6953 62.6966 99.3978C62.4061 99.1003 62.2062 98.7262 62.1205 98.3192L60.1325 98.7C60.194 98.9861 60.194 99.2819 60.1325 99.568C60.0193 100.053 59.7435 100.485 59.3508 100.792C58.9582 101.099 58.4724 101.263 57.9741 101.256C57.4758 101.248 56.9949 101.071 56.6113 100.753C56.2277 100.435 55.9645 99.9948 55.8653 99.5064L53.8717 99.8816C53.9388 100.178 53.9388 100.486 53.8717 100.783C53.7607 101.273 53.4841 101.709 53.0887 102.018C52.6933 102.327 52.2033 102.49 51.7016 102.479C51.1998 102.469 50.7171 102.285 50.335 101.96C49.9529 101.635 49.6949 101.187 49.6045 100.694L47.7285 101.046L48.9101 105.319L94.4717 96.488L93.6485 92.3608Z" fill="#37474F"/>
<path d="M96.1745 105.722C94.9629 106.109 93.6839 106.24 92.419 106.106C91.1541 105.972 89.931 105.576 88.8273 104.944C87.0353 103.824 85.2601 102.094 84.6777 99.792C84.6777 99.7304 84.7841 99.6912 84.8121 99.7584C86.6825 103.869 91.6833 106.512 96.1353 105.588C96.1512 105.588 96.1666 105.593 96.1793 105.602C96.1919 105.612 96.2012 105.625 96.2056 105.64C96.2101 105.656 96.2094 105.672 96.2038 105.687C96.1982 105.701 96.1879 105.714 96.1745 105.722Z" fill="#37474F"/>
<path d="M96.8809 111.205C93.9129 112.174 90.8665 112.885 87.8201 113.579C84.7737 114.274 81.7945 114.929 78.7705 115.573C77.0457 115.942 75.3097 116.312 73.5625 116.586C73.5387 116.592 73.5139 116.587 73.4934 116.574C73.4729 116.561 73.4585 116.54 73.4533 116.516C73.4481 116.493 73.4526 116.468 73.4657 116.447C73.4788 116.427 73.4995 116.412 73.5233 116.407C76.5025 115.483 79.5545 114.783 82.5841 114.033C85.6137 113.282 88.5873 112.571 91.6057 111.91C93.3361 111.53 95.0665 111.194 96.8249 110.947C96.856 110.947 96.8863 110.957 96.9107 110.976C96.935 110.996 96.952 111.023 96.9586 111.053C96.9652 111.083 96.961 111.115 96.9469 111.143C96.9327 111.17 96.9094 111.192 96.8809 111.205Z" fill="#37474F"/>
<path d="M97.1214 113.68C94.1478 114.649 91.1014 115.36 88.0606 116.054C85.0198 116.749 82.0294 117.404 79.011 118.048C77.2806 118.418 75.5446 118.787 73.7974 119.062C73.7737 119.066 73.7491 119.061 73.7291 119.047C73.7092 119.034 73.6955 119.013 73.691 118.989C73.6866 118.965 73.6917 118.94 73.7054 118.921C73.719 118.901 73.7401 118.887 73.7638 118.882C76.743 117.958 79.795 117.258 82.819 116.514C85.843 115.769 88.8278 115.052 91.8406 114.386C93.5766 114.01 95.307 113.674 97.0654 113.422C97.0965 113.422 97.1268 113.432 97.1512 113.451C97.1755 113.471 97.1925 113.498 97.1991 113.528C97.2057 113.559 97.2016 113.59 97.1874 113.618C97.1732 113.646 97.1499 113.668 97.1214 113.68Z" fill="#37474F"/>
<path d="M170.385 126.129C170.385 126.129 164.304 132.793 159.141 138.029C155.372 141.859 151.889 145.118 150.965 145.135C149.917 145.135 145.152 144.631 143.573 144.424C143.573 144.424 120.086 170.262 108.029 176.512C103.902 178.651 90.9383 176.456 87.1863 170.117C81.0991 159.83 74.9223 144.284 72.6655 134.506C71.6575 130.144 72.6935 125.429 72.6935 125.429L100.464 117.757C100.464 117.757 103.465 122.758 104.384 125.899C105.739 130.642 106.954 145.169 106.954 145.169C114.464 139.804 121.777 129.892 121.777 129.892C121.777 129.892 123.939 118.378 137.457 107.072L170.385 126.129Z" fill="#FDC500"/>
<path d="M150.938 144.995C147.422 144.414 143.862 144.141 140.298 144.178C140.273 144.183 140.251 144.197 140.235 144.217C140.22 144.237 140.211 144.261 140.211 144.287C140.211 144.312 140.22 144.337 140.235 144.357C140.251 144.376 140.273 144.39 140.298 144.396C143.82 144.771 147.371 145.236 150.904 145.421C150.932 145.423 150.961 145.42 150.987 145.411C151.014 145.402 151.039 145.389 151.06 145.37C151.081 145.352 151.099 145.33 151.111 145.305C151.124 145.28 151.132 145.253 151.134 145.225C151.136 145.197 151.133 145.169 151.124 145.142C151.116 145.115 151.102 145.091 151.084 145.069C151.065 145.048 151.043 145.031 151.018 145.018C150.993 145.005 150.966 144.997 150.938 144.995Z" fill="#8471FE"/>
<path d="M162.793 126.039C162.838 125.933 162.676 125.815 162.62 125.922C160.836 129.088 158.894 132.163 156.801 135.134C155.849 136.522 150.126 143.931 147.925 141.921C147.556 141.579 147.578 141.042 147.869 140.364C148.222 139.552 149.04 138.774 149.6 138.079C150.832 136.545 152.013 134.977 153.117 133.353C155.203 130.346 156.973 127.131 158.397 123.76C158.404 123.738 158.403 123.715 158.394 123.695C158.385 123.674 158.369 123.657 158.349 123.647C158.329 123.637 158.306 123.634 158.284 123.639C158.262 123.645 158.243 123.658 158.229 123.676C155.826 128.127 153.089 132.39 150.042 136.427C148.541 138.348 145.702 140.907 147.718 142.475C149.734 144.043 154.197 139.58 155.289 138.286C158.31 134.546 160.832 130.429 162.793 126.039Z" fill="#8471FE"/>
<path d="M147.88 142.173C147.347 142.592 146.842 143.044 146.368 143.528C145.958 143.877 145.617 144.299 145.36 144.771C145.32 144.866 145.432 144.939 145.516 144.906C146.011 144.64 146.462 144.3 146.855 143.898C147.342 143.489 147.835 143.091 148.305 142.666C148.338 142.638 148.364 142.604 148.383 142.565C148.403 142.527 148.414 142.486 148.417 142.443C148.42 142.4 148.415 142.357 148.401 142.317C148.388 142.276 148.367 142.239 148.339 142.206C148.311 142.174 148.277 142.148 148.239 142.128C148.2 142.109 148.159 142.098 148.116 142.094C148.074 142.091 148.031 142.097 147.99 142.11C147.95 142.124 147.912 142.145 147.88 142.173Z" fill="#8471FE"/>
<path d="M76.5851 128.839C79.4859 127.837 82.4707 127.081 85.4555 126.353C88.4403 125.625 91.3579 124.93 94.3203 124.247C96.0003 123.855 97.7139 123.463 99.4275 123.166C99.4487 123.166 99.4693 123.174 99.4861 123.187C99.5028 123.2 99.5147 123.218 99.5198 123.239C99.525 123.259 99.5231 123.281 99.5145 123.3C99.5059 123.32 99.491 123.336 99.4723 123.346C96.5547 124.309 93.5643 125.026 90.6019 125.832C87.6395 126.638 84.7219 127.366 81.7595 128.072C80.0795 128.475 78.3659 128.834 76.6411 129.102C76.6062 129.11 76.5697 129.103 76.5398 129.084C76.5099 129.064 76.4889 129.034 76.4815 128.999C76.474 128.964 76.4808 128.927 76.5002 128.898C76.5196 128.868 76.5502 128.847 76.5851 128.839Z" fill="#8471FE"/>
<path opacity="0.1" d="M102.558 166.432C102.062 165.612 101.773 164.684 101.718 163.727C101.662 163.257 101.662 162.786 101.634 162.31C101.606 161.834 101.634 161.37 101.679 160.899C101.817 159.035 102.132 157.188 102.62 155.383C103.094 153.591 103.693 151.834 104.412 150.125C105.113 148.406 105.956 146.748 106.932 145.169C106.646 147.017 106.193 148.798 105.75 150.567C105.308 152.337 104.832 154.09 104.361 155.837C103.891 157.584 103.443 159.331 103.068 161.09C102.894 161.963 102.709 162.848 102.603 163.733C102.437 164.624 102.422 165.536 102.558 166.432Z" fill="#CA0000"/>
<path d="M101.668 179.189C107.352 179.189 111.961 175.919 111.961 171.886C111.961 167.853 107.352 164.584 101.668 164.584C95.9832 164.584 91.375 167.853 91.375 171.886C91.375 175.919 95.9832 179.189 101.668 179.189Z" fill="#FDC500"/>
<path opacity="0.1" d="M101.668 179.189C107.352 179.189 111.961 175.919 111.961 171.886C111.961 167.853 107.352 164.584 101.668 164.584C95.9832 164.584 91.375 167.853 91.375 171.886C91.375 175.919 95.9832 179.189 101.668 179.189Z" fill="#CA0000"/>
<path d="M169.642 92.792C186.106 99.344 199.283 101.993 204.491 100.475C209.049 99.1424 222.052 93.548 228.38 87.4832C230.29 85.6576 221.66 73.192 219.017 74.1832C216.374 75.1744 203.124 82.6224 199.664 83.8488C197.698 84.5432 176.272 85.344 171.4 85.428C163.269 85.5736 162.334 89.8856 169.642 92.792Z" fill="#F7A9A0"/>
<path d="M236.93 79.1784C236.331 80.0968 236.807 80.4216 238.655 79.7888C240.503 79.156 247.262 75.1072 248.477 77.588C249.693 80.0688 240.077 85.6464 236.913 86.4584C233.749 87.2704 228.379 87.4832 228.379 87.4832C230.037 86.0216 233.716 82.0904 236.93 79.1784Z" fill="#455A64"/>
<path d="M219.016 74.1832C223.832 70.2632 229.583 65.0272 236.527 63.9408C237.291 63.8031 238.08 63.9254 238.767 64.288C241.869 63.728 243.056 65.0496 243.056 65.0496C246.103 65.4304 247.133 66.9312 247.133 66.9312C247.133 66.9312 250.779 66.3376 251.507 68.4824C252.33 70.8904 247.027 71.2544 244.255 73.2312C237.876 77.7616 230.081 85.9936 228.368 87.4832L219.016 74.1832Z" fill="#455A64"/>
<path d="M234.249 73.2816C236.1 71.9345 238.04 70.7147 240.056 69.6304C242.336 68.582 244.69 67.706 247.101 67.0096C247.114 67.0037 247.124 66.9934 247.131 66.9806C247.137 66.9678 247.139 66.9532 247.135 66.9393C247.132 66.9254 247.124 66.9131 247.113 66.9045C247.101 66.8959 247.087 66.8914 247.073 66.892C242.284 67.7765 237.829 69.9575 234.193 73.1976C234.081 73.2704 234.148 73.36 234.249 73.2816Z" fill="#8471FE"/>
<path d="M230.951 69.832C232.871 68.6728 236.265 66.6568 243.086 65.1224V65.0832C238.67 65.4724 234.45 67.086 230.9 69.7424C230.783 69.8208 230.822 69.9104 230.951 69.832Z" fill="#8471FE"/>
<path d="M229.214 67.9448C232.574 66.0968 234.898 65.3576 238.768 64.3104V64.2656C234.243 64.9936 232.686 65.772 229.141 67.8384C229.04 67.9056 229.085 68.0176 229.214 67.9448Z" fill="#8471FE"/>
<path d="M219.016 74.1832L228.379 87.4832C227.955 89.2642 227.03 90.8867 225.714 92.1592C223.518 94.2816 206.405 101.371 201.107 101.45C195.81 101.528 175.112 96.32 167.698 92.568C160.283 88.816 164.254 85.568 169.686 85.1984C175.118 84.8288 197.848 83.5184 199.153 83.1992C200.458 82.88 211.238 76.076 213.523 74.8888C215.807 73.7016 219.016 74.1832 219.016 74.1832Z" fill="#FDC500"/>
<path opacity="0.1" d="M167.698 92.568C173.069 95.284 185.4 98.7616 193.806 100.453L169.07 85.2488C163.969 85.82 160.57 88.9616 167.698 92.568Z" fill="#CA0000"/>
<path opacity="0.1" d="M215.488 75.7288C216.899 77.5376 218.215 79.4192 219.52 81.3288C220.825 83.2384 222.091 85.0696 223.367 86.9288C224.095 87.9984 224.829 89.0792 225.518 90.1768C225.568 90.2496 225.518 90.2888 225.451 90.2216C224.056 88.4072 222.746 86.5144 221.419 84.6216C220.091 82.7288 218.803 80.9088 217.499 79.0216C216.765 77.9464 216.048 76.8656 215.365 75.7568C215.32 75.6896 215.415 75.6336 215.488 75.7288Z" fill="#CA0000"/>
<path d="M170.352 126.112L137.424 107.072C137.042 105.134 137.434 103.124 138.516 101.472C142.699 94.6344 152.717 83.3784 161.666 79.2344C168.117 76.2552 173.191 78.7808 175.106 83.5352C175.593 84.7392 180.331 100.386 179.743 105.963C179.121 111.866 176.254 119.179 173.678 123.189C172.829 124.424 171.686 125.429 170.352 126.112Z" fill="#FDC500"/>
<path d="M170.09 128.117C170.577 128.19 172.033 125.502 171.899 125.11C171.764 124.718 137.554 105.129 137.302 105.084C137.05 105.039 135.387 108.343 135.689 108.584C135.991 108.825 169.44 128.016 170.09 128.117Z" fill="#FDC500"/>
<path opacity="0.1" d="M170.09 128.117C170.577 128.19 172.033 125.502 171.899 125.11C171.764 124.718 137.554 105.129 137.302 105.084C137.05 105.039 135.387 108.343 135.689 108.584C135.991 108.825 169.44 128.016 170.09 128.117Z" fill="#CA0000"/>
<path d="M163.432 106.036L180.013 109.525L180.383 94.8304L163.801 91.3416L163.432 106.036Z" fill="#FDC500"/>
<path opacity="0.2" d="M163.432 106.036L180.013 109.525L180.383 94.8304L163.801 91.3416L163.432 106.036Z" fill="#CA0000"/>
<path opacity="0.1" d="M163.432 106.036L165.532 106.478L165.901 91.784L163.801 91.3416L163.432 106.036Z" fill="#CA0000"/>
<path opacity="0.1" d="M177.453 97.664C177.444 97.9161 177.521 98.1639 177.67 98.3672C177.819 98.5704 178.033 98.7173 178.276 98.784C178.387 98.8057 178.5 98.8018 178.609 98.7725C178.717 98.7433 178.818 98.6895 178.902 98.6154C178.986 98.5413 179.053 98.4488 179.096 98.345C179.139 98.2412 179.157 98.1289 179.15 98.0168C179.159 97.764 179.081 97.5156 178.931 97.3123C178.78 97.1089 178.565 96.9624 178.321 96.8968C178.211 96.875 178.098 96.8788 177.989 96.908C177.881 96.9373 177.781 96.9911 177.697 97.0654C177.613 97.1396 177.547 97.2323 177.505 97.3361C177.463 97.44 177.445 97.5522 177.453 97.664Z" fill="#CA0000"/>
<path opacity="0.1" d="M177.375 100.8C177.366 101.052 177.443 101.3 177.592 101.503C177.741 101.706 177.955 101.853 178.198 101.92C178.309 101.943 178.423 101.94 178.532 101.911C178.641 101.882 178.742 101.829 178.826 101.754C178.911 101.68 178.977 101.587 179.02 101.482C179.062 101.378 179.08 101.265 179.072 101.153C179.081 100.901 179.004 100.653 178.855 100.45C178.706 100.246 178.492 100.1 178.249 100.033C178.138 100.01 178.024 100.013 177.915 100.042C177.806 100.071 177.705 100.124 177.621 100.199C177.536 100.273 177.47 100.366 177.427 100.47C177.384 100.575 177.367 100.688 177.375 100.8Z" fill="#CA0000"/>
<path opacity="0.1" d="M177.295 103.88C177.286 104.132 177.363 104.38 177.512 104.583C177.662 104.786 177.875 104.933 178.119 105C178.229 105.022 178.344 105.018 178.453 104.988C178.561 104.959 178.662 104.905 178.747 104.83C178.831 104.755 178.897 104.662 178.94 104.557C178.982 104.453 179 104.34 178.992 104.227C179.001 103.975 178.925 103.727 178.775 103.524C178.626 103.321 178.412 103.174 178.169 103.107C178.058 103.084 177.943 103.087 177.834 103.116C177.725 103.145 177.623 103.2 177.539 103.275C177.454 103.35 177.388 103.444 177.345 103.549C177.303 103.654 177.286 103.767 177.295 103.88Z" fill="#CA0000"/>
<path opacity="0.1" d="M174.81 97.1096C174.801 97.3617 174.878 97.6095 175.027 97.8128C175.176 98.016 175.39 98.1629 175.633 98.2296C175.744 98.2525 175.858 98.2494 175.967 98.2206C176.076 98.1918 176.177 98.1381 176.261 98.0637C176.346 97.9893 176.412 97.8963 176.455 97.792C176.498 97.6876 176.515 97.5748 176.507 97.4624C176.516 97.2103 176.439 96.9625 176.29 96.7592C176.141 96.556 175.927 96.4091 175.684 96.3424C175.573 96.3207 175.46 96.3247 175.351 96.3539C175.243 96.3831 175.143 96.4369 175.058 96.511C174.974 96.5851 174.907 96.6777 174.864 96.7814C174.821 96.8852 174.803 96.9975 174.81 97.1096Z" fill="#CA0000"/>
<path opacity="0.1" d="M174.721 100.24C174.712 100.492 174.788 100.74 174.938 100.943C175.087 101.146 175.301 101.293 175.544 101.36C175.654 101.383 175.769 101.38 175.878 101.351C175.986 101.322 176.087 101.269 176.172 101.194C176.257 101.12 176.323 101.027 176.366 100.922C176.408 100.818 176.426 100.705 176.418 100.593C176.427 100.341 176.35 100.093 176.201 99.8897C176.051 99.6864 175.838 99.5395 175.594 99.4728C175.484 99.45 175.37 99.4531 175.261 99.4818C175.152 99.5106 175.051 99.5643 174.966 99.6387C174.882 99.7131 174.815 99.8061 174.773 99.9104C174.73 100.015 174.712 100.128 174.721 100.24Z" fill="#CA0000"/>
<path opacity="0.1" d="M174.654 103.326C174.645 103.578 174.722 103.827 174.873 104.03C175.023 104.234 175.238 104.38 175.483 104.446C175.593 104.469 175.707 104.466 175.816 104.437C175.924 104.408 176.025 104.354 176.109 104.28C176.193 104.205 176.259 104.112 176.301 104.008C176.343 103.903 176.36 103.791 176.351 103.678C176.36 103.426 176.283 103.179 176.134 102.975C175.984 102.772 175.771 102.625 175.527 102.558C175.417 102.537 175.304 102.541 175.195 102.57C175.087 102.599 174.986 102.653 174.902 102.727C174.817 102.801 174.751 102.894 174.708 102.997C174.665 103.101 174.647 103.213 174.654 103.326Z" fill="#CA0000"/>
<path opacity="0.1" d="M172.167 96.5552C172.159 96.8081 172.236 97.0564 172.387 97.2598C172.537 97.4631 172.752 97.6096 172.996 97.6752C173.107 97.6959 173.221 97.691 173.329 97.6611C173.437 97.6311 173.538 97.5768 173.622 97.5023C173.706 97.4277 173.772 97.3349 173.815 97.231C173.858 97.127 173.877 97.0147 173.87 96.9024C173.879 96.6495 173.801 96.4012 173.651 96.1978C173.5 95.9945 173.285 95.848 173.041 95.7824C172.93 95.7617 172.817 95.7666 172.708 95.7965C172.6 95.8265 172.5 95.8808 172.415 95.9554C172.331 96.0299 172.265 96.1227 172.222 96.2266C172.179 96.3306 172.16 96.4429 172.167 96.5552Z" fill="#CA0000"/>
<path opacity="0.1" d="M172.094 99.68C172.085 99.9321 172.161 100.18 172.311 100.383C172.46 100.586 172.674 100.733 172.917 100.8C173.027 100.822 173.141 100.818 173.249 100.789C173.358 100.759 173.458 100.706 173.543 100.631C173.627 100.557 173.693 100.465 173.736 100.361C173.779 100.257 173.798 100.145 173.791 100.033C173.799 99.78 173.722 99.5316 173.572 99.3282C173.421 99.1249 173.206 98.9784 172.962 98.9128C172.852 98.8909 172.738 98.8948 172.63 98.924C172.522 98.9533 172.422 99.0071 172.338 99.0814C172.254 99.1556 172.188 99.2483 172.146 99.3521C172.103 99.456 172.086 99.5682 172.094 99.68Z" fill="#CA0000"/>
<path opacity="0.1" d="M172.016 102.771C172.007 103.023 172.084 103.271 172.233 103.474C172.382 103.678 172.596 103.825 172.839 103.891C172.95 103.913 173.063 103.909 173.172 103.88C173.28 103.85 173.381 103.797 173.465 103.723C173.549 103.648 173.616 103.556 173.659 103.452C173.702 103.348 173.72 103.236 173.713 103.124C173.722 102.871 173.644 102.623 173.494 102.419C173.343 102.216 173.129 102.07 172.884 102.004C172.774 101.981 172.66 101.984 172.551 102.013C172.443 102.041 172.342 102.095 172.258 102.17C172.173 102.244 172.108 102.337 172.066 102.442C172.024 102.546 172.007 102.659 172.016 102.771Z" fill="#CA0000"/>
<path d="M177.705 53.7264C178.332 53.9112 181.182 54.04 182.638 56.8848C184.021 59.5728 183.461 66.9648 183.585 68.6448C183.708 70.3248 185.757 70.8848 185.953 72.8056C186.121 74.4856 184.867 74.8664 184.559 76.0144C184.324 76.9048 185.013 78.4112 183.971 79.6208C183.025 80.7408 181.731 80.248 180.885 80.5C180.04 80.752 179.205 82.5216 177.671 82.7848C176.137 83.048 175.022 81.4856 174.233 81.368C173.443 81.2504 172.133 83.5072 169.607 82.8856C167.081 82.264 166.689 79.9792 165.687 79.38C164.685 78.7808 161.929 79.0944 160.927 77.5768C159.925 76.0592 160.003 74.2672 159.566 73.528C159.129 72.7888 157.965 72.7104 157.528 71.1032C157.091 69.496 158.648 68.7624 159.051 67.4912C159.331 66.6008 158.659 65.6376 159.449 64.344C160.535 62.5632 162.809 63.3472 164.007 61.544C164.953 60.1216 167.468 53.704 171.769 52.6792C174.748 51.9848 177.705 53.7264 177.705 53.7264Z" fill="#8471FE"/>
<path d="M183.568 68.2528C183.675 68.6157 183.867 68.9478 184.128 69.2216L184.85 70.0728C185.347 70.6057 185.759 71.212 186.071 71.8704C186.213 72.1838 186.28 72.5257 186.269 72.8695C186.257 73.2132 186.166 73.5497 186.004 73.8528C185.823 74.1548 185.594 74.4252 185.326 74.6536C185.023 74.9037 184.757 75.196 184.536 75.5216C184.375 75.9082 184.344 76.3365 184.447 76.7424C184.508 77.1176 184.587 77.476 184.632 77.8624C184.702 78.2047 184.704 78.5574 184.637 78.9004C184.571 79.2435 184.438 79.5701 184.245 79.8616C184.045 80.1344 183.759 80.3318 183.433 80.4216C183.088 80.5094 182.728 80.5303 182.375 80.4832C182.011 80.4496 181.647 80.3768 181.255 80.3264C180.883 80.2322 180.492 80.2557 180.135 80.3936C180.492 80.3086 180.865 80.3221 181.216 80.4328C181.58 80.5168 181.938 80.6232 182.308 80.6848C182.688 80.7604 183.08 80.7604 183.461 80.6848C183.857 80.5894 184.21 80.3647 184.464 80.0464C184.7 79.7291 184.868 79.3661 184.956 78.9805C185.045 78.5949 185.053 78.1951 184.979 77.8064C184.94 77.4256 184.861 77.0616 184.811 76.6864C184.729 76.3688 184.751 76.0334 184.872 75.7288C185.186 75.1688 185.931 74.7656 186.3 74.0488C186.486 73.6937 186.583 73.2988 186.583 72.898C186.583 72.4972 186.486 72.1023 186.3 71.7472C185.943 71.0775 185.482 70.4688 184.934 69.944L184.144 69.16C183.891 68.9007 183.695 68.5918 183.568 68.2528Z" fill="#8471FE"/>
<path d="M167.439 55.8376C166.628 56.8899 165.88 57.9894 165.199 59.1304C164.83 59.6904 164.477 60.2504 164.079 60.7544C163.886 61.0049 163.669 61.2357 163.43 61.4432C163.379 61.4918 163.32 61.5315 163.256 61.5608C163.196 61.6005 163.13 61.6307 163.06 61.6504C162.909 61.7008 162.752 61.74 162.595 61.7792C161.94 61.9309 161.293 62.1178 160.658 62.3392C159.987 62.5603 159.4 62.9826 158.978 63.5488C158.773 63.8447 158.646 64.1875 158.608 64.5456C158.593 64.8933 158.642 65.2408 158.754 65.5704C159.007 66.1835 159.116 66.8463 159.073 67.508C159.197 66.8457 159.157 66.1631 158.955 65.52C158.872 65.212 158.845 64.8912 158.877 64.5736C158.928 64.2688 159.055 63.9818 159.247 63.7392C159.65 63.262 160.18 62.9086 160.775 62.72C161.386 62.5016 162.03 62.384 162.685 62.2216C162.847 62.1768 163.015 62.1264 163.178 62.0704C163.358 62.0085 163.523 61.9114 163.665 61.7848C163.926 61.5556 164.161 61.2983 164.365 61.0176C164.771 60.4802 165.145 59.9192 165.485 59.3376L166.459 57.596C166.753 56.9922 167.081 56.4052 167.439 55.8376Z" fill="#8471FE"/>
<path d="M159.041 72.9904C159.203 73.4327 159.274 73.9033 159.248 74.3736C159.276 74.8496 159.299 75.3256 159.349 75.8072C159.391 76.2932 159.483 76.7736 159.623 77.2408C159.763 77.7323 160.021 78.1822 160.374 78.5512C161.172 79.1642 162.173 79.4505 163.174 79.352C163.655 79.352 164.126 79.3072 164.596 79.3016C165.067 79.2677 165.539 79.3464 165.974 79.5312C165.565 79.2668 165.094 79.116 164.607 79.0944C164.126 79.0552 163.65 79.0552 163.179 79.0272C162.255 78.9768 161.281 78.8368 160.643 78.2432C160.337 77.9269 160.111 77.5432 159.982 77.1232C159.834 76.6829 159.722 76.2316 159.646 75.7736C159.562 75.3088 159.5 74.8384 159.433 74.368C159.394 74.1272 159.355 73.892 159.299 73.6568C159.272 73.4161 159.183 73.1865 159.041 72.9904Z" fill="#8471FE"/>
<path d="M166.914 80.976C166.959 81.6928 169.479 86.7328 172.654 87.136C173.684 87.2648 174.631 81.648 174.631 81.648L174.793 81.2504L177.095 75.6504L171.03 70.1008L170.145 69.3504C170.145 69.3504 169.613 70.9184 168.975 72.8784L168.885 73.1584C168.846 73.2648 168.807 73.3712 168.779 73.472C168.678 73.7632 168.577 74.0656 168.488 74.3624C168.398 74.6592 168.342 74.8104 168.275 75.0512L168.062 75.768C167.562 77.476 167.178 79.216 166.914 80.976Z" fill="#F7A9A0"/>
<path d="M177.094 75.656L174.888 81.0208C171.947 79.3832 169.761 76.6628 168.795 73.4384L168.974 72.8784C169.618 70.924 170.145 69.356 170.145 69.356L171.029 70.0952L177.094 75.656Z" fill="#8471FE"/>
<path d="M186.094 67.6816C185.439 78.2544 179.032 79.0552 176.753 78.8816C174.687 78.7528 167.653 78.0472 167.233 67.4632C166.813 56.8792 171.92 53.872 176.641 53.9168C181.362 53.9616 186.749 57.12 186.094 67.6816Z" fill="#F7A9A0"/>
<path d="M167.619 67.2C169.299 67.5696 170.206 64.0248 170.206 64.0248C170.206 64.0248 173.695 64.512 175.537 59.6568C175.229 61.1418 174.493 62.5043 173.421 63.5768C173.421 63.5768 179.665 63.7728 182.941 58.9792C182.941 58.9792 181.546 61.46 180.449 62.2608C180.449 62.2608 183.125 61.8968 184.671 59.976C184.671 59.976 185.343 63.0952 186.06 64.0304C186.06 64.0304 187.286 53.228 177.156 53.004C177.156 53.004 170.856 52.556 167.933 57.1928C165.009 61.8296 167.619 67.2 167.619 67.2Z" fill="#8471FE"/>
<path d="M168.846 68.404C168.846 68.404 167.048 64.7976 165.441 65.3912C163.834 65.9848 164.847 70.9912 166.488 71.8872C166.692 72.0179 166.919 72.1063 167.158 72.1469C167.396 72.1875 167.64 72.1796 167.876 72.1237C168.111 72.0677 168.332 71.9649 168.527 71.8213C168.722 71.6777 168.885 71.4963 169.008 71.288L168.846 68.404Z" fill="#F7A9A0"/>
<path d="M165.76 66.8136V66.8584C166.88 67.536 167.384 68.7624 167.658 70.0056C167.605 69.873 167.524 69.7534 167.421 69.655C167.317 69.5566 167.194 69.4817 167.059 69.4354C166.924 69.3892 166.78 69.3726 166.638 69.387C166.496 69.4013 166.359 69.4461 166.236 69.5184C166.228 69.5213 166.222 69.5263 166.218 69.5328C166.213 69.5393 166.211 69.547 166.211 69.5548C166.211 69.5626 166.213 69.5703 166.218 69.5768C166.222 69.5833 166.228 69.5883 166.236 69.5912C166.457 69.5624 166.682 69.6003 166.881 69.7001C167.081 69.7998 167.246 69.9569 167.356 70.1512C167.534 70.4861 167.677 70.839 167.781 71.204C167.826 71.3216 168.028 71.2936 168.005 71.1648V71.12C168.297 69.58 167.44 67.2 165.76 66.8136Z" fill="#8471FE"/>
<path d="M167.764 71.5904C167.744 71.7275 167.67 71.8508 167.559 71.9336C167.447 72.0164 167.308 72.0521 167.171 72.0328C167.04 72.0133 166.921 71.9446 166.839 71.8405C166.756 71.7364 166.717 71.6049 166.728 71.4728C166.748 71.3354 166.821 71.2113 166.932 71.1279C167.042 71.0444 167.182 71.0083 167.319 71.0276C167.457 71.0469 167.581 71.12 167.664 71.2308C167.748 71.3416 167.784 71.481 167.764 71.6184V71.5904Z" fill="white"/>
<path d="M184.291 65.268C184.059 65.2058 183.83 65.1291 183.608 65.0384C183.356 64.9949 183.125 64.8688 182.952 64.68C182.91 64.6094 182.892 64.5267 182.901 64.4447C182.91 64.3627 182.946 64.286 183.003 64.2264C183.133 64.1276 183.287 64.0652 183.45 64.0456C183.612 64.0259 183.777 64.0496 183.927 64.1144C184.251 64.1945 184.534 64.3946 184.716 64.6744C184.757 64.741 184.776 64.8178 184.773 64.8954C184.77 64.9731 184.744 65.0481 184.699 65.1113C184.654 65.1744 184.591 65.2229 184.518 65.2508C184.446 65.2786 184.367 65.2846 184.291 65.268Z" fill="#8471FE"/>
<path d="M177.42 65.072C177.661 65.0216 177.873 64.932 178.109 64.8592C178.361 64.8187 178.593 64.6968 178.769 64.512C178.814 64.4423 178.833 64.3597 178.825 64.2775C178.817 64.1953 178.782 64.1181 178.725 64.0584C178.597 63.9575 178.445 63.892 178.283 63.8684C178.122 63.8448 177.958 63.864 177.806 63.924C177.476 64.0023 177.188 64.2023 177 64.484C176.962 64.55 176.944 64.6255 176.948 64.7015C176.952 64.7774 176.977 64.8507 177.021 64.9126C177.066 64.9745 177.127 65.0224 177.197 65.0507C177.268 65.0789 177.345 65.0863 177.42 65.072Z" fill="#8471FE"/>
<path d="M178.641 67.3232C178.641 67.3232 178.579 67.3232 178.579 67.3792C178.54 68.0904 178.378 68.8912 177.717 69.0592V69.104C178.518 69.0704 178.725 68.0008 178.641 67.3232Z" fill="#8471FE"/>
<path d="M178.08 66.528C176.96 66.3432 176.658 68.6168 177.705 68.768C178.752 68.9192 179.032 66.6848 178.08 66.528Z" fill="#8471FE"/>
<path d="M177.621 66.5896C177.408 66.696 177.184 66.8976 176.943 66.892C176.702 66.8864 176.484 66.6176 176.333 66.3656C176.333 66.3376 176.293 66.3656 176.288 66.3656C176.226 66.5692 176.245 66.7887 176.339 66.9791C176.434 67.1696 176.598 67.3167 176.797 67.3904C177.212 67.5024 177.57 67.1608 177.733 66.7352C177.766 66.6792 177.71 66.5504 177.621 66.5896Z" fill="#8471FE"/>
<path d="M182.684 67.5528C182.684 67.5528 182.735 67.592 182.729 67.62C182.611 68.32 182.595 69.1432 183.199 69.4624C183.199 69.4624 183.199 69.5072 183.199 69.5016C182.427 69.2888 182.46 68.1968 182.684 67.5528Z" fill="#8471FE"/>
<path d="M183.406 66.9032C184.554 66.9704 184.336 69.2496 183.278 69.188C182.219 69.1264 182.449 66.8472 183.406 66.9032Z" fill="#8471FE"/>
<path d="M183.871 67.0936C184.039 67.2336 184.196 67.4688 184.431 67.508C184.666 67.5472 184.89 67.3176 185.069 67.0936H185.103C185.075 67.5304 184.884 67.9728 184.459 68.0176C184.033 68.0624 183.826 67.6536 183.764 67.2112C183.731 67.1552 183.804 67.0432 183.871 67.0936Z" fill="#8471FE"/>
<path d="M178.013 73.0744C178.153 73.2704 178.281 73.5224 178.533 73.5896C178.793 73.628 179.058 73.6128 179.312 73.5448C179.34 73.5448 179.357 73.5448 179.34 73.584C179.215 73.7034 179.06 73.7872 178.892 73.8265C178.723 73.8659 178.547 73.8595 178.382 73.808C178.247 73.7463 178.132 73.6458 178.054 73.5193C177.975 73.3927 177.935 73.2457 177.94 73.0968C177.939 73.088 177.942 73.0793 177.947 73.0721C177.952 73.0649 177.959 73.0596 177.967 73.057C177.976 73.0544 177.985 73.0547 177.993 73.0579C178.001 73.061 178.008 73.0669 178.013 73.0744Z" fill="#8471FE"/>
<path d="M181.344 70.728C181.344 70.728 181.372 71.7976 181.316 72.296C181.316 72.3408 181.188 72.352 181.014 72.3408C180.578 72.3688 180.143 72.2765 179.756 72.0741C179.369 71.8717 179.044 71.5668 178.819 71.1928C178.791 71.1424 178.864 71.0976 178.903 71.1312C179.484 71.6394 180.216 71.9442 180.986 71.9992C181.036 71.8648 180.885 70.168 180.986 70.1736C181.376 70.2476 181.753 70.3777 182.106 70.56C182.106 68.32 181.781 66.1136 181.826 63.8904C181.826 63.8726 181.833 63.8555 181.846 63.8429C181.858 63.8303 181.875 63.8232 181.893 63.8232C181.911 63.8232 181.928 63.8303 181.941 63.8429C181.953 63.8555 181.96 63.8726 181.96 63.8904C182.403 66.2534 182.607 68.6547 182.571 71.0584C182.515 71.3272 181.535 70.84 181.344 70.728Z" fill="#8471FE"/>
<path d="M180.813 72.24C180.485 72.5832 180.074 72.8359 179.62 72.9736C179.368 73.0378 179.103 73.0261 178.858 72.94C178.332 72.7384 178.371 72.2344 178.517 71.82C178.598 71.6004 178.704 71.3901 178.83 71.1928C179.363 71.7433 180.057 72.1101 180.813 72.24Z" fill="#8471FE"/>
<path d="M179.62 72.9736C179.368 73.0378 179.103 73.0261 178.858 72.94C178.332 72.7384 178.371 72.2344 178.517 71.82C178.803 71.8612 179.067 71.9972 179.267 72.2064C179.467 72.4155 179.591 72.6856 179.62 72.9736Z" fill="#FF98B9"/>
<path d="M162.4 80.3768C162.413 81.3248 162.682 82.2518 163.179 83.0592C164.764 85.6744 169.02 87.7968 173.259 87.2816C175.952 86.9512 177.616 85.8648 178.456 84.4816C175.642 85 172.749 84.9015 169.977 84.1928C167.205 83.4841 164.62 82.1821 162.4 80.3768Z" fill="#455A64"/>
<path d="M158.754 76.8768C163.559 85.0808 177.536 88.7096 186.34 81.3064C192.556 76.0648 195.3 65.2624 190.618 56.2744C183.82 43.2768 170.077 44.6152 162.4 50.96C154.33 57.6464 155.12 70.6496 158.754 76.8768ZM168.128 56.1064C174.328 51.5424 185.455 51.268 190.864 60.5136C192.537 63.4223 193.096 66.8395 192.438 70.1295C191.78 73.4196 189.949 76.3586 187.286 78.4C180.152 83.748 168.912 81.2336 165.076 75.3928C162.17 70.9632 161.571 60.9336 168.128 56.1064Z" fill="#FDC500"/>
<path opacity="0.1" d="M165.078 75.3872C168.914 81.228 180.153 83.7424 187.288 78.3944C189.949 76.3532 191.779 73.4152 192.437 70.1264C193.095 66.8377 192.537 63.4218 190.866 60.5136C185.457 51.268 174.329 51.5536 168.13 56.1064C161.573 60.9336 162.172 70.9632 165.078 75.3872Z" fill="#455A64"/>
<path opacity="0.1" d="M165.078 75.3872C168.914 81.228 180.153 83.7424 187.288 78.3944C189.949 76.3532 191.779 73.4152 192.437 70.1264C193.095 66.8377 192.537 63.4218 190.866 60.5136C185.457 51.268 174.329 51.5536 168.13 56.1064C161.573 60.9336 162.172 70.9632 165.078 75.3872Z" fill="#455A64"/>
<g opacity="0.2">
<path d="M178.41 53.0264C183.675 58.3772 188.338 64.2887 192.315 70.6552C192.788 68.7713 192.847 66.8073 192.489 64.8984C189.91 61.1947 187.094 57.6612 184.061 54.32C182.278 53.53 180.359 53.0908 178.41 53.0264Z" fill="white"/>
<path d="M163.184 70C163.427 71.9128 164.072 73.7526 165.076 75.3984C166.352 77.2212 168.092 78.6695 170.116 79.5928C168.038 76.2334 165.721 73.0276 163.184 70Z" fill="white"/>
<path d="M175.32 53.2C181.493 59.2652 186.852 66.1058 191.264 73.5504C191.37 73.3432 191.465 73.136 191.555 72.9232C187.217 65.6968 181.992 59.041 176.004 53.1104L175.32 53.2Z" fill="white"/>
<path d="M163.48 63.308C168.693 68.7082 173.191 74.7552 176.864 81.3008C177.077 81.3008 177.29 81.3008 177.508 81.3008C173.72 74.5242 169.054 68.2767 163.632 62.72C163.576 62.9216 163.52 63.112 163.48 63.308Z" fill="white"/>
<path d="M162.994 67.2504C162.994 67.5192 162.994 67.7768 162.994 68.04C166.34 71.8628 169.339 75.9765 171.954 80.332C172.206 80.4216 172.458 80.5056 172.716 80.5784C169.914 75.8317 166.658 71.3681 162.994 67.2504Z" fill="white"/>
<path d="M165.592 58.66C172.28 65.1312 177.945 72.5823 182.392 80.7576C183.039 80.5838 183.673 80.3649 184.29 80.1024C179.679 71.6266 173.781 63.9172 166.807 57.2488C166.367 57.6883 165.961 58.16 165.592 58.66Z" fill="white"/>
</g>
<path d="M153.77 69.7704C152.852 67.5304 152.835 62.8936 155.176 60.6872C157.416 58.604 161.218 58.3968 162.909 63.1232C164.074 66.388 163.15 70.1456 161.347 71.876C158.793 74.3232 154.98 72.7664 153.77 69.7704Z" fill="#FDC500"/>
<path opacity="0.1" d="M153.77 69.7704C152.852 67.5304 152.835 62.8936 155.176 60.6872C157.416 58.604 161.218 58.3968 162.909 63.1232C164.074 66.388 163.15 70.1456 161.347 71.876C158.793 74.3232 154.98 72.7664 153.77 69.7704Z" fill="#CA0000"/>
<path d="M153.066 68.9472C152.36 67.2 152.349 63.6608 154.146 61.964C155.826 60.3624 158.789 60.2056 160.088 63.8344C160.984 66.3432 160.273 69.2328 158.884 70.5544C156.93 72.4416 154.001 71.2432 153.066 68.9472Z" fill="#FDC500"/>
<path d="M157.563 88.4128C159.904 102.334 171.003 120.333 174.699 124.387C180.327 130.586 206.16 123.939 211.424 122.931C213.664 122.506 206.748 102.911 204.34 103.331C202.24 103.69 182.5 109.491 181.912 108.797C181.436 108.237 171.893 95.3568 165.05 86.8728C159.148 79.5536 156.947 84.728 157.563 88.4128Z" fill="#F7A9A0"/>
<path d="M199.691 104.513L203.303 103.555C204.464 103.215 205.568 102.706 206.579 102.043C210.628 99.708 221.985 96.6168 232.239 104.843C236.159 107.985 235.677 112.123 231.018 109.575C227.731 107.783 225.608 106.26 224.376 105.974C224.376 105.974 226.616 111.25 224.858 114.072C223.329 116.539 221.628 118.895 219.767 121.122C219.282 120.873 218.813 120.594 218.362 120.288C217.574 121.341 216.504 122.149 215.277 122.619C214.049 123.09 212.713 123.204 211.423 122.948L205.605 124.191L199.691 104.513Z" fill="#455A64"/>
<path d="M210.795 100.436C213.197 100.906 218.277 101.998 222.118 104.356C226.385 106.949 233.912 113.103 231.963 116.234C230.535 118.53 227.455 116.43 227.455 116.43C227.455 116.43 230.025 119.627 228.284 121.419C226.693 123.054 224.409 121.29 224.409 121.29C224.409 121.29 225.635 123.497 223.804 124.774C221.597 126.314 219.385 121.414 215.807 121.055C215.001 120.96 210.795 100.436 210.795 100.436Z" fill="#455A64"/>
<path d="M218.624 108.388C220.814 109.206 225.305 112.308 227.461 116.312C227.506 116.402 227.461 116.486 227.405 116.413C224.803 113.406 221.847 110.724 218.602 108.427C218.602 108.427 218.602 108.382 218.624 108.388Z" fill="#8471FE"/>
<path d="M216.16 112.773C217.974 113.674 222.46 117.107 224.504 121.206C224.549 121.302 224.504 121.386 224.442 121.307C222.003 118.17 219.215 115.319 216.132 112.812C216.132 112.812 216.104 112.762 216.16 112.773Z" fill="#8471FE"/>
<path d="M199.691 104.513L205.605 124.174C205.605 124.174 204.423 126.414 199.131 127.434C193.839 128.453 178.411 128.727 174.855 125.468C171.299 122.209 161.46 105.308 158.027 92.8032C154.595 80.2984 161.796 81.4688 165.571 86.884C169.345 92.2992 181.928 108.007 182.303 108.164C182.679 108.321 191.504 104.95 194.702 104.3C197.899 103.65 199.691 104.513 199.691 104.513Z" fill="#FDC500"/>
<path d="M180.114 105.594C179.229 104.692 178.4 103.751 177.577 102.794C176.754 101.836 175.959 100.873 175.169 99.8984C174.38 98.924 173.612 97.9328 172.868 96.9136L171.748 95.3904C171.389 94.8696 171.02 94.36 170.684 93.828C171.126 94.276 171.54 94.7464 171.972 95.2056L173.215 96.6224C174.044 97.5688 174.833 98.5432 175.623 99.5176C176.412 100.492 177.185 101.489 177.924 102.508C178.664 103.527 179.425 104.541 180.114 105.594Z" fill="#8471FE"/>
<path d="M173.04 96.7288C172.798 96.3521 172.593 95.9526 172.429 95.536C172.264 95.12 172.12 94.6957 171.998 94.2648C172.16 94.4322 172.3 94.6205 172.412 94.8248C172.525 95.0196 172.624 95.2216 172.709 95.4296C172.883 95.844 172.994 96.2818 173.04 96.7288Z" fill="#8471FE"/>
<path d="M173.304 123.704C172.542 122.797 171.842 121.834 171.137 120.876C170.431 119.918 169.787 118.916 169.137 117.919C167.844 115.926 166.657 113.865 165.52 111.759C164.383 109.654 163.358 107.52 162.429 105.325C161.488 103.141 160.664 100.909 159.959 98.6384C160.452 99.7248 160.866 100.834 161.376 101.903C161.885 102.973 162.333 104.076 162.854 105.134L164.4 108.332C164.96 109.385 165.469 110.443 166.046 111.474C167.133 113.579 168.325 115.623 169.529 117.634C170.733 119.644 171.993 121.727 173.304 123.704Z" fill="#8471FE"/>
<path d="M161.477 102.581C161.102 102.296 160.76 101.969 160.458 101.606C160.151 101.249 159.888 100.856 159.674 100.436C160.049 100.72 160.389 101.047 160.687 101.41C160.999 101.766 161.264 102.159 161.477 102.581Z" fill="#8471FE"/>
<path opacity="0.1" d="M196.812 106.68C197.607 108.825 198.29 111.02 198.956 113.215C199.623 115.41 200.278 117.561 200.922 119.734C201.292 120.982 201.661 122.231 201.986 123.486C201.986 123.57 201.936 123.586 201.908 123.486C201.129 121.33 200.457 119.129 199.757 116.95C199.057 114.772 198.391 112.616 197.736 110.443C197.36 109.194 197.008 107.951 196.694 106.686C196.66 106.59 196.767 106.562 196.812 106.68Z" fill="#CA0000"/>
<path d="M213.854 188.86L216.939 189.431L217.628 192.685L218.317 189.431L221.402 188.86L218.328 188.11L217.628 185.041L216.922 188.11L213.854 188.86Z" fill="#C7C7C7"/>
<path d="M63.998 180.124L67.078 180.695L67.7724 183.943L68.4612 180.695L71.5412 180.118L68.4724 179.368L67.7724 176.299L67.0668 179.368L63.998 180.124Z" fill="#C7C7C7"/>
<path d="M182.342 136.539L185.427 137.11L186.116 140.364L186.805 137.11L189.891 136.539L186.822 135.789L186.116 132.72L185.416 135.789L182.342 136.539Z" fill="#C7C7C7"/>
<path d="M243.176 169.719L244.901 170.038L245.287 171.853L245.673 170.038L247.393 169.719L245.679 169.299L245.287 167.58L244.895 169.299L243.176 169.719Z" fill="#C7C7C7"/>
<path d="M112.336 238.879L114.061 239.198L114.442 241.013L114.828 239.198L116.553 238.879L114.834 238.459L114.442 236.74L114.05 238.459L112.336 238.879Z" fill="#C7C7C7"/>
<path d="M238.959 87.9032L240.684 88.2224L241.07 90.0424L241.451 88.2224L243.176 87.9032L241.462 87.4832L241.07 85.7696L240.673 87.4832L238.959 87.9032Z" fill="#C7C7C7"/>
<path d="M35.5723 126.997L37.2971 127.316L37.6835 129.136L38.0699 127.316L39.7947 126.997L38.0755 126.577L37.6835 124.863L37.2915 126.577L35.5723 126.997Z" fill="#C7C7C7"/>
<path d="M44.8223 219.509L46.5471 219.828L46.9335 221.642L47.3199 219.828L49.0391 219.509L47.3255 219.089L46.9335 217.37L46.5415 219.089L44.8223 219.509Z" fill="#C7C7C7"/>
<path d="M232.305 133.946L234.029 134.26L234.416 136.08L234.797 134.26L236.521 133.941L234.808 133.526L234.416 131.807L234.018 133.526L232.305 133.946Z" fill="#C7C7C7"/>
<path d="M96.8359 46.7376L98.5607 47.0568L98.9471 48.8712L99.3335 47.0568L101.058 46.732L99.3391 46.312L98.9471 44.5984L98.5551 46.312L96.8359 46.7376Z" fill="#C7C7C7"/>
<path d="M164.332 186.082L166.057 186.402L166.443 188.216L166.83 186.402L168.554 186.082L166.835 185.662L166.443 183.943L166.051 185.662L164.332 186.082Z" fill="#C7C7C7"/>
<path d="M108.254 242.81C108.386 242.81 108.513 242.863 108.607 242.956C108.7 243.05 108.753 243.177 108.753 243.309C108.753 243.441 108.7 243.568 108.607 243.661C108.513 243.755 108.386 243.807 108.254 243.807C108.122 243.807 107.995 243.755 107.902 243.661C107.808 243.568 107.756 243.441 107.756 243.309C107.756 243.177 107.808 243.05 107.902 242.956C107.995 242.863 108.122 242.81 108.254 242.81Z" fill="#C7C7C7"/>
<path d="M197.412 149.072C197.536 149.085 197.65 149.144 197.734 149.236C197.817 149.329 197.863 149.449 197.863 149.573C197.863 149.698 197.817 149.818 197.734 149.91C197.65 150.003 197.536 150.061 197.412 150.074C197.288 150.061 197.174 150.003 197.09 149.91C197.007 149.818 196.961 149.698 196.961 149.573C196.961 149.449 197.007 149.329 197.09 149.236C197.174 149.144 197.288 149.085 197.412 149.072Z" fill="#C7C7C7"/>
<path d="M80.6404 239.058C80.7642 239.072 80.8788 239.13 80.962 239.223C81.0453 239.315 81.0914 239.435 81.0914 239.56C81.0914 239.684 81.0453 239.804 80.962 239.897C80.8788 239.989 80.7642 240.048 80.6404 240.061C80.5166 240.048 80.4021 239.989 80.3188 239.897C80.2355 239.804 80.1895 239.684 80.1895 239.56C80.1895 239.435 80.2355 239.315 80.3188 239.223C80.4021 239.13 80.5166 239.072 80.6404 239.058Z" fill="#C7C7C7"/>
<path d="M221.201 155.618C221.325 155.631 221.439 155.69 221.523 155.782C221.606 155.875 221.652 155.995 221.652 156.12C221.652 156.244 221.606 156.364 221.523 156.457C221.439 156.549 221.325 156.608 221.201 156.621C221.077 156.608 220.963 156.549 220.879 156.457C220.796 156.364 220.75 156.244 220.75 156.12C220.75 155.995 220.796 155.875 220.879 155.782C220.963 155.69 221.077 155.631 221.201 155.618Z" fill="#C7C7C7"/>
<path d="M120.777 233.822C120.87 233.822 120.96 233.86 121.026 233.926C121.092 233.992 121.129 234.082 121.129 234.175C121.129 234.269 121.092 234.359 121.026 234.425C120.96 234.491 120.87 234.528 120.777 234.528C120.683 234.528 120.593 234.491 120.527 234.425C120.461 234.359 120.424 234.269 120.424 234.175C120.424 234.082 120.461 233.992 120.527 233.926C120.593 233.86 120.683 233.822 120.777 233.822Z" fill="#C7C7C7"/>
<path d="M50.1712 50.2376C50.2647 50.2376 50.3545 50.2748 50.4206 50.3409C50.4868 50.4071 50.524 50.4968 50.524 50.5904C50.524 50.684 50.4868 50.7737 50.4206 50.8399C50.3545 50.906 50.2647 50.9432 50.1712 50.9432C50.0776 50.9432 49.9879 50.906 49.9217 50.8399C49.8555 50.7737 49.8184 50.684 49.8184 50.5904C49.8184 50.4968 49.8555 50.4071 49.9217 50.3409C49.9879 50.2748 50.0776 50.2376 50.1712 50.2376Z" fill="#C7C7C7"/>
<path d="M186.531 163.878C186.624 163.878 186.714 163.916 186.78 163.982C186.846 164.048 186.883 164.138 186.883 164.231C186.883 164.325 186.846 164.415 186.78 164.481C186.714 164.547 186.624 164.584 186.531 164.584C186.437 164.584 186.347 164.547 186.281 164.481C186.215 164.415 186.178 164.325 186.178 164.231C186.178 164.138 186.215 164.048 186.281 163.982C186.347 163.916 186.437 163.878 186.531 163.878Z" fill="#C7C7C7"/>
<path d="M174.548 157.45C174.79 157.468 175.016 157.577 175.181 157.755C175.346 157.933 175.438 158.167 175.438 158.41C175.438 158.653 175.346 158.887 175.181 159.065C175.016 159.243 174.79 159.352 174.548 159.37C174.306 159.352 174.08 159.243 173.915 159.065C173.75 158.887 173.658 158.653 173.658 158.41C173.658 158.167 173.75 157.933 173.915 157.755C174.08 157.577 174.306 157.468 174.548 157.45Z" fill="#C7C7C7"/>
<path d="M104.385 82.4656L107.47 83.0368L108.159 86.2848L108.848 83.0368L111.934 82.46L108.859 81.7096L108.159 78.6408L107.454 81.7096L104.385 82.4656Z" fill="#C7C7C7"/>
<path d="M137.262 32.5248L138.987 32.844L139.373 34.664L139.759 32.844L141.484 32.5248L139.765 32.1048L139.373 30.3912L138.981 32.1048L137.262 32.5248Z" fill="#C7C7C7"/>
<path d="M32.7439 79.1784C32.8677 79.1915 32.9823 79.25 33.0655 79.3425C33.1488 79.435 33.1949 79.5551 33.1949 79.6796C33.1949 79.8041 33.1488 79.9242 33.0655 80.0167C32.9823 80.1093 32.8677 80.1677 32.7439 80.1808C32.6201 80.1677 32.5056 80.1093 32.4223 80.0167C32.339 79.9242 32.293 79.8041 32.293 79.6796C32.293 79.5551 32.339 79.435 32.4223 79.3425C32.5056 79.25 32.6201 79.1915 32.7439 79.1784Z" fill="#C7C7C7"/>
<path d="M40.5961 211.73C40.7282 211.73 40.855 211.783 40.9485 211.876C41.0419 211.97 41.0945 212.097 41.0945 212.229C41.0945 212.361 41.0419 212.488 40.9485 212.581C40.855 212.675 40.7282 212.727 40.5961 212.727C40.4639 212.727 40.3371 212.675 40.2436 212.581C40.1502 212.488 40.0977 212.361 40.0977 212.229C40.0977 212.097 40.1502 211.97 40.2436 211.876C40.3371 211.783 40.4639 211.73 40.5961 211.73Z" fill="#C7C7C7"/>
<path d="M52.6399 121.078C52.7728 121.078 52.9003 121.13 52.9943 121.224C53.0883 121.318 53.1411 121.446 53.1411 121.579C53.1411 121.712 53.0883 121.839 52.9943 121.933C52.9003 122.027 52.7728 122.08 52.6399 122.08C52.5069 122.08 52.3795 122.027 52.2855 121.933C52.1915 121.839 52.1387 121.712 52.1387 121.579C52.1387 121.446 52.1915 121.318 52.2855 121.224C52.3795 121.13 52.5069 121.078 52.6399 121.078Z" fill="#C7C7C7"/>
<path d="M72.4309 187.902C72.5245 187.902 72.6142 187.94 72.6804 188.006C72.7466 188.072 72.7837 188.162 72.7837 188.255C72.7837 188.349 72.7466 188.439 72.6804 188.505C72.6142 188.571 72.5245 188.608 72.4309 188.608C72.3374 188.608 72.2476 188.571 72.1815 188.505C72.1153 188.439 72.0781 188.349 72.0781 188.255C72.0781 188.162 72.1153 188.072 72.1815 188.006C72.2476 187.94 72.3374 187.902 72.4309 187.902Z" fill="#C7C7C7"/>
<path d="M147.011 233.223C147.105 233.223 147.194 233.26 147.26 233.327C147.327 233.393 147.364 233.482 147.364 233.576C147.364 233.67 147.327 233.759 147.26 233.825C147.194 233.892 147.105 233.929 147.011 233.929C146.917 233.929 146.828 233.892 146.762 233.825C146.695 233.759 146.658 233.67 146.658 233.576C146.658 233.482 146.695 233.393 146.762 233.327C146.828 233.26 146.917 233.223 147.011 233.223Z" fill="#C7C7C7"/>
<path d="M199.523 71.4672C199.616 71.4672 199.706 71.5044 199.772 71.5705C199.838 71.6367 199.876 71.7264 199.876 71.82C199.876 71.9136 199.838 72.0033 199.772 72.0695C199.706 72.1356 199.616 72.1728 199.523 72.1728C199.429 72.1728 199.339 72.1356 199.273 72.0695C199.207 72.0033 199.17 71.9136 199.17 71.82C199.17 71.7264 199.207 71.6367 199.273 71.5705C199.339 71.5044 199.429 71.4672 199.523 71.4672Z" fill="#C7C7C7"/>
<path d="M135.65 49.84C135.743 49.84 135.833 49.8772 135.899 49.9433C135.965 50.0095 136.002 50.0992 136.002 50.1928C136.002 50.2864 135.965 50.3761 135.899 50.4423C135.833 50.5084 135.743 50.5456 135.65 50.5456C135.556 50.5456 135.466 50.5084 135.4 50.4423C135.334 50.3761 135.297 50.2864 135.297 50.1928C135.297 50.0992 135.334 50.0095 135.4 49.9433C135.466 49.8772 135.556 49.84 135.65 49.84Z" fill="#C7C7C7"/>
<path d="M114.448 175.342C114.702 175.342 114.945 175.442 115.125 175.622C115.305 175.802 115.405 176.045 115.405 176.299C115.405 176.553 115.305 176.797 115.125 176.976C114.945 177.156 114.702 177.257 114.448 177.257C114.194 177.257 113.95 177.156 113.771 176.976C113.591 176.797 113.49 176.553 113.49 176.299C113.49 176.045 113.591 175.802 113.771 175.622C113.95 175.442 114.194 175.342 114.448 175.342Z" fill="#C7C7C7"/>
<path d="M240.643 102.95C240.897 102.95 241.141 103.051 241.32 103.231C241.5 103.41 241.601 103.654 241.601 103.908C241.601 104.162 241.5 104.406 241.32 104.585C241.141 104.765 240.897 104.866 240.643 104.866C240.389 104.866 240.146 104.765 239.966 104.585C239.786 104.406 239.686 104.162 239.686 103.908C239.686 103.654 239.786 103.41 239.966 103.231C240.146 103.051 240.389 102.95 240.643 102.95Z" fill="#C7C7C7"/>
<path d="M44.5767 186.945C44.8307 186.945 45.0743 187.046 45.2539 187.225C45.4335 187.405 45.5343 187.648 45.5343 187.902C45.5343 188.156 45.4335 188.4 45.2539 188.58C45.0743 188.759 44.8307 188.86 44.5767 188.86C44.3228 188.86 44.0792 188.759 43.8996 188.58C43.72 188.4 43.6191 188.156 43.6191 187.902C43.6191 187.648 43.72 187.405 43.8996 187.225C44.0792 187.046 44.3228 186.945 44.5767 186.945Z" fill="#C7C7C7"/>
<path d="M103.041 97.8992L104.766 98.2184L105.152 100.038L105.533 98.2184L107.258 97.8992L105.544 97.4792L105.152 95.7656L104.755 97.4792L103.041 97.8992Z" fill="#C7C7C7"/>
<path d="M161.689 237.02L163.414 237.339L163.801 239.159L164.181 237.339L165.906 237.02L164.193 236.6L163.801 234.886L163.409 236.6L161.689 237.02Z" fill="#C7C7C7"/>
<path d="M169.328 214.631C169.461 214.631 169.587 214.684 169.681 214.777C169.774 214.871 169.827 214.997 169.827 215.13C169.827 215.262 169.774 215.389 169.681 215.482C169.587 215.576 169.461 215.628 169.328 215.628C169.196 215.628 169.07 215.576 168.976 215.482C168.883 215.389 168.83 215.262 168.83 215.13C168.83 214.997 168.883 214.871 168.976 214.777C169.07 214.684 169.196 214.631 169.328 214.631Z" fill="#C7C7C7"/>
<path d="M188.805 201.337C188.937 201.337 189.064 201.389 189.157 201.483C189.251 201.576 189.303 201.703 189.303 201.835C189.303 201.967 189.251 202.094 189.157 202.188C189.064 202.281 188.937 202.334 188.805 202.334C188.673 202.334 188.546 202.281 188.453 202.188C188.359 202.094 188.307 201.967 188.307 201.835C188.307 201.703 188.359 201.576 188.453 201.483C188.546 201.389 188.673 201.337 188.805 201.337Z" fill="#C7C7C7"/>
<path d="M127.172 224.291L128.897 224.61L129.283 226.425L129.669 224.61L131.394 224.286L129.675 223.871L129.283 222.152L128.891 223.871L127.172 224.291Z" fill="#C7C7C7"/>
<path d="M198.146 63.3192C198.27 63.3323 198.385 63.3908 198.468 63.4833C198.551 63.5759 198.597 63.6959 198.597 63.8204C198.597 63.9449 198.551 64.065 198.468 64.1575C198.385 64.2501 198.27 64.3085 198.146 64.3216C198.022 64.3085 197.908 64.2501 197.825 64.1575C197.741 64.065 197.695 63.9449 197.695 63.8204C197.695 63.6959 197.741 63.5759 197.825 63.4833C197.908 63.3908 198.022 63.3323 198.146 63.3192Z" fill="#C7C7C7"/>
<path d="M210.169 202.91C210.256 202.921 210.335 202.963 210.393 203.029C210.451 203.094 210.483 203.179 210.483 203.266C210.483 203.353 210.451 203.438 210.393 203.503C210.335 203.569 210.256 203.611 210.169 203.622C210.083 203.611 210.003 203.569 209.945 203.503C209.887 203.438 209.855 203.353 209.855 203.266C209.855 203.179 209.887 203.094 209.945 203.029C210.003 202.963 210.083 202.921 210.169 202.91Z" fill="#C7C7C7"/>
<path d="M59.7246 142.8L61.4494 143.119L61.8358 144.939L62.2166 143.119L63.9414 142.8L62.2278 142.38L61.8358 140.666L61.4438 142.38L59.7246 142.8Z" fill="#C7C7C7"/>
<path d="M39.7953 170.307C39.9275 170.307 40.0542 170.36 40.1477 170.453C40.2412 170.547 40.2937 170.673 40.2937 170.806C40.2937 170.938 40.2412 171.065 40.1477 171.158C40.0542 171.251 39.9275 171.304 39.7953 171.304C39.6631 171.304 39.5363 171.251 39.4429 171.158C39.3494 171.065 39.2969 170.938 39.2969 170.806C39.2969 170.673 39.3494 170.547 39.4429 170.453C39.5363 170.36 39.6631 170.307 39.7953 170.307Z" fill="#C7C7C7"/>
<path d="M108.741 133.498C108.873 133.498 109 133.551 109.093 133.644C109.186 133.738 109.239 133.865 109.239 133.997C109.239 134.129 109.186 134.256 109.093 134.349C109 134.443 108.873 134.495 108.741 134.495C108.608 134.495 108.482 134.443 108.388 134.349C108.295 134.256 108.242 134.129 108.242 133.997C108.242 133.865 108.295 133.738 108.388 133.644C108.482 133.551 108.608 133.498 108.741 133.498Z" fill="#C7C7C7"/>
<path d="M50.1712 83.0032C50.2647 83.0032 50.3545 83.0404 50.4206 83.1065C50.4868 83.1727 50.524 83.2624 50.524 83.356C50.524 83.4496 50.4868 83.5393 50.4206 83.6055C50.3545 83.6716 50.2647 83.7088 50.1712 83.7088C50.0776 83.7088 49.9879 83.6716 49.9217 83.6055C49.8555 83.5393 49.8184 83.4496 49.8184 83.356C49.8184 83.2624 49.8555 83.1727 49.9217 83.1065C49.9879 83.0404 50.0776 83.0032 50.1712 83.0032Z" fill="#C7C7C7"/>
<path d="M45.6457 79.7496C45.8877 79.7681 46.1139 79.8773 46.2788 80.0554C46.4438 80.2334 46.5355 80.4673 46.5355 80.71C46.5355 80.9528 46.4438 81.1866 46.2788 81.3646C46.1139 81.5427 45.8877 81.6519 45.6457 81.6704C45.4036 81.6519 45.1775 81.5427 45.0125 81.3646C44.8475 81.1866 44.7559 80.9528 44.7559 80.71C44.7559 80.4673 44.8475 80.2334 45.0125 80.0554C45.1775 79.8773 45.4036 79.7681 45.6457 79.7496Z" fill="#C7C7C7"/>
<path d="M208.825 124.32C209.079 124.32 209.322 124.421 209.502 124.6C209.682 124.78 209.782 125.024 209.782 125.278C209.782 125.532 209.682 125.775 209.502 125.955C209.322 126.134 209.079 126.235 208.825 126.235C208.571 126.235 208.327 126.134 208.148 125.955C207.968 125.775 207.867 125.532 207.867 125.278C207.867 125.024 207.968 124.78 208.148 124.6C208.327 124.421 208.571 124.32 208.825 124.32Z" fill="#C7C7C7"/>
</svg>