<svg width="280" height="281" viewBox="0 0 280 281" fill="none" xmlns="http://www.w3.org/2000/svg">
<path d="M252.378 115.641C260.073 115.259 266.001 108.712 265.62 101.017C265.238 93.3223 258.691 87.3939 250.996 87.7756C243.301 88.1574 237.373 94.7046 237.755 102.399C238.136 110.094 244.684 116.022 252.378 115.641Z" fill="#4E34FE"/>
<path fill-rule="evenodd" clip-rule="evenodd" d="M249.793 107.242C249.424 107.013 249.105 106.682 248.606 106.721C248.421 106.721 248.461 106.581 248.461 106.481C248.461 104.614 248.461 102.757 248.461 100.909C248.461 100.769 248.461 100.662 248.617 100.584C250.034 99.8726 250.65 98.4614 251.518 97.2574C251.964 96.6595 252.285 95.9781 252.462 95.2536C252.639 94.5292 252.668 93.7766 252.549 93.0406C252.493 92.6262 252.689 92.4358 253.064 92.3518C253.253 92.2864 253.458 92.2838 253.649 92.3444C253.839 92.4049 254.005 92.5253 254.122 92.6878C254.529 93.4456 254.804 94.2676 254.934 95.1182C254.929 95.822 254.843 96.523 254.677 97.207C254.609 97.7166 254.492 98.2206 254.397 98.7414C254.52 98.831 254.665 98.7806 254.8 98.7862H259.504C260.17 98.7862 260.489 98.9766 260.585 99.4134C260.635 99.6837 260.595 99.9629 260.472 100.209C260.348 100.454 260.148 100.653 259.901 100.774C259.784 100.836 259.571 100.774 259.554 100.965C259.537 101.155 259.761 101.133 259.868 101.211C260.428 101.597 260.333 102.404 259.672 102.891C259.515 103.003 259.207 102.953 259.201 103.182C259.196 103.412 259.487 103.367 259.616 103.496C259.717 103.626 259.786 103.779 259.818 103.941C259.849 104.103 259.843 104.27 259.799 104.43C259.755 104.589 259.675 104.736 259.564 104.858C259.453 104.981 259.316 105.076 259.162 105.137C259.066 105.165 258.973 105.201 258.882 105.243C258.804 105.293 258.731 105.355 258.882 105.461C259.043 105.535 259.179 105.653 259.275 105.802C259.37 105.951 259.421 106.124 259.421 106.301C259.421 106.478 259.37 106.651 259.275 106.8C259.179 106.949 259.043 107.068 258.882 107.141L258.681 107.293C258.431 107.44 258.14 107.503 257.852 107.472H250.443C250.325 107.48 250.206 107.463 250.095 107.424C249.983 107.384 249.88 107.322 249.793 107.242Z" fill="white"/>
<path fill-rule="evenodd" clip-rule="evenodd" d="M242.793 103.966C242.793 102.784 242.793 101.603 242.793 100.421C242.793 100.186 242.793 100.068 243.113 100.068C244.554 100.068 245.993 100.068 247.43 100.068C247.716 100.068 247.755 100.164 247.755 100.416C247.755 102.79 247.755 105.164 247.755 107.544C247.755 107.847 247.677 107.931 247.374 107.925C245.974 107.925 244.578 107.925 243.185 107.925C242.838 107.925 242.788 107.808 242.793 107.5C242.805 106.34 242.793 105.148 242.793 103.966Z" fill="white"/>
<path d="M91.4987 76.0213H27.5635V35.0293H91.4987V76.0213ZM28.1235 75.4613H90.9387V35.5893H28.1235V75.4613Z" fill="#4E34FE"/>
<path d="M91.4987 40.9653H27.5635V35.0293H91.4987V40.9653ZM28.1235 40.4053H90.9387V35.5893H28.1235V40.4053Z" fill="#4E34FE"/>
<path d="M32.8833 38.0193C32.8833 38.2875 32.8036 38.5498 32.6545 38.7728C32.5053 38.9957 32.2933 39.1694 32.0454 39.2718C31.7974 39.3742 31.5246 39.4008 31.2616 39.348C30.9986 39.2953 30.7571 39.1656 30.5678 38.9755C30.3785 38.7855 30.2499 38.5435 30.1982 38.2802C30.1466 38.017 30.1742 37.7443 30.2776 37.4968C30.3811 37.2492 30.5556 37.038 30.7792 36.8897C31.0028 36.7415 31.2654 36.663 31.5337 36.6641C31.7114 36.6641 31.8873 36.6992 32.0514 36.7673C32.2155 36.8355 32.3646 36.9354 32.49 37.0613C32.6153 37.1873 32.7146 37.3367 32.7821 37.5011C32.8496 37.6655 32.884 37.8416 32.8833 38.0193Z" fill="#C7C7C7"/>
<path d="M38.3994 38.0193C38.3983 38.2859 38.3182 38.5463 38.1692 38.7675C38.0203 38.9887 37.8091 39.1608 37.5624 39.2621C37.3157 39.3634 37.0445 39.3894 36.7831 39.3366C36.5216 39.2839 36.2817 39.155 36.0935 38.966C35.9053 38.777 35.7773 38.5365 35.7257 38.2749C35.6741 38.0133 35.7012 37.7422 35.8035 37.4959C35.9058 37.2496 36.0788 37.0392 36.3006 36.8911C36.5224 36.7431 36.7831 36.6641 37.0498 36.6641C37.2275 36.6641 37.4034 36.6992 37.5675 36.7673C37.7317 36.8355 37.8807 36.9354 38.0061 37.0613C38.1315 37.1872 38.2308 37.3367 38.2983 37.5011C38.3658 37.6655 38.4001 37.8416 38.3994 38.0193Z" fill="#4E34FE"/>
<path d="M42.5713 39.3867C43.3166 39.3867 43.9209 38.7825 43.9209 38.0371C43.9209 37.2917 43.3166 36.6875 42.5713 36.6875C41.8259 36.6875 41.2217 37.2917 41.2217 38.0371C41.2217 38.7825 41.8259 39.3867 42.5713 39.3867Z" fill="#FFC727"/>
<path d="M22.5456 126.219C21.8912 123.539 22.0462 120.725 22.9911 118.133C23.936 115.541 25.6282 113.287 27.8539 111.657C30.0796 110.027 32.7388 109.093 35.4951 108.974C38.2515 108.855 40.9812 109.556 43.3392 110.988C45.6972 112.42 47.5775 114.52 48.7423 117.021C49.9072 119.522 50.3043 122.312 49.8834 125.039C49.4625 127.765 48.2426 130.306 46.3778 132.339C44.5131 134.372 42.0873 135.807 39.4072 136.462C37.6275 136.897 35.7794 136.978 33.9686 136.699C32.1577 136.419 30.4197 135.786 28.8537 134.835C27.2878 133.884 25.9247 132.633 24.8423 131.155C23.7599 129.677 22.9794 127.999 22.5456 126.219Z" fill="#4E34FE"/>
<path d="M43.2151 124.652C41.1095 128.902 36.0919 131.422 36.0919 131.422C36.0919 131.422 31.0519 128.902 28.9743 124.652C27.2215 121.107 28.3303 117.276 31.1023 116.436C35.0727 115.238 36.0919 122.154 36.0919 122.154C36.0919 122.154 37.1111 115.238 41.0871 116.436C43.8591 117.276 44.9679 121.107 43.2151 124.652Z" fill="white"/>
<path d="M217.331 44.3984C215.124 45.7557 212.585 46.4744 209.995 46.4744C207.404 46.4744 204.865 45.7557 202.659 44.3984C200.077 42.8025 198.087 40.4083 196.989 37.5789C195.892 34.7496 195.747 31.6395 196.576 28.7203C197.406 25.8012 199.165 23.2321 201.586 21.4029C204.008 19.5737 206.96 18.584 209.995 18.584C213.029 18.584 215.981 19.5737 218.403 21.4029C220.824 23.2321 222.583 25.8012 223.413 28.7203C224.242 31.6395 224.097 34.7496 223 37.5789C221.902 40.4083 219.912 42.8025 217.331 44.3984Z" fill="#4E34FE"/>
<path d="M209.995 35.181C212.339 35.181 214.24 33.2805 214.24 30.9362C214.24 28.5919 212.339 26.6914 209.995 26.6914C207.65 26.6914 205.75 28.5919 205.75 30.9362C205.75 33.2805 207.65 35.181 209.995 35.181Z" fill="white"/>
<path d="M217.33 42.6465V44.3993C215.124 45.7567 212.584 46.4753 209.994 46.4753C207.404 46.4753 204.864 45.7567 202.658 44.3993V42.6465C202.658 40.7009 203.431 38.835 204.807 37.4592C206.183 36.0834 208.049 35.3105 209.994 35.3105C211.94 35.3105 213.806 36.0834 215.182 37.4592C216.557 38.835 217.33 40.7009 217.33 42.6465Z" fill="white"/>
<path d="M34.7148 221.04L60.7548 220.905L86.8004 220.855L138.88 220.76L190.96 220.855L217.006 220.905L243.046 221.04L217.006 221.174L190.96 221.225L138.88 221.32L86.8004 221.225L60.7548 221.174L34.7148 221.04Z" fill="#263238"/>
<path d="M81.0038 253.3C116.206 253.3 144.743 249.191 144.743 244.122C144.743 239.053 116.206 234.943 81.0038 234.943C45.8017 234.943 17.2646 239.053 17.2646 244.122C17.2646 249.191 45.8017 253.3 81.0038 253.3Z" fill="#EEEBFE"/>
<path d="M202.597 253.3C237.799 253.3 266.336 249.191 266.336 244.122C266.336 239.053 237.799 234.943 202.597 234.943C167.394 234.943 138.857 239.053 138.857 244.122C138.857 249.191 167.394 253.3 202.597 253.3Z" fill="#EEEBFE"/>
<path d="M233.991 52.5176H46.0996V192.344H233.991V52.5176Z" fill="#37474F"/>
<path d="M224.505 61.6113H55.5918V162.019H224.505V61.6113Z" fill="white"/>
<path d="M233.991 171.719H46.0996V192.344H233.991V171.719Z" fill="#C7C7C7"/>
<path d="M180.119 217.549H99.9775V224.246H180.119V217.549Z" fill="#37474F"/>
<path d="M170.571 217.555H109.52L111.071 205.93L111.144 205.381L111.289 204.294L111.362 203.746L111.508 202.654L111.53 202.486L111.58 202.105L111.732 201.013L111.799 200.47L112.885 192.35H167.205L168.224 200.005L168.28 200.374L168.448 201.646L168.493 202.015L168.56 202.486L168.667 203.286L168.712 203.65L168.88 204.927L168.936 205.291L170.571 217.555Z" fill="#C7C7C7"/>
<path d="M224.505 61.6113H55.5918V67.0433H224.505V61.6113Z" fill="#263238"/>
<path d="M59.9209 64.3398C59.9209 64.607 59.8416 64.8682 59.693 65.0902C59.5445 65.3123 59.3334 65.4853 59.0864 65.5872C58.8395 65.6892 58.5679 65.7156 58.3059 65.6631C58.044 65.6106 57.8035 65.4815 57.615 65.2922C57.4265 65.1029 57.2984 64.8619 57.2469 64.5997C57.1955 64.3375 57.223 64.066 57.326 63.8195C57.429 63.573 57.6029 63.3626 57.8256 63.215C58.0482 63.0673 58.3097 62.9891 58.5769 62.9902C58.7538 62.9902 58.9291 63.0252 59.0925 63.0931C59.2559 63.161 59.4043 63.2605 59.5292 63.3859C59.6541 63.5113 59.753 63.6601 59.8202 63.8238C59.8874 63.9875 59.9216 64.1629 59.9209 64.3398Z" fill="#C7C7C7"/>
<path d="M65.4023 64.3398C65.4023 64.607 65.323 64.8682 65.1745 65.0902C65.0259 65.3123 64.8148 65.4853 64.5679 65.5872C64.321 65.6892 64.0493 65.7156 63.7874 65.6631C63.5254 65.6106 63.285 65.4815 63.0964 65.2922C62.9079 65.1029 62.7798 64.8619 62.7284 64.5997C62.6769 64.3375 62.7045 64.066 62.8075 63.8195C62.9105 63.573 63.0843 63.3626 63.307 63.215C63.5297 63.0673 63.7912 62.9891 64.0583 62.9902C64.2353 62.9902 64.4105 63.0252 64.5739 63.0931C64.7374 63.161 64.8858 63.2605 65.0107 63.3859C65.1355 63.5113 65.2344 63.6601 65.3016 63.8238C65.3688 63.9875 65.4031 64.1629 65.4023 64.3398Z" fill="white"/>
<path d="M70.9072 64.3398C70.9072 64.6068 70.8281 64.8677 70.6798 65.0896C70.5315 65.3116 70.3207 65.4846 70.0741 65.5867C69.8275 65.6889 69.5561 65.7156 69.2943 65.6635C69.0325 65.6114 68.792 65.4829 68.6033 65.2941C68.4146 65.1054 68.286 64.8649 68.2339 64.6031C68.1819 64.3413 68.2086 64.07 68.3107 63.8234C68.4129 63.5768 68.5859 63.366 68.8078 63.2177C69.0298 63.0694 69.2907 62.9902 69.5576 62.9902C69.9155 62.9902 70.2588 63.1324 70.5119 63.3855C70.765 63.6386 70.9072 63.9819 70.9072 64.3398Z" fill="#FFC727"/>
<path d="M143.389 180.645C143.388 181.319 143.187 181.977 142.811 182.537C142.435 183.096 141.902 183.532 141.279 183.788C140.656 184.044 139.971 184.11 139.31 183.977C138.649 183.843 138.043 183.517 137.568 183.039C137.093 182.561 136.771 181.952 136.642 181.291C136.513 180.63 136.583 179.945 136.844 179.323C137.104 178.702 137.543 178.172 138.105 177.8C138.667 177.428 139.327 177.231 140.001 177.234C140.902 177.239 141.764 177.6 142.399 178.24C143.034 178.879 143.39 179.744 143.389 180.645Z" fill="#37474F"/>
<path d="M168.561 202.486H111.53L111.581 202.105L111.732 201.013L111.799 200.47L112.885 192.35H167.205L168.225 200.005L168.281 200.374L168.449 201.646L168.493 202.015L168.561 202.486Z" fill="#A6A6A6"/>
<path d="M224.505 67.0391H55.5918V89.5455H224.505V67.0391Z" fill="#FFC727"/>
<path d="M214.726 153.183H146.474V105.219H214.726V153.183ZM147.034 152.623H214.166V105.779H147.034V152.623Z" fill="#4E34FE"/>
<path d="M146.336 104.795L146.017 105.254L213.781 152.358L214.1 151.899L146.336 104.795Z" fill="#4E34FE"/>
<path d="M146.917 153.133L146.592 152.674C147.241 152.22 211.619 107.28 214.279 105.275L214.615 105.723C211.949 107.734 147.566 152.679 146.917 153.133Z" fill="#4E34FE"/>
<path d="M172.094 67.0391H107.996V86.6951H172.094V67.0391Z" fill="#263238"/>
<path d="M134.367 95.7324H89.8975V96.6396H134.367V95.7324Z" fill="#4E34FE"/>
<path d="M124.265 98.0176H89.8975V98.9248H124.265V98.0176Z" fill="#4E34FE"/>
<path d="M131.701 100.303H89.8975V101.21H131.701V100.303Z" fill="#4E34FE"/>
<path d="M135.358 102.588H89.8975V103.495H135.358V102.588Z" fill="#4E34FE"/>
<path d="M113.468 104.871H89.8975V105.778H113.468V104.871Z" fill="#4E34FE"/>
<path d="M134.507 107.162H89.8975V108.069H134.507V107.162Z" fill="#4E34FE"/>
<path d="M127.031 109.447H89.8975V110.354H127.031V109.447Z" fill="#4E34FE"/>
<path d="M136.573 111.732H89.8975V112.64H136.573V111.732Z" fill="#4E34FE"/>
<path d="M134.507 114.018H89.8975V114.925H134.507V114.018Z" fill="#4E34FE"/>
<path d="M136.573 116.301H89.8975V117.208H136.573V116.301Z" fill="#4E34FE"/>
<path d="M72.2011 73.1934H65.6436V74.1006H72.2011V73.1934Z" fill="white"/>
<path d="M72.2011 75.4785H65.6436V76.3857H72.2011V75.4785Z" fill="white"/>
<path d="M72.2011 77.7617H65.6436V78.6689H72.2011V77.7617Z" fill="white"/>
<path d="M214.447 95.7324H146.754V100.756H214.447V95.7324Z" fill="#FFC727"/>
<path d="M87.1196 95.7266H65.6436V117.208H87.1196V95.7266Z" fill="#A6A6A6"/>
<path d="M76.3847 106.469C78.528 106.469 80.2655 104.731 80.2655 102.588C80.2655 100.445 78.528 98.707 76.3847 98.707C74.2414 98.707 72.5039 100.445 72.5039 102.588C72.5039 104.731 74.2414 106.469 76.3847 106.469Z" fill="white"/>
<path d="M83.0933 113.3V117.22H69.6533V113.3C69.6533 111.518 70.3613 109.809 71.6216 108.548C72.8818 107.288 74.5911 106.58 76.3733 106.58C78.1556 106.58 79.8648 107.288 81.1251 108.548C82.3853 109.809 83.0933 111.518 83.0933 113.3Z" fill="white"/>
<path d="M98.4988 120.328H65.6436V153.183H98.4988V120.328Z" fill="#4E34FE"/>
<path d="M65.6436 143.328H98.4932V120.323H65.6436V143.328Z" fill="#4E34FE"/>
<path d="M69.4854 126.862C69.4854 127.401 69.645 127.927 69.944 128.374C70.2431 128.822 70.6681 129.171 71.1654 129.377C71.6628 129.583 72.21 129.637 72.7379 129.532C73.2659 129.427 73.7508 129.167 74.1314 128.787C74.512 128.406 74.7712 127.921 74.8763 127.393C74.9813 126.865 74.9274 126.318 74.7214 125.821C74.5154 125.323 74.1666 124.898 73.719 124.599C73.2714 124.3 72.7452 124.141 72.207 124.141C71.8493 124.14 71.4951 124.21 71.1646 124.346C70.834 124.483 70.5337 124.683 70.2808 124.936C70.028 125.189 69.8275 125.489 69.691 125.82C69.5545 126.15 69.4846 126.505 69.4854 126.862Z" fill="#DBDBDB"/>
<path d="M80.2314 138.327H98.4986L89.365 125.945L80.2314 138.327Z" fill="#C7C7C7"/>
<path d="M73.0693 138.383H88.1501L80.6125 130.324L73.0693 138.383Z" fill="#DBDBDB"/>
<path d="M98.4932 138.371H65.6436V143.327H98.4932V138.371Z" fill="#DBDBDB"/>
<path d="M96.1689 145.611H67.9785V146.519H96.1689V145.611Z" fill="white"/>
<path d="M87.5113 147.896H67.9785V148.804H87.5113V147.896Z" fill="white"/>
<path d="M91.7337 150.182H67.9785V151.089H91.7337V150.182Z" fill="white"/>
<path d="M136.573 120.328H103.718V153.183H136.573V120.328Z" fill="#4E34FE"/>
<path d="M103.718 143.328H136.567V120.323H103.718V143.328Z" fill="#DBDBDB"/>
<path d="M120.143 138.382C123.595 138.382 126.393 135.584 126.393 132.132C126.393 128.681 123.595 125.883 120.143 125.883C116.692 125.883 113.894 128.681 113.894 132.132C113.894 135.584 116.692 138.382 120.143 138.382Z" fill="#4E34FE"/>
<path d="M117.152 128.738V135.525L124.337 132.132L117.152 128.738Z" fill="white"/>
<path d="M134.243 145.611H106.053V146.519H134.243V145.611Z" fill="white"/>
<path d="M125.586 147.896H106.053V148.804H125.586V147.896Z" fill="white"/>
<path d="M129.808 150.182H106.053V151.089H129.808V150.182Z" fill="white"/>
<path d="M214.475 73.1934H180.769V78.6702H214.475V73.1934Z" fill="white"/>
<path d="M214.475 73.1934H208.998V78.6702H214.475V73.1934Z" fill="#263238"/>
<path d="M211.916 75.405L211.411 75.7871L212.963 77.8359L213.468 77.4537L211.916 75.405Z" fill="white"/>
<path d="M212.475 74.5534C212.64 74.7701 212.737 75.0306 212.754 75.3021C212.77 75.5737 212.706 75.8441 212.57 76.0793C212.433 76.3146 212.23 76.504 211.985 76.6239C211.741 76.7437 211.467 76.7885 211.197 76.7526C210.927 76.7168 210.674 76.6019 210.47 76.4224C210.265 76.2429 210.119 76.0069 210.048 75.7441C209.978 75.4813 209.986 75.2036 210.074 74.9458C210.161 74.6881 210.322 74.4619 210.538 74.2958C210.829 74.0733 211.197 73.9755 211.56 74.0238C211.923 74.0721 212.252 74.2626 212.475 74.5534Z" fill="white"/>
<path d="M212.039 74.8901C212.139 75.0199 212.199 75.1766 212.21 75.3403C212.222 75.5041 212.184 75.6674 212.102 75.8098C212.021 75.9521 211.898 76.067 211.751 76.1398C211.604 76.2127 211.439 76.2402 211.276 76.219C211.114 76.1978 210.961 76.1287 210.837 76.0206C210.714 75.9125 210.625 75.7701 210.583 75.6116C210.54 75.4531 210.546 75.2855 210.599 75.1301C210.652 74.9748 210.75 74.8386 210.88 74.7389C211.054 74.6058 211.273 74.547 211.491 74.5753C211.708 74.6037 211.905 74.7168 212.039 74.8901Z" fill="#263238"/>
<path d="M121.984 244.872C120.92 245.224 90.6242 245.135 89.4482 244.407C89.0114 244.132 88.765 239.708 88.625 234.366C88.5914 233.212 88.569 232.025 88.5466 230.81C88.5466 229.376 88.5074 227.926 88.4962 226.515C88.4626 220.181 88.5466 214.604 88.5466 214.604H108.287V226.515V230.81L108.186 234.366C108.186 234.366 119.778 239.596 120.954 240.526C122.13 241.456 123.043 244.524 121.984 244.872Z" fill="#F7A9A0"/>
<path d="M121.984 244.872C120.92 245.225 90.6241 245.136 89.4481 244.408C89.0113 244.133 88.7649 239.709 88.6249 234.367C88.5913 233.213 88.5689 232.026 88.5465 230.811C88.5465 229.377 88.5073 227.927 88.4961 226.516H108.275V230.811L108.174 234.367C108.174 234.367 119.766 239.597 120.942 240.527C122.118 241.456 123.042 244.525 121.984 244.872Z" fill="white"/>
<path d="M122.079 244.917C121.39 245.147 108.477 245.192 99.0744 244.996C96.896 244.951 94.908 244.889 93.3008 244.822C91.0888 244.721 89.6048 244.598 89.3808 244.447C88.8488 244.105 88.5912 237.621 88.4736 230.777H108.303L108.202 234.35C108.202 234.35 119.839 239.62 121.026 240.555C122.214 241.49 123.138 244.565 122.079 244.917Z" fill="#FFC727"/>
<path d="M121.643 243.696C116.53 243.556 95.8829 243.472 90.8429 243.724C90.8037 243.724 90.8037 243.752 90.8429 243.758C95.8829 244.004 116.53 243.92 121.643 243.758C121.749 243.78 121.749 243.702 121.643 243.696Z" fill="#263238"/>
<path d="M108.909 233.219C106.898 232.838 104.429 233.141 102.894 234.569C102.838 234.625 102.894 234.709 102.984 234.686C104.906 234.068 106.888 233.656 108.898 233.46C108.923 233.452 108.944 233.436 108.96 233.415C108.976 233.395 108.985 233.37 108.987 233.343C108.988 233.317 108.981 233.291 108.967 233.269C108.953 233.247 108.933 233.229 108.909 233.219Z" fill="#263238"/>
<path d="M110.359 234.098C108.348 233.717 105.879 234.02 104.344 235.448C104.283 235.504 104.344 235.588 104.428 235.565C106.353 234.953 108.337 234.547 110.348 234.356C110.364 234.356 110.381 234.354 110.397 234.348C110.413 234.342 110.428 234.333 110.44 234.322C110.453 234.31 110.463 234.297 110.47 234.281C110.477 234.266 110.481 234.249 110.482 234.232C110.483 234.215 110.48 234.199 110.474 234.183C110.468 234.167 110.46 234.152 110.448 234.14C110.437 234.127 110.423 234.117 110.408 234.11C110.392 234.103 110.376 234.099 110.359 234.098Z" fill="#263238"/>
<path d="M111.803 234.977C109.793 234.596 107.323 234.898 105.795 236.326C105.733 236.382 105.795 236.466 105.879 236.444C107.803 235.832 109.787 235.426 111.798 235.234C111.832 235.235 111.865 235.222 111.89 235.199C111.914 235.175 111.929 235.143 111.929 235.108C111.93 235.074 111.917 235.041 111.894 235.017C111.87 234.992 111.837 234.978 111.803 234.977Z" fill="#263238"/>
<path d="M113.254 235.856C111.244 235.475 108.774 235.777 107.246 237.205C107.184 237.261 107.246 237.345 107.33 237.323C109.253 236.711 111.235 236.304 113.243 236.108C113.273 236.103 113.299 236.088 113.319 236.066C113.339 236.044 113.35 236.016 113.351 235.986C113.353 235.957 113.344 235.928 113.326 235.904C113.309 235.88 113.283 235.863 113.254 235.856Z" fill="#263238"/>
<path d="M112.633 228.581C111.849 227.461 110.393 227.976 109.536 228.676C108.112 229.908 107.038 231.494 106.423 233.274C106.42 233.282 106.419 233.291 106.421 233.299C106.422 233.308 106.425 233.316 106.43 233.323C106.435 233.33 106.441 233.335 106.449 233.34C106.456 233.344 106.464 233.346 106.473 233.347C106.472 233.386 106.48 233.424 106.496 233.46C106.512 233.495 106.537 233.526 106.567 233.551C106.597 233.575 106.633 233.592 106.671 233.601C106.709 233.609 106.749 233.608 106.787 233.599C108.467 232.988 110.298 232.54 111.726 231.443C112.56 230.799 113.378 229.611 112.633 228.581ZM109.116 232.159C108.304 232.479 107.487 232.759 106.686 233.106C107.266 232.194 107.892 231.312 108.562 230.463C108.893 230.066 109.25 229.692 109.631 229.343C110.231 228.783 112.605 227.663 112.241 229.852C112.045 231.039 110.079 231.779 109.116 232.159Z" fill="#263238"/>
<path d="M101.315 232.736C102.995 233.448 104.876 233.414 106.635 233.593C106.674 233.593 106.713 233.584 106.748 233.566C106.783 233.548 106.813 233.523 106.837 233.491C106.86 233.46 106.876 233.423 106.883 233.384C106.889 233.346 106.887 233.306 106.876 233.268C106.884 233.266 106.891 233.261 106.897 233.255C106.903 233.249 106.907 233.241 106.91 233.233C106.913 233.225 106.914 233.217 106.913 233.208C106.911 233.2 106.908 233.191 106.904 233.184C105.864 231.617 104.431 230.35 102.748 229.511C101.757 229.04 100.206 228.951 99.7188 230.188C99.2316 231.426 100.346 232.339 101.315 232.736ZM100.408 231.297C99.5116 229.253 102.088 229.774 102.81 230.149C103.278 230.401 103.729 230.683 104.16 230.995C105.044 231.628 105.84 232.378 106.635 233.089C105.778 232.949 104.91 232.888 104.048 232.781C102.989 232.652 100.906 232.428 100.408 231.297Z" fill="#263238"/>
<path d="M81.9668 130.498C81.9668 130.498 87.298 183.256 87.4268 183.922C87.4268 184.012 87.4828 185.042 87.5332 186.683C87.8188 195.766 88.53 224.085 88.53 224.085H110.32C110.32 224.085 108.903 190.541 108.08 182.718C107.038 172.739 100.492 130.498 100.492 130.498H81.9668Z" fill="#455A64"/>
<path d="M90.0195 185.785C89.3475 174.35 88.3376 162.945 86.9899 151.569C86.2283 145.157 85.3099 138.773 84.3971 132.384C84.3971 132.328 84.2963 132.328 84.3075 132.384C85.9875 143.757 87.1859 155.221 88.2275 166.667C89.2691 178.113 89.9747 189.56 90.4395 201.034C90.7083 207.536 90.9043 214.037 91.1171 220.539C91.1231 220.566 91.1383 220.591 91.1602 220.609C91.1821 220.626 91.2094 220.636 91.2375 220.636C91.2656 220.636 91.2929 220.626 91.3148 220.609C91.3367 220.591 91.3519 220.566 91.3579 220.539C91.0331 208.947 90.7195 197.355 90.0195 185.785Z" fill="#263238"/>
<path d="M108.919 220.579C108.331 220.523 107.74 220.499 107.15 220.506C106.5 220.506 105.845 220.478 105.19 220.45C103.932 220.405 102.672 220.373 101.41 220.355C98.8673 220.31 96.3193 220.327 93.7825 220.405L91.6881 220.478C90.9433 220.506 90.1929 220.573 89.4481 220.573C89.3921 220.573 89.3977 220.64 89.4481 220.64C90.7249 220.64 92.0185 220.747 93.3009 220.797C94.5833 220.847 95.8209 220.864 97.0809 220.881C99.6177 220.915 102.171 220.881 104.708 220.803C105.403 220.803 106.103 220.763 106.803 220.741L107.923 220.696C108.253 220.702 108.584 220.69 108.914 220.663C108.92 220.665 108.928 220.667 108.935 220.666C108.942 220.666 108.949 220.664 108.955 220.66C108.961 220.656 108.966 220.651 108.97 220.645C108.974 220.639 108.976 220.632 108.977 220.625C108.977 220.617 108.976 220.61 108.973 220.604C108.97 220.597 108.966 220.591 108.96 220.587C108.954 220.582 108.948 220.579 108.941 220.578C108.934 220.576 108.926 220.577 108.919 220.579Z" fill="#263238"/>
<path d="M81.9668 130.498C81.9668 130.498 87.298 183.256 87.4268 183.922C87.4268 184.012 87.4828 185.042 87.5332 186.683L97.7924 130.498H81.9668Z" fill="#263238"/>
<path d="M45.2649 230.659C44.3017 230.099 24.5449 207.077 24.3657 205.722C24.2873 205.207 27.4737 202.138 31.4273 198.543C32.2785 197.759 33.1073 196.919 34.0705 196.157C35.2465 195.199 36.4393 194.247 37.5985 193.357C42.6385 189.437 47.0009 186.346 47.0009 186.346L59.5281 200.866L50.6129 208.119L46.9561 211.098L44.1953 213.338C44.1953 213.338 47.8129 225.529 47.8689 227.035C47.9249 228.542 46.2225 231.219 45.2649 230.659Z" fill="#F7A9A0"/>
<path d="M45.2649 230.659C44.3017 230.099 24.5449 207.077 24.3657 205.722C24.2873 205.207 27.4737 202.138 31.4273 198.543C32.2785 197.759 33.1073 196.919 34.0705 196.157C35.2465 195.2 36.4393 194.248 37.5985 193.357C41.4793 197.837 47.1185 204.171 50.6129 208.119L46.9561 211.098L44.1953 213.338C44.1953 213.338 47.8129 225.529 47.8689 227.036C47.9249 228.542 46.2225 231.219 45.2649 230.659Z" fill="white"/>
<path d="M45.2925 230.766C44.3293 230.206 24.4773 207.05 24.2757 205.689C24.1861 205.056 28.9293 200.649 34.0365 196.068L46.9893 211.06L44.1893 213.3C44.1893 213.3 47.8237 225.558 47.8853 227.076C47.9469 228.593 46.2557 231.343 45.2925 230.766Z" fill="#FFC727"/>
<path d="M45.9195 229.64C42.6883 225.675 29.2763 210.007 25.7595 206.339C25.7091 206.339 25.7315 206.311 25.7595 206.339C28.8731 210.331 42.4139 225.894 45.8579 229.668C45.9195 229.775 45.9979 229.719 45.9195 229.64Z" fill="#263238"/>
<path d="M45.5448 213.154C44.5256 211.379 42.6888 209.716 40.6 209.48C40.516 209.48 40.5048 209.587 40.5664 209.626C42.2912 210.675 43.8983 211.907 45.36 213.3C45.3821 213.311 45.407 213.316 45.4318 213.314C45.4565 213.312 45.4801 213.302 45.4997 213.287C45.5192 213.271 45.5339 213.251 45.5419 213.227C45.5499 213.204 45.5509 213.178 45.5448 213.154Z" fill="#263238"/>
<path d="M45.8305 214.822C44.8057 213.053 42.9689 211.384 40.8801 211.154C40.8017 211.154 40.7905 211.261 40.8465 211.294C42.5678 212.348 44.1711 213.583 45.6289 214.979C45.6512 215.001 45.6806 215.014 45.7118 215.016C45.743 215.018 45.7738 215.008 45.7985 214.989C45.8232 214.97 45.84 214.942 45.8459 214.912C45.8518 214.881 45.8463 214.849 45.8305 214.822Z" fill="#263238"/>
<path d="M46.1098 216.496C45.085 214.721 43.2482 213.057 41.1594 212.822C41.081 212.822 41.0698 212.929 41.1258 212.968C42.8524 214.021 44.4597 215.258 45.9194 216.658C45.9428 216.675 45.9712 216.684 46 216.683C46.0288 216.681 46.0564 216.671 46.0784 216.652C46.1003 216.633 46.1154 216.608 46.1211 216.579C46.1268 216.551 46.1228 216.522 46.1098 216.496Z" fill="#263238"/>
<path d="M46.3901 218.166C45.3653 216.396 43.5285 214.728 41.4397 214.498C41.3613 214.498 41.3501 214.604 41.4061 214.638C43.1298 215.697 44.735 216.938 46.1941 218.34C46.2055 218.353 46.2193 218.363 46.2348 218.371C46.2502 218.378 46.267 218.382 46.2842 218.384C46.3013 218.385 46.3185 218.382 46.3348 218.377C46.351 218.371 46.366 218.362 46.3789 218.351C46.3918 218.339 46.4023 218.326 46.4098 218.31C46.4173 218.295 46.4217 218.278 46.4228 218.261C46.4238 218.244 46.4215 218.226 46.4158 218.21C46.4102 218.194 46.4015 218.179 46.3901 218.166Z" fill="#263238"/>
<path d="M51.5195 212.94C51.8275 211.636 50.5003 210.835 49.4195 210.656C47.5557 210.386 45.6538 210.61 43.9035 211.305C43.8976 211.31 43.8928 211.317 43.8895 211.324C43.8863 211.331 43.8846 211.339 43.8846 211.347C43.8846 211.355 43.8863 211.363 43.8895 211.37C43.8928 211.377 43.8976 211.384 43.9035 211.389C43.8722 211.413 43.8468 211.443 43.8293 211.478C43.8118 211.513 43.8027 211.552 43.8027 211.591C43.8027 211.63 43.8118 211.669 43.8293 211.704C43.8468 211.739 43.8722 211.769 43.9035 211.792C45.4547 212.655 47.0003 213.764 48.7699 214.122C49.7667 214.335 51.2003 214.178 51.5195 212.94ZM46.4795 212.616C45.7067 212.212 44.9619 211.77 44.1779 211.395C45.2531 211.272 46.3171 211.104 47.4035 211.087C47.927 211.071 48.4509 211.091 48.9715 211.148C49.7723 211.249 52.1971 212.268 50.2875 213.456C49.2459 214.1 47.4035 213.097 46.4795 212.616Z" fill="#263238"/>
<path d="M40.9523 207.083C41.5123 208.802 42.7611 210.224 43.7803 211.675C43.8059 211.705 43.8381 211.728 43.8743 211.743C43.9105 211.758 43.9498 211.765 43.9889 211.762C44.0281 211.759 44.0661 211.747 44.0999 211.727C44.1337 211.707 44.1623 211.68 44.1835 211.647C44.1946 211.649 44.2062 211.648 44.2164 211.643C44.2265 211.637 44.2347 211.629 44.2395 211.619C44.7488 209.807 44.7719 207.893 44.3067 206.069C44.0155 205.011 43.0803 203.773 41.8147 204.221C40.5491 204.669 40.6331 206.08 40.9523 207.083ZM41.4395 205.459C42.3971 203.437 43.6795 205.739 43.8755 206.528C43.9838 207.04 44.0586 207.558 44.0995 208.08C44.1667 209.159 44.1779 210.241 44.1331 211.322C43.6739 210.577 43.1587 209.883 42.6771 209.155C42.1115 208.298 40.9187 206.579 41.4395 205.459Z" fill="#263238"/>
<path d="M100.464 130.497C100.464 130.497 99.1253 138.477 93.9957 142.593C93.9957 142.593 81.9613 179.088 79.2621 182.997C74.7821 189.471 52.5053 206.623 52.5053 206.623L38.1133 189.935C38.1133 189.935 59.7181 174.586 61.4093 172.251C62.5293 170.699 70.9629 147.23 70.8117 146.418C69.0645 136.741 73.4325 130.475 73.4325 130.475L100.464 130.497Z" fill="#455A64"/>
<path d="M75.135 131.92C74.1821 133.846 73.5017 135.895 73.1134 138.008C72.9291 139.075 72.8336 140.156 72.8278 141.239C72.8278 142.404 72.951 143.563 72.9902 144.722C73.0393 145.909 72.9186 147.097 72.6318 148.25C72.3574 149.37 72.0102 150.49 71.6798 151.576C70.9966 153.816 70.2724 156.056 69.507 158.296C67.9838 162.743 66.3038 167.128 64.467 171.451C64.0871 172.465 63.5442 173.411 62.8598 174.251C62.0627 175.052 61.1886 175.772 60.2502 176.401L54.4374 180.758L42.7446 189.533V189.561C42.6158 189.656 42.7446 189.875 42.879 189.78C46.799 186.851 49.2686 184.986 53.1886 182.057L59.119 177.628C60.0542 176.928 61.0062 176.244 61.919 175.522C62.7253 174.913 63.4044 174.152 63.9182 173.282C64.4292 172.324 64.88 171.334 65.2678 170.32C65.727 169.2 66.1806 168.119 66.6174 167.016C67.4798 164.854 68.3012 162.678 69.0814 160.486C69.8617 158.295 70.6084 156.055 71.3214 153.766C71.6742 152.646 72.0214 151.492 72.3574 150.356C72.7078 149.269 72.9847 148.159 73.1862 147.035C73.5334 144.733 73.0238 142.409 73.1358 140.096C73.2314 137.858 73.6852 135.65 74.4798 133.556C74.6911 133.012 74.9304 132.479 75.1966 131.96C75.2358 131.909 75.1574 131.864 75.135 131.92Z" fill="#263238"/>
<path d="M82.639 132.195C82.2602 133.738 81.387 135.115 80.1526 136.115C78.7836 137.189 77.1316 137.841 75.3982 137.991C75.107 138.03 75.1014 138.473 75.3982 138.462C78.943 138.322 82.4206 135.891 82.7734 132.19C82.7902 132.1 82.6558 132.1 82.639 132.195Z" fill="#263238"/>
<path d="M97.2826 140.023C96.0209 140.6 94.8234 141.307 93.7098 142.134C92.5282 142.946 91.4418 143.876 90.305 144.744C90.2972 144.751 90.2924 144.761 90.2913 144.772C90.2902 144.782 90.2929 144.793 90.299 144.802C90.3051 144.811 90.3141 144.817 90.3244 144.82C90.3348 144.822 90.3458 144.821 90.3554 144.817C91.5538 144.055 92.8082 143.383 93.9954 142.577C95.1859 141.852 96.3103 141.024 97.3554 140.101C97.3586 140.091 97.3591 140.08 97.3567 140.069C97.3543 140.059 97.3491 140.049 97.3417 140.041C97.3343 140.033 97.325 140.027 97.3146 140.024C97.3042 140.021 97.2932 140.021 97.2826 140.023Z" fill="#263238"/>
<path d="M97.4393 132.615C97.2881 133.432 97.0865 134.244 96.9129 135.062C96.7393 135.88 96.6217 136.608 96.4201 137.364C96.254 138.096 95.8831 138.766 95.3505 139.296C95.0481 139.576 94.7177 139.822 94.3985 140.074C94.2249 140.214 94.0401 140.348 93.8385 140.488C93.8385 140.376 93.8777 140.27 93.9001 140.158C93.9505 139.844 94.0065 139.531 94.0569 139.223C94.1745 138.528 94.2865 137.84 94.3873 137.145C94.6001 135.784 94.7905 134.407 95.0761 133.057C95.0761 133.007 95.0033 132.984 94.9865 133.057C94.6505 134.39 94.2753 135.712 93.9785 137.061C93.8329 137.722 93.3177 140.981 93.2953 141.216C93.2729 141.452 93.2505 141.692 93.2449 141.933C93.2113 142.175 93.2113 142.42 93.2449 142.661C93.2449 142.723 93.3289 142.712 93.3513 142.661C93.4489 142.435 93.5185 142.198 93.5585 141.956C93.6201 141.72 93.6705 141.485 93.7153 141.25C93.7153 141.166 93.7153 141.076 93.7545 140.987C94.0737 140.796 94.3705 140.533 94.6729 140.32C94.9753 140.108 95.3281 139.856 95.6305 139.598C96.199 139.121 96.6091 138.482 96.8065 137.767C97.0032 136.998 97.1306 136.212 97.1873 135.42C97.2937 134.496 97.3665 133.561 97.4953 132.62C97.488 132.613 97.4785 132.609 97.4683 132.608C97.4581 132.607 97.4479 132.609 97.4393 132.615Z" fill="#263238"/>
<path d="M54.5329 203.393C54.2137 202.912 53.7937 202.464 53.4129 202.01C53.0321 201.557 52.5729 201.008 52.1641 200.498C51.3745 199.513 50.5737 198.544 49.7617 197.575C48.1601 195.632 46.4801 193.7 44.7385 191.852C44.2625 191.337 43.7865 190.827 43.3049 190.317C42.8233 189.808 42.2577 189.253 41.7705 188.688C41.7369 188.649 41.6865 188.688 41.7201 188.738C42.5657 189.696 43.3273 190.754 44.1281 191.745C44.9289 192.737 45.7297 193.694 46.5473 194.657C48.1825 196.601 49.8737 198.51 51.5873 200.364C52.0689 200.873 52.5337 201.394 53.0097 201.909C53.2617 202.184 53.5193 202.469 53.7769 202.721C54.0345 202.973 54.2025 203.231 54.4545 203.455C54.4626 203.465 54.4746 203.472 54.4877 203.474C54.5009 203.475 54.5141 203.472 54.5245 203.463C54.5349 203.455 54.5416 203.443 54.5432 203.43C54.5447 203.417 54.541 203.404 54.5329 203.393Z" fill="#263238"/>
<path d="M93.8837 118.452C92.4864 119.092 91.021 119.571 89.5157 119.88C92.4221 116.912 94.0405 108.988 93.5141 110.046C90.9997 115.086 86.1949 120.126 84.8453 120.126C81.5692 119.704 78.5199 118.226 76.1597 115.915C79.7773 112.639 81.6309 104.637 81.3285 105.079C78.1029 109.8 73.3317 111.85 72.6373 111.67C70.6661 108.568 69.9045 105.768 70.3301 105.606C73.4549 104.446 76.8933 100.314 80.1693 95.8559C83.4061 91.4655 85.5733 87.0695 89.5101 83.4071C93.1053 80.0471 98.5205 80.5791 100.979 83.3511C107.413 90.6031 95.8605 117.539 93.8837 118.452Z" fill="#263238"/>
<path d="M94.2926 81.9238C92.0134 81.9238 89.7566 83.4414 88.183 84.987C86.0886 87.0478 84.4254 89.551 82.555 91.8078C78.9201 96.2788 74.6105 100.156 69.7814 103.299C69.7591 103.312 69.7427 103.333 69.7359 103.357C69.7291 103.382 69.7323 103.408 69.745 103.431C69.7576 103.453 69.7786 103.469 69.8032 103.476C69.8279 103.483 69.8543 103.48 69.8766 103.467C74.827 101.345 78.803 97.531 82.2918 93.4654C84.0726 91.3822 85.6518 89.131 87.3318 87.0086C88.2499 85.8243 89.3258 84.771 90.5294 83.8782C91.6754 83.1105 92.9651 82.5828 94.3206 82.327C94.3656 82.3135 94.4047 82.2851 94.4314 82.2464C94.4581 82.2077 94.4709 82.1611 94.4676 82.1142C94.4644 82.0674 94.4453 82.023 94.4135 81.9884C94.3816 81.9538 94.339 81.931 94.2926 81.9238Z" fill="#263238"/>
<path d="M94.2591 105.717C95.7823 108.87 106.355 118.961 115.052 122.091C118.244 123.239 132.009 119.935 135.268 118.558C139.082 116.939 136.545 107.425 134.109 107.436C131.062 107.436 118.009 110.578 115.22 110.51C111.826 110.426 103.953 105.241 97.2607 102.637C93.8111 101.298 93.0831 103.281 94.2591 105.717Z" fill="#F7A9A0"/>
<path d="M135.268 118.558C136.494 118.11 141.937 115.556 143.292 114.509C144.648 113.462 148.332 110.164 147.638 109.044C146.944 107.924 145.784 108.803 145.784 108.803C145.784 108.803 147.117 107.162 146.311 106.098C145.504 105.034 143.757 106.462 143.757 106.462C143.757 106.462 145 104.681 144.127 103.662C143.253 102.643 141.724 104.384 141.724 104.384C141.724 104.384 142.94 102.811 141.87 102.29C140.582 101.657 138.667 104.821 137.082 105.868C136.724 106.104 129.449 110.158 129.449 110.158L135.268 118.558Z" fill="#F7A9A0"/>
<path d="M141.859 104.257C140.442 106.581 139.423 107.354 137.026 108.541C136.981 108.541 137.026 108.642 137.054 108.619C139.507 107.667 140.929 106.889 141.971 104.324C142.027 104.195 141.926 104.15 141.859 104.257Z" fill="#263238"/>
<path d="M143.864 106.277C142.184 108.562 141.064 109.407 138.667 110.835C138.634 110.835 138.667 110.919 138.701 110.902C141.187 109.693 142.587 108.881 143.965 106.378C144.026 106.266 143.92 106.17 143.864 106.277Z" fill="#263238"/>
<path d="M145.656 108.871C143.87 110.965 142.705 111.945 140.179 113.032C140.173 113.034 140.167 113.037 140.162 113.042C140.157 113.046 140.153 113.051 140.15 113.057C140.148 113.063 140.146 113.07 140.146 113.077C140.145 113.083 140.146 113.09 140.148 113.096C140.151 113.102 140.154 113.108 140.158 113.113C140.163 113.118 140.168 113.122 140.174 113.125C140.18 113.128 140.187 113.129 140.193 113.13C140.2 113.13 140.207 113.129 140.213 113.127C142.528 112.507 144.506 111 145.718 108.932C145.807 108.787 145.768 108.742 145.656 108.871Z" fill="#263238"/>
<path d="M127.293 109.766C128.322 108.482 129.445 107.277 130.653 106.159C131.851 105.202 137.625 103.281 138.112 104.479C138.739 106.059 135.626 107.839 133.985 108.489C133.985 108.489 135.441 112.14 133.475 113.893C131.51 115.646 127.293 109.766 127.293 109.766Z" fill="#F7A9A0"/>
<path d="M138.124 104.996C137.653 106.85 135.447 107.583 133.907 108.356C133.884 108.366 133.863 108.382 133.848 108.401C133.832 108.421 133.821 108.444 133.816 108.469C133.811 108.494 133.812 108.519 133.819 108.543C133.826 108.568 133.839 108.59 133.856 108.608C134.36 110.182 134.618 112.528 133.565 113.934C133.532 113.973 133.565 114.023 133.621 113.99C134.96 112.651 134.892 110.31 134.226 108.625C135.822 107.863 138 107.029 138.146 105.007C138.14 104.99 138.124 104.985 138.124 104.996Z" fill="#263238"/>
<path d="M121.374 109.609C121.374 109.609 123.39 109.004 123.575 109.564C123.76 110.124 122.729 110.93 122.729 110.93C122.729 110.93 124.135 110.93 124.314 111.821C124.493 112.711 123.02 113.277 123.02 113.277C123.02 113.277 124.544 113.714 124.594 114.346C124.661 115.198 123.362 115.646 123.362 115.646C123.362 115.646 124.84 115.763 124.896 116.598C124.952 117.432 123.608 117.841 123.608 117.841C123.608 117.841 125.165 118.037 125.316 118.664C125.49 119.409 123.961 120.075 123.961 120.075C123.961 120.075 125.434 120.316 125.524 120.96C125.613 121.604 124.157 122.136 123.396 122.142L121.374 109.609Z" fill="white"/>
<path d="M123.653 122.249C123.653 122.249 116.177 122.674 115.124 122.299C113.978 121.887 112.856 121.41 111.764 120.871C103.482 116.834 96.9184 109.755 94.9136 107.162C92.8024 104.424 92.7968 101.126 96.3528 102.156C96.616 102.234 96.9128 102.335 97.1984 102.458C101.589 104.278 113.679 110.231 114.934 110.326C116.188 110.422 121.76 109.324 121.76 109.324L123.653 122.249Z" fill="#FFC727"/>
<path d="M111.753 120.899C103.471 116.861 96.9077 109.783 94.9029 107.19C92.7917 104.451 92.7861 101.153 96.3421 102.183L111.753 120.899Z" fill="#263238"/>
<path d="M101.533 123.302L101.679 136.137C100.116 136.224 98.5491 136.224 96.9861 136.137C92.8587 135.943 88.7456 135.517 84.6661 134.86C80.6285 134.228 75.8741 133.309 70.4141 131.976C70.4141 131.976 80.1357 109.252 87.7741 102.476C87.9495 102.319 88.1231 102.173 88.2949 102.039L88.3957 101.955C91.8957 99.2053 95.4405 100.712 97.6133 103.164C98.1733 103.775 103.773 113.72 103.924 117.232C104.031 120.34 101.533 123.302 101.533 123.302Z" fill="#FFC727"/>
<path d="M96.986 136.147C92.8587 135.953 88.7455 135.527 84.666 134.87C85.226 128.884 87.1412 108.55 87.7572 102.486C87.9327 102.329 88.1063 102.183 88.278 102.049L96.986 136.147Z" fill="#263238"/>
<path d="M86.3346 107.258C87.3874 114.588 90.0474 129.411 94.1746 133.018C99.5954 137.761 112.139 138.618 115.858 138.887C117.476 139.004 118.882 128.291 117.678 127.048C116.474 125.805 103.599 125.379 102.479 124.78C101.359 124.181 95.7594 113.093 92.9986 107.42C89.5042 100.325 85.9202 104.368 86.3346 107.258Z" fill="#F7A9A0"/>
<path d="M127.534 128.906C129.561 128.946 132.266 127.322 132.68 128.772C133.05 130.066 131.068 131.012 131.068 131.012C131.068 131.012 133.644 130.67 133.649 132.177C133.655 133.683 131.264 134.266 131.264 134.266C131.264 134.266 133.649 134.081 133.548 135.582C133.448 137.082 131.252 137.76 131.252 137.76C131.252 137.76 131.936 138.068 131.387 139.093C130.597 140.56 127.052 141.182 125.12 141.07C123.188 140.958 116.216 139.104 115.152 138.83L115.785 126.442C115.785 126.442 119.308 125.065 121.184 124.583C123.06 124.102 129.668 124.23 129.746 125.871C129.824 127.512 125.154 127.344 124.006 127.551C122.858 127.758 122.707 128.061 123.295 128.374C124.69 128.673 126.108 128.851 127.534 128.906Z" fill="#F7A9A0"/>
<path d="M130.955 131.007C128.099 132.127 126.655 132.127 123.675 131.567C123.619 131.567 123.586 131.64 123.675 131.657C126.526 132.48 128.335 132.743 131.028 131.159C131.146 131.063 131.09 130.979 130.955 131.007Z" fill="#263238"/>
<path d="M131.376 134.188C128.307 135.09 126.745 135.101 123.597 134.748C123.553 134.748 123.541 134.815 123.597 134.826C126.655 135.442 128.464 135.672 131.409 134.367C131.533 134.289 131.516 134.143 131.376 134.188Z" fill="#263238"/>
<path d="M131.213 137.738C128.184 138.399 126.464 138.483 123.457 137.738C123.442 137.734 123.426 137.735 123.413 137.743C123.399 137.75 123.389 137.762 123.384 137.777C123.38 137.792 123.381 137.808 123.389 137.822C123.396 137.835 123.409 137.846 123.423 137.85C125.924 138.871 128.724 138.871 131.224 137.85C131.404 137.766 131.404 137.699 131.213 137.738Z" fill="#263238"/>
<path d="M107.71 124.646C107.71 124.646 110.001 124.702 110.006 125.346C110.012 125.99 108.668 126.466 108.668 126.466C108.668 126.466 110.113 126.965 110.006 127.928C109.9 128.891 108.175 128.998 108.175 128.998C108.175 128.998 109.609 129.966 109.446 130.644C109.234 131.546 107.733 131.574 107.733 131.574C107.733 131.574 109.228 132.195 108.998 133.08C108.769 133.965 107.246 133.931 107.246 133.931C107.246 133.931 108.791 134.659 108.735 135.359C108.668 136.188 106.859 136.367 106.859 136.367C106.859 136.367 108.298 137.112 108.175 137.812C108.052 138.512 106.361 138.568 105.571 138.316L107.71 124.646Z" fill="white"/>
<path d="M108.667 124.545L106.142 138.545C106.142 138.545 95.5688 135.84 93.3232 132.486C90.5232 128.297 86.8776 115.126 86.0824 108.109C85.2872 101.092 90.2376 100.896 93.1216 106.636C95.9216 112.208 101.869 123.274 102.334 123.75C102.938 124.388 108.667 124.545 108.667 124.545Z" fill="#FFC727"/>
<path d="M101.601 122.327C101.315 121.767 100.75 120.585 100.481 120.087C99.9207 119.057 99.3327 118.026 98.7447 117.001C98.1567 115.977 97.5799 114.946 96.9751 113.933C96.8687 113.765 96.7735 113.585 96.6671 113.412C96.6671 113.289 96.2191 111.866 96.1519 111.508C96.1519 111.452 96.0511 111.469 96.0679 111.508C96.1585 111.859 96.224 112.217 96.2639 112.577C96.2639 112.645 96.2639 112.712 96.3087 112.779C95.9223 112.113 95.5359 111.441 95.1439 110.797C95.1159 110.746 95.0375 110.797 95.0655 110.836C95.8439 112.236 96.2695 113.132 96.8575 114.274C97.4455 115.417 98.0391 116.475 98.6383 117.567C99.2375 118.659 99.8647 119.745 100.481 120.826C100.839 121.475 101.229 122.105 101.651 122.713C101.92 123.094 101.92 122.881 101.601 122.327Z" fill="#263238"/>
<path d="M91.3801 101.53C91.5033 102.011 93.8665 105.125 96.0841 104.99C96.8065 104.94 96.7281 100.986 96.7281 100.986L96.7897 100.695L97.6409 96.5903L92.7857 93.5832L92.0857 93.1855C92.0857 93.1855 91.9289 94.3056 91.7441 95.7448C91.7441 95.812 91.7441 95.8792 91.7441 95.9464C91.7278 96.0221 91.7166 96.0988 91.7105 96.176C91.6769 96.3888 91.6489 96.6072 91.6209 96.8199C91.5929 97.0327 91.5817 97.1447 91.5705 97.3183C91.5593 97.4919 91.5369 97.6599 91.5145 97.8335C91.3837 99.0609 91.3388 100.296 91.3801 101.53Z" fill="#F7A9A0"/>
<path d="M91.7441 95.7448C92.1743 96.8864 92.848 97.9206 93.7184 98.7755C94.5888 99.6305 95.635 100.286 96.7841 100.695L97.6353 96.5903L92.7801 93.5832L92.0801 93.1855C92.0801 93.1855 91.9289 94.328 91.7441 95.7448Z" fill="#263238"/>
<path d="M91.3807 92.473C91.3807 92.473 89.7007 90.233 88.6983 90.793C87.6959 91.353 88.9447 94.713 90.1767 95.1162C90.3307 95.1823 90.4965 95.2165 90.6641 95.2169C90.8317 95.2173 90.9976 95.1838 91.1519 95.1184C91.3063 95.053 91.4458 94.9571 91.5621 94.8364C91.6784 94.7158 91.769 94.5728 91.8287 94.4162L91.3807 92.473Z" fill="#F7A9A0"/>
<path d="M89.0896 91.7402C89.0896 91.7402 89.0616 91.7402 89.0896 91.7738C89.4894 91.9602 89.8455 92.2285 90.1349 92.5613C90.4244 92.8941 90.6406 93.2841 90.7696 93.7058C90.7172 93.622 90.6476 93.5504 90.5653 93.4956C90.483 93.4409 90.39 93.4044 90.2924 93.3885C90.1949 93.3726 90.0951 93.3776 89.9997 93.4034C89.9043 93.4292 89.8155 93.475 89.7392 93.5378C89.7392 93.5378 89.7392 93.5938 89.7392 93.5882C89.8883 93.5367 90.0498 93.5327 90.2012 93.5768C90.3527 93.6209 90.4867 93.711 90.5848 93.8346C90.7469 94.0441 90.8876 94.2692 91.0048 94.5066C91.044 94.585 91.184 94.5402 91.1504 94.4506C91.1448 93.3418 90.2656 91.8242 89.0896 91.7402Z" fill="#263238"/>
<path d="M103.107 89.9656C103.891 97.2792 99.5961 98.5784 98.0169 98.7408C96.5889 98.8976 91.6945 99.228 90.1769 92.0208C88.6593 84.8136 91.7953 82.148 95.0489 81.6272C98.3025 81.1064 102.323 82.652 103.107 89.9656Z" fill="#F7A9A0"/>
<path d="M101.64 88.9783C101.47 88.9589 101.302 88.9309 101.136 88.8943C100.956 88.8883 100.782 88.8234 100.643 88.7095C100.608 88.6636 100.589 88.6076 100.589 88.5499C100.589 88.4922 100.608 88.4361 100.643 88.3903C100.722 88.3063 100.823 88.2454 100.935 88.2138C101.046 88.1823 101.164 88.1813 101.276 88.2111C101.511 88.2386 101.729 88.3523 101.886 88.5303C101.921 88.5727 101.943 88.6248 101.949 88.6798C101.954 88.7348 101.942 88.7901 101.916 88.8385C101.889 88.8869 101.849 88.9261 101.799 88.9511C101.75 88.976 101.694 88.9855 101.64 88.9783Z" fill="#263238"/>
<path d="M96.555 89.3425C96.7286 89.3145 96.8798 89.2585 97.0478 89.2193C97.2283 89.1987 97.3973 89.1201 97.5294 88.9953C97.5643 88.9495 97.5833 88.8934 97.5833 88.8357C97.5833 88.778 97.5643 88.722 97.5294 88.6761C97.4432 88.5994 97.338 88.547 97.2248 88.5243C97.1117 88.5017 96.9945 88.5096 96.8854 88.5473C96.6623 88.597 96.4639 88.7239 96.3254 88.9057C96.297 88.9477 96.2806 88.9965 96.2778 89.0471C96.275 89.0976 96.2859 89.148 96.3095 89.1928C96.3331 89.2376 96.3683 89.2752 96.4116 89.3016C96.4548 89.3279 96.5043 89.3421 96.555 89.3425Z" fill="#263238"/>
<path d="M97.6025 91.1582C97.6025 91.1582 97.5633 91.1862 97.5689 91.2086C97.6137 91.707 97.5689 92.2838 97.1377 92.4798V92.5078C97.6921 92.3958 97.7257 91.623 97.6025 91.1582Z" fill="#263238"/>
<path d="M97.126 90.6582C96.3196 90.6582 96.3532 92.2598 97.098 92.271C97.8428 92.2822 97.8036 90.6582 97.126 90.6582Z" fill="#263238"/>
<path d="M96.8065 90.7548C96.6721 90.85 96.5377 91.018 96.3641 91.0348C96.1905 91.0516 96.0169 90.8948 95.8825 90.7324H95.8545C95.8545 91.0404 95.9833 91.354 96.3193 91.3932C96.6553 91.4324 96.8345 91.1524 96.8793 90.8332C96.9185 90.8052 96.8793 90.7212 96.8065 90.7548Z" fill="#263238"/>
<path d="M100.732 90.8672C100.732 90.8672 100.777 90.8672 100.772 90.912C100.772 91.4104 100.839 91.9872 101.292 92.144C100.738 92.1048 100.648 91.3376 100.732 90.8672Z" fill="#263238"/>
<path d="M101.175 90.3341C101.981 90.2669 102.065 91.8797 101.32 91.9469C100.575 92.0141 100.503 90.3957 101.175 90.3341Z" fill="#263238"/>
<path d="M101.516 90.424C101.65 90.5024 101.785 90.6536 101.936 90.6536C102.087 90.6536 102.233 90.4744 102.339 90.3008C102.339 90.3008 102.339 90.3008 102.367 90.3008C102.367 90.6088 102.306 90.9392 102.009 91.012C101.712 91.0848 101.533 90.8272 101.449 90.5192C101.426 90.48 101.466 90.3904 101.516 90.424Z" fill="#263238"/>
<path d="M97.9328 94.9932C98.0504 95.1164 98.1624 95.2788 98.3472 95.3012C98.5396 95.3034 98.7304 95.2653 98.9072 95.1892C98.833 95.2862 98.734 95.3614 98.6206 95.4067C98.5073 95.452 98.3838 95.4659 98.2632 95.4468C98.1637 95.4144 98.0752 95.3547 98.0079 95.2745C97.9406 95.1943 97.8971 95.0969 97.8824 94.9932C97.8768 94.9876 97.916 94.9764 97.9328 94.9932Z" fill="#263238"/>
<path d="M99.965 93.117C99.965 93.117 100.094 93.8618 100.105 94.237C100.105 94.2706 100.021 94.2874 99.8978 94.2986C99.5934 94.371 99.2748 94.3569 98.978 94.2579C98.6812 94.159 98.4179 93.9791 98.2178 93.7386C98.2178 93.705 98.2178 93.6658 98.2738 93.6882C98.7317 93.9803 99.2721 94.1159 99.8138 94.0746C99.8138 93.9794 99.5562 92.809 99.6122 92.8034C99.8869 92.8185 100.158 92.8713 100.419 92.9602C100.195 91.3978 99.7242 89.8914 99.5282 88.3346C99.5316 88.3247 99.538 88.3162 99.5466 88.3101C99.5551 88.304 99.5653 88.3008 99.5758 88.3008C99.5862 88.3008 99.5964 88.304 99.605 88.3101C99.6135 88.3162 99.6199 88.3247 99.6234 88.3346C100.173 89.9367 100.564 91.5893 100.788 93.2682C100.839 93.4138 100.105 93.173 99.965 93.117Z" fill="#263238"/>
<path d="M90.6074 92.5075C91.817 92.5075 91.901 89.9595 91.901 89.9595C91.901 89.9595 94.3426 89.7803 94.8802 86.2019C94.8915 87.2608 94.5938 88.3 94.0234 89.1923C94.0234 89.1923 98.2962 88.4027 99.8362 84.6563C99.8362 84.6563 99.2762 86.5491 98.621 87.2547C99.6898 86.836 100.586 86.0683 101.163 85.0763C101.163 85.0763 102.076 87.0979 102.703 87.6299C102.703 87.6299 101.942 80.0979 95.0146 81.4419C95.0146 81.4419 90.6634 82.0691 89.3586 85.6531C88.0538 89.2371 90.6074 92.5075 90.6074 92.5075Z" fill="#263238"/>
<path d="M91.84 100.494C90.944 100.578 89.4544 100.902 87.584 102.661C87.584 102.661 92.1704 105.634 96.1184 105.237C97.5296 105.097 97.7984 102.722 97.7984 102.722C97.028 101.939 96.0954 101.333 95.066 100.948C94.0367 100.563 92.9356 100.408 91.84 100.494Z" fill="#F7A9A0"/>
<path d="M182.442 244.995C183.506 245.354 213.965 245.46 215.129 244.732C215.572 244.458 215.846 240.023 216.025 234.652C216.065 233.493 216.098 232.295 216.121 231.079L218.59 214.839L198.24 214.705L196.319 230.945L196.397 234.523C196.397 234.523 184.716 239.698 183.517 240.633C182.319 241.568 181.378 244.659 182.442 244.995Z" fill="#DD6A57"/>
<path d="M182.443 244.996C183.507 245.354 213.965 245.461 215.13 244.733C215.69 244.397 215.959 237.918 216.121 231.08L196.308 230.951L196.387 234.53C196.387 234.53 184.705 239.704 183.507 240.639C182.308 241.574 181.379 244.66 182.443 244.996Z" fill="white"/>
<path d="M182.443 244.996C183.507 245.354 213.965 245.46 215.13 244.732C215.572 244.458 215.847 240.023 216.026 234.652L196.387 234.529C196.387 234.529 184.705 239.704 183.507 240.639C182.308 241.574 181.379 244.66 182.443 244.996Z" fill="#FFC727"/>
<path d="M182.885 243.776C187.986 243.67 208.594 243.72 213.651 244C213.69 244 213.69 244.034 213.651 244.034C208.611 244.252 187.986 244.034 182.885 243.86C182.773 243.86 182.773 243.782 182.885 243.776Z" fill="#263238"/>
<path d="M185.478 239.554C186.046 239.541 186.61 239.646 187.135 239.862C187.661 240.078 188.135 240.4 188.53 240.808C189.24 241.542 189.642 242.52 189.65 243.541C189.65 243.569 189.594 243.569 189.589 243.541C189.418 242.53 188.924 241.601 188.181 240.895C187.437 240.188 186.485 239.741 185.467 239.621C185.458 239.619 185.45 239.615 185.445 239.607C185.44 239.6 185.437 239.591 185.439 239.582C185.44 239.573 185.445 239.565 185.453 239.56C185.46 239.554 185.469 239.552 185.478 239.554Z" fill="#263238"/>
<path d="M194.404 235.029C196.448 235.029 198.817 235.741 200.077 237.415C200.127 237.477 200.032 237.549 199.976 237.516C198.194 236.573 196.317 235.822 194.376 235.276C194.35 235.265 194.328 235.246 194.314 235.222C194.3 235.198 194.294 235.17 194.297 235.142C194.3 235.114 194.312 235.088 194.331 235.068C194.351 235.047 194.376 235.034 194.404 235.029Z" fill="#263238"/>
<path d="M192.825 235.639C194.869 235.639 197.238 236.344 198.498 238.024C198.548 238.086 198.453 238.159 198.397 238.125C196.615 237.182 194.738 236.431 192.797 235.885C192.771 235.874 192.749 235.856 192.735 235.831C192.72 235.807 192.714 235.779 192.718 235.751C192.721 235.723 192.733 235.697 192.752 235.677C192.772 235.657 192.797 235.643 192.825 235.639Z" fill="#263238"/>
<path d="M191.246 236.26C193.29 236.26 195.653 236.965 196.919 238.645C196.969 238.707 196.874 238.774 196.813 238.746C195.031 237.802 193.154 237.051 191.213 236.506C191.186 236.495 191.165 236.476 191.151 236.451C191.137 236.427 191.131 236.398 191.135 236.37C191.139 236.342 191.152 236.316 191.172 236.296C191.192 236.276 191.218 236.263 191.246 236.26Z" fill="#263238"/>
<path d="M189.666 236.859C191.71 236.859 194.073 237.565 195.339 239.239C195.389 239.307 195.294 239.374 195.232 239.346C193.452 238.399 191.575 237.648 189.632 237.106C189.606 237.095 189.585 237.075 189.571 237.051C189.557 237.026 189.551 236.998 189.555 236.97C189.559 236.942 189.572 236.916 189.592 236.896C189.612 236.876 189.638 236.863 189.666 236.859Z" fill="#263238"/>
<path d="M212.369 239.15C214.66 239.15 214.643 242.723 212.341 242.712C210.04 242.701 210.068 239.134 212.369 239.15Z" fill="#263238"/>
<path d="M192.366 232.564C193.486 233.992 195.166 234.894 196.594 235.924C196.628 235.944 196.666 235.955 196.706 235.957C196.745 235.959 196.784 235.952 196.82 235.936C196.856 235.92 196.887 235.896 196.912 235.866C196.937 235.836 196.955 235.8 196.964 235.762C196.972 235.764 196.98 235.764 196.988 235.762C196.996 235.76 197.003 235.756 197.009 235.75C197.015 235.745 197.02 235.738 197.023 235.73C197.026 235.722 197.026 235.714 197.025 235.706C196.881 233.83 196.248 232.025 195.189 230.47C194.556 229.58 193.251 228.734 192.215 229.591C191.179 230.448 191.728 231.73 192.366 232.564ZM192.277 230.884C192.489 228.644 194.489 230.375 194.931 231.052C195.21 231.494 195.459 231.955 195.676 232.43C196.135 233.416 196.454 234.446 196.796 235.465C196.113 234.905 195.39 234.446 194.69 233.931C193.873 233.309 192.165 232.094 192.277 230.873V230.884Z" fill="#263238"/>
<path d="M204.288 234.408C204.132 233.069 202.608 232.778 201.533 232.98C199.684 233.359 197.969 234.221 196.56 235.477C196.553 235.482 196.548 235.488 196.544 235.495C196.54 235.503 196.538 235.511 196.538 235.519C196.538 235.528 196.54 235.536 196.544 235.543C196.548 235.55 196.553 235.557 196.56 235.561C196.54 235.595 196.528 235.633 196.524 235.672C196.521 235.711 196.527 235.75 196.542 235.787C196.556 235.823 196.579 235.856 196.609 235.882C196.638 235.908 196.674 235.926 196.712 235.936C198.459 236.211 200.29 236.726 202.071 236.457C203.14 236.3 204.434 235.668 204.288 234.408ZM199.472 235.813C198.61 235.696 197.759 235.539 196.891 235.455C197.86 234.973 198.8 234.452 199.82 234.066C200.304 233.869 200.802 233.709 201.309 233.584C202.099 233.4 204.725 233.551 203.336 235.298C202.575 236.261 200.48 235.953 199.472 235.813Z" fill="#263238"/>
<path d="M248.511 139.738C248.511 139.738 224.868 179.969 224.235 182.791C223.261 187.131 218.103 229.988 218.103 229.988L193.497 229.54C193.497 229.54 197.742 191.751 201.757 179.302C204.652 170.342 225.518 140.595 225.518 140.595L248.511 139.738Z" fill="#FFC727"/>
<path d="M195.737 225.778C199.27 225.778 211.792 225.61 216.496 226.047C216.505 226.047 216.514 226.05 216.52 226.056C216.526 226.063 216.53 226.071 216.53 226.08C216.53 226.089 216.526 226.098 216.52 226.104C216.514 226.11 216.505 226.114 216.496 226.114C214.872 226.349 199.265 225.985 195.737 225.873C195.729 225.876 195.721 225.876 195.713 225.875C195.705 225.874 195.698 225.871 195.691 225.867C195.685 225.862 195.679 225.856 195.676 225.849C195.672 225.841 195.67 225.833 195.67 225.825C195.67 225.817 195.672 225.809 195.676 225.802C195.679 225.795 195.685 225.789 195.691 225.784C195.698 225.78 195.705 225.777 195.713 225.776C195.721 225.774 195.729 225.775 195.737 225.778Z" fill="#263238"/>
<path d="M244.479 143.43C242.928 145.86 241.293 148.24 239.708 150.654C238.123 153.067 236.544 155.475 234.987 157.9C231.866 162.753 228.823 167.65 225.859 172.589C224.416 174.862 223.183 177.261 222.174 179.757C221.24 182.261 220.539 184.846 220.08 187.479C219.598 190.117 219.279 192.782 218.96 195.448C218.642 198.289 218.325 201.128 218.008 203.966L216.065 221.387C215.981 222.098 215.902 222.81 215.835 223.526C215.835 223.627 216.009 223.65 216.025 223.526C216.748 217.758 217.347 211.968 218.008 206.166C218.333 203.288 218.659 200.412 218.988 197.537C219.29 194.86 219.581 192.183 219.996 189.523C220.381 186.9 220.961 184.31 221.732 181.773C222.581 179.145 223.721 176.621 225.131 174.246C227.981 169.33 231 164.497 234.018 159.686C237.037 154.876 240.133 149.976 243.314 145.199C243.712 144.606 244.104 144.018 244.513 143.441C244.585 143.43 244.507 143.385 244.479 143.43Z" fill="#263238"/>
<path d="M227.606 248.379C228.726 248.452 258.966 240.483 259.89 239.48C259.93 239.42 259.955 239.351 259.963 239.279C260.081 238.288 258.535 234.575 257.449 229.826C257.381 229.524 256.816 228.079 256.015 226.136C253.825 220.782 249.911 211.604 249.911 211.604L230.16 216.66L237.44 231.265L238.425 234.704C238.425 234.704 228.48 242.684 227.539 243.893C226.598 245.103 226.492 248.3 227.606 248.379Z" fill="#DD6A57"/>
<path d="M227.606 248.378C228.726 248.451 258.966 240.482 259.89 239.48C259.93 239.419 259.955 239.35 259.963 239.278C260.081 238.287 258.535 234.574 257.449 229.825C257.381 229.523 256.816 228.078 256.015 226.135L237.44 231.264L238.425 234.703C238.425 234.703 228.48 242.683 227.539 243.892C226.598 245.102 226.492 248.3 227.606 248.378Z" fill="white"/>
<path d="M227.612 248.373C228.732 248.452 258.972 240.483 259.89 239.481C260.249 239.105 259.465 235.001 257.454 229.826L238.414 234.704C238.414 234.704 228.48 242.684 227.539 243.893C226.598 245.103 226.492 248.301 227.612 248.373Z" fill="#FFC727"/>
<path d="M227.73 247.085C232.635 245.685 252.577 240.482 257.538 239.469C257.578 239.469 257.583 239.469 257.538 239.502C252.706 240.998 232.725 246.038 227.741 247.169C227.64 247.191 227.623 247.118 227.73 247.085Z" fill="#263238"/>
<path d="M229.164 242.337C229.71 242.182 230.282 242.141 230.845 242.217C231.408 242.293 231.949 242.485 232.434 242.779C233.31 243.304 233.95 244.146 234.22 245.131C234.22 245.159 234.176 245.176 234.159 245.131C233.738 244.196 233.026 243.422 232.128 242.926C231.23 242.431 230.196 242.239 229.18 242.382C229.136 242.421 229.124 242.354 229.164 242.337Z" fill="#263238"/>
<path d="M236.639 235.701C238.61 235.141 241.086 235.258 242.738 236.557C242.799 236.608 242.738 236.697 242.659 236.686C240.696 236.227 238.689 235.981 236.673 235.953C236.642 235.952 236.613 235.94 236.59 235.92C236.568 235.899 236.553 235.871 236.549 235.841C236.545 235.811 236.552 235.78 236.568 235.754C236.585 235.729 236.61 235.71 236.639 235.701Z" fill="#263238"/>
<path d="M235.267 236.686C237.238 236.126 239.714 236.249 241.366 237.542C241.427 237.593 241.366 237.688 241.287 237.671C239.324 237.212 237.317 236.966 235.301 236.938C235.27 236.937 235.241 236.925 235.218 236.905C235.196 236.884 235.181 236.856 235.177 236.826C235.173 236.796 235.18 236.765 235.196 236.739C235.213 236.713 235.238 236.694 235.267 236.686Z" fill="#263238"/>
<path d="M233.895 237.678C235.866 237.118 238.341 237.241 239.993 238.54C240.055 238.585 239.993 238.68 239.915 238.663C237.95 238.203 235.941 237.957 233.923 237.93C233.893 237.928 233.864 237.915 233.842 237.894C233.821 237.873 233.807 237.845 233.804 237.815C233.8 237.785 233.808 237.755 233.824 237.73C233.841 237.705 233.866 237.686 233.895 237.678Z" fill="#263238"/>
<path d="M232.523 238.668C234.494 238.108 236.969 238.231 238.616 239.53C238.683 239.581 238.616 239.67 238.543 239.653C236.578 239.194 234.569 238.948 232.551 238.92C232.521 238.918 232.492 238.905 232.47 238.884C232.449 238.863 232.435 238.835 232.431 238.805C232.428 238.775 232.435 238.745 232.452 238.72C232.469 238.695 232.494 238.676 232.523 238.668Z" fill="#263238"/>
<path d="M255.063 235.1C257.303 234.54 258.171 237.984 255.948 238.556C253.725 239.127 252.834 235.7 255.063 235.1Z" fill="#263238"/>
<path d="M234.046 233.829C235.469 234.949 237.322 235.369 238.98 235.98C239.018 235.989 239.057 235.99 239.095 235.982C239.133 235.973 239.169 235.956 239.199 235.932C239.23 235.907 239.254 235.876 239.27 235.841C239.287 235.805 239.294 235.767 239.293 235.728C239.302 235.727 239.31 235.725 239.318 235.721C239.325 235.716 239.331 235.711 239.336 235.704C239.341 235.697 239.344 235.689 239.346 235.68C239.347 235.672 239.346 235.663 239.344 235.655C238.727 233.879 237.655 232.296 236.236 231.063C235.39 230.363 233.917 229.876 233.133 230.968C232.349 232.06 233.212 233.185 234.046 233.829ZM233.525 232.211C233.167 230.01 235.536 231.158 236.135 231.701C236.517 232.059 236.874 232.443 237.205 232.849C237.874 233.696 238.5 234.577 239.081 235.487C238.28 235.14 237.462 234.86 236.65 234.54C235.687 234.16 233.727 233.426 233.52 232.211H233.525Z" fill="#263238"/>
<path d="M246.042 232.571C245.549 231.322 244.003 231.423 243.018 231.893C241.333 232.733 239.9 234.002 238.862 235.572C238.857 235.577 238.852 235.583 238.849 235.59C238.845 235.596 238.844 235.604 238.844 235.611C238.844 235.619 238.845 235.626 238.849 235.633C238.852 235.64 238.857 235.646 238.862 235.651C238.851 235.688 238.849 235.728 238.855 235.767C238.862 235.805 238.878 235.842 238.901 235.874C238.925 235.905 238.955 235.931 238.99 235.948C239.025 235.966 239.064 235.975 239.103 235.975C240.862 235.796 242.766 235.824 244.418 235.113C245.414 234.699 246.506 233.758 246.042 232.571ZM241.746 235.141C240.878 235.253 240.016 235.315 239.159 235.455C239.971 234.743 240.75 233.999 241.629 233.366C242.05 233.055 242.492 232.772 242.95 232.52C243.667 232.145 246.249 231.619 245.353 233.64C244.854 234.805 242.771 235.035 241.746 235.141Z" fill="#263238"/>
<path d="M236.096 230.331L258.199 224.529C258.199 224.529 237.037 182.876 237.21 179.998C237.362 177.45 252.711 155.095 253.562 150.911C254.951 144.063 251.614 137.947 248.382 134.156L225.518 140.602C226.746 143.104 228.508 145.307 230.681 147.053C230.681 147.053 216.311 171.049 215.947 178.939C215.583 186.83 236.096 230.331 236.096 230.331Z" fill="#FFC727"/>
<path d="M235.671 226.209C238.88 225.29 237.944 225.509 241.164 224.629C242.738 224.198 253.087 221.37 254.604 221.225C254.638 221.225 254.649 221.275 254.604 221.286C253.193 221.925 242.8 224.568 241.215 224.971C237.984 225.794 238.902 225.531 235.66 226.304C235.637 226.321 235.615 226.231 235.671 226.209Z" fill="#263238"/>
<path d="M227.17 146.133C229.368 146.944 231.493 147.943 233.52 149.118C233.533 149.128 233.543 149.142 233.547 149.159C233.551 149.175 233.549 149.192 233.542 149.208C233.535 149.223 233.522 149.235 233.507 149.242C233.492 149.249 233.475 149.251 233.458 149.247C231.325 148.311 229.146 147.421 227.069 146.379C227.041 146.363 227.02 146.337 227.009 146.307C226.999 146.276 227 146.242 227.012 146.212C227.024 146.182 227.047 146.158 227.076 146.143C227.105 146.129 227.138 146.125 227.17 146.133Z" fill="#263238"/>
<path d="M229.857 145.569C230.02 145.97 230.157 146.382 230.266 146.801C230.383 147.126 230.439 147.47 230.429 147.815C230.429 147.876 230.328 147.882 230.294 147.815C230.102 147.511 229.958 147.178 229.869 146.829C229.729 146.448 229.577 146.068 229.454 145.709C229.436 145.656 229.439 145.597 229.464 145.546C229.488 145.495 229.532 145.456 229.586 145.438C229.639 145.419 229.698 145.422 229.749 145.447C229.8 145.472 229.839 145.516 229.857 145.569Z" fill="#263238"/>
<path d="M229.857 143.496C229.768 143.149 229.672 142.796 229.577 142.449C229.482 142.102 229.348 141.727 229.275 141.363C229.275 141.301 229.174 141.329 229.185 141.363C229.275 141.715 229.32 142.085 229.381 142.443C229.443 142.802 229.51 143.155 229.583 143.513C229.717 144.182 229.885 144.844 230.087 145.495C229.728 145.468 229.38 145.361 229.068 145.182C228.764 144.93 228.547 144.589 228.446 144.207C228.306 143.81 228.177 143.407 228.026 143.009C227.843 142.577 227.695 142.132 227.584 141.676C227.584 141.615 227.483 141.643 227.494 141.676C227.673 142.634 227.947 143.572 228.312 144.476C228.468 144.835 228.586 145.199 228.939 145.378C229.327 145.542 229.744 145.624 230.165 145.619C230.21 145.619 230.283 145.619 230.272 145.551C230.168 144.86 230.03 144.174 229.857 143.496Z" fill="#263238"/>
<path d="M230.238 147.836C229.37 149.41 228.373 150.916 227.438 152.451C226.503 153.985 225.669 155.475 224.817 157.015C223.108 160.117 221.528 163.29 220.08 166.535C219.363 168.136 218.687 169.755 218.053 171.39C217.371 173.027 216.809 174.711 216.373 176.43C215.965 178.135 215.889 179.903 216.149 181.638C216.466 183.403 216.918 185.143 217.498 186.84C218.684 190.754 220.126 194.585 221.816 198.309C221.872 198.432 222.079 198.337 222.034 198.214C220.825 194.803 219.57 191.41 218.489 187.96C217.437 184.6 216.188 181.145 216.77 177.595C217.09 175.888 217.576 174.217 218.221 172.605C218.837 170.925 219.503 169.307 220.203 167.688C221.592 164.491 223.154 161.388 224.745 158.291C225.635 156.555 226.576 154.847 227.477 153.117C228.379 151.387 229.269 149.595 230.277 147.915C230.345 147.831 230.266 147.78 230.238 147.836Z" fill="#263238"/>
<path d="M246.887 144.482C246.529 144.297 245.98 144.482 245.588 144.482C245.084 144.5 244.579 144.485 244.076 144.437C243.581 144.389 243.089 144.31 242.603 144.202C242.111 144.122 241.643 143.93 241.237 143.642C240.588 143.028 240.06 142.299 239.68 141.491C239.203 140.659 238.836 139.769 238.588 138.842C238.588 138.786 238.499 138.842 238.504 138.87C238.599 139.391 238.65 139.918 238.79 140.433C238.925 140.921 239.101 141.397 239.316 141.855C239.641 142.765 240.19 143.578 240.912 144.218C241.724 144.829 242.85 144.941 243.83 145.014C244.389 145.054 244.951 145.054 245.51 145.014C245.919 144.98 246.596 145.014 246.899 144.683C246.914 144.671 246.927 144.655 246.935 144.637C246.943 144.619 246.947 144.599 246.945 144.579C246.944 144.56 246.939 144.54 246.928 144.523C246.918 144.506 246.904 144.492 246.887 144.482Z" fill="#263238"/>
<path d="M252.711 219.752C249.93 214.085 247.212 208.382 244.558 202.644C241.903 196.906 239.307 191.125 236.768 185.301C236.072 183.935 235.519 182.501 235.116 181.022C234.769 179.398 235.273 177.937 235.956 176.481C237.237 173.822 238.667 171.238 240.24 168.742C241.797 166.222 243.438 163.763 245.056 161.288C246.738 158.869 248.281 156.356 249.676 153.762C251.001 151.315 251.557 148.526 251.272 145.759C250.914 142.959 249.704 140.344 248.411 137.88L247.369 135.931C247.369 135.881 247.268 135.931 247.296 135.976C248.741 138.563 250.13 141.279 250.802 144.18C251.151 145.614 251.259 147.096 251.121 148.565C250.942 150.051 250.522 151.498 249.878 152.849C248.679 155.492 247.005 157.922 245.398 160.347C243.791 162.772 242.133 165.281 240.56 167.784C238.956 170.293 237.487 172.886 236.158 175.551C235.489 176.719 235.026 177.994 234.791 179.32C234.635 180.782 235.167 182.187 235.732 183.509C238.191 189.271 240.772 194.983 243.404 200.673C246.036 206.362 248.758 212.052 251.524 217.702L252.577 219.836C252.628 219.926 252.756 219.842 252.711 219.752Z" fill="#263238"/>
<path d="M229.147 114.561C227.131 117.429 215.948 126.82 205.985 127.369C202.597 127.559 186.828 117.597 183.832 115.709C180.326 113.503 187.304 104.285 189.712 104.689C192.713 105.193 205.056 115.732 207.167 115.788C210.561 115.877 219.655 112.529 226.677 111.045C230.295 110.261 230.721 112.355 229.147 114.561Z" fill="#DD6A57"/>
<path d="M229.163 115.58C226.688 119.293 218.4 125.38 218.4 125.38L217.28 122.849L213.41 114.449C213.41 114.449 221.021 111.99 226.033 110.887C226.623 110.749 227.225 110.659 227.83 110.618C231.005 110.411 231.28 112.388 229.163 115.58Z" fill="#4E34FE"/>
<path d="M219.716 113.01C219.815 113.359 219.862 113.722 219.856 114.085C219.865 114.448 219.818 114.811 219.716 115.16C219.53 114.456 219.53 113.714 219.716 113.01Z" fill="white"/>
<path d="M218.692 117.355C217.989 117.541 217.25 117.541 216.547 117.355C217.25 117.168 217.989 117.168 218.692 117.355Z" fill="white"/>
<path d="M229.556 111.347C229.206 111.446 228.844 111.493 228.48 111.487C228.117 111.496 227.754 111.448 227.405 111.347C228.11 111.16 228.851 111.16 229.556 111.347Z" fill="white"/>
<path d="M223.631 115.709C223.945 115.89 224.233 116.112 224.488 116.37C224.749 116.621 224.972 116.91 225.148 117.227C224.52 116.86 223.998 116.337 223.631 115.709Z" fill="white"/>
<path d="M219.521 120.828C219.835 121.009 220.123 121.231 220.377 121.489C220.639 121.74 220.861 122.029 221.038 122.346C220.723 122.169 220.434 121.948 220.181 121.691C219.922 121.436 219.699 121.145 219.521 120.828Z" fill="white"/>
<path d="M229.163 115.581C226.688 119.294 218.4 125.381 218.4 125.381L217.28 122.85C220.355 119.232 225.12 113.755 227.831 110.602C231.006 110.412 231.28 112.389 229.163 115.581Z" fill="#C7C7C7"/>
<path d="M219.907 123.701C219.268 122.155 216.407 115.911 215.696 114.606C215.645 114.511 215.578 114.522 215.617 114.606C216.863 117.711 218.274 120.747 219.845 123.701C219.868 123.734 219.924 123.701 219.907 123.701Z" fill="#263238"/>
<path d="M224.302 141.765C225.422 142.555 226.839 143.731 234.03 143.328C234.478 143.3 234.931 143.255 235.39 143.188C242.228 142.129 251.177 135.505 251.692 135.023C251.692 135.023 243.628 116.672 231.034 109.504C229.477 108.619 226.554 109.504 224.84 110.87C224.224 111.357 222.471 115.35 222.454 118.761C222.438 122.171 223.177 140.981 224.302 141.765Z" fill="#4E34FE"/>
<path d="M228.385 119.248C228.484 119.598 228.531 119.96 228.525 120.323C228.532 120.685 228.484 121.045 228.385 121.393C228.289 121.045 228.242 120.685 228.245 120.323C228.242 119.96 228.289 119.598 228.385 119.248Z" fill="white"/>
<path d="M231.281 131.568C231.467 132.273 231.467 133.014 231.281 133.719C231.094 133.014 231.094 132.273 231.281 131.568Z" fill="white"/>
<path d="M240.241 123.947C240.427 124.652 240.427 125.393 240.241 126.098C240.054 125.393 240.054 124.652 240.241 123.947Z" fill="white"/>
<path d="M223.86 129.939C223.959 130.289 224.006 130.651 224 131.015C224.006 131.376 223.959 131.737 223.86 132.084C223.764 131.736 223.716 131.376 223.72 131.015C223.717 130.651 223.764 130.29 223.86 129.939Z" fill="white"/>
<path d="M235.121 121.712C234.772 121.811 234.409 121.858 234.046 121.852C233.685 121.858 233.324 121.811 232.977 121.712C233.325 121.617 233.685 121.57 234.046 121.572C234.409 121.569 234.771 121.616 235.121 121.712Z" fill="white"/>
<path d="M242.732 131.249C242.029 131.436 241.29 131.436 240.587 131.249C241.29 131.063 242.029 131.063 242.732 131.249Z" fill="white"/>
<path d="M231.162 138.82C230.46 139.006 229.72 139.006 229.018 138.82C229.72 138.633 230.46 138.633 231.162 138.82Z" fill="white"/>
<path d="M244.636 137.359C244.288 137.455 243.928 137.502 243.566 137.499C243.203 137.503 242.841 137.455 242.491 137.359C242.841 137.261 243.203 137.213 243.566 137.219C243.928 137.213 244.288 137.261 244.636 137.359Z" fill="white"/>
<path d="M229.556 111.347C229.206 111.446 228.844 111.493 228.48 111.487C228.117 111.496 227.754 111.448 227.405 111.347C228.11 111.16 228.851 111.16 229.556 111.347Z" fill="white"/>
<path d="M233.29 112.742C233.918 113.109 234.441 113.632 234.808 114.26C234.49 114.084 234.201 113.862 233.951 113.599C233.69 113.347 233.467 113.059 233.29 112.742Z" fill="white"/>
<path d="M244.468 124.703C245.096 125.07 245.619 125.593 245.985 126.221C245.354 125.858 244.83 125.334 244.468 124.703Z" fill="white"/>
<path d="M226.593 125.984C227.221 126.351 227.744 126.874 228.11 127.502C227.793 127.327 227.504 127.104 227.254 126.841C226.992 126.59 226.77 126.301 226.593 125.984Z" fill="white"/>
<path d="M236.847 134.627C237.162 134.806 237.45 135.029 237.703 135.288C237.965 135.539 238.187 135.828 238.364 136.145C238.049 135.968 237.761 135.747 237.507 135.489C237.249 135.233 237.027 134.943 236.847 134.627Z" fill="white"/>
<path d="M223.631 115.709C223.945 115.89 224.233 116.112 224.488 116.37C224.749 116.621 224.972 116.91 225.148 117.227C224.52 116.86 223.998 116.337 223.631 115.709Z" fill="white"/>
<path d="M222.724 123.947C222.902 123.632 223.125 123.343 223.384 123.09C223.639 122.833 223.927 122.61 224.241 122.43C224.064 122.748 223.842 123.039 223.58 123.292C223.327 123.55 223.039 123.771 222.724 123.947Z" fill="white"/>
<path d="M246.994 133.086C247.172 132.77 247.395 132.482 247.655 132.229C247.909 131.971 248.198 131.749 248.512 131.568C248.336 131.888 248.114 132.178 247.851 132.431C247.598 132.689 247.309 132.909 246.994 133.086Z" fill="white"/>
<path d="M224.045 136.748C224.412 136.12 224.934 135.597 225.563 135.23C225.386 135.549 225.163 135.839 224.902 136.093C224.649 136.351 224.36 136.571 224.045 136.748Z" fill="white"/>
<path d="M237.748 119.119C237.925 118.804 238.145 118.516 238.403 118.262C238.657 118.001 238.947 117.778 239.266 117.602C238.899 118.23 238.376 118.752 237.748 119.119Z" fill="white"/>
<path d="M234.349 142.086C234.526 141.769 234.748 141.481 235.009 141.229C235.264 140.971 235.552 140.749 235.866 140.568C235.691 140.886 235.468 141.175 235.205 141.425C234.954 141.686 234.665 141.909 234.349 142.086Z" fill="white"/>
<path d="M234.36 128.26C234.727 127.632 235.25 127.109 235.878 126.742C235.52 127.377 234.995 127.901 234.36 128.26Z" fill="white"/>
<path d="M226.666 115.709C228.407 115.631 230.502 112.349 231.028 109.997C230.66 108.876 230.234 107.775 229.751 106.699C229.343 105.64 228.911 104.459 228.592 103.339C228.531 103.109 227.87 103.753 227.87 103.753L226.531 104.509L222.107 107.018C222.901 108.292 223.535 109.66 223.995 111.089C224.038 111.243 224.066 111.4 224.079 111.559C224.079 111.559 224.079 111.61 224.079 111.638C224.196 112.551 224.98 115.782 226.666 115.709Z" fill="#DD6A57"/>
<path d="M224.078 111.565C224.078 111.565 224.078 111.616 224.078 111.644C224.326 111.611 224.569 111.555 224.806 111.475C229.465 110.036 228.351 103.904 228.351 103.904L226.52 104.515L222.096 107.024C222.889 108.298 223.523 109.666 223.983 111.095C224.03 111.248 224.062 111.406 224.078 111.565Z" fill="#263238"/>
<path d="M229.04 96.4387C229.914 98.9811 228.81 106.446 227.041 108.16C224.476 110.646 220.153 111.027 218.008 107.913C215.925 104.895 217.532 95.1955 219.52 93.6275C222.426 91.3091 227.73 92.6867 229.04 96.4387Z" fill="#DD6A57"/>
<path d="M222.118 101.502C222.118 101.502 222.152 101.536 222.146 101.552C222.062 102.056 222.046 102.672 222.477 102.874C222.477 102.874 222.477 102.908 222.477 102.902C221.922 102.745 221.95 101.967 222.118 101.502Z" fill="#263238"/>
<path d="M222.639 101.042C223.457 101.098 223.289 102.722 222.533 102.677C221.777 102.632 221.956 100.997 222.639 101.042Z" fill="#263238"/>
<path d="M219.021 101.115C219.021 101.115 218.982 101.115 218.977 101.16C218.943 101.664 218.814 102.241 218.344 102.358V102.386C218.909 102.37 219.072 101.602 219.021 101.115Z" fill="#263238"/>
<path d="M218.624 100.544C217.818 100.399 217.588 102.023 218.333 102.157C219.078 102.292 219.302 100.662 218.624 100.544Z" fill="#263238"/>
<path d="M223.362 100.365C223.153 100.28 222.95 100.182 222.752 100.074C222.526 100 222.33 99.8573 222.192 99.6653C222.16 99.5948 222.153 99.5158 222.171 99.4408C222.189 99.3657 222.232 99.2989 222.292 99.2509C222.424 99.1736 222.574 99.1328 222.726 99.1328C222.879 99.1328 223.029 99.1736 223.16 99.2509C223.455 99.3665 223.694 99.5883 223.832 99.8725C223.861 99.9392 223.87 100.013 223.857 100.085C223.845 100.156 223.811 100.222 223.761 100.275C223.711 100.328 223.646 100.364 223.575 100.38C223.504 100.396 223.43 100.391 223.362 100.365Z" fill="#263238"/>
<path d="M218.081 99.6549C218.305 99.635 218.527 99.6013 218.747 99.5541C218.985 99.5534 219.216 99.4725 219.402 99.3245C219.449 99.2632 219.474 99.1885 219.474 99.1117C219.474 99.0349 219.449 98.9602 219.402 98.8989C219.297 98.7871 219.163 98.7053 219.016 98.662C218.868 98.6188 218.711 98.6155 218.562 98.6525C218.251 98.679 217.962 98.8208 217.75 99.0501C217.702 99.1071 217.672 99.1772 217.665 99.2514C217.657 99.3255 217.673 99.4002 217.708 99.4656C217.744 99.531 217.799 99.5841 217.865 99.6179C217.932 99.6516 218.007 99.6645 218.081 99.6549Z" fill="#263238"/>
<path d="M222.079 106.072C221.945 106.179 221.811 106.33 221.626 106.33C221.438 106.305 221.257 106.242 221.094 106.145C221.155 106.252 221.244 106.34 221.352 106.4C221.459 106.46 221.581 106.49 221.704 106.487C221.809 106.468 221.907 106.419 221.985 106.347C222.063 106.274 222.119 106.181 222.147 106.078C222.147 106.078 222.102 106.061 222.079 106.072Z" fill="#263238"/>
<path d="M221.704 104.504C221.556 104.691 221.37 104.846 221.159 104.957C220.948 105.069 220.716 105.136 220.478 105.154C220.27 105.171 220.061 105.16 219.856 105.12H219.738L219.626 105.092C219.601 105.083 219.579 105.067 219.563 105.045C219.547 105.023 219.538 104.996 219.537 104.969C219.534 104.952 219.534 104.935 219.537 104.919V104.88C219.57 104.488 219.666 103.9 219.666 103.9C219.52 103.956 218.758 104.208 218.792 104.006C219.018 102.256 219.421 100.533 219.996 98.8651C219.996 98.8532 220.001 98.8418 220.009 98.8334C220.018 98.825 220.029 98.8203 220.041 98.8203C220.053 98.8203 220.064 98.825 220.073 98.8334C220.081 98.8418 220.086 98.8532 220.086 98.8651C219.884 100.484 219.402 102.057 219.178 103.676C219.448 103.585 219.729 103.53 220.013 103.513C220.069 103.513 219.806 104.633 219.806 104.824C220.121 104.889 220.446 104.89 220.762 104.827C221.078 104.763 221.377 104.636 221.642 104.454C221.704 104.432 221.76 104.471 221.704 104.504Z" fill="#263238"/>
<path d="M220.08 104.946C220.266 105.246 220.527 105.493 220.836 105.663C221.009 105.75 221.205 105.781 221.396 105.752C221.81 105.691 221.855 105.321 221.816 104.996C221.793 104.824 221.75 104.655 221.687 104.492C221.214 104.811 220.651 104.97 220.08 104.946Z" fill="#263238"/>
<path d="M220.858 105.664C221.031 105.751 221.227 105.782 221.418 105.753C221.833 105.692 221.878 105.322 221.838 104.997C221.624 104.98 221.409 105.037 221.231 105.158C221.053 105.279 220.921 105.457 220.858 105.664Z" fill="#FF99BA"/>
<path d="M228.368 102.668C227.086 102.556 227.299 99.4084 227.299 99.4084C227.299 99.4084 225.344 98.9996 224.459 96.2724C224.459 96.2724 221.883 97.79 219.772 97.342C216.468 96.642 216.681 92.302 217.952 91.4788C219.75 90.286 222.841 92.19 222.841 92.19C222.841 92.19 227.629 91.0028 228.951 94.262C229.565 94.3227 230.133 94.6143 230.541 95.078C230.948 95.5416 231.164 96.1426 231.146 96.7596C231.224 99.106 229.326 102.752 228.368 102.668Z" fill="#263238"/>
<path d="M227.747 99.7884C226.797 99.5976 225.937 99.095 225.305 98.3604C224.967 97.9614 224.73 97.4873 224.613 96.9777C224.496 96.4681 224.503 95.9379 224.633 95.4316C224.63 95.423 224.624 95.4156 224.617 95.4104C224.609 95.4051 224.601 95.4023 224.591 95.4023C224.582 95.4023 224.573 95.4051 224.566 95.4104C224.558 95.4156 224.553 95.423 224.549 95.4316C224.385 95.9595 224.339 96.5173 224.414 97.0651C224.49 97.6129 224.685 98.1374 224.986 98.6012C225.29 99.0419 225.705 99.3947 226.188 99.6238C226.672 99.8529 227.208 99.9502 227.741 99.906C227.757 99.9067 227.772 99.9012 227.784 99.8907C227.795 99.8802 227.802 99.8656 227.803 99.85C227.804 99.8344 227.798 99.8191 227.788 99.8076C227.777 99.796 227.763 99.7891 227.747 99.7884Z" fill="#263238"/>
<path d="M231.358 95.3932C230.726 94.542 229.729 94.3852 228.743 94.3908C228.687 94.3908 228.687 94.486 228.743 94.4804C229.235 94.4761 229.72 94.6044 230.145 94.8517C230.571 95.099 230.922 95.4562 231.162 95.886C231.356 96.2918 231.466 96.7324 231.486 97.1816C231.507 97.6309 231.436 98.0796 231.28 98.5012C230.856 100.155 229.832 101.592 228.407 102.533C228.407 102.533 228.407 102.589 228.407 102.572C229.217 102.095 229.921 101.458 230.475 100.699C231.03 99.94 231.424 99.0759 231.633 98.1596C231.84 97.2692 231.935 96.1772 231.358 95.3932Z" fill="#263238"/>
<path d="M222.964 92.3404C222.566 91.6548 221.931 91.1389 221.178 90.8901C220.262 90.6136 219.277 90.6854 218.411 91.0917C218.066 91.2628 217.773 91.5226 217.562 91.8443C217.35 92.1661 217.228 92.5383 217.207 92.9228C217.184 93.8169 217.466 94.6923 218.008 95.4036C218.008 95.4036 218.053 95.4036 218.042 95.4036C217.611 94.7383 217.395 93.956 217.426 93.1636C217.446 92.7844 217.572 92.4185 217.791 92.1083C218.01 91.7981 218.313 91.5563 218.663 91.4108C220.047 90.8508 222.023 91.0021 222.891 92.4133C222.919 92.4469 222.992 92.3964 222.964 92.3404Z" fill="#263238"/>
<path d="M227.64 102.539C227.64 102.539 229.281 100.119 230.378 100.702C231.476 101.284 230.266 104.779 228.995 105.271C228.836 105.346 228.664 105.387 228.489 105.393C228.314 105.399 228.14 105.37 227.976 105.307C227.812 105.245 227.663 105.15 227.537 105.028C227.411 104.906 227.311 104.761 227.242 104.599L227.64 102.539Z" fill="#DD6A57"/>
<path d="M143.635 153.225H211.675V105.58H143.635V153.225Z" fill="#263238"/>
<path d="M157.22 124.759C160.335 124.759 162.859 122.234 162.859 119.12C162.859 116.005 160.335 113.48 157.22 113.48C154.106 113.48 151.581 116.005 151.581 119.12C151.581 122.234 154.106 124.759 157.22 124.759Z" fill="#FFC727"/>
<path d="M173.841 142.859H211.68L192.758 117.211L173.841 142.859Z" fill="#C7C7C7"/>
<path d="M159.012 142.975H190.249L174.63 126.281L159.012 142.975Z" fill="white"/>
<path d="M211.669 142.953H143.629V153.218H211.669V142.953Z" fill="#FFC727"/>
<path d="M235.43 115.3C237.194 120.233 234.674 138.333 231.689 142.146C227.259 147.825 218.507 153.049 215.158 154.679C213.702 155.39 207.144 144.913 208.572 143.933C211.635 141.827 221.419 136.809 222.247 135.813C223.076 134.816 227.534 125.24 229.32 119.847C231.717 112.612 234.539 112.797 235.43 115.3Z" fill="#DD6A57"/>
<path d="M215.152 154.708C210.51 157.356 201.276 156.948 200.032 156.578C198.963 156.259 198.408 156.08 198.408 156.08C196.471 155.52 195.95 154.461 195.95 154.461C195.95 154.461 193.525 154.495 193.262 153.028C192.965 151.392 196.426 151.667 198.425 150.653C203.006 148.335 208.869 143.754 210.124 142.953L215.152 154.708Z" fill="#DD6A57"/>
<path d="M204.921 151.594C203.589 152.291 202.21 152.896 200.794 153.403C199.212 153.858 197.599 154.196 195.967 154.416C195.957 154.416 195.947 154.42 195.939 154.428C195.932 154.435 195.928 154.445 195.928 154.455C195.928 154.466 195.932 154.476 195.939 154.483C195.947 154.49 195.957 154.495 195.967 154.495C199.164 154.401 202.274 153.435 204.961 151.7C204.967 151.691 204.972 151.681 204.974 151.669C204.975 151.658 204.974 151.647 204.97 151.636C204.966 151.626 204.96 151.616 204.951 151.609C204.943 151.601 204.932 151.596 204.921 151.594Z" fill="#263238"/>
<path d="M206.719 154.159C204.075 155.27 201.256 155.904 198.392 156.03C201.3 156.233 204.208 155.624 206.792 154.271C206.853 154.255 206.814 154.12 206.719 154.159Z" fill="#263238"/>
<path d="M203.75 147.512C204.226 146.952 203.952 146.717 202.692 146.952C201.432 147.187 196.65 149.153 196.101 147.428C195.552 145.703 202.345 143.015 204.467 142.791C206.386 142.693 208.309 142.749 210.218 142.959C209.003 143.743 206.119 145.933 203.75 147.512Z" fill="#DD6A57"/>
<path d="M230.496 116.532C233.593 110.025 236.415 111.75 236.656 118.212C236.75 122.685 236.552 127.16 236.062 131.607L224.862 128.393L230.496 116.532Z" fill="#4E34FE"/>
<path d="M228.385 119.248C228.484 119.598 228.531 119.96 228.525 120.323C228.532 120.685 228.484 121.045 228.385 121.393C228.289 121.045 228.242 120.685 228.245 120.323C228.242 119.96 228.289 119.598 228.385 119.248Z" fill="white"/>
<path d="M235.121 121.712C234.772 121.811 234.409 121.858 234.046 121.852C233.685 121.858 233.324 121.811 232.977 121.712C233.325 121.617 233.685 121.57 234.046 121.572C234.409 121.569 234.771 121.616 235.121 121.712Z" fill="white"/>
<path d="M233.29 112.742C233.918 113.109 234.441 113.632 234.808 114.26C234.49 114.084 234.201 113.862 233.951 113.599C233.69 113.347 233.467 113.059 233.29 112.742Z" fill="white"/>
<path d="M226.593 125.984C227.221 126.351 227.744 126.874 228.11 127.502C227.793 127.327 227.504 127.104 227.254 126.841C226.992 126.59 226.77 126.301 226.593 125.984Z" fill="white"/>
<path d="M234.36 128.26C234.727 127.632 235.25 127.109 235.878 126.742C235.52 127.377 234.995 127.901 234.36 128.26Z" fill="white"/>
<path d="M229.427 118.52C229.007 119.371 228.565 120.2 228.122 121.057C228.201 120.653 228.262 120.256 228.307 119.847H228.279C228.212 120.166 228.139 120.48 228.077 120.799L227.993 121.258C227.991 121.292 227.991 121.325 227.993 121.359C227.652 122.014 227.31 122.675 226.991 123.341C226.605 124.137 226.241 124.937 225.871 125.744C225.501 126.55 225.16 127.53 224.751 128.342C225.103 128.486 225.469 128.595 225.843 128.667C225.944 128.706 225.994 128.605 225.888 128.594C225.781 128.583 224.953 128.241 224.941 128.236C225.305 127.424 225.765 126.657 226.157 125.861C226.549 125.066 226.941 124.277 227.31 123.47C228.072 121.841 228.738 120.172 229.489 118.537C229.466 118.509 229.433 118.497 229.427 118.52Z" fill="#263238"/>
<path d="M237.154 122.395C237.048 122.731 236.93 123.061 236.846 123.403L236.746 123.823C236.785 122.658 236.824 121.499 236.858 120.334C236.701 122.232 236.533 124.131 236.41 126.035C236.233 127.857 236.149 129.687 236.158 131.517C235.821 131.435 235.478 131.381 235.133 131.355C235.501 131.517 235.889 131.628 236.286 131.685C236.517 129.786 236.65 127.875 236.684 125.962C236.684 125.436 236.723 124.915 236.746 124.394C236.807 124.069 236.897 123.75 236.986 123.431C237.076 123.112 237.138 122.748 237.21 122.406C237.194 122.384 237.16 122.378 237.154 122.395Z" fill="#263238"/>
<path d="M235.625 129.861C234.046 129.301 227.5 127.235 226.055 126.882C225.954 126.854 225.915 126.882 226.016 126.949C229.155 128.114 232.356 129.106 235.603 129.923C235.611 129.924 235.618 129.922 235.625 129.918C235.631 129.914 235.636 129.908 235.639 129.901C235.641 129.894 235.642 129.886 235.639 129.879C235.637 129.871 235.632 129.865 235.625 129.861Z" fill="#263238"/>
<path d="M177.571 113.569C179.117 114.04 178.792 111.945 178.792 111.945C178.792 111.945 179.99 114.846 181.777 114.745C183.563 114.645 183.009 112.097 182.981 111.917C183.042 112.069 184.218 114.717 185.999 114.393C187.78 114.068 186.929 111.593 186.867 111.464C186.973 111.587 188.413 113.222 189.706 112.673C191.946 111.733 188.379 107.454 188.637 105.511L191.773 105.606C191.873 105.606 191.98 105.606 192.081 105.556L192.198 103.954C191.196 103.547 190.228 103.06 189.303 102.498C188.121 101.837 186.979 101.233 186.133 101.216C185.752 101.195 185.374 101.298 185.055 101.509C184.737 101.719 184.494 102.027 184.364 102.386C184.364 102.386 183.445 100.93 182.034 101.137C181.312 101.244 180.841 102.498 180.841 102.498C180.617 102.18 180.309 101.93 179.951 101.775C179.593 101.621 179.2 101.569 178.814 101.625C177.823 101.826 177.498 103.053 177.498 103.053C177.498 103.053 176.244 102.313 175.297 102.851C173.388 103.904 174.256 112.55 177.571 113.569Z" fill="#DD6A57"/>
<path d="M189.039 105.327L191.772 105.579C191.873 105.579 191.979 105.579 192.08 105.529C195.529 104.902 197.68 100.959 195.177 100.674C193.273 100.455 191.223 102.975 189.302 102.471L189.039 105.327Z" fill="#DD6A57"/>
<path d="M180.819 102.42C180.819 102.386 180.763 102.386 180.757 102.42C180.309 105.761 181.072 109.152 182.908 111.979C182.975 112.074 183.132 112.097 183.064 111.979C181.905 110.013 180.88 105.22 180.819 102.42Z" fill="#263238"/>
<path d="M187.068 111.588C185.304 108.788 184.604 105.736 184.341 102.483C184.341 102.438 184.279 102.449 184.268 102.483C183.965 104.112 184.352 106.167 184.783 107.741C185.159 109.216 185.914 110.567 186.973 111.661C187.04 111.689 187.107 111.644 187.068 111.588Z" fill="#263238"/>
</svg>
