<svg width="280" height="280" viewBox="0 0 280 280" fill="none" xmlns="http://www.w3.org/2000/svg">
<path d="M46.2514 139.753L38.9042 139.904L35.1746 139.972C33.9258 139.972 32.6714 139.972 31.4226 140H31.1762V139.753L31.1426 133.487V133.201H31.4226L38.837 133.235C41.3122 133.235 43.7818 133.296 46.2514 133.324H46.4082V133.476C46.4082 134.534 46.3578 135.592 46.3354 136.64L46.2514 139.753ZM46.2514 139.753L46.173 136.584C46.173 135.542 46.1114 134.512 46.1002 133.487L46.2514 133.638C43.7818 133.666 41.3122 133.728 38.837 133.728L31.4226 133.767L31.7026 133.487V139.753L31.4506 139.501C32.6714 139.501 33.8922 139.501 35.1186 139.501L38.8034 139.568L46.2514 139.753Z" fill="#F7F5FF"/>
<path d="M37.9799 147.654L30.6327 147.806L26.9031 147.873C25.6543 147.873 24.3999 147.873 23.1511 147.901H22.9047V147.654L22.8711 141.388V141.119H23.1511L30.5655 141.153C33.0351 141.153 35.5103 141.214 37.9799 141.242H38.1367V141.394C38.1367 142.452 38.0919 143.51 38.0639 144.558L37.9799 147.654ZM37.9799 147.654L37.9015 144.479C37.8735 143.438 37.8399 142.407 37.8287 141.382L37.9799 141.534C35.5103 141.562 33.0351 141.623 30.5655 141.623L23.1511 141.679L23.4311 141.405L23.4031 147.671L23.1511 147.419C24.3719 147.419 25.5927 147.419 26.8191 147.419L30.5039 147.486L37.9799 147.654Z" fill="#F7F5FF"/>
<path d="M256.851 147.654L249.498 147.806L245.769 147.873C244.525 147.873 243.271 147.873 242.022 147.901H241.77V147.654L241.742 141.388V141.119H242.022L249.437 141.153C251.906 141.153 254.381 141.214 256.851 141.242H257.002V141.394C257.002 142.452 256.957 143.51 256.929 144.558L256.851 147.654ZM256.851 147.654L256.773 144.485C256.773 143.443 256.705 142.413 256.7 141.388L256.851 141.539C254.381 141.567 251.906 141.629 249.437 141.629L242.022 141.662L242.302 141.388L242.269 147.654L242.022 147.402C243.243 147.402 244.464 147.402 245.685 147.402L249.369 147.47L256.851 147.654Z" fill="#F7F5FF"/>
<path d="M248.58 36.5112L241.227 36.668L237.497 36.7296C236.254 36.7296 235 36.7296 233.751 36.7632H233.521V36.5112V30.2448V29.9648H233.807L241.221 29.9984C243.691 29.9984 246.161 30.0656 248.636 30.0936H248.787V30.2392C248.787 31.3032 248.737 32.3616 248.714 33.4032L248.58 36.5112ZM248.58 36.5112L248.501 33.3472C248.473 32.3 248.434 31.2696 248.423 30.2448L248.58 30.396C246.105 30.396 243.635 30.4856 241.165 30.4912L233.751 30.5248L234.031 30.2448L233.997 36.5112L233.751 36.2592C234.972 36.2592 236.187 36.2592 237.413 36.2928L241.098 36.3544L248.58 36.5112Z" fill="#F7F5FF"/>
<path d="M256.851 44.4136L249.498 44.5704L245.769 44.632C244.525 44.632 243.271 44.632 242.022 44.6656H241.77V44.4136L241.742 38.1472V37.8672H242.022L249.437 37.9008C251.906 37.9008 254.381 37.968 256.851 37.996H257.002V38.1472C257.002 39.2112 256.957 40.2696 256.929 41.3112L256.851 44.4136ZM256.851 44.4136L256.773 41.2496C256.773 40.2024 256.705 39.172 256.7 38.1472L256.851 38.2984C254.381 38.2984 251.906 38.388 249.437 38.3936L242.022 38.4272L242.302 38.1472L242.269 44.4136L242.022 44.1616C243.243 44.1616 244.464 44.1616 245.685 44.1952L249.369 44.2568L256.851 44.4136Z" fill="#F7F5FF"/>
<path d="M46.2514 36.5129L38.9042 36.6697L35.1746 36.7313C33.9258 36.7313 32.6714 36.7313 31.4226 36.7649H31.1762V36.5129L31.1426 30.2409V29.9609H31.4226L38.837 29.9945C41.3122 29.9945 43.7818 30.0617 46.2514 30.0897H46.4082V30.2409C46.4082 31.3049 46.3578 32.3633 46.3354 33.4049L46.2514 36.5129ZM46.2514 36.5129L46.173 33.3489C46.173 32.3017 46.1114 31.2713 46.1002 30.2465L46.2514 30.3977C43.7818 30.3977 41.3122 30.4873 38.837 30.4929L31.4226 30.5265L31.7026 30.2465V36.5129L31.4506 36.2609C32.6714 36.2609 33.8922 36.2609 35.1186 36.2945L38.8034 36.3561L46.2514 36.5129Z" fill="#F7F5FF"/>
<path d="M42.0067 86.1901L104.772 76.2613L98.0851 34.2949L35.3203 44.2181L42.0067 86.1901Z" fill="#F7F5FF"/>
<path d="M44.1955 83.16L101.752 74.06L95.8947 37.3184L38.3379 46.4184L44.1955 83.16Z" fill="#DBDBDB"/>
<path d="M45.3608 57.0468C45.5619 58.283 46.1248 59.4319 46.9782 60.3485C47.8317 61.2651 48.9376 61.9084 50.1563 62.1971C51.375 62.4858 52.6519 62.4071 53.8259 61.9708C54.9999 61.5345 56.0184 60.7602 56.7528 59.7457C57.4871 58.7311 57.9045 57.5218 57.9523 56.2702C58 55.0187 57.6759 53.7811 57.021 52.7135C56.366 51.646 55.4095 50.7964 54.2721 50.272C53.1347 49.7475 51.8675 49.5718 50.6304 49.7668C49.8058 49.8976 49.0151 50.1898 48.3037 50.6267C47.5922 51.0637 46.974 51.6367 46.4845 52.313C45.9949 52.9893 45.6437 53.7556 45.4508 54.5679C45.258 55.3802 45.2274 56.2226 45.3608 57.0468Z" fill="#C7C7C7"/>
<path d="M62.0762 80.3935L101.719 74.1271L77.6498 50.3887L62.0762 80.3935Z" fill="#8471FE"/>
<path d="M46.5371 82.8626L79.2691 77.6882L60.1395 62.7754L46.5371 82.8626Z" fill="#C7C7C7"/>
<path d="M81.7109 85.132L133.556 89.6176L136.518 54.9368L84.6677 50.4512L81.7109 85.132Z" fill="#F7F5FF"/>
<path d="M84.0508 83.1601L131.589 87.2705L134.176 56.9073L86.6324 52.7969L84.0508 83.1601Z" fill="white"/>
<path d="M90.1599 62.6367C90.0714 63.6604 90.2887 64.6873 90.7843 65.5875C91.2799 66.4876 92.0314 67.2204 92.9438 67.6931C93.8561 68.1658 94.8882 68.3571 95.9094 68.2428C96.9306 68.1284 97.8948 67.7136 98.6801 67.0509C99.4653 66.3881 100.036 65.5073 100.32 64.5198C100.605 63.5324 100.59 62.4828 100.277 61.504C99.9641 60.5252 99.368 59.6612 98.5639 59.0215C97.7598 58.3817 96.784 57.995 95.7599 57.9103C94.3911 57.797 93.0332 58.2308 91.9836 59.1167C90.934 60.0026 90.2782 61.2683 90.1599 62.6367Z" fill="#DBDBDB"/>
<path d="M98.8066 84.4808L131.555 87.3144L117.096 63.6992L98.8066 84.4808Z" fill="#F7F5FF"/>
<path d="M85.9668 83.3845L113.004 85.7197L100.734 70.0957L85.9668 83.3845Z" fill="#DBDBDB"/>
<path d="M236.785 0H236.225V51.0496H236.785V0Z" fill="#C7C7C7"/>
<path d="M218.775 68.1409L220.203 71.2712H252.812L254.229 68.1409L240.347 58.5312H232.658L218.775 68.1409Z" fill="#F7F5FF"/>
<path d="M231.695 49.2734L232.659 58.5302H240.347L241.316 49.2734H231.695Z" fill="#DBDBDB"/>
<path d="M218.781 68.1406L220.204 71.2766H252.812L254.235 68.1406H218.781Z" fill="#DBDBDB"/>
<path d="M198.722 0H198.162V40.936H198.722V0Z" fill="#C7C7C7"/>
<path d="M180.713 58.0276L182.141 61.1636H214.75L216.166 58.0276L202.29 48.418H194.595L180.713 58.0276Z" fill="#F7F5FF"/>
<path d="M193.633 39.1602L194.596 48.417H202.29L203.254 39.1602H193.633Z" fill="#DBDBDB"/>
<path d="M180.719 58.0273L182.141 61.1633H214.75L216.172 58.0273H180.719Z" fill="#DBDBDB"/>
<path d="M140 252.544C202.784 252.544 253.68 247.725 253.68 241.781C253.68 235.836 202.784 231.018 140 231.018C77.2166 231.018 26.3203 235.836 26.3203 241.781C26.3203 247.725 77.2166 252.544 140 252.544Z" fill="#EEEBFE"/>
<path d="M244.535 187.006C244.535 187.006 248.606 172.402 251.854 167.446C255.102 162.49 261.162 157.035 261.162 157.035C261.162 157.035 261.016 179.553 244.535 187.006Z" fill="#4A820B"/>
<path d="M243.275 188.323C243.275 188.323 250.589 174.883 248.466 161.801C246.344 148.72 244.065 144.1 244.065 144.1C244.065 144.1 232.568 164.405 243.275 188.323Z" fill="#4A820B"/>
<path d="M240.274 167.154C240.886 170.853 241.823 174.49 243.074 178.024C243.074 173.236 243.186 168.442 243.315 163.654C242.494 160.746 242.03 157.748 241.932 154.728C241.932 154.644 242.061 154.649 242.072 154.728C242.308 157.314 242.742 159.879 243.371 162.4C243.483 158.446 243.612 154.494 243.757 150.544C243.761 150.533 243.768 150.523 243.778 150.516C243.787 150.51 243.799 150.506 243.811 150.506C243.822 150.506 243.834 150.51 243.843 150.516C243.853 150.523 243.86 150.533 243.864 150.544C243.864 156.704 243.864 162.864 243.819 169.069C244.712 166.682 245.418 164.23 245.93 161.733H245.975C245.677 164.609 244.949 167.424 243.813 170.083C243.785 174.031 243.741 177.973 243.657 181.921C244.894 177.727 246.216 173.661 246.569 169.226C246.572 169.216 246.578 169.208 246.587 169.201C246.596 169.195 246.606 169.192 246.616 169.192C246.627 169.192 246.637 169.195 246.645 169.201C246.654 169.208 246.66 169.216 246.664 169.226C246.569 174.115 245.309 179.076 243.696 183.674C243.677 183.719 243.648 183.759 243.612 183.792C243.578 185.231 243.533 186.676 243.489 188.115C243.489 188.158 243.472 188.199 243.441 188.23C243.411 188.26 243.369 188.277 243.326 188.277C243.283 188.277 243.242 188.26 243.211 188.23C243.181 188.199 243.164 188.158 243.164 188.115C243.108 185.165 243.084 182.216 243.091 179.267C241.5 175.402 240.527 171.31 240.207 167.143C240.207 167.126 240.269 167.115 240.274 167.154Z" fill="#263238"/>
<path d="M240.8 165.072C241.058 166.243 241.23 167.432 241.315 168.628C241.315 168.667 241.254 168.673 241.242 168.628C240.958 167.46 240.758 166.274 240.643 165.078C240.604 164.999 240.755 164.983 240.8 165.072Z" fill="#263238"/>
<path d="M245.051 155.227C245.051 155.187 245.118 155.199 245.118 155.227C245.109 156.057 244.987 156.882 244.754 157.679C244.754 157.747 244.642 157.719 244.653 157.679C244.816 156.856 244.911 156.039 245.051 155.227Z" fill="#263238"/>
<path d="M240.61 189.353C240.61 189.353 240.907 175.297 236.875 168.308C234.244 163.949 230.558 160.323 226.156 157.764C226.156 157.764 228.85 182.56 240.61 189.353Z" fill="#4A820B"/>
<path d="M233.263 177.335C234.885 179.785 236.709 182.095 238.718 184.24C237.911 181.361 236.978 178.535 235.918 175.761C233.678 173.779 231.438 171.724 230.027 169.013C230.023 169.004 230.022 168.994 230.025 168.985C230.028 168.976 230.035 168.969 230.043 168.964C230.051 168.959 230.061 168.957 230.07 168.959C230.08 168.961 230.088 168.966 230.094 168.974C231.645 171.293 233.532 173.369 235.694 175.134C234.082 170.949 232.212 166.868 230.094 162.915C230.081 162.894 230.077 162.869 230.083 162.845C230.089 162.822 230.104 162.801 230.125 162.789C230.145 162.776 230.17 162.772 230.194 162.778C230.218 162.784 230.238 162.799 230.251 162.82C231.54 164.893 232.714 167.035 233.767 169.237C233.392 167.736 233.09 166.196 232.703 164.707C232.706 164.701 232.71 164.696 232.716 164.692C232.721 164.688 232.728 164.687 232.734 164.687C232.741 164.687 232.747 164.688 232.753 164.692C232.758 164.696 232.762 164.701 232.765 164.707C233.566 166.617 234.13 168.618 234.445 170.665C235.843 173.795 237.014 177.022 237.951 180.32C237.844 178.214 237.715 176.114 237.497 174.014C237.497 173.975 237.559 173.964 237.564 174.014C238.014 176.348 238.218 178.722 238.175 181.098C238.757 183.192 239.246 185.307 239.642 187.443C239.642 187.504 239.563 187.527 239.552 187.471C239.334 186.575 239.093 185.684 238.852 184.8C238.852 184.8 238.819 184.8 238.807 184.8C236.562 182.652 234.682 180.154 233.241 177.402C233.241 177.402 233.252 177.318 233.263 177.335Z" fill="#263238"/>
<path d="M252.589 187.639L252.079 194.319L250.55 214.446H237.189L235.66 194.319L235.15 187.661H252.589V187.639Z" fill="#455A64"/>
<path d="M252.589 187.639L252.079 194.319H235.66L235.15 187.661H252.589V187.639Z" fill="#37474F"/>
<path d="M233.963 189.477H253.775V184.369H233.963V189.477Z" fill="#455A64"/>
<path d="M20.4238 214.401L50.3166 214.267L80.2094 214.217L140.001 214.127L199.792 214.217L229.685 214.267L259.577 214.401L229.685 214.541L199.792 214.592L140.001 214.681L80.2094 214.586L50.3166 214.541L20.4238 214.401Z" fill="#263238"/>
<path d="M43.4673 241.36H170.503L156.593 153.547H29.5625L43.4673 241.36Z" fill="#FDC500"/>
<path d="M110.27 144.451H155.154L156.593 153.546H109.133L110.27 144.451Z" fill="#FDC500"/>
<g opacity="0.1">
<path d="M43.4673 241.359H170.503L156.593 153.545H29.5625L43.4673 241.359Z" fill="black"/>
<path d="M110.27 144.451H155.154L156.593 153.546H109.133L110.27 144.451Z" fill="black"/>
</g>
<path d="M47.1849 91.9292C46.9898 91.1988 46.8956 90.4452 46.9049 89.6892C46.8981 88.9334 46.9923 88.1801 47.1849 87.4492C47.3829 88.179 47.4772 88.9331 47.4649 89.6892C47.4716 90.445 47.3774 91.1983 47.1849 91.9292Z" fill="#263238"/>
<path d="M42.5603 93.2559C41.5062 92.1507 40.7373 90.8052 40.3203 89.3359C41.3745 90.4411 42.1433 91.7866 42.5603 93.2559Z" fill="#263238"/>
<path d="M39.2501 96.7114C38.5126 96.512 37.806 96.2124 37.1501 95.821C36.4825 95.4483 35.87 94.9847 35.3301 94.4434C36.0684 94.6402 36.7753 94.94 37.4301 95.3338C38.0977 95.7064 38.7102 96.17 39.2501 96.7114Z" fill="#263238"/>
<path d="M38.0796 101.359C36.6093 101.73 35.07 101.73 33.5996 101.359C34.3301 101.165 35.0839 101.073 35.8396 101.085C36.5952 101.075 37.3487 101.168 38.0796 101.359Z" fill="#263238"/>
<path d="M39.4239 105.975C38.3226 107.034 36.9757 107.804 35.5039 108.215C36.0444 107.673 36.6591 107.211 37.3295 106.843C37.9849 106.459 38.6896 106.167 39.4239 105.975Z" fill="#263238"/>
<path d="M42.8745 109.307C42.6809 110.043 42.3869 110.75 42.0009 111.407C41.6316 112.073 41.1697 112.684 40.6289 113.221C40.8268 112.485 41.1265 111.78 41.5193 111.127C41.8866 110.461 42.3425 109.849 42.8745 109.307Z" fill="#263238"/>
<path d="M47.5329 110.459C47.7264 111.19 47.8187 111.943 47.8073 112.699C47.8202 113.455 47.7259 114.209 47.5273 114.939C47.3286 114.209 47.2344 113.455 47.2473 112.699C47.2393 111.943 47.3354 111.189 47.5329 110.459Z" fill="#263238"/>
<path d="M52.1367 109.133C52.678 109.671 53.14 110.284 53.5087 110.953C53.9006 111.609 54.2002 112.315 54.3991 113.053C53.8578 112.514 53.3959 111.901 53.0271 111.233C52.6343 110.578 52.3346 109.871 52.1367 109.133Z" fill="#263238"/>
<path d="M55.4688 105.678C56.9397 106.091 58.2862 106.86 59.3888 107.918C57.9163 107.508 56.5691 106.738 55.4688 105.678Z" fill="#263238"/>
<path d="M56.621 101.018C57.3514 100.823 58.1052 100.731 58.861 100.743C59.6171 100.731 60.3711 100.825 61.101 101.023C59.6163 101.4 58.0609 101.4 56.5762 101.023L56.621 101.018Z" fill="#263238"/>
<path d="M55.2949 96.4091C55.8364 95.8712 56.4487 95.4097 57.1149 95.0371C57.77 94.6452 58.4769 94.3473 59.2149 94.1523C58.6734 94.6902 58.0611 95.1518 57.3949 95.5243C56.7377 95.9121 56.0314 96.2097 55.2949 96.4091Z" fill="#263238"/>
<path d="M51.8398 93.0821C52.0367 92.3438 52.3364 91.6369 52.7302 90.9821C53.1029 90.3145 53.5665 89.702 54.1078 89.1621C53.6817 90.6337 52.9032 91.9792 51.8398 93.0821Z" fill="#263238"/>
<path d="M55.9162 160.277L144.951 147.582L136.394 88.043L47.3594 100.738L55.9162 160.277Z" fill="#EBEBEB"/>
<path d="M59.0804 156.045L140.728 144.402L133.224 92.2773L51.582 103.92L59.0804 156.045Z" fill="#FDC500"/>
<path opacity="0.1" d="M61.4708 116.962C61.7009 118.576 62.4046 120.085 63.4928 121.3C64.581 122.514 66.0048 123.378 67.5842 123.783C69.1636 124.188 70.8276 124.115 72.3657 123.574C73.9039 123.034 75.2471 122.049 76.2255 120.744C77.2039 119.44 77.7735 117.875 77.8624 116.247C77.9512 114.619 77.5552 113.001 76.7245 111.598C75.8939 110.195 74.6658 109.07 73.1956 108.365C71.7254 107.66 70.0792 107.407 68.4652 107.638C67.3931 107.789 66.3616 108.151 65.4295 108.702C64.4975 109.253 63.6833 109.982 63.0336 110.849C62.3839 111.715 61.9114 112.7 61.6432 113.749C61.3751 114.798 61.3164 115.89 61.4708 116.962Z" fill="black"/>
<path opacity="0.2" d="M84.4434 152.51L140.684 144.491L107.129 110.387L84.4434 152.51Z" fill="black"/>
<path d="M62.4004 155.673L108.83 149.049L82.0788 127.539L62.4004 155.673Z" fill="#FDC500"/>
<path opacity="0.1" d="M62.4004 155.673L108.83 149.049L82.0788 127.539L62.4004 155.673Z" fill="black"/>
<path d="M81.7773 160.547L170.218 182.23L184.655 123.06L96.2141 101.377L81.7773 160.547Z" fill="#EBEBEB"/>
<path d="M86.3516 157.763L167.451 177.643L180.079 125.843L98.9852 105.963L86.3516 157.763Z" fill="white"/>
<path d="M102.396 123.91C101.966 125.656 102.065 127.491 102.678 129.181C103.291 130.871 104.392 132.341 105.841 133.405C107.29 134.47 109.023 135.08 110.819 135.16C112.615 135.24 114.394 134.785 115.932 133.853C117.47 132.921 118.696 131.554 119.457 129.925C120.218 128.296 120.478 126.478 120.205 124.701C119.932 122.924 119.138 121.267 117.924 119.941C116.71 118.616 115.129 117.68 113.383 117.252C112.224 116.968 111.021 116.914 109.842 117.095C108.662 117.276 107.53 117.687 106.51 118.305C105.49 118.924 104.601 119.737 103.895 120.699C103.189 121.66 102.68 122.752 102.396 123.91Z" fill="#DBDBDB"/>
<path d="M111.514 164.013L167.379 177.711L148.726 133.006L111.514 164.013Z" fill="#DBDBDB"/>
<path d="M89.6113 158.665L135.733 169.971L118.715 139.664L89.6113 158.665Z" fill="#EBEBEB"/>
<path d="M39.1267 190.025L121.055 189.851L120.881 135.061L38.9531 135.229L39.1267 190.025Z" fill="#EBEBEB"/>
<path d="M42.5218 186.603L117.646 186.446L117.489 138.477L42.3594 138.633L42.5218 186.603Z" fill="#455A64"/>
<path d="M49.2188 153.574C49.2221 155.191 49.7048 156.771 50.606 158.113C51.5072 159.456 52.7862 160.501 54.2815 161.117C55.7767 161.733 57.4209 161.891 59.0063 161.572C60.5916 161.254 62.0468 160.472 63.1879 159.326C64.329 158.18 65.1047 156.722 65.4169 155.135C65.7291 153.549 65.5638 151.905 64.9419 150.413C64.3201 148.92 63.2695 147.645 61.9231 146.749C60.5767 145.854 58.995 145.378 57.378 145.381C55.21 145.387 53.133 146.253 51.6032 147.789C50.0734 149.325 49.2158 151.406 49.2188 153.574Z" fill="#37474F"/>
<path d="M65.8457 186.631L117.595 186.524L91.6505 151.502L65.8457 186.631Z" fill="#263238"/>
<path d="M45.5625 186.686L88.2849 186.597L66.8761 163.805L45.5625 186.686Z" fill="#37474F"/>
<path d="M106.832 220.315L186.744 228.038L191.851 174.586L111.945 166.863L106.832 220.315Z" fill="#EBEBEB"/>
<path d="M110.471 217.307L183.747 224.391L188.216 177.592L114.934 170.508L110.471 217.307Z" fill="white"/>
<path d="M120.187 185.74C120.035 187.317 120.354 188.903 121.103 190.298C121.853 191.693 122.999 192.835 124.397 193.579C125.795 194.323 127.383 194.636 128.958 194.477C130.534 194.319 132.028 193.697 133.25 192.69C134.473 191.683 135.369 190.336 135.826 188.82C136.283 187.303 136.28 185.686 135.817 184.171C135.355 182.656 134.453 181.312 133.227 180.31C132.001 179.307 130.505 178.691 128.929 178.539C126.815 178.336 124.707 178.98 123.068 180.331C121.429 181.681 120.393 183.627 120.187 185.74Z" fill="#DBDBDB"/>
<path d="M133.219 219.581L183.692 224.459L161.762 187.812L133.219 219.581Z" fill="#DBDBDB"/>
<path d="M113.428 217.683L155.103 221.709L136.421 197.422L113.428 217.683Z" fill="#EBEBEB"/>
<path d="M43.4121 241.36H170.443L180.243 160.832H53.2065L43.4121 241.36Z" fill="#FDC500"/>
<path d="M136.371 152.494H181.255L180.241 160.833H132.775L136.371 152.494Z" fill="#FDC500"/>
<path d="M228.641 231.75C230.578 230.703 233.199 230.21 235.243 231.19C235.321 231.229 235.271 231.341 235.198 231.341C233.024 231.336 230.855 231.565 228.73 232.024C228.694 232.036 228.654 232.033 228.62 232.016C228.586 231.998 228.56 231.968 228.548 231.932C228.536 231.895 228.539 231.856 228.557 231.822C228.574 231.787 228.604 231.762 228.641 231.75Z" fill="#263238"/>
<path d="M227.437 233.123C229.374 232.081 232.001 231.588 234.045 232.563C234.123 232.596 234.045 232.708 233.994 232.708C231.822 232.706 229.656 232.935 227.532 233.392C227.496 233.404 227.457 233.402 227.423 233.386C227.389 233.37 227.363 233.34 227.35 233.305C227.337 233.269 227.339 233.23 227.356 233.196C227.372 233.162 227.401 233.135 227.437 233.123Z" fill="#263238"/>
<path d="M226.238 234.5C228.176 233.453 230.797 232.96 232.846 233.94C232.925 233.979 232.846 234.091 232.796 234.091C230.622 234.086 228.453 234.315 226.328 234.774C226.291 234.786 226.252 234.783 226.218 234.766C226.184 234.748 226.158 234.718 226.146 234.682C226.134 234.645 226.137 234.606 226.154 234.572C226.172 234.537 226.202 234.512 226.238 234.5Z" fill="#263238"/>
<path d="M225.041 235.871C226.978 234.824 229.599 234.331 231.643 235.311C231.721 235.35 231.671 235.462 231.598 235.462C229.421 235.451 227.249 235.674 225.119 236.128C225.089 236.129 225.059 236.12 225.034 236.102C225.01 236.084 224.991 236.058 224.983 236.029C224.974 236 224.975 235.969 224.985 235.94C224.996 235.912 225.015 235.887 225.041 235.871Z" fill="#263238"/>
<path d="M225.169 230.843C226.989 231.51 229.033 231.364 230.943 231.448C231.139 231.448 231.223 231.246 231.183 231.09C231.19 231.084 231.194 231.077 231.198 231.069C231.201 231.062 231.203 231.053 231.203 231.045C231.203 231.036 231.201 231.028 231.198 231.02C231.194 231.013 231.19 231.006 231.183 231C229.973 229.375 228.357 228.096 226.496 227.293C225.404 226.845 223.73 226.828 223.282 228.206C222.834 229.583 224.105 230.457 225.169 230.843ZM224.111 229.354C223.024 227.209 225.83 227.618 226.625 227.976C227.133 228.22 227.623 228.499 228.092 228.81C229.083 229.438 229.963 230.194 230.892 230.91C229.957 230.815 229.027 230.793 228.092 230.731C226.967 230.653 224.71 230.535 224.111 229.354Z" fill="#263238"/>
<path d="M237.08 225.68C236.168 224.56 234.616 225.159 233.754 225.966C232.298 227.377 231.238 229.146 230.68 231.095C230.68 231.14 230.68 231.163 230.736 231.168C230.736 231.331 230.909 231.499 231.088 231.42C232.841 230.664 234.807 230.076 236.274 228.805C237.131 228.038 237.943 226.716 237.08 225.68ZM233.519 229.707C232.668 230.099 231.805 230.446 230.965 230.871C231.57 229.869 232.124 228.85 232.824 227.915C233.155 227.458 233.516 227.024 233.905 226.615C234.516 225.999 236.996 224.622 236.744 227.013C236.588 228.329 234.527 229.236 233.519 229.707Z" fill="#263238"/>
<path d="M250.358 228.804C250.486 229.549 250.604 230.282 250.722 230.988C251.461 235.546 251.898 239.058 251.556 239.388C250.509 240.39 219.076 246.696 217.906 246.55C216.735 246.405 217.071 243.05 218.096 241.835C218.718 241.096 223.013 237.915 226.283 235.552C228.389 234.034 230.069 232.836 230.069 232.836L223.763 212.452L244.886 208.297C244.886 208.297 250.156 227.594 250.358 228.804Z" fill="#AD6359"/>
<path d="M217.901 246.54C219.077 246.68 250.51 240.38 251.557 239.378C251.899 239.053 251.462 235.542 250.717 230.978C250.605 230.272 250.488 229.538 250.359 228.788C250.286 228.368 249.592 225.73 248.729 222.482L228.166 226.61L230.081 232.798C230.081 232.798 228.401 233.99 226.296 235.514C223.025 237.888 218.73 241.058 218.108 241.797C217.072 243.04 216.72 246.4 217.901 246.54Z" fill="#EBEBEB"/>
<path d="M217.643 246.742C218.422 246.837 232.052 244.126 241.931 241.909C244.215 241.399 246.304 240.906 247.979 240.492C250.292 239.932 251.832 239.467 252.056 239.254C252.436 238.885 250.028 225.999 249.608 224.504L228.709 228.827L229.936 232.691C229.936 232.691 218.864 240.666 217.839 241.92C216.815 243.174 216.445 246.596 217.643 246.742Z" fill="#FDC500"/>
<path d="M218.136 245.281C223.496 244.043 245.24 239.546 250.616 238.729C250.661 238.729 250.667 238.729 250.616 238.762C245.33 240.106 223.552 244.424 218.136 245.37C218.041 245.415 218.024 245.331 218.136 245.281Z" fill="#263238"/>
<path d="M223.792 223.888C223.562 223.776 217.441 197.49 214.647 186.766C210.615 171.293 206.712 146.082 205.536 140.846C203.12 134.796 201.479 128.464 200.652 122.002H226.065C226.065 122.002 232.729 134.753 229.291 143.764C228.977 144.587 233.732 176.434 236.184 181.586C238.312 186.066 248 218.703 248 218.703L223.792 223.888Z" fill="#263238"/>
<path d="M223.927 218.495C224.548 218.271 225.215 218.159 225.853 217.991C226.491 217.823 227.208 217.649 227.891 217.493C229.252 217.185 230.613 216.893 231.979 216.597C234.707 216.037 237.445 215.477 240.178 214.917C240.928 214.76 241.679 214.614 242.418 214.474C243.165 214.289 243.928 214.173 244.697 214.127C244.704 214.131 244.71 214.137 244.714 214.143C244.718 214.15 244.72 214.158 244.72 214.166C244.72 214.174 244.718 214.182 244.714 214.189C244.71 214.196 244.704 214.201 244.697 214.205C244.077 214.446 243.439 214.633 242.787 214.765C242.11 214.933 241.432 215.09 240.749 215.247C239.411 215.549 238.067 215.857 236.728 216.149C234.018 216.709 231.319 217.341 228.603 217.89C227.83 218.041 227.063 218.204 226.29 218.327C225.517 218.45 224.744 218.657 223.966 218.719C223.887 218.685 223.815 218.54 223.927 218.495Z" fill="#37474F"/>
<path d="M212.19 139.658C212.677 142.306 213.086 144.966 213.522 147.621C213.746 148.976 214.043 150.314 214.267 151.67C214.491 153.025 214.704 154.324 214.917 155.657C215.775 160.999 216.628 166.345 217.476 171.695L218.753 179.658C219.148 182.273 219.685 184.864 220.36 187.42C221.06 189.974 221.883 192.494 222.662 195.025C223.44 197.556 224.258 200.21 225.053 202.809C226.638 207.966 226.414 208.846 227.853 214.048C228.026 214.698 228.206 215.342 228.413 215.991C228.413 216.064 228.323 216.092 228.295 216.019C226.542 210.906 226.789 210.027 225.159 204.875C223.53 199.723 221.894 194.622 220.36 189.464C219.612 186.954 219.013 184.401 218.568 181.82C218.114 179.166 217.722 176.494 217.297 173.834C216.446 168.492 215.592 163.146 214.738 157.796C214.318 155.17 213.853 152.543 213.528 149.9C213.192 147.162 212.722 144.446 212.313 141.718C212.212 141.052 212.117 140.386 212.027 139.714C211.954 139.579 212.162 139.518 212.19 139.658Z" fill="#37474F"/>
<path d="M190.338 233.52C192.5 233.106 195.148 233.42 196.812 234.954C196.873 235.01 196.812 235.1 196.722 235.077C194.647 234.426 192.509 233.997 190.344 233.795C190.312 233.789 190.283 233.773 190.262 233.748C190.241 233.723 190.229 233.692 190.229 233.66C190.228 233.628 190.238 233.596 190.258 233.571C190.278 233.545 190.306 233.527 190.338 233.52Z" fill="#263238"/>
<path d="M188.781 234.455C190.943 234.035 193.592 234.354 195.255 235.883C195.317 235.944 195.255 236.034 195.165 236.011C193.09 235.36 190.952 234.93 188.787 234.729C188.755 234.723 188.726 234.707 188.705 234.682C188.684 234.657 188.673 234.626 188.672 234.594C188.671 234.562 188.682 234.53 188.702 234.505C188.722 234.479 188.75 234.462 188.781 234.455Z" fill="#263238"/>
<path d="M187.225 235.408C189.386 234.988 192.035 235.307 193.698 236.836C193.76 236.897 193.698 236.987 193.609 236.965C191.535 236.308 189.397 235.878 187.23 235.682C187.199 235.676 187.17 235.66 187.149 235.635C187.128 235.611 187.116 235.58 187.115 235.547C187.115 235.515 187.125 235.483 187.145 235.458C187.165 235.432 187.193 235.415 187.225 235.408Z" fill="#263238"/>
<path d="M185.668 236.359C187.829 235.939 190.478 236.258 192.141 237.787C192.203 237.848 192.141 237.938 192.052 237.916C189.98 237.26 187.843 236.83 185.679 236.633C185.647 236.628 185.618 236.612 185.596 236.588C185.575 236.564 185.562 236.533 185.561 236.501C185.559 236.468 185.569 236.436 185.589 236.411C185.608 236.385 185.636 236.366 185.668 236.359Z" fill="#263238"/>
<path d="M187.297 231.599C188.832 232.781 190.831 233.279 192.623 233.906C192.808 233.974 192.953 233.8 192.959 233.632C192.968 233.632 192.977 233.629 192.985 233.625C192.993 233.62 193 233.614 193.005 233.606C193.01 233.599 193.013 233.59 193.014 233.581C193.014 233.571 193.013 233.562 193.009 233.554C192.342 231.641 191.183 229.937 189.649 228.614C188.742 227.864 187.157 227.349 186.289 228.525C185.421 229.701 186.396 230.91 187.297 231.599ZM186.737 229.863C186.345 227.489 188.899 228.743 189.537 229.303C189.949 229.688 190.334 230.099 190.691 230.535C191.415 231.446 192.092 232.393 192.718 233.374C191.861 232.999 190.976 232.702 190.103 232.361C189.067 231.958 186.95 231.168 186.732 229.863H186.737Z" fill="#263238"/>
<path d="M200.216 230.211C199.684 228.867 198.021 228.979 196.951 229.488C195.136 230.399 193.591 231.77 192.471 233.464C192.467 233.472 192.464 233.48 192.463 233.489C192.462 233.498 192.464 233.506 192.467 233.515C192.47 233.523 192.475 233.53 192.482 233.536C192.489 233.542 192.497 233.546 192.505 233.548C192.491 233.588 192.488 233.631 192.494 233.673C192.501 233.715 192.518 233.755 192.543 233.789C192.568 233.823 192.602 233.851 192.64 233.869C192.678 233.888 192.72 233.897 192.763 233.895C194.661 233.699 196.711 233.727 198.491 232.955C199.544 232.507 200.72 231.487 200.216 230.211ZM195.596 233.011C194.667 233.134 193.737 233.207 192.796 233.358C193.644 232.566 194.532 231.819 195.456 231.118C195.908 230.78 196.383 230.475 196.879 230.205C197.646 229.796 200.423 229.225 199.466 231.426C198.945 232.624 196.705 232.871 195.596 233.011Z" fill="#263238"/>
<path d="M212.015 231.012C212.015 232.294 211.455 245.135 211.063 245.381C209.842 246.16 177.782 246.255 176.662 245.885C175.542 245.516 176.522 242.29 177.782 241.293C178.538 240.688 183.382 238.409 187.033 236.718C189.397 235.632 191.273 234.786 191.273 234.786L191.172 231.023L190.881 213.887H212.06C212.06 213.887 212.161 222.696 212.015 231.012Z" fill="#AD6359"/>
<path d="M176.657 245.879C177.777 246.248 209.842 246.153 211.063 245.38C211.461 245.128 211.998 232.287 212.015 231.011C212.015 230.159 212.015 229.331 212.049 228.457H191.116L191.161 231.011L191.267 234.768C191.267 234.768 189.386 235.619 187.028 236.706C183.36 238.386 178.533 240.682 177.777 241.287C176.522 242.283 175.542 245.509 176.657 245.879Z" fill="#EBEBEB"/>
<path d="M175.9 246.142C176.645 246.388 190.544 246.388 200.663 246.142C203.004 246.086 205.144 246.013 206.874 245.929C209.26 245.812 210.855 245.677 211.113 245.515C211.561 245.224 212.2 232.114 212.076 230.568L190.892 230.68L190.819 234.718C190.819 234.718 178.286 240.413 177.015 241.438C175.744 242.463 174.758 245.761 175.9 246.142Z" fill="#FDC500"/>
<path d="M176.668 244.826C182.167 244.658 204.366 244.495 209.815 244.747C209.859 244.747 209.859 244.775 209.815 244.781C204.366 245.067 182.167 245.05 176.668 244.921C176.551 244.915 176.551 244.831 176.668 244.826Z" fill="#263238"/>
<path d="M215.8 144.721C215.8 144.721 212.177 180.248 212.121 181.082C212.093 181.413 213.672 224.824 213.672 224.824H189.727C189.727 224.824 190.578 184.145 190.942 179.128C190.987 178.568 192.532 142.431 199.504 122.008H226.099C226.099 122.008 225.869 134.02 220.403 142.728C218.833 143.307 217.297 143.973 215.8 144.721Z" fill="#263238"/>
<path d="M191.238 220.338C191.894 220.242 192.566 220.265 193.226 220.231C193.887 220.198 194.626 220.164 195.321 220.147C196.721 220.119 198.121 220.108 199.51 220.091C202.31 220.058 205.11 220.091 207.91 220.091C208.677 220.091 209.438 220.091 210.2 220.091C210.969 220.062 211.74 220.103 212.502 220.214C212.541 220.214 212.535 220.282 212.502 220.293C211.848 220.397 211.187 220.446 210.525 220.438C209.825 220.466 209.13 220.483 208.43 220.5C207.058 220.5 205.681 220.556 204.309 220.573C201.509 220.612 198.77 220.657 195.998 220.651C195.214 220.651 194.43 220.651 193.646 220.618C192.862 220.584 192.062 220.618 191.289 220.534C191.166 220.517 191.121 220.354 191.238 220.338Z" fill="#37474F"/>
<path d="M197.949 126.936C197.949 126.891 198.033 126.902 198.027 126.936C197.926 128.448 197.674 130.1 198.346 131.528C198.94 132.788 200.066 133.499 201.107 134.328C201.141 134.328 201.107 134.406 201.062 134.395C199.685 133.975 198.307 133.208 197.764 131.791C197.154 130.24 197.478 128.509 197.949 126.936Z" fill="#37474F"/>
<path d="M209.484 143.919C210.592 143.884 211.702 143.921 212.805 144.031C213.888 144.089 214.973 144.068 216.053 143.969C216.596 143.916 217.135 143.826 217.666 143.701C218.226 143.572 218.741 143.37 219.284 143.219C219.779 143.111 220.294 143.131 220.779 143.275C221.339 143.404 221.933 143.499 222.521 143.572C223.854 143.767 225.206 143.802 226.547 143.678C226.598 143.678 226.62 143.745 226.547 143.757C225.421 143.996 224.272 144.116 223.12 144.115C222.529 144.1 221.94 144.045 221.356 143.953C220.821 143.801 220.266 143.73 219.71 143.74C219.164 143.896 218.627 144.083 218.102 144.3C217.565 144.446 217.019 144.556 216.467 144.63C215.363 144.775 214.247 144.81 213.135 144.737C211.881 144.708 210.635 144.52 209.428 144.177C209.394 144.169 209.364 144.148 209.345 144.119C209.326 144.09 209.32 144.054 209.327 144.02C209.335 143.986 209.355 143.956 209.385 143.937C209.414 143.918 209.45 143.912 209.484 143.919Z" fill="#37474F"/>
<path d="M212.061 179.127C212.07 179.123 212.08 179.123 212.089 179.127C212.094 179.124 212.1 179.123 212.105 179.123C212.111 179.123 212.117 179.124 212.122 179.127C212.126 179.138 212.126 179.15 212.122 179.16V179.244C212.111 179.249 212.099 179.249 212.089 179.244V179.16C212.081 179.158 212.074 179.154 212.069 179.148C212.064 179.142 212.061 179.135 212.061 179.127Z" fill="#37474F"/>
<path d="M212.693 173.04C212.905 170.733 213.131 168.429 213.37 166.13C213.852 161.526 214.311 156.923 214.787 152.314C215.056 149.705 215.246 147.073 215.677 144.474C215.677 144.407 215.789 144.402 215.789 144.474C215.75 146.782 215.504 149.094 215.308 151.39C215.112 153.686 214.91 155.999 214.692 158.301C214.261 162.91 213.846 167.518 213.309 172.116C213.156 173.419 212.993 174.726 212.821 176.036C212.653 177.341 212.424 178.64 212.261 179.956C212.261 180.012 212.172 180.012 212.172 179.956C212.373 177.621 212.48 175.308 212.693 173.04Z" fill="#37474F"/>
<path d="M159.364 112.901L219.446 104.854L214.02 64.6797L153.938 72.7213L159.364 112.901Z" fill="#EBEBEB"/>
<path d="M161.526 110.062L216.613 102.687L211.858 67.5137L156.766 74.8889L161.526 110.062Z" fill="#FDC500"/>
<path opacity="0.1" d="M163.817 83.6747C163.95 84.674 164.376 85.6114 165.042 86.3683C165.708 87.1252 166.583 87.6676 167.558 87.9269C168.532 88.1861 169.561 88.1506 170.515 87.8248C171.469 87.499 172.305 86.8975 172.917 86.0965C173.529 85.2955 173.89 84.3309 173.954 83.3248C174.018 82.3187 173.782 81.3163 173.276 80.4444C172.77 79.5724 172.016 78.8702 171.111 78.4265C170.206 77.9827 169.19 77.8174 168.19 77.9515C167.527 78.0398 166.888 78.2579 166.309 78.5934C165.73 78.9288 165.223 79.3751 164.817 79.9066C164.411 80.4381 164.114 81.0445 163.942 81.6911C163.77 82.3376 163.728 83.0117 163.817 83.6747Z" fill="black"/>
<path opacity="0.2" d="M178.639 107.828L216.584 102.743L194.167 79.5645L178.639 107.828Z" fill="black"/>
<path d="M163.76 109.832L195.092 105.638L177.183 90.9824L163.76 109.832Z" fill="#FDC500"/>
<path opacity="0.1" d="M163.76 109.832L195.092 105.638L177.183 90.9824L163.76 109.832Z" fill="black"/>
<path d="M205.653 72.6038C205.121 72.7046 202.764 72.5758 201.33 74.8046C199.975 76.9158 199.841 83.0758 199.605 84.431C199.37 85.7862 197.634 86.111 197.315 87.6734C197.046 89.0286 198.049 89.4598 198.205 90.4342C198.334 91.1902 197.645 92.3718 198.401 93.4526C199.096 94.4382 200.188 94.1526 200.877 94.427C201.565 94.7014 202.081 96.2302 203.346 96.5718C204.612 96.9134 205.637 95.715 206.292 95.6814C206.947 95.6478 207.854 97.6134 209.988 97.3054C212.121 96.9974 212.625 95.1382 213.488 94.7294C214.35 94.3206 216.613 94.791 217.559 93.6094C218.505 92.4278 218.589 90.9494 219.009 90.3782C219.429 89.807 220.398 89.8182 220.885 88.5414C221.373 87.2646 220.157 86.5198 219.922 85.439C219.76 84.683 220.393 83.9438 219.844 82.8126C219.093 81.2558 217.161 81.7206 216.316 80.1246C215.649 78.8758 214.076 73.3598 210.626 72.195C208.235 71.4054 205.653 72.6038 205.653 72.6038Z" fill="#263238"/>
<path d="M199.65 84.1055C199.537 84.3956 199.357 84.6547 199.124 84.8615L198.463 85.5055C198.01 85.9043 197.621 86.3709 197.31 86.8887C197.166 87.1354 197.082 87.4119 197.064 87.6966C197.045 87.9812 197.093 88.2663 197.203 88.5295C197.331 88.7912 197.498 89.0327 197.696 89.2463C197.92 89.477 198.108 89.7392 198.256 90.0247C198.366 90.3536 198.366 90.7094 198.256 91.0383C198.172 91.3463 198.082 91.6319 198.015 91.9231C197.929 92.1998 197.899 92.491 197.927 92.7794C197.955 93.0679 198.04 93.3479 198.178 93.6031C198.312 93.8571 198.532 94.0554 198.799 94.1631C199.077 94.2624 199.372 94.308 199.667 94.2975C199.97 94.2975 200.272 94.2975 200.586 94.2583C200.894 94.2152 201.208 94.266 201.487 94.4039C201.2 94.3011 200.889 94.2817 200.591 94.3479C200.289 94.3871 199.986 94.4431 199.673 94.4711C199.352 94.5006 199.029 94.4682 198.721 94.3759C198.404 94.2643 198.132 94.0518 197.948 93.7711C197.769 93.4864 197.652 93.167 197.606 92.8339C197.56 92.5009 197.585 92.1618 197.679 91.8391C197.746 91.5311 197.836 91.2343 197.909 90.9431C197.992 90.6845 197.992 90.4064 197.909 90.1479C197.696 89.6663 197.114 89.2631 196.867 88.6415C196.74 88.3343 196.688 88.001 196.717 87.6697C196.745 87.3384 196.852 87.0187 197.03 86.7375C197.378 86.2159 197.807 85.7529 198.301 85.3655L199.012 84.7775C199.272 84.6034 199.49 84.3739 199.65 84.1055Z" fill="#263238"/>
<path d="M213.947 75.168C214.539 76.0989 215.072 77.0658 215.543 78.0632C215.801 78.5448 216.047 79.0376 216.338 79.4912C216.478 79.714 216.639 79.9222 216.82 80.1128C216.858 80.1581 216.903 80.1961 216.954 80.2248C217.001 80.2634 217.054 80.2938 217.111 80.3144C217.229 80.3648 217.352 80.4152 217.481 80.46C217.985 80.6504 218.522 80.8128 219.032 81.0648C219.564 81.2978 220.012 81.6888 220.314 82.1848C220.463 82.4439 220.542 82.7372 220.544 83.036C220.528 83.3222 220.459 83.603 220.342 83.8648C220.083 84.3499 219.939 84.8885 219.922 85.4384C219.873 84.8823 219.961 84.3225 220.18 83.8088C220.272 83.5614 220.319 83.2998 220.32 83.036C220.299 82.781 220.217 82.535 220.079 82.3192C219.786 81.8833 219.371 81.5427 218.886 81.3392C218.386 81.1248 217.873 80.9378 217.352 80.7792C217.223 80.7288 217.089 80.6784 216.96 80.6168C216.817 80.5507 216.687 80.4575 216.579 80.3424C216.383 80.1299 216.211 79.8971 216.064 79.648C215.775 79.173 215.519 78.6791 215.297 78.1696L214.63 76.6576C214.431 76.1486 214.203 75.6513 213.947 75.168Z" fill="#263238"/>
<path d="M219.518 89.9863C219.35 90.3372 219.253 90.7178 219.233 91.1063C219.171 91.4927 219.115 91.8847 219.037 92.2767C218.964 92.6741 218.85 93.0627 218.695 93.4359C218.54 93.832 218.29 94.1839 217.967 94.4607C217.257 94.9053 216.403 95.0597 215.582 94.8919C215.184 94.8471 214.792 94.7743 214.406 94.7351C214.02 94.6713 213.625 94.6981 213.252 94.8135C213.611 94.6278 214.013 94.5427 214.417 94.5671C214.814 94.5671 215.212 94.6063 215.598 94.6231C216.346 94.7246 217.107 94.5686 217.754 94.1807C218.033 93.9419 218.252 93.6407 218.393 93.3015C218.546 92.9493 218.674 92.5862 218.774 92.2151C218.886 91.8399 218.97 91.4535 219.065 91.0951C219.115 90.9047 219.171 90.7087 219.233 90.5351C219.275 90.329 219.374 90.1388 219.518 89.9863Z" fill="#263238"/>
<path d="M212.418 92.1149C212.378 92.6413 210.497 96.3261 208.162 96.5949C207.4 96.6789 206.745 92.5517 206.745 92.5517L206.627 92.2549L204.947 88.1445L209.427 84.1069L210.082 83.5469C210.082 83.5469 210.458 84.7061 210.911 86.1453L210.978 86.3525C211.006 86.4309 211.034 86.5093 211.057 86.5877C211.124 86.8005 211.197 87.0189 211.264 87.2429L211.415 87.7469C211.466 87.9261 211.51 88.0997 211.566 88.2733C211.937 89.5329 212.222 90.8165 212.418 92.1149Z" fill="#AD6359"/>
<path d="M210.957 86.1621C210.723 87.4303 210.215 88.6324 209.47 89.6846C208.724 90.7368 207.758 91.6139 206.639 92.2549L204.959 88.1445L209.439 84.1069L210.094 83.5469C210.094 83.5469 210.503 84.7229 210.957 86.1621Z" fill="#263238"/>
<path d="M197.831 81.4688C196.61 89.152 201.04 90.8264 202.731 90.9888C204.243 91.1568 209.384 91.8456 211.394 84.3304C213.405 76.8152 210.224 73.8192 206.808 73.0968C203.392 72.3744 199.057 73.7856 197.831 81.4688Z" fill="#AD6359"/>
<path d="M198.475 80.4267C198.66 80.4267 198.828 80.3875 199.035 80.3651C199.226 80.3672 199.412 80.3083 199.567 80.1971C199.608 80.1509 199.633 80.0926 199.638 80.031C199.643 79.9694 199.628 79.9079 199.595 79.8555C199.513 79.7647 199.41 79.6967 199.294 79.6584C199.178 79.6201 199.054 79.6128 198.934 79.6371C198.684 79.6523 198.448 79.7601 198.273 79.9395C198.236 79.9804 198.211 80.031 198.202 80.0855C198.192 80.14 198.198 80.1961 198.219 80.2472C198.241 80.2983 198.276 80.3423 198.321 80.3741C198.366 80.4059 198.42 80.4242 198.475 80.4267Z" fill="#263238"/>
<path d="M203.319 81.0824C203.144 81.0394 202.972 80.9871 202.804 80.9256C202.615 80.8946 202.442 80.8021 202.311 80.6624C202.278 80.611 202.263 80.5504 202.269 80.4897C202.274 80.4291 202.298 80.3718 202.339 80.3264C202.435 80.2515 202.549 80.2028 202.67 80.1852C202.791 80.1675 202.914 80.1814 203.028 80.2256C203.271 80.2862 203.484 80.4335 203.627 80.64C203.655 80.6889 203.67 80.7451 203.667 80.8017C203.665 80.8584 203.647 80.9133 203.614 80.9598C203.582 81.0063 203.537 81.0426 203.485 81.0644C203.432 81.0861 203.375 81.0924 203.319 81.0824Z" fill="#263238"/>
<path d="M202.009 82.8789C202.009 82.8789 202.042 82.9125 202.042 82.9293C201.964 83.4557 201.969 84.0493 202.423 84.2957V84.3293C201.846 84.1837 201.852 83.3717 202.009 82.8789Z" fill="#263238"/>
<path d="M202.539 82.3929C203.391 82.4209 203.267 84.1289 202.478 84.0729C201.688 84.0169 201.823 82.3649 202.539 82.3929Z" fill="#263238"/>
<path d="M202.866 82.5044C203.006 82.6108 203.14 82.79 203.319 82.8236C203.498 82.8572 203.694 82.6892 203.846 82.5324H203.874C203.874 82.8628 203.706 83.1876 203.347 83.21C202.989 83.2324 202.821 82.9244 202.759 82.594C202.748 82.5492 202.81 82.4596 202.866 82.5044Z" fill="#263238"/>
<path d="M199.325 82.4492C199.325 82.4492 199.286 82.4492 199.286 82.494C199.286 83.026 199.157 83.614 198.67 83.7708V83.8044C199.258 83.7596 199.398 82.9532 199.325 82.4492Z" fill="#263238"/>
<path d="M198.894 81.8652C198.043 81.7476 197.869 83.45 198.653 83.5452C199.437 83.6404 199.599 81.966 198.894 81.8652Z" fill="#263238"/>
<path d="M198.525 81.9451C198.38 82.0179 198.234 82.1691 198.072 82.1635C197.909 82.1579 197.764 81.9563 197.663 81.7715C197.663 81.7715 197.663 81.7715 197.635 81.7715C197.596 82.0963 197.668 82.4491 197.971 82.5443C198.273 82.6395 198.486 82.3707 198.598 82.0571C198.62 82.0067 198.581 81.9115 198.525 81.9451Z" fill="#263238"/>
<path d="M201.874 87.0003C201.757 87.1291 201.639 87.3083 201.449 87.3419C201.258 87.3443 201.068 87.3121 200.889 87.2467C200.973 87.3444 201.082 87.4181 201.204 87.4604C201.325 87.5026 201.456 87.512 201.583 87.4875C201.689 87.4519 201.782 87.3855 201.85 87.2966C201.918 87.2078 201.957 87.1007 201.964 86.9891C201.964 86.9891 201.891 86.9779 201.874 87.0003Z" fill="#263238"/>
<path d="M199.672 84.8738C199.672 84.8738 199.498 85.6522 199.465 86.0218C199.465 86.061 199.549 86.0834 199.678 86.1002C199.992 86.187 200.325 86.1847 200.638 86.0938C200.951 86.0028 201.233 85.8267 201.453 85.585C201.481 85.5514 201.453 85.5122 201.402 85.529C200.902 85.8145 200.322 85.9304 199.75 85.8594C199.75 85.753 200.092 84.5322 200.036 84.521C199.744 84.5238 199.454 84.5652 199.174 84.6442C199.493 83.009 200.07 81.441 200.361 79.8114C200.365 79.7988 200.364 79.7849 200.359 79.7728C200.353 79.7608 200.343 79.7515 200.33 79.747C200.317 79.7426 200.303 79.7433 200.291 79.7491C200.279 79.7549 200.27 79.7652 200.266 79.7778C199.596 81.4412 199.093 83.167 198.765 84.9298C198.731 85.1202 199.521 84.9242 199.672 84.8738Z" fill="#263238"/>
<path d="M199.947 85.9717C200.104 86.2454 200.327 86.4748 200.597 86.6381C200.75 86.7181 200.923 86.7512 201.095 86.7333C201.465 86.6885 201.521 86.3637 201.493 86.0669C201.476 85.9124 201.442 85.7603 201.392 85.6133C200.961 85.8834 200.455 86.009 199.947 85.9717Z" fill="#263238"/>
<path d="M200.598 86.6377C200.751 86.7177 200.924 86.7508 201.096 86.7329C201.466 86.6881 201.522 86.3633 201.494 86.0665C201.302 86.048 201.11 86.0942 200.947 86.1977C200.785 86.3012 200.662 86.4561 200.598 86.6377Z" fill="#FF99BA"/>
<path d="M210.973 85.6794C210.155 85.4386 208.033 82.2242 208.889 78.2034C208.889 78.2034 208.369 81.8714 208.514 82.4594C208.66 83.0474 207.607 80.897 208.251 77.6434C207.066 78.1375 205.815 78.4581 204.538 78.5954C202.914 78.6738 201.985 78.4442 201.901 78.3098C201.817 78.1754 204.225 77.985 204.992 77.425C204.992 77.425 200.512 78.3714 198.597 78.0858C198.378 78.0522 199.157 73.5386 202.472 72.3178C205.787 71.097 209.914 74.1938 210.872 75.6778C210.872 75.6778 212.266 76.2378 213.347 78.7186C214.428 81.1994 211.852 85.9594 210.973 85.6794Z" fill="#263238"/>
<path d="M208.258 83.0804C208.258 83.0804 210.045 80.7172 211.12 81.3612C212.195 82.0052 210.795 85.4772 209.485 85.914C209.319 85.9788 209.143 86.0096 208.966 86.0045C208.788 85.9994 208.614 85.9584 208.453 85.8841C208.292 85.8099 208.147 85.7038 208.028 85.5723C207.909 85.4407 207.818 85.2865 207.76 85.1188L208.258 83.0804Z" fill="#AD6359"/>
<path d="M198.888 114.906L199.504 121.984C199.504 121.984 219.546 122.438 226.065 121.984C226.065 121.984 222.951 100.413 215.794 93.9337C211.964 90.4617 209.371 89.7169 206.745 92.3769C206.084 93.0489 198.166 103.51 197.337 107.497C196.609 111.025 198.888 114.906 198.888 114.906Z" fill="#8471FE"/>
<path d="M207.759 94.5112C207.759 94.622 207.726 94.7303 207.664 94.8224C207.603 94.9145 207.515 94.9862 207.413 95.0286C207.311 95.071 207.198 95.0821 207.089 95.0605C206.981 95.0389 206.881 94.9855 206.803 94.9072C206.724 94.8289 206.671 94.7291 206.649 94.6205C206.628 94.5119 206.639 94.3993 206.681 94.2969C206.724 94.1946 206.795 94.1072 206.888 94.0456C206.98 93.9841 207.088 93.9512 207.199 93.9512C207.347 93.9512 207.49 94.0102 207.595 94.1153C207.7 94.2203 207.759 94.3627 207.759 94.5112ZM213.359 93.9512C213.248 93.9512 213.14 93.9841 213.048 94.0456C212.955 94.1072 212.884 94.1946 212.841 94.2969C212.799 94.3993 212.788 94.5119 212.809 94.6205C212.831 94.7291 212.884 94.8289 212.963 94.9072C213.041 94.9855 213.141 95.0389 213.249 95.0605C213.358 95.0821 213.471 95.071 213.573 95.0286C213.675 94.9862 213.763 94.9145 213.824 94.8224C213.886 94.7303 213.919 94.622 213.919 94.5112C213.913 94.3666 213.851 94.2299 213.747 94.1297C213.643 94.0294 213.503 93.9735 213.359 93.9736V93.9512ZM209.937 90.748C210.032 90.8304 210.153 90.876 210.279 90.8768C210.386 90.8766 210.491 90.8455 210.581 90.7872C210.365 90.7648 210.148 90.7592 209.931 90.7704L209.937 90.748ZM201.039 102.57C200.927 102.564 200.816 102.592 200.72 102.65C200.625 102.708 200.549 102.794 200.502 102.895C200.455 102.997 200.44 103.11 200.458 103.221C200.477 103.331 200.528 103.434 200.605 103.515C200.682 103.596 200.781 103.652 200.891 103.676C201 103.7 201.114 103.691 201.218 103.649C201.322 103.608 201.411 103.536 201.474 103.443C201.537 103.351 201.571 103.242 201.571 103.13C201.571 102.986 201.516 102.847 201.417 102.743C201.318 102.639 201.182 102.577 201.039 102.57ZM207.199 102.57C207.088 102.57 206.98 102.602 206.888 102.664C206.795 102.726 206.724 102.813 206.681 102.915C206.639 103.018 206.628 103.13 206.649 103.239C206.671 103.348 206.724 103.447 206.803 103.526C206.881 103.604 206.981 103.657 207.089 103.679C207.198 103.7 207.311 103.689 207.413 103.647C207.515 103.605 207.603 103.533 207.664 103.441C207.726 103.349 207.759 103.24 207.759 103.13C207.763 103.055 207.751 102.98 207.724 102.911C207.698 102.841 207.656 102.778 207.604 102.725C207.551 102.672 207.487 102.631 207.418 102.604C207.348 102.577 207.273 102.566 207.199 102.57ZM213.359 102.57C213.248 102.57 213.14 102.602 213.048 102.664C212.955 102.726 212.884 102.813 212.841 102.915C212.799 103.018 212.788 103.13 212.809 103.239C212.831 103.348 212.884 103.447 212.963 103.526C213.041 103.604 213.141 103.657 213.249 103.679C213.358 103.7 213.471 103.689 213.573 103.647C213.675 103.605 213.763 103.533 213.824 103.441C213.886 103.349 213.919 103.24 213.919 103.13C213.924 103.055 213.913 102.98 213.886 102.91C213.86 102.839 213.819 102.776 213.766 102.723C213.713 102.67 213.649 102.629 213.579 102.602C213.509 102.576 213.434 102.565 213.359 102.57ZM219.519 102.57C219.407 102.564 219.296 102.592 219.2 102.65C219.105 102.708 219.029 102.794 218.982 102.895C218.935 102.997 218.92 103.11 218.938 103.221C218.957 103.331 219.008 103.434 219.085 103.515C219.162 103.596 219.261 103.652 219.371 103.676C219.48 103.7 219.594 103.691 219.698 103.649C219.802 103.608 219.891 103.536 219.954 103.443C220.017 103.351 220.051 103.242 220.051 103.13C220.055 103.057 220.045 102.985 220.02 102.917C219.995 102.848 219.957 102.786 219.907 102.733C219.857 102.681 219.797 102.639 219.73 102.611C219.663 102.583 219.591 102.569 219.519 102.57ZM204.124 98.42C204.011 98.4145 203.899 98.4433 203.803 98.5027C203.707 98.562 203.631 98.6491 203.585 98.7525C203.539 98.8559 203.526 98.9707 203.546 99.0819C203.567 99.1931 203.621 99.2954 203.701 99.3754C203.781 99.4553 203.883 99.5092 203.994 99.5299C204.106 99.5506 204.22 99.5372 204.324 99.4914C204.427 99.4456 204.514 99.3695 204.574 99.2732C204.633 99.177 204.662 99.065 204.656 98.952C204.649 98.8122 204.59 98.6801 204.491 98.5816C204.391 98.4831 204.259 98.4255 204.119 98.42H204.124ZM210.284 98.42C210.172 98.4202 210.063 98.4539 209.97 98.5167C209.878 98.5796 209.806 98.6688 209.765 98.7727C209.723 98.8767 209.714 98.9907 209.738 99.1C209.762 99.2093 209.818 99.309 209.899 99.386C209.98 99.4631 210.083 99.5141 210.193 99.5325C210.304 99.5508 210.417 99.5357 210.519 99.4889C210.62 99.4422 210.706 99.3661 210.764 99.2704C210.822 99.1747 210.85 99.0638 210.844 98.952C210.837 98.8065 210.773 98.6695 210.667 98.5701C210.56 98.4708 210.419 98.4169 210.273 98.42H210.284ZM216.444 98.42C216.331 98.4145 216.219 98.4433 216.123 98.5027C216.027 98.562 215.951 98.6491 215.905 98.7525C215.859 98.8559 215.846 98.9707 215.866 99.0819C215.887 99.1931 215.941 99.2954 216.021 99.3754C216.101 99.4553 216.203 99.5092 216.314 99.5299C216.426 99.5506 216.54 99.5372 216.644 99.4914C216.747 99.4456 216.834 99.3695 216.894 99.2732C216.953 99.177 216.982 99.065 216.976 98.952C216.976 98.8812 216.962 98.8111 216.935 98.7458C216.907 98.6806 216.867 98.6214 216.817 98.5718C216.766 98.5223 216.706 98.4834 216.64 98.4573C216.574 98.4312 216.504 98.4186 216.433 98.42H216.444ZM201.039 111.16C200.926 111.155 200.814 111.183 200.717 111.243C200.621 111.302 200.545 111.389 200.499 111.493C200.454 111.596 200.44 111.711 200.461 111.822C200.482 111.933 200.535 112.035 200.615 112.115C200.695 112.195 200.798 112.249 200.909 112.27C201.02 112.291 201.135 112.277 201.238 112.231C201.342 112.186 201.429 112.11 201.488 112.013C201.547 111.917 201.576 111.805 201.571 111.692C201.564 111.553 201.506 111.422 201.407 111.323C201.309 111.225 201.178 111.167 201.039 111.16ZM207.199 111.16C207.085 111.195 206.985 111.267 206.914 111.363C206.843 111.459 206.805 111.575 206.805 111.695C206.805 111.814 206.843 111.931 206.914 112.027C206.985 112.123 207.085 112.194 207.199 112.23C207.282 112.256 207.371 112.262 207.458 112.247C207.544 112.232 207.626 112.198 207.697 112.146C207.768 112.094 207.825 112.026 207.865 111.947C207.904 111.869 207.925 111.783 207.925 111.695C207.925 111.607 207.904 111.521 207.865 111.442C207.825 111.364 207.768 111.296 207.697 111.244C207.626 111.192 207.544 111.157 207.458 111.143C207.371 111.128 207.282 111.134 207.199 111.16ZM213.359 111.16C213.245 111.195 213.145 111.267 213.074 111.363C213.003 111.459 212.965 111.575 212.965 111.695C212.965 111.814 213.003 111.931 213.074 112.027C213.145 112.123 213.245 112.194 213.359 112.23C213.442 112.256 213.531 112.262 213.618 112.247C213.704 112.232 213.786 112.198 213.857 112.146C213.928 112.094 213.985 112.026 214.025 111.947C214.064 111.869 214.085 111.783 214.085 111.695C214.085 111.607 214.064 111.521 214.025 111.442C213.985 111.364 213.928 111.296 213.857 111.244C213.786 111.192 213.704 111.157 213.618 111.143C213.531 111.128 213.442 111.134 213.359 111.16ZM219.519 111.16C219.406 111.155 219.294 111.183 219.197 111.243C219.101 111.302 219.025 111.389 218.979 111.493C218.934 111.596 218.92 111.711 218.941 111.822C218.962 111.933 219.015 112.035 219.095 112.115C219.175 112.195 219.278 112.249 219.389 112.27C219.5 112.291 219.615 112.277 219.718 112.231C219.822 112.186 219.909 112.11 219.968 112.013C220.027 111.917 220.056 111.805 220.051 111.692C220.051 111.622 220.038 111.552 220.012 111.488C219.985 111.423 219.946 111.364 219.897 111.314C219.847 111.265 219.788 111.225 219.723 111.199C219.658 111.173 219.589 111.159 219.519 111.16ZM197.964 107.01C197.851 107.005 197.739 107.034 197.643 107.093C197.547 107.152 197.471 107.24 197.425 107.343C197.379 107.446 197.366 107.561 197.386 107.672C197.407 107.783 197.461 107.886 197.541 107.966C197.621 108.046 197.723 108.1 197.834 108.12C197.946 108.141 198.06 108.128 198.164 108.082C198.267 108.036 198.354 107.96 198.414 107.864C198.473 107.767 198.502 107.655 198.496 107.542C198.489 107.403 198.43 107.27 198.331 107.172C198.231 107.074 198.099 107.016 197.959 107.01H197.964ZM204.124 107.01C204.011 107.005 203.899 107.034 203.803 107.093C203.707 107.152 203.631 107.24 203.585 107.343C203.539 107.446 203.526 107.561 203.546 107.672C203.567 107.783 203.621 107.886 203.701 107.966C203.781 108.046 203.883 108.1 203.994 108.12C204.106 108.141 204.22 108.128 204.324 108.082C204.427 108.036 204.514 107.96 204.574 107.864C204.633 107.767 204.662 107.655 204.656 107.542C204.649 107.403 204.59 107.27 204.491 107.172C204.391 107.074 204.259 107.016 204.119 107.01H204.124ZM210.284 107.01C210.172 107.011 210.063 107.044 209.97 107.107C209.878 107.17 209.806 107.259 209.765 107.363C209.723 107.467 209.714 107.581 209.738 107.69C209.762 107.8 209.818 107.899 209.899 107.976C209.98 108.054 210.083 108.105 210.193 108.123C210.304 108.141 210.417 108.126 210.519 108.079C210.62 108.033 210.706 107.957 210.764 107.861C210.822 107.765 210.85 107.654 210.844 107.542C210.837 107.397 210.773 107.26 210.667 107.161C210.56 107.061 210.419 107.007 210.273 107.01H210.284ZM216.444 107.01C216.331 107.005 216.219 107.034 216.123 107.093C216.027 107.152 215.951 107.24 215.905 107.343C215.859 107.446 215.846 107.561 215.866 107.672C215.887 107.783 215.941 107.886 216.021 107.966C216.101 108.046 216.203 108.1 216.314 108.12C216.426 108.141 216.54 108.128 216.644 108.082C216.747 108.036 216.834 107.96 216.894 107.864C216.953 107.767 216.982 107.655 216.976 107.542C216.976 107.472 216.962 107.402 216.935 107.336C216.907 107.271 216.867 107.212 216.817 107.162C216.766 107.113 216.706 107.074 216.64 107.048C216.574 107.022 216.504 107.009 216.433 107.01H216.444ZM222.643 107.01H222.604C222.52 106.984 222.432 106.978 222.345 106.993C222.259 107.008 222.177 107.042 222.106 107.094C222.035 107.146 221.978 107.214 221.938 107.293C221.899 107.371 221.878 107.457 221.878 107.545C221.878 107.633 221.899 107.72 221.938 107.798C221.978 107.876 222.035 107.944 222.106 107.996C222.177 108.048 222.259 108.083 222.345 108.097C222.432 108.112 222.52 108.106 222.604 108.08C222.722 108.081 222.837 108.042 222.929 107.968C222.828 107.649 222.733 107.33 222.632 107.016L222.643 107.01ZM201.039 119.75C200.926 119.745 200.814 119.774 200.717 119.833C200.621 119.892 200.545 119.98 200.499 120.083C200.454 120.186 200.44 120.301 200.461 120.412C200.482 120.523 200.535 120.626 200.615 120.706C200.695 120.786 200.798 120.84 200.909 120.86C201.02 120.881 201.135 120.868 201.238 120.822C201.342 120.776 201.429 120.7 201.488 120.604C201.547 120.507 201.576 120.395 201.571 120.282C201.564 120.144 201.506 120.012 201.407 119.914C201.309 119.815 201.178 119.757 201.039 119.75ZM207.199 119.75C207.087 119.751 206.977 119.784 206.885 119.847C206.792 119.91 206.721 119.999 206.679 120.103C206.638 120.207 206.628 120.321 206.652 120.43C206.676 120.54 206.733 120.639 206.814 120.716C206.895 120.794 206.997 120.845 207.108 120.863C207.218 120.881 207.331 120.866 207.433 120.819C207.535 120.773 207.62 120.697 207.678 120.601C207.736 120.505 207.764 120.394 207.759 120.282C207.752 120.139 207.689 120.003 207.585 119.904C207.481 119.805 207.342 119.75 207.199 119.75ZM213.359 119.75C213.245 119.786 213.145 119.857 213.074 119.953C213.003 120.049 212.965 120.166 212.965 120.285C212.965 120.405 213.003 120.521 213.074 120.617C213.145 120.714 213.245 120.785 213.359 120.82C213.442 120.846 213.531 120.852 213.618 120.837C213.704 120.823 213.786 120.788 213.857 120.736C213.928 120.684 213.985 120.616 214.025 120.538C214.064 120.46 214.085 120.373 214.085 120.285C214.085 120.197 214.064 120.111 214.025 120.033C213.985 119.954 213.928 119.886 213.857 119.834C213.786 119.782 213.704 119.748 213.618 119.733C213.531 119.718 213.442 119.724 213.359 119.75ZM219.519 119.75C219.406 119.745 219.294 119.774 219.197 119.833C219.101 119.892 219.025 119.98 218.979 120.083C218.934 120.186 218.92 120.301 218.941 120.412C218.962 120.523 219.015 120.626 219.095 120.706C219.175 120.786 219.278 120.84 219.389 120.86C219.5 120.881 219.615 120.868 219.718 120.822C219.822 120.776 219.909 120.7 219.968 120.604C220.027 120.507 220.056 120.395 220.051 120.282C220.051 120.141 219.995 120.006 219.895 119.906C219.795 119.806 219.66 119.75 219.519 119.75ZM225.679 119.75C225.595 119.724 225.506 119.718 225.42 119.733C225.333 119.748 225.251 119.782 225.18 119.834C225.11 119.886 225.052 119.954 225.013 120.033C224.973 120.111 224.953 120.197 224.953 120.285C224.953 120.373 224.973 120.46 225.013 120.538C225.052 120.616 225.11 120.684 225.18 120.736C225.251 120.788 225.333 120.823 225.42 120.837C225.506 120.852 225.595 120.846 225.679 120.82C225.748 120.82 225.817 120.805 225.88 120.775C225.824 120.478 225.763 120.137 225.679 119.75ZM204.102 115.601C203.99 115.595 203.879 115.623 203.784 115.681C203.688 115.739 203.612 115.825 203.565 115.926C203.518 116.028 203.503 116.142 203.521 116.252C203.54 116.362 203.591 116.465 203.668 116.546C203.745 116.627 203.845 116.683 203.954 116.707C204.063 116.731 204.177 116.722 204.281 116.68C204.385 116.639 204.474 116.567 204.537 116.475C204.6 116.382 204.634 116.273 204.634 116.161C204.634 116.02 204.582 115.884 204.486 115.78C204.391 115.676 204.259 115.612 204.119 115.601H204.102ZM210.262 115.601C210.151 115.601 210.043 115.634 209.951 115.695C209.859 115.757 209.787 115.844 209.745 115.947C209.702 116.049 209.691 116.161 209.713 116.27C209.734 116.379 209.788 116.479 209.866 116.557C209.944 116.635 210.044 116.688 210.153 116.71C210.261 116.732 210.374 116.721 210.476 116.678C210.579 116.636 210.666 116.564 210.728 116.472C210.789 116.38 210.822 116.272 210.822 116.161C210.822 116.014 210.764 115.873 210.662 115.769C210.559 115.664 210.42 115.604 210.273 115.601H210.262ZM216.422 115.601C216.31 115.595 216.199 115.623 216.104 115.681C216.008 115.739 215.932 115.825 215.885 115.926C215.838 116.028 215.823 116.142 215.841 116.252C215.86 116.362 215.911 116.465 215.988 116.546C216.065 116.627 216.165 116.683 216.274 116.707C216.383 116.731 216.497 116.722 216.601 116.68C216.705 116.639 216.794 116.567 216.857 116.475C216.92 116.382 216.954 116.273 216.954 116.161C216.954 116.019 216.901 115.882 216.804 115.778C216.707 115.674 216.575 115.611 216.433 115.601H216.422ZM222.582 115.601C222.498 115.575 222.409 115.569 222.323 115.583C222.236 115.598 222.154 115.633 222.084 115.685C222.013 115.737 221.956 115.805 221.916 115.883C221.876 115.961 221.856 116.048 221.856 116.136C221.856 116.223 221.876 116.31 221.916 116.388C221.956 116.467 222.013 116.534 222.084 116.587C222.154 116.639 222.236 116.673 222.323 116.688C222.409 116.702 222.498 116.696 222.582 116.67C222.696 116.635 222.796 116.564 222.867 116.468C222.938 116.372 222.976 116.255 222.976 116.136C222.976 116.016 222.938 115.9 222.867 115.804C222.796 115.707 222.696 115.636 222.582 115.601Z" fill="#37474F"/>
<path d="M209.574 97.7917C207.95 102.625 199.808 118.881 195.014 119.789C187.532 121.211 176.232 119.643 171.427 119.279C168.812 119.077 172.642 102.871 175.347 104.002C178.875 105.469 190.142 106.119 191.508 106.242C192.875 106.365 199.494 98.9621 204.562 93.8829C208.807 89.6549 211.629 91.6709 209.574 97.7917Z" fill="#AD6359"/>
<path d="M158.047 102.34C157.836 102.737 157.751 103.189 157.804 103.635C157.857 104.082 158.045 104.501 158.344 104.838C157.669 105.198 157.141 105.782 156.849 106.49C156.395 107.755 158.187 109.026 158.187 109.026C157.565 109.544 157.112 110.236 156.888 111.014C156.58 112.274 158.204 113.814 158.204 113.814C157.895 114.606 157.882 115.483 158.165 116.284C159.011 118.395 162.421 119.011 164.588 119.426C166.755 119.84 173.291 118.983 174.556 118.944L178.079 105.756C178.079 105.756 172.983 100.716 165.523 100.307C163.317 100.195 158.91 100.85 158.047 102.34Z" fill="#AD6359"/>
<path d="M158.478 104.635C160.847 104.181 163.221 104.456 165.613 104.596C165.663 104.596 165.657 104.685 165.613 104.68C163.238 104.512 160.864 104.82 158.489 104.747C158.428 104.747 158.422 104.646 158.478 104.635Z" fill="#263238"/>
<path d="M158.271 108.852C158.819 108.8 159.37 108.821 159.912 108.914C160.472 108.981 161.071 109.054 161.648 109.132C162.807 109.3 163.955 109.491 165.103 109.692C165.154 109.692 165.148 109.782 165.103 109.771C163.95 109.614 162.796 109.468 161.637 109.356C161.077 109.295 160.478 109.244 159.895 109.199C159.346 109.188 158.8 109.116 158.266 108.987C158.254 108.979 158.245 108.969 158.239 108.957C158.233 108.945 158.23 108.931 158.231 108.918C158.231 108.904 158.235 108.891 158.242 108.88C158.249 108.868 158.26 108.859 158.271 108.852Z" fill="#263238"/>
<path d="M158.256 113.814C158.753 113.775 159.253 113.822 159.734 113.954L161.308 114.201C162.361 114.358 163.413 114.52 164.466 114.643C164.473 114.641 164.48 114.64 164.487 114.641C164.495 114.642 164.501 114.644 164.507 114.648C164.513 114.653 164.518 114.658 164.521 114.664C164.525 114.671 164.527 114.678 164.527 114.685C164.527 114.692 164.525 114.7 164.521 114.706C164.518 114.712 164.513 114.718 164.507 114.722C164.501 114.726 164.495 114.729 164.487 114.73C164.48 114.731 164.473 114.73 164.466 114.727C163.397 114.604 162.316 114.503 161.246 114.369L159.667 114.173C159.18 114.153 158.701 114.049 158.25 113.865C158.25 113.865 158.233 113.82 158.256 113.814Z" fill="#263238"/>
<path d="M187.382 105.521L187.27 121.817C187.27 121.817 194.522 121.56 196.616 119.908C198.71 118.256 207.077 106.82 209.675 98.5773C212.274 90.3341 208.555 89.9029 204.288 93.9909C200.021 98.0789 192.125 105.628 191.733 105.751C191.341 105.874 187.382 105.521 187.382 105.521Z" fill="#8471FE"/>
<path d="M207.758 94.5112C207.758 94.6219 207.725 94.7302 207.664 94.8223C207.602 94.9144 207.515 94.9862 207.412 95.0285C207.31 95.0709 207.198 95.082 207.089 95.0604C206.98 95.0388 206.881 94.9855 206.802 94.9072C206.724 94.8288 206.671 94.729 206.649 94.6204C206.627 94.5118 206.638 94.3992 206.681 94.2969C206.723 94.1945 206.795 94.1071 206.887 94.0456C206.979 93.984 207.087 93.9512 207.198 93.9512C207.347 93.9512 207.489 94.0102 207.594 94.1152C207.699 94.2202 207.758 94.3627 207.758 94.5112ZM195.209 102.659L194.453 103.37C194.521 103.456 194.612 103.519 194.716 103.553C194.82 103.587 194.931 103.589 195.036 103.561C195.142 103.532 195.236 103.474 195.309 103.392C195.381 103.31 195.428 103.209 195.444 103.102C195.439 103.012 195.412 102.925 195.366 102.848C195.32 102.771 195.257 102.706 195.181 102.659H195.209ZM201.066 102.57C200.954 102.564 200.844 102.592 200.748 102.65C200.652 102.708 200.576 102.793 200.529 102.895C200.483 102.997 200.467 103.11 200.486 103.221C200.504 103.331 200.555 103.433 200.632 103.515C200.709 103.596 200.809 103.652 200.918 103.676C201.028 103.7 201.142 103.691 201.246 103.649C201.349 103.608 201.439 103.536 201.502 103.443C201.564 103.351 201.598 103.241 201.598 103.13C201.598 102.981 201.539 102.839 201.434 102.734C201.329 102.629 201.187 102.57 201.038 102.57H201.066ZM207.226 102.57C207.115 102.57 207.007 102.602 206.915 102.664C206.823 102.725 206.751 102.813 206.709 102.915C206.666 103.018 206.655 103.13 206.677 103.239C206.699 103.347 206.752 103.447 206.83 103.526C206.909 103.604 207.008 103.657 207.117 103.679C207.226 103.7 207.338 103.689 207.44 103.647C207.543 103.605 207.63 103.533 207.692 103.441C207.753 103.349 207.786 103.24 207.786 103.13C207.791 103.052 207.778 102.975 207.75 102.903C207.722 102.831 207.678 102.767 207.622 102.713C207.566 102.66 207.499 102.62 207.426 102.595C207.353 102.57 207.275 102.561 207.198 102.57H207.226ZM204.152 98.42C204.039 98.4144 203.927 98.4433 203.831 98.5026C203.734 98.5619 203.658 98.649 203.612 98.7524C203.567 98.8558 203.553 98.9707 203.574 99.0818C203.595 99.193 203.649 99.2953 203.728 99.3753C203.808 99.4552 203.911 99.5091 204.022 99.5298C204.133 99.5505 204.248 99.5371 204.351 99.4913C204.455 99.4455 204.542 99.3694 204.601 99.2732C204.661 99.1769 204.689 99.0649 204.684 98.952C204.677 98.8074 204.614 98.6712 204.508 98.572C204.403 98.4728 204.263 98.4183 204.118 98.42H204.152ZM188.718 111.16C188.605 111.154 188.493 111.183 188.397 111.243C188.301 111.302 188.225 111.389 188.179 111.492C188.133 111.596 188.12 111.711 188.14 111.822C188.161 111.933 188.215 112.035 188.295 112.115C188.375 112.195 188.477 112.249 188.588 112.27C188.699 112.291 188.814 112.277 188.918 112.231C189.021 112.185 189.108 112.109 189.168 112.013C189.227 111.917 189.256 111.805 189.25 111.692C189.251 111.622 189.238 111.552 189.211 111.487C189.185 111.423 189.146 111.364 189.096 111.314C189.046 111.265 188.988 111.225 188.923 111.199C188.858 111.172 188.788 111.159 188.718 111.16ZM194.878 111.16C194.765 111.154 194.653 111.183 194.557 111.243C194.461 111.302 194.385 111.389 194.339 111.492C194.293 111.596 194.28 111.711 194.3 111.822C194.321 111.933 194.375 112.035 194.455 112.115C194.535 112.195 194.637 112.249 194.748 112.27C194.859 112.291 194.974 112.277 195.078 112.231C195.181 112.185 195.268 112.109 195.328 112.013C195.387 111.917 195.416 111.805 195.41 111.692C195.403 111.553 195.345 111.422 195.247 111.323C195.148 111.225 195.017 111.167 194.878 111.16ZM201.038 111.16C200.925 111.154 200.813 111.183 200.717 111.243C200.621 111.302 200.545 111.389 200.499 111.492C200.453 111.596 200.44 111.711 200.46 111.822C200.481 111.933 200.535 112.035 200.615 112.115C200.695 112.195 200.797 112.249 200.908 112.27C201.019 112.291 201.134 112.277 201.238 112.231C201.341 112.185 201.428 112.109 201.488 112.013C201.547 111.917 201.576 111.805 201.57 111.692C201.563 111.553 201.505 111.422 201.407 111.323C201.308 111.225 201.177 111.167 201.038 111.16ZM191.798 107.01C191.685 107.005 191.573 107.034 191.477 107.093C191.381 107.152 191.305 107.239 191.259 107.343C191.213 107.446 191.2 107.561 191.22 107.672C191.241 107.783 191.295 107.886 191.375 107.966C191.455 108.046 191.557 108.1 191.668 108.12C191.779 108.141 191.894 108.128 191.998 108.082C192.101 108.036 192.188 107.96 192.248 107.864C192.307 107.767 192.336 107.655 192.33 107.542C192.33 107.401 192.274 107.266 192.174 107.166C192.075 107.066 191.939 107.01 191.798 107.01ZM197.958 107.01C197.845 107.005 197.733 107.034 197.637 107.093C197.541 107.152 197.465 107.239 197.419 107.343C197.373 107.446 197.36 107.561 197.38 107.672C197.401 107.783 197.455 107.886 197.535 107.966C197.615 108.046 197.717 108.1 197.828 108.12C197.939 108.141 198.054 108.128 198.158 108.082C198.261 108.036 198.348 107.96 198.408 107.864C198.467 107.767 198.496 107.655 198.49 107.542C198.483 107.403 198.425 107.272 198.327 107.174C198.228 107.075 198.097 107.017 197.958 107.01ZM204.118 107.01C204.005 107.005 203.893 107.034 203.797 107.093C203.701 107.152 203.625 107.239 203.579 107.343C203.533 107.446 203.52 107.561 203.54 107.672C203.561 107.783 203.615 107.886 203.695 107.966C203.775 108.046 203.877 108.1 203.988 108.12C204.099 108.141 204.214 108.128 204.318 108.082C204.421 108.036 204.508 107.96 204.568 107.864C204.627 107.767 204.656 107.655 204.65 107.542C204.643 107.403 204.585 107.272 204.487 107.174C204.388 107.075 204.257 107.017 204.118 107.01ZM188.718 119.75C188.605 119.745 188.493 119.774 188.397 119.833C188.301 119.892 188.225 119.979 188.179 120.083C188.133 120.186 188.12 120.301 188.14 120.412C188.161 120.523 188.215 120.626 188.295 120.706C188.375 120.786 188.477 120.84 188.588 120.86C188.699 120.881 188.814 120.868 188.918 120.822C189.021 120.776 189.108 120.7 189.168 120.604C189.227 120.507 189.256 120.395 189.25 120.282C189.25 120.141 189.194 120.006 189.094 119.906C188.995 119.806 188.859 119.75 188.718 119.75ZM194.878 119.75C194.734 119.75 194.596 119.805 194.492 119.904C194.388 120.003 194.325 120.139 194.318 120.282C194.322 120.39 194.357 120.494 194.418 120.583C194.48 120.671 194.566 120.74 194.665 120.781C194.884 120.719 195.091 120.652 195.293 120.585C195.346 120.495 195.375 120.393 195.377 120.288C195.372 120.153 195.319 120.025 195.228 119.926C195.136 119.828 195.012 119.765 194.878 119.75ZM191.798 115.601C191.686 115.595 191.576 115.623 191.48 115.681C191.384 115.739 191.308 115.825 191.261 115.926C191.215 116.028 191.199 116.141 191.218 116.252C191.236 116.362 191.287 116.465 191.364 116.546C191.441 116.627 191.541 116.683 191.65 116.707C191.76 116.731 191.874 116.722 191.978 116.68C192.081 116.639 192.171 116.567 192.234 116.475C192.296 116.382 192.33 116.273 192.33 116.161C192.33 116.017 192.275 115.879 192.176 115.774C192.077 115.67 191.942 115.608 191.798 115.601ZM197.958 115.601C197.846 115.595 197.736 115.623 197.64 115.681C197.544 115.739 197.468 115.825 197.421 115.926C197.375 116.028 197.359 116.141 197.378 116.252C197.396 116.362 197.447 116.465 197.524 116.546C197.601 116.627 197.701 116.683 197.81 116.707C197.92 116.731 198.034 116.722 198.138 116.68C198.241 116.639 198.331 116.567 198.394 116.475C198.456 116.382 198.49 116.273 198.49 116.161C198.49 116.017 198.435 115.879 198.336 115.774C198.237 115.67 198.102 115.608 197.958 115.601Z" fill="#37474F"/>
<path d="M190.08 120.399C189.94 115.919 189.817 111.372 190.114 106.869C190.114 106.83 190.181 106.836 190.187 106.869C190.467 111.349 190.327 115.891 190.187 120.388C190.188 120.402 190.184 120.416 190.175 120.427C190.166 120.438 190.153 120.445 190.139 120.446C190.125 120.448 190.111 120.444 190.1 120.435C190.089 120.426 190.082 120.413 190.08 120.399Z" fill="#263238"/>
</svg>
