<svg width="334" height="334" viewBox="0 0 334 334" fill="none" xmlns="http://www.w3.org/2000/svg">
<path d="M84.3523 105.681C90.9549 103.085 94.2033 95.6287 91.6078 89.0261C89.0123 82.4235 81.5558 79.1751 74.9531 81.7706C68.3505 84.3661 65.1021 91.8227 67.6976 98.4253C70.2932 105.028 77.7497 108.276 84.3523 105.681Z" fill="#EBEBEB"/>
<path d="M91.9435 97.4742C90.7486 96.4322 89.3958 95.5866 87.9355 94.9692C85.3904 93.847 78.4633 92.6245 75.2435 91.0013C70.7345 88.7301 70.1734 86.2785 70.2001 84.9893C71.3229 83.7767 72.6676 82.7904 74.1613 82.0835C74.482 83.4195 75.6911 87.4275 83.1793 90.0995C87.0471 91.4355 90.7478 90.5537 92.0036 90.2465C92.6796 92.6113 92.6587 95.121 91.9435 97.4742Z" fill="#DBDBDB"/>
<path d="M86.7012 104.482C84.2377 106.097 81.2948 106.818 78.3638 106.525C75.4327 106.232 72.6908 104.943 70.5957 102.872C71.3256 102.48 72.0991 102.175 72.9003 101.964C76.3539 101.122 80.1548 102.772 81.5442 103.553C83.0984 104.465 84.9265 104.795 86.7012 104.482Z" fill="#DBDBDB"/>
<path d="M91.1823 99.3983L91.022 99.7123L90.8751 99.9928C90.7548 100.207 90.6346 100.407 90.5077 100.607C90.3807 100.808 90.2739 100.968 90.1536 101.142L90.0133 101.336L89.853 101.549L89.6927 101.763L89.4856 102.004L89.2852 102.244L89.1049 102.444C88.9713 102.591 88.831 102.732 88.6907 102.872C87.8891 103.119 86.8203 103.012 85.2505 102.391C82.9192 101.476 80.4008 99.2714 75.8985 97.6548C73.1247 96.6817 70.1367 96.4899 67.2613 97.1004C66.5646 94.5388 66.6814 91.8239 67.5953 89.3315C68.4169 89.3315 71.0555 89.6789 76.6867 94.3282C78.4384 95.8138 80.339 97.1144 82.3581 98.2093C87.1677 100.728 89.9465 99.9795 91.1089 99.3983H91.1957H91.1823Z" fill="#DBDBDB"/>
<path d="M78.971 104.208C79.1982 103.687 79.9998 103.54 80.7613 103.86C81.5228 104.181 81.957 104.889 81.7232 105.41C81.4894 105.931 80.6945 106.078 79.933 105.757C79.1714 105.437 78.7439 104.762 78.971 104.208Z" fill="#C7C7C7"/>
<path d="M82.6063 103.319C82.7399 103.026 83.2142 102.952 83.6684 103.146C84.1226 103.339 84.3898 103.747 84.2629 104.041C84.136 104.335 83.6617 104.415 83.2008 104.215C82.7399 104.014 82.4794 103.613 82.6063 103.319Z" fill="#C7C7C7"/>
<path d="M72.6452 87.5411C72.839 87.0936 73.5337 86.9666 74.2017 87.2606C74.8697 87.5545 75.2504 88.149 75.0567 88.5966C74.863 89.0441 74.1616 89.171 73.4936 88.8771C72.8256 88.5832 72.4448 87.9887 72.6452 87.5411Z" fill="#C7C7C7"/>
<path d="M75.01 87.1003C75.0873 86.9777 75.209 86.8897 75.3498 86.8549C75.4905 86.82 75.6392 86.8409 75.7648 86.9133C75.9005 86.9566 76.015 87.0493 76.0855 87.173C76.156 87.2968 76.1775 87.4425 76.1456 87.5813C76.0506 87.6745 75.93 87.7372 75.7991 87.7614C75.6683 87.7855 75.5332 87.7701 75.4112 87.717C75.2891 87.6639 75.1858 87.5755 75.1143 87.4633C75.0428 87.351 75.0065 87.22 75.01 87.087V87.1003Z" fill="#C7C7C7"/>
<path d="M75.3917 88.2893C75.4432 88.2154 75.5209 88.164 75.609 88.1453C75.6971 88.1267 75.789 88.1424 75.866 88.1891C76.0664 88.276 76.1799 88.463 76.1131 88.6033C76.0463 88.7436 75.8393 88.7903 75.6389 88.7035C75.4385 88.6167 75.3316 88.4363 75.3917 88.2893Z" fill="#C7C7C7"/>
<path d="M83.4067 88.3226C83.434 88.0947 83.5322 87.8812 83.6873 87.7122C83.8425 87.5431 84.0468 87.427 84.2715 87.3803C84.4962 87.3336 84.7298 87.3587 84.9395 87.4519C85.1492 87.5451 85.3243 87.7018 85.4401 87.8999C85.556 88.098 85.6067 88.3274 85.5851 88.5559C85.5636 88.7844 85.4708 89.0003 85.3199 89.1732C85.1691 89.3461 84.9677 89.4673 84.7443 89.5196C84.5209 89.5719 84.2867 89.5528 84.0747 89.4649C83.8365 89.399 83.6334 89.2428 83.5086 89.0294C83.3839 88.8161 83.3473 88.5625 83.4067 88.3226Z" fill="#C7C7C7"/>
<path d="M83.0997 90.0731C83.1301 89.9748 83.1896 89.8881 83.2704 89.8244C83.3512 89.7606 83.4494 89.723 83.5521 89.7164C83.6548 89.7098 83.7571 89.7345 83.8454 89.7873C83.9337 89.8402 84.0038 89.9186 84.0466 90.0122C84.0893 90.1058 84.1026 90.2102 84.0847 90.3115C84.0667 90.4128 84.0184 90.5063 83.9462 90.5795C83.8739 90.6528 83.7811 90.7023 83.68 90.7217C83.579 90.741 83.4744 90.7291 83.3802 90.6877C83.2632 90.6413 83.1686 90.5514 83.1163 90.4369C83.064 90.3223 83.0581 90.192 83.0997 90.0731Z" fill="#C7C7C7"/>
<path d="M277.542 238.001C282.312 238.001 286.179 234.134 286.179 229.364C286.179 224.594 282.312 220.727 277.542 220.727C272.771 220.727 268.904 224.594 268.904 229.364C268.904 234.134 272.771 238.001 277.542 238.001Z" fill="#EBEBEB"/>
<path d="M280.687 224.24C280.707 224.654 280.595 225.064 280.366 225.409C280.135 225.767 279.809 226.054 279.424 226.238C279.032 226.437 278.577 226.478 278.155 226.351C277.758 226.221 277.417 225.956 277.193 225.603C277.498 225.835 277.853 225.992 278.229 226.064C278.403 226.094 278.582 226.094 278.756 226.064C278.933 226.036 279.104 225.982 279.264 225.904L279.505 225.77C279.578 225.717 279.658 225.67 279.725 225.616C279.874 225.507 280.009 225.379 280.126 225.236C280.374 224.942 280.565 224.605 280.687 224.24Z" fill="#C7C7C7"/>
<path d="M277.582 224.735C277.542 224.447 277.606 224.153 277.762 223.907C277.92 223.648 278.153 223.442 278.43 223.319C278.569 223.249 278.72 223.207 278.875 223.196C279.029 223.184 279.185 223.203 279.332 223.252C279.619 223.341 279.86 223.541 280 223.807C279.781 223.669 279.535 223.578 279.279 223.54C279.049 223.51 278.816 223.552 278.611 223.66C278.145 223.876 277.778 224.26 277.582 224.735Z" fill="#C7C7C7"/>
<path d="M277.542 233.426C277.639 233.691 277.639 233.982 277.542 234.247C277.451 234.527 277.276 234.772 277.041 234.949C276.808 235.128 276.515 235.211 276.222 235.18C275.93 235.149 275.661 235.006 275.471 234.782C275.708 234.856 275.957 234.89 276.206 234.882C276.427 234.868 276.64 234.787 276.813 234.648C276.999 234.508 277.156 234.334 277.274 234.134C277.402 233.914 277.493 233.675 277.542 233.426Z" fill="#C7C7C7"/>
<path d="M275.75 234.408C275.702 234.32 275.673 234.223 275.662 234.124C275.652 234.024 275.661 233.923 275.69 233.827C275.749 233.625 275.871 233.448 276.038 233.319C276.125 233.252 276.225 233.204 276.332 233.178C276.439 233.151 276.55 233.147 276.659 233.166C276.758 233.183 276.852 233.22 276.936 233.275C277.02 233.331 277.091 233.402 277.146 233.486C276.98 233.461 276.811 233.461 276.645 233.486C276.509 233.506 276.38 233.561 276.271 233.647C276.02 233.837 275.837 234.104 275.75 234.408Z" fill="#C7C7C7"/>
<path d="M274.428 225.65C274.504 225.721 274.566 225.807 274.608 225.902C274.651 225.998 274.673 226.1 274.675 226.205C274.677 226.434 274.588 226.655 274.428 226.819C274.345 226.901 274.245 226.962 274.135 226.999C274.025 227.036 273.908 227.048 273.793 227.033C273.588 227.011 273.397 226.919 273.252 226.773C273.431 226.78 273.61 226.769 273.786 226.739C273.927 226.716 274.057 226.651 274.16 226.552C274.263 226.447 274.338 226.319 274.381 226.178C274.425 226.006 274.441 225.828 274.428 225.65Z" fill="#C7C7C7"/>
<path d="M273.36 226.492C273.296 226.45 273.243 226.393 273.205 226.327C273.167 226.261 273.144 226.187 273.139 226.111C273.135 226.027 273.149 225.944 273.179 225.866C273.209 225.787 273.254 225.716 273.313 225.657C273.374 225.595 273.449 225.549 273.532 225.523C273.614 225.496 273.702 225.489 273.787 225.503C273.861 225.514 273.931 225.539 273.995 225.578C274.058 225.617 274.112 225.669 274.155 225.73C274.033 225.744 273.913 225.767 273.794 225.797C273.713 225.821 273.64 225.864 273.58 225.924C273.519 225.986 273.47 226.058 273.433 226.138C273.394 226.252 273.369 226.371 273.36 226.492Z" fill="#C7C7C7"/>
<path d="M280.433 234.762C280.383 234.854 280.314 234.935 280.231 234.999C280.149 235.064 280.053 235.11 279.952 235.136C279.84 235.167 279.723 235.175 279.608 235.159C279.493 235.143 279.383 235.103 279.284 235.042C279.186 234.983 279.103 234.902 279.04 234.806C278.978 234.71 278.938 234.602 278.923 234.488C278.894 234.282 278.936 234.072 279.043 233.894C279.08 234.071 279.136 234.243 279.21 234.408C279.264 234.538 279.358 234.648 279.478 234.722C279.605 234.797 279.75 234.838 279.898 234.842C280.08 234.843 280.26 234.816 280.433 234.762Z" fill="#C7C7C7"/>
<path d="M279.357 233.927C279.384 233.856 279.426 233.792 279.48 233.74C279.534 233.688 279.6 233.649 279.671 233.626C279.751 233.6 279.835 233.591 279.918 233.6C280.001 233.609 280.081 233.636 280.152 233.679C280.227 233.723 280.29 233.784 280.337 233.858C280.383 233.931 280.411 234.014 280.42 234.1C280.43 234.249 280.385 234.397 280.293 234.514C280.246 234.4 280.192 234.289 280.132 234.18C280.095 234.107 280.037 234.047 279.965 234.007C279.89 233.96 279.806 233.931 279.718 233.92C279.598 233.902 279.476 233.905 279.357 233.927Z" fill="#C7C7C7"/>
<path d="M283.393 228.683C283.402 228.786 283.39 228.89 283.358 228.989C283.325 229.088 283.274 229.179 283.206 229.257C283.132 229.343 283.042 229.413 282.941 229.463C282.84 229.514 282.73 229.544 282.618 229.551C282.502 229.558 282.387 229.538 282.28 229.492C282.174 229.447 282.079 229.378 282.003 229.29C281.861 229.14 281.778 228.943 281.77 228.736C281.898 228.862 282.039 228.974 282.19 229.07C282.311 229.144 282.45 229.181 282.591 229.177C282.739 229.166 282.881 229.118 283.005 229.037C283.153 228.941 283.284 228.822 283.393 228.683Z" fill="#C7C7C7"/>
<path d="M282.03 228.596C282.012 228.523 282.011 228.446 282.027 228.372C282.043 228.298 282.076 228.228 282.123 228.169C282.176 228.103 282.242 228.05 282.317 228.011C282.392 227.972 282.473 227.948 282.557 227.942C282.644 227.936 282.73 227.951 282.809 227.986C282.888 228.021 282.958 228.074 283.012 228.142C283.105 228.259 283.15 228.407 283.138 228.556C283.036 228.486 282.929 228.424 282.818 228.369C282.743 228.331 282.661 228.313 282.577 228.316C282.489 228.323 282.404 228.346 282.324 228.383C282.218 228.442 282.119 228.514 282.03 228.596Z" fill="#C7C7C7"/>
<path d="M271.944 230.634C271.955 230.738 271.946 230.843 271.915 230.943C271.883 231.043 271.832 231.136 271.763 231.215C271.69 231.301 271.6 231.371 271.499 231.421C271.398 231.472 271.288 231.501 271.175 231.509C271.059 231.515 270.942 231.495 270.835 231.45C270.727 231.405 270.631 231.336 270.554 231.248C270.417 231.094 270.335 230.899 270.32 230.694C270.452 230.818 270.595 230.93 270.748 231.028C270.868 231.102 271.007 231.14 271.149 231.135C271.296 231.123 271.438 231.075 271.563 230.994C271.712 230.901 271.842 230.778 271.944 230.634Z" fill="#C7C7C7"/>
<path d="M270.588 230.554C270.57 230.48 270.57 230.403 270.586 230.329C270.602 230.255 270.635 230.186 270.682 230.126C270.733 230.06 270.798 230.006 270.871 229.967C270.945 229.928 271.026 229.905 271.109 229.899C271.196 229.892 271.282 229.907 271.361 229.942C271.441 229.977 271.51 230.031 271.563 230.099C271.612 230.156 271.649 230.222 271.671 230.293C271.694 230.364 271.703 230.439 271.697 230.513C271.595 230.443 271.488 230.381 271.376 230.326C271.303 230.286 271.22 230.268 271.136 230.273C271.048 230.28 270.962 230.303 270.882 230.34C270.776 230.4 270.678 230.471 270.588 230.554Z" fill="#C7C7C7"/>
<path d="M247.233 40.1799L249.531 37.8886C249.846 37.573 250.023 37.1454 250.023 36.6996C250.023 36.2538 249.846 35.8261 249.531 35.5105C249.376 35.353 249.191 35.2279 248.986 35.1425C248.782 35.0572 248.563 35.0132 248.342 35.0132C248.121 35.0132 247.902 35.0572 247.698 35.1425C247.493 35.2279 247.308 35.353 247.153 35.5105L244.855 37.8018C244.54 38.1174 244.363 38.545 244.363 38.9908C244.363 39.4367 244.54 39.8643 244.855 40.1799C245.171 40.4948 245.598 40.6716 246.044 40.6716C246.49 40.6716 246.918 40.4948 247.233 40.1799Z" fill="#EBEBEB"/>
<path d="M278.555 62.9187L280.011 60.0196C280.112 59.8225 280.173 59.6074 280.19 59.3867C280.206 59.1661 280.179 58.9442 280.11 58.7342C280.04 58.5241 279.929 58.3299 279.784 58.163C279.639 57.9961 279.462 57.8597 279.263 57.7618C279.066 57.6619 278.851 57.6021 278.631 57.5857C278.41 57.5693 278.189 57.5966 277.979 57.6662C277.769 57.7357 277.575 57.846 277.408 57.9908C277.241 58.1356 277.104 58.3121 277.005 58.5099L275.549 61.409C275.351 61.808 275.319 62.269 275.459 62.6919C275.599 63.1147 275.9 63.4651 276.297 63.6669C276.696 63.8667 277.158 63.9001 277.581 63.7598C278.004 63.6196 278.355 63.3171 278.555 62.9187Z" fill="#EBEBEB"/>
<path d="M258.514 33.7005L260.238 33.46C260.457 33.4289 260.667 33.3549 260.858 33.2424C261.048 33.1299 261.214 32.981 261.347 32.8042C261.48 32.6274 261.576 32.4262 261.631 32.212C261.686 31.9979 261.698 31.7751 261.667 31.5562C261.636 31.3373 261.562 31.1267 261.45 30.9364C261.337 30.7461 261.188 30.5798 261.011 30.4471C260.835 30.3144 260.634 30.2177 260.419 30.1628C260.205 30.1078 259.982 30.0955 259.764 30.1267L258.04 30.3738C257.821 30.405 257.611 30.4789 257.42 30.5914C257.23 30.7039 257.064 30.8529 256.931 31.0296C256.798 31.2064 256.702 31.4076 256.647 31.6218C256.592 31.8359 256.579 32.0588 256.611 32.2776C256.642 32.4963 256.716 32.7066 256.828 32.8966C256.941 33.0866 257.09 33.2524 257.267 33.3846C257.444 33.5169 257.645 33.6128 257.859 33.667C258.073 33.7212 258.296 33.7326 258.514 33.7005Z" fill="#EBEBEB"/>
<path d="M244.795 56.4658L244.547 54.7357C244.483 54.2949 244.246 53.8976 243.889 53.6309C243.533 53.3642 243.085 53.2498 242.644 53.3128C242.425 53.344 242.214 53.4179 242.024 53.5304C241.834 53.643 241.667 53.7919 241.535 53.9687C241.402 54.1454 241.305 54.3466 241.25 54.5608C241.195 54.7749 241.183 54.9978 241.214 55.2166L241.461 56.9401C241.526 57.3813 241.762 57.7792 242.119 58.047C242.475 58.3147 242.923 58.4307 243.365 58.3696C243.584 58.3385 243.794 58.2645 243.985 58.152C244.175 58.0395 244.341 57.8906 244.474 57.7138C244.607 57.537 244.703 57.3358 244.758 57.1217C244.813 56.9075 244.826 56.6847 244.795 56.4658Z" fill="#EBEBEB"/>
<path d="M281.781 53.0659V50.8482C281.781 50.0513 281.135 49.4053 280.338 49.4053H279.864C279.067 49.4053 278.421 50.0513 278.421 50.8482V53.0659C278.421 53.8628 279.067 54.5088 279.864 54.5088H280.338C281.135 54.5088 281.781 53.8628 281.781 53.0659Z" fill="#EBEBEB"/>
<path d="M255.362 71.0817L257.046 71.5359C257.476 71.6503 257.934 71.5893 258.32 71.3665C258.705 71.1436 258.987 70.777 259.103 70.3469C259.161 70.1333 259.175 69.9104 259.147 69.6911C259.118 69.4717 259.047 69.2601 258.936 69.0684C258.826 68.8767 258.679 68.7086 258.503 68.5738C258.328 68.439 258.128 68.3401 257.914 68.2828L256.231 67.8352C256.017 67.7777 255.795 67.7629 255.576 67.7915C255.357 67.8202 255.146 67.8919 254.955 68.0023C254.764 68.1128 254.596 68.26 254.462 68.4353C254.328 68.6107 254.23 68.8109 254.173 69.0243C254.116 69.2374 254.101 69.4599 254.129 69.6788C254.158 69.8977 254.23 70.1088 254.34 70.3C254.451 70.4912 254.598 70.6586 254.773 70.7928C254.949 70.9269 255.149 71.0251 255.362 71.0817Z" fill="#EBEBEB"/>
<path d="M261.187 70.634C271.904 70.634 280.592 61.9459 280.592 51.2286C280.592 40.5113 271.904 31.8232 261.187 31.8232C250.469 31.8232 241.781 40.5113 241.781 51.2286C241.781 61.9459 250.469 70.634 261.187 70.634Z" fill="#EBEBEB"/>
<path d="M268.247 39.7192C268.296 40.6512 268.043 41.574 267.526 42.3512C267.009 43.1534 266.281 43.7981 265.422 44.2149C264.537 44.6589 263.516 44.745 262.569 44.4554C261.673 44.1726 260.905 43.5839 260.398 42.792C261.091 43.3006 261.887 43.6496 262.73 43.8141C263.123 43.8842 263.526 43.8842 263.919 43.8141C264.312 43.7571 264.694 43.6352 265.048 43.4534C265.233 43.3646 265.414 43.2665 265.589 43.1594C265.762 43.0459 265.936 42.939 266.096 42.8121C266.427 42.5628 266.729 42.2784 266.998 41.9637C267.557 41.3042 267.981 40.5417 268.247 39.7192Z" fill="#C7C7C7"/>
<path d="M261.275 40.8348C261.184 40.1879 261.326 39.5298 261.675 38.9778C262.022 38.3994 262.531 37.935 263.138 37.6418C263.446 37.4858 263.782 37.3926 264.126 37.3673C264.47 37.3421 264.815 37.3854 265.142 37.4948C265.776 37.7042 266.303 38.1523 266.612 38.744C266.12 38.441 265.573 38.2389 265.002 38.1495C264.488 38.0894 263.967 38.1824 263.506 38.4167C262.486 38.9161 261.691 39.7786 261.275 40.8348Z" fill="#C7C7C7"/>
<path d="M254.701 54.1611C254.94 54.7519 254.957 55.4094 254.748 56.0115C254.543 56.6372 254.151 57.1851 253.626 57.5813C253.358 57.7912 253.051 57.945 252.723 58.0334C252.394 58.1218 252.052 58.1429 251.715 58.0957C251.081 58.0101 250.502 57.6908 250.092 57.2005C250.625 57.3774 251.187 57.4566 251.748 57.4343C252.236 57.395 252.701 57.2113 253.084 56.9066C253.502 56.5925 253.853 56.2 254.12 55.751C254.403 55.2582 254.6 54.7204 254.701 54.1611Z" fill="#C7C7C7"/>
<path d="M250.679 56.3657C250.466 55.9653 250.421 55.4971 250.552 55.0631C250.678 54.6094 250.95 54.2101 251.327 53.9275C251.522 53.776 251.746 53.6669 251.985 53.6071C252.224 53.5472 252.473 53.5381 252.716 53.5802C252.943 53.6137 253.16 53.6947 253.354 53.8178C253.547 53.941 253.712 54.1036 253.839 54.2949C253.465 54.2192 253.082 54.2011 252.703 54.2415C252.396 54.287 252.106 54.4113 251.861 54.6022C251.284 55.0437 250.868 55.6637 250.679 56.3657Z" fill="#C7C7C7"/>
<path d="M247.74 49.8462C247.912 50.0046 248.05 50.1965 248.146 50.4102C248.241 50.6238 248.292 50.8547 248.295 51.0887C248.295 51.5887 248.098 52.0685 247.747 52.4247C247.564 52.6107 247.34 52.7516 247.093 52.8362C246.846 52.9209 246.583 52.9469 246.324 52.9123C245.862 52.863 245.431 52.6581 245.102 52.3311C245.506 52.3411 245.911 52.3143 246.311 52.251C246.626 52.1996 246.917 52.0527 247.146 51.8301C247.378 51.596 247.546 51.3062 247.633 50.9885C247.733 50.6164 247.769 50.2303 247.74 49.8462Z" fill="#C7C7C7"/>
<path d="M245.336 51.7297C245.196 51.6322 245.08 51.5039 244.996 51.3545C244.913 51.2052 244.865 51.0387 244.855 50.8679C244.845 50.681 244.875 50.494 244.941 50.3191C245.008 50.1442 245.111 49.9852 245.243 49.8526C245.378 49.7138 245.544 49.6102 245.728 49.5508C245.912 49.4914 246.108 49.4781 246.298 49.5119C246.464 49.5356 246.623 49.5921 246.766 49.6782C246.91 49.7642 247.035 49.878 247.133 50.0129C246.857 50.0503 246.582 50.1039 246.312 50.1732C246.135 50.2228 245.974 50.3172 245.844 50.4471C245.704 50.5869 245.593 50.7525 245.517 50.9347C245.421 51.1905 245.361 51.4578 245.336 51.7297Z" fill="#C7C7C7"/>
<path d="M274.328 44.0879C274.35 44.3207 274.324 44.5554 274.253 44.7781C274.182 45.0008 274.066 45.2068 273.914 45.3838C273.748 45.5798 273.544 45.74 273.314 45.8548C273.084 45.9697 272.834 46.0367 272.578 46.0518C272.318 46.0659 272.059 46.0209 271.819 45.9202C271.58 45.8196 271.366 45.6658 271.195 45.4707C270.882 45.1273 270.697 44.6857 270.674 44.2215C270.967 44.5001 271.287 44.7485 271.629 44.963C271.894 45.1363 272.208 45.2205 272.524 45.2034C272.854 45.1813 273.173 45.078 273.453 44.9029C273.786 44.6802 274.082 44.405 274.328 44.0879Z" fill="#C7C7C7"/>
<path d="M271.28 43.9073C271.238 43.7419 271.235 43.569 271.271 43.4021C271.307 43.2353 271.381 43.079 271.487 42.9454C271.603 42.798 271.748 42.6767 271.914 42.5892C272.08 42.5018 272.262 42.4501 272.449 42.4377C272.643 42.4261 272.837 42.4613 273.015 42.5403C273.193 42.6194 273.349 42.74 273.471 42.892C273.578 43.0199 273.659 43.1679 273.708 43.3273C273.757 43.4867 273.774 43.6544 273.758 43.8205C273.527 43.6649 273.286 43.5243 273.037 43.3996C272.873 43.3127 272.688 43.2733 272.502 43.2861C272.306 43.2994 272.113 43.3493 271.935 43.433C271.697 43.5619 271.476 43.7213 271.28 43.9073Z" fill="#C7C7C7"/>
<path d="M269.09 55.0821C270.058 52.9121 269.094 50.3735 266.938 49.4121C264.781 48.4506 262.249 49.4302 261.281 51.6002C260.314 53.7702 261.277 56.3087 263.434 57.2702C265.59 58.2317 268.123 57.252 269.09 55.0821Z" fill="#DBDBDB"/>
<path d="M267.199 51.329C267.757 51.579 268.249 51.9574 268.633 52.4334C269.017 52.9093 269.284 53.4694 269.41 54.0679C269.528 53.3579 269.465 52.6297 269.227 51.9506C268.989 51.2714 268.584 50.6632 268.049 50.1821C267.514 49.7009 266.866 49.3625 266.165 49.1979C265.465 49.0334 264.734 49.048 264.041 49.2406C263.347 49.4331 262.713 49.7973 262.198 50.2995C261.683 50.8017 261.302 51.4258 261.092 52.1139C260.881 52.8021 260.847 53.5322 260.994 54.2368C261.14 54.9415 261.462 55.5978 261.929 56.1453C261.612 55.2184 261.66 54.206 262.062 53.313C262.482 52.37 263.258 51.6318 264.221 51.2599C265.184 50.8881 266.255 50.9129 267.199 51.329Z" fill="#C7C7C7"/>
<path d="M271.128 54.1079C271.153 55.2484 270.824 56.3686 270.186 57.3143C269.539 58.282 268.647 59.061 267.601 59.5722C266.528 60.1069 265.293 60.2189 264.141 59.8861C263.05 59.5377 262.109 58.8316 261.469 57.8821C262.305 58.544 263.284 59.0015 264.328 59.2181C264.578 59.2561 264.83 59.2807 265.083 59.2916C265.331 59.2951 265.579 59.275 265.824 59.2315C266.303 59.1535 266.767 59.0026 267.2 58.7839C267.427 58.6704 267.661 58.5434 267.868 58.4165C268.075 58.2896 268.302 58.1359 268.496 57.9689C268.906 57.6548 269.28 57.2963 269.612 56.9002C270.305 56.0842 270.821 55.1335 271.128 54.1079Z" fill="#C7C7C7"/>
<path d="M275.823 55.7042C276.132 55.7783 276.456 55.7589 276.754 55.6484C277.052 55.5379 277.31 55.3414 277.496 55.0838C277.682 54.8262 277.787 54.5191 277.799 54.2015C277.81 53.884 277.726 53.5702 277.559 53.3002C277.391 53.0302 277.147 52.816 276.858 52.6849C276.568 52.5537 276.247 52.5116 275.933 52.5638C275.62 52.6159 275.329 52.7601 275.097 52.9779C274.866 53.1957 274.705 53.4773 274.634 53.7871C274.537 54.199 274.609 54.6322 274.832 54.9916C275.054 55.3511 275.411 55.6074 275.823 55.7042Z" fill="#DBDBDB"/>
<path d="M276.779 53.2594C277.002 53.3116 277.209 53.4156 277.385 53.563C277.56 53.7104 277.698 53.897 277.788 54.1078C277.777 53.7527 277.651 53.4108 277.428 53.1345C277.204 52.8582 276.897 52.6627 276.552 52.5781C276.137 52.4843 275.702 52.559 275.343 52.7857C274.983 53.0125 274.729 53.3727 274.635 53.7872C274.565 54.0811 274.581 54.3888 274.68 54.6741C274.779 54.9593 274.958 55.2102 275.196 55.397C275.011 55.0805 274.956 54.7046 275.042 54.3483C275.128 53.9736 275.359 53.6484 275.685 53.4442C276.011 53.24 276.404 53.1735 276.779 53.2594Z" fill="#C7C7C7"/>
<path d="M278.408 53.9878C278.522 54.4037 278.494 54.8456 278.328 55.2436C278.167 55.6557 277.894 56.0144 277.54 56.279C277.177 56.5607 276.72 56.6901 276.264 56.6398C275.831 56.5887 275.431 56.385 275.135 56.0653C275.493 56.2291 275.883 56.3134 276.277 56.3124C276.643 56.2973 276.996 56.169 277.286 55.945C277.594 55.7098 277.851 55.4156 278.044 55.0795C278.237 54.7434 278.36 54.3723 278.408 53.9878Z" fill="#C7C7C7"/>
<path d="M264.821 66.0916C265.272 66.1174 265.719 66.009 266.108 65.7803C266.496 65.5515 266.808 65.2127 267.004 64.8066C267.199 64.4005 267.27 63.9455 267.207 63.4992C267.144 63.0528 266.95 62.6352 266.65 62.2991C266.349 61.9631 265.956 61.7237 265.519 61.6114C265.083 61.4991 264.623 61.5188 264.197 61.6681C263.772 61.8174 263.4 62.0895 263.13 62.4501C262.859 62.8106 262.702 63.2433 262.677 63.6935C262.644 64.2956 262.852 64.8862 263.254 65.3358C263.656 65.7853 264.219 66.0571 264.821 66.0916Z" fill="#DBDBDB"/>
<path d="M265.557 62.431C265.88 62.4489 266.194 62.5429 266.474 62.7054C266.754 62.868 266.991 63.0944 267.166 63.3662C267.09 62.992 266.921 62.6431 266.674 62.3518C266.427 62.0604 266.11 61.8361 265.753 61.6995C265.397 61.5629 265.011 61.5185 264.633 61.5703C264.254 61.6222 263.895 61.7686 263.588 61.9961C263.282 62.2235 263.037 62.5247 262.878 62.8717C262.718 63.2188 262.649 63.6004 262.676 63.9814C262.703 64.3624 262.825 64.7304 263.032 65.0514C263.239 65.3724 263.524 65.636 263.86 65.8178C263.604 65.5084 263.444 65.1314 263.399 64.7326C263.354 64.3339 263.426 63.9307 263.605 63.5719C263.785 63.2131 264.065 62.9143 264.412 62.7118C264.758 62.5092 265.156 62.4117 265.557 62.431Z" fill="#C7C7C7"/>
<path d="M268.014 63.0459C268.233 63.6075 268.277 64.2222 268.141 64.8094C268.008 65.4103 267.714 65.9641 267.293 66.4126C266.868 66.8814 266.28 67.1705 265.65 67.2209C265.044 67.263 264.442 67.1007 263.939 66.76C264.477 66.9393 265.05 66.9852 265.609 66.8936C266.138 66.7936 266.62 66.5267 266.986 66.1321C267.362 65.7292 267.649 65.2511 267.827 64.7293C268.005 64.1871 268.069 63.6139 268.014 63.0459Z" fill="#C7C7C7"/>
<path d="M254.668 44.0877C253.646 45.6575 251.375 45.9915 249.605 44.8292C247.835 43.6668 247.22 41.4558 248.269 39.886C249.318 38.3162 251.562 37.9888 253.339 39.1445C255.116 40.3001 255.697 42.5446 254.668 44.0877Z" fill="#DBDBDB"/>
<path d="M249.03 41.4159C248.763 41.8394 248.607 42.3238 248.578 42.8239C248.549 43.3239 248.647 43.8232 248.863 44.2749C248.284 43.7292 247.908 43.0028 247.796 42.215C247.685 41.4272 247.844 40.6248 248.249 39.9396C249.271 38.3698 251.542 38.0358 253.319 39.1981C253.911 39.5609 254.396 40.0755 254.722 40.6887C255.049 41.3018 255.206 41.9911 255.176 42.6851C254.917 41.8584 254.375 41.149 253.646 40.6811C252.023 39.6591 249.959 39.9597 249.03 41.4159Z" fill="#C7C7C7"/>
<path d="M255.924 41.5229C256.185 41.9283 256.364 42.3813 256.449 42.8558C256.535 43.3304 256.527 43.8172 256.425 44.2885C256.313 44.7748 256.096 45.2308 255.79 45.6245C255.484 46.0283 255.108 46.3743 254.681 46.6465C254.236 46.8957 253.749 47.0609 253.245 47.1341C252.758 47.1946 252.265 47.181 251.782 47.0941C250.852 46.9269 249.973 46.5449 249.217 45.9785C250.077 46.2283 250.962 46.3807 251.855 46.4328C252.685 46.4936 253.515 46.3151 254.247 45.9184C254.597 45.7155 254.911 45.4559 255.175 45.1502C255.447 44.8422 255.66 44.4867 255.803 44.1014C256.076 43.2686 256.117 42.3775 255.924 41.5229Z" fill="#C7C7C7"/>
<path d="M280.671 283.459C284.798 268.064 275.663 252.238 260.268 248.112C244.873 243.985 229.047 253.12 224.921 268.515C220.794 283.91 229.929 299.736 245.324 303.862C260.72 307.989 276.545 298.854 280.671 283.459Z" fill="#455A64"/>
<path d="M278.382 267.127C274.855 266.768 271.293 266.967 267.828 267.715C261.722 268.937 247.474 275.604 239.524 276.766C228.349 278.41 224.16 274.649 222.584 272.297C223.079 268.634 224.277 265.1 226.111 261.89C228.369 263.86 235.79 269.719 252.891 264.916C261.709 262.431 267.313 256.005 269.217 253.827C273.488 257.286 276.67 261.904 278.382 267.127Z" fill="#37474F"/>
<path d="M277.802 286.692C275.374 292.82 270.914 297.928 265.17 301.16C259.425 304.392 252.744 305.553 246.246 304.448C247.069 302.786 248.089 301.229 249.285 299.812C254.523 293.8 263.607 291.956 267.154 291.596C271.176 291.286 274.953 289.546 277.802 286.692Z" fill="#37474F"/>
<path d="M279.464 271.636C279.511 271.896 279.545 272.15 279.578 272.411C279.611 272.671 279.638 272.885 279.665 273.119C279.718 273.653 279.765 274.187 279.785 274.715C279.805 275.243 279.825 275.677 279.825 276.145C279.825 276.325 279.825 276.499 279.825 276.679C279.825 276.859 279.825 277.08 279.825 277.274C279.825 277.467 279.825 277.674 279.825 277.875C279.825 278.075 279.792 278.342 279.772 278.583C279.752 278.823 279.732 279.051 279.705 279.251C279.678 279.451 279.652 279.652 279.631 279.852C279.571 280.293 279.505 280.721 279.424 281.155C278.275 282.631 276.178 283.827 272.517 284.702C267.066 286.038 259.632 285.236 249.298 288.082C242.972 289.873 237.258 293.364 232.778 298.175C228.209 294.39 224.929 289.277 223.393 283.546C224.855 282.431 230.173 279.719 246.445 280.981C251.56 281.44 256.708 281.373 261.809 280.781C273.833 279.204 277.982 274.254 279.358 271.689C279.392 271.67 279.428 271.652 279.464 271.636Z" fill="#37474F"/>
<path d="M239.411 264.208C239.659 265.464 238.376 266.767 236.552 267.114C234.729 267.461 233.059 266.74 232.812 265.484C232.564 264.228 233.854 262.932 235.671 262.578C237.488 262.224 239.144 262.959 239.411 264.208Z" fill="#8471FE"/>
<path d="M233.875 270.5C234.008 271.208 233.207 271.949 232.138 272.163C231.069 272.377 230.047 271.976 229.914 271.268C229.78 270.56 230.548 269.819 231.644 269.605C232.739 269.391 233.734 269.799 233.875 270.5Z" fill="#8471FE"/>
<path d="M272.236 286.953C272.443 288.022 271.315 289.137 269.725 289.451C268.135 289.765 266.665 289.137 266.458 288.069C266.251 287 267.373 285.878 268.97 285.57C270.566 285.263 272.029 285.904 272.236 286.953Z" fill="#8471FE"/>
<path d="M268.435 290.767C268.549 291.335 268.028 291.916 267.273 292.063C266.965 292.162 266.63 292.137 266.34 291.993C266.049 291.85 265.826 291.6 265.717 291.295C265.603 290.727 266.124 290.146 266.879 289.999C267.187 289.9 267.522 289.925 267.812 290.068C268.103 290.212 268.326 290.462 268.435 290.767Z" fill="#8471FE"/>
<path d="M266.226 289.057C266.293 289.398 265.959 289.725 265.478 289.846C264.997 289.966 264.556 289.732 264.489 289.391C264.422 289.051 264.756 288.723 265.237 288.603C265.718 288.483 266.159 288.717 266.226 289.057Z" fill="#8471FE"/>
<path d="M251.401 299.157C251.588 300.119 250.733 301.094 249.397 301.342C248.061 301.589 246.939 301.008 246.725 300.052C246.512 299.097 247.393 298.122 248.696 297.875C249.998 297.628 251.221 298.202 251.401 299.157Z" fill="#8471FE"/>
<path d="M249.758 295.544C249.828 295.765 249.83 296.002 249.762 296.223C249.695 296.445 249.562 296.641 249.38 296.785C249.199 296.929 248.978 297.015 248.747 297.031C248.515 297.046 248.285 296.991 248.086 296.873C247.886 296.754 247.728 296.578 247.631 296.367C247.535 296.157 247.504 295.922 247.545 295.693C247.585 295.465 247.693 295.254 247.856 295.089C248.019 294.924 248.228 294.812 248.455 294.769C248.592 294.734 248.734 294.726 248.873 294.746C249.013 294.766 249.147 294.814 249.268 294.886C249.389 294.958 249.494 295.053 249.579 295.166C249.663 295.279 249.724 295.407 249.758 295.544Z" fill="#8471FE"/>
<path d="M279.785 274.715C271.852 278.935 263.679 282.689 255.31 285.958C246.761 289.376 238.015 292.276 229.117 294.642C215.35 298.222 205.537 298.844 204.274 295.644C203.012 292.444 210.413 286.232 222.551 279.558C222.631 280.226 222.738 280.894 222.865 281.562L223.025 282.324C216.866 286.238 213.446 289.625 214.214 291.576C214.982 293.526 219.946 293.673 227.3 292.244C234.501 290.854 244 287.995 254.174 283.981C264.348 279.966 273.259 275.537 279.464 271.616C285.784 267.641 289.304 264.181 288.522 262.204C287.741 260.226 282.958 260.126 275.83 261.462C275.338 260.618 274.798 259.802 274.214 259.017C287.915 255.47 297.948 254.929 299.21 258.122C300.473 261.315 292.637 267.788 279.785 274.715Z" fill="#8471FE"/>
<path d="M279.799 277.267C272.019 281.336 264.034 285.001 255.878 288.249C247.78 291.523 239.52 294.377 231.128 296.8C212.331 302.144 198.356 303.206 196.539 298.683C194.722 294.161 205.35 285.457 222.344 276.432C222.344 276.873 222.344 277.321 222.398 277.768C208.296 285.544 199.686 292.919 201.235 296.8C202.785 300.681 214.348 300.053 230.166 295.818C247.408 291.044 264.062 284.358 279.819 275.885C294.114 268.042 302.858 260.581 301.288 256.673C299.719 252.765 288.483 253.406 272.979 257.495C272.691 257.154 272.391 256.827 272.083 256.493C290.54 251.302 304.201 250.327 305.991 254.796C307.781 259.265 297.02 268.169 279.799 277.267Z" fill="#37474F"/>
<path d="M129.726 139.385C126.769 138.928 123.898 138.027 121.209 136.713C108.277 130.434 106.887 115.217 105.418 99.1046C104.082 84.2617 102.659 68.9177 92.2783 59.6525C70.6685 40.3874 36.6005 54.4355 36.2599 54.5824L33.4609 47.9826C40.5427 45.198 47.9736 43.3999 55.545 42.6386C72.245 40.9552 86.6204 44.9766 97.0412 54.2751C109.539 65.4174 111.143 82.9524 112.552 98.4233C113.888 113.073 115.044 125.724 124.336 130.233C143.815 139.686 156.694 116.078 157.228 115.07L163.561 118.41C160.672 123.532 156.928 128.123 152.492 131.984C145.338 138.082 137.609 140.567 129.726 139.385Z" fill="#FDC500"/>
<path opacity="0.1" d="M129.726 139.385C126.769 138.928 123.898 138.027 121.209 136.713C108.277 130.434 106.887 115.217 105.418 99.1046C104.082 84.2617 102.659 68.9177 92.2783 59.6525C70.6685 40.3874 36.6005 54.4355 36.2599 54.5824L33.4609 47.9826C40.5427 45.198 47.9736 43.3999 55.545 42.6386C72.245 40.9552 86.6204 44.9766 97.0412 54.2751C109.539 65.4174 111.143 82.9524 112.552 98.4233C113.888 113.073 115.044 125.724 124.336 130.233C143.815 139.686 156.694 116.078 157.228 115.07L163.561 118.41C160.672 123.532 156.928 128.123 152.492 131.984C145.338 138.082 137.609 140.567 129.726 139.385Z" fill="#CA0000"/>
<path opacity="0.1" d="M163.561 118.43C160.673 123.551 156.929 128.14 152.492 131.997C148.19 135.658 143.674 138.009 139.045 139.051L130.982 132.264C146.694 134.368 156.754 115.932 157.235 115.05L163.561 118.43Z" fill="#CA0000"/>
<path d="M186.153 153.306C185.518 153.68 147.696 141.075 146.073 139.906C145.995 139.851 145.926 139.786 145.865 139.712C144.015 137.889 137.021 125.017 136.513 124.008C135.284 121.436 173.394 89.3186 180.481 86.3393C182.258 85.5911 205.538 93.9144 209.025 97.2945C210.521 98.7441 213.333 104.609 213.18 105.411C212.933 106.56 186.794 152.932 186.153 153.306Z" fill="#FDC500"/>
<path opacity="0.1" d="M186.153 153.306C185.518 153.68 147.696 141.075 146.073 139.906C145.995 139.851 145.926 139.786 145.865 139.712C144.015 137.889 137.021 125.017 136.513 124.008C135.284 121.436 173.394 89.3186 180.481 86.3393C182.258 85.5911 205.538 93.9144 209.025 97.2945C210.521 98.7441 213.333 104.609 213.18 105.411C212.933 106.56 186.794 152.932 186.153 153.306Z" fill="#A60202"/>
<path opacity="0.1" d="M186.152 153.306C185.518 153.68 147.696 141.075 146.072 139.906C145.995 139.851 145.925 139.786 145.865 139.712C152.706 131.797 184.85 94.6758 185.424 94.5823C185.999 94.4888 208.029 103.033 213.186 105.417C212.932 106.56 186.794 152.932 186.152 153.306Z" fill="#CA0000"/>
<path d="M131.249 230.213L101.108 245.397C95.3369 248.262 90.3269 250.887 87.862 252.484C87.849 252.479 87.8349 252.479 87.8219 252.484C86.8867 253.085 86.3256 253.533 86.2454 253.82V253.873C85.9382 256.171 107.535 302.992 108.837 304.368C110.14 305.744 114.181 302.143 114.789 299.658C115.397 297.173 115.143 275.543 115.143 275.543L145.103 260.093L131.249 230.213Z" fill="#455A64"/>
<path d="M81.6641 255.844L82.7395 258.282C83.0199 258.18 83.3162 258.128 83.6146 258.128C84.195 258.13 84.7585 258.324 85.2155 258.682C85.6726 259.04 85.997 259.54 86.1374 260.103C86.2779 260.667 86.2262 261.261 85.9906 261.791C85.755 262.321 85.349 262.758 84.8371 263.032L85.8057 265.249C86.0958 265.139 86.4037 265.082 86.7141 265.082C87.2972 265.082 87.8634 265.278 88.3218 265.638C88.7801 265.998 89.1039 266.503 89.2411 267.069C89.3784 267.636 89.321 268.232 89.0784 268.762C88.8357 269.292 88.4218 269.726 87.9032 269.992L88.8785 272.217C89.1727 272.095 89.4885 272.033 89.807 272.036C90.4962 272.036 91.1571 272.31 91.6444 272.797C92.1317 273.285 92.4055 273.946 92.4055 274.635C92.4087 275.118 92.2757 275.592 92.0217 276.004C91.7677 276.415 91.4029 276.746 90.9693 276.959L91.9446 279.17C92.2537 279.052 92.582 278.991 92.9132 278.99C93.5033 278.988 94.0765 279.187 94.5385 279.554C95.0006 279.921 95.3239 280.435 95.4553 281.01C95.5866 281.585 95.5183 282.188 95.2615 282.72C95.0046 283.251 94.5746 283.679 94.0421 283.933L95.0174 286.144C95.3304 286.013 95.6665 285.945 96.006 285.944C96.599 285.942 97.1749 286.142 97.6382 286.512C98.1015 286.882 98.4243 287.4 98.5531 287.978C98.6818 288.557 98.6087 289.163 98.3458 289.694C98.083 290.226 97.6463 290.651 97.1082 290.9L98.0835 293.112C98.4022 292.967 98.7488 292.894 99.0989 292.898C99.6916 292.9 100.266 293.105 100.727 293.478C101.187 293.851 101.507 294.37 101.633 294.949C101.76 295.528 101.684 296.133 101.42 296.663C101.156 297.194 100.719 297.619 100.181 297.868L101.156 300.085C101.484 299.93 101.842 299.85 102.205 299.852C102.8 299.855 103.376 300.062 103.837 300.439C104.299 300.815 104.617 301.338 104.739 301.92C104.862 302.503 104.781 303.11 104.511 303.64C104.241 304.17 103.797 304.592 103.254 304.835L104.169 306.919L108.845 304.387L86.2465 253.84L81.6641 255.844Z" fill="#37474F"/>
<path d="M96.5064 249.284C97.2834 250.587 97.7808 252.037 97.9671 253.543C98.1534 255.048 98.0245 256.576 97.5885 258.028C96.8003 260.406 95.2372 262.945 92.7255 264.241C92.652 264.281 92.5785 264.147 92.6453 264.1C96.9205 260.814 98.6573 254.288 96.3594 249.364C96.3551 249.346 96.357 249.326 96.3647 249.309C96.3725 249.292 96.3857 249.278 96.4024 249.268C96.4191 249.259 96.4383 249.256 96.4571 249.259C96.4758 249.262 96.4932 249.271 96.5064 249.284Z" fill="#37474F"/>
<path d="M102.686 246.986C104.61 250.172 106.273 253.519 107.896 256.866C109.52 260.212 111.09 263.506 112.659 266.839C113.554 268.75 114.45 270.667 115.238 272.624C115.25 272.65 115.252 272.679 115.242 272.706C115.233 272.733 115.213 272.755 115.188 272.768C115.162 272.78 115.132 272.782 115.106 272.772C115.079 272.763 115.056 272.743 115.044 272.717C113.167 269.504 111.524 266.144 109.84 262.831C108.157 259.518 106.5 256.251 104.937 252.925C104.022 251.014 103.167 249.09 102.399 247.12C102.388 247.083 102.391 247.044 102.407 247.009C102.423 246.974 102.451 246.946 102.485 246.93C102.52 246.914 102.559 246.911 102.596 246.921C102.633 246.931 102.665 246.954 102.686 246.986Z" fill="#37474F"/>
<path d="M105.465 246.045C107.396 249.231 109.053 252.578 110.676 255.931C112.299 259.284 113.869 262.571 115.439 265.904C116.334 267.815 117.229 269.732 118.017 271.683C118.023 271.695 118.027 271.709 118.028 271.723C118.028 271.737 118.026 271.751 118.022 271.765C118.017 271.778 118.01 271.79 118 271.801C117.991 271.811 117.98 271.82 117.967 271.826C117.954 271.832 117.94 271.836 117.926 271.837C117.912 271.837 117.898 271.836 117.885 271.831C117.871 271.826 117.859 271.819 117.849 271.81C117.838 271.8 117.83 271.789 117.823 271.776C115.946 268.563 114.303 265.203 112.62 261.89C110.936 258.576 109.28 255.31 107.717 251.983C106.808 250.073 105.946 248.149 105.178 246.178C105.168 246.142 105.17 246.102 105.186 246.067C105.202 246.033 105.23 246.005 105.265 245.989C105.299 245.972 105.339 245.969 105.375 245.98C105.412 245.99 105.444 246.013 105.465 246.045Z" fill="#37474F"/>
<path d="M110.094 240.868L125.678 270.099C125.678 270.099 130.354 271.108 136.152 268.423C148.985 262.498 170.468 248.71 181.209 238.122C192.311 227.174 203.206 150.434 203.206 150.434L177.021 135.324C177.021 135.324 163.42 207.688 158.424 212.912C153.915 217.628 127.769 227.949 115.444 234.401C112.879 235.769 110.957 238.092 110.094 240.868Z" fill="#FDC500"/>
<path d="M115.705 240.52C117.756 243.633 119.546 246.906 121.303 250.192C123.06 253.479 124.75 256.699 126.446 259.972C127.422 261.842 128.39 263.726 129.259 265.643C129.266 265.668 129.264 265.694 129.254 265.718C129.244 265.742 129.227 265.761 129.204 265.774C129.182 265.786 129.156 265.79 129.131 265.786C129.105 265.782 129.082 265.769 129.065 265.75C127.061 262.611 125.291 259.317 123.474 256.071C121.657 252.824 119.9 249.625 118.183 246.365C117.201 244.494 116.266 242.604 115.424 240.667C115.412 240.631 115.413 240.591 115.428 240.556C115.442 240.52 115.468 240.491 115.502 240.473C115.536 240.456 115.575 240.451 115.612 240.459C115.649 240.468 115.682 240.489 115.705 240.52Z" fill="#8471FE"/>
<path opacity="0.1" d="M168.096 179.131L203.206 150.407L177.02 135.324C177.02 135.324 172.745 158.183 168.096 179.131Z" fill="#CA0000"/>
<path opacity="0.1" d="M174.215 226.585C173.286 226.711 172.34 226.624 171.449 226.331C170.555 226.059 169.693 225.692 168.878 225.236C167.273 224.322 165.797 223.199 164.489 221.896C163.821 221.228 163.233 220.56 162.638 219.892C162.044 219.224 161.503 218.469 161.002 217.714C160.501 216.959 160.027 216.185 159.592 215.396C159.158 214.608 158.771 213.773 158.443 212.918C159.143 213.498 159.812 214.113 160.447 214.762C161.075 215.396 161.73 216.004 162.324 216.645C162.919 217.287 163.567 217.888 164.161 218.529L165.09 219.451C165.397 219.758 165.684 220.086 166.005 220.373C167.241 221.589 168.503 222.751 169.826 223.84C171.127 224.992 172.61 225.919 174.215 226.585Z" fill="#CA0000"/>
<path d="M187.519 234.073C190.426 227.947 189.26 221.309 184.914 219.246C180.568 217.184 174.688 220.477 171.78 226.603C168.873 232.729 170.039 239.368 174.385 241.43C178.731 243.493 184.611 240.199 187.519 234.073Z" fill="#FDC500"/>
<path opacity="0.1" d="M187.519 234.073C190.426 227.947 189.26 221.309 184.914 219.246C180.568 217.184 174.688 220.477 171.78 226.603C168.873 232.729 170.039 239.368 174.385 241.43C178.731 243.493 184.611 240.199 187.519 234.073Z" fill="#CA0000"/>
<path d="M125.431 164.268L117.468 131.476C115.979 125.204 114.563 119.726 113.567 116.967C113.567 116.967 113.567 116.967 113.567 116.92C113.403 116.248 113.088 115.622 112.645 115.09C112.645 115.09 112.645 115.09 112.599 115.09C110.434 114.268 59.9402 124.696 58.3035 125.658C56.6669 126.62 59.2588 131.356 61.5433 132.518C63.8279 133.68 84.9233 138.323 84.9233 138.323L93.1932 171.008L125.431 164.268Z" fill="#455A64"/>
<path d="M111.71 110.173L109.091 110.668C109.131 110.964 109.117 111.265 109.051 111.556C108.919 112.123 108.601 112.629 108.148 112.994C107.695 113.359 107.133 113.562 106.551 113.571C105.97 113.579 105.402 113.393 104.938 113.041C104.475 112.689 104.142 112.192 103.994 111.63L101.616 112.077C101.657 112.385 101.641 112.697 101.569 112.999C101.437 113.566 101.118 114.073 100.664 114.437C100.209 114.801 99.6452 115.002 99.0627 115.008C98.4802 115.013 97.9128 114.823 97.4515 114.467C96.9903 114.111 96.662 113.611 96.5193 113.046L94.1345 113.487C94.1943 113.8 94.1943 114.122 94.1345 114.435C93.9772 115.107 93.5597 115.689 92.9735 116.054C92.3874 116.418 91.6806 116.535 91.0083 116.379C90.5379 116.273 90.1071 116.036 89.7655 115.696C89.4239 115.355 89.1855 114.925 89.0778 114.455L86.6997 114.903C86.7437 115.23 86.7279 115.563 86.6529 115.885C86.5206 116.457 86.1982 116.968 85.7385 117.333C85.2787 117.699 84.7086 117.898 84.1212 117.898C83.5338 117.898 82.9637 117.699 82.5039 117.333C82.0442 116.968 81.7218 116.457 81.5895 115.885L79.2114 116.332C79.2807 116.754 79.2451 117.186 79.1076 117.59C78.9702 117.994 78.7352 118.359 78.4235 118.651C78.1117 118.943 77.7328 119.153 77.3203 119.264C76.9078 119.374 76.4744 119.382 76.0584 119.285C75.5756 119.171 75.135 118.922 74.7884 118.567C74.4418 118.213 74.2034 117.766 74.1012 117.281L71.7298 117.735C71.8031 118.076 71.8031 118.429 71.7298 118.771C71.5947 119.349 71.2657 119.865 70.7974 120.231C70.329 120.597 69.7495 120.792 69.1551 120.784C68.5607 120.775 67.9871 120.563 67.5295 120.184C67.0719 119.804 66.7579 119.28 66.6396 118.697L64.2615 119.145C64.3416 119.499 64.3416 119.866 64.2615 120.22C64.1291 120.804 63.7992 121.324 63.3275 121.693C62.8558 122.061 62.2714 122.256 61.6729 122.243C61.0744 122.231 60.4986 122.012 60.0428 121.624C59.587 121.236 59.2792 120.702 59.1714 120.113L56.9336 120.534L58.3431 125.631L112.692 115.097L111.71 110.173Z" fill="#37474F"/>
<path d="M114.724 126.112C113.278 126.573 111.753 126.729 110.244 126.569C108.735 126.41 107.276 125.937 105.96 125.183C103.822 123.847 101.704 121.783 101.01 119.038C101.01 118.964 101.137 118.917 101.17 118.997C103.401 123.901 109.366 127.054 114.677 125.951C114.696 125.951 114.714 125.957 114.729 125.969C114.745 125.98 114.756 125.996 114.761 126.014C114.766 126.032 114.765 126.051 114.759 126.069C114.752 126.087 114.74 126.102 114.724 126.112Z" fill="#37474F"/>
<path d="M115.565 132.652C112.025 133.807 108.391 134.656 104.757 135.484C101.123 136.312 97.5696 137.094 93.9624 137.862C91.9049 138.303 89.8341 138.744 87.75 139.071C87.7216 139.077 87.692 139.072 87.6676 139.056C87.6431 139.041 87.6259 139.016 87.6197 138.988C87.6135 138.959 87.6188 138.93 87.6345 138.905C87.6502 138.881 87.6749 138.863 87.7032 138.857C91.257 137.755 94.8976 136.92 98.5115 136.025C102.125 135.13 105.672 134.281 109.273 133.493C111.337 133.039 113.401 132.638 115.499 132.344C115.536 132.344 115.572 132.356 115.601 132.379C115.63 132.402 115.65 132.434 115.658 132.471C115.666 132.507 115.661 132.545 115.644 132.578C115.627 132.611 115.599 132.637 115.565 132.652Z" fill="#37474F"/>
<path d="M115.851 135.604C112.304 136.76 108.67 137.608 105.043 138.437C101.416 139.265 97.8488 140.046 94.2483 140.815C92.1841 141.255 90.1133 141.696 88.0292 142.024C88.0008 142.029 87.9715 142.023 87.9477 142.007C87.9239 141.99 87.9076 141.965 87.9023 141.937C87.8969 141.908 87.9031 141.879 87.9194 141.855C87.9357 141.832 87.9608 141.815 87.9891 141.81C91.5429 140.708 95.1835 139.873 98.7907 138.984C102.398 138.096 105.958 137.241 109.552 136.446C111.623 135.998 113.687 135.597 115.785 135.297C115.822 135.296 115.858 135.308 115.887 135.332C115.916 135.355 115.936 135.387 115.944 135.423C115.952 135.459 115.947 135.497 115.93 135.53C115.913 135.563 115.885 135.589 115.851 135.604Z" fill="#37474F"/>
<path d="M203.246 150.454C203.246 150.454 195.992 158.403 189.833 164.649C185.337 169.218 181.182 173.106 180.08 173.126C178.831 173.126 173.146 172.524 171.262 172.277C171.262 172.277 143.246 203.099 128.864 210.554C123.941 213.105 108.477 210.487 104.001 202.925C96.7403 190.654 89.3722 172.11 86.6802 160.447C85.4778 155.243 86.7136 149.619 86.7136 149.619L119.84 140.467C119.84 140.467 123.42 146.432 124.516 150.18C126.132 155.838 127.582 173.166 127.582 173.166C136.54 166.766 145.264 154.943 145.264 154.943C145.264 154.943 147.842 141.209 163.968 127.722L203.246 150.454Z" fill="#FDC500"/>
<path d="M180.046 172.959C175.852 172.266 171.605 171.939 167.354 171.983C167.324 171.99 167.298 172.007 167.279 172.03C167.26 172.054 167.25 172.083 167.25 172.114C167.25 172.144 167.26 172.173 167.279 172.197C167.298 172.221 167.324 172.237 167.354 172.244C171.556 172.692 175.791 173.246 180.006 173.466C180.039 173.469 180.073 173.465 180.105 173.455C180.136 173.444 180.166 173.428 180.191 173.406C180.217 173.385 180.238 173.358 180.253 173.328C180.268 173.298 180.277 173.266 180.28 173.233C180.282 173.199 180.278 173.166 180.268 173.134C180.258 173.102 180.241 173.073 180.22 173.047C180.198 173.022 180.171 173.001 180.142 172.986C180.112 172.971 180.079 172.961 180.046 172.959Z" fill="#8471FE"/>
<path d="M194.189 150.347C194.242 150.22 194.049 150.08 193.982 150.206C191.854 153.984 189.538 157.651 187.041 161.195C185.906 162.852 179.079 171.689 176.453 169.291C176.013 168.884 176.039 168.242 176.387 167.434C176.808 166.466 177.783 165.537 178.451 164.709C179.92 162.878 181.33 161.008 182.646 159.071C185.135 155.484 187.246 151.649 188.945 147.628C188.953 147.602 188.952 147.575 188.941 147.55C188.93 147.525 188.911 147.505 188.887 147.493C188.863 147.481 188.836 147.478 188.81 147.484C188.784 147.491 188.76 147.506 188.745 147.528C185.878 152.837 182.614 157.922 178.979 162.738C177.188 165.029 173.802 168.082 176.206 169.953C178.611 171.823 183.935 166.499 185.238 164.956C188.841 160.494 191.85 155.583 194.189 150.347Z" fill="#8471FE"/>
<path d="M176.4 169.592C175.765 170.091 175.163 170.631 174.597 171.209C174.109 171.625 173.701 172.128 173.394 172.692C173.348 172.805 173.481 172.892 173.581 172.852C174.172 172.535 174.71 172.129 175.178 171.649C175.759 171.162 176.347 170.688 176.908 170.18C176.947 170.147 176.978 170.106 177.001 170.06C177.024 170.015 177.038 169.965 177.042 169.914C177.045 169.863 177.039 169.812 177.023 169.764C177.007 169.715 176.981 169.671 176.948 169.632C176.915 169.593 176.874 169.562 176.829 169.539C176.783 169.516 176.733 169.502 176.683 169.499C176.632 169.495 176.581 169.501 176.532 169.517C176.484 169.533 176.439 169.559 176.4 169.592Z" fill="#8471FE"/>
<path d="M91.3556 153.687C94.8158 152.491 98.3763 151.589 101.937 150.721C105.497 149.852 108.977 149.024 112.511 148.209C114.515 147.742 116.559 147.274 118.603 146.92C118.629 146.92 118.653 146.928 118.673 146.944C118.693 146.96 118.707 146.981 118.713 147.006C118.72 147.031 118.717 147.056 118.707 147.08C118.697 147.103 118.679 147.122 118.657 147.134C115.176 148.283 111.609 149.138 108.076 150.1C104.542 151.062 101.062 151.93 97.5279 152.772C95.5239 153.253 93.4799 153.68 91.4224 154.001C91.3808 154.01 91.3373 154.002 91.3016 153.978C91.2659 153.955 91.2409 153.919 91.232 153.877C91.2232 153.836 91.2312 153.792 91.2544 153.756C91.2776 153.721 91.314 153.696 91.3556 153.687Z" fill="#8471FE"/>
<path opacity="0.1" d="M122.338 198.53C121.746 197.552 121.402 196.445 121.336 195.304C121.269 194.742 121.269 194.181 121.236 193.613C121.203 193.046 121.236 192.491 121.289 191.93C121.454 189.706 121.829 187.503 122.412 185.35C122.977 183.212 123.692 181.116 124.549 179.078C125.386 177.027 126.391 175.05 127.555 173.166C127.215 175.37 126.674 177.495 126.146 179.606C125.618 181.716 125.05 183.807 124.489 185.891C123.928 187.976 123.394 190.06 122.946 192.157C122.739 193.199 122.519 194.255 122.392 195.31C122.193 196.373 122.175 197.461 122.338 198.53Z" fill="#CA0000"/>
<path d="M121.276 213.747C128.057 213.747 133.554 209.847 133.554 205.036C133.554 200.225 128.057 196.325 121.276 196.325C114.495 196.325 108.998 200.225 108.998 205.036C108.998 209.847 114.495 213.747 121.276 213.747Z" fill="#FDC500"/>
<path opacity="0.1" d="M121.276 213.747C128.057 213.747 133.554 209.847 133.554 205.036C133.554 200.225 128.057 196.325 121.276 196.325C114.495 196.325 108.998 200.225 108.998 205.036C108.998 209.847 114.495 213.747 121.276 213.747Z" fill="#CA0000"/>
<path d="M202.357 110.688C221.996 118.503 237.714 121.663 243.927 119.853C249.364 118.263 264.875 111.59 272.424 104.355C274.702 102.177 264.408 87.3078 261.255 88.4902C258.102 89.6725 242.297 98.5569 238.169 100.02C235.824 100.848 210.266 101.803 204.455 101.904C194.755 102.077 193.64 107.221 202.357 110.688Z" fill="#F7A9A0"/>
<path d="M282.624 94.4488C281.909 95.5443 282.477 95.9318 284.682 95.1769C286.886 94.4221 294.949 89.5925 296.398 92.5517C297.848 95.5109 286.378 102.164 282.604 103.133C278.83 104.101 272.424 104.355 272.424 104.355C274.401 102.612 278.79 97.9224 282.624 94.4488Z" fill="#455A64"/>
<path d="M261.256 88.49C267.001 83.814 273.861 77.5682 282.144 76.2722C283.056 76.108 283.997 76.2538 284.816 76.6864C288.517 76.0184 289.933 77.5949 289.933 77.5949C293.567 78.0491 294.796 79.8394 294.796 79.8394C294.796 79.8394 299.145 79.1313 300.013 81.6897C300.995 84.5621 294.669 84.9963 291.363 87.3544C283.754 92.7585 274.456 102.578 272.411 104.355L261.256 88.49Z" fill="#455A64"/>
<path d="M279.425 87.4144C281.633 85.8075 283.947 84.3524 286.352 83.0591C289.071 81.8085 291.88 80.7635 294.756 79.9328C294.771 79.9258 294.784 79.9135 294.791 79.8982C294.799 79.8829 294.801 79.8655 294.797 79.8489C294.793 79.8324 294.783 79.8177 294.77 79.8074C294.756 79.7971 294.739 79.7919 294.722 79.7925C289.01 80.8476 283.695 83.4492 279.358 87.3142C279.225 87.4011 279.305 87.5079 279.425 87.4144Z" fill="#8471FE"/>
<path d="M275.492 83.2999C277.783 81.9171 281.831 79.5123 289.967 77.682V77.6353C284.699 78.0995 279.665 80.0243 275.431 83.193C275.291 83.2865 275.338 83.3934 275.492 83.2999Z" fill="#8471FE"/>
<path d="M273.42 81.0484C277.428 78.844 280.2 77.9623 284.816 76.7131V76.6597C279.419 77.5281 277.562 78.4566 273.333 80.9215C273.213 81.0017 273.267 81.1353 273.42 81.0484Z" fill="#8471FE"/>
<path d="M261.257 88.4903L272.425 104.355C271.919 106.48 270.816 108.415 269.246 109.933C266.627 112.465 246.213 120.922 239.894 121.015C233.575 121.109 208.885 114.896 200.041 110.421C191.197 105.945 195.933 102.071 202.412 101.63C208.892 101.189 236.006 99.6258 237.563 99.2451C239.119 98.8643 251.978 90.7481 254.703 89.3319C257.429 87.9158 261.257 88.4903 261.257 88.4903Z" fill="#FDC500"/>
<path opacity="0.1" d="M200.039 110.421C206.446 113.661 221.155 117.809 231.182 119.826L201.676 101.69C195.591 102.371 191.536 106.119 200.039 110.421Z" fill="#CA0000"/>
<path opacity="0.1" d="M257.047 90.3339C258.731 92.4916 260.301 94.736 261.857 97.0139C263.413 99.2918 264.923 101.476 266.446 103.694C267.315 104.97 268.19 106.259 269.011 107.568C269.071 107.655 269.011 107.702 268.931 107.622C267.268 105.457 265.705 103.2 264.122 100.942C262.538 98.6839 261.002 96.5129 259.446 94.2618C258.57 92.9792 257.715 91.69 256.9 90.3673C256.847 90.2872 256.961 90.2204 257.047 90.3339Z" fill="#CA0000"/>
<path d="M203.206 150.434L163.928 127.722C163.473 125.41 163.94 123.013 165.23 121.042C170.22 112.885 182.171 99.4587 192.845 94.5155C200.541 90.9617 206.593 93.9744 208.877 99.6457C209.458 101.082 215.11 119.746 214.408 126.399C213.667 133.44 210.247 142.164 207.174 146.947C206.161 148.42 204.798 149.619 203.206 150.434Z" fill="#FDC500"/>
<path d="M202.893 152.825C203.475 152.912 205.211 149.705 205.051 149.238C204.891 148.77 164.083 125.404 163.782 125.35C163.481 125.297 161.497 129.238 161.858 129.525C162.219 129.812 202.118 152.705 202.893 152.825Z" fill="#FDC500"/>
<path opacity="0.1" d="M202.893 152.825C203.475 152.912 205.211 149.705 205.051 149.238C204.891 148.77 164.083 125.404 163.782 125.35C163.481 125.297 161.497 129.238 161.858 129.525C162.219 129.812 202.118 152.705 202.893 152.825Z" fill="#CA0000"/>
<path d="M194.949 126.486L214.729 130.647L215.17 113.119L195.39 108.958L194.949 126.486Z" fill="#FDC500"/>
<path opacity="0.2" d="M194.949 126.486L214.729 130.647L215.17 113.119L195.39 108.958L194.949 126.486Z" fill="#CA0000"/>
<path opacity="0.1" d="M194.949 126.486L197.454 127.014L197.895 109.485L195.39 108.958L194.949 126.486Z" fill="#CA0000"/>
<path opacity="0.1" d="M211.676 116.499C211.665 116.8 211.757 117.095 211.935 117.338C212.113 117.58 212.368 117.756 212.658 117.835C212.79 117.861 212.925 117.856 213.055 117.822C213.184 117.787 213.304 117.723 213.404 117.634C213.505 117.546 213.584 117.435 213.635 117.311C213.687 117.188 213.709 117.054 213.7 116.92C213.711 116.618 213.618 116.322 213.439 116.08C213.259 115.837 213.003 115.662 212.712 115.584C212.58 115.558 212.445 115.563 212.316 115.597C212.187 115.632 212.067 115.697 211.967 115.785C211.867 115.874 211.788 115.984 211.738 116.108C211.688 116.232 211.666 116.366 211.676 116.499Z" fill="#CA0000"/>
<path opacity="0.1" d="M211.582 120.24C211.572 120.541 211.663 120.837 211.841 121.079C212.019 121.322 212.274 121.497 212.564 121.576C212.696 121.604 212.832 121.6 212.962 121.566C213.092 121.531 213.213 121.467 213.314 121.378C213.415 121.29 213.494 121.179 213.545 121.054C213.595 120.93 213.617 120.795 213.607 120.661C213.617 120.36 213.526 120.065 213.348 119.822C213.17 119.58 212.915 119.405 212.625 119.325C212.493 119.298 212.357 119.302 212.227 119.336C212.097 119.37 211.976 119.434 211.875 119.523C211.774 119.612 211.695 119.723 211.645 119.847C211.594 119.972 211.572 120.106 211.582 120.24Z" fill="#CA0000"/>
<path opacity="0.1" d="M211.489 123.914C211.479 124.215 211.57 124.51 211.748 124.753C211.926 124.995 212.181 125.171 212.471 125.25C212.603 125.276 212.74 125.271 212.87 125.236C212.999 125.201 213.12 125.136 213.22 125.047C213.321 124.958 213.4 124.847 213.451 124.722C213.502 124.597 213.523 124.463 213.513 124.328C213.524 124.028 213.433 123.732 213.255 123.49C213.076 123.247 212.822 123.072 212.531 122.992C212.399 122.965 212.262 122.969 212.132 123.003C212.001 123.038 211.881 123.103 211.779 123.192C211.678 123.282 211.599 123.393 211.549 123.519C211.499 123.644 211.478 123.78 211.489 123.914Z" fill="#CA0000"/>
<path opacity="0.1" d="M208.523 115.838C208.513 116.139 208.604 116.434 208.782 116.677C208.96 116.919 209.215 117.094 209.505 117.174C209.637 117.201 209.773 117.197 209.903 117.163C210.033 117.129 210.153 117.065 210.254 116.976C210.355 116.887 210.434 116.776 210.485 116.652C210.536 116.527 210.557 116.393 210.547 116.259C210.558 115.958 210.467 115.662 210.289 115.42C210.11 115.177 209.856 115.002 209.565 114.923C209.434 114.897 209.298 114.902 209.169 114.936C209.039 114.971 208.92 115.035 208.819 115.124C208.718 115.212 208.639 115.323 208.588 115.446C208.537 115.57 208.515 115.704 208.523 115.838Z" fill="#CA0000"/>
<path opacity="0.1" d="M208.416 119.572C208.406 119.873 208.497 120.169 208.675 120.411C208.853 120.654 209.108 120.829 209.398 120.908C209.53 120.936 209.666 120.932 209.796 120.898C209.926 120.863 210.047 120.799 210.148 120.711C210.249 120.622 210.328 120.511 210.378 120.386C210.429 120.262 210.451 120.127 210.441 119.993C210.451 119.692 210.36 119.397 210.182 119.154C210.004 118.912 209.749 118.737 209.459 118.657C209.327 118.63 209.191 118.634 209.061 118.668C208.931 118.702 208.81 118.766 208.709 118.855C208.608 118.944 208.529 119.055 208.479 119.179C208.428 119.304 208.406 119.438 208.416 119.572Z" fill="#CA0000"/>
<path opacity="0.1" d="M208.336 123.253C208.325 123.555 208.418 123.851 208.597 124.093C208.777 124.336 209.033 124.511 209.324 124.589C209.456 124.616 209.592 124.613 209.722 124.579C209.851 124.544 209.971 124.48 210.072 124.391C210.172 124.302 210.251 124.191 210.301 124.067C210.351 123.942 210.371 123.807 210.36 123.674C210.371 123.373 210.279 123.077 210.101 122.835C209.923 122.592 209.668 122.417 209.378 122.338C209.246 122.312 209.111 122.317 208.981 122.351C208.852 122.386 208.732 122.45 208.632 122.539C208.531 122.627 208.452 122.738 208.401 122.861C208.349 122.985 208.327 123.119 208.336 123.253Z" fill="#CA0000"/>
<path opacity="0.1" d="M205.371 115.177C205.361 115.478 205.453 115.774 205.632 116.017C205.812 116.26 206.068 116.434 206.36 116.513C206.491 116.537 206.627 116.531 206.757 116.496C206.886 116.46 207.005 116.395 207.106 116.306C207.206 116.217 207.285 116.107 207.336 115.983C207.388 115.859 207.41 115.725 207.402 115.591C207.412 115.289 207.32 114.993 207.14 114.75C206.961 114.508 206.704 114.333 206.413 114.255C206.281 114.23 206.145 114.236 206.016 114.272C205.887 114.307 205.767 114.372 205.667 114.461C205.566 114.55 205.487 114.661 205.436 114.785C205.385 114.909 205.362 115.043 205.371 115.177Z" fill="#CA0000"/>
<path opacity="0.1" d="M205.284 118.904C205.273 119.205 205.364 119.5 205.542 119.743C205.72 119.985 205.975 120.16 206.266 120.24C206.397 120.266 206.533 120.261 206.662 120.226C206.791 120.191 206.911 120.127 207.012 120.039C207.112 119.95 207.192 119.84 207.243 119.716C207.294 119.592 207.316 119.459 207.308 119.325C207.318 119.023 207.226 118.727 207.046 118.484C206.867 118.242 206.61 118.067 206.319 117.989C206.188 117.963 206.052 117.967 205.923 118.002C205.794 118.037 205.675 118.101 205.575 118.19C205.474 118.278 205.396 118.389 205.345 118.513C205.295 118.637 205.274 118.771 205.284 118.904Z" fill="#CA0000"/>
<path opacity="0.1" d="M205.19 122.592C205.18 122.892 205.271 123.188 205.449 123.43C205.627 123.673 205.882 123.848 206.172 123.928C206.304 123.954 206.44 123.949 206.569 123.914C206.698 123.879 206.818 123.815 206.919 123.727C207.019 123.638 207.098 123.528 207.15 123.404C207.201 123.28 207.223 123.146 207.215 123.013C207.225 122.711 207.133 122.415 206.953 122.172C206.774 121.929 206.517 121.755 206.226 121.677C206.095 121.649 205.959 121.653 205.829 121.687C205.699 121.721 205.579 121.785 205.479 121.874C205.378 121.963 205.3 122.074 205.25 122.199C205.2 122.323 205.179 122.458 205.19 122.592Z" fill="#CA0000"/>
<path d="M211.978 64.0883C212.726 64.3087 216.126 64.4624 217.863 67.8558C219.513 71.0622 218.845 79.8798 218.992 81.8838C219.139 83.8878 221.584 84.5558 221.817 86.847C222.018 88.851 220.521 89.3053 220.154 90.6747C219.874 91.7368 220.695 93.5337 219.453 94.9766C218.324 96.3126 216.781 95.7248 215.772 96.0254C214.763 96.326 213.768 98.4368 211.938 98.7508C210.107 99.0648 208.778 97.201 207.836 97.0608C206.894 96.9205 205.331 99.6125 202.318 98.871C199.306 98.1296 198.838 95.4041 197.642 94.6894C196.447 93.9746 193.16 94.3487 191.964 92.5384C190.769 90.7281 190.862 88.5905 190.341 87.7088C189.82 86.827 188.431 86.7335 187.91 84.8163C187.389 82.8992 189.246 82.0241 189.727 80.5077C190.061 79.4456 189.259 78.2966 190.201 76.7536C191.497 74.6293 194.209 75.5645 195.638 73.4136C196.767 71.7168 199.767 64.0616 204.897 62.8391C208.451 62.0108 211.978 64.0883 211.978 64.0883Z" fill="#8471FE"/>
<path d="M218.972 81.416C219.099 81.8488 219.328 82.245 219.64 82.5717L220.502 83.587C221.094 84.2226 221.585 84.9459 221.958 85.7313C222.127 86.1051 222.208 86.5129 222.194 86.923C222.18 87.3331 222.072 87.7345 221.878 88.096C221.662 88.4562 221.389 88.7788 221.069 89.0513C220.708 89.3496 220.39 89.6983 220.127 90.0867C219.935 90.5478 219.898 91.0587 220.021 91.5429C220.094 91.9905 220.188 92.418 220.241 92.8789C220.325 93.2872 220.327 93.7079 220.248 94.1171C220.169 94.5263 220.01 94.9159 219.78 95.2637C219.542 95.5891 219.2 95.8245 218.811 95.9317C218.399 96.0363 217.971 96.0613 217.549 96.0051C217.115 95.9651 216.681 95.8782 216.213 95.8181C215.77 95.7057 215.303 95.7337 214.877 95.8983C215.303 95.7968 215.749 95.813 216.166 95.945C216.6 96.0452 217.028 96.1721 217.469 96.2456C217.923 96.3358 218.391 96.3358 218.845 96.2456C219.317 96.1318 219.738 95.8638 220.041 95.4841C220.323 95.1056 220.523 94.6726 220.629 94.2127C220.734 93.7527 220.743 93.2758 220.655 92.8121C220.608 92.3579 220.515 91.9237 220.455 91.4761C220.357 91.0972 220.383 90.6971 220.528 90.3338C220.902 89.6658 221.791 89.1849 222.232 88.3298C222.453 87.9062 222.569 87.4352 222.569 86.9571C222.569 86.4789 222.453 86.0079 222.232 85.5843C221.806 84.7855 221.256 84.0594 220.602 83.4334L219.66 82.4982C219.358 82.1889 219.124 81.8204 218.972 81.416Z" fill="#8471FE"/>
<path d="M199.733 66.6064C198.765 67.8616 197.873 69.1732 197.061 70.5343C196.62 71.2023 196.199 71.8703 195.725 72.4715C195.495 72.7703 195.235 73.0456 194.95 73.2931C194.889 73.3511 194.819 73.3985 194.743 73.4334C194.671 73.4807 194.592 73.5167 194.509 73.5403C194.329 73.6004 194.142 73.6472 193.955 73.6939C193.173 73.8748 192.401 74.0978 191.644 74.3619C190.843 74.6256 190.143 75.1294 189.64 75.8048C189.395 76.1577 189.243 76.5667 189.199 76.9938C189.18 77.4086 189.239 77.8231 189.372 78.2163C189.674 78.9476 189.804 79.7382 189.753 80.5276C189.901 79.7375 189.853 78.9233 189.613 78.1562C189.513 77.7888 189.481 77.4061 189.519 77.0272C189.58 76.6637 189.732 76.3213 189.96 76.0319C190.441 75.4627 191.073 75.0412 191.784 74.8162C192.512 74.5556 193.28 74.4154 194.062 74.2216C194.255 74.1682 194.456 74.1081 194.65 74.0413C194.864 73.9674 195.061 73.8516 195.231 73.7006C195.542 73.4272 195.822 73.1203 196.066 72.7854C196.55 72.1444 196.996 71.4752 197.402 70.7814L198.564 68.704C198.915 67.9837 199.305 67.2835 199.733 66.6064Z" fill="#8471FE"/>
<path d="M189.713 87.0674C189.906 87.595 189.99 88.1563 189.96 88.7173C189.993 89.2851 190.02 89.8529 190.08 90.4274C190.13 91.0072 190.24 91.5802 190.408 92.1375C190.574 92.7238 190.881 93.2604 191.303 93.7006C192.254 94.4318 193.448 94.7734 194.643 94.6559C195.217 94.6559 195.778 94.6024 196.339 94.5957C196.901 94.5553 197.464 94.6492 197.983 94.8696C197.495 94.5542 196.933 94.3743 196.353 94.3486C195.778 94.3018 195.211 94.3018 194.649 94.2684C193.547 94.2083 192.385 94.0413 191.623 93.3332C191.259 92.9559 190.989 92.4982 190.835 91.9972C190.659 91.472 190.525 90.9337 190.434 90.3873C190.334 89.8329 190.261 89.2718 190.18 88.7107C190.134 88.4234 190.087 88.1429 190.02 87.8623C189.988 87.5752 189.882 87.3013 189.713 87.0674Z" fill="#8471FE"/>
<path d="M199.105 96.5928C199.159 97.4478 202.165 103.46 205.952 103.941C207.182 104.094 208.311 97.3944 208.311 97.3944L208.504 96.9201L211.25 90.2401L204.015 83.6202L202.96 82.7251C202.96 82.7251 202.325 84.5955 201.564 86.9335L201.457 87.2675C201.41 87.3944 201.363 87.5213 201.33 87.6416C201.21 87.9889 201.089 88.3497 200.983 88.7037C200.876 89.0577 200.809 89.2381 200.729 89.5253L200.475 90.3804C199.878 92.4178 199.421 94.4934 199.105 96.5928Z" fill="#F7A9A0"/>
<path d="M211.249 90.2469L208.617 96.6464C205.109 94.6929 202.502 91.4479 201.35 87.6017L201.563 86.9337C202.332 84.6023 202.959 82.7319 202.959 82.7319L204.015 83.6137L211.249 90.2469Z" fill="#8471FE"/>
<path d="M221.984 80.7345C221.203 93.3463 213.561 94.3016 210.842 94.0945C208.377 93.9408 199.987 93.0992 199.486 80.474C198.985 67.8488 205.077 64.2616 210.708 64.315C216.34 64.3685 222.766 68.136 221.984 80.7345Z" fill="#F7A9A0"/>
<path d="M199.947 80.1602C201.951 80.6011 203.033 76.3727 203.033 76.3727C203.033 76.3727 207.195 76.9538 209.392 71.1623C209.024 72.9336 208.147 74.5589 206.867 75.8383C206.867 75.8383 214.316 76.0721 218.223 70.354C218.223 70.354 216.56 73.3132 215.251 74.2685C215.251 74.2685 218.444 73.8343 220.288 71.543C220.288 71.543 221.089 75.2638 221.944 76.3793C221.944 76.3793 223.407 63.4936 211.323 63.2264C211.323 63.2264 203.808 62.692 200.321 68.2231C196.834 73.7541 199.947 80.1602 199.947 80.1602Z" fill="#8471FE"/>
<path d="M201.41 81.5964C201.41 81.5964 199.266 77.2945 197.349 78.0025C195.432 78.7106 196.641 84.6825 198.598 85.7513C198.841 85.9073 199.113 86.0126 199.397 86.0611C199.681 86.1096 199.973 86.1001 200.253 86.0334C200.534 85.9667 200.798 85.844 201.03 85.6727C201.262 85.5014 201.458 85.2851 201.604 85.0366L201.41 81.5964Z" fill="#F7A9A0"/>
<path d="M197.729 79.6992V79.7527C199.065 80.5609 199.666 82.0239 199.993 83.5068C199.93 83.3487 199.833 83.206 199.71 83.0886C199.587 82.9712 199.439 82.8819 199.278 82.8267C199.117 82.7715 198.946 82.7518 198.776 82.7689C198.607 82.7859 198.443 82.8394 198.296 82.9257C198.288 82.9291 198.28 82.9351 198.275 82.9429C198.27 82.9506 198.267 82.9597 198.267 82.9691C198.267 82.9784 198.27 82.9876 198.275 82.9953C198.28 83.003 198.288 83.009 198.296 83.0125C198.56 82.9781 198.828 83.0233 199.066 83.1424C199.304 83.2614 199.501 83.4488 199.632 83.6805C199.845 84.08 200.016 84.501 200.14 84.9363C200.193 85.0766 200.434 85.0432 200.407 84.8896V84.8361C200.755 82.9991 199.733 80.1601 197.729 79.6992Z" fill="#8471FE"/>
<path d="M200.121 85.3971C200.096 85.5606 200.008 85.7077 199.875 85.8065C199.743 85.9053 199.577 85.9478 199.413 85.9249C199.256 85.9016 199.115 85.8196 199.017 85.6955C198.919 85.5713 198.872 85.4145 198.885 85.2569C198.908 85.093 198.995 84.945 199.128 84.8454C199.26 84.7458 199.426 84.7028 199.59 84.7258C199.754 84.7488 199.902 84.836 200.001 84.9682C200.101 85.1004 200.144 85.2667 200.121 85.4305V85.3971Z" fill="white"/>
<path d="M219.833 77.8554C219.556 77.7812 219.283 77.6897 219.018 77.5815C218.717 77.5296 218.442 77.3792 218.236 77.154C218.185 77.0697 218.164 76.971 218.175 76.8732C218.185 76.7754 218.228 76.6839 218.296 76.6129C218.452 76.4951 218.636 76.4206 218.829 76.3972C219.023 76.3737 219.219 76.402 219.399 76.4793C219.786 76.5748 220.122 76.8135 220.34 77.1473C220.388 77.2267 220.412 77.3184 220.408 77.411C220.404 77.5036 220.374 77.5931 220.32 77.6684C220.266 77.7437 220.191 77.8016 220.104 77.8348C220.018 77.868 219.923 77.8752 219.833 77.8554Z" fill="#8471FE"/>
<path d="M211.636 77.6218C211.923 77.5616 212.177 77.4548 212.458 77.3679C212.758 77.3196 213.035 77.1741 213.246 76.9538C213.299 76.8706 213.322 76.7721 213.312 76.674C213.303 76.5759 213.26 76.4839 213.192 76.4127C213.04 76.2923 212.858 76.2141 212.666 76.186C212.474 76.1579 212.278 76.1807 212.097 76.2524C211.703 76.3458 211.36 76.5844 211.135 76.9204C211.09 76.9991 211.068 77.0891 211.073 77.1798C211.077 77.2704 211.108 77.3578 211.161 77.4316C211.213 77.5055 211.286 77.5626 211.37 77.5963C211.455 77.63 211.547 77.6389 211.636 77.6218Z" fill="#8471FE"/>
<path d="M213.092 80.3071C213.092 80.3071 213.019 80.3071 213.019 80.3739C212.972 81.2223 212.778 82.1775 211.99 82.3779V82.4314C212.945 82.3913 213.193 81.1154 213.092 80.3071Z" fill="#8471FE"/>
<path d="M212.426 79.3584C211.09 79.138 210.729 81.8501 211.978 82.0304C213.227 82.2108 213.561 79.5455 212.426 79.3584Z" fill="#8471FE"/>
<path d="M211.877 79.4319C211.623 79.5589 211.356 79.7993 211.068 79.7927C210.781 79.786 210.521 79.4653 210.34 79.1647C210.34 79.1313 210.294 79.1647 210.287 79.1647C210.213 79.4076 210.235 79.6694 210.348 79.8966C210.461 80.1238 210.657 80.2993 210.895 80.3872C211.389 80.5208 211.817 80.1133 212.01 79.6056C212.05 79.5388 211.984 79.3852 211.877 79.4319Z" fill="#8471FE"/>
<path d="M217.916 80.5811C217.916 80.5811 217.976 80.6278 217.97 80.6612C217.829 81.4962 217.809 82.4782 218.531 82.8589C218.531 82.8589 218.531 82.9124 218.531 82.9057C217.609 82.6519 217.649 81.3493 217.916 80.5811Z" fill="#8471FE"/>
<path d="M218.777 79.8059C220.146 79.8861 219.886 82.6048 218.623 82.5313C217.361 82.4579 217.634 79.7391 218.777 79.8059Z" fill="#8471FE"/>
<path d="M219.332 80.0332C219.533 80.2002 219.72 80.4808 220 80.5276C220.281 80.5743 220.548 80.3004 220.762 80.0332H220.802C220.769 80.5543 220.541 81.082 220.034 81.1354C219.526 81.1889 219.279 80.7012 219.205 80.1735C219.165 80.1067 219.252 79.9731 219.332 80.0332Z" fill="#8471FE"/>
<path d="M212.345 87.1673C212.512 87.4011 212.666 87.7017 212.966 87.7819C213.276 87.8278 213.592 87.8096 213.895 87.7285C213.928 87.7285 213.948 87.7285 213.928 87.7752C213.779 87.9177 213.594 88.0176 213.394 88.0645C213.193 88.1115 212.983 88.1039 212.786 88.0424C212.624 87.9688 212.488 87.8489 212.394 87.698C212.3 87.5471 212.253 87.3717 212.258 87.1941C212.258 87.1836 212.261 87.1732 212.266 87.1646C212.272 87.156 212.281 87.1497 212.291 87.1466C212.301 87.1435 212.312 87.1439 212.322 87.1477C212.331 87.1514 212.34 87.1584 212.345 87.1673Z" fill="#8471FE"/>
<path d="M216.319 84.3688C216.319 84.3688 216.352 85.6446 216.286 86.2392C216.286 86.2926 216.132 86.306 215.925 86.2926C215.405 86.326 214.886 86.2159 214.424 85.9744C213.962 85.733 213.576 85.3693 213.306 84.9232C213.273 84.8631 213.36 84.8096 213.406 84.8497C214.1 85.4559 214.973 85.8194 215.891 85.8851C215.952 85.7248 215.771 83.7008 215.891 83.7074C216.357 83.7957 216.807 83.9509 217.227 84.1684C217.227 81.4964 216.84 78.8644 216.893 76.2125C216.893 76.1912 216.902 76.1708 216.917 76.1558C216.932 76.1408 216.952 76.1323 216.974 76.1323C216.995 76.1323 217.015 76.1408 217.03 76.1558C217.045 76.1708 217.054 76.1912 217.054 76.2125C217.581 79.0312 217.825 81.8956 217.782 84.7629C217.715 85.0835 216.546 84.5024 216.319 84.3688Z" fill="#8471FE"/>
<path d="M215.684 86.172C215.293 86.5814 214.803 86.8828 214.261 87.0471C213.961 87.1237 213.645 87.1097 213.352 87.007C212.725 86.7665 212.771 86.1653 212.945 85.671C213.043 85.409 213.168 85.1582 213.319 84.9229C213.955 85.5795 214.783 86.017 215.684 86.172Z" fill="#8471FE"/>
<path d="M214.261 87.047C213.961 87.1235 213.645 87.1096 213.352 87.0069C212.725 86.7664 212.771 86.1652 212.945 85.6709C213.287 85.72 213.602 85.8823 213.841 86.1318C214.079 86.3812 214.227 86.7035 214.261 87.047Z" fill="#FF98B9"/>
<path d="M193.721 95.8784C193.735 97.0093 194.056 98.115 194.649 99.0781C196.54 102.198 201.616 104.729 206.673 104.115C209.886 103.721 211.87 102.425 212.872 100.775C209.516 101.393 206.065 101.276 202.759 100.43C199.452 99.585 196.368 98.0319 193.721 95.8784Z" fill="#455A64"/>
<path d="M189.371 91.703C195.103 101.489 211.776 105.818 222.277 96.9869C229.692 90.7344 232.965 77.8487 227.38 67.1273C219.271 51.623 202.878 53.2195 193.72 60.788C184.094 68.7639 185.036 84.2749 189.371 91.703ZM200.554 66.9269C207.948 61.4827 221.221 61.1554 227.674 72.1841C229.669 75.6537 230.336 79.7299 229.551 83.6545C228.766 87.579 226.582 91.0849 223.406 93.52C214.896 99.8994 201.489 96.9001 196.913 89.9328C193.446 84.6489 192.731 72.6851 200.554 66.9269Z" fill="#FDC500"/>
<path opacity="0.1" d="M196.914 89.9261C201.489 96.8933 214.896 99.8926 223.407 93.5132C226.581 91.0784 228.764 87.5738 229.549 83.6507C230.334 79.7277 229.668 75.653 227.675 72.184C221.222 61.1553 207.949 61.496 200.554 66.9268C192.732 72.685 193.447 84.6489 196.914 89.9261Z" fill="#455A64"/>
<path opacity="0.1" d="M196.914 89.9261C201.489 96.8933 214.896 99.8926 223.407 93.5132C226.581 91.0784 228.764 87.5738 229.549 83.6507C230.334 79.7277 229.668 75.653 227.675 72.184C221.222 61.1553 207.949 61.496 200.554 66.9268C192.732 72.685 193.447 84.6489 196.914 89.9261Z" fill="#455A64"/>
<g opacity="0.2">
<path d="M212.82 63.2529C219.101 69.6357 224.663 76.6873 229.407 84.2816C229.971 82.0344 230.042 79.6916 229.614 77.4145C226.538 72.9965 223.179 68.7816 219.56 64.796C217.434 63.8537 215.145 63.3298 212.82 63.2529Z" fill="white"/>
<path d="M194.656 83.5C194.946 85.7817 195.716 87.9763 196.914 89.9395C198.436 92.1139 200.512 93.8415 202.926 94.9428C200.447 90.9356 197.683 87.1115 194.656 83.5Z" fill="white"/>
<path d="M209.133 63.4599C216.496 70.6949 222.888 78.8547 228.151 87.735C228.278 87.4879 228.391 87.2407 228.498 86.9869C223.323 78.3669 217.092 70.4274 209.948 63.353L209.133 63.4599Z" fill="white"/>
<path d="M195.012 75.5173C201.23 81.959 206.596 89.1722 210.977 96.9802C211.231 96.9802 211.485 96.9802 211.745 96.9802C207.226 88.8966 201.66 81.4443 195.192 74.8159C195.125 75.0564 195.058 75.2835 195.012 75.5173Z" fill="white"/>
<path d="M194.43 80.2202C194.43 80.5409 194.43 80.8481 194.43 81.1621C198.421 85.7222 201.998 90.6292 205.118 95.8247C205.418 95.9316 205.719 96.0318 206.026 96.1186C202.684 90.4565 198.8 85.132 194.43 80.2202Z" fill="white"/>
<path d="M197.529 69.9729C205.508 77.6921 212.265 86.5802 217.569 96.3322C218.341 96.1249 219.098 95.8637 219.834 95.5506C214.333 85.4402 207.298 76.244 198.979 68.2896C198.454 68.8138 197.97 69.3765 197.529 69.9729Z" fill="white"/>
</g>
<path d="M183.426 83.2262C182.331 80.5542 182.311 75.0232 185.103 72.3912C187.775 69.9063 192.311 69.6591 194.328 75.297C195.717 79.1915 194.615 83.6738 192.464 85.7379C189.418 88.657 184.869 86.8 183.426 83.2262Z" fill="#FDC500"/>
<path opacity="0.1" d="M183.426 83.2262C182.331 80.5542 182.311 75.0232 185.103 72.3912C187.775 69.9063 192.311 69.6591 194.328 75.297C195.717 79.1915 194.615 83.6738 192.464 85.7379C189.418 88.657 184.869 86.8 183.426 83.2262Z" fill="#CA0000"/>
<path d="M182.585 82.2445C181.743 80.1603 181.73 75.9385 183.874 73.9145C185.878 72.004 189.412 71.817 190.961 76.1456C192.03 79.1383 191.182 82.5851 189.525 84.1616C187.194 86.4128 183.7 84.9833 182.585 82.2445Z" fill="#FDC500"/>
<path d="M187.949 105.464C190.741 122.07 203.981 143.54 208.39 148.376C215.103 155.771 245.918 147.842 252.198 146.639C254.87 146.132 246.62 122.758 243.747 123.259C241.242 123.687 217.695 130.607 216.994 129.779C216.426 129.111 205.043 113.747 196.88 103.627C189.84 94.896 187.214 101.068 187.949 105.464Z" fill="#F7A9A0"/>
<path d="M238.203 124.669L242.512 123.527C243.896 123.121 245.213 122.514 246.42 121.723C251.249 118.938 264.796 115.25 277.027 125.063C281.703 128.811 281.129 133.747 275.571 130.708C271.65 128.57 269.118 126.753 267.649 126.413C267.649 126.413 270.321 132.705 268.223 136.072C266.4 139.015 264.371 141.825 262.151 144.482C261.572 144.184 261.013 143.852 260.474 143.487C259.534 144.742 258.258 145.706 256.794 146.268C255.329 146.829 253.736 146.965 252.198 146.66L245.257 148.143L238.203 124.669Z" fill="#455A64"/>
<path d="M251.449 119.806C254.315 120.367 260.374 121.67 264.956 124.482C270.046 127.575 279.024 134.916 276.7 138.65C274.996 141.389 271.322 138.884 271.322 138.884C271.322 138.884 274.388 142.699 272.311 144.836C270.414 146.787 267.688 144.682 267.688 144.682C267.688 144.682 269.151 147.314 266.967 148.837C264.335 150.674 261.696 144.829 257.428 144.402C256.466 144.288 251.449 119.806 251.449 119.806Z" fill="#455A64"/>
<path d="M260.788 129.292C263.4 130.267 268.758 133.968 271.329 138.744C271.383 138.851 271.329 138.951 271.263 138.864C268.159 135.277 264.633 132.079 260.762 129.338C260.762 129.338 260.762 129.285 260.788 129.292Z" fill="#8471FE"/>
<path d="M257.848 134.522C260.013 135.597 265.363 139.692 267.802 144.582C267.855 144.696 267.802 144.796 267.728 144.702C264.819 140.959 261.493 137.56 257.815 134.569C257.815 134.569 257.782 134.509 257.848 134.522Z" fill="#8471FE"/>
<path d="M238.203 124.669L245.257 148.123C245.257 148.123 243.848 150.795 237.535 152.01C231.223 153.226 212.819 153.554 208.578 149.666C204.336 145.778 192.599 125.618 188.504 110.701C184.409 95.7849 193 97.181 197.502 103.641C202.004 110.1 217.014 128.838 217.462 129.025C217.91 129.212 228.437 125.19 232.251 124.415C236.066 123.64 238.203 124.669 238.203 124.669Z" fill="#FDC500"/>
<path d="M214.849 125.958C213.793 124.883 212.805 123.76 211.823 122.618C210.841 121.476 209.892 120.327 208.95 119.164C208.008 118.002 207.093 116.82 206.205 115.604L204.869 113.787C204.441 113.166 204 112.558 203.6 111.923C204.127 112.458 204.622 113.019 205.136 113.567L206.619 115.257C207.608 116.386 208.549 117.548 209.491 118.71C210.433 119.873 211.355 121.062 212.237 122.277C213.119 123.493 214.027 124.702 214.849 125.958Z" fill="#8471FE"/>
<path d="M206.412 115.384C206.124 114.934 205.88 114.458 205.684 113.961C205.487 113.464 205.315 112.958 205.17 112.444C205.364 112.644 205.53 112.869 205.664 113.112C205.798 113.345 205.916 113.586 206.018 113.834C206.225 114.328 206.358 114.85 206.412 115.384Z" fill="#8471FE"/>
<path d="M206.727 147.561C205.819 146.479 204.984 145.33 204.142 144.188C203.3 143.046 202.532 141.85 201.757 140.661C200.214 138.283 198.798 135.825 197.442 133.313C196.086 130.801 194.863 128.256 193.754 125.638C192.632 123.033 191.649 120.37 190.809 117.662C191.396 118.958 191.891 120.28 192.499 121.556C193.107 122.832 193.641 124.148 194.262 125.41L196.106 129.225C196.774 130.481 197.382 131.743 198.07 132.972C199.366 135.484 200.789 137.922 202.225 140.32C203.661 142.718 205.164 145.203 206.727 147.561Z" fill="#8471FE"/>
<path d="M192.618 122.365C192.17 122.024 191.762 121.634 191.402 121.202C191.036 120.776 190.722 120.307 190.467 119.806C190.914 120.145 191.32 120.535 191.676 120.968C192.047 121.393 192.363 121.862 192.618 122.365Z" fill="#8471FE"/>
<path opacity="0.1" d="M234.769 127.254C235.718 129.813 236.533 132.431 237.328 135.05C238.122 137.668 238.904 140.233 239.672 142.825C240.113 144.315 240.554 145.804 240.941 147.301C240.941 147.401 240.881 147.421 240.848 147.301C239.919 144.729 239.118 142.104 238.283 139.505C237.448 136.907 236.653 134.335 235.871 131.743C235.424 130.253 235.003 128.77 234.629 127.261C234.589 127.147 234.716 127.114 234.769 127.254Z" fill="#CA0000"/>
<path d="M255.096 225.283L258.776 225.965L259.598 229.846L260.42 225.965L264.1 225.283L260.433 224.388L259.598 220.728L258.756 224.388L255.096 225.283Z" fill="#C7C7C7"/>
<path d="M76.3379 214.862L80.0119 215.544L80.8402 219.418L81.6619 215.544L85.3359 214.856L81.6752 213.96L80.8402 210.3L79.9985 213.96L76.3379 214.862Z" fill="#C7C7C7"/>
<path d="M217.508 162.872L221.188 163.553L222.01 167.434L222.832 163.553L226.512 162.872L222.852 161.977L222.01 158.316L221.175 161.977L217.508 162.872Z" fill="#C7C7C7"/>
<path d="M290.072 202.451L292.13 202.832L292.591 204.996L293.052 202.832L295.102 202.451L293.058 201.95L292.591 199.899L292.123 201.95L290.072 202.451Z" fill="#C7C7C7"/>
<path d="M134 284.949L136.057 285.33L136.512 287.494L136.973 285.33L139.03 284.949L136.979 284.448L136.512 282.397L136.044 284.448L134 284.949Z" fill="#C7C7C7"/>
<path d="M285.041 104.856L287.098 105.237L287.559 107.408L288.014 105.237L290.071 104.856L288.027 104.355L287.559 102.311L287.085 104.355L285.041 104.856Z" fill="#C7C7C7"/>
<path d="M42.4316 151.489L44.4891 151.87L44.95 154.041L45.4109 151.87L47.4684 151.489L45.4176 150.988L44.95 148.944L44.4824 150.988L42.4316 151.489Z" fill="#C7C7C7"/>
<path d="M53.4668 261.843L55.5242 262.224L55.9852 264.388L56.4461 262.224L58.4968 261.843L56.4528 261.342L55.9852 259.291L55.5176 261.342L53.4668 261.843Z" fill="#C7C7C7"/>
<path d="M277.105 159.779L279.163 160.153L279.624 162.324L280.078 160.153L282.136 159.772L280.091 159.278L279.624 157.227L279.15 159.278L277.105 159.779Z" fill="#C7C7C7"/>
<path d="M115.51 55.7515L117.567 56.1322L118.028 58.2965L118.489 56.1322L120.546 55.7448L118.496 55.2438L118.028 53.1997L117.561 55.2438L115.51 55.7515Z" fill="#C7C7C7"/>
<path d="M196.023 221.97L198.081 222.35L198.542 224.515L199.003 222.35L201.06 221.97L199.009 221.469L198.542 219.418L198.074 221.469L196.023 221.97Z" fill="#C7C7C7"/>
<path d="M129.13 289.639C129.287 289.639 129.439 289.701 129.55 289.813C129.662 289.924 129.724 290.076 129.724 290.233C129.724 290.391 129.662 290.542 129.55 290.654C129.439 290.765 129.287 290.828 129.13 290.828C128.972 290.828 128.821 290.765 128.709 290.654C128.598 290.542 128.535 290.391 128.535 290.233C128.535 290.076 128.598 289.924 128.709 289.813C128.821 289.701 128.972 289.639 129.13 289.639Z" fill="#C7C7C7"/>
<path d="M235.483 177.821C235.631 177.837 235.768 177.907 235.867 178.017C235.966 178.127 236.021 178.271 236.021 178.419C236.021 178.568 235.966 178.711 235.867 178.821C235.768 178.932 235.631 179.001 235.483 179.017C235.336 179.001 235.199 178.932 235.1 178.821C235 178.711 234.945 178.568 234.945 178.419C234.945 178.271 235 178.127 235.1 178.017C235.199 177.907 235.336 177.837 235.483 177.821Z" fill="#C7C7C7"/>
<path d="M96.1922 285.163C96.3399 285.179 96.4765 285.248 96.5759 285.359C96.6752 285.469 96.7301 285.612 96.7301 285.761C96.7301 285.909 96.6752 286.053 96.5759 286.163C96.4765 286.273 96.3399 286.343 96.1922 286.359C96.0445 286.343 95.9079 286.273 95.8086 286.163C95.7093 286.053 95.6543 285.909 95.6543 285.761C95.6543 285.612 95.7093 285.469 95.8086 285.359C95.9079 285.248 96.0445 285.179 96.1922 285.163Z" fill="#C7C7C7"/>
<path d="M263.86 185.631C264.008 185.646 264.145 185.716 264.244 185.827C264.343 185.937 264.398 186.08 264.398 186.229C264.398 186.377 264.343 186.52 264.244 186.631C264.145 186.741 264.008 186.811 263.86 186.827C263.713 186.811 263.576 186.741 263.477 186.631C263.377 186.52 263.322 186.377 263.322 186.229C263.322 186.08 263.377 185.937 263.477 185.827C263.576 185.716 263.713 185.646 263.86 185.631Z" fill="#C7C7C7"/>
<path d="M144.067 278.917C144.179 278.917 144.286 278.961 144.365 279.04C144.444 279.119 144.488 279.226 144.488 279.338C144.488 279.449 144.444 279.556 144.365 279.635C144.286 279.714 144.179 279.759 144.067 279.759C143.956 279.759 143.849 279.714 143.77 279.635C143.691 279.556 143.646 279.449 143.646 279.338C143.646 279.226 143.691 279.119 143.77 279.04C143.849 278.961 143.956 278.917 144.067 278.917Z" fill="#C7C7C7"/>
<path d="M59.8447 59.9263C59.9563 59.9263 60.0633 59.9706 60.1422 60.0495C60.2212 60.1285 60.2655 60.2355 60.2655 60.3471C60.2655 60.4587 60.2212 60.5658 60.1422 60.6447C60.0633 60.7236 59.9563 60.768 59.8447 60.768C59.7331 60.768 59.626 60.7236 59.5471 60.6447C59.4682 60.5658 59.4238 60.4587 59.4238 60.3471C59.4238 60.2355 59.4682 60.1285 59.5471 60.0495C59.626 59.9706 59.7331 59.9263 59.8447 59.9263Z" fill="#C7C7C7"/>
<path d="M222.503 195.483C222.614 195.483 222.722 195.528 222.8 195.607C222.879 195.686 222.924 195.793 222.924 195.904C222.924 196.016 222.879 196.123 222.8 196.202C222.722 196.281 222.614 196.325 222.503 196.325C222.391 196.325 222.284 196.281 222.205 196.202C222.126 196.123 222.082 196.016 222.082 195.904C222.082 195.793 222.126 195.686 222.205 195.607C222.284 195.528 222.391 195.483 222.503 195.483Z" fill="#C7C7C7"/>
<path d="M208.208 187.815C208.497 187.837 208.766 187.968 208.963 188.18C209.16 188.393 209.269 188.671 209.269 188.961C209.269 189.251 209.16 189.53 208.963 189.742C208.766 189.954 208.497 190.085 208.208 190.107C207.919 190.085 207.649 189.954 207.453 189.742C207.256 189.53 207.146 189.251 207.146 188.961C207.146 188.671 207.256 188.393 207.453 188.18C207.649 187.968 207.919 187.837 208.208 187.815Z" fill="#C7C7C7"/>
<path d="M124.516 98.3696L128.196 99.0509L129.018 102.925L129.84 99.0509L133.52 98.3629L129.853 97.4678L129.018 93.8071L128.176 97.4678L124.516 98.3696Z" fill="#C7C7C7"/>
<path d="M163.732 38.7975L165.79 39.1783L166.251 41.3493L166.712 39.1783L168.769 38.7975L166.718 38.2965L166.251 36.2524L165.783 38.2965L163.732 38.7975Z" fill="#C7C7C7"/>
<path d="M39.0574 94.4487C39.2051 94.4644 39.3418 94.5341 39.4411 94.6445C39.5404 94.7549 39.5954 94.8981 39.5954 95.0466C39.5954 95.1951 39.5404 95.3383 39.4411 95.4487C39.3418 95.5591 39.2051 95.6288 39.0574 95.6444C38.9098 95.6288 38.7731 95.5591 38.6738 95.4487C38.5745 95.3383 38.5195 95.1951 38.5195 95.0466C38.5195 94.8981 38.5745 94.7549 38.6738 94.6445C38.7731 94.5341 38.9098 94.4644 39.0574 94.4487Z" fill="#C7C7C7"/>
<path d="M48.4226 252.564C48.5803 252.564 48.7315 252.627 48.843 252.739C48.9545 252.85 49.0172 253.001 49.0172 253.159C49.0172 253.317 48.9545 253.468 48.843 253.579C48.7315 253.691 48.5803 253.753 48.4226 253.753C48.265 253.753 48.1137 253.691 48.0023 253.579C47.8908 253.468 47.8281 253.317 47.8281 253.159C47.8281 253.001 47.8908 252.85 48.0023 252.739C48.1137 252.627 48.265 252.564 48.4226 252.564Z" fill="#C7C7C7"/>
<path d="M62.7912 144.428C62.9498 144.428 63.1018 144.491 63.214 144.603C63.3261 144.715 63.3891 144.868 63.3891 145.026C63.3891 145.185 63.3261 145.337 63.214 145.449C63.1018 145.561 62.9498 145.624 62.7912 145.624C62.6327 145.624 62.4806 145.561 62.3685 145.449C62.2563 145.337 62.1934 145.185 62.1934 145.026C62.1934 144.868 62.2563 144.715 62.3685 144.603C62.4806 144.491 62.6327 144.428 62.7912 144.428Z" fill="#C7C7C7"/>
<path d="M86.3993 224.141C86.511 224.141 86.618 224.185 86.6969 224.264C86.7759 224.343 86.8202 224.45 86.8202 224.561C86.8202 224.673 86.7759 224.78 86.6969 224.859C86.618 224.938 86.511 224.982 86.3993 224.982C86.2877 224.982 86.1807 224.938 86.1018 224.859C86.0228 224.78 85.9785 224.673 85.9785 224.561C85.9785 224.45 86.0228 224.343 86.1018 224.264C86.1807 224.185 86.2877 224.141 86.3993 224.141Z" fill="#C7C7C7"/>
<path d="M175.362 278.202C175.474 278.202 175.581 278.246 175.66 278.325C175.739 278.404 175.783 278.511 175.783 278.623C175.783 278.735 175.739 278.842 175.66 278.921C175.581 278.999 175.474 279.044 175.362 279.044C175.251 279.044 175.144 278.999 175.065 278.921C174.986 278.842 174.941 278.735 174.941 278.623C174.941 278.511 174.986 278.404 175.065 278.325C175.144 278.246 175.251 278.202 175.362 278.202Z" fill="#C7C7C7"/>
<path d="M238.001 85.25C238.113 85.25 238.22 85.2943 238.298 85.3733C238.377 85.4522 238.422 85.5592 238.422 85.6708C238.422 85.7825 238.377 85.8895 238.298 85.9684C238.22 86.0473 238.113 86.0917 238.001 86.0917C237.889 86.0917 237.782 86.0473 237.703 85.9684C237.624 85.8895 237.58 85.7825 237.58 85.6708C237.58 85.5592 237.624 85.4522 237.703 85.3733C237.782 85.2943 237.889 85.25 238.001 85.25Z" fill="#C7C7C7"/>
<path d="M161.81 59.4521C161.921 59.4521 162.028 59.4965 162.107 59.5754C162.186 59.6543 162.23 59.7614 162.23 59.873C162.23 59.9846 162.186 60.0916 162.107 60.1706C162.028 60.2495 161.921 60.2938 161.81 60.2938C161.698 60.2938 161.591 60.2495 161.512 60.1706C161.433 60.0916 161.389 59.9846 161.389 59.873C161.389 59.7614 161.433 59.6543 161.512 59.5754C161.591 59.4965 161.698 59.4521 161.81 59.4521Z" fill="#C7C7C7"/>
<path d="M136.519 209.157C136.822 209.157 137.113 209.278 137.327 209.492C137.541 209.706 137.662 209.997 137.662 210.3C137.662 210.602 137.541 210.893 137.327 211.107C137.113 211.321 136.822 211.442 136.519 211.442C136.216 211.442 135.926 211.321 135.712 211.107C135.497 210.893 135.377 210.602 135.377 210.3C135.377 209.997 135.497 209.706 135.712 209.492C135.926 209.278 136.216 209.157 136.519 209.157Z" fill="#C7C7C7"/>
<path d="M287.052 122.805C287.355 122.805 287.646 122.926 287.86 123.14C288.074 123.354 288.195 123.645 288.195 123.947C288.195 124.25 288.074 124.541 287.86 124.755C287.646 124.969 287.355 125.09 287.052 125.09C286.749 125.09 286.459 124.969 286.245 124.755C286.03 124.541 285.91 124.25 285.91 123.947C285.91 123.645 286.03 123.354 286.245 123.14C286.459 122.926 286.749 122.805 287.052 122.805Z" fill="#C7C7C7"/>
<path d="M53.1716 222.998C53.4745 222.998 53.7651 223.118 53.9793 223.333C54.1935 223.547 54.3139 223.837 54.3139 224.14C54.3139 224.443 54.1935 224.734 53.9793 224.948C53.7651 225.162 53.4745 225.283 53.1716 225.283C52.8686 225.283 52.5781 225.162 52.3639 224.948C52.1496 224.734 52.0293 224.443 52.0293 224.14C52.0293 223.837 52.1496 223.547 52.3639 223.333C52.5781 223.118 52.8686 222.998 53.1716 222.998Z" fill="#C7C7C7"/>
<path d="M122.912 116.78L124.97 117.161L125.43 119.332L125.885 117.161L127.942 116.78L125.898 116.279L125.43 114.235L124.956 116.279L122.912 116.78Z" fill="#C7C7C7"/>
<path d="M192.871 282.731L194.929 283.111L195.389 285.282L195.844 283.111L197.901 282.731L195.857 282.23L195.389 280.186L194.922 282.23L192.871 282.731Z" fill="#C7C7C7"/>
<path d="M201.983 256.024C202.141 256.024 202.292 256.087 202.404 256.199C202.515 256.31 202.578 256.461 202.578 256.619C202.578 256.777 202.515 256.928 202.404 257.039C202.292 257.151 202.141 257.213 201.983 257.213C201.826 257.213 201.674 257.151 201.563 257.039C201.451 256.928 201.389 256.777 201.389 256.619C201.389 256.461 201.451 256.31 201.563 256.199C201.674 256.087 201.826 256.024 201.983 256.024Z" fill="#C7C7C7"/>
<path d="M225.216 240.166C225.373 240.166 225.525 240.229 225.636 240.34C225.747 240.452 225.81 240.603 225.81 240.761C225.81 240.918 225.747 241.069 225.636 241.181C225.525 241.292 225.373 241.355 225.216 241.355C225.058 241.355 224.907 241.292 224.795 241.181C224.684 241.069 224.621 240.918 224.621 240.761C224.621 240.603 224.684 240.452 224.795 240.34C224.907 240.229 225.058 240.166 225.216 240.166Z" fill="#C7C7C7"/>
<path d="M151.695 267.548L153.753 267.929L154.214 270.093L154.675 267.929L156.732 267.541L154.681 267.047L154.214 264.996L153.746 267.047L151.695 267.548Z" fill="#C7C7C7"/>
<path d="M236.358 75.5308C236.506 75.5464 236.643 75.6161 236.742 75.7265C236.841 75.8369 236.896 75.9801 236.896 76.1286C236.896 76.2771 236.841 76.4204 236.742 76.5307C236.643 76.6411 236.506 76.7109 236.358 76.7265C236.211 76.7109 236.074 76.6411 235.975 76.5307C235.875 76.4204 235.82 76.2771 235.82 76.1286C235.82 75.9801 235.875 75.8369 235.975 75.7265C236.074 75.6161 236.211 75.5464 236.358 75.5308Z" fill="#C7C7C7"/>
<path d="M250.7 242.043C250.804 242.056 250.899 242.106 250.968 242.184C251.037 242.262 251.075 242.363 251.075 242.467C251.075 242.571 251.037 242.672 250.968 242.75C250.899 242.828 250.804 242.878 250.7 242.891C250.597 242.878 250.502 242.828 250.433 242.75C250.364 242.672 250.326 242.571 250.326 242.467C250.326 242.363 250.364 242.262 250.433 242.184C250.502 242.106 250.597 242.056 250.7 242.043Z" fill="#C7C7C7"/>
<path d="M71.2422 170.34L73.2996 170.721L73.7605 172.892L74.2148 170.721L76.2722 170.34L74.2281 169.839L73.7605 167.795L73.2929 169.839L71.2422 170.34Z" fill="#C7C7C7"/>
<path d="M47.4676 203.152C47.6252 203.152 47.7765 203.215 47.888 203.326C47.9995 203.438 48.0621 203.589 48.0621 203.747C48.0621 203.905 47.9995 204.056 47.888 204.167C47.7765 204.279 47.6252 204.341 47.4676 204.341C47.3099 204.341 47.1587 204.279 47.0472 204.167C46.9357 204.056 46.873 203.905 46.873 203.747C46.873 203.589 46.9357 203.438 47.0472 203.326C47.1587 203.215 47.3099 203.152 47.4676 203.152Z" fill="#C7C7C7"/>
<path d="M129.712 159.245C129.869 159.245 130.021 159.307 130.132 159.419C130.244 159.53 130.306 159.681 130.306 159.839C130.306 159.997 130.244 160.148 130.132 160.26C130.021 160.371 129.869 160.434 129.712 160.434C129.554 160.434 129.403 160.371 129.291 160.26C129.18 160.148 129.117 159.997 129.117 159.839C129.117 159.681 129.18 159.53 129.291 159.419C129.403 159.307 129.554 159.245 129.712 159.245Z" fill="#C7C7C7"/>
<path d="M59.8447 99.0112C59.9563 99.0112 60.0633 99.0556 60.1422 99.1345C60.2212 99.2134 60.2655 99.3205 60.2655 99.4321C60.2655 99.5437 60.2212 99.6507 60.1422 99.7296C60.0633 99.8086 59.9563 99.8529 59.8447 99.8529C59.7331 99.8529 59.626 99.8086 59.5471 99.7296C59.4682 99.6507 59.4238 99.5437 59.4238 99.4321C59.4238 99.3205 59.4682 99.2134 59.5471 99.1345C59.626 99.0556 59.7331 99.0112 59.8447 99.0112Z" fill="#C7C7C7"/>
<path d="M54.4481 95.1299C54.7369 95.1519 55.0066 95.2822 55.2034 95.4946C55.4002 95.707 55.5096 95.9859 55.5096 96.2755C55.5096 96.5651 55.4002 96.844 55.2034 97.0564C55.0066 97.2688 54.7369 97.3991 54.4481 97.4211C54.1594 97.3991 53.8897 97.2688 53.6929 97.0564C53.4961 96.844 53.3867 96.5651 53.3867 96.2755C53.3867 95.9859 53.4961 95.707 53.6929 95.4946C53.8897 95.2822 54.1594 95.1519 54.4481 95.1299Z" fill="#C7C7C7"/>
<path d="M249.097 148.296C249.4 148.296 249.691 148.416 249.905 148.63C250.119 148.845 250.24 149.135 250.24 149.438C250.24 149.741 250.119 150.032 249.905 150.246C249.691 150.46 249.4 150.58 249.097 150.58C248.794 150.58 248.504 150.46 248.29 150.246C248.075 150.032 247.955 149.741 247.955 149.438C247.955 149.135 248.075 148.845 248.29 148.63C248.504 148.416 248.794 148.296 249.097 148.296Z" fill="#C7C7C7"/>
</svg>
