<svg width="900" height="900" viewBox="0 0 900 900" fill="none" xmlns="http://www.w3.org/2000/svg">
<rect width="900" height="900" fill="#F7F5FF"/>
<path d="M190.798 250.328L176.742 353.341L339.181 375.506L353.237 272.493L190.798 250.328Z" fill="#FFD952"/>
<path d="M190.801 250.308C196.507 257.508 202.375 264.402 208.135 271.476C213.895 278.55 219.835 285.39 225.739 292.266C231.877 299.466 238.069 306.666 244.243 313.704C244.441 313.92 244.603 314.154 244.801 314.388C250.285 320.652 255.787 326.91 261.307 333.162L262.117 334.062L263.125 333.414C270.109 328.866 277.081 324.294 284.041 319.698C284.289 319.555 284.529 319.399 284.761 319.23C292.669 314.046 300.541 308.808 308.377 303.516C315.865 298.476 323.389 293.346 330.859 288.216C338.329 283.086 345.817 277.848 353.233 272.466C345.529 276.894 337.897 281.592 330.247 286.164C322.597 290.736 314.965 295.506 307.351 300.294C298.879 305.562 290.407 310.92 281.935 316.368C275.587 320.4 269.239 324.456 262.891 328.536C257.905 322.92 252.883 317.268 247.843 311.706C241.147 304.242 234.421 296.814 227.665 289.422C221.593 282.798 215.503 276.198 209.395 269.622C203.113 263.214 197.029 256.644 190.801 250.308Z" fill="white"/>
<path d="M281.341 318.69C281.405 318.752 281.465 318.818 281.521 318.888L283.789 321.408C287.389 325.404 291.115 329.256 294.913 333.036C299.557 337.68 304.327 342.198 309.133 346.68C313.939 351.162 318.835 355.482 323.857 359.73C328.879 363.978 333.937 368.19 339.229 372.114C334.891 367.128 330.229 362.412 325.675 357.714C321.121 353.016 316.243 348.552 311.473 344.088C306.703 339.624 301.735 335.25 296.731 330.984C292.753 327.582 288.685 324.234 284.491 321.03C283.531 320.274 282.559 319.536 281.575 318.816L281.341 318.69Z" fill="white"/>
<path d="M177.57 350.082C183.744 347.706 189.774 345.024 195.714 342.27C201.654 339.516 207.54 336.564 213.408 333.612C219.276 330.66 225.054 327.528 230.76 324.288C235.422 321.66 240.03 318.888 244.548 316.08C245.538 315.468 246.492 314.856 247.446 314.28L247.662 314.136C247.574 314.159 247.481 314.159 247.392 314.136L243.972 315.522C239.094 317.484 234.306 319.644 229.572 321.84C223.614 324.612 217.746 327.528 211.896 330.516C206.046 333.504 200.268 336.6 194.544 339.858C188.82 343.116 183.096 346.428 177.57 350.082Z" fill="white"/>
<path d="M232.195 101.256L97.8535 135.349L119.474 220.542L253.815 186.449L232.195 101.256Z" fill="#FFD952"/>
<path d="M97.8486 135.342C104.599 139.158 111.385 142.722 118.153 146.43C124.921 150.138 131.725 153.63 138.529 157.23C145.621 160.938 152.731 164.556 159.841 168.174L160.489 168.534L179.371 178.02L180.289 178.47L180.883 177.642C184.915 171.864 188.911 166.068 192.925 160.272C193.073 160.075 193.211 159.871 193.339 159.66C197.899 153.108 202.411 146.508 206.875 139.86C211.159 133.542 215.425 127.134 219.655 120.744C223.885 114.354 228.097 107.874 232.255 101.322C227.611 107.226 223.129 113.328 218.575 119.322C214.021 125.316 209.575 131.49 205.111 137.646C200.143 144.474 195.193 151.362 190.261 158.31C186.577 163.482 182.887 168.672 179.191 173.88C173.431 171 167.707 168.21 162.001 165.438C154.369 161.694 146.737 157.998 139.105 154.35C132.265 151.092 125.407 147.852 118.549 144.684C111.691 141.516 104.761 138.33 97.8486 135.342Z" fill="white"/>
<path d="M190.513 160.2C190.575 160.243 190.641 160.279 190.711 160.308L193.285 161.568C197.377 163.548 201.511 165.408 205.687 167.148C210.799 169.344 215.965 171.36 221.149 173.34C226.333 175.32 231.553 177.174 236.827 178.92C242.101 180.666 247.411 182.358 252.811 183.762C247.825 181.224 242.749 178.974 237.655 176.796C232.561 174.618 227.341 172.602 222.175 170.622C217.009 168.642 211.753 166.77 206.479 165.024C202.285 163.62 198.037 162.27 193.735 161.082C192.745 160.794 191.755 160.542 190.747 160.272L190.513 160.2Z" fill="white"/>
<path d="M119.106 217.8C123.192 214.002 127.062 209.988 130.842 205.92C134.622 201.852 138.33 197.712 141.984 193.554C145.638 189.396 149.184 185.076 152.622 180.738C155.448 177.138 158.22 173.538 160.848 169.938L162.522 167.58C162.522 167.58 162.522 167.454 162.648 167.4L162.468 167.562C161.712 168.282 160.956 168.984 160.218 169.722C157.014 172.8 153.936 176.004 150.894 179.262C147.096 183.312 143.424 187.47 139.788 191.646C136.152 195.822 132.588 200.106 129.15 204.462C125.712 208.818 122.274 213.12 119.106 217.8Z" fill="white"/>
<path d="M788.932 470.716L651.275 486.863L661.515 574.158L799.171 558.012L788.932 470.716Z" fill="#FFD952"/>
<path d="M651.259 486.9C657.451 491.562 663.715 495.99 669.925 500.58C676.135 505.17 682.435 509.49 688.717 513.882C694.999 518.274 701.839 523.008 708.409 527.526L709.003 527.958C714.799 531.93 720.619 535.896 726.463 539.856L727.327 540.414L728.011 539.676C732.811 534.48 737.551 529.266 742.231 524.034C742.412 523.867 742.581 523.687 742.735 523.494C748.099 517.59 753.439 511.638 758.755 505.638C763.831 499.95 768.889 494.154 773.929 488.376C778.969 482.598 783.991 476.73 788.923 470.754C783.523 476.01 778.303 481.554 772.993 486.828C767.683 492.102 762.463 497.628 757.225 503.226C751.405 509.322 745.603 515.496 739.819 521.748C735.481 526.392 731.161 531.072 726.823 535.734C721.531 532.134 716.239 528.624 710.947 525.132C703.891 520.416 696.811 515.748 689.707 511.128C683.371 506.988 677.005 502.896 670.609 498.852C664.075 494.874 657.703 490.77 651.259 486.9Z" fill="white"/>
<path d="M739.801 523.8L739.981 523.926C740.773 524.466 741.583 525.006 742.375 525.51C746.173 528.03 750.025 530.406 753.949 532.71C758.719 535.536 763.579 538.218 768.457 540.882C773.335 543.546 778.267 546.03 783.271 548.46C788.275 550.89 793.297 553.266 798.463 555.354C793.873 552.186 789.121 549.288 784.351 546.48C779.581 543.672 774.685 540.954 769.825 538.308C764.965 535.662 759.997 533.124 755.011 530.694C751.033 528.75 746.983 526.86 742.879 525.114C741.943 524.706 740.989 524.31 740.017 523.926L739.801 523.8Z" fill="white"/>
<path d="M661.5 571.374C666.054 568.134 670.5 564.66 674.694 561.15C678.888 557.64 683.19 553.95 687.294 550.35C691.398 546.75 695.538 542.916 699.534 539.046C702.792 535.914 705.996 532.728 709.092 529.416L711.072 527.292C711.124 527.242 711.173 527.188 711.216 527.13C711.159 527.184 711.092 527.227 711.018 527.256L708.516 529.056C704.916 531.702 701.46 534.456 698.004 537.282C693.702 540.882 689.526 544.482 685.404 548.082C681.282 551.682 677.16 555.516 673.164 559.386C669.168 563.256 665.244 567.216 661.5 571.374Z" fill="white"/>
<path d="M680.635 287.316L657.001 287.82L645.013 288.018C640.999 288.108 636.967 288.018 632.953 288.126H632.161V287.316L632.053 267.174V266.274H632.953L656.785 266.382C664.723 266.382 672.679 266.598 680.617 266.688H681.121V267.174C681.121 270.594 680.977 273.996 680.887 277.344L680.635 287.316ZM680.635 287.316L680.401 277.2C680.311 273.834 680.203 270.522 680.167 267.228L680.653 267.714C672.715 267.804 664.759 268.002 656.821 268.02L632.989 268.128L633.889 267.228V287.37L633.079 286.56C637.003 286.56 640.927 286.56 644.869 286.668L656.713 286.866L680.635 287.316Z" fill="#FFD952"/>
<path d="M654.048 312.714L630.414 313.218L618.426 313.416C614.43 313.416 610.398 313.416 606.384 313.524H605.592V312.714L605.502 292.572V291.6H606.402L630.234 291.708C638.172 291.708 646.128 291.924 654.066 292.014H654.57V292.5C654.57 295.92 654.426 299.322 654.336 302.67L654.048 312.714ZM654.048 312.714L653.796 302.544C653.706 299.178 653.598 295.866 653.562 292.572L654.048 293.058C646.11 293.148 638.154 293.346 630.216 293.364L606.384 293.472L607.284 292.572L607.176 312.714L606.384 311.904C610.308 311.904 614.232 311.904 618.156 312.012L630 312.21L654.048 312.714Z" fill="#FFD952"/>
<path d="M707.22 312.714L683.604 313.218L671.616 313.416C667.602 313.416 663.57 313.416 659.556 313.524H658.8V312.714L658.692 292.572V291.6H659.592L683.424 291.708C691.38 291.708 699.318 291.924 707.256 292.014H707.76V292.5C707.76 295.92 707.598 299.322 707.508 302.67L707.22 312.714ZM707.22 312.714L706.968 302.544C706.968 299.178 706.77 295.866 706.734 292.572L707.22 293.058C699.282 293.148 691.344 293.346 683.388 293.364L659.556 293.472L660.456 292.572L660.366 312.714L659.556 311.904C663.48 311.904 667.404 311.904 671.346 312.012L683.19 312.21L707.22 312.714Z" fill="#FFD952"/>
<path d="M798.031 104.922L774.397 105.426L762.409 105.624C758.395 105.624 754.381 105.624 750.367 105.732H749.557V104.922L749.467 84.78V83.88H750.385L774.217 83.988C782.155 83.988 790.093 84.204 798.049 84.294H798.535V84.78C798.535 88.2 798.373 91.602 798.301 94.95L798.031 104.922ZM798.031 104.922L797.761 94.752C797.761 91.386 797.563 88.074 797.527 84.78L798.031 85.266C790.075 85.356 782.137 85.554 774.199 85.572L750.367 85.68L751.249 84.78L751.159 104.922L750.367 104.112C754.291 104.112 758.197 104.112 762.139 104.22L774.001 104.4L798.031 104.922Z" fill="#FFD952"/>
<path d="M824.616 130.32L801 130.824L789.012 131.022C785.016 131.022 780.984 131.022 776.97 131.13H776.16V130.32L776.07 110.178V109.278H776.97L800.802 109.386C808.74 109.386 816.678 109.602 824.634 109.692H825.12V110.178C825.12 113.598 824.958 117 824.886 120.348L824.616 130.32ZM824.616 130.32L824.4 120.15C824.31 116.784 824.184 113.472 824.148 110.178L824.652 110.664C816.696 110.754 808.758 110.952 800.82 110.97L776.988 111.078L777.888 110.178L777.78 130.32L776.988 129.51C780.912 129.51 784.818 129.51 788.76 129.618L800.604 129.816L824.616 130.32Z" fill="#FFD952"/>
<path d="M123.048 104.94L99.4324 105.444L87.4444 105.642C83.4304 105.732 79.3984 105.642 75.3844 105.75H74.5924V104.94L74.4844 84.7979V83.8979H75.3844L99.2164 84.0239C107.172 84.0239 115.11 84.2219 123.048 84.3119H123.552V84.7979C123.552 88.2179 123.39 91.6199 123.3 94.9859L123.048 104.94ZM123.048 104.94L122.796 94.7699C122.796 91.422 122.598 88.0919 122.562 84.7979L123.048 85.3019C115.11 85.3019 107.172 85.5719 99.2164 85.5899L75.3844 85.6979L76.2844 84.7979L76.1944 104.94L75.3844 104.148C79.3084 104.148 83.2324 104.148 87.1744 104.148L99.0004 104.4L123.048 104.94Z" fill="#FFD952"/>
<path d="M776.952 573.318L800.568 572.814L812.556 572.616C816.57 572.526 820.602 572.616 824.616 572.508H825.408V573.318L825.516 593.46V594.36H824.616L800.784 594.234C792.828 594.234 784.89 594.036 776.952 593.946H776.448V593.46C776.448 590.04 776.61 586.638 776.682 583.272L776.952 573.318ZM776.952 573.318L777.204 583.488C777.204 586.836 777.402 590.166 777.438 593.46L776.952 592.956C784.89 592.866 792.828 592.686 800.784 592.668L824.616 592.56L823.716 593.46L823.806 573.318L824.616 574.11C820.692 574.11 816.768 574.11 812.826 574.02L800.982 573.822L776.952 573.318Z" fill="#FFD952"/>
<path d="M75.384 573.318L99 572.814L110.988 572.616C114.984 572.526 119.016 572.616 123.03 572.508H123.84V573.318V593.46V594.36H122.94L99.108 594.234C91.17 594.234 83.232 594.036 75.276 593.946H74.79V593.46C74.79 590.04 74.952 586.638 75.024 583.272L75.384 573.318ZM75.384 573.318L75.636 583.488C75.636 586.836 75.852 590.166 75.888 593.46L75.384 592.956C83.34 592.866 91.278 592.686 99.216 592.668L123.048 592.56L122.148 593.46L122.256 573.318L123.048 574.11C119.124 574.11 115.218 574.11 111.276 574.02L99.432 573.822L75.384 573.318Z" fill="#FFD952"/>
<path d="M101.97 547.92L125.604 547.416L137.592 547.218C141.606 547.128 145.62 547.218 149.634 547.11H150.444V547.92V568.062V568.962H149.526L125.802 568.8C117.864 568.8 109.926 568.602 101.97 568.512H101.484V568.026C101.484 564.606 101.646 561.204 101.718 557.838L101.97 547.92ZM101.97 547.92L102.24 558.09C102.24 561.438 102.438 564.768 102.474 568.062L101.97 567.558C109.926 567.468 117.864 567.288 125.802 567.27L149.634 567.162L148.752 568.062V547.92L149.544 548.712C145.62 548.712 141.714 548.712 137.772 548.712L126 548.424L101.97 547.92Z" fill="#FFD952"/>
<path d="M71.9463 807.354L166.464 806.922L260.982 806.76L450 806.454L639.018 806.76L733.536 806.922L828.054 807.354L733.536 807.804L639.018 807.948L450 808.254L260.982 807.948L166.464 807.786L71.9463 807.354Z" fill="#454545"/>
<path d="M674.388 104.94H364.23C360.071 104.978 355.959 105.834 352.131 107.462C348.303 109.089 344.833 111.454 341.919 114.423C339.006 117.392 336.705 120.906 335.15 124.764C333.595 128.622 332.816 132.748 332.856 136.908V775.386C332.784 783.784 336.047 791.867 341.93 797.86C347.812 803.854 355.832 807.268 364.23 807.354H674.388C682.79 807.273 690.817 803.861 696.706 797.868C702.595 791.874 705.865 783.788 705.798 775.386V136.908C705.836 132.746 705.054 128.618 703.495 124.758C701.937 120.899 699.634 117.385 696.717 114.416C693.8 111.447 690.326 109.082 686.495 107.456C682.664 105.83 678.55 104.975 674.388 104.94ZM686.178 755.64C686.178 772.452 673.578 786.042 658.062 786.042H380.592C365.04 786.042 352.44 772.452 352.44 755.64V161.1C352.44 126.9 365.04 125.1 380.592 125.1H436.176C439.416 125.1 442.062 128.7 442.062 133.326V135.288C442.062 145.944 447.894 145.98 455.04 145.98H583.578C590.778 145.98 596.61 145.98 596.61 135.288V133.416C596.61 128.862 599.22 125.19 602.496 125.19H658.062C673.596 125.19 686.178 129.744 686.178 161.19V755.64Z" fill="#454545"/>
<path d="M686.196 161.1V755.64C686.196 772.452 673.596 786.042 658.08 786.042H380.61C365.058 786.042 352.458 772.452 352.458 755.64V161.1C352.458 126.9 365.058 125.1 380.61 125.1H436.194C439.434 125.1 442.08 128.7 442.08 133.326V135.288C442.08 145.944 447.912 145.98 455.058 145.98H583.596C590.796 145.98 596.628 145.98 596.628 135.288V133.416C596.628 128.862 599.238 125.19 602.514 125.19H658.08C673.614 125.19 686.196 129.744 686.196 161.1Z" fill="white"/>
<path d="M686.196 161.118V215.118H352.458V161.118C352.458 126.918 365.058 125.118 380.61 125.118H436.194C439.434 125.118 442.08 128.718 442.08 133.344V135.306C442.08 145.962 447.912 145.998 455.058 145.998H583.596C590.796 145.998 596.628 145.998 596.628 135.306V133.434C596.628 128.88 599.238 125.208 602.514 125.208H658.08C673.614 125.208 686.196 129.762 686.196 161.118Z" fill="#664EFE"/>
<path d="M536.85 132.246H501.786C501.211 132.241 500.662 132.01 500.258 131.602C499.853 131.194 499.626 130.643 499.626 130.068C499.626 129.784 499.682 129.503 499.79 129.241C499.899 128.979 500.058 128.741 500.259 128.541C500.459 128.34 500.697 128.181 500.959 128.072C501.221 127.964 501.502 127.908 501.786 127.908H536.85C537.134 127.908 537.415 127.964 537.677 128.072C537.939 128.181 538.177 128.34 538.377 128.541C538.578 128.741 538.737 128.979 538.846 129.241C538.954 129.503 539.01 129.784 539.01 130.068C539.012 130.353 538.958 130.636 538.851 130.9C538.743 131.164 538.585 131.404 538.384 131.607C538.183 131.809 537.944 131.97 537.681 132.08C537.418 132.19 537.135 132.246 536.85 132.246Z" fill="white"/>
<path d="M403.182 176.04H374.22V194.4H403.182V176.04Z" fill="white"/>
<path d="M403.2 176.04C402.03 177.156 400.842 178.236 399.6 179.334L396 182.556L392.4 185.868L392.292 185.976L388.8 188.874L388.638 189L388.476 188.874L385.2 185.958H385.092C383.832 184.86 382.572 183.762 381.33 182.646L377.73 179.424C376.56 178.326 375.372 177.246 374.13 176.13C375.372 177.102 376.596 178.092 377.73 179.082C378.864 180.072 380.178 181.08 381.33 182.106C382.482 183.132 384.048 184.374 385.398 185.526L388.422 188.118L391.464 185.526L395.514 182.106L399.114 179.1L403.2 176.04Z" fill="#664EFE"/>
<path d="M385.686 185.85L385.218 186.228C384.498 186.84 383.742 187.434 382.986 188.028C382.23 188.622 381.186 189.396 380.178 190.062C379.17 190.728 378.27 191.376 377.298 192.006C376.326 192.636 375.318 193.248 374.31 193.806C375.174 193.032 376.11 192.312 377.01 191.61C377.91 190.908 378.81 190.242 379.836 189.576C380.862 188.91 381.744 188.262 382.716 187.632C383.688 187.002 384.3 186.642 385.11 186.174C385.29 186.061 385.476 185.959 385.668 185.868L385.686 185.85Z" fill="#664EFE"/>
<path d="M403.2 193.824C402.174 193.266 401.184 192.654 400.212 192.024C399.24 191.394 398.268 190.746 397.314 190.08C396.36 189.414 395.424 188.748 394.506 188.046C393.588 187.344 393.012 186.894 392.292 186.246L391.824 185.868L392.382 186.192C393.198 186.66 393.99 187.146 394.758 187.65C395.748 188.28 396.702 188.928 397.656 189.594C398.61 190.26 399.546 190.926 400.464 191.628C401.382 192.33 402.228 193.05 403.2 193.824Z" fill="#664EFE"/>
<path d="M409.392 176.04C409.392 177.269 409.027 178.47 408.344 179.492C407.661 180.514 406.69 181.309 405.554 181.779C404.418 182.248 403.169 182.37 401.964 182.129C400.758 181.888 399.652 181.295 398.784 180.425C397.916 179.554 397.326 178.446 397.089 177.24C396.851 176.035 396.977 174.785 397.45 173.651C397.922 172.517 398.721 171.548 399.745 170.868C400.768 170.188 401.971 169.826 403.2 169.83C404.844 169.835 406.418 170.491 407.579 171.655C408.74 172.819 409.392 174.396 409.392 176.04Z" fill="#2E2E2E"/>
<path d="M405.234 177.282C405.229 177.412 405.174 177.536 405.08 177.627C404.986 177.717 404.861 177.768 404.73 177.768V178.452C404.708 178.567 404.647 178.671 404.556 178.746C404.466 178.82 404.352 178.861 404.235 178.861C404.118 178.861 404.004 178.82 403.914 178.746C403.824 178.671 403.762 178.567 403.74 178.452V177.768H400.932C400.876 177.773 400.82 177.765 400.767 177.747C400.715 177.728 400.667 177.699 400.626 177.66C400.579 177.616 400.542 177.563 400.516 177.504C400.491 177.446 400.478 177.382 400.478 177.318C400.478 177.254 400.491 177.19 400.516 177.131C400.542 177.073 400.579 177.02 400.626 176.976L403.758 172.8H403.902H404.19V176.4C404.307 176.261 404.474 176.175 404.655 176.16C404.835 176.145 405.015 176.202 405.153 176.319C405.292 176.436 405.378 176.603 405.393 176.784C405.408 176.964 405.351 177.143 405.234 177.282ZM403.65 174.582L401.85 176.796H403.65V174.582Z" fill="white"/>
<path d="M426.6 138.024L426.06 138.564L425.754 138.87C424.38 137.499 422.519 136.73 420.579 136.73C418.638 136.73 416.777 137.499 415.404 138.87L415.116 138.564C414.936 138.384 414.756 138.222 414.594 138.042L415.278 137.43C415.756 137.036 416.283 136.703 416.844 136.44C417.503 136.107 418.206 135.871 418.932 135.738C419.274 135.738 419.616 135.738 419.958 135.594H420.876H421.578C422.231 135.667 422.873 135.824 423.486 136.062C423.934 136.223 424.367 136.422 424.782 136.656C425.218 136.911 425.633 137.2 426.024 137.52L426.582 138.042L426.6 138.024Z" fill="white"/>
<path d="M417.096 140.562L416.25 139.716C417.16 138.745 418.371 138.11 419.688 137.916C420.636 137.783 421.601 137.877 422.506 138.19C423.41 138.503 424.227 139.026 424.89 139.716L424.044 140.562C423.12 139.647 421.871 139.136 420.57 139.14C419.926 139.135 419.287 139.258 418.69 139.502C418.094 139.746 417.552 140.107 417.096 140.562Z" fill="white"/>
<path d="M423.197 141.408C422.909 141.678 422.621 141.966 422.351 142.254C422.117 142.015 421.837 141.827 421.527 141.7C421.218 141.573 420.886 141.51 420.551 141.516C420.217 141.508 419.884 141.57 419.574 141.697C419.264 141.824 418.984 142.014 418.751 142.254L417.905 141.408C418.25 141.056 418.662 140.777 419.117 140.586C419.571 140.396 420.059 140.298 420.551 140.298C421.044 140.298 421.532 140.396 421.986 140.586C422.44 140.777 422.852 141.056 423.197 141.408Z" fill="white"/>
<path d="M421.326 143.01C421.33 143.165 421.287 143.317 421.203 143.447C421.12 143.577 420.999 143.679 420.857 143.739C420.715 143.8 420.557 143.817 420.406 143.788C420.254 143.758 420.114 143.684 420.005 143.575C419.896 143.466 419.822 143.326 419.792 143.174C419.763 143.023 419.78 142.866 419.841 142.723C419.902 142.581 420.003 142.461 420.133 142.377C420.263 142.293 420.416 142.25 420.57 142.254C420.771 142.254 420.963 142.334 421.105 142.475C421.246 142.617 421.326 142.809 421.326 143.01Z" fill="white"/>
<path d="M374.22 139.644C374.22 139.206 374.35 138.778 374.593 138.414C374.836 138.05 375.182 137.766 375.586 137.598C375.991 137.431 376.436 137.387 376.866 137.472C377.295 137.558 377.69 137.769 377.999 138.078C378.309 138.388 378.52 138.783 378.605 139.212C378.691 139.641 378.647 140.087 378.479 140.491C378.312 140.896 378.028 141.242 377.664 141.485C377.3 141.728 376.872 141.858 376.434 141.858C376.143 141.858 375.855 141.801 375.586 141.689C375.318 141.578 375.074 141.415 374.868 141.209C374.663 141.004 374.5 140.76 374.388 140.491C374.277 140.223 374.22 139.935 374.22 139.644Z" fill="white"/>
<path d="M381.186 139.644C381.186 139.206 381.315 138.778 381.559 138.414C381.802 138.05 382.148 137.766 382.552 137.598C382.957 137.431 383.402 137.387 383.831 137.472C384.261 137.558 384.655 137.769 384.965 138.078C385.275 138.388 385.486 138.783 385.571 139.212C385.656 139.641 385.613 140.087 385.445 140.491C385.277 140.896 384.994 141.242 384.63 141.485C384.265 141.728 383.837 141.858 383.4 141.858C382.812 141.858 382.249 141.625 381.834 141.209C381.419 140.794 381.186 140.231 381.186 139.644Z" fill="white"/>
<path d="M388.152 139.644C388.152 139.206 388.282 138.778 388.525 138.414C388.769 138.05 389.115 137.766 389.519 137.598C389.924 137.431 390.369 137.387 390.798 137.472C391.228 137.558 391.622 137.769 391.932 138.078C392.242 138.388 392.452 138.783 392.538 139.212C392.623 139.641 392.579 140.087 392.412 140.491C392.244 140.896 391.96 141.242 391.596 141.485C391.232 141.728 390.804 141.858 390.366 141.858C389.779 141.858 389.216 141.625 388.801 141.209C388.386 140.794 388.152 140.231 388.152 139.644Z" fill="white"/>
<path d="M395.118 139.644C395.118 139.206 395.248 138.778 395.491 138.414C395.735 138.05 396.08 137.766 396.485 137.598C396.889 137.431 397.335 137.387 397.764 137.472C398.194 137.558 398.588 137.769 398.898 138.078C399.207 138.388 399.418 138.783 399.504 139.212C399.589 139.641 399.545 140.087 399.378 140.491C399.21 140.896 398.926 141.242 398.562 141.485C398.198 141.728 397.77 141.858 397.332 141.858C397.041 141.858 396.754 141.801 396.485 141.689C396.216 141.578 395.972 141.415 395.767 141.209C395.561 141.004 395.398 140.76 395.287 140.491C395.175 140.223 395.118 139.935 395.118 139.644Z" fill="white"/>
<path d="M402.084 139.644C402.084 139.206 402.214 138.778 402.457 138.414C402.7 138.05 403.046 137.766 403.451 137.598C403.855 137.431 404.3 137.387 404.73 137.472C405.159 137.558 405.554 137.769 405.864 138.078C406.173 138.388 406.384 138.783 406.469 139.212C406.555 139.641 406.511 140.087 406.343 140.491C406.176 140.896 405.892 141.242 405.528 141.485C405.164 141.728 404.736 141.858 404.298 141.858C404.007 141.858 403.719 141.801 403.451 141.689C403.182 141.578 402.938 141.415 402.732 141.209C402.527 141.004 402.364 140.76 402.253 140.491C402.141 140.223 402.084 139.935 402.084 139.644Z" fill="white"/>
<path d="M661.14 144.486H643.14V136.134H661.14V144.486ZM644.058 143.568H660.258V137.052H644.058V143.568Z" fill="white"/>
<path d="M656.244 137.556H644.634V143.064H656.244V137.556Z" fill="white"/>
<path d="M662.76 138.078H661.158V142.542H662.76V138.078Z" fill="white"/>
<path d="M490.608 179.604C490.605 179.461 490.631 179.32 490.685 179.188C490.738 179.056 490.818 178.936 490.918 178.835C491.019 178.734 491.139 178.655 491.271 178.601C491.404 178.548 491.545 178.522 491.688 178.524C491.831 178.522 491.973 178.548 492.106 178.601C492.24 178.654 492.361 178.733 492.463 178.834C492.565 178.934 492.646 179.054 492.702 179.186C492.757 179.319 492.786 179.461 492.786 179.604V191.142C492.786 191.285 492.757 191.427 492.702 191.559C492.646 191.692 492.565 191.812 492.463 191.912C492.361 192.013 492.24 192.092 492.106 192.145C491.973 192.198 491.831 192.224 491.688 192.222C491.545 192.224 491.404 192.198 491.271 192.145C491.139 192.091 491.019 192.012 490.918 191.911C490.818 191.81 490.738 191.69 490.685 191.558C490.631 191.426 490.605 191.284 490.608 191.142V179.604Z" fill="white"/>
<path d="M498.6 191.142C498.6 191.425 498.489 191.697 498.29 191.899C498.092 192.101 497.822 192.217 497.538 192.222C497.397 192.222 497.258 192.194 497.128 192.139C496.998 192.085 496.88 192.005 496.781 191.905C496.682 191.804 496.604 191.685 496.552 191.554C496.5 191.423 496.474 191.283 496.476 191.142V179.766C496.464 179.593 496.495 179.42 496.568 179.263C496.64 179.105 496.751 178.969 496.89 178.866C497.122 178.706 497.406 178.641 497.684 178.685C497.962 178.728 498.213 178.877 498.384 179.1L504.702 187.848V179.766C504.707 179.487 504.821 179.222 505.02 179.027C505.218 178.831 505.486 178.722 505.764 178.722C506.045 178.722 506.314 178.831 506.516 179.025C506.717 179.22 506.835 179.486 506.844 179.766V191.142C506.844 191.428 506.731 191.703 506.528 191.906C506.325 192.108 506.051 192.222 505.764 192.222C505.609 192.217 505.456 192.179 505.317 192.111C505.177 192.043 505.054 191.945 504.954 191.826V191.718L498.6 183.024V191.142Z" fill="white"/>
<path d="M511.542 191.142V179.604C511.542 179.317 511.656 179.043 511.858 178.84C512.061 178.638 512.336 178.524 512.622 178.524H515.394C516.379 178.524 517.324 178.914 518.022 179.609C518.721 180.304 519.115 181.247 519.12 182.232C519.126 183.04 518.859 183.826 518.364 184.464C519.138 184.944 519.734 185.663 520.064 186.512C520.393 187.361 520.437 188.294 520.189 189.17C519.941 190.046 519.414 190.818 518.689 191.369C517.963 191.919 517.079 192.219 516.168 192.222H512.694C512.546 192.232 512.398 192.211 512.259 192.161C512.119 192.111 511.991 192.034 511.883 191.932C511.775 191.831 511.689 191.709 511.63 191.573C511.572 191.437 511.542 191.29 511.542 191.142ZM513.72 183.834H515.394C515.811 183.824 516.207 183.651 516.497 183.351C516.787 183.051 516.947 182.649 516.942 182.232C516.942 182.029 516.902 181.829 516.824 181.642C516.746 181.455 516.632 181.286 516.488 181.144C516.344 181.001 516.173 180.889 515.985 180.813C515.797 180.737 515.596 180.7 515.394 180.702H513.72V183.834ZM513.72 190.044H516.168C516.672 189.996 517.14 189.762 517.481 189.388C517.822 189.013 518.011 188.525 518.011 188.019C518.011 187.513 517.822 187.024 517.481 186.65C517.14 186.275 516.672 186.042 516.168 185.994H513.72V190.044Z" fill="white"/>
<path d="M533.97 180.216C535.241 181.554 535.95 183.329 535.95 185.175C535.95 187.021 535.241 188.796 533.97 190.134C533.374 190.784 532.652 191.304 531.847 191.663C531.042 192.022 530.172 192.212 529.29 192.222C528.392 192.216 527.505 192.027 526.682 191.668C525.859 191.309 525.118 190.787 524.502 190.134C523.251 188.786 522.556 187.014 522.556 185.175C522.556 183.336 523.251 181.564 524.502 180.216C525.121 179.572 525.865 179.061 526.688 178.715C527.512 178.368 528.397 178.193 529.29 178.2C530.167 178.197 531.035 178.374 531.84 178.721C532.645 179.068 533.37 179.577 533.97 180.216ZM533.718 185.166C533.718 183.899 533.243 182.679 532.386 181.746C531.996 181.311 531.519 180.963 530.985 180.724C530.452 180.486 529.874 180.361 529.29 180.36C528.695 180.357 528.105 180.479 527.559 180.718C527.014 180.956 526.524 181.307 526.122 181.746C525.266 182.679 524.79 183.899 524.79 185.166C524.783 186.434 525.26 187.657 526.122 188.586C526.523 189.028 527.012 189.381 527.558 189.623C528.103 189.864 528.693 189.989 529.29 189.99C529.876 189.985 530.454 189.857 530.987 189.616C531.52 189.374 531.997 189.023 532.386 188.586C533.249 187.657 533.725 186.434 533.718 185.166Z" fill="white"/>
<path d="M548.64 180.378L544.914 185.4L548.64 190.476C548.804 190.706 548.872 190.991 548.828 191.271C548.784 191.55 548.633 191.801 548.406 191.97C548.224 192.108 548.003 192.183 547.776 192.186C547.604 192.181 547.436 192.138 547.284 192.06C547.131 191.983 546.998 191.872 546.894 191.736L543.6 187.2L540.288 191.718C540.185 191.851 540.055 191.961 539.906 192.039C539.756 192.116 539.592 192.161 539.424 192.168C539.195 192.171 538.972 192.094 538.794 191.952C538.564 191.786 538.409 191.536 538.362 191.257C538.315 190.977 538.379 190.69 538.542 190.458L542.268 185.382L538.542 180.324C538.38 180.094 538.316 179.81 538.363 179.534C538.41 179.257 538.565 179.011 538.794 178.848C538.904 178.757 539.032 178.69 539.17 178.652C539.308 178.614 539.452 178.605 539.594 178.628C539.735 178.65 539.87 178.702 539.99 178.78C540.109 178.858 540.211 178.961 540.288 179.082L543.6 183.6L546.876 179.1C546.954 178.979 547.058 178.876 547.179 178.797C547.3 178.719 547.437 178.667 547.579 178.645C547.722 178.623 547.868 178.631 548.007 178.669C548.146 178.707 548.276 178.774 548.388 178.866C548.506 178.947 548.607 179.051 548.684 179.171C548.761 179.292 548.813 179.427 548.836 179.568C548.86 179.709 548.854 179.854 548.821 179.993C548.787 180.132 548.725 180.263 548.64 180.378Z" fill="white"/>
<path d="M640.224 192.114L637.956 193.914L633.762 188.37L632.232 186.336C632.546 186.213 632.843 186.05 633.114 185.85C633.622 185.453 634.019 184.933 634.266 184.338L635.904 186.48L640.224 192.114Z" fill="white"/>
<path d="M635.76 179.046C635.041 178.109 634.068 177.397 632.958 176.995C631.847 176.592 630.645 176.516 629.492 176.775C628.34 177.033 627.285 177.616 626.453 178.455C625.621 179.293 625.046 180.352 624.796 181.507C624.546 182.661 624.632 183.863 625.043 184.971C625.454 186.078 626.173 187.045 627.116 187.757C628.058 188.469 629.185 188.897 630.363 188.989C631.54 189.082 632.72 188.836 633.762 188.28C634.067 188.122 634.356 187.935 634.626 187.722C635.123 187.352 635.555 186.902 635.904 186.39C636.667 185.311 637.064 184.016 637.039 182.694C637.013 181.373 636.565 180.094 635.76 179.046ZM633.114 185.76C632.842 185.96 632.546 186.123 632.232 186.246C631.44 186.562 630.564 186.594 629.751 186.337C628.938 186.08 628.239 185.549 627.774 184.835C627.308 184.121 627.103 183.268 627.195 182.421C627.287 181.573 627.67 180.784 628.278 180.186C628.886 179.589 629.682 179.221 630.531 179.144C631.38 179.067 632.23 179.287 632.935 179.765C633.641 180.244 634.159 180.952 634.401 181.769C634.644 182.586 634.596 183.462 634.266 184.248C634.018 184.843 633.622 185.363 633.114 185.76Z" fill="white"/>
<path d="M609.444 176.994H592.992V193.446H609.444V176.994Z" fill="white"/>
<path d="M602.118 180.054H600.318V190.404H602.118V180.054Z" fill="#664EFE"/>
<path d="M596.034 184.32V186.12H606.384V184.32H596.034Z" fill="#664EFE"/>
<path d="M661.14 178.056C661.14 178.337 661.057 178.612 660.9 178.846C660.744 179.08 660.522 179.262 660.262 179.37C660.002 179.477 659.716 179.505 659.44 179.451C659.165 179.396 658.911 179.26 658.712 179.061C658.514 178.863 658.378 178.609 658.323 178.333C658.268 178.057 658.297 177.772 658.404 177.512C658.512 177.252 658.694 177.03 658.928 176.874C659.162 176.717 659.437 176.634 659.718 176.634C659.905 176.634 660.09 176.671 660.262 176.742C660.435 176.814 660.591 176.918 660.723 177.05C660.855 177.182 660.96 177.339 661.032 177.512C661.103 177.684 661.14 177.869 661.14 178.056Z" fill="white"/>
<path d="M661.14 185.4C661.14 185.777 660.99 186.139 660.723 186.405C660.457 186.672 660.095 186.822 659.718 186.822C659.341 186.822 658.979 186.672 658.712 186.405C658.446 186.139 658.296 185.777 658.296 185.4C658.296 185.213 658.333 185.028 658.404 184.856C658.476 184.683 658.58 184.526 658.712 184.394C658.844 184.262 659.001 184.158 659.174 184.086C659.346 184.015 659.531 183.978 659.718 183.978C659.905 183.978 660.09 184.015 660.262 184.086C660.435 184.158 660.591 184.262 660.723 184.394C660.855 184.526 660.96 184.683 661.032 184.856C661.103 185.028 661.14 185.213 661.14 185.4Z" fill="white"/>
<path d="M661.14 192.816C661.14 193.003 661.103 193.188 661.032 193.36C660.96 193.533 660.855 193.689 660.723 193.821C660.591 193.953 660.435 194.058 660.262 194.13C660.09 194.201 659.905 194.238 659.718 194.238C659.531 194.238 659.346 194.201 659.174 194.13C659.001 194.058 658.844 193.953 658.712 193.821C658.58 193.689 658.476 193.533 658.404 193.36C658.333 193.188 658.296 193.003 658.296 192.816C658.296 192.439 658.446 192.077 658.712 191.81C658.979 191.544 659.341 191.394 659.718 191.394C660.095 191.394 660.457 191.544 660.723 191.81C660.99 192.077 661.14 192.439 661.14 192.816Z" fill="white"/>
<path d="M686.178 215.046H352.458V266.58H686.178V215.046Z" fill="#F7F5FF"/>
<path d="M406.8 250.776C405.754 251.422 404.612 251.896 403.416 252.18C400.562 252.865 397.556 252.449 394.995 251.016C392.435 249.582 390.509 247.236 389.601 244.445C388.694 241.655 388.871 238.625 390.099 235.959C391.326 233.294 393.513 231.189 396.223 230.065C398.934 228.94 401.969 228.878 404.722 229.892C407.476 230.906 409.747 232.92 411.081 235.533C412.416 238.147 412.716 241.167 411.923 243.992C411.129 246.817 409.3 249.24 406.8 250.776Z" fill="#664EFE"/>
<path d="M404.118 239.4C404.118 240.112 403.907 240.808 403.511 241.4C403.116 241.992 402.553 242.453 401.896 242.726C401.238 242.998 400.514 243.07 399.816 242.931C399.117 242.792 398.476 242.449 397.972 241.946C397.469 241.442 397.126 240.801 396.987 240.102C396.848 239.404 396.92 238.68 397.192 238.022C397.464 237.364 397.926 236.802 398.518 236.407C399.11 236.011 399.806 235.8 400.518 235.8C401.473 235.8 402.388 236.179 403.064 236.854C403.739 237.529 404.118 238.445 404.118 239.4Z" fill="white"/>
<path d="M406.8 249.3V250.776C405.754 251.422 404.612 251.896 403.416 252.18C401.898 252.56 400.32 252.631 398.774 252.39C397.228 252.149 395.746 251.6 394.416 250.776V249.3C394.416 247.667 395.065 246.101 396.219 244.947C397.374 243.792 398.939 243.144 400.572 243.144C402.205 243.144 403.77 243.792 404.925 244.947C406.079 246.101 406.728 247.667 406.728 249.3H406.8Z" fill="white"/>
<path d="M474.048 248.562H458.568L464.886 240.822L458.568 233.082H474.048L480.366 240.822L474.048 248.562Z" fill="white"/>
<path d="M434.268 233.082L436.788 238.176L442.404 238.986L438.336 242.964L439.308 248.562L434.268 245.916L429.246 248.562L430.2 242.964L426.132 238.986L431.748 238.176L434.268 233.082Z" fill="#664EFE"/>
<path d="M582.804 237.672H491.472V243.972H582.804V237.672Z" fill="#454545"/>
<path d="M656.244 237.672H620.442V243.972H656.244V237.672Z" fill="#2E2E2E"/>
<path d="M406.8 302.4C405.754 303.046 404.612 303.52 403.416 303.804C400.562 304.489 397.556 304.073 394.995 302.64C392.435 301.206 390.509 298.86 389.601 296.069C388.694 293.279 388.871 290.249 390.099 287.583C391.326 284.918 393.513 282.813 396.223 281.689C398.934 280.564 401.969 280.502 404.722 281.516C407.476 282.53 409.747 284.544 411.081 287.157C412.416 289.771 412.716 292.791 411.923 295.616C411.129 298.442 409.3 300.864 406.8 302.4Z" fill="#2E2E2E"/>
<path d="M404.118 291.024C404.118 291.736 403.907 292.432 403.511 293.024C403.116 293.616 402.553 294.077 401.896 294.35C401.238 294.622 400.514 294.694 399.816 294.555C399.117 294.416 398.476 294.073 397.972 293.57C397.469 293.066 397.126 292.425 396.987 291.726C396.848 291.028 396.92 290.304 397.192 289.646C397.464 288.988 397.926 288.426 398.518 288.031C399.11 287.635 399.806 287.424 400.518 287.424C401.473 287.424 402.388 287.803 403.064 288.478C403.739 289.154 404.118 290.069 404.118 291.024Z" fill="white"/>
<path d="M406.8 300.834V302.4C405.754 303.046 404.612 303.52 403.416 303.804C401.899 304.189 400.319 304.263 398.773 304.021C397.226 303.78 395.744 303.229 394.416 302.4V300.924C394.416 299.291 395.065 297.725 396.219 296.571C397.374 295.417 398.939 294.768 400.572 294.768C402.205 294.768 403.77 295.417 404.925 296.571C406.079 297.725 406.728 299.291 406.728 300.924L406.8 300.834Z" fill="white"/>
<path d="M474.048 300.096H458.568L464.886 292.356L458.568 284.616H474.048L480.366 292.356L474.048 300.096Z" fill="white"/>
<path d="M474.264 300.6H457.614L464.31 292.41L457.614 284.22H474.264L480.942 292.41L474.264 300.6ZM459.522 299.7H473.922L479.862 292.41L473.922 285.21H459.522L465.462 292.41L459.522 299.7Z" fill="#F7F5FF"/>
<path d="M434.268 284.616L436.788 289.71L442.404 290.52L438.336 294.498L439.308 300.096L434.268 297.45L429.246 300.096L430.2 294.498L426.132 290.52L431.748 289.71L434.268 284.616Z" fill="#664EFE"/>
<path d="M582.804 289.206H491.472V295.506H582.804V289.206Z" fill="#454545"/>
<path d="M656.244 289.206H620.442V295.506H656.244V289.206Z" fill="#2E2E2E"/>
<path d="M686.178 318.114H352.458V369.648H686.178V318.114Z" fill="#F7F5FF"/>
<path d="M406.8 353.844C405.752 354.488 404.611 354.968 403.416 355.266C400.548 355.97 397.52 355.567 394.936 354.137C392.352 352.708 390.402 350.356 389.475 347.552C388.548 344.748 388.712 341.698 389.935 339.01C391.157 336.321 393.349 334.193 396.071 333.049C398.794 331.905 401.848 331.829 404.624 332.837C407.4 333.845 409.693 335.863 411.047 338.487C412.402 341.112 412.716 344.15 411.929 346.997C411.142 349.843 409.311 352.288 406.8 353.844Z" fill="#664EFE"/>
<path d="M404.118 342.558C404.118 343.27 403.907 343.966 403.511 344.558C403.116 345.15 402.553 345.612 401.896 345.884C401.238 346.156 400.514 346.228 399.816 346.089C399.117 345.95 398.476 345.607 397.972 345.104C397.469 344.6 397.126 343.959 396.987 343.26C396.848 342.562 396.92 341.838 397.192 341.18C397.464 340.523 397.926 339.96 398.518 339.565C399.11 339.169 399.806 338.958 400.518 338.958C401.473 338.958 402.388 339.337 403.064 340.012C403.739 340.688 404.118 341.603 404.118 342.558Z" fill="white"/>
<path d="M406.8 352.368V353.844C405.751 354.488 404.61 354.968 403.416 355.266C401.897 355.647 400.317 355.718 398.771 355.473C397.224 355.229 395.743 354.675 394.416 353.844V352.368C394.416 350.735 395.065 349.169 396.219 348.015C397.374 346.86 398.939 346.212 400.572 346.212C402.205 346.212 403.77 346.86 404.925 348.015C406.079 349.169 406.728 350.735 406.728 352.368H406.8Z" fill="white"/>
<path d="M474.048 351.63H458.568L464.886 343.89L458.568 336.15H474.048L480.366 343.89L474.048 351.63Z" fill="white"/>
<path d="M434.268 336.15L436.788 341.244L442.404 342.054L438.336 346.032L439.308 351.63L434.268 348.984L429.246 351.63L430.2 346.032L426.132 342.054L431.748 341.244L434.268 336.15Z" fill="white"/>
<path d="M582.804 340.74H491.472V347.04H582.804V340.74Z" fill="#FBFAFF"/>
<path d="M656.244 340.74H620.442V347.04H656.244V340.74Z" fill="#FBFAFF"/>
<path d="M406.8 405.378C405.752 406.022 404.611 406.502 403.416 406.8C400.548 407.504 397.52 407.101 394.936 405.672C392.352 404.242 390.402 401.89 389.475 399.086C388.548 396.282 388.712 393.232 389.935 390.544C391.157 387.856 393.349 385.727 396.071 384.583C398.794 383.439 401.848 383.363 404.624 384.371C407.4 385.379 409.693 387.397 411.047 390.021C412.402 392.646 412.716 395.684 411.929 398.531C411.142 401.377 409.311 403.822 406.8 405.378Z" fill="#F7F5FF"/>
<path d="M404.118 394.092C404.118 394.804 403.907 395.5 403.511 396.092C403.116 396.684 402.553 397.145 401.896 397.418C401.238 397.69 400.514 397.762 399.816 397.623C399.117 397.484 398.476 397.141 397.972 396.638C397.469 396.134 397.126 395.493 396.987 394.794C396.848 394.096 396.92 393.372 397.192 392.714C397.464 392.056 397.926 391.494 398.518 391.099C399.11 390.703 399.806 390.492 400.518 390.492C401.473 390.492 402.388 390.871 403.064 391.546C403.739 392.221 404.118 393.137 404.118 394.092Z" fill="white"/>
<path d="M406.8 403.92V405.378C405.751 406.022 404.61 406.502 403.416 406.8C401.897 407.181 400.317 407.252 398.771 407.007C397.224 406.763 395.743 406.209 394.416 405.378V403.92C394.416 402.287 395.065 400.721 396.219 399.567C397.374 398.412 398.939 397.764 400.572 397.764C402.205 397.764 403.77 398.412 404.925 399.567C406.079 400.721 406.728 402.287 406.728 403.92H406.8Z" fill="white"/>
<path d="M474.048 403.164H458.568L464.886 395.424L458.568 387.684H474.048L480.366 395.424L474.048 403.164Z" fill="white"/>
<path d="M474.264 403.614H457.614L464.31 395.424L457.614 387.234H474.264L480.942 395.424L474.264 403.614ZM459.522 402.714H473.922L479.862 395.514L473.922 388.224H459.522L465.462 395.514L459.522 402.714Z" fill="#F7F5FF"/>
<path d="M434.268 387.684L436.788 392.778L442.404 393.606L438.336 397.566L439.308 403.164L434.268 400.518L429.246 403.164L430.2 397.566L426.132 393.606L431.748 392.778L434.268 387.684Z" fill="#664EFE"/>
<path d="M582.804 392.274H491.472V398.574H582.804V392.274Z" fill="#FBFAFF"/>
<path d="M656.244 392.274H620.442V398.574H656.244V392.274Z" fill="#FBFAFF"/>
<path d="M686.178 421.2H352.458V472.734H686.178V421.2Z" fill="#F7F5FF"/>
<path d="M406.8 456.912C405.752 457.556 404.611 458.036 403.416 458.334C400.548 459.038 397.52 458.635 394.936 457.205C392.352 455.776 390.402 453.424 389.475 450.62C388.548 447.816 388.712 444.766 389.935 442.078C391.157 439.389 393.349 437.261 396.071 436.117C398.794 434.973 401.848 434.897 404.624 435.905C407.4 436.913 409.693 438.931 411.047 441.555C412.402 444.18 412.716 447.218 411.929 450.065C411.142 452.911 409.311 455.356 406.8 456.912Z" fill="#2E2E2E"/>
<path d="M404.118 445.626C404.118 446.338 403.907 447.034 403.511 447.626C403.116 448.218 402.553 448.679 401.896 448.952C401.238 449.224 400.514 449.296 399.816 449.157C399.117 449.018 398.476 448.675 397.972 448.171C397.469 447.668 397.126 447.027 396.987 446.328C396.848 445.63 396.92 444.906 397.192 444.248C397.464 443.59 397.926 443.028 398.518 442.633C399.11 442.237 399.806 442.026 400.518 442.026C401.473 442.026 402.388 442.405 403.064 443.08C403.739 443.755 404.118 444.671 404.118 445.626Z" fill="white"/>
<path d="M406.8 455.4V456.858C405.751 457.502 404.61 457.982 403.416 458.28C401.897 458.661 400.317 458.731 398.771 458.487C397.224 458.243 395.743 457.689 394.416 456.858V455.4C394.416 453.767 395.065 452.201 396.219 451.047C397.374 449.892 398.939 449.244 400.572 449.244C402.205 449.244 403.77 449.892 404.925 451.047C406.079 452.201 406.728 453.767 406.728 455.4H406.8Z" fill="white"/>
<path d="M474.048 454.698H458.568L464.886 446.958L458.568 439.218H474.048L480.366 446.958L474.048 454.698Z" fill="white"/>
<path d="M434.268 439.218L436.788 444.312L442.404 445.14L438.336 449.1L439.308 454.698L434.268 452.052L429.246 454.698L430.2 449.1L426.132 445.14L431.748 444.312L434.268 439.218Z" fill="#664EFE"/>
<path d="M582.804 443.808H491.472V450.108H582.804V443.808Z" fill="#FBFAFF"/>
<path d="M656.244 443.808H620.442V450.108H656.244V443.808Z" fill="#FBFAFF"/>
<path d="M686.196 730.404V755.604C686.27 760.813 685.025 765.956 682.577 770.554C680.128 775.152 676.556 779.056 672.192 781.902H366.48C362.115 779.057 358.542 775.154 356.093 770.555C353.644 765.957 352.4 760.813 352.476 755.604V730.404H686.196Z" fill="#F7F5FF"/>
<path d="M406.8 766.134C405.752 766.778 404.611 767.258 403.416 767.556C400.548 768.26 397.52 767.857 394.936 766.427C392.352 764.998 390.402 762.646 389.475 759.842C388.548 757.038 388.712 753.988 389.935 751.3C391.157 748.611 393.349 746.483 396.071 745.339C398.794 744.195 401.848 744.119 404.624 745.127C407.4 746.135 409.693 748.153 411.047 750.777C412.402 753.402 412.716 756.44 411.929 759.287C411.142 762.133 409.311 764.578 406.8 766.134Z" fill="#664EFE"/>
<path d="M404.118 754.848C404.118 755.56 403.907 756.256 403.511 756.848C403.116 757.44 402.553 757.902 401.896 758.174C401.238 758.447 400.514 758.518 399.816 758.379C399.117 758.24 398.476 757.897 397.972 757.394C397.469 756.89 397.126 756.249 396.987 755.55C396.848 754.852 396.92 754.128 397.192 753.47C397.464 752.813 397.926 752.25 398.518 751.855C399.11 751.459 399.806 751.248 400.518 751.248C401.473 751.248 402.388 751.627 403.064 752.303C403.739 752.978 404.118 753.893 404.118 754.848Z" fill="white"/>
<path d="M406.8 764.658V766.134C405.751 766.778 404.61 767.258 403.416 767.556C401.897 767.933 400.318 768.001 398.772 767.757C397.226 767.513 395.745 766.961 394.416 766.134V764.658C394.416 763.025 395.065 761.459 396.219 760.305C397.374 759.151 398.939 758.502 400.572 758.502C402.205 758.502 403.77 759.151 404.925 760.305C406.079 761.459 406.728 763.025 406.728 764.658H406.8Z" fill="white"/>
<path d="M474.048 763.92H458.568L464.886 756.18L458.568 748.44H474.048L480.366 756.18L474.048 763.92Z" fill="white"/>
<path d="M434.268 748.44L436.788 753.534L442.404 754.344L438.336 758.322L439.308 763.92L434.268 761.274L429.246 763.92L430.2 758.322L426.132 754.344L431.748 753.534L434.268 748.44Z" fill="#664EFE"/>
<path d="M582.804 753.03H491.472V759.33H582.804V753.03Z" fill="#FBFAFF"/>
<path d="M656.244 753.03H620.442V759.33H656.244V753.03Z" fill="#FBFAFF"/>
<path d="M406.8 508.446C405.227 509.415 403.446 509.999 401.604 510.149C399.762 510.299 397.911 510.012 396.201 509.309C394.491 508.607 392.972 507.511 391.767 506.109C390.562 504.708 389.706 503.041 389.268 501.246C388.756 499.146 388.835 496.945 389.496 494.887C390.157 492.829 391.374 490.994 393.013 489.585C394.652 488.175 396.649 487.247 398.783 486.902C400.917 486.557 403.105 486.809 405.104 487.63C407.104 488.452 408.837 489.81 410.113 491.555C411.388 493.3 412.156 495.364 412.332 497.518C412.507 499.673 412.084 501.834 411.107 503.762C410.131 505.691 408.64 507.312 406.8 508.446Z" fill="#454545"/>
<path d="M404.118 497.16C404.118 497.872 403.907 498.568 403.511 499.16C403.116 499.752 402.553 500.214 401.896 500.486C401.238 500.758 400.514 500.83 399.816 500.691C399.117 500.552 398.476 500.209 397.972 499.706C397.469 499.202 397.126 498.561 396.987 497.862C396.848 497.164 396.92 496.44 397.192 495.782C397.464 495.125 397.926 494.562 398.518 494.167C399.11 493.771 399.806 493.56 400.518 493.56C401.473 493.56 402.388 493.939 403.064 494.614C403.739 495.29 404.118 496.205 404.118 497.16Z" fill="white"/>
<path d="M406.8 506.988V508.446C404.952 509.594 402.82 510.203 400.644 510.203C398.469 510.203 396.336 509.594 394.488 508.446V506.988C394.488 505.355 395.137 503.79 396.291 502.635C397.446 501.481 399.012 500.832 400.644 500.832C402.277 500.832 403.843 501.481 404.997 502.635C406.152 503.79 406.8 505.355 406.8 506.988Z" fill="white"/>
<path d="M474.048 506.232H458.568L464.886 498.492L458.568 490.752H474.048L480.366 498.492L474.048 506.232Z" fill="white"/>
<path d="M474.264 506.682H457.614L464.31 498.492L457.614 490.302H474.264L480.942 498.492L474.264 506.682ZM459.522 505.782H473.922L479.862 498.492L473.922 491.202H459.522L465.462 498.492L459.522 505.782Z" fill="#F7F5FF"/>
<path d="M434.268 490.752L436.788 495.846L442.404 496.674L438.336 500.634L439.308 506.232L434.268 503.586L429.246 506.232L430.2 500.634L426.132 496.674L431.748 495.846L434.268 490.752Z" fill="white"/>
<path d="M439.902 507.06L434.268 504.108L428.634 507.06L429.714 500.796L425.16 496.35L431.46 495.45L434.268 489.744L437.076 495.45L443.376 496.35L438.822 500.796L439.902 507.06ZM434.268 503.082L438.696 505.422L437.85 500.472L441.45 496.98L436.482 496.26L434.268 491.778L432 496.26L427.05 496.98L430.65 500.472L429.804 505.422L434.268 503.082Z" fill="#F7F5FF"/>
<path d="M582.804 495.342H491.472V501.642H582.804V495.342Z" fill="#FBFAFF"/>
<path d="M656.244 495.342H620.442V501.642H656.244V495.342Z" fill="#FBFAFF"/>
<path d="M686.178 524.268H352.458V575.802H686.178V524.268Z" fill="#F7F5FF"/>
<path d="M406.8 559.998C405.751 560.637 404.61 561.11 403.416 561.402C401.168 561.948 398.809 561.815 396.637 561.021C394.464 560.226 392.576 558.806 391.21 556.938C389.845 555.071 389.064 552.841 388.966 550.529C388.867 548.218 389.457 545.93 390.658 543.953C391.86 541.977 393.621 540.401 395.719 539.425C397.816 538.449 400.156 538.116 402.442 538.47C404.728 538.823 406.858 539.846 408.563 541.41C410.268 542.973 411.471 545.007 412.02 547.254C412.604 549.657 412.414 552.184 411.476 554.472C410.539 556.761 408.902 558.695 406.8 559.998Z" fill="#664EFE"/>
<path d="M404.118 548.694C404.118 549.406 403.907 550.102 403.511 550.694C403.116 551.286 402.553 551.748 401.896 552.02C401.238 552.292 400.514 552.364 399.816 552.225C399.117 552.086 398.476 551.743 397.972 551.24C397.469 550.736 397.126 550.095 396.987 549.396C396.848 548.698 396.92 547.974 397.192 547.316C397.464 546.659 397.926 546.096 398.518 545.701C399.11 545.305 399.806 545.094 400.518 545.094C401.473 545.094 402.388 545.473 403.064 546.148C403.739 546.824 404.118 547.739 404.118 548.694Z" fill="white"/>
<path d="M406.8 558.522V559.998C405.751 560.637 404.609 561.11 403.416 561.402C401.897 561.783 400.317 561.854 398.771 561.609C397.224 561.365 395.743 560.811 394.416 559.98V558.522C394.416 556.889 395.065 555.324 396.219 554.169C397.374 553.015 398.939 552.366 400.572 552.366C402.205 552.366 403.77 553.015 404.925 554.169C406.079 555.324 406.728 556.889 406.728 558.522H406.8Z" fill="white"/>
<path d="M474.048 557.784H458.568L464.886 550.026L458.568 542.286H474.048L480.366 550.026L474.048 557.784Z" fill="white"/>
<path d="M434.268 542.286L436.788 547.398L442.404 548.208L438.336 552.168L439.308 557.784L434.268 555.138L429.246 557.784L430.2 552.168L426.132 548.208L431.748 547.398L434.268 542.286Z" fill="#664EFE"/>
<path d="M582.804 546.894H491.472V553.194H582.804V546.894Z" fill="#454545"/>
<path d="M656.244 546.894H620.442V553.194H656.244V546.894Z" fill="#2E2E2E"/>
<path d="M406.8 611.532C405.755 612.178 404.612 612.652 403.416 612.936C401.168 613.482 398.809 613.349 396.637 612.555C394.464 611.76 392.576 610.339 391.21 608.472C389.845 606.605 389.064 604.374 388.966 602.063C388.867 599.752 389.457 597.464 390.658 595.487C391.86 593.511 393.621 591.935 395.719 590.959C397.816 589.983 400.156 589.65 402.442 590.004C404.728 590.357 406.858 591.38 408.563 592.944C410.268 594.507 411.471 596.541 412.02 598.788C412.604 601.191 412.414 603.717 411.476 606.006C410.539 608.295 408.902 610.229 406.8 611.532Z" fill="#664EFE"/>
<path d="M404.118 600.228C404.118 600.94 403.907 601.636 403.511 602.228C403.116 602.82 402.553 603.281 401.896 603.554C401.238 603.826 400.514 603.898 399.816 603.759C399.117 603.62 398.476 603.277 397.972 602.774C397.469 602.27 397.126 601.629 396.987 600.93C396.848 600.232 396.92 599.508 397.192 598.85C397.464 598.192 397.926 597.63 398.518 597.235C399.11 596.839 399.806 596.628 400.518 596.628C401.473 596.628 402.388 597.007 403.064 597.682C403.739 598.357 404.118 599.273 404.118 600.228Z" fill="white"/>
<path d="M406.8 610.056V611.532C405.754 612.178 404.612 612.652 403.416 612.936C401.897 613.317 400.317 613.387 398.771 613.143C397.224 612.899 395.743 612.345 394.416 611.514V610.056C394.416 608.423 395.065 606.857 396.219 605.703C397.374 604.549 398.939 603.9 400.572 603.9C402.205 603.9 403.77 604.549 404.925 605.703C406.079 606.857 406.728 608.423 406.728 610.056H406.8Z" fill="white"/>
<path d="M474.048 609.318H458.568L464.886 601.578L458.568 593.838H474.048L480.366 601.578L474.048 609.318Z" fill="white"/>
<path d="M474.264 609.768H457.614L464.31 601.578L457.614 593.388H474.264L480.942 601.578L474.264 609.768ZM459.522 608.868H473.922L479.862 601.578L473.922 594.378H459.522L465.462 601.578L459.522 608.868Z" fill="#F7F5FF"/>
<path d="M434.268 593.838L436.788 598.932L442.404 599.742L438.336 603.702L439.308 609.318L434.268 606.672L429.246 609.318L430.2 603.702L426.132 599.742L431.748 598.932L434.268 593.838Z" fill="white"/>
<path d="M439.902 610.2L434.268 607.248L428.634 610.2L429.714 603.936L425.16 599.4L431.46 598.482L434.268 592.776L437.076 598.482L443.376 599.4L438.822 603.828L439.902 610.2ZM427.104 600.138L430.704 603.63L429.858 608.562L434.286 606.222L438.714 608.562L437.868 603.63L441.468 600.138L436.5 599.4L434.286 594.918L432 599.4L427.104 600.138Z" fill="#F7F5FF"/>
<path d="M582.804 598.428H491.472V604.728H582.804V598.428Z" fill="#FBFAFF"/>
<path d="M656.244 598.428H620.442V604.728H656.244V598.428Z" fill="#FBFAFF"/>
<path d="M686.178 627.336H352.458V678.87H686.178V627.336Z" fill="#F7F5FF"/>
<path d="M406.8 663.066C405.754 663.712 404.612 664.186 403.416 664.47C400.562 665.155 397.556 664.739 394.995 663.306C392.435 661.872 390.509 659.526 389.601 656.735C388.694 653.945 388.871 650.915 390.099 648.249C391.326 645.584 393.513 643.479 396.223 642.355C398.934 641.23 401.969 641.168 404.722 642.182C407.476 643.196 409.747 645.21 411.081 647.824C412.416 650.437 412.716 653.457 411.923 656.282C411.129 659.108 409.3 661.53 406.8 663.066Z" fill="#2E2E2E"/>
<path d="M404.118 651.762C404.118 652.474 403.907 653.17 403.511 653.762C403.116 654.354 402.553 654.815 401.896 655.088C401.238 655.36 400.514 655.432 399.816 655.293C399.117 655.154 398.476 654.811 397.972 654.307C397.469 653.804 397.126 653.163 396.987 652.464C396.848 651.766 396.92 651.042 397.192 650.384C397.464 649.726 397.926 649.164 398.518 648.769C399.11 648.373 399.806 648.162 400.518 648.162C401.473 648.162 402.388 648.541 403.064 649.216C403.739 649.891 404.118 650.807 404.118 651.762Z" fill="white"/>
<path d="M406.8 661.59V663.066C405.754 663.712 404.612 664.186 403.416 664.47C401.898 664.85 400.32 664.921 398.774 664.68C397.228 664.439 395.746 663.89 394.416 663.066V661.59C394.416 659.957 395.065 658.392 396.219 657.237C397.374 656.083 398.939 655.434 400.572 655.434C402.205 655.434 403.77 656.083 404.925 657.237C406.079 658.392 406.728 659.957 406.728 661.59H406.8Z" fill="white"/>
<path d="M474.048 660.852H458.568L464.886 653.112L458.568 645.372H474.048L480.366 653.112L474.048 660.852Z" fill="white"/>
<path d="M434.268 645.372L436.788 650.466L442.404 651.276L438.336 655.236L439.308 660.852L434.268 658.206L429.246 660.852L430.2 655.236L426.132 651.276L431.748 650.466L434.268 645.372Z" fill="white"/>
<path d="M582.804 649.962H491.472V656.262H582.804V649.962Z" fill="#FBFAFF"/>
<path d="M656.244 649.962H620.442V656.262H656.244V649.962Z" fill="#FBFAFF"/>
<path d="M406.8 714.6C405.754 715.246 404.612 715.72 403.416 716.004C400.562 716.689 397.556 716.273 394.995 714.839C392.435 713.406 390.509 711.06 389.601 708.269C388.694 705.479 388.871 702.449 390.099 699.783C391.326 697.118 393.513 695.013 396.223 693.889C398.934 692.764 401.969 692.702 404.722 693.716C407.476 694.73 409.747 696.744 411.081 699.357C412.416 701.971 412.716 704.991 411.923 707.816C411.129 710.641 409.3 713.064 406.8 714.6Z" fill="#F7F5FF"/>
<path d="M404.118 703.314C404.118 704.026 403.907 704.722 403.511 705.314C403.116 705.906 402.553 706.367 401.896 706.64C401.238 706.912 400.514 706.984 399.816 706.845C399.117 706.706 398.476 706.363 397.972 705.859C397.469 705.356 397.126 704.714 396.987 704.016C396.848 703.318 396.92 702.594 397.192 701.936C397.464 701.278 397.926 700.716 398.518 700.321C399.11 699.925 399.806 699.714 400.518 699.714C401.473 699.714 402.388 700.093 403.064 700.768C403.739 701.443 404.118 702.359 404.118 703.314Z" fill="white"/>
<path d="M406.8 713.124V714.6C405.754 715.246 404.612 715.72 403.416 716.004C401.899 716.389 400.319 716.463 398.773 716.221C397.226 715.98 395.744 715.429 394.416 714.6V713.124C394.416 711.491 395.065 709.926 396.219 708.771C397.374 707.617 398.939 706.968 400.572 706.968C402.205 706.968 403.77 707.617 404.925 708.771C406.079 709.926 406.728 711.491 406.728 713.124H406.8Z" fill="white"/>
<path d="M474.048 712.386H458.568L464.886 704.646L458.568 696.906H474.048L480.366 704.646L474.048 712.386Z" fill="white"/>
<path d="M474.264 712.8H457.614L464.31 704.61L457.614 696.42H474.264L480.942 704.61L474.264 712.8ZM459.522 711.9H473.922L479.862 704.7L473.922 697.41H459.522L465.462 704.7L459.522 711.9Z" fill="#F7F5FF"/>
<path d="M434.268 696.906L436.788 702L442.404 702.81L438.336 706.788L439.308 712.386L434.268 709.74L429.246 712.386L430.2 706.788L426.132 702.81L431.748 702L434.268 696.906Z" fill="white"/>
<path d="M439.902 713.214L434.268 710.244L428.634 713.214L429.714 706.932L425.16 702.504L431.46 701.586L434.268 695.88L437.076 701.586L443.376 702.504L438.822 706.932L439.902 713.214ZM434.268 709.2L438.696 711.522L437.85 706.59L441.45 703.098L436.482 702.378L434.268 697.878L432.054 702.378L427.104 703.098L430.704 706.59L429.858 711.522L434.268 709.2Z" fill="#F7F5FF"/>
<path d="M582.804 701.496H491.472V707.796H582.804V701.496Z" fill="#FBFAFF"/>
<path d="M656.244 701.496H620.442V707.796H656.244V701.496Z" fill="#FBFAFF"/>
<path d="M404.514 807.696H258.39C240.912 746.388 226.854 699.696 226.854 699.696H365.4C365.4 699.696 382.518 745.938 404.514 807.696Z" fill="#2E2E2E"/>
<path d="M279.792 807.696H276.786C268.128 778.806 259.128 750.096 250.308 721.17C250.182 720.792 250.776 720.612 250.92 720.99C252.72 725.994 254.52 730.998 256.32 736.02C264.744 759.708 272.466 783.648 279.792 807.696Z" fill="#454545"/>
<path d="M362.232 699.75C362.07 702.648 354.348 729.162 350.352 768.834C348.894 783.468 347.238 797.238 345.474 807.696H151.56C132.372 748.404 160.848 699.696 160.848 699.696C160.848 699.696 362.25 699.624 362.232 699.75Z" fill="#2E2E2E"/>
<path d="M323.478 765.414C324.162 775.368 324.396 785.34 324.27 795.294C323.955 799.421 323.919 803.564 324.162 807.696H320.796C319.986 801.378 320.796 793.512 320.796 787.302C320.688 761.58 317.412 736.146 313.452 710.766C313.449 710.652 313.486 710.54 313.556 710.451C313.626 710.361 313.726 710.299 313.838 710.275C313.949 710.252 314.065 710.268 314.166 710.322C314.267 710.375 314.345 710.462 314.388 710.568C319.293 728.489 322.339 746.868 323.478 765.414Z" fill="#454545"/>
<path d="M347.526 778.266C347.346 783.558 345.906 797.652 341.748 807.696H338.85C344.484 793.962 344.16 767.16 343.746 760.896C342.576 742.536 341.154 725.292 338.04 705.96C337.932 705.348 338.94 705.312 339.066 705.87C344.556 729.198 348.282 754.326 347.526 778.266Z" fill="#454545"/>
<path d="M163.53 725.49C157.914 749.772 160.65 775.89 166.014 799.92C166.572 802.53 167.202 805.122 167.814 807.696H164.898C156.96 774.198 154.53 739.53 168.498 707.04C168.678 706.644 169.272 707.04 169.11 707.382C166.793 713.267 164.928 719.321 163.53 725.49Z" fill="#454545"/>
<path d="M485.46 345.6L453.6 447.012C452.322 449.964 453.708 452.52 456.66 452.682L509.724 455.706C511.349 455.681 512.934 455.194 514.292 454.302C515.65 453.409 516.725 452.148 517.392 450.666L549.18 349.326C550.458 346.356 549.072 343.818 546.12 343.656L493.2 340.632C491.571 340.636 489.977 341.106 488.605 341.987C487.234 342.867 486.143 344.12 485.46 345.6Z" fill="#2E2E2E"/>
<path d="M491.76 345.978L459.972 447.318C458.694 450.27 460.08 452.808 463.05 452.988L516.096 456.012C517.723 455.984 519.308 455.496 520.668 454.604C522.029 453.712 523.108 452.453 523.782 450.972L555.552 349.614C556.83 346.662 555.462 344.214 552.492 343.962L499.428 340.92C497.803 340.953 496.22 341.445 494.863 342.34C493.505 343.235 492.43 344.497 491.76 345.978Z" fill="#2E2E2E"/>
<path d="M506.035 351.504C505.964 352.395 505.631 353.245 505.077 353.947C504.523 354.648 503.773 355.17 502.923 355.445C502.073 355.721 501.16 355.738 500.3 355.494C499.44 355.251 498.671 354.758 498.091 354.077C497.512 353.397 497.147 352.559 497.043 351.672C496.939 350.784 497.101 349.885 497.509 349.089C497.916 348.294 498.55 347.636 499.331 347.201C500.111 346.766 501.004 346.572 501.895 346.644C503.088 346.74 504.194 347.306 504.97 348.217C505.746 349.129 506.129 350.311 506.035 351.504Z" fill="#454545"/>
<path d="M305.515 491.598C331.309 557.496 393.211 644.94 421.075 647.136C434.323 648.198 457.795 652.932 476.209 638.838C516.385 608.094 552.331 546.57 561.205 510.588C564.373 497.79 503.209 465.588 493.201 475.506C469.801 498.762 441.271 545.544 437.401 545.004C423.217 542.988 370.477 492.804 333.703 457.542C289.063 414.702 295.201 465.336 305.515 491.598Z" fill="#B78876"/>
<path d="M567.181 443.772C562.249 417.024 556.885 410.922 564.697 386.172C569.827 369.972 561.655 359.658 549.073 372.15C528.481 392.562 527.599 428.4 530.875 440.91L567.181 443.772Z" fill="#B78876"/>
<path d="M557.388 521.676C557.388 521.676 571.536 485.802 569.106 456.876C567.414 436.824 558.882 393.588 504.756 367.488C491.922 361.296 469.242 361.584 486.54 379.314C498.816 391.914 510.426 396.18 516.24 404.802C516.24 404.802 487.44 408.582 481.716 421.686C476.745 433.145 472.589 444.94 469.278 456.984C471.343 458.098 473.478 459.078 475.668 459.918C475.668 459.918 470.718 472.356 478.944 491.004L557.388 521.676Z" fill="#B78876"/>
<path d="M564.445 437.904C556.867 430.56 540.541 415.278 522.829 407.412C503.173 398.682 462.925 387.162 456.625 401.742C452.017 412.434 466.993 418.194 466.993 418.194C466.993 418.194 449.353 416.934 447.301 427.5C445.501 437.13 457.273 440.892 457.273 440.892C457.273 440.892 446.473 441.972 446.473 451.602C446.473 463.176 469.135 459.018 479.251 470.772C481.483 473.4 564.445 437.904 564.445 437.904Z" fill="#B78876"/>
<path d="M517.068 429.732C508.806 423.99 486.702 415.782 467.352 417.924C466.902 417.924 466.704 418.32 467.118 418.356C484.15 420.178 500.898 424.059 516.996 429.912C517.104 429.966 517.158 429.786 517.068 429.732Z" fill="#454545"/>
<path d="M507.6 449.334C499.968 445.104 476.82 437.67 457.2 440.496C456.768 440.496 456.588 440.928 457.002 440.964C474.072 441.897 490.98 444.766 507.402 449.514C507.426 449.54 507.459 449.556 507.495 449.558C507.53 449.559 507.565 449.547 507.591 449.523C507.617 449.499 507.633 449.466 507.635 449.43C507.637 449.395 507.624 449.36 507.6 449.334Z" fill="#454545"/>
<path d="M386.029 496.962L376.201 508.896L374.167 511.38L334.801 558.936C334.801 558.936 299.179 500.76 291.979 467.676C287.677 447.876 290.773 436.086 299.431 433.944C300.075 433.793 300.732 433.696 301.393 433.656C306.991 433.17 314.515 436.122 323.515 442.764C348.859 461.484 386.029 496.962 386.029 496.962Z" fill="#664EFE"/>
<path d="M383.832 495C382.923 497.983 381.811 500.9 380.502 503.73L385.902 497.25C385.916 497.173 385.916 497.093 385.902 497.016C385.74 496.692 385.002 495.99 383.832 495ZM323.37 442.8C319.872 445.024 316.667 447.679 313.83 450.702C305.208 459.725 300.387 471.719 300.366 484.2C300.393 487.552 300.609 490.899 301.014 494.226C301.902 496.278 302.802 498.33 303.714 500.382C303.552 499.05 303.372 497.736 303.192 496.386C301.937 489.2 301.84 481.859 302.904 474.642C304.041 468.952 306.207 463.517 309.294 458.604C313.098 452.464 318.167 447.206 324.162 443.178C323.928 443.034 323.73 442.872 323.514 442.71L323.37 442.8Z" fill="white"/>
<path d="M327.151 539.154C329.275 534.15 351.145 504.108 369.361 485.028C369.415 484.966 369.493 484.928 369.575 484.923C369.658 484.918 369.739 484.946 369.802 485.001C369.864 485.056 369.901 485.133 369.906 485.216C369.911 485.299 369.883 485.38 369.829 485.442C368.029 487.782 332.029 536.04 327.781 539.694C327.439 540 327.007 539.514 327.151 539.154Z" fill="#454545"/>
<path opacity="0.05" d="M360 528.534L334.8 558.918C334.8 558.918 299.178 500.76 291.978 467.676C287.01 444.852 291.852 432.72 303.678 433.638L360 528.534Z" fill="#2E2E2E"/>
<path d="M367.201 707.742C362.16 713.142 149.058 735.912 147.834 734.436C144.576 730.458 164.179 515.088 251.479 436.194C266.869 422.298 294.048 426.258 306.648 433.404C312.93 437.004 323.874 466.74 334.585 501.498C342.685 528.048 370.296 704.25 367.201 707.742Z" fill="#664EFE"/>
<path d="M367.2 707.742C366.084 708.948 354.6 711.036 337.446 713.52L335.502 713.79C326.826 715.032 316.818 716.364 306.018 717.714L303.678 718.02C272.844 721.89 236.07 726.03 205.974 729.198L205.002 729.288C172.602 732.708 148.248 734.94 147.834 734.436C147.42 733.932 147.42 724.95 148.842 710.802C148.842 710.208 148.968 709.578 149.022 709.002C152.424 676.296 161.856 616.878 181.044 559.404C181.35 558.468 181.674 557.604 181.98 556.614C187.722 539.48 194.496 522.709 202.266 506.394C202.5 505.908 202.716 505.44 202.968 504.954C210.574 488.948 219.738 473.731 230.328 459.522C230.688 459.054 231.03 458.604 231.408 458.172C237.427 450.271 244.144 442.927 251.478 436.23C253.535 434.396 255.815 432.83 258.264 431.568C258.822 431.28 259.398 431.01 259.974 430.758C267.649 427.536 276.012 426.298 284.292 427.158L286.344 427.374C293.442 428.068 300.338 430.135 306.648 433.458C309.114 434.88 312.318 440.316 315.936 448.578C316.116 448.938 316.278 449.334 316.44 449.73C321.84 462.33 328.302 481.122 334.584 501.552C336.798 508.752 340.488 527.112 344.574 550.008L344.844 551.556C346.266 559.458 347.724 567.918 349.182 576.63C349.398 577.872 349.614 579.096 349.812 580.338C352.782 598.122 355.752 616.806 358.398 634.23C358.488 634.932 358.596 635.652 358.722 636.336C360.954 651.24 362.934 665.136 364.464 676.638C364.572 677.556 364.68 678.438 364.806 679.338C366.84 695.862 367.884 706.896 367.2 707.742Z" fill="#664EFE"/>
<path d="M297.864 686.862C294.233 681.786 289.61 677.5 284.274 674.262C278.544 670.931 272.224 668.737 265.662 667.8C258.786 666.612 251.568 666 245.124 663.012C238.968 660.222 234.648 655.236 230.346 650.214C229.212 648.9 228.042 647.586 226.854 646.326C228.204 645.408 229.572 644.526 230.976 643.608C239.058 638.64 247.986 634.896 255.456 628.992C262.217 623.751 266.95 616.327 268.848 607.986C270.664 599.766 270.038 591.195 267.048 583.326C263.874 575.386 258.643 568.434 251.892 563.184C244.972 557.885 237.059 554.027 228.622 551.838C220.185 549.649 211.394 549.174 202.77 550.44C195.555 551.403 188.527 553.454 181.926 556.524C181.62 557.46 181.296 558.324 180.99 559.314C184.19 557.703 187.512 556.349 190.926 555.264C207.394 549.853 225.327 551.113 240.876 558.774C248.376 562.504 254.865 567.987 259.794 574.758C264.537 581.456 267.209 589.398 267.48 597.6C267.855 605.706 265.532 613.707 260.874 620.352C255.474 627.678 247.248 632.106 239.436 636.336C234.612 638.964 229.932 641.736 225.378 644.814C222.745 642.084 219.585 639.916 216.09 638.442C210.284 636.323 203.922 636.285 198.09 638.334C185.4 642.6 177.858 654.894 176.4 667.8C175.689 674.997 176.524 682.263 178.848 689.112C173.558 694.533 167.643 699.307 161.226 703.332C157.374 705.713 153.238 707.6 148.914 708.948C148.914 709.56 148.788 710.19 148.734 710.748C149.508 710.532 150.282 710.298 151.038 710.028C162.072 706.302 171.252 699.138 179.55 691.092C181.861 697.339 184.88 703.3 188.55 708.858C193.302 716.191 198.79 723.018 204.93 729.234L205.902 729.144C202.353 725.397 199.029 721.442 195.948 717.3C189.496 709.02 184.376 699.782 180.774 689.922C183.852 686.862 186.822 683.676 189.774 680.526C195.462 674.334 201.06 667.926 207.126 662.148C212.782 656.711 218.881 651.756 225.36 647.334C229.23 651.456 232.56 656.118 236.772 659.934C241.742 664.063 247.717 666.802 254.088 667.872C260.694 669.258 267.498 669.816 273.996 671.814C279.782 673.64 285.097 676.712 289.566 680.814C294.072 684.825 297.682 689.74 300.163 695.238C302.644 700.737 303.94 706.696 303.966 712.728C303.954 714.506 303.816 716.28 303.552 718.038L305.892 717.732C307.187 706.799 304.321 695.779 297.864 686.862ZM215.442 652.104C208.62 657.724 202.224 663.843 196.308 670.41C190.908 676.206 185.706 682.272 180.108 687.942C179.122 684.743 178.435 681.459 178.056 678.132C176.652 665.532 180.486 651.132 191.322 643.608C196.272 640.123 202.229 638.359 208.278 638.586C214.207 638.996 219.767 641.609 223.866 645.912C221.004 647.874 218.178 649.908 215.442 652.104ZM358.308 634.104C352.08 639.09 346.158 644.526 339.192 648.504C329.166 654.228 315.378 657.27 306.252 648.18C302.451 644.489 300.16 639.515 299.827 634.227C299.494 628.939 301.143 623.716 304.452 619.578C308.052 614.538 312.498 610.308 315.99 605.178C318.853 600.888 321.352 596.367 323.46 591.66C327.932 593.003 332.722 592.832 337.086 591.174C342.412 589.033 346.854 585.15 349.686 580.158C349.488 578.916 349.272 577.692 349.056 576.45C347.645 579.215 345.824 581.752 343.656 583.974C341.656 586.103 339.205 587.758 336.484 588.82C333.762 589.882 330.838 590.323 327.924 590.112C326.746 589.993 325.578 589.782 324.432 589.482C324.702 588.924 324.954 588.348 325.206 587.682C330.264 576.126 334.494 563.904 342.45 553.896C343.157 552.995 343.907 552.13 344.7 551.304L344.43 549.756C336.942 557.532 332.118 567.648 327.852 577.422C326.178 581.256 324.54 585.108 322.758 588.924C318.763 587.5 315.143 585.186 312.174 582.156C302.4 572.202 301.662 556.83 302.67 543.726C303.318 535.734 304.47 527.778 304.866 519.786C304.951 511.895 304.349 504.011 303.066 496.224C301.811 489.038 301.714 481.697 302.778 474.48C303.916 468.79 306.081 463.355 309.168 458.442C311.159 455.175 313.527 452.155 316.224 449.442C316.062 449.046 315.9 448.65 315.72 448.29C315.036 448.938 314.37 449.604 313.704 450.306C305.033 459.448 300.25 471.6 300.366 484.2C300.366 492.408 302.004 500.49 302.634 508.662C303.063 517.081 302.659 525.522 301.428 533.862C299.754 548.424 298.26 564.462 305.856 577.71C309.442 583.942 315.088 588.728 321.822 591.246C320.976 593.046 320.112 594.846 319.176 596.502C317.521 599.576 315.669 602.54 313.632 605.376C311.706 608.004 309.546 610.452 307.422 612.918C303.516 617.472 299.538 622.44 298.422 628.452C297.464 633.616 298.263 638.951 300.69 643.608C303.034 648.331 306.966 652.078 311.796 654.192C317.644 656.446 324.089 656.618 330.048 654.678C341.316 651.384 349.848 643.446 358.722 636.282C358.506 635.598 358.398 634.878 358.308 634.176V634.104ZM364.716 679.212C359.046 674.712 352.998 670.212 345.582 669.618C341.957 669.202 338.303 670.102 335.286 672.156C332.529 674.238 330.474 677.115 329.4 680.4C326.944 687.635 327.233 695.521 330.21 702.558C331.928 706.644 334.367 710.387 337.41 713.61L335.466 713.88C333.445 711.693 331.687 709.276 330.228 706.68C328.162 702.976 326.789 698.925 326.178 694.728C325.062 687.438 326.178 679.23 330.966 673.38C336.168 667.044 344.646 666.396 351.936 669.06C356.478 670.896 360.696 673.448 364.428 676.62C364.482 677.502 364.59 678.402 364.716 679.284V679.212ZM284.4 430.092C285.048 429.192 285.642 428.292 286.2 427.32L284.148 427.104C279.972 433.513 275.007 439.373 269.37 444.546L268.254 445.608C267.12 441.63 265.338 437.865 262.98 434.466C262.03 433.138 260.977 431.886 259.83 430.722C259.254 430.974 258.678 431.244 258.12 431.532C261.893 435.368 264.689 440.053 266.274 445.194C266.454 445.788 266.616 446.382 266.778 446.994C261.902 451.827 256.195 455.742 249.93 458.55C244.026 460.944 236.826 461.43 231.264 458.154C230.886 458.586 230.544 459.036 230.184 459.504C234.788 462.146 240.207 462.986 245.394 461.862C253.656 460.296 260.712 454.842 266.886 449.424L267.3 449.064C269.892 460.188 268.92 471.924 270.666 483.264C272.664 496.17 278.856 509.22 275.67 522.432C274.622 527.611 271.803 532.264 267.696 535.59C265.224 537.28 262.38 538.349 259.406 538.706C256.433 539.063 253.417 538.698 250.614 537.642C237.87 533.556 230.436 521.442 219.888 513.99C214.481 510.486 208.77 507.474 202.824 504.99C202.572 505.476 202.356 505.944 202.122 506.43C205.722 508.14 209.322 509.742 212.598 511.56C215.176 512.92 217.643 514.478 219.978 516.222C222.708 518.367 225.304 520.675 227.754 523.134C232.632 527.886 237.42 532.944 243.36 536.418C248.76 539.568 255.222 541.566 261.486 540.36C264.173 539.766 266.703 538.609 268.91 536.964C271.116 535.32 272.948 533.225 274.284 530.82C277.026 525.955 278.442 520.456 278.388 514.872C278.388 507.672 276.426 500.472 274.68 493.506C273.694 489.801 272.907 486.045 272.322 482.256C271.854 478.908 271.584 475.56 271.386 472.194C271.186 465.527 270.633 458.876 269.73 452.268C269.478 450.738 269.172 449.226 268.812 447.714C274.65 442.44 279.878 436.529 284.4 430.092Z" fill="white"/>
<path d="M230.742 466.2C195.66 539.226 148.698 720.702 141.804 747.378C137.106 765.486 231.66 783.828 234.162 771.246C237.042 756.846 273.204 544.446 269.604 467.946C267.642 426.078 242.874 441 230.742 466.2Z" fill="#B78876"/>
<path d="M235.332 762.876C234.216 776.628 226.332 804.6 219.708 809.154C213.084 813.708 176.742 814.716 158.508 815.688C140.274 816.66 136.35 811.8 136.314 805.446C136.278 799.092 174.6 795.924 174.6 795.924C174.6 795.924 124.2 813.294 111.438 816.354C98.6763 819.414 69.4263 828.468 64.6383 818.028C62.3343 813.312 70.2003 808.02 70.2003 808.02C70.2003 808.02 57.9423 812.304 55.6383 806.22C53.0103 799.29 62.7123 794.898 62.7123 794.898C62.7123 794.898 55.0083 796.878 54.5403 791.136C53.4603 778.338 101.808 769.536 101.808 769.536C101.808 769.536 65.4843 789.642 63.7383 779.238C61.3263 764.838 136.872 744.93 144.486 738.198C150.02 733.073 155.153 727.53 159.84 721.62L235.332 762.876Z" fill="#B78876"/>
<path d="M136.8 808.614C136.626 807.725 136.669 806.808 136.926 805.94C137.183 805.072 137.647 804.279 138.276 803.628C139.526 802.357 140.98 801.305 142.578 800.514C145.876 798.887 149.316 797.567 152.856 796.572C159.966 794.358 167.256 792.684 174.456 790.398C166.852 790.676 159.314 791.928 152.028 794.124C148.31 795.181 144.759 796.756 141.48 798.804C139.785 799.855 138.326 801.246 137.196 802.89C136.644 803.73 136.318 804.698 136.248 805.7C136.179 806.703 136.369 807.706 136.8 808.614Z" fill="#454545"/>
<path d="M70.2002 808.02C75.4022 806.454 80.5142 804.69 85.6082 802.926C90.7022 801.162 95.7782 799.326 100.854 797.526L116.028 791.874C121.086 790.074 126.126 788.13 131.238 786.312C125.882 787.19 120.591 788.423 115.398 790.002C110.178 791.478 105.066 793.278 99.9722 795.114C94.8782 796.95 89.8562 798.966 84.9062 801.144C79.9562 803.322 75.0062 805.464 70.2002 808.02Z" fill="#454545"/>
<path d="M118.206 774.126C113.261 774.711 108.365 775.649 103.554 776.934C98.7259 778.174 93.9672 779.671 89.2979 781.416C84.6216 783.138 80.0481 785.127 75.5999 787.374C71.1304 789.572 66.8235 792.087 62.7119 794.898C67.3379 793.098 71.8199 790.974 76.4099 789.174C80.9999 787.374 85.5719 785.574 90.1979 783.774C94.8239 781.974 99.4679 780.408 104.112 778.77C108.756 777.132 113.49 775.674 118.206 774.126Z" fill="#454545"/>
<path d="M110.035 762.3C102.051 763.338 94.2385 765.42 86.7968 768.492C79.2903 771.417 72.203 775.321 65.7188 780.102C73.1528 777.006 80.3708 773.784 87.7508 770.886C95.1308 767.988 102.601 765.162 110.035 762.3Z" fill="#454545"/>
<path d="M271.422 550.098L187.146 550.512C187.146 550.512 210.024 482.778 231.804 454.788C253.584 426.798 271.062 430.488 273.006 463.428C274.95 496.368 271.422 550.098 271.422 550.098Z" fill="#664EFE"/>
<path d="M273.006 463.428C273.114 464.922 273.186 466.488 273.24 468.054C273.24 468.756 273.24 469.458 273.348 470.178C274.536 503.172 271.44 550.098 271.44 550.098L248.544 550.224H246.258L187.164 550.548C187.164 550.548 196.866 521.748 209.61 494.064C210.042 493.146 210.456 492.264 210.924 491.292C217.422 477.396 224.658 463.986 231.786 454.824C253.584 426.798 271.044 430.506 273.006 463.428Z" fill="#664EFE"/>
<path d="M203.13 550.44L220.248 550.332C214.559 549.666 208.81 549.702 203.13 550.44ZM272.376 482.184C271.908 478.836 271.638 475.488 271.44 472.122C271.239 465.455 270.686 458.804 269.784 452.196C269.532 450.666 269.226 449.154 268.866 447.642C269.19 447.318 269.532 447.03 269.874 446.688C269.622 446.04 269.37 445.428 269.1 444.888C268.848 445.158 268.56 445.392 268.308 445.662C267.821 443.932 267.219 442.236 266.508 440.586C265.527 439.305 264.304 438.228 262.908 437.418C264.419 439.874 265.627 442.503 266.508 445.248C266.688 445.842 266.85 446.436 267.012 447.048C262.136 451.881 256.429 455.796 250.164 458.604C243.774 461.214 235.854 461.556 230.148 457.308C229.806 457.776 229.482 458.226 229.158 458.712C231.538 460.344 234.228 461.471 237.061 462.022C239.894 462.573 242.809 462.537 245.628 461.916C253.89 460.35 260.946 454.896 267.12 449.478L267.534 449.118C270.126 460.242 269.154 471.978 270.9 483.318C271.566 487.53 272.7 491.778 273.744 496.026C273.744 493.632 273.744 491.238 273.744 488.826C273.114 486.558 272.682 484.38 272.376 482.184ZM267.75 535.5C265.277 537.19 262.434 538.259 259.46 538.616C256.486 538.973 253.47 538.608 250.668 537.552C237.924 533.466 230.49 521.352 219.942 513.9C215.047 510.692 209.872 507.933 204.48 505.656C204.246 506.142 204.048 506.646 203.832 507.15C206.82 508.572 209.826 509.958 212.652 511.488C215.229 512.848 217.697 514.406 220.032 516.15C222.761 518.295 225.358 520.603 227.808 523.062C232.686 527.814 237.474 532.872 243.414 536.346C248.814 539.496 255.276 541.494 261.54 540.288C265.81 539.383 269.631 537.015 272.34 533.592C272.34 532.53 272.448 531.414 272.484 530.262C271.255 532.294 269.648 534.072 267.75 535.5Z" fill="white"/>
<path d="M198.001 531C203.401 529.344 242.299 526.77 269.875 528.606C269.961 528.606 270.043 528.64 270.104 528.701C270.165 528.762 270.199 528.844 270.199 528.93C270.199 529.016 270.165 529.098 270.104 529.159C270.043 529.22 269.961 529.254 269.875 529.254C266.833 529.434 203.761 532.854 198.001 531.882C197.443 531.864 197.533 531.198 198.001 531Z" fill="#454545"/>
<path d="M276.768 499.014C276.768 498.957 276.746 498.902 276.705 498.861C276.665 498.821 276.61 498.798 276.552 498.798C276.495 498.798 276.44 498.821 276.4 498.861C276.359 498.902 276.336 498.957 276.336 499.014C275.566 501.88 274.965 504.789 274.536 507.726C274.41 508.392 274.32 509.076 274.194 509.742C273.96 502.542 273.618 495.54 273.24 488.484C273.24 488.16 272.7 488.16 272.718 488.484C272.934 512.946 272.286 535.284 270.792 549.432L263.484 550.044C263.383 550.065 263.291 550.12 263.226 550.2C263.16 550.281 263.124 550.381 263.124 550.485C263.124 550.589 263.16 550.689 263.226 550.77C263.291 550.85 263.383 550.905 263.484 550.926L272.772 551.25C273.168 551.25 274.716 530.874 274.338 514.818C274.842 512.496 275.382 510.192 275.76 507.852C276.322 504.936 276.659 501.981 276.768 499.014Z" fill="#454545"/>
<path d="M198.54 550.53C194.742 550.764 190.944 550.962 187.164 551.07H186.408L186.642 550.332C188.118 545.688 189.63 541.062 191.286 536.49C192.942 531.918 194.616 527.328 196.416 522.81C198.216 518.292 200.016 513.81 202.122 509.346C204.228 504.882 206.244 500.508 208.602 496.242L203.202 509.85L198.018 523.458L192.834 537.084L187.668 550.8L187.164 550.08C190.944 550.098 194.742 550.296 198.54 550.53Z" fill="#454545"/>
<path d="M301.464 470.718C288.648 474.948 264.456 456.93 254.178 441.522C253.476 440.46 254.178 395.676 253.458 386.802C253.296 385.002 310.464 395.478 310.464 395.478C310.464 395.478 306.594 414.594 308.034 430.074C308.178 431.37 313.848 466.632 301.464 470.718Z" fill="#B78876"/>
<path d="M310.483 395.46C310.483 395.73 310.213 396.846 309.925 398.646C309.421 401.706 308.665 406.656 308.215 412.272C307.659 418.173 307.617 424.112 308.089 430.02C308.107 430.431 308.155 430.84 308.233 431.244V431.442C308.359 432.162 308.467 433.134 308.593 434.286C306.816 434.684 305.01 434.943 303.193 435.06C272.755 437.004 259.291 400.626 255.223 386.55L256.195 386.64C257.689 386.748 259.669 386.982 262.045 387.288L263.845 387.54C267.643 388.08 272.179 388.8 276.895 389.556C278.443 389.808 279.991 390.042 281.575 390.33C284.959 390.924 288.379 391.5 291.547 392.022C292.915 392.292 294.265 392.526 295.525 392.742C296.785 392.958 298.315 393.228 299.593 393.444L301.393 393.768L302.275 393.948L307.009 394.794L309.277 395.19C309.599 395.243 309.917 395.315 310.231 395.406C310.321 395.406 310.357 395.406 310.393 395.406L310.483 395.46Z" fill="#454545"/>
<path d="M242.514 321.552C237.114 341.586 249.462 398.52 263.988 410.832C285.084 428.67 318.654 429.336 333.612 404.244C348.012 379.926 330.678 305.982 314.532 294.894C290.736 278.568 250.506 291.96 242.514 321.552Z" fill="#B78876"/>
<path d="M250.776 377.28C260.946 374.004 256.446 347.544 256.446 347.544C256.446 347.544 268.578 340.344 268.416 315.576C268.416 315.576 281.52 337.662 323.91 324.666C323.873 316.755 321.355 309.056 316.71 302.652C322.323 309.344 327.38 316.484 331.83 324C331.83 324 335.736 286.2 302.724 279C289.584 276.138 271.17 280.494 245.394 299.52C245.394 299.52 236.952 283.554 234.09 286.362C231.228 289.17 240.336 303.858 240.336 303.858C240.336 303.858 227.232 302.238 225.612 305.208C224.208 307.764 236.736 308.808 236.736 308.808C236.736 308.808 218.736 318.258 225.936 339.588C232.398 359.1 245.736 378.918 250.776 377.28Z" fill="#454545"/>
<path d="M240.12 307.8C234.61 308.598 229.582 311.382 225.982 315.629C222.382 319.876 220.458 325.292 220.572 330.858C220.77 337.212 223.524 343.62 226.548 349.128C229.954 354.975 234.098 360.359 238.878 365.148C239.13 365.418 239.526 364.968 239.256 364.698C235.038 360.149 231.547 354.976 228.906 349.362C226.08 344.13 224.111 338.478 223.074 332.622C222.38 327.171 223.761 321.658 226.942 317.177C230.122 312.696 234.871 309.574 240.246 308.43C240.321 308.405 240.383 308.353 240.423 308.285C240.462 308.217 240.475 308.137 240.46 308.06C240.444 307.983 240.401 307.914 240.339 307.866C240.276 307.818 240.199 307.795 240.12 307.8Z" fill="#454545"/>
<path d="M276.894 277.398C269.814 280.383 263.157 284.286 257.094 289.008C251.115 293.218 245.903 298.423 241.686 304.398C241.488 304.704 241.884 305.064 242.136 304.776C251.586 294.642 263.898 286.974 276.336 280.926C287.91 275.256 302.364 272.682 313.452 280.926C313.468 280.949 313.49 280.968 313.514 280.981C313.539 280.994 313.566 281.001 313.594 281.002C313.622 281.003 313.65 280.997 313.675 280.986C313.7 280.974 313.723 280.957 313.74 280.935C313.758 280.913 313.77 280.887 313.776 280.86C313.781 280.833 313.781 280.804 313.774 280.777C313.767 280.75 313.754 280.725 313.735 280.704C313.717 280.683 313.694 280.667 313.668 280.656C303.444 271.8 288.72 272.61 276.894 277.398Z" fill="#454545"/>
<path d="M256.986 368.19C256.986 368.19 243.738 349.848 235.386 354.6C227.034 359.352 237.186 386.064 247.122 389.592C248.365 390.132 249.705 390.415 251.061 390.425C252.416 390.434 253.76 390.169 255.011 389.646C256.261 389.124 257.394 388.353 258.339 387.382C259.285 386.411 260.025 385.258 260.514 383.994L256.986 368.19Z" fill="#B78876"/>
<path d="M238.482 362.178C238.32 362.178 238.302 362.394 238.482 362.448C245.448 365.148 249.192 371.448 251.838 378.126C249.75 375.606 246.924 374.238 243.522 376.74C243.342 376.866 243.522 377.154 243.702 377.1C244.914 376.694 246.223 376.673 247.447 377.041C248.672 377.408 249.753 378.146 250.542 379.152C251.841 380.832 252.963 382.641 253.89 384.552C254.214 385.164 255.33 384.822 255.096 384.102C255.093 384.054 255.093 384.006 255.096 383.958C255.042 375.174 247.986 362.934 238.482 362.178Z" fill="#454545"/>
<path d="M301.878 354.24C301.878 354.114 301.626 354.474 301.644 354.636C302.454 358.416 302.724 362.898 299.502 364.77C299.483 364.778 299.467 364.792 299.455 364.81C299.444 364.827 299.438 364.848 299.438 364.869C299.438 364.89 299.444 364.911 299.455 364.928C299.467 364.946 299.483 364.96 299.502 364.968C303.66 363.6 303.246 357.714 301.878 354.24Z" fill="#454545"/>
<path d="M297.775 350.874C291.583 351.504 293.275 363.87 299.017 363.294C304.759 362.718 302.977 350.352 297.775 350.874Z" fill="#454545"/>
<path d="M323.677 349.776C323.677 349.632 324.001 349.92 324.019 350.082C324.433 353.916 325.549 358.254 329.185 359.082C329.293 359.082 329.311 359.298 329.185 359.298C324.865 359.262 323.443 353.484 323.677 349.776Z" fill="#454545"/>
<path d="M326.556 345.312C332.658 343.998 334.836 356.292 329.184 357.498C323.532 358.704 321.444 346.41 326.556 345.312Z" fill="#454545"/>
<path d="M291.978 347.4C293.538 346.697 295.058 345.91 296.532 345.042C298.256 344.447 299.732 343.294 300.726 341.766C300.944 341.229 300.979 340.634 300.826 340.075C300.673 339.516 300.341 339.022 299.88 338.67C298.852 338.115 297.695 337.844 296.527 337.885C295.36 337.926 294.224 338.278 293.238 338.904C291.053 339.857 289.301 341.59 288.324 343.764C288.132 344.274 288.091 344.828 288.207 345.36C288.322 345.892 288.589 346.38 288.975 346.764C289.361 347.148 289.85 347.412 290.383 347.525C290.915 347.638 291.469 347.594 291.978 347.4Z" fill="#454545"/>
<path d="M329.544 338.544C327.836 338.431 326.136 338.227 324.45 337.932C322.628 337.969 320.845 337.406 319.374 336.33C318.978 335.903 318.735 335.357 318.682 334.777C318.63 334.197 318.772 333.616 319.086 333.126C319.85 332.247 320.836 331.588 321.94 331.218C323.045 330.847 324.228 330.779 325.368 331.02C327.757 331.137 330.014 332.153 331.686 333.864C332.05 334.271 332.288 334.776 332.37 335.316C332.452 335.856 332.374 336.408 332.147 336.905C331.919 337.402 331.552 337.821 331.09 338.113C330.627 338.404 330.09 338.554 329.544 338.544Z" fill="#454545"/>
<path d="M302.599 388.314C303.643 389.088 304.723 390.114 306.199 390.114C307.619 389.894 308.975 389.372 310.177 388.584C310.303 388.584 310.447 388.584 310.375 388.764C309.929 389.591 309.27 390.283 308.466 390.767C307.661 391.252 306.742 391.511 305.803 391.518C304.993 391.42 304.231 391.083 303.612 390.551C302.994 390.019 302.547 389.316 302.329 388.53C302.167 388.314 302.401 388.206 302.599 388.314Z" fill="#454545"/>
<path d="M305.046 376.29C306.226 377.672 307.68 378.795 309.316 379.588C310.951 380.381 312.733 380.827 314.55 380.898C316.134 380.979 317.722 380.833 319.266 380.466C319.565 380.415 319.859 380.343 320.148 380.25L320.976 379.998C321.173 379.931 321.343 379.802 321.46 379.63C321.577 379.458 321.635 379.252 321.624 379.044L321.534 378.648V378.306C321.192 375.354 320.292 370.908 320.292 370.908C321.444 371.304 327.276 373.014 326.988 371.484C324.468 358.884 321.678 344.772 316.512 332.712C316.486 332.619 316.423 332.54 316.339 332.493C316.255 332.446 316.155 332.434 316.062 332.46C315.969 332.486 315.89 332.548 315.843 332.633C315.795 332.717 315.784 332.817 315.81 332.91C317.754 345.168 321.822 356.994 323.964 369.27C321.889 368.62 319.73 368.274 317.556 368.244C317.16 368.424 319.446 376.812 319.5 378.144C319.504 378.192 319.504 378.24 319.5 378.288C314.64 379.602 310.698 378.612 305.424 375.948C305.046 375.714 304.776 376.02 305.046 376.29Z" fill="#454545"/>
<path d="M317.322 379.206C315.996 381.534 314.093 383.48 311.796 384.858C310.522 385.574 309.054 385.87 307.602 385.704C304.434 385.326 304.002 382.536 304.2 380.052C304.334 378.733 304.624 377.433 305.064 376.182C308.723 378.472 313.018 379.531 317.322 379.206Z" fill="#454545"/>
<path d="M311.796 384.858C310.522 385.574 309.054 385.87 307.602 385.704C304.434 385.326 304.002 382.536 304.2 380.052C307.53 379.944 311.076 381.708 311.796 384.858Z" fill="#FF9ABB"/>
</svg>
