<svg width="560" height="477" viewBox="0 0 560 477" fill="none" xmlns="http://www.w3.org/2000/svg">
<path d="M518.955 454.563H31.3568L30.9617 454.092C30.7379 453.826 8.81847 427.115 30.8862 395.336C52.8892 363.655 57.1909 351.042 45.5387 322.7C43.5093 317.767 40.931 312.427 38.203 306.776C24.4756 278.339 7.39178 242.949 38.7289 215.684C41.2249 213.512 43.6562 211.405 46.0296 209.352C78.0167 181.647 99.1499 163.347 107.239 130.682C110.553 117.309 117.778 98.1714 133.393 82.9458C148.11 68.5967 166.561 61.3203 188.239 61.3203C205.113 61.3203 223.807 65.8458 243.803 74.7727C302.849 101.126 323.708 108.788 348.16 108.788C356.294 108.788 364.958 107.984 376.311 106.849C380.857 106.394 385.515 106.164 390.156 106.164C419.883 106.164 445.671 115.286 460.909 131.193C472.976 143.789 478.66 160.357 477.798 180.438C477.282 192.52 476.459 202.76 475.735 211.795C472.791 248.494 471.692 262.225 499.087 285.884C538.802 320.186 564.978 382.348 519.347 453.954L518.955 454.563ZM32.615 451.921H517.505C561.692 381.996 536.124 321.365 497.359 287.884C468.949 263.35 470.163 248.193 473.099 211.583C473.822 202.571 474.64 192.358 475.157 180.322C475.986 160.993 470.549 145.077 458.999 133.02C444.255 117.631 419.164 108.807 390.154 108.807C385.602 108.807 381.032 109.033 376.572 109.48C365.143 110.622 356.417 111.431 348.16 111.431C323.219 111.431 302.169 103.718 242.726 77.1864C223.069 68.4133 204.738 63.9647 188.239 63.9647C173.753 63.9647 125.283 68.8219 109.806 131.317C101.514 164.795 80.1297 183.317 47.761 211.35C45.3904 213.401 42.9591 215.509 40.4644 217.68C10.651 243.619 27.2494 278.002 40.5858 305.628C43.3326 311.316 45.9271 316.69 47.9848 321.698C60.7063 352.642 54.3806 366.144 33.06 396.844C13.704 424.716 29.9018 448.329 32.615 451.921Z" fill="#EEEBFE"/>
<path d="M41.507 453.241C41.507 453.241 20.5909 428.39 41.507 398.266C62.4259 368.145 67.4462 355.683 55.732 327.194C44.0179 298.7 13.4992 256.447 48.8386 225.697C84.1794 194.946 106.684 177.408 115.136 143.282C126.172 98.7246 166.006 55.2175 244.742 90.3587C323.478 125.501 331.008 125.5 372.843 121.317C414.678 117.134 471.575 132.223 469.064 190.778C466.554 249.333 456.513 264.318 489.982 293.226C523.451 322.13 555.245 381.033 509.226 453.241H41.507Z" fill="#EEEBFE"/>
<path d="M224.418 196.172C224.418 196.172 204.273 320.543 281.232 320.543C358.189 320.543 340.194 191.328 340.194 191.328L226.782 196.173" fill="#121212"/>
<g opacity="0.2">
<path d="M231.818 213.695C231.818 213.695 231.808 215.048 231.787 217.414C231.754 219.776 231.847 223.151 231.973 227.185C232.115 231.221 232.382 235.919 232.834 240.928C233.041 243.433 233.373 246.011 233.687 248.629C234.038 251.239 234.422 253.888 234.932 256.513C235.38 259.147 235.951 261.759 236.576 264.31C236.876 265.589 237.253 266.835 237.563 268.082C237.909 269.325 238.298 270.532 238.652 271.729C239.062 272.911 239.464 274.07 239.858 275.206C240.295 276.324 240.699 277.431 241.136 278.488C241.6 279.536 242.053 280.553 242.489 281.54C242.966 282.505 243.427 283.441 243.87 284.336C244.851 286.077 245.731 287.694 246.638 289.052C247.471 290.462 248.396 291.551 249.069 292.519C250.543 294.346 251.417 295.395 251.417 295.395C251.417 295.395 251.166 295.167 250.696 294.743C250.238 294.306 249.504 293.716 248.681 292.859C247.903 291.965 246.839 290.96 245.841 289.629C245.335 288.974 244.741 288.305 244.212 287.536C243.686 286.762 243.133 285.946 242.558 285.096C242.032 284.218 241.484 283.295 240.918 282.343C240.382 281.375 239.882 280.348 239.339 279.301C238.829 278.24 238.349 277.13 237.833 276.007C237.352 274.867 236.92 273.682 236.453 272.489C235.612 270.066 234.761 267.551 234.104 264.939C233.435 262.332 232.816 259.671 232.335 256.987C231.845 254.299 231.483 251.597 231.156 248.935C230.849 246.273 230.66 243.639 230.518 241.095C230.361 238.549 230.328 236.084 230.319 233.748C230.303 231.416 230.37 229.211 230.46 227.176C230.634 223.108 231.016 219.734 231.275 217.378C231.563 215.028 231.818 213.695 231.818 213.695Z" fill="#011627"/>
<path d="M241.314 213.695C241.314 213.695 241.397 214.953 241.539 217.153C241.617 218.249 241.711 219.583 241.821 221.111C241.943 222.634 242.079 224.355 242.229 226.231C242.407 228.104 242.599 230.133 242.801 232.276C243.017 234.42 243.259 236.673 243.541 239.002C243.777 241.338 244.156 243.728 244.476 246.168C244.759 248.613 245.25 251.064 245.629 253.532C246.041 255.994 246.542 258.436 246.995 260.85C247.585 263.233 248.028 265.61 248.609 267.876C249.259 270.115 249.759 272.324 250.391 274.371C251.05 276.411 251.673 278.34 252.248 280.121C252.924 281.867 253.543 283.469 254.092 284.889C254.228 285.248 254.361 285.592 254.487 285.924C254.641 286.247 254.787 286.555 254.928 286.853C255.208 287.45 255.466 288 255.698 288.495C256.615 290.503 257.138 291.65 257.138 291.65C257.138 291.65 256.446 290.597 255.237 288.75C254.939 288.282 254.607 287.767 254.247 287.203C254.069 286.921 253.883 286.626 253.687 286.323C253.524 286.002 253.353 285.67 253.177 285.326C252.475 283.956 251.679 282.401 250.839 280.691C250.081 278.948 249.322 277.032 248.52 275.001C247.75 272.958 247.088 270.756 246.362 268.488C245.706 266.205 245.101 263.821 244.5 261.398C244.011 258.953 243.467 256.474 243.023 253.981C242.669 251.474 242.202 248.981 241.946 246.505C241.632 244.035 241.399 241.594 241.227 239.229C241.006 236.87 240.924 234.579 240.835 232.409C240.715 230.242 240.745 228.187 240.715 226.295C240.72 218.718 241.314 213.695 241.314 213.695Z" fill="#011627"/>
<path d="M255.822 217.109C255.822 217.109 256.09 221.789 256.489 228.806C256.692 232.304 256.928 236.386 257.18 240.758C257.324 242.939 257.475 245.193 257.627 247.485C257.785 249.775 257.958 252.097 258.176 254.419C258.358 256.74 258.57 259.058 258.821 261.334C259.08 263.606 259.308 265.85 259.603 268.007C259.902 270.165 260.203 272.246 260.528 274.217C260.877 276.178 261.231 278.028 261.593 279.734C261.99 281.426 262.373 282.971 262.764 284.333C263.189 285.679 263.536 286.871 263.925 287.808C264.273 288.77 264.599 289.502 264.832 290C265.058 290.501 265.18 290.768 265.18 290.768C265.18 290.768 265.014 290.526 264.707 290.07C264.397 289.613 263.921 288.949 263.447 288.03C262.922 287.134 262.392 285.996 261.81 284.672C261.541 284.002 261.255 283.29 260.954 282.54C260.691 281.774 260.416 280.969 260.128 280.129C259.871 279.278 259.603 278.395 259.328 277.478C259.091 276.553 258.846 275.594 258.594 274.611C258.133 272.633 257.671 270.543 257.302 268.362C256.937 266.183 256.547 263.928 256.286 261.625C256.003 259.323 255.753 256.982 255.544 254.639C255.355 252.295 255.211 249.946 255.084 247.636C254.952 245.326 254.913 243.049 254.859 240.848C254.781 236.445 254.84 232.335 254.979 228.817C255.231 221.78 255.822 217.109 255.822 217.109Z" fill="#011627"/>
<path d="M330.627 213.695C330.627 213.695 330.638 215.048 330.657 217.414C330.691 219.776 330.598 223.151 330.472 227.185C330.328 231.221 330.062 235.919 329.611 240.928C329.403 243.433 329.073 246.011 328.758 248.629C328.406 251.239 328.021 253.888 327.511 256.513C327.063 259.147 326.492 261.759 325.867 264.31C325.567 265.589 325.19 266.835 324.88 268.082C324.534 269.325 324.147 270.532 323.789 271.729C323.379 272.911 322.979 274.07 322.585 275.206C322.15 276.324 321.744 277.431 321.308 278.488C320.843 279.536 320.39 280.553 319.953 281.54C319.477 282.505 319.017 283.441 318.576 284.336C317.593 286.077 316.714 287.694 315.806 289.052C314.973 290.462 314.047 291.551 313.375 292.519C311.901 294.346 311.027 295.395 311.027 295.395C311.027 295.395 311.281 295.167 311.75 294.743C312.206 294.306 312.942 293.716 313.763 292.859C314.541 291.965 315.604 290.96 316.602 289.629C317.108 288.974 317.702 288.305 318.231 287.536C318.758 286.762 319.31 285.946 319.887 285.096C320.411 284.218 320.96 283.295 321.528 282.343C322.062 281.375 322.564 280.348 323.104 279.301C323.615 278.24 324.094 277.13 324.611 276.007C325.089 274.867 325.523 273.682 325.991 272.489C326.831 270.066 327.685 267.551 328.339 264.939C329.008 262.332 329.625 259.671 330.11 256.987C330.598 254.299 330.962 251.597 331.285 248.935C331.596 246.273 331.783 243.639 331.927 241.095C332.085 238.549 332.116 236.084 332.124 233.748C332.142 231.416 332.073 229.211 331.981 227.176C331.81 223.108 331.426 219.734 331.168 217.378C330.881 215.028 330.627 213.695 330.627 213.695Z" fill="#011627"/>
<path d="M321.137 213.695C321.137 213.695 321.053 214.953 320.912 217.153C320.833 218.249 320.739 219.583 320.631 221.111C320.508 222.634 320.371 224.355 320.22 226.231C320.045 228.104 319.852 230.133 319.648 232.276C319.434 234.42 319.19 236.673 318.909 239.002C318.67 241.338 318.294 243.728 317.973 246.168C317.691 248.613 317.202 251.064 316.82 253.532C316.406 255.994 315.909 258.436 315.453 260.85C314.865 263.233 314.42 265.61 313.84 267.876C313.19 270.115 312.689 272.324 312.058 274.371C311.4 276.411 310.775 278.34 310.202 280.121C309.526 281.867 308.906 283.469 308.359 284.889C308.22 285.248 308.09 285.592 307.961 285.924C307.809 286.247 307.662 286.555 307.521 286.853C307.241 287.45 306.983 288 306.751 288.495C305.834 290.503 305.312 291.65 305.312 291.65C305.312 291.65 306.004 290.597 307.211 288.75C307.51 288.282 307.844 287.767 308.201 287.203C308.382 286.921 308.568 286.626 308.761 286.323C308.924 286.002 309.094 285.67 309.269 285.326C309.974 283.956 310.768 282.401 311.607 280.691C312.366 278.948 313.124 277.032 313.928 275.001C314.698 272.958 315.361 270.756 316.087 268.488C316.742 266.205 317.348 263.821 317.948 261.398C318.439 258.953 318.981 256.474 319.424 253.981C319.782 251.474 320.245 248.981 320.504 246.505C320.816 244.035 321.051 241.594 321.22 239.229C321.443 236.87 321.524 234.579 321.613 232.409C321.732 230.242 321.703 228.187 321.731 226.295C321.729 218.718 321.137 213.695 321.137 213.695Z" fill="#011627"/>
<path d="M306.629 217.109C306.629 217.109 306.36 221.789 305.96 228.806C305.758 232.304 305.522 236.386 305.27 240.758C305.126 242.939 304.973 245.193 304.822 247.485C304.665 249.775 304.491 252.097 304.272 254.419C304.093 256.74 303.88 259.058 303.629 261.334C303.371 263.606 303.142 265.85 302.848 268.007C302.546 270.165 302.247 272.246 301.923 274.217C301.572 276.178 301.221 278.028 300.856 279.734C300.461 281.426 300.078 282.971 299.686 284.333C299.261 285.679 298.913 286.871 298.528 287.808C298.177 288.77 297.851 289.502 297.619 290C297.391 290.501 297.27 290.768 297.27 290.768C297.27 290.768 297.435 290.526 297.743 290.07C298.05 289.613 298.529 288.949 299.002 288.03C299.528 287.134 300.057 285.996 300.639 284.672C300.909 284.002 301.194 283.29 301.497 282.54C301.759 281.774 302.035 280.969 302.324 280.129C302.578 279.278 302.847 278.395 303.125 277.478C303.359 276.553 303.605 275.594 303.857 274.611C304.319 272.633 304.781 270.543 305.15 268.362C305.515 266.183 305.904 263.928 306.165 261.625C306.45 259.323 306.699 256.982 306.907 254.639C307.097 252.295 307.24 249.946 307.37 247.636C307.502 245.326 307.541 243.049 307.591 240.848C307.672 236.445 307.612 232.335 307.472 228.817C307.217 221.78 306.629 217.109 306.629 217.109Z" fill="#011627"/>
</g>
<path d="M294.563 239.984H281.237H267.901L256.512 286.249L281.237 320.535L305.959 283.415L294.563 239.984Z" fill="#AB5D2D"/>
<path d="M294.571 239.984H281.246H267.909L265.133 251.259C273.016 259.189 289.396 264.439 299.496 258.755L294.571 239.984Z" fill="#AB5D2D"/>
<path d="M233.945 194.414C233.945 194.414 225.919 181.501 221.102 187.639C216.281 193.778 224.043 208.577 233.945 206.055V194.414Z" fill="#AB5D2D"/>
<path d="M328.531 194.414C328.531 194.414 336.551 181.501 341.362 187.639C346.181 193.778 338.42 208.577 328.531 206.055V194.414Z" fill="#AB5D2D"/>
<path d="M281.409 124.234C226.827 124.234 231.113 193.969 232.179 210.965C233.249 227.968 243.682 233.81 257.328 244.518C270.972 255.217 281.409 254.09 281.409 254.09C281.409 254.09 291.847 255.217 305.492 244.518C319.132 233.811 329.566 227.968 330.63 210.965C331.709 193.969 335.997 124.234 281.409 124.234Z" fill="#AB5D2D"/>
<path opacity="0.5" d="M330.875 186.016C331.212 195.173 330.731 202.934 330.456 207.266C329.392 224.269 318.96 230.111 305.316 240.816C291.671 251.516 281.234 250.39 281.234 250.39C281.234 250.39 270.795 251.516 257.153 240.816C243.506 230.111 233.076 224.269 232.005 207.266C231.951 206.399 231.886 205.389 231.824 204.263C231.933 206.955 232.075 209.236 232.184 210.965C233.254 227.968 243.687 233.81 257.333 244.518C270.977 255.217 281.414 254.089 281.414 254.089C281.414 254.089 291.851 255.217 305.497 244.518C319.136 233.811 329.571 227.968 330.635 210.965C330.945 206.061 331.521 196.76 330.875 186.016Z" fill="#AB5D2D"/>
<path d="M350.378 276.223L301.09 264.82C301.09 280.256 283.717 280.212 282.316 279.93V279.91C282.316 279.91 282.297 279.912 282.266 279.918C282.237 279.912 282.216 279.91 282.216 279.91V279.93C280.814 280.212 261.798 280.256 261.798 264.82L214.156 276.223L224.318 323.247C224.318 323.247 211.231 351.91 234.034 372.179L238.22 442.077H282.216H282.316H327.753L330.496 372.179C353.296 351.91 340.213 323.247 340.213 323.247L350.378 276.223Z" fill="#FAC849"/>
<path d="M282.199 284.691V284.666C282.199 284.666 282.223 284.671 282.263 284.679C282.303 284.671 282.327 284.666 282.327 284.666V284.691C284.085 285.046 305.754 285.097 306.018 265.961L301.087 264.82C301.087 280.256 283.714 280.212 282.313 279.93V279.91C282.313 279.91 282.294 279.912 282.263 279.918C282.234 279.912 282.214 279.91 282.214 279.91V279.93C280.811 280.212 261.795 280.256 261.795 264.82L256.438 266.101C256.845 285.095 280.443 285.046 282.199 284.691Z" fill="#F9B212"/>
<path d="M295.19 187.267C295.19 187.267 294.852 183.324 296.204 182.538C297.557 181.746 309.559 181.352 313.955 182.538C318.349 183.719 320.207 189.186 320.207 189.186C320.207 189.186 318.62 186.912 311.85 186.208C306.884 185.694 296.878 188.056 295.19 187.267Z" fill="#011627"/>
<path d="M267.654 187.267C267.654 187.267 267.992 183.324 266.64 182.538C265.291 181.746 253.287 181.352 248.894 182.538C244.496 183.719 242.633 189.186 242.633 189.186C242.633 189.186 244.224 186.912 250.991 186.208C255.962 185.694 265.965 188.056 267.654 187.267Z" fill="#011627"/>
<path d="M310.954 200.655C310.954 203.559 309.36 205.917 307.388 205.917C305.421 205.917 303.824 203.559 303.824 200.655C303.824 197.752 305.421 195.398 307.388 195.398C309.361 195.398 310.954 197.752 310.954 200.655Z" fill="#111B24"/>
<path d="M259.771 200.655C259.771 203.559 258.175 205.917 256.207 205.917C254.24 205.917 252.645 203.559 252.645 200.655C252.645 197.752 254.24 195.398 256.207 195.398C258.175 195.398 259.771 197.752 259.771 200.655Z" fill="#111B24"/>
<path d="M265.656 227.711C265.656 227.711 270.306 238.732 281.417 238.732C292.523 238.732 297.151 227.711 297.151 227.711C297.151 227.711 284.173 233.517 265.656 227.711Z" fill="#121212"/>
<path d="M265.691 227.789C265.691 227.789 273.344 234.103 281.625 234.103C289.906 234.103 296.973 227.789 296.973 227.789C296.973 227.789 283.986 235.1 265.691 227.789Z" fill="white"/>
<path d="M297.601 227.416C297.601 227.416 286.649 226.744 284.536 227.416C282.444 228.08 282.328 228.138 281.638 228.138C280.906 228.138 280.825 228.082 278.739 227.416C276.62 226.744 265.668 227.416 265.668 227.416C278.555 233.848 295.226 229.832 297.601 227.416Z" fill="#121212"/>
<path d="M263.089 226.573C274.024 232.217 288.945 232.6 299.768 226.573C300.012 226.437 299.773 226.122 299.522 226.261C288.836 232.216 274.136 231.837 263.331 226.261C263.074 226.128 262.834 226.443 263.089 226.573Z" fill="#121212"/>
<path d="M275.711 217.103C275.711 217.103 276.505 217.374 277.699 217.78C278.27 217.946 278.893 218.153 279.541 218.294C279.862 218.37 280.191 218.419 280.514 218.478C280.842 218.497 281.163 218.577 281.485 218.55C281.806 218.589 282.122 218.544 282.437 218.524C282.758 218.534 283.057 218.412 283.376 218.387C283.687 218.337 283.981 218.211 284.287 218.147C284.597 218.09 284.864 217.935 285.145 217.854C285.412 217.746 285.692 217.68 285.909 217.564C286.129 217.456 286.344 217.378 286.519 217.308C286.876 217.172 287.107 217.102 287.107 217.102C287.107 217.102 287.046 217.316 286.891 217.679C286.727 218.028 286.519 218.579 286.05 219.073C285.818 219.323 285.607 219.652 285.27 219.875C284.944 220.106 284.611 220.393 284.198 220.581C283.778 220.742 283.355 220.992 282.869 221.051C282.391 221.158 281.898 221.22 281.403 221.191C280.904 221.194 280.428 221.086 279.963 220.977C279.511 220.845 279.074 220.675 278.69 220.469C277.906 220.061 277.298 219.532 276.85 219.029C275.942 218.024 275.711 217.103 275.711 217.103Z" fill="#AB5D2D"/>
<g opacity="0.1">
<path d="M257.627 215.082C257.627 219.907 253.183 223.819 247.698 223.819C242.214 223.819 237.77 219.907 237.77 215.082C237.77 210.256 242.214 206.344 247.698 206.344C253.183 206.344 257.627 210.257 257.627 215.082Z" fill="#121212"/>
<path d="M326.337 215.082C326.337 219.907 321.891 223.819 316.408 223.819C310.925 223.819 306.48 219.907 306.48 215.082C306.48 210.256 310.925 206.344 316.408 206.344C321.891 206.344 326.337 210.257 326.337 215.082Z" fill="#121212"/>
</g>
<path d="M350.136 276.227C350.136 276.227 367.749 282.27 376.194 302.353C384.639 322.435 405.293 382.957 401.931 396.408C398.32 410.857 328.436 438.681 328.436 438.681L317.867 420.428C317.867 420.428 361.101 390.164 368.304 384.401L340.207 323.25L350.136 276.227Z" fill="#FFD029"/>
<path d="M214.32 276.227C214.32 276.227 196.706 282.27 188.262 302.353C179.816 322.435 159.161 382.957 162.523 396.408C166.134 410.857 236.018 438.681 236.018 438.681L246.588 420.428C246.588 420.428 203.356 390.164 196.15 384.401L224.311 323.25L214.32 276.227Z" fill="#FFD029"/>
<path d="M305.704 371.25C296.165 368.296 287.141 365.797 282.227 365.797C277.308 365.797 268.288 368.294 258.746 371.25C249.202 374.205 242.387 372.617 242.387 372.617C249.161 376.814 258.535 377.4 267.834 373.981C276.039 370.959 282.227 371.029 282.227 371.029C282.227 371.029 288.331 371.187 296.617 373.981C306.089 377.173 315.288 376.815 322.061 372.617C322.06 372.617 315.247 374.205 305.704 371.25Z" fill="#FFD029"/>
<path d="M341.276 190.201C339.24 188.423 337.563 188.587 336.204 189.731C336.043 189.811 335.916 189.928 335.837 190.073C333.459 192.485 332.159 197.896 331.747 200.431C331.578 201.474 333.171 201.922 333.341 200.871C333.624 199.128 334.639 194.003 336.492 191.719C337.579 193.696 337.688 196.057 336.456 198.076C335.9 198.987 337.328 199.815 337.884 198.908C339.44 196.356 339.312 193.198 337.81 190.708C338.493 190.472 339.256 190.625 340.107 191.368C340.907 192.064 342.08 190.902 341.276 190.201Z" fill="#AB5D2D"/>
<path d="M222.156 190.201C224.191 188.423 225.871 188.587 227.228 189.731C227.39 189.811 227.515 189.928 227.596 190.073C229.972 192.485 231.273 197.896 231.685 200.431C231.855 201.474 230.262 201.922 230.092 200.871C229.81 199.128 228.793 194.003 226.942 191.719C225.855 193.696 225.746 196.057 226.978 198.076C227.535 198.987 226.105 199.815 225.55 198.908C223.994 196.356 224.124 193.198 225.625 190.708C224.94 190.472 224.176 190.625 223.325 191.368C222.526 192.064 221.353 190.902 222.156 190.201Z" fill="#AB5D2D"/>
<path d="M320.316 424.655C320.316 424.655 305.13 424.427 302.708 426.629C300.286 428.833 293.018 442.266 294.121 443.588C295.221 444.909 312.399 441.824 316.801 440.064C321.206 438.303 327.036 436.261 327.036 436.261L320.316 424.655Z" fill="#AB5D2D"/>
<path d="M243.532 424.655C243.532 424.655 258.717 424.427 261.139 426.629C263.562 428.833 270.829 442.266 269.727 443.588C268.626 444.909 251.449 441.824 247.045 440.064C242.642 438.303 236.812 436.261 236.812 436.261L243.532 424.655Z" fill="#AB5D2D"/>
<path d="M231.712 191.323C231.712 191.323 257.943 177.796 265.131 152.03C265.131 152.03 286.599 188.336 331.099 191.323C331.099 191.323 335.373 185.391 340.181 186.548C340.181 186.548 343.234 116.797 281.242 116.797C219.248 116.797 224.542 186.013 224.542 186.013C224.542 186.013 227.949 186.99 231.712 191.323Z" fill="#121212"/>
<g opacity="0.2">
<path d="M273.199 140.797C273.199 140.797 273.813 141.576 274.944 142.879C276.076 144.182 277.702 146.021 279.749 148.129C280.752 149.199 281.908 150.296 283.094 151.478C284.29 152.654 285.625 153.816 286.955 155.064C288.353 156.238 289.74 157.517 291.258 158.686C292.004 159.286 292.755 159.889 293.511 160.494C294.273 161.089 295.081 161.632 295.864 162.204C296.653 162.77 297.411 163.381 298.217 163.915C299.028 164.444 299.833 164.97 300.634 165.494C302.214 166.573 303.851 167.498 305.424 168.422C306.976 169.383 308.566 170.141 310.049 170.919C310.796 171.302 311.52 171.677 312.221 172.038C312.941 172.358 313.639 172.667 314.307 172.962C315.656 173.534 316.865 174.147 317.975 174.588C319.096 175.01 320.073 175.38 320.876 175.685C322.486 176.326 323.407 176.693 323.407 176.693C323.407 176.693 322.435 176.527 320.733 176.189C319.881 176.011 318.845 175.798 317.66 175.548C316.481 175.267 315.188 174.824 313.76 174.378C313.047 174.151 312.304 173.913 311.535 173.667C310.781 173.383 310.022 173.042 309.229 172.713C307.653 172.038 305.947 171.399 304.318 170.469C302.67 169.581 300.905 168.76 299.275 167.652C298.443 167.126 297.603 166.595 296.76 166.065C295.922 165.527 295.128 164.916 294.311 164.34C293.513 163.737 292.691 163.167 291.917 162.541C291.151 161.906 290.386 161.275 289.63 160.646C288.862 160.036 288.13 159.39 287.44 158.714C286.739 158.052 286.049 157.398 285.369 156.756C284.048 155.432 282.8 154.124 281.674 152.835C280.544 151.548 279.502 150.31 278.605 149.113C277.669 147.953 276.903 146.814 276.21 145.825C275.531 144.823 274.968 143.931 274.522 143.184C273.625 141.694 273.199 140.797 273.199 140.797Z" fill="#011627"/>
<path d="M279.586 131.547C279.586 131.547 282.178 133.877 286.135 137.194C287.131 138.017 288.208 138.908 289.348 139.851C290.498 140.774 291.711 141.748 292.97 142.755C295.526 144.705 298.218 146.829 301.037 148.771L303.117 150.274C303.825 150.746 304.531 151.218 305.23 151.685C306.626 152.63 308.006 153.547 309.371 154.393C310.719 155.267 312.044 156.073 313.315 156.82C314.581 157.578 315.772 158.306 316.91 158.91C318.035 159.544 319.069 160.126 319.983 160.643C320.918 161.124 321.734 161.546 322.405 161.893C323.744 162.604 324.508 163.036 324.508 163.036C324.508 163.036 323.67 162.814 322.208 162.38C321.478 162.155 320.594 161.881 319.576 161.565C318.58 161.204 317.463 160.767 316.248 160.276C315.643 160.025 314.998 159.788 314.356 159.501C313.718 159.196 313.06 158.88 312.383 158.557C311.027 157.912 309.596 157.229 308.186 156.394C306.758 155.59 305.264 154.785 303.837 153.821C303.114 153.357 302.385 152.888 301.651 152.417L299.503 150.922C298.072 149.916 296.703 148.833 295.344 147.78C293.97 146.744 292.735 145.584 291.478 144.537C289.045 142.347 286.851 140.226 285.094 138.288C283.306 136.384 281.932 134.686 280.996 133.483C280.063 132.276 279.586 131.547 279.586 131.547Z" fill="#011627"/>
<path d="M283.551 124.5C283.551 124.5 287.007 124.582 292.042 125.797C293.293 126.124 294.664 126.431 296.067 126.918C296.774 127.146 297.501 127.379 298.242 127.62C298.969 127.901 299.715 128.188 300.47 128.479C301.994 129.042 303.503 129.79 305.049 130.513C306.56 131.315 308.09 132.146 309.58 133.043L311.743 134.506L312.818 135.235L313.831 136.04C315.176 137.108 316.497 138.164 317.624 139.362C318.2 139.944 318.781 140.5 319.323 141.07C319.889 141.615 320.313 142.277 320.797 142.849C321.711 144.037 322.65 145.095 323.259 146.263C323.938 147.381 324.528 148.416 325.047 149.329C325.484 150.291 325.806 151.157 326.09 151.855C326.643 153.258 326.932 154.057 326.932 154.057C326.932 154.057 326.438 153.342 325.623 152.094C325.223 151.471 324.736 150.717 324.182 149.851C323.529 149.049 322.797 148.147 322.032 147.156C321.315 146.124 320.274 145.218 319.318 144.155C318.379 143.074 317.203 142.112 316.044 141.071C314.931 139.976 313.57 139.092 312.291 138.072L311.314 137.321L310.272 136.644L308.182 135.284C306.769 134.398 305.314 133.574 303.876 132.777C302.389 132.072 301 131.215 299.549 130.609C298.833 130.28 298.13 129.953 297.443 129.634C296.742 129.338 296.062 129.046 295.396 128.763C294.066 128.185 292.778 127.717 291.601 127.241C289.222 126.362 287.217 125.653 285.793 125.205C284.376 124.735 283.551 124.5 283.551 124.5Z" fill="#011627"/>
<path d="M261.972 140.797C261.972 140.797 261.828 141.578 261.451 142.914C261.071 144.246 260.48 146.145 259.574 148.346C258.708 150.567 257.502 153.073 256.083 155.696C255.313 156.972 254.621 158.358 253.726 159.646C252.87 160.959 251.996 162.292 251.038 163.567C250.557 164.202 250.088 164.847 249.596 165.467C249.087 166.077 248.581 166.685 248.08 167.289C247.112 168.528 246.001 169.607 244.973 170.691C243.971 171.8 242.871 172.742 241.85 173.654C241.339 174.107 240.843 174.549 240.361 174.977C239.849 175.365 239.354 175.743 238.878 176.107C237.927 176.828 237.06 177.486 236.259 178.027C235.434 178.534 234.715 178.976 234.125 179.343C232.934 180.052 232.246 180.437 232.246 180.437C232.246 180.437 232.808 179.87 233.81 178.921C234.312 178.456 234.924 177.891 235.624 177.242C236.294 176.566 237.051 175.802 237.876 174.969C238.287 174.556 238.717 174.127 239.161 173.682C239.584 173.217 240.023 172.738 240.474 172.245C241.378 171.263 242.338 170.239 243.263 169.119C244.214 168.021 245.177 166.874 246.114 165.671C246.59 165.076 247.068 164.476 247.549 163.875L248.916 162.002C249.869 160.781 250.746 159.506 251.603 158.243C252.484 156.999 253.28 155.723 254.091 154.515C254.841 153.269 255.627 152.097 256.307 150.944C256.978 149.79 257.647 148.711 258.219 147.69C260.548 143.63 261.972 140.797 261.972 140.797Z" fill="#011627"/>
<path d="M267.677 126.922C267.677 126.922 267.482 126.97 267.127 127.092C266.767 127.196 266.257 127.413 265.606 127.645C264.965 127.922 264.181 128.214 263.318 128.644C262.441 129.034 261.496 129.564 260.464 130.12C259.94 130.379 259.442 130.746 258.903 131.071C258.373 131.414 257.8 131.72 257.267 132.131C256.725 132.519 256.165 132.919 255.596 133.327C255.051 133.767 254.495 134.217 253.931 134.673C252.759 135.536 251.761 136.675 250.623 137.684C249.562 138.775 248.528 139.932 247.528 141.109C246.606 142.354 245.565 143.513 244.741 144.805C243.955 146.115 243.006 147.304 242.307 148.592C241.618 149.881 240.906 151.112 240.234 152.285C239.656 153.507 239.108 154.665 238.603 155.732C238.344 156.265 238.096 156.778 237.86 157.265C237.637 157.76 237.461 158.243 237.276 158.689C236.906 159.586 236.581 160.369 236.316 161.011C235.767 162.302 235.426 163.037 235.426 163.037C235.426 163.037 235.55 162.248 235.813 160.866C235.952 160.174 236.122 159.336 236.316 158.372C236.425 157.894 236.518 157.374 236.656 156.839C236.824 156.316 237.002 155.763 237.187 155.187C237.563 154.036 237.957 152.776 238.442 151.468C239.011 150.198 239.607 148.847 240.27 147.471C240.568 146.766 241.003 146.116 241.391 145.432C241.788 144.75 242.198 144.066 242.624 143.384C243.465 142.011 244.535 140.756 245.495 139.429C246.578 138.198 247.697 136.991 248.847 135.857C250.062 134.789 251.227 133.702 252.508 132.84C253.139 132.401 253.731 131.927 254.364 131.543C255.004 131.174 255.63 130.81 256.241 130.458C257.457 129.756 258.688 129.229 259.812 128.758C260.954 128.311 262.008 127.943 262.972 127.701C263.916 127.405 264.779 127.286 265.47 127.142C266.871 126.921 267.677 126.922 267.677 126.922Z" fill="#011627"/>
</g>
<path d="M228.629 176.93L220.703 176.895C220.706 176.244 221.697 111.734 282.313 111.734C342.757 111.734 343.457 176.263 343.457 176.914H335.53C335.524 174.581 334.789 119.663 282.313 119.663C260.185 119.663 244.455 129.197 235.559 148.003C228.772 162.343 228.631 176.787 228.629 176.93Z" fill="#FFE380"/>
<path opacity="0.5" d="M228.633 176.929C228.634 176.786 228.776 162.342 235.562 148.001C244.458 129.195 260.19 119.661 282.317 119.661C334.792 119.661 335.527 174.58 335.533 176.912H339.694C339.315 168.658 334.821 116.797 282.303 116.797C229.599 116.797 224.888 168.714 224.477 176.912L228.633 176.929Z" fill="#FFE380"/>
<path d="M334.529 208.057C327.287 214.25 320.045 220.445 312.805 226.64C311.049 228.142 313.271 230.97 315.038 229.46C322.276 223.266 329.518 217.07 336.76 210.875C338.516 209.374 336.295 206.544 334.529 208.057Z" fill="#FFE380"/>
<path d="M321.098 222.458C322.432 224.137 322.153 226.579 320.474 227.914L314.424 232.725C312.745 234.059 310.303 233.779 308.969 232.102C307.634 230.424 307.913 227.981 309.592 226.646L315.643 221.835C317.32 220.501 319.763 220.781 321.098 222.458Z" fill="#FFE380"/>
<path opacity="0.5" d="M321.096 222.457C320.185 221.312 318.759 220.837 317.411 221.062C317.623 221.238 317.822 221.43 317.997 221.652C319.332 223.33 319.055 225.772 317.374 227.107L311.323 231.919C310.791 232.342 310.18 232.584 309.555 232.691C310.937 233.82 312.965 233.882 314.421 232.725L320.472 227.914C322.151 226.578 322.43 224.135 321.096 222.457Z" fill="#0952AA"/>
<path d="M227.663 172.734H224.679V174.27C221.632 177.493 219.469 185.479 219.469 194.848C219.469 204.214 221.632 212.203 224.679 215.426V216.959H227.663C232.189 216.959 235.858 207.058 235.858 194.848C235.857 182.635 232.189 172.734 227.663 172.734Z" fill="#FFE380"/>
<path d="M224.677 172.734C223.943 172.734 223.233 173.02 222.555 173.511C219.468 175.14 214.105 180.09 214.105 194.848C214.105 208.124 218.445 213.292 221.564 215.298C222.524 216.363 223.574 216.958 224.677 216.958C229.204 216.958 232.872 207.057 232.872 194.847C232.872 182.635 229.203 172.734 224.677 172.734Z" fill="#FFE380"/>
<path opacity="0.2" d="M227.028 173.672C229.106 177.684 230.462 184.232 230.462 191.648C230.462 203.86 226.793 213.761 222.268 213.761C221.165 213.761 220.116 213.163 219.156 212.099C218.586 211.734 217.977 211.261 217.359 210.654C218.698 213.018 220.237 214.447 221.56 215.297C222.52 216.362 223.57 216.957 224.673 216.957C229.2 216.957 232.868 207.056 232.868 194.846C232.868 184.843 230.406 176.401 227.028 173.672Z" fill="#814C4A"/>
<path opacity="0.2" d="M221.811 178.68C221.811 178.68 221.719 179.082 221.558 179.783C221.411 180.48 221.211 181.443 221.002 182.579C220.91 183.155 220.783 183.751 220.69 184.401C220.579 185.04 220.476 185.712 220.381 186.409C220.261 187.095 220.206 187.828 220.093 188.546C220.01 189.276 219.929 190.016 219.847 190.759C219.78 191.508 219.712 192.253 219.645 192.99C219.611 193.731 219.525 194.461 219.478 195.176C219.444 195.889 219.393 196.585 219.333 197.252C219.293 197.925 219.253 198.562 219.217 199.148C219.093 200.343 219.066 201.35 218.976 202.076C218.903 202.801 218.828 203.231 218.828 203.231C218.828 203.231 218.647 202.874 218.391 202.219C218.144 201.561 217.761 200.614 217.498 199.408C217.361 198.808 217.207 198.152 217.092 197.445C216.995 196.737 216.905 195.983 216.832 195.197C216.773 194.412 216.763 193.588 216.758 192.755C216.755 191.922 216.843 191.076 216.893 190.228C217.002 189.389 217.108 188.546 217.268 187.735C217.448 186.927 217.609 186.13 217.857 185.394C218.074 184.645 218.334 183.951 218.609 183.309C218.868 182.664 219.181 182.094 219.456 181.574C220.047 180.551 220.632 179.804 221.072 179.336C221.518 178.873 221.811 178.68 221.811 178.68Z" fill="white"/>
<path d="M335.33 172.734H338.316V174.27C341.364 177.493 343.526 185.479 343.526 194.848C343.526 204.214 341.363 212.203 338.316 215.426V216.959H335.33C330.805 216.959 327.137 207.058 327.137 194.848C327.135 182.635 330.803 172.734 335.33 172.734Z" fill="#FFE380"/>
<path d="M338.312 172.734C339.047 172.734 339.755 173.02 340.433 173.511C343.518 175.14 348.883 180.09 348.883 194.848C348.883 208.124 344.543 213.292 341.425 215.298C340.465 216.363 339.415 216.958 338.312 216.958C333.786 216.958 330.117 207.057 330.117 194.847C330.117 182.635 333.786 172.734 338.312 172.734Z" fill="#FFE380"/>
<path opacity="0.2" d="M335.956 173.672C333.878 177.684 332.521 184.232 332.521 191.648C332.521 203.86 336.191 213.761 340.715 213.761C341.817 213.761 342.868 213.163 343.828 212.099C344.398 211.734 345.007 211.261 345.623 210.654C344.287 213.018 342.746 214.447 341.425 215.297C340.465 216.362 339.415 216.957 338.312 216.957C333.786 216.957 330.117 207.056 330.117 194.846C330.117 184.843 332.578 176.401 335.956 173.672Z" fill="#814C4A"/>
<path opacity="0.2" d="M341.172 178.68C341.172 178.68 341.262 179.082 341.425 179.783C341.571 180.48 341.773 181.443 341.978 182.579C342.071 183.155 342.198 183.751 342.291 184.401C342.402 185.04 342.504 185.712 342.6 186.409C342.719 187.095 342.775 187.828 342.888 188.546C342.969 189.276 343.053 190.016 343.133 190.759C343.203 191.508 343.27 192.253 343.335 192.99C343.369 193.731 343.453 194.461 343.503 195.176C343.536 195.889 343.588 196.585 343.648 197.252C343.688 197.925 343.73 198.562 343.766 199.148C343.889 200.343 343.915 201.35 344.008 202.076C344.079 202.801 344.153 203.231 344.153 203.231C344.153 203.231 344.334 202.874 344.589 202.219C344.838 201.561 345.221 200.614 345.484 199.408C345.619 198.808 345.774 198.152 345.89 197.445C345.985 196.737 346.076 195.983 346.149 195.197C346.207 194.412 346.219 193.588 346.225 192.755C346.226 191.922 346.14 191.076 346.087 190.228C345.979 189.389 345.873 188.546 345.715 187.735C345.533 186.927 345.374 186.13 345.126 185.394C344.907 184.645 344.647 183.951 344.373 183.309C344.114 182.664 343.801 182.094 343.525 181.574C342.934 180.551 342.348 179.804 341.91 179.336C341.466 178.873 341.172 178.68 341.172 178.68Z" fill="white"/>
<path d="M518.048 453.242H46.3789V476.4H518.048V453.242Z" fill="#2BA792"/>
<path d="M539.526 459.541C539.526 463.005 536.556 465.84 532.921 465.84H31.5124C27.8796 465.84 24.9062 463.005 24.9062 459.541C24.9062 456.077 27.8796 453.242 31.5124 453.242H532.921C536.556 453.242 539.526 456.075 539.526 459.541Z" fill="#B2EBE1"/>
<path d="M398.936 447.665C398.936 450.743 396.436 453.239 393.358 453.239H171.086C168.008 453.239 165.512 450.743 165.512 447.665C165.512 444.586 168.008 442.086 171.086 442.086H393.358C396.438 442.086 398.936 444.586 398.936 447.665Z" fill="#121212"/>
<path d="M381.311 433.345C381.311 439.158 376.555 443.917 370.741 443.917H193.692C187.877 443.917 183.121 439.159 183.121 433.345V336.351C183.121 330.537 187.877 325.781 193.692 325.781H370.741C376.554 325.781 381.311 330.536 381.311 336.351V433.345Z" fill="#E0E0E0"/>
<path d="M290.031 384.028C290.031 388.346 286.529 391.848 282.214 391.848C277.894 391.848 274.395 388.346 274.395 384.028C274.395 379.713 277.895 376.211 282.214 376.211C286.531 376.211 290.031 379.712 290.031 384.028Z" fill="#B9B9B9"/>
<path opacity="0.6" d="M370.744 325.781H332.612C330.382 397.554 232.699 431.354 189.164 442.873C190.541 443.533 192.074 443.915 193.695 443.915H370.744C376.557 443.915 381.315 439.158 381.315 433.343V336.349C381.315 330.537 376.557 325.781 370.744 325.781Z" fill="#454545"/>
<path d="M136.162 105.281H76.9909C69.8197 105.281 64.0078 111.095 64.0078 118.266V160.167C64.0078 167.337 69.8197 173.15 76.9909 173.15H105.875L122.416 185.263V173.15H136.162C143.332 173.15 149.146 167.337 149.146 160.167V118.266C149.145 111.095 143.332 105.281 136.162 105.281Z" fill="#664EFE"/>
<path d="M108.706 121.827C108.706 122.924 107.819 123.811 106.722 123.811H76.4276C75.3313 123.811 74.4453 122.924 74.4453 121.827C74.4453 120.731 75.3326 119.844 76.4276 119.844H106.724C107.819 119.844 108.706 120.731 108.706 121.827Z" fill="#EEEBFE"/>
<path d="M141.165 132.648C141.165 133.744 140.278 134.631 139.181 134.631H76.4276C75.3313 134.631 74.4453 133.744 74.4453 132.648C74.4453 131.551 75.3326 130.664 76.4276 130.664H139.183C140.278 130.664 141.165 131.553 141.165 132.648Z" fill="#EEEBFE"/>
<path d="M141.165 143.468C141.165 144.564 140.278 145.45 139.181 145.45H76.4276C75.3313 145.45 74.4453 144.563 74.4453 143.468C74.4453 142.372 75.3326 141.484 76.4276 141.484H139.183C140.278 141.484 141.165 142.372 141.165 143.468Z" fill="#EEEBFE"/>
<path d="M130.346 154.288C130.346 155.385 129.458 156.272 128.363 156.272H76.4276C75.3313 156.272 74.4453 155.385 74.4453 154.288C74.4453 153.192 75.3326 152.305 76.4276 152.305H128.363C129.458 152.305 130.346 153.192 130.346 154.288Z" fill="#EEEBFE"/>
<path opacity="0.1" d="M136.16 105.281H135.098C135.641 140.305 108.272 161.835 87.332 173.15H105.872L122.413 183.942V173.15H136.159C143.329 173.15 149.143 167.337 149.143 160.167V118.266C149.143 111.095 143.33 105.281 136.16 105.281Z" fill="#114068"/>
<path d="M123.662 271.953H65.4961V308.172H123.662V271.953Z" fill="#FAC849"/>
<path d="M65.4961 271.953H123.664L94.5813 297.277L65.4961 271.953Z" fill="#FFD029"/>
<mask id="mask0_9128_28802" style="mask-type:luminance" maskUnits="userSpaceOnUse" x="65" y="271" width="59" height="38">
<path d="M123.678 271.953H65.5117V308.172H123.678V271.953Z" fill="white"/>
</mask>
<g mask="url(#mask0_9128_28802)">
<path d="M66.4714 309.341C73.0371 300.604 79.6055 291.867 86.1712 283.132C87.3538 281.56 85.4322 279.208 84.2429 280.791C77.6758 289.528 71.1088 298.262 64.5431 306.997C63.3591 308.571 65.282 310.92 66.4714 309.341Z" fill="#FFD029"/>
<path d="M124.196 306.997C117.627 298.263 111.061 289.528 104.497 280.791C103.307 279.208 101.382 281.56 102.567 283.132C109.135 291.867 115.702 300.604 122.268 309.341C123.456 310.925 125.38 308.572 124.196 306.997Z" fill="#FFD029"/>
</g>
<path opacity="0.1" d="M85.7734 308.172H123.659V271.953H106.479C109.819 289.977 98.0648 301.358 85.7734 308.172Z" fill="#114068"/>
<path d="M439.192 212H386.968C383.505 212 380.699 214.809 380.699 218.273V238.51C380.699 241.974 383.505 244.783 386.968 244.783H412.742L420.73 254.462V244.783H439.192C442.656 244.783 445.462 241.974 445.462 238.51V218.273C445.462 214.808 442.656 212 439.192 212Z" fill="#FDC500"/>
<path d="M400.111 227.798C400.111 229.777 398.508 231.383 396.527 231.383C394.546 231.383 392.941 229.777 392.941 227.798C392.941 225.817 394.546 224.211 396.527 224.211C398.508 224.211 400.111 225.817 400.111 227.798Z" fill="white"/>
<path d="M416.658 227.798C416.658 229.777 415.053 231.383 413.074 231.383C411.092 231.383 409.488 229.777 409.488 227.798C409.488 225.817 411.092 224.211 413.074 224.211C415.052 224.211 416.658 225.817 416.658 227.798Z" fill="white"/>
<path d="M433.213 227.798C433.213 229.777 431.608 231.383 429.629 231.383C427.648 231.383 426.043 229.777 426.043 227.798C426.043 225.817 427.648 224.211 429.629 224.211C431.608 224.211 433.213 225.817 433.213 227.798Z" fill="white"/>
<path opacity="0.1" d="M439.195 212H431.525C432.661 230.444 414.547 240.006 399.164 244.783H412.745L420.733 254.462V244.783H439.195C442.659 244.783 445.465 241.974 445.465 238.51V218.273C445.465 214.808 442.659 212 439.195 212Z" fill="#114068"/>
<path d="M434.153 104.56C432.886 103.931 430.39 104.486 428.085 105.256C427.395 102.885 426.458 100.621 425.289 98.5002C427.455 97.412 429.606 96.0447 430.083 94.7151C431.225 91.5138 425.173 85.4619 425.173 85.4619C425.173 85.4619 419.17 79.4585 415.919 80.5534C414.58 81.0025 413.209 83.1587 412.123 85.3311C410.001 84.1633 407.736 83.2234 405.365 82.537C406.127 80.2352 406.684 77.7459 406.079 76.4702C404.622 73.3984 396.064 73.3984 396.064 73.3984C396.064 73.3984 387.574 73.3984 386.05 76.4702C385.422 77.7365 385.976 80.2325 386.746 82.537C384.374 83.2248 382.11 84.1633 379.99 85.3324C378.902 83.1681 377.534 81.0159 376.205 80.5413C373.002 79.3978 366.952 85.4497 366.952 85.4497C366.952 85.4497 360.949 91.4531 362.043 94.7043C362.492 96.0447 364.648 97.4147 366.821 98.5016C365.654 100.623 364.713 102.887 364.028 105.259C361.726 104.496 359.234 103.941 357.959 104.545C354.887 106 354.887 114.559 354.887 114.559C354.887 114.559 354.887 123.049 357.959 124.574C359.226 125.204 361.721 124.647 364.028 123.877C364.714 126.249 365.654 128.513 366.821 130.633C364.658 131.721 362.504 133.089 362.03 134.419C360.887 137.621 366.939 143.673 366.939 143.673C366.939 143.673 372.941 149.676 376.194 148.581C377.533 148.129 378.903 145.973 379.99 143.801C382.11 144.969 384.374 145.908 386.746 146.595C385.984 148.897 385.427 151.386 386.034 152.663C387.487 155.736 396.048 155.736 396.048 155.736C396.048 155.736 404.537 155.736 406.063 152.663C406.691 151.395 406.134 148.902 405.365 146.595C407.737 145.907 410 144.969 412.121 143.801C413.209 145.965 414.574 148.116 415.906 148.592C419.109 149.735 425.16 143.682 425.16 143.682C425.16 143.682 431.162 137.679 430.068 134.429C429.619 133.089 427.462 131.72 425.288 130.632C426.457 128.51 427.395 126.248 428.083 123.876C430.385 124.639 432.877 125.192 434.151 124.59C437.222 123.134 437.222 114.577 437.222 114.577C437.222 114.577 437.224 106.084 434.153 104.56ZM396.057 130.009C387.529 130.009 380.614 123.095 380.614 114.566C380.614 106.037 387.529 99.1232 396.057 99.1232C404.587 99.1232 411.498 106.037 411.498 114.566C411.5 123.096 404.589 130.009 396.057 130.009Z" fill="#8471FE"/>
<g opacity="0.5">
<path d="M396.06 138.238C383.006 138.238 372.387 127.619 372.387 114.564C372.387 101.511 383.006 90.8906 396.06 90.8906C409.114 90.8906 419.734 101.511 419.734 114.564C419.734 127.619 409.114 138.238 396.06 138.238ZM396.06 95.5954C385.6 95.5954 377.092 104.106 377.092 114.566C377.092 125.026 385.6 133.536 396.06 133.536C406.519 133.536 415.028 125.026 415.028 114.566C415.029 104.106 406.519 95.5954 396.06 95.5954Z" fill="#EEEBFE"/>
</g>
<path opacity="0.1" d="M376.202 148.585C377.542 148.133 378.912 145.977 379.998 143.804C382.118 144.972 384.382 145.912 386.754 146.598C385.992 148.9 385.435 151.389 386.042 152.666C387.496 155.74 396.056 155.74 396.056 155.74C396.056 155.74 404.546 155.74 406.071 152.666C406.7 151.399 406.143 148.905 405.374 146.598C407.746 145.911 410.009 144.972 412.13 143.804C413.218 145.968 414.583 148.119 415.915 148.595C419.118 149.739 425.168 143.686 425.168 143.686C425.168 143.686 431.17 137.682 430.077 134.432C429.628 133.092 427.47 131.723 425.296 130.635C426.465 128.514 427.404 126.251 428.092 123.879C430.394 124.642 432.886 125.195 434.16 124.594C437.23 123.137 437.23 114.58 437.23 114.58C437.23 114.58 437.23 106.089 434.16 104.565C432.894 103.935 430.398 104.491 428.092 105.261C427.403 102.89 426.465 100.626 425.296 98.505C427.462 97.4167 429.613 96.0494 430.09 94.7198C431.232 91.5185 425.18 85.4666 425.18 85.4666C425.18 85.4666 424.543 84.8328 423.578 84.0156C420.937 93.6801 416.309 102.055 410.559 109.286C411.162 110.937 411.507 112.711 411.507 114.571C411.507 123.1 404.596 130.013 396.066 130.013C393.734 130.013 391.531 129.481 389.547 128.557C381.317 134.248 372.808 138.614 365.32 141.864C366.221 142.943 366.949 143.676 366.949 143.676C366.949 143.676 372.95 149.678 376.202 148.585Z" fill="#114068"/>
<path d="M163.884 56.2523C163.241 55.9354 161.98 56.2159 160.813 56.6056C160.465 55.4055 159.989 54.2593 159.398 53.1859C160.496 52.6357 161.584 51.9426 161.823 51.2697C162.402 49.6489 159.339 46.5838 159.339 46.5838C159.339 46.5838 156.299 43.5443 154.653 44.0986C153.974 44.3278 153.281 45.4187 152.731 46.5191C151.658 45.9284 150.512 45.4524 149.31 45.1045C149.696 43.9394 149.976 42.6786 149.67 42.0327C148.934 40.4766 144.601 40.4766 144.601 40.4766C144.601 40.4766 140.302 40.4766 139.53 42.0327C139.213 42.6746 139.493 43.9381 139.883 45.1045C138.681 45.4538 137.535 45.9284 136.462 46.5204C135.912 45.4241 135.22 44.3345 134.547 44.0932C132.925 43.5147 129.861 46.5784 129.861 46.5784C129.861 46.5784 126.823 49.6179 127.377 51.263C127.604 51.9413 128.697 52.6357 129.796 53.1859C129.204 54.2593 128.73 55.4055 128.382 56.6056C127.215 56.2186 125.955 55.9395 125.309 56.2442C123.754 56.9805 123.754 61.3145 123.754 61.3145C123.754 61.3145 123.754 65.6134 125.309 66.3861C125.951 66.703 127.213 66.4225 128.382 66.0328C128.73 67.2329 129.204 68.3791 129.796 69.4539C128.7 70.0041 127.611 70.6972 127.37 71.3701C126.792 72.9909 129.856 76.0547 129.856 76.0547C129.856 76.0547 132.895 79.0941 134.542 78.5399C135.22 78.3107 135.916 77.2197 136.465 76.1194C137.538 76.71 138.684 77.186 139.884 77.5339C139.499 78.7004 139.218 79.9598 139.523 80.6058C140.259 82.1605 144.593 82.1605 144.593 82.1605C144.593 82.1605 148.892 82.1605 149.662 80.6058C149.982 79.9639 149.7 78.7004 149.31 77.5339C150.512 77.186 151.658 76.71 152.731 76.1194C153.283 77.2157 153.973 78.3053 154.647 78.5453C156.27 79.1238 159.332 76.06 159.332 76.06C159.332 76.06 162.373 73.0206 161.819 71.3741C161.591 70.6958 160.498 70.0014 159.399 69.4525C159.991 68.3791 160.467 67.2316 160.814 66.0315C161.979 66.4171 163.24 66.699 163.886 66.3929C165.441 65.6566 165.441 61.3226 165.441 61.3226C165.441 61.3226 165.439 57.0264 163.884 56.2523ZM144.596 69.137C140.278 69.137 136.776 65.6377 136.776 61.3186C136.776 57.0007 140.278 53.5001 144.596 53.5001C148.915 53.5001 152.413 57.0007 152.413 61.3186C152.413 65.6377 148.915 69.137 144.596 69.137Z" fill="#FAC849"/>
<g opacity="0.5">
<path d="M144.595 73.3064C137.987 73.3064 132.609 67.93 132.609 61.3212C132.609 54.7136 137.987 49.3359 144.595 49.3359C151.203 49.3359 156.58 54.7123 156.58 61.3212C156.58 67.93 151.203 73.3064 144.595 73.3064ZM144.595 51.716C139.298 51.716 134.991 56.0244 134.991 61.3198C134.991 66.6153 139.298 70.925 144.595 70.925C149.889 70.925 154.2 66.6153 154.2 61.3198C154.2 56.0244 149.89 51.716 144.595 51.716Z" fill="#FFD029"/>
</g>
<path opacity="0.1" d="M134.539 78.5435C135.218 78.3142 135.913 77.2233 136.462 76.123C137.536 76.7136 138.682 77.1896 139.882 77.5375C139.496 78.7039 139.216 79.9634 139.521 80.6093C140.257 82.1641 144.591 82.1641 144.591 82.1641C144.591 82.1641 148.89 82.1641 149.66 80.6093C149.979 79.9675 149.697 78.7039 149.308 77.5375C150.509 77.1896 151.655 76.7136 152.729 76.123C153.28 77.2193 153.971 78.3088 154.645 78.5489C156.267 79.1274 159.33 76.0636 159.33 76.0636C159.33 76.0636 162.37 73.0242 161.816 71.3777C161.588 70.6994 160.496 70.005 159.397 69.4561C159.989 68.3827 160.465 67.2352 160.812 66.0351C161.977 66.4207 163.237 66.7026 163.883 66.3965C165.438 65.6602 165.438 61.3262 165.438 61.3262C165.438 61.3262 165.438 57.0273 163.883 56.2546C163.24 55.9377 161.979 56.2182 160.812 56.6079C160.464 55.4077 159.988 54.2615 159.397 53.1882C160.495 52.638 161.583 51.9449 161.822 51.272C162.401 49.6511 159.338 46.586 159.338 46.586C159.338 46.586 159.197 46.4485 158.972 46.2422C157.022 50.5411 154.483 54.3856 151.575 57.8134C152.109 58.8693 152.415 60.06 152.415 61.3235C152.415 65.6427 148.917 69.1419 144.598 69.1419C143.102 69.1419 141.709 68.7145 140.522 67.9863C136.697 70.7884 132.743 73.1294 128.969 75.0658C129.454 75.6564 129.856 76.0596 129.856 76.0596C129.856 76.0596 132.893 79.0977 134.539 78.5435Z" fill="#114068"/>
<path d="M133.672 203.984H179.85C182.912 203.984 185.394 206.47 185.394 209.531V227.425C185.394 230.489 182.912 232.97 179.85 232.97H157.062L149.997 241.526V232.97H133.674C130.611 232.97 128.129 230.489 128.129 227.425V209.531C128.128 206.47 130.61 203.984 133.672 203.984Z" fill="#38CCB3"/>
<path d="M155.922 212.576C154.226 211.593 151.723 212.619 149.703 214.882C147.685 212.621 145.181 211.593 143.485 212.576C141.344 213.821 141.314 217.768 143.419 221.392C145.109 224.305 147.654 226.088 149.703 226.047C151.754 226.088 154.297 224.305 155.988 221.392C158.094 217.768 158.065 213.821 155.922 212.576Z" fill="white"/>
<path d="M166.456 212.502V221.453H165.372V213.639H165.32L163.135 215.09V213.988L165.372 212.502H166.456Z" fill="white"/>
<path opacity="0.1" d="M185.396 209.531C185.396 206.468 182.913 203.984 179.851 203.984H170.367C171.075 220.211 155.94 228.676 142.633 232.971H149.998V241.527L157.063 232.971H179.851C182.913 232.971 185.396 230.49 185.396 227.426V209.531Z" fill="#114068"/>
<path d="M183.518 69.1172H229.693C232.756 69.1172 235.24 71.5997 235.24 74.6621V92.5577C235.24 95.6201 232.756 98.1026 229.693 98.1026H206.907L199.842 106.66V98.1026H183.519C180.455 98.1026 177.973 95.6187 177.973 92.5577V74.6621C177.97 71.5997 180.454 69.1172 183.518 69.1172Z" fill="#38CCB3"/>
<path d="M216.296 77.104V86.0547H215.212V78.2403H215.16L212.974 79.6913V78.59L215.212 77.104H216.296Z" fill="white"/>
<path d="M204.579 78.8594H195.174C194.033 78.8594 193.109 79.7844 193.109 80.9239V87.5853C193.109 88.7261 194.034 89.6498 195.174 89.6498H199.765L202.395 92.8349V89.6498H204.579C205.72 89.6498 206.644 88.7261 206.644 87.5853V80.9239C206.645 79.7844 205.722 78.8594 204.579 78.8594Z" fill="white"/>
<path opacity="0.1" d="M235.243 74.6621C235.243 71.5997 232.759 69.1172 229.697 69.1172H220.214C220.92 85.3434 205.787 93.8091 192.48 98.1026H199.846V106.66L206.91 98.1026H229.697C232.759 98.1026 235.243 95.6187 235.243 92.5577V74.6621Z" fill="#114068"/>
<path d="M267.247 49.2578V48.4808L270.165 45.2863C270.508 44.9122 270.79 44.587 271.011 44.3107C271.233 44.0316 271.397 43.7697 271.503 43.5251C271.613 43.2776 271.667 43.0186 271.667 42.748C271.667 42.4372 271.593 42.1681 271.443 41.9408C271.296 41.7134 271.095 41.5379 270.839 41.4141C270.582 41.2904 270.295 41.2285 269.975 41.2285C269.636 41.2285 269.339 41.299 269.086 41.44C268.836 41.5782 268.641 41.7724 268.503 42.0228C268.368 42.2732 268.3 42.5667 268.3 42.9034H267.281C267.281 42.3854 267.401 41.9307 267.64 41.5393C267.879 41.1479 268.204 40.8429 268.615 40.6241C269.03 40.4054 269.495 40.2961 270.01 40.2961C270.528 40.2961 270.987 40.4054 271.387 40.6241C271.787 40.8429 272.101 41.1379 272.328 41.5091C272.555 41.8803 272.669 42.2933 272.669 42.748C272.669 43.0732 272.61 43.3912 272.492 43.702C272.377 44.01 272.175 44.3539 271.888 44.7338C271.603 45.1108 271.207 45.5712 270.7 46.1152L268.715 48.239V48.3081H272.824V49.2578H267.247ZM274.21 47.4447V46.5641L278.095 40.4169H278.734V41.7811H278.302L275.367 46.426V46.495H280.599V47.4447H274.21ZM278.371 49.2578V47.1771V46.767V40.4169H279.39V49.2578H278.371ZM285.359 40.0025L282.51 50.5874H281.578L284.427 40.0025H285.359ZM286.826 49.2578L290.78 41.4357V41.3666H286.222V40.4169H291.885V41.4184L287.948 49.2578H286.826Z" fill="#664EFE"/>
<path d="M314.96 47.738C314.672 61.0002 306.463 72.2735 293.88 76.5185C281.294 80.7688 267.44 75.3736 259.903 64.8151C252.185 54.0044 253.273 39.093 261.265 28.827C269.978 17.6361 285.628 14.8205 298.183 20.7025C294.865 21.8851 291.551 23.0691 288.236 24.2517C286.704 24.7992 287.365 27.2561 288.913 26.7032C292.979 25.2522 297.042 23.7986 301.109 22.349C301.772 22.1116 302.171 21.4967 301.996 20.7874C300.948 16.5694 299.899 12.3514 298.854 8.13338C298.459 6.54353 296.009 7.21911 296.405 8.81031C297.179 11.932 297.953 15.0537 298.73 18.1755C284.961 12.0898 269.286 15.4475 259.471 27.0336C250.131 38.0573 249.968 54.2457 257.708 66.1002C265.602 78.1879 280.991 82.9116 294.556 78.97C308.311 74.9745 317.197 61.7028 317.502 47.7407C317.537 46.0969 314.997 46.1023 314.96 47.738Z" fill="#664EFE"/>
<path d="M358.232 32.7537L354.141 18.9062L350.049 32.7537L337.395 37.1052L350.049 41.4581L354.141 55.3029L358.232 41.4581L370.888 37.1052L358.232 32.7537Z" fill="#CAC2FE"/>
<path d="M378.405 185.474L375.63 176.086L372.854 185.474L364.273 188.426L372.854 191.379L375.63 200.766L378.405 191.379L386.986 188.426L378.405 185.474Z" fill="white"/>
<path d="M421.171 172.133L419.726 167.234L418.278 172.133L413.801 173.672L418.278 175.212L419.726 180.112L421.171 175.212L425.65 173.672L421.171 172.133Z" fill="white"/>
<path d="M509.698 238.796L506.859 229.195L504.022 238.796L495.246 241.814L504.022 244.831L506.859 254.433L509.698 244.831L518.472 241.814L509.698 238.796Z" fill="#CAC2FE"/>
<path d="M450.144 278.41L446.935 267.547L443.723 278.41L433.797 281.822L443.723 285.239L446.935 296.098L450.144 285.239L460.069 281.822L450.144 278.41Z" fill="white"/>
<path d="M377.071 269.555L375.624 264.656L374.178 269.555L369.699 271.097L374.178 272.637L375.624 277.536L377.071 272.637L381.55 271.097L377.071 269.555Z" fill="white"/>
<path d="M477.578 103.551L475.951 98.0547L474.326 103.551L469.305 105.28L474.326 107.006L475.951 112.502L477.578 107.006L482.599 105.28L477.578 103.551Z" fill="#CAC2FE"/>
<path d="M165.635 5.49772L164.013 0L162.386 5.49772L157.363 7.22511L162.386 8.95116L164.013 14.4489L165.635 8.95116L170.659 7.22511L165.635 5.49772Z" fill="#CAC2FE"/>
<path d="M427.794 14.0699L424.958 4.46875L422.121 14.0699L413.344 17.0878L422.121 20.107L424.958 29.7068L427.794 20.107L436.57 17.0878L427.794 14.0699Z" fill="#CAC2FE"/>
<path d="M219.579 33.6962L216.743 24.0938L213.905 33.6962L205.129 36.7141L213.905 39.732L216.743 49.3331L219.579 39.732L228.355 36.7141L219.579 33.6962Z" fill="#CAC2FE"/>
<path d="M88.9629 47.6058L87.3394 42.1094L85.7145 47.6058L80.6914 49.3331L85.7145 51.0592L87.3394 56.5556L88.9629 51.0592L93.986 49.3331L88.9629 47.6058Z" fill="#CAC2FE"/>
<path d="M36.3041 157.144L32.2142 143.297L28.1203 157.144L15.4648 161.496L28.1203 165.849L32.2142 179.693L36.3041 165.849L48.9582 161.496L36.3041 157.144Z" fill="#CAC2FE"/>
<path d="M193.63 136.736L189.165 121.625L184.696 136.736L170.887 141.484L184.696 146.237L189.165 161.344L193.63 146.237L207.438 141.484L193.63 136.736Z" fill="white"/>
<path d="M74.0539 225.646L71.2801 216.258L68.5022 225.646L59.9219 228.599L68.5022 231.551L71.2801 240.938L74.0539 231.551L82.6355 228.599L74.0539 225.646Z" fill="white"/>
<path d="M179.42 269.555L177.972 264.656L176.525 269.555L172.047 271.097L176.525 272.637L177.972 277.536L179.42 272.637L183.897 271.097L179.42 269.555Z" fill="white"/>
<path d="M143.944 335.171L141.171 325.781L138.394 335.171L129.812 338.12L138.394 341.074L141.171 350.461L143.944 341.074L152.525 338.12L143.944 335.171Z" fill="white"/>
<path d="M14.4529 317.526L11.6157 307.922L8.77856 317.526L0 320.545L8.77856 323.563L11.6157 333.163L14.4529 323.563L23.2261 320.545L14.4529 317.526Z" fill="#CAC2FE"/>
<path d="M24.9082 359.866L23.2847 354.367L21.6584 359.866L16.6367 361.592L21.6584 363.318L23.2847 368.815L24.9082 363.318L29.93 361.592L24.9082 359.866Z" fill="#CAC2FE"/>
<path d="M551.225 347.444L548.388 337.844L545.551 347.444L536.773 350.464L545.551 353.479L548.388 363.083L551.225 353.479L560 350.464L551.225 347.444Z" fill="#CAC2FE"/>
</svg>
