<svg width="668" height="600" viewBox="0 0 668 600" fill="none" xmlns="http://www.w3.org/2000/svg">
<path d="M313.198 197.846H329.751V154.91H313.198V197.846Z" fill="#F1AFAB"/>
<path d="M309.337 234.396V253.068H344.126V234.396H309.337Z" fill="#F7F5FF"/>
<path d="M299.01 205.693V142.801H368.989V205.657L299.01 205.693ZM302.31 145.801V202.729H365.69V145.801H302.31Z" fill="#F8D7D5"/>
<path d="M299.01 286.524V223.668H368.989V286.524H299.01ZM302.31 226.632V283.56H365.69V226.632H302.31Z" fill="#F8D7D5"/>
<path d="M346.665 185.64V162.9H321.348V185.64H346.665Z" fill="#F7F5FF"/>
<path d="M346.652 266.472V243.732H321.335V266.472H346.652Z" fill="#F1AFAB"/>
<path d="M96.9798 390.073L79.4515 390.397L70.5538 390.541C67.5745 390.541 64.5819 390.541 61.6026 390.601H61.0147V390.073L60.9346 376.645V376.033H61.6026L79.2912 376.105C85.1963 376.105 91.0881 376.237 96.9798 376.297H97.3539V376.621C97.3539 378.889 97.2337 381.157 97.1802 383.401L96.9798 390.073ZM96.9798 390.073L96.7928 383.281C96.7928 381.049 96.6459 378.841 96.6191 376.645L96.9798 376.969C91.0881 377.029 85.1963 377.161 79.2912 377.161L61.6026 377.245L62.2706 376.645V390.073L61.6694 389.533C64.5818 389.533 67.4943 389.533 70.4202 389.593L79.2111 389.737L96.9798 390.073Z" fill="#D4F8AC"/>
<path d="M77.2474 407.004L59.7191 407.328L50.8214 407.472C47.8421 407.472 44.8494 407.472 41.8701 407.532H41.2823V407.004L41.2021 393.6V392.988H41.8701L59.5588 393.06C65.4506 393.06 71.3557 393.192 77.2474 393.252H77.6215V393.6C77.6215 395.868 77.5146 398.136 77.4478 400.38L77.2474 407.004ZM77.2474 407.004L77.0604 400.212C77.0604 397.98 76.9134 395.772 76.8867 393.576L77.2474 393.9C71.3557 393.96 65.4506 394.092 59.5588 394.092L41.8701 394.164L42.5381 393.576L42.4713 407.004L41.8701 406.464C44.7826 406.464 47.6951 406.464 50.6209 406.464L59.4118 406.608L77.2474 407.004Z" fill="#D4F8AC"/>
<path d="M452.37 190.344L434.828 190.68L425.93 190.812C422.964 190.872 419.972 190.812 416.993 190.884H416.405V190.344L416.338 176.916V176.316H417.006L434.695 176.4C440.586 176.4 446.491 176.532 452.383 176.592H452.757V176.916C452.757 179.196 452.65 181.464 452.584 183.708L452.37 190.344ZM452.37 190.344L452.183 183.564C452.183 181.332 452.036 179.112 452.009 176.916L452.37 177.252C446.478 177.252 440.573 177.432 434.681 177.444L416.993 177.516L417.661 176.916L417.58 190.344L416.993 189.816C419.905 189.816 422.817 189.816 425.73 189.816L434.521 189.948L452.37 190.344Z" fill="#F7F5FF"/>
<path d="M432.637 207.277L415.095 207.601L406.197 207.733C403.231 207.733 400.239 207.733 397.259 207.805H396.658V207.265V193.837V193.201H397.326L415.015 193.285C420.907 193.285 426.798 193.417 432.703 193.477H433.064V193.801C433.064 196.081 432.944 198.349 432.891 200.593L432.637 207.277ZM432.637 207.277L432.45 200.497C432.383 198.265 432.289 196.045 432.263 193.849L432.637 194.185C426.732 194.245 420.84 194.365 414.948 194.377L397.259 194.449L397.927 193.849L397.847 207.277L397.259 206.749C400.172 206.749 403.084 206.749 405.997 206.809L414.788 206.941L432.637 207.277Z" fill="#F7F5FF"/>
<path d="M412.971 190.344L395.456 190.68L386.559 190.812C383.579 190.872 380.6 190.812 377.607 190.884H377.02V190.344L376.939 176.916V176.316H377.607L395.296 176.4C401.201 176.4 407.093 176.532 412.985 176.592H413.359V176.916C413.359 179.196 413.239 181.464 413.185 183.708L412.971 190.344ZM412.971 190.344L412.824 183.6C412.824 181.368 412.677 179.148 412.651 176.952L413.011 177.288C407.12 177.288 401.228 177.468 395.323 177.48L377.634 177.552L378.302 176.952L378.235 190.38L377.634 189.852C380.56 189.852 383.459 189.852 386.385 189.852L395.176 189.984L412.971 190.344Z" fill="#F7F5FF"/>
<path d="M626.129 407.004L608.588 407.328L599.69 407.472C596.724 407.472 593.731 407.472 590.752 407.532H590.151V407.004L590.084 393.6V392.988H590.752L608.441 393.06C614.332 393.06 620.238 393.192 626.129 393.252H626.49V393.6C626.49 395.868 626.383 398.136 626.316 400.38L626.129 407.004ZM626.129 407.004L625.942 400.212C625.942 397.98 625.782 395.772 625.769 393.576L626.129 393.9C620.238 393.96 614.332 394.092 608.441 394.092L590.752 394.164L591.42 393.576L591.34 407.004L590.752 406.464C593.664 406.464 596.577 406.464 599.489 406.464L608.28 406.608L626.129 407.004Z" fill="#F7F5FF"/>
<path d="M333.933 534.779C490.203 534.779 616.884 524.818 616.884 512.531C616.884 500.244 490.203 490.283 333.933 490.283C177.663 490.283 50.9814 500.244 50.9814 512.531C50.9814 524.818 177.663 534.779 333.933 534.779Z" fill="#FBFAFF"/>
<path d="M47.3877 466.451L119.037 466.163L190.687 466.055L334 465.863L477.312 466.055L548.962 466.163L620.612 466.451L548.962 466.751L477.312 466.859L334 467.051L190.687 466.859L119.037 466.751L47.3877 466.451Z" fill="#2E2E2E"/>
<path d="M187.32 376.451L190.34 392.711L210.794 491.903H214.094L199.224 392.711L197.02 376.451H187.32Z" fill="#F7FDFC"/>
<path d="M197.02 376.451H187.32L190.34 392.711H199.224L197.02 376.451Z" fill="#80DF12"/>
<path d="M123.112 491.903H126.412L146.853 392.711L149.872 376.451H140.173L137.982 392.711L123.112 491.903Z" fill="#F7FDFC"/>
<path d="M140.172 376.451L137.981 392.711H146.852L149.872 376.451H140.172Z" fill="#80DF12"/>
<path d="M61.7764 491.903H65.0763L85.5171 392.711L88.5364 376.451H78.8504L76.646 392.711L61.7764 491.903Z" fill="#D4F8AC"/>
<path d="M76.6465 392.711H85.5175L88.5369 376.451H78.8509L76.6465 392.711Z" fill="#80DF12"/>
<path d="M67 384.083H216.846V369.911H160.747L141.896 271.391H72.7181L67 384.083Z" fill="#F7FDFC"/>
<path d="M67 384.083H75.1763L80.4936 271.391H72.7181L67 384.083Z" fill="#80DF12"/>
<path d="M222.483 509.279C219.504 509.615 138.182 492.575 135.537 490.271C135.216 490.019 139.064 475.991 139.064 475.991C140.4 470.219 161.508 423.107 161.508 423.107L214.681 434.891L192.156 478.559C192.156 478.559 202.283 484.715 210.994 490.559C214.839 492.996 218.515 495.641 222.002 498.479C224.621 501.311 225.449 508.967 222.483 509.279Z" fill="#AD6359"/>
<path d="M222.47 509.28C219.504 509.616 138.182 492.576 135.537 490.272C135.216 490.02 139.064 475.992 139.064 475.992C139.491 474.096 142.056 467.724 145.329 460.02L196.204 470.676L192.196 478.56C192.196 478.56 202.337 484.728 211.047 490.56C214.902 492.99 218.583 495.635 222.069 498.48C224.621 501.324 225.449 508.968 222.47 509.28Z" fill="#F7F5FF"/>
<path d="M222.711 509.484C219.638 509.772 137.648 493.271 134.976 490.859C133.947 489.971 141.215 466.248 141.255 466.104L193.72 476.52L193.506 477.323C193.506 477.323 219.865 495.479 222.497 498.395C225.129 501.311 225.784 509.208 222.711 509.484Z" fill="#2E2E2E"/>
<path d="M222.497 506.4C208.75 503.316 153.025 492 139.158 489.912C139.038 489.912 139.024 489.972 139.158 489.996C152.705 493.32 208.63 504.204 222.471 506.604C222.738 506.7 222.791 506.52 222.497 506.4Z" fill="#2E2E2E"/>
<path d="M197.727 477.084C192.517 475.08 185.703 474.492 180.653 477.084C180.466 477.18 180.653 477.432 180.814 477.42C186.387 476.956 191.999 477.032 197.554 477.648C197.621 477.637 197.683 477.61 197.734 477.569C197.784 477.528 197.821 477.474 197.839 477.415C197.857 477.356 197.856 477.294 197.837 477.235C197.817 477.177 197.779 477.124 197.727 477.084Z" fill="#2E2E2E"/>
<path d="M201.107 480C195.897 477.996 189.083 477.408 184.033 480C183.846 480.096 184.033 480.348 184.194 480.336C189.767 479.872 195.379 479.948 200.934 480.564C201.001 480.553 201.063 480.526 201.114 480.485C201.164 480.444 201.201 480.39 201.219 480.331C201.237 480.272 201.236 480.21 201.216 480.151C201.197 480.093 201.159 480.04 201.107 480Z" fill="#2E2E2E"/>
<path d="M204.501 482.915C199.29 480.911 192.477 480.311 187.427 482.915C187.24 483.023 187.427 483.263 187.587 483.251C193.161 482.797 198.772 482.877 204.327 483.491C204.397 483.482 204.463 483.455 204.516 483.413C204.57 483.371 204.608 483.316 204.627 483.255C204.645 483.193 204.643 483.128 204.621 483.068C204.598 483.007 204.557 482.954 204.501 482.915Z" fill="#2E2E2E"/>
<path d="M207.454 467.868C205.971 464.808 201.696 465.191 198.997 466.439C194.413 468.67 190.561 471.943 187.828 475.931C187.814 475.949 187.806 475.969 187.802 475.99C187.799 476.011 187.801 476.032 187.809 476.052C187.817 476.072 187.83 476.09 187.847 476.105C187.865 476.119 187.886 476.13 187.908 476.135C187.842 476.507 188.109 476.975 188.616 476.915C193.48 476.327 198.757 476.243 203.312 474.323C205.918 473.219 208.844 470.772 207.454 467.868ZM195.777 474.671C193.399 475.007 191.008 475.247 188.643 475.667C190.763 473.76 192.993 471.954 195.323 470.255C196.463 469.448 197.659 468.706 198.904 468.035C200.854 467.039 207.962 465.527 205.664 470.687C204.408 473.531 198.623 474.263 195.777 474.671Z" fill="#2E2E2E"/>
<path d="M174.321 471.875C178.329 474.491 183.553 475.475 188.216 476.819C188.322 476.84 188.432 476.838 188.537 476.814C188.642 476.79 188.74 476.744 188.822 476.679C188.904 476.615 188.968 476.535 189.008 476.444C189.049 476.354 189.066 476.256 189.057 476.159C189.081 476.158 189.104 476.153 189.125 476.142C189.146 476.132 189.163 476.118 189.176 476.1C189.189 476.082 189.198 476.062 189.2 476.041C189.203 476.02 189.199 475.999 189.191 475.979C187.315 471.609 184.191 467.76 180.133 464.819C177.741 463.139 173.613 462.071 171.529 464.819C169.445 467.567 171.956 470.399 174.321 471.875ZM172.745 467.903C171.529 462.455 178.209 465.107 179.919 466.403C181.027 467.269 182.067 468.203 183.032 469.199C184.969 471.25 186.788 473.389 188.483 475.607C186.238 474.803 183.94 474.179 181.656 473.459C178.904 472.571 173.413 470.903 172.745 467.903Z" fill="#2E2E2E"/>
<path d="M196.312 476.915L139.585 465.515C139.585 465.515 186.345 368.039 182.23 363.107C180.16 360.635 127.615 359.915 110.901 347.195C89.1913 330.683 103.754 305.435 103.754 305.435L162.431 303.875C162.431 303.875 161.723 314.891 164.021 316.547C165.53 317.651 235.443 322.931 243.125 344.147C252.504 370.043 196.312 476.915 196.312 476.915Z" fill="#2E2E2E"/>
<path d="M197.928 467.699C196.432 467.135 181.789 463.403 178.503 462.659C171.903 461.135 165.29 459.647 158.65 458.243C155.189 457.511 147.775 455.927 147.334 455.963C147.294 455.973 147.259 455.994 147.235 456.024C147.21 456.053 147.196 456.089 147.196 456.126C147.196 456.162 147.21 456.198 147.235 456.227C147.259 456.257 147.294 456.278 147.334 456.287C153.8 458.099 160.346 459.683 166.879 461.279C173.413 462.875 195.884 467.808 197.835 468.012C197.995 468 198.142 467.783 197.928 467.699Z" fill="#2E2E2E"/>
<path d="M192.264 358.8C190.926 358.062 189.397 357.649 187.828 357.6L162.444 353.772C154.522 352.572 146.559 351.516 138.663 350.172C132.13 349.044 125.49 347.52 119.839 344.34C114.249 341.194 110.119 336.333 108.216 330.66C106.425 325.021 105.916 319.116 106.72 313.296C106.88 311.88 107.16 310.464 107.454 309.072C107.454 309.05 107.445 309.029 107.427 309.013C107.409 308.997 107.386 308.988 107.361 308.988C107.336 308.988 107.312 308.997 107.295 309.013C107.277 309.029 107.267 309.05 107.267 309.072C105.13 319.872 104.929 332.388 113.947 340.992C118.343 345.192 124.368 347.652 130.527 349.248C137.567 350.855 144.704 352.098 151.903 352.968L177.287 356.784C181.295 357.384 185.504 357.864 189.552 358.62C190.364 358.72 191.128 359.024 191.756 359.496C192.05 359.877 192.237 360.316 192.299 360.776C192.362 361.236 192.3 361.703 192.117 362.136C191.703 363.936 191.168 365.736 190.594 367.464C185.971 381.624 154.762 449.244 153.84 450.804C153.747 450.96 154.041 451.092 154.134 450.936C161.91 438.504 184.515 386.28 189.658 372.876C191.012 369.467 192.123 365.984 192.985 362.448C193.332 361.128 193.506 359.688 192.264 358.8Z" fill="#2E2E2E"/>
<path d="M333.239 510.06C330.393 510.924 249.004 509.892 245.904 508.116C244.702 507.084 243.74 497.736 243.005 486.108L229.004 436.236L281.362 435.852L296.699 485.376C296.699 485.376 308.002 489.6 317.835 493.776C322.148 495.472 326.342 497.404 330.393 499.56C333.559 501.876 336.084 509.22 333.239 510.06Z" fill="#AD6359"/>
<path d="M334.908 510.119C331.969 510.995 247.948 510.623 244.755 508.787C243.539 508.115 242.885 497.123 242.511 483.839V483.419L296.712 483.107V483.935C296.712 483.935 328.776 496.979 332.076 499.331C335.376 501.683 337.848 509.255 334.908 510.119Z" fill="#2E2E2E"/>
<path d="M334 507.192C319.838 506.82 262.684 506.508 248.643 507.108C248.536 507.108 248.536 507.18 248.643 507.192C262.671 507.828 319.838 507.72 334 507.396C334.267 507.396 334.267 507.192 334 507.192Z" fill="#2E2E2E"/>
<path d="M302.751 483.275C297.179 482.315 290.366 483.059 286.077 486.599C285.917 486.731 286.077 486.947 286.318 486.887C291.654 485.376 297.153 484.374 302.724 483.899C302.816 483.902 302.906 483.872 302.973 483.816C303.041 483.759 303.081 483.681 303.085 483.599C303.088 483.516 303.055 483.435 302.992 483.375C302.93 483.314 302.843 483.278 302.751 483.275Z" fill="#2E2E2E"/>
<path d="M306.759 485.459C301.188 484.511 294.374 485.243 290.099 488.783C289.925 488.927 290.099 489.131 290.326 489.083C295.661 487.566 301.161 486.565 306.732 486.095C306.815 486.084 306.891 486.047 306.947 485.99C307.003 485.934 307.035 485.862 307.038 485.787C307.041 485.712 307.015 485.638 306.964 485.578C306.913 485.518 306.841 485.476 306.759 485.459Z" fill="#2E2E2E"/>
<path d="M310.767 487.656C305.196 486.696 298.382 487.44 294.107 490.98C293.933 491.124 294.107 491.328 294.334 491.28C299.668 489.758 305.168 488.756 310.74 488.292C310.823 488.28 310.899 488.243 310.955 488.187C311.011 488.131 311.043 488.059 311.046 487.983C311.049 487.908 311.023 487.834 310.972 487.774C310.921 487.714 310.848 487.672 310.767 487.656Z" fill="#2E2E2E"/>
<path d="M310.059 472.403C307.881 469.691 303.793 470.879 301.455 472.631C297.508 475.688 294.527 479.624 292.811 484.043C292.802 484.063 292.799 484.084 292.802 484.106C292.804 484.127 292.812 484.147 292.825 484.165C292.839 484.182 292.856 484.197 292.877 484.207C292.898 484.217 292.921 484.223 292.944 484.223C292.938 484.321 292.958 484.419 293.002 484.508C293.046 484.597 293.114 484.676 293.199 484.737C293.284 484.798 293.384 484.84 293.491 484.859C293.598 484.878 293.708 484.874 293.813 484.847C298.422 483.347 303.566 482.243 307.52 479.507C309.831 477.911 312.116 474.971 310.059 472.403ZM300.279 481.283C298.035 482.075 295.763 482.759 293.599 483.623C295.296 481.403 296.872 479.123 298.809 477.059C299.725 476.051 300.715 475.101 301.775 474.215C303.445 472.859 310.019 470.015 309.017 475.487C308.402 478.511 302.964 480.335 300.279 481.283Z" fill="#2E2E2E"/>
<path d="M278.65 482.675C283.245 484.451 288.523 484.391 293.346 484.835C293.853 484.835 294.107 484.403 294.027 484.031C294.044 484.019 294.057 484.003 294.066 483.986C294.076 483.968 294.081 483.949 294.081 483.929C294.081 483.91 294.076 483.89 294.066 483.873C294.057 483.855 294.044 483.839 294.027 483.827C291.157 479.919 287.189 476.76 282.524 474.671C279.785 473.471 275.497 473.231 274.134 476.339C272.771 479.447 275.978 481.643 278.65 482.675ZM276.165 479.075C273.68 473.987 280.841 475.295 282.845 476.243C284.116 476.868 285.339 477.57 286.505 478.343C288.95 479.927 291.101 481.775 293.359 483.563C290.967 483.215 288.576 483.047 286.185 482.771C283.299 482.471 277.527 481.907 276.165 479.099V479.075Z" fill="#2E2E2E"/>
<path d="M301.829 483.599H240.734C240.734 483.599 214.575 390.407 210.006 385.091C203.833 378.023 117.488 378.179 98.9708 355.091C82.3376 334.367 96.3789 305.027 96.3789 305.027L161.656 303.275C160.183 309.566 158.155 315.742 155.59 321.743C155.59 321.743 234.414 334.799 256.512 356.399C271.368 371.075 301.829 483.599 301.829 483.599Z" fill="#2E2E2E"/>
<path d="M166.999 317.724C165.1 318.101 163.244 318.635 161.455 319.32C159.585 319.956 157.728 320.688 155.924 321.48C152.375 323.06 148.923 324.811 145.583 326.724C145.476 326.784 145.583 326.916 145.69 326.868C149.217 325.212 152.878 323.736 156.539 322.32L161.883 320.28C163.705 319.658 165.489 318.949 167.227 318.156C167.44 318 167.32 317.676 166.999 317.724Z" fill="#2E2E2E"/>
<path d="M163.138 303.239C162.39 305.915 161.722 308.615 160.881 311.267C160.48 312.467 160.092 313.727 159.545 314.867C159.117 315.863 158.449 317.003 157.167 317.267C155.684 317.519 155.269 316.379 155.39 315.287C155.51 314.195 155.871 312.827 156.138 311.627C156.445 310.235 156.766 308.843 157.046 307.451C157.18 306.755 157.327 306.059 157.46 305.363C157.46 305.183 157.647 303.851 157.754 303.467C157.754 303.467 157.754 303.527 157.835 303.527C157.856 303.527 157.876 303.52 157.891 303.506C157.906 303.493 157.915 303.475 157.915 303.455C157.915 303.347 157.915 303.335 157.915 303.251C157.895 303.24 157.872 303.233 157.848 303.233C157.824 303.233 157.801 303.24 157.781 303.251C157.487 303.383 157.474 303.731 157.38 303.995C157.14 304.667 156.899 305.351 156.672 306.035C156.258 307.307 155.857 308.591 155.497 309.875C155.136 311.159 154.788 312.455 154.428 313.751C154.058 314.706 153.957 315.729 154.134 316.727C154.267 317.202 154.568 317.625 154.992 317.932C155.417 318.24 155.94 318.415 156.485 318.431C156.485 318.527 156.365 318.611 156.325 318.695C156.191 318.959 156.098 319.247 155.991 319.511C155.884 319.775 155.777 320.063 155.684 320.351C155.644 320.485 155.617 320.622 155.603 320.759C155.603 320.915 155.603 321.071 155.603 321.227C155.598 321.279 155.611 321.33 155.642 321.373C155.673 321.417 155.719 321.449 155.774 321.466C155.828 321.483 155.887 321.482 155.941 321.465C155.995 321.448 156.041 321.415 156.071 321.371C156.151 321.239 156.258 321.131 156.352 320.999C156.436 320.857 156.508 320.708 156.565 320.555C156.659 320.279 156.752 320.015 156.819 319.739C156.886 319.463 156.993 319.199 157.046 318.923C157.06 318.76 157.06 318.595 157.046 318.431C157.671 318.386 158.269 318.183 158.77 317.843C159.61 317.214 160.231 316.381 160.56 315.443C161.001 314.327 161.348 313.175 161.709 312.035C162.614 309.213 163.249 306.327 163.606 303.407C163.7 303.035 163.219 302.927 163.138 303.239Z" fill="#2E2E2E"/>
<path d="M295.509 473.807C293.882 473.637 292.245 473.545 290.606 473.531C288.896 473.459 287.173 473.399 285.449 473.351C282.069 473.267 278.676 473.207 275.296 473.195C268.482 473.195 261.655 473.195 254.841 473.267C251.288 473.327 243.659 473.411 243.245 473.531C243.199 473.531 243.155 473.548 243.122 473.577C243.09 473.606 243.071 473.646 243.071 473.687C243.071 473.729 243.09 473.768 243.122 473.798C243.155 473.827 243.199 473.843 243.245 473.843C250.005 474.167 256.779 474.263 263.566 474.383C270.352 474.503 277.099 474.587 283.859 474.479C285.743 474.479 287.614 474.395 289.484 474.347C291.464 474.361 293.444 474.285 295.416 474.119C295.656 474.095 295.736 473.831 295.509 473.807Z" fill="#2E2E2E"/>
<path d="M217.073 385.859C216.507 384.175 215.645 382.583 214.521 381.143C213.159 379.922 211.408 379.112 209.511 378.827C193.225 374.819 176.418 373.019 159.852 370.211C151.683 368.892 143.612 367.125 135.684 364.919C127.633 362.773 119.94 359.665 112.811 355.679C109.328 353.674 106.443 350.934 104.408 347.699C102.504 344.586 101.152 341.226 100.4 337.739C98.6095 329.787 98.6095 321.594 100.4 313.643C100.841 311.661 101.403 309.702 102.083 307.775C102.083 307.655 101.909 307.607 101.869 307.775C98.8046 315.439 97.5488 323.591 98.182 331.715C98.7832 338.783 100.68 346.211 105.757 351.803C108.378 354.527 111.552 356.779 115.109 358.439C118.831 360.277 122.677 361.904 126.625 363.311C134.332 365.998 142.267 368.125 150.353 369.671C166.879 372.959 183.753 374.615 200.266 377.915C202.297 378.323 204.274 378.755 206.358 379.223C208.445 379.525 210.467 380.112 212.357 380.963C214.307 382.055 215.029 384.239 215.737 386.063C216.578 388.079 243.138 468.863 243.793 470.843C243.818 470.907 243.87 470.96 243.938 470.991C244.006 471.021 244.084 471.027 244.157 471.007C244.229 470.987 244.29 470.942 244.327 470.883C244.364 470.823 244.373 470.753 244.354 470.687C242.149 462.395 218.796 389.819 217.073 385.859Z" fill="#2E2E2E"/>
<path d="M212.25 388.008C211.622 386.244 211.088 384.408 209.258 383.28C207.427 382.152 181.282 379.068 178.343 378.66C178.209 378.66 178.156 378.828 178.343 378.852C180.868 379.224 205.063 383.112 207.174 383.76C208.092 383.995 208.911 384.472 209.525 385.128C210.156 386.031 210.608 387.026 210.861 388.068C211.609 390.168 212.344 392.268 213.092 394.368C214.575 398.592 216.071 402.768 217.488 407.04C219.091 411.84 220.921 416.88 222.31 421.74C222.417 422.112 223.005 421.932 222.925 421.572C221.081 412.452 213.025 390.204 212.25 388.008Z" fill="#2E2E2E"/>
<path d="M155.964 321.887C168.035 323.19 179.966 325.385 191.635 328.451C203.394 331.411 214.896 335.137 226.051 339.599C232.303 342.119 238.369 344.939 244.367 347.903C244.488 347.963 244.367 348.119 244.26 348.059C233.433 343.036 222.248 338.658 210.78 334.955C199.402 331.227 187.757 328.192 175.924 325.871C169.244 324.575 162.564 323.567 155.884 322.559C155.39 322.535 155.51 321.839 155.964 321.887Z" fill="#2E2E2E"/>
<path d="M153.853 253.679C160.039 266.051 184.261 305.903 199.104 308.255C208.843 309.791 247.734 305.003 254.08 296.459C256.846 292.751 250.78 267.659 245.623 268.859C240.466 270.059 209.338 274.859 205.45 274.019C201.562 273.179 171.435 244.439 160.32 237.419C141.228 225.335 150.513 247.007 153.853 253.679Z" fill="#AD6359"/>
<path d="M233.8 267.516L236.298 305.352C236.298 305.352 205.57 311.52 192.21 307.404C175.898 302.412 151.876 257.184 148.577 249.744C143.233 237.54 144.569 230.136 152.224 231.912C155.176 232.584 159.064 234.66 163.834 238.404C168.83 242.304 197.501 267.636 206.586 272.412C211.489 275.088 233.8 267.516 233.8 267.516Z" fill="#8471FE"/>
<path opacity="0.6" d="M233.8 267.516L236.298 305.352C236.298 305.352 205.57 311.52 192.21 307.404C175.898 302.412 151.876 257.184 148.577 249.744C143.233 237.54 144.569 230.136 152.224 231.912C155.176 232.584 159.064 234.66 163.834 238.404C168.83 242.304 197.501 267.636 206.586 272.412C211.489 275.088 233.8 267.516 233.8 267.516Z" fill="#8471FE"/>
<path d="M228.336 304.031C227.775 298.451 226.425 275.531 226.505 270.563C226.505 270.227 226.759 270.143 226.799 270.503C228.924 287.183 228.336 298.499 228.576 303.995C228.576 304.139 228.349 304.175 228.336 304.031Z" fill="#2E2E2E"/>
<path opacity="0.6" d="M223.205 307.44C213.185 308.748 199.798 309.768 192.09 307.44C175.79 302.448 151.769 257.22 148.469 249.78C143.125 237.576 144.461 230.172 152.116 231.96C152.356 232.009 152.592 232.069 152.824 232.14L223.205 307.44Z" fill="#2E2E2E"/>
<path d="M174.334 316.404C172.491 318.024 93.2794 325.428 92.8385 324.948C91.7964 323.664 106.599 256.896 138.262 233.892C143.847 229.836 153.172 231.492 157.394 233.976C159.505 235.176 165.41 244.776 167.013 253.308C168.616 261.84 175.497 315.384 174.334 316.404Z" fill="#F7F5FF"/>
<path d="M140.427 232.223C140.427 232.223 149.071 272.567 149.351 274.223C149.632 275.879 148.376 320.783 148.376 320.783L89.5918 327.311C89.5918 327.311 96.2718 305.003 96.5924 303.935C96.9131 302.867 109.405 265.859 122.791 249.263C135.069 233.999 140.427 232.223 140.427 232.223Z" fill="#8471FE"/>
<path opacity="0.6" d="M140.427 232.223C140.427 232.223 149.071 272.567 149.351 274.223C149.632 275.879 148.376 320.783 148.376 320.783L89.5918 327.311C89.5918 327.311 96.2718 305.003 96.5924 303.935C96.9131 302.867 109.405 265.859 122.791 249.263C135.069 233.999 140.427 232.223 140.427 232.223Z" fill="#8471FE"/>
<path d="M158.703 234.576C158.703 234.576 164.635 270.36 164.809 272.616C164.982 274.872 169.471 318.396 169.471 318.396L176.726 315.996C176.726 315.996 172.718 287.664 172.197 285.204C171.676 282.744 168.349 256.404 167.08 251.472C165.062 243.6 158.703 234.576 158.703 234.576Z" fill="#8471FE"/>
<path opacity="0.6" d="M158.703 234.576C158.703 234.576 164.635 270.36 164.809 272.616C164.982 274.872 169.471 318.396 169.471 318.396L176.726 315.996C176.726 315.996 172.718 287.664 172.197 285.204C171.676 282.744 168.349 256.404 167.08 251.472C165.062 243.6 158.703 234.576 158.703 234.576Z" fill="#2E2E2E"/>
<path d="M230.634 304.728L181.816 309.205L198.222 250.86L247.027 246.396L230.634 304.728Z" fill="#F7F5FF"/>
<path d="M249.123 256.691C251.875 261.371 258.475 267.083 259.197 270.971C259.411 271.922 259.277 272.909 258.814 273.785C258.352 274.661 257.586 275.379 256.632 275.831C256.632 275.831 261.054 277.619 261.04 281.243C261.04 283.103 257.714 284.735 257.714 284.735C258.696 285.188 259.519 285.876 260.092 286.723C260.665 287.571 260.966 288.544 260.96 289.535C260.773 292.091 257.473 293.339 257.473 293.339C257.473 293.339 260.038 296.243 258.916 298.799C256.645 303.995 232.089 304.895 227.934 296.915C225.997 293.195 231.942 293.315 231.942 293.315C231.942 293.315 223.325 291.335 222.991 286.787C222.657 282.239 230.446 282.767 230.446 282.767C230.446 282.767 222.123 280.787 222.31 276.047C222.497 271.115 230.192 272.831 230.192 272.831C230.192 272.831 224.581 269.711 225.65 266.111C227.4 260.111 238.075 267.167 243.419 265.823L246.024 257.723L249.123 256.691Z" fill="#AD6359"/>
<path d="M254.361 263.448C252.196 258.804 258.436 252.744 257.033 248.04C255.189 241.668 247.427 248.268 246.051 257.64L246.425 265.104L254.361 263.448Z" fill="#AD6359"/>
<path d="M256.992 293.591C257.01 293.591 257.027 293.597 257.039 293.608C257.052 293.619 257.059 293.635 257.059 293.651C257.059 293.666 257.052 293.682 257.039 293.693C257.027 293.704 257.01 293.711 256.992 293.711C248.679 295.888 239.824 295.737 231.608 293.279C231.354 293.195 231.394 292.787 231.688 292.823C240.036 294.188 248.561 294.446 256.992 293.591Z" fill="#2E2E2E"/>
<path d="M257.848 284.771C257.942 284.771 257.968 284.903 257.848 284.927C249.592 287.015 238.904 286.823 230.22 282.923C229.926 282.791 229.805 282.395 230.22 282.527C236.178 284.735 249.966 285.671 257.848 284.771Z" fill="#2E2E2E"/>
<path d="M229.792 272.316C238.289 275.76 247.16 276.432 256.365 275.916C256.485 275.916 256.485 276.06 256.365 276.084C251.93 277.428 246.024 277.2 241.442 276.66C237.178 276.242 233.11 274.827 229.645 272.556C229.458 272.484 229.552 272.232 229.792 272.316Z" fill="#2E2E2E"/>
<path d="M122.377 247.199C98.7702 271.139 72.3174 311.387 83.9539 319.811C94.6419 327.503 132.945 319.691 157.02 310.967C161.602 309.299 150.954 272.567 145.864 273.827C137.073 276.011 123.152 281.327 122.591 281.483C121.255 281.819 127.614 267.539 135.403 250.211C144.101 230.891 135.884 233.495 122.377 247.199Z" fill="#AD6359"/>
<path d="M197.22 272.784C197.129 273.707 196.783 274.595 196.214 275.368C195.645 276.141 194.87 276.775 193.96 277.212C195.576 278.331 196.706 279.923 197.153 281.712C197.781 284.892 192.504 287.172 192.504 287.172C193.914 288.644 194.798 290.462 195.043 292.392C195.296 295.488 190.34 298.464 190.34 298.464C190.803 300.459 190.452 302.537 189.351 304.32C186.185 308.964 155.644 312.528 151.516 312.852L144.154 274.56C144.154 274.56 170.139 262.896 177.087 263.64C182.938 264.276 197.728 267.144 197.22 272.784Z" fill="#AD6359"/>
<path d="M193.866 277.092C187.828 275.076 181.268 274.368 174.935 273.744C174.912 273.752 174.891 273.765 174.877 273.784C174.862 273.802 174.854 273.824 174.854 273.846C174.854 273.869 174.862 273.89 174.877 273.909C174.891 273.927 174.912 273.941 174.935 273.948C181.254 274.5 187.547 276.576 193.826 277.356C193.865 277.361 193.905 277.352 193.936 277.33C193.967 277.309 193.988 277.277 193.993 277.242C193.999 277.207 193.988 277.172 193.964 277.144C193.941 277.115 193.905 277.097 193.866 277.092Z" fill="#2E2E2E"/>
<path d="M192.384 286.727C190.964 286.385 189.499 286.215 188.029 286.223C186.479 286.139 184.916 286.079 183.366 286.043C180.253 285.971 177.14 285.959 174.014 286.043C173.867 286.043 173.84 286.235 174.014 286.235C177.114 286.307 180.226 286.427 183.366 286.631C184.916 286.727 186.466 286.835 188.015 286.955C189.47 287.151 190.944 287.203 192.411 287.111C192.454 287.094 192.49 287.066 192.515 287.03C192.54 286.995 192.552 286.953 192.549 286.91C192.546 286.868 192.528 286.828 192.499 286.795C192.469 286.762 192.429 286.739 192.384 286.727Z" fill="#2E2E2E"/>
<path d="M190.206 298.464C188.898 298.165 187.541 298.076 186.198 298.2H181.936C179.09 298.2 176.258 298.116 173.426 297.984C173.279 297.984 173.266 298.176 173.426 298.188C176.312 298.332 179.184 298.512 182.07 298.632L186.305 298.8C187.593 298.95 188.9 298.893 190.166 298.632C190.166 298.632 190.259 298.476 190.206 298.464Z" fill="#2E2E2E"/>
<path d="M134.014 236.628C116.846 246.144 72.6649 302.16 80.7878 317.568C88.9106 332.976 144.315 316.008 144.315 316.008L139.411 274.164C139.411 274.164 124.849 281.52 124.368 280.86C123.887 280.2 132.384 261.084 135.831 253.26C139.278 245.436 143.152 231.6 134.014 236.628Z" fill="#8471FE"/>
<path opacity="0.6" d="M134.014 236.628C116.846 246.144 72.6649 302.16 80.7878 317.568C88.9106 332.976 144.315 316.008 144.315 316.008L139.411 274.164C139.411 274.164 124.849 281.52 124.368 280.86C123.887 280.2 132.384 261.084 135.831 253.26C139.278 245.436 143.152 231.6 134.014 236.628Z" fill="#8471FE"/>
<path d="M137.301 313.643C136.272 308.111 132.999 285.359 132.651 280.391C132.651 280.055 132.865 279.959 132.945 280.307C136.459 296.807 136.846 308.123 137.541 313.595C137.608 313.727 137.327 313.775 137.301 313.643Z" fill="#2E2E2E"/>
<path d="M139.078 274.2C137.464 274.74 135.897 275.386 134.388 276.132C133.052 276.756 131.716 277.332 130.3 278.004C127.348 279.384 124.422 280.824 121.523 282.276C118.624 283.728 115.724 285.216 112.865 286.74C110.006 288.264 107.254 289.932 104.395 291.456C104.262 291.528 104.395 291.696 104.529 291.624C107.428 290.148 110.447 288.84 113.386 287.424L122.044 283.2C124.916 281.82 127.815 280.452 130.688 279.06L134.909 276.996C136.454 276.311 137.945 275.533 139.372 274.668C139.407 274.621 139.426 274.567 139.429 274.512C139.432 274.456 139.417 274.4 139.386 274.352C139.356 274.303 139.311 274.263 139.256 274.236C139.202 274.209 139.14 274.197 139.078 274.2Z" fill="#2E2E2E"/>
<path d="M134.188 262.187C133.293 263.207 132.411 264.239 131.516 265.307C131.355 265.511 131.222 265.715 131.062 265.907C131.289 265.367 131.516 264.815 131.756 264.263C132.641 262.367 133.408 260.428 134.054 258.455C134.054 258.371 133.934 258.323 133.88 258.455C132.796 260.368 131.824 262.331 130.968 264.335C130.06 266.267 129.138 268.187 128.296 270.131C127.454 272.075 126.532 274.007 125.704 275.963C124.81 277.865 124.069 279.822 123.486 281.819C123.485 281.842 123.492 281.864 123.506 281.883C123.52 281.902 123.541 281.916 123.564 281.924C123.588 281.932 123.614 281.933 123.638 281.927C123.663 281.921 123.684 281.909 123.7 281.891C124.878 280 125.892 278.03 126.733 275.999C127.628 274.067 128.47 272.099 129.405 270.155C129.766 269.339 130.113 268.523 130.447 267.755C130.607 267.575 130.754 267.383 130.901 267.203C131.315 266.699 131.703 266.171 132.09 265.631C132.865 264.539 133.6 263.411 134.321 262.283C134.281 262.187 134.215 262.151 134.188 262.187Z" fill="#2E2E2E"/>
<path d="M144.421 315.084C144.421 314.808 144.221 314.748 144.168 315.084C144.114 315.42 144.168 315.552 144.087 315.72C142.204 316.176 135.31 318.06 133.626 318.516C130.086 319.452 126.532 320.28 122.938 321C119.345 321.72 115.697 322.332 112.05 322.848C108.403 323.364 104.742 323.892 101.068 324.108C100.921 324.108 100.935 324.312 101.068 324.312C104.809 324.132 108.536 324.036 112.264 323.652C115.991 323.268 119.545 322.728 123.139 322.056C126.733 321.384 130.433 320.52 134.014 319.548C135.804 319.056 137.581 318.516 139.358 317.964C141.079 317.513 142.744 316.906 144.328 316.152C144.388 316.12 144.438 316.075 144.471 316.019C144.504 315.964 144.519 315.902 144.515 315.84L144.421 315.084Z" fill="#2E2E2E"/>
<path d="M154.975 245.292C150.406 246.18 142.711 239.832 139.718 234.732C139.518 234.384 141.388 220.548 141.428 217.764C141.428 217.2 160.76 222.288 160.76 222.288C159.588 225.743 158.893 229.314 158.689 232.92C158.689 233.328 159.384 244.416 154.975 245.292Z" fill="#AD6359"/>
<path d="M160.774 222.288C160.774 222.372 160.627 222.708 160.467 223.248C160.186 224.184 159.745 225.648 159.385 227.424C158.986 229.232 158.758 231.066 158.703 232.908C158.703 233.04 158.703 233.172 158.703 233.292V233.352C158.703 233.58 158.703 233.88 158.703 234.24C158.074 234.308 157.44 234.332 156.806 234.312C146.252 233.94 142.912 222.24 142.017 217.752L142.351 217.812C142.858 217.884 143.526 218.028 144.341 218.196L144.956 218.34C146.292 218.628 147.775 219 149.378 219.372L150.968 219.768L154.348 220.62L155.684 220.968C156.165 221.076 156.632 221.208 157.02 221.316L157.648 221.472L157.955 221.556L159.545 221.976L160.32 222.168L160.64 222.264L160.774 222.288Z" fill="#2E2E2E"/>
<path d="M140.28 196.991C137.608 202.991 139.532 220.991 144.034 225.371C150.567 231.659 162.083 233.087 168.256 225.875C174.227 218.891 171.248 195.407 166.145 191.387C158.65 185.471 144.288 188.147 140.28 196.991Z" fill="#AD6359"/>
<path d="M158.677 208.883C158.677 208.883 158.57 208.955 158.583 209.003C158.784 210.203 158.797 211.631 157.635 212.159C157.635 212.159 157.635 212.243 157.635 212.231C159.118 211.883 159.091 209.999 158.677 208.883Z" fill="#2E2E2E"/>
<path d="M157.301 207.743C155.11 207.827 155.457 211.763 157.488 211.691C159.518 211.619 159.131 207.671 157.301 207.743Z" fill="#2E2E2E"/>
<path d="M166.545 208.512C166.545 208.512 166.652 208.512 166.652 208.608C166.719 209.808 167.026 211.224 168.295 211.536V211.608C166.772 211.524 166.385 209.676 166.545 208.512Z" fill="#2E2E2E"/>
<path d="M167.641 207.156C169.805 206.844 170.313 210.756 168.322 211.044C166.332 211.332 165.824 207.408 167.641 207.156Z" fill="#2E2E2E"/>
<path d="M155.403 206.075C155.991 205.895 156.498 205.643 157.06 205.415C157.673 205.251 158.211 204.914 158.596 204.455C158.681 204.288 158.703 204.101 158.66 203.921C158.616 203.742 158.51 203.579 158.355 203.459C158.002 203.27 157.598 203.17 157.186 203.17C156.775 203.17 156.371 203.27 156.017 203.459C155.234 203.727 154.588 204.243 154.201 204.911C154.136 205.065 154.121 205.233 154.156 205.394C154.192 205.556 154.277 205.706 154.402 205.826C154.526 205.947 154.686 206.034 154.863 206.078C155.04 206.122 155.227 206.121 155.403 206.075Z" fill="#80DF12"/>
<path d="M169.151 205.056C168.553 204.99 167.96 204.894 167.374 204.768C166.735 204.748 166.121 204.542 165.624 204.18C165.503 204.032 165.438 203.854 165.438 203.67C165.438 203.487 165.503 203.308 165.624 203.16C165.912 202.897 166.273 202.707 166.67 202.61C167.067 202.513 167.485 202.513 167.882 202.608C168.719 202.687 169.492 203.047 170.046 203.616C170.164 203.756 170.234 203.923 170.248 204.097C170.261 204.272 170.218 204.446 170.123 204.599C170.028 204.752 169.885 204.877 169.713 204.958C169.54 205.039 169.345 205.073 169.151 205.056Z" fill="#80DF12"/>
<path d="M158.436 220.284C158.783 220.548 159.144 220.908 159.638 220.92C160.143 220.872 160.63 220.729 161.068 220.5C161.068 220.5 161.162 220.5 161.068 220.56C160.895 220.812 160.65 221.019 160.359 221.158C160.068 221.297 159.741 221.364 159.411 221.352C159.128 221.306 158.867 221.186 158.66 221.006C158.453 220.827 158.31 220.596 158.249 220.344C158.289 220.272 158.383 220.248 158.436 220.284Z" fill="#2E2E2E"/>
<path d="M159.531 216.528C159.918 216.985 160.406 217.365 160.965 217.644C161.524 217.923 162.141 218.095 162.778 218.148C163.331 218.22 163.894 218.22 164.448 218.148C164.557 218.14 164.665 218.119 164.768 218.088C164.866 218.097 164.965 218.097 165.062 218.088C165.132 218.069 165.193 218.032 165.236 217.98C165.279 217.928 165.303 217.865 165.303 217.8C165.31 217.76 165.31 217.719 165.303 217.68V217.572C165.303 216.636 165.022 215.172 165.022 215.172C165.423 215.316 167.44 215.952 167.36 215.472C166.858 211.249 165.877 207.084 164.434 203.04C164.434 203.011 164.422 202.984 164.399 202.963C164.377 202.943 164.346 202.932 164.314 202.932C164.282 202.932 164.252 202.943 164.229 202.963C164.207 202.984 164.194 203.011 164.194 203.04C164.635 206.952 165.837 210.756 166.345 214.668C165.628 214.426 164.877 214.277 164.114 214.224C163.967 214.224 164.608 216.96 164.595 217.392C163.745 217.529 162.873 217.511 162.031 217.34C161.188 217.169 160.393 216.848 159.692 216.396C159.545 216.348 159.438 216.444 159.531 216.528Z" fill="#2E2E2E"/>
<path d="M163.793 217.668C163.277 218.379 162.57 218.961 161.735 219.36C161.269 219.557 160.748 219.624 160.239 219.552C159.144 219.372 159.037 218.484 159.157 217.704C159.235 217.292 159.365 216.889 159.544 216.504C160.784 217.293 162.274 217.702 163.793 217.668Z" fill="#2E2E2E"/>
<path d="M161.735 219.36C161.269 219.558 160.748 219.624 160.239 219.552C159.144 219.372 159.037 218.484 159.157 217.704C159.732 217.678 160.299 217.828 160.767 218.129C161.235 218.429 161.576 218.863 161.735 219.36Z" fill="#FF9ABB"/>
<g opacity="0.2">
<path d="M161.188 200.508C161.931 200.562 162.677 200.562 163.42 200.508C164.168 200.508 164.903 200.28 165.664 200.244C167.094 200.236 168.514 200.455 169.859 200.892C169.979 200.892 169.966 201 169.859 200.964C168.423 200.556 166.907 200.425 165.41 200.58C164.202 200.804 162.965 200.872 161.736 200.784C158.959 200.354 156.102 200.724 153.573 201.84C155.909 200.73 158.559 200.266 161.188 200.508Z" fill="#2E2E2E"/>
<path d="M161.069 198.72C161.77 198.782 162.475 198.802 163.179 198.78C163.887 198.78 164.515 198.552 165.304 198.516C166.67 198.513 168.026 198.725 169.312 199.14C169.419 199.14 169.405 199.236 169.312 199.212C167.949 198.824 166.51 198.701 165.09 198.852C163.942 199.056 162.769 199.116 161.603 199.032C158.975 198.624 156.271 198.977 153.881 200.04C156.081 198.977 158.58 198.518 161.069 198.72Z" fill="#2E2E2E"/>
</g>
<path d="M169.231 198.6C162.364 202.932 152.798 196.584 152.798 196.584C152.222 197.944 151.172 199.102 149.805 199.885C148.438 200.667 146.827 201.033 145.21 200.928C145.21 200.928 143.981 211.464 140.881 211.464C136.178 211.464 134.549 197.16 136.005 194.328C137.461 191.496 141.442 190.728 141.442 190.728C141.858 189.014 142.986 187.508 144.595 186.516C147.788 184.272 158.917 187.14 158.917 187.14C159.541 185.804 160.501 184.617 161.723 183.672C162.016 183.437 162.36 183.257 162.733 183.145C163.105 183.032 163.5 182.989 163.892 183.017C164.284 183.045 164.665 183.144 165.013 183.308C165.362 183.472 165.669 183.698 165.918 183.972C165.339 184.755 164.965 185.645 164.822 186.576C164.301 189.66 167.107 189.636 167.04 186.84C167.06 185.794 166.662 184.776 165.918 183.972C167.254 182.136 169.538 181.572 170.914 182.484C173.426 184.248 175.016 195.012 169.231 198.6Z" fill="#2E2E2E"/>
<path d="M155.964 216.36C154.785 216.313 153.643 215.97 152.67 215.369C151.697 214.768 150.931 213.934 150.46 212.962C149.988 211.99 149.83 210.918 150.004 209.869C150.177 208.82 150.675 207.836 151.441 207.028C152.207 206.221 153.21 205.623 154.335 205.302C155.461 204.982 156.664 204.951 157.807 205.215C158.951 205.478 159.99 206.024 160.805 206.792C161.62 207.559 162.178 208.517 162.417 209.556C162.617 210.4 162.598 211.275 162.361 212.112C162.125 212.949 161.678 213.727 161.055 214.384C160.431 215.041 159.648 215.561 158.765 215.904C157.883 216.246 156.924 216.402 155.964 216.36ZM156.485 205.8C156.037 205.785 155.589 205.817 155.149 205.896C153.787 206.147 152.582 206.856 151.781 207.878C150.981 208.9 150.644 210.157 150.84 211.394C151.036 212.631 151.75 213.755 152.836 214.535C153.922 215.316 155.299 215.695 156.685 215.595C158.072 215.496 159.364 214.925 160.298 213.999C161.233 213.073 161.739 211.862 161.713 210.613C161.687 209.364 161.132 208.17 160.161 207.276C159.19 206.381 157.875 205.853 156.485 205.8Z" fill="#2E2E2E"/>
<path d="M170.38 215.363C167.975 215.255 165.904 212.963 165.664 210.011C165.521 208.605 165.876 207.194 166.679 205.979C166.988 205.443 167.445 204.988 168.006 204.656C168.567 204.324 169.214 204.127 169.884 204.083C170.554 204.04 171.226 204.152 171.834 204.408C172.443 204.664 172.968 205.056 173.359 205.547C174.344 206.645 174.923 207.992 175.016 209.399C175.256 212.519 173.359 215.183 170.78 215.399L170.38 215.363ZM170.273 204.815C170.166 204.803 170.059 204.803 169.952 204.815C169.416 204.87 168.903 205.04 168.456 205.312C168.009 205.583 167.643 205.948 167.387 206.375C166.686 207.464 166.378 208.722 166.505 209.975C166.719 212.675 168.616 214.775 170.74 214.619C172.865 214.463 174.401 212.219 174.187 209.483C174.113 208.23 173.604 207.03 172.731 206.051C172.441 205.701 172.073 205.41 171.649 205.197C171.225 204.984 170.756 204.854 170.273 204.815Z" fill="#2E2E2E"/>
<path d="M162.257 210.228L161.669 209.676C162.564 208.896 164.702 207.792 166.345 209.16L165.784 209.724C164.328 208.488 162.337 210.156 162.257 210.228Z" fill="#2E2E2E"/>
<path d="M134.361 213.48L133.586 213.192C133.746 212.868 135.149 210.012 137.006 209.592C138.863 209.172 150.086 209.448 150.566 209.448V210.204C147.307 210.144 138.542 210.036 137.206 210.324C135.87 210.612 134.735 212.7 134.361 213.48Z" fill="#2E2E2E"/>
<path d="M143.353 211.8C143.353 211.8 139.345 205.8 136.272 207C133.199 208.2 136.018 216.804 139.358 218.148C139.773 218.347 140.228 218.469 140.696 218.505C141.164 218.542 141.636 218.493 142.083 218.362C142.53 218.231 142.942 218.02 143.296 217.742C143.65 217.464 143.937 217.125 144.141 216.744L143.353 211.8Z" fill="#AD6359"/>
<path d="M137.127 209.484C137.127 209.484 137.127 209.544 137.127 209.556C139.465 210.564 140.587 212.64 141.322 214.752C141.196 214.529 141.019 214.333 140.801 214.177C140.584 214.022 140.331 213.91 140.061 213.849C139.791 213.789 139.51 213.782 139.236 213.828C138.963 213.874 138.704 213.972 138.476 214.116C138.476 214.116 138.476 214.248 138.476 214.236C138.907 214.14 139.36 214.165 139.774 214.309C140.188 214.453 140.542 214.709 140.788 215.04C141.19 215.599 141.526 216.194 141.79 216.816C141.883 217.02 142.284 216.936 142.217 216.708C142.484 213.924 140.387 210 137.127 209.484Z" fill="#2E2E2E"/>
<path d="M158.797 234.384L154.161 244.8L139.825 231.6L135.817 235.812C135.817 235.812 149.845 256.656 149.939 255.708L154.695 246.78L161.562 252.996L161.001 237.396L158.797 234.384Z" fill="#F7F5FF"/>
<path d="M161.656 245.292C161.469 242.712 161.362 240.12 161.041 237.552C161.041 237.468 160.881 237.42 160.854 237.552C160.28 240.036 161.055 249.876 161.041 252.24C160.761 251.964 154.682 246.768 154.629 246.852C153.6 248.268 150.1 254.772 149.859 255.36C147.641 252.048 139.171 240.024 136.499 236.892C136.419 236.796 136.259 236.892 136.325 236.976C138.276 240.48 149.525 256.68 149.685 256.632C151.541 253.568 153.218 250.42 154.709 247.2C155.738 248.4 161.87 254.208 161.883 253.824C161.977 250.978 161.901 248.13 161.656 245.292Z" fill="#2E2E2E"/>
<path d="M436.151 321.9H342.257V510.6H436.151V321.9Z" fill="#F7F5FF"/>
<path opacity="0.3" d="M436.151 321.9H342.257V510.6H436.151V321.9Z" fill="#2E2E2E"/>
<path d="M170.714 321.9H76.8203V510.6H170.714V321.9Z" fill="#F7F5FF"/>
<path d="M436.151 321.9H170.715V348.108H436.151V321.9Z" fill="#F7F5FF"/>
<path opacity="0.2" d="M436.151 321.9H170.715V348.108H436.151V321.9Z" fill="#2E2E2E"/>
<path opacity="0.1" d="M171.315 335.005L204.422 334.777L237.514 334.705L303.726 334.549L369.939 334.705L403.045 334.777L436.151 335.005L403.045 335.221L369.939 335.305L303.726 335.449L237.514 335.305L204.422 335.221L171.315 335.005Z" fill="#2E2E2E"/>
<path d="M183.34 321.9H170.715V510.6H183.34V321.9Z" fill="#F7F5FF"/>
<path opacity="0.2" d="M183.34 321.9H170.715V510.6H183.34V321.9Z" fill="#2E2E2E"/>
<path d="M436.151 321.9H423.525V510.6H436.151V321.9Z" fill="#F7F5FF"/>
<path opacity="0.2" d="M436.151 321.9H423.525V510.6H436.151V321.9Z" fill="#2E2E2E"/>
<path d="M295.47 318.805H218.623V321.901H295.47V318.805Z" fill="#454545"/>
<path d="M295.47 318.805H256.793V321.901H295.47V318.805Z" fill="#454545"/>
<path d="M260.961 321.901H335.844L345.637 276.217H270.754L260.961 321.901Z" fill="#454545"/>
<path d="M298.743 299.053C298.678 299.574 298.738 300.102 298.918 300.6C299.099 301.099 299.396 301.557 299.789 301.945C300.182 302.332 300.663 302.639 301.199 302.846C301.735 303.054 302.315 303.155 302.898 303.145C304.139 303.127 305.329 302.701 306.243 301.946C307.157 301.192 307.73 300.163 307.855 299.053C307.917 298.533 307.856 298.006 307.675 297.508C307.493 297.011 307.197 296.553 306.804 296.166C306.411 295.779 305.931 295.472 305.396 295.264C304.861 295.056 304.283 294.953 303.7 294.961C302.459 294.979 301.268 295.406 300.355 296.16C299.441 296.915 298.867 297.944 298.743 299.053Z" fill="#454545"/>
<path d="M487.173 376.453L484.154 392.713L463.7 491.905H460.413L475.283 392.713L477.474 376.453H487.173Z" fill="#D4F8AC"/>
<path d="M477.473 376.453H487.173L484.153 392.713H475.282L477.473 376.453Z" fill="#80DF12"/>
<path d="M551.381 491.905H548.095L527.64 392.713L524.621 376.453H534.32L536.511 392.713L551.381 491.905Z" fill="#D4F8AC"/>
<path d="M534.32 376.453L536.511 392.713H527.64L524.621 376.453H534.32Z" fill="#80DF12"/>
<path d="M612.717 491.905H609.431L588.976 392.713L585.957 376.453H595.656L597.847 392.713L612.717 491.905Z" fill="#D4F8AC"/>
<path d="M597.847 392.713H588.976L585.957 376.453H595.656L597.847 392.713Z" fill="#80DF12"/>
<path d="M607.493 384.085H457.66V369.913H513.745L532.596 271.393H601.774L607.493 384.085Z" fill="#D4F8AC"/>
<path d="M607.493 384.085H599.33L593.999 271.393H601.775L607.493 384.085Z" fill="#80DF12"/>
<path d="M366.786 478.104C369.551 479.556 454.748 495.564 458.422 494.328C459.825 493.86 463.138 482.856 466.732 469.452C467.507 466.548 468.282 463.56 469.057 460.512C474.107 440.76 478.956 419.712 478.956 419.712L422.003 408.912L413.666 450L411.836 459.024C411.836 459.024 376.164 466.008 372.29 467.748C368.416 469.488 364.007 476.652 366.786 478.104Z" fill="#B78876"/>
<path d="M465.343 474.565C462.31 485.557 459.638 493.921 458.422 494.329C454.748 495.529 369.538 479.557 366.773 478.105C364.007 476.653 368.429 469.465 372.277 467.713C374.668 466.645 389.164 463.573 399.919 461.377C390.567 463.393 372.998 469.117 409.271 471.469C439.21 473.425 458.983 474.313 465.343 474.565Z" fill="#2E2E2E"/>
<path d="M443.673 517.201C446.759 517.969 533.693 513.937 536.899 511.909C538.115 511.141 534.775 479.797 533.866 476.773C530.78 466.561 516.098 435.805 516.098 435.805L457.928 438.349L481.816 488.401C481.816 488.401 449.311 503.317 446.051 505.885C442.791 508.453 440.587 516.481 443.673 517.201Z" fill="#B78876"/>
<path d="M536.899 511.945C533.693 513.985 446.772 518.017 443.673 517.249C440.573 516.481 442.818 508.501 446.051 505.933C447.574 504.733 455.403 500.869 463.419 497.077C453.426 502.129 437.607 513.397 536.017 493.309C536.886 502.249 537.554 511.537 536.899 511.945Z" fill="#2E2E2E"/>
<path d="M578.488 362.821C561.12 380.161 502.951 366.421 499.477 373.369C496.404 379.453 536.137 477.157 536.137 477.157L472.57 483.313C472.57 483.313 417.687 375.409 437.3 344.233C447.894 327.433 494.587 334.105 522.804 331.033C531.301 330.109 535.295 314.365 535.295 314.365H585.636C585.636 314.365 598.328 343.009 578.488 362.821Z" fill="#2E2E2E"/>
<path d="M455.016 334.573L508.456 371.257C526.184 370.921 564.982 376.441 578.582 362.857C598.395 343.045 585.69 314.389 585.69 314.389H535.296C535.296 314.389 531.288 330.133 522.804 331.057C503.031 333.181 474.161 330.529 455.016 334.573Z" fill="#2E2E2E"/>
<path d="M470.179 470.581C471.929 470.089 488.415 468.433 492.049 468.085C499.33 467.377 522.23 465.445 526.385 465.457C526.405 465.464 526.423 465.476 526.435 465.492C526.448 465.508 526.454 465.527 526.454 465.547C526.454 465.567 526.448 465.586 526.435 465.602C526.423 465.618 526.405 465.63 526.385 465.637C522.777 466.309 508.148 467.845 504.514 468.181C497.233 468.853 472.21 471.037 470.179 470.857C470.146 470.848 470.117 470.83 470.096 470.805C470.076 470.78 470.064 470.75 470.064 470.719C470.064 470.688 470.076 470.658 470.096 470.633C470.117 470.608 470.146 470.59 470.179 470.581Z" fill="#2E2E2E"/>
<path d="M491.809 367.644C495.897 365.82 526.879 366.72 549.11 364.848C556.351 364.248 563.619 362.856 569.15 358.596C573.977 354.694 577.42 349.603 579.05 343.956C581.187 337.128 580.973 330.012 580.599 323.028C580.519 321.312 580.386 319.584 580.265 317.868C580.265 317.772 580.452 317.748 580.466 317.868C582.149 330.384 583.445 344.364 574.387 355.212C570.37 359.986 564.649 363.376 558.181 364.812C544.821 367.98 494.361 367.212 492.584 368.412C490.459 369.876 523.058 458.988 523.699 460.692C523.819 461.004 523.191 461.22 523.044 460.908C519.825 454.008 488.242 369.24 491.809 367.644Z" fill="#2E2E2E"/>
<path d="M435.069 347.243C438.062 340.415 444.902 336.155 454.962 334.523C455.122 334.523 455.109 334.727 454.962 334.763C446.185 337.067 439.919 340.235 436.458 346.895C434.855 350.003 434.014 354.359 433.599 360.215C431.515 389.387 459.865 455.627 460.44 456.779C460.446 456.79 460.45 456.801 460.451 456.813C460.452 456.824 460.451 456.836 460.447 456.847C460.444 456.858 460.437 456.868 460.429 456.877C460.421 456.886 460.411 456.894 460.4 456.899C460.388 456.905 460.376 456.908 460.363 456.91C460.35 456.911 460.337 456.91 460.324 456.906C460.312 456.903 460.301 456.897 460.29 456.89C460.28 456.883 460.272 456.874 460.266 456.863C456.258 450.827 422.698 375.455 435.069 347.243Z" fill="#2E2E2E"/>
<path d="M412.09 447.348L460.186 456.54C460.186 456.54 422.217 354.744 440.052 341.604C444.996 338.004 455.777 336.696 468.589 341.664C487.707 349.08 509.845 364.212 530.713 369.744C550.259 374.928 573.465 370.164 581.481 362.268C598.261 345.684 585.636 314.34 585.636 314.34L516.405 312C516.405 312 517.447 312.756 514.133 315.396C514.133 315.396 473.452 307.104 455.764 316.812C423.887 334.308 412.09 447.348 412.09 447.348Z" fill="#2E2E2E"/>
<path d="M555.777 318.001C555.777 317.972 555.789 317.944 555.812 317.924C555.834 317.904 555.865 317.893 555.897 317.893C555.929 317.893 555.959 317.904 555.982 317.924C556.004 317.944 556.017 317.972 556.017 318.001C555.963 320.337 556.165 322.672 556.618 324.973C557.158 327.155 558.366 329.158 560.105 330.757C563.9 334.213 569.337 335.389 574.32 336.757C574.574 336.829 574.534 337.249 574.24 337.201C568.722 336.445 562.911 335.185 558.876 331.465C557.018 329.753 555.775 327.579 555.309 325.225C554.801 322.819 554.961 320.337 555.777 318.001Z" fill="#2E2E2E"/>
<path d="M441.268 339.661C448.67 335.497 460.24 338.665 465.784 340.573C465.809 340.581 465.829 340.597 465.84 340.618C465.852 340.64 465.853 340.664 465.844 340.687C465.835 340.709 465.817 340.727 465.793 340.737C465.769 340.747 465.742 340.749 465.717 340.741C460.627 339.097 447.948 336.601 441.175 340.909C425.517 350.881 446.519 419.029 460.213 456.541C460.427 457.129 459.919 456.973 459.625 456.409C457.354 451.969 439.585 404.569 435.016 373.213C434.308 368.401 430.607 345.685 441.268 339.661Z" fill="#2E2E2E"/>
<path d="M417.568 435.852C419.024 435.852 431.502 438.252 434.241 438.84C439.745 439.956 452.491 442.92 455.457 443.94C455.537 443.94 455.457 444.108 455.457 444.108C452.598 443.868 445.958 442.548 443.219 441.984C437.728 440.784 418.917 436.776 417.541 436.116C417.367 436.056 417.434 435.852 417.568 435.852Z" fill="#2E2E2E"/>
<path d="M443.633 337.896C448.603 335.496 454.535 335.052 460.066 335.664C465.899 336.456 471.562 338.047 476.859 340.38C488.122 345.012 498.836 350.652 510.112 355.26C521.388 359.868 533.292 363.408 545.65 363.744C556.204 364.044 569.578 362.376 576.378 353.844C586.839 340.644 580.746 318.024 580.626 316.56C580.626 316.452 580.787 316.452 580.813 316.56C588.936 344.424 578.489 355.248 571.461 359.76C565.877 363.36 557.834 364.284 552.517 364.68C540.226 365.616 527.908 362.916 516.525 358.836C504.848 354.66 493.893 349.044 482.711 343.896C472.023 338.976 459.999 333.888 447.788 336.696C446.399 337.006 445.037 337.407 443.713 337.896C443.713 337.896 443.553 337.932 443.633 337.896Z" fill="#2E2E2E"/>
<path d="M516.685 240.624C516.498 254.604 516.579 268.98 518.783 282.84C520.506 293.64 526.011 302.352 538.676 304.524C550.433 306.528 566.999 305.724 576.498 298.38C580.934 294.972 582.31 290.352 581.749 285.252C580.987 278.172 572.824 239.532 570.366 227.472C568.883 220.128 567.413 212.688 564.488 205.656C558.342 190.884 550.099 191.34 548.95 191.076C547.935 190.548 541.468 188.268 532.597 191.196C530.276 191.96 528.159 193.154 526.384 194.701C524.61 196.247 523.217 198.111 522.297 200.172C516.405 212.4 516.859 227.532 516.685 240.624Z" fill="#2E2E2E"/>
<path d="M551.622 193.056C561.749 196.824 564.581 206.472 567.413 215.1C571.341 227.1 575.055 239.172 578.101 251.4C579.571 257.268 580.893 263.172 582.016 269.112C583.084 274.788 584.688 280.836 584.487 286.62C584.233 296.22 574.734 300.912 565.382 302.64C565.336 302.65 565.288 302.652 565.24 302.646C565.193 302.639 565.148 302.624 565.107 302.602C565.066 302.58 565.03 302.55 565.002 302.516C564.973 302.481 564.953 302.442 564.942 302.4C564.93 302.358 564.928 302.315 564.935 302.272C564.943 302.23 564.959 302.189 564.984 302.152C565.009 302.115 565.041 302.083 565.08 302.058C565.118 302.032 565.162 302.014 565.209 302.004C570.553 300.804 575.897 299.292 579.758 295.56C584.648 290.76 583.766 284.76 582.871 278.892C581.348 268.788 579.183 258.78 576.632 248.892C574.08 239.004 571.114 229.092 567.988 219.288C565.008 209.964 562.577 197.616 551.568 193.236C551.555 193.233 551.543 193.227 551.532 193.22C551.521 193.212 551.512 193.203 551.505 193.193C551.498 193.182 551.494 193.17 551.492 193.158C551.49 193.146 551.491 193.134 551.495 193.122C551.498 193.11 551.504 193.099 551.513 193.089C551.521 193.08 551.531 193.071 551.543 193.065C551.555 193.059 551.568 193.055 551.581 193.054C551.595 193.052 551.608 193.053 551.622 193.056Z" fill="#2E2E2E"/>
<path d="M518.234 210.541C519.758 203.173 523.579 195.901 532.075 193.453C521.174 197.053 519.009 207.997 517.981 217.105C516.894 226.705 516.208 236.325 515.923 245.965C515.629 255.241 515.563 264.577 516.217 273.829C516.912 283.825 519.383 293.113 526.371 301.105C526.394 301.139 526.403 301.18 526.396 301.219C526.389 301.259 526.367 301.295 526.333 301.321C526.299 301.347 526.256 301.361 526.212 301.361C526.167 301.361 526.124 301.347 526.09 301.321C519.29 294.913 516.738 285.805 515.763 277.225C514.75 265.856 514.571 254.439 515.228 243.049C515.696 232.309 516.03 221.149 518.234 210.541Z" fill="#2E2E2E"/>
<path d="M541.855 254.28C526.545 271.2 505.583 287.184 496.805 286.92C489.725 286.716 447.374 263.868 444.354 260.4C441.776 257.412 461.722 234.336 465.85 235.92C472.784 238.584 497.42 256.896 499.518 256.608C501.615 256.32 518.876 249.576 536.057 242.316C552.49 235.368 552.503 242.532 541.855 254.28Z" fill="#B78876"/>
<path d="M449.043 263.569C445.65 261.841 430.833 252.769 427.333 249.349C423.833 245.929 414.574 235.633 417.179 232.969C419.785 230.305 422.764 233.137 422.764 233.137C422.764 233.137 419.624 228.217 422.51 225.745C425.396 223.273 429.885 227.821 429.885 227.821C429.885 227.821 427.066 222.553 430.139 220.285C433.211 218.017 436.819 223.249 436.819 223.249C436.819 223.249 434 218.545 437.406 217.621C441.521 216.529 445.636 225.733 449.791 229.201C450.74 229.981 470.232 243.901 470.232 243.901L449.043 263.569Z" fill="#B78876"/>
<path d="M436.552 222.805C439.598 229.573 442.23 232.069 448.723 236.269C448.843 236.353 448.723 236.533 448.603 236.461C441.829 232.861 438.022 230.173 436.178 222.925C436.084 222.565 436.405 222.493 436.552 222.805Z" fill="#2E2E2E"/>
<path d="M429.645 227.281C433.492 234.061 436.325 236.785 442.764 241.681C442.858 241.753 442.764 241.897 442.644 241.837C435.884 237.553 432.143 234.793 429.284 227.557C429.164 227.185 429.471 226.969 429.645 227.281Z" fill="#2E2E2E"/>
<path d="M423.099 233.375C427.347 239.699 430.313 242.807 437.234 246.791C437.252 246.799 437.268 246.811 437.28 246.825C437.293 246.838 437.303 246.854 437.309 246.872C437.315 246.889 437.317 246.907 437.314 246.925C437.312 246.943 437.305 246.96 437.295 246.976C437.285 246.991 437.272 247.005 437.256 247.016C437.239 247.027 437.221 247.034 437.201 247.038C437.182 247.042 437.162 247.043 437.142 247.04C437.122 247.036 437.103 247.029 437.087 247.019C429.592 243.575 425.864 239.735 422.898 233.507C422.698 233.087 422.831 232.979 423.099 233.375Z" fill="#2E2E2E"/>
<path d="M476.739 243.864C476.739 243.864 473.466 235.2 471.088 231.684C468.71 228.168 454.495 217.98 451.863 220.608C448.483 224.016 455.403 231.348 459.317 234.54C459.317 234.54 451.462 242.4 455.163 248.628C458.863 254.856 476.739 243.864 476.739 243.864Z" fill="#B78876"/>
<path d="M451.274 221.82C450.673 226.92 456.111 230.82 459.651 234.168C459.706 234.216 459.747 234.275 459.772 234.34C459.796 234.406 459.803 234.475 459.791 234.544C459.779 234.612 459.749 234.676 459.704 234.732C459.659 234.788 459.599 234.833 459.531 234.864C456.485 238.356 453.318 244.068 454.855 248.544C454.867 248.571 454.867 248.601 454.855 248.628C454.842 248.655 454.818 248.677 454.788 248.688C454.758 248.699 454.724 248.699 454.694 248.688C454.664 248.676 454.64 248.655 454.628 248.628C452.263 244.032 454.868 238.176 458.475 234.54C454.775 231.156 449.524 227.04 451.221 221.808C451.234 221.784 451.274 221.784 451.274 221.82Z" fill="#2E2E2E"/>
<path d="M480.119 243.133L453.8 272.401C453.8 272.401 488.763 289.273 497.888 287.737C507.013 286.201 518.262 279.097 540.92 255.769C558.863 237.301 544.675 237.145 533.479 242.185C524.341 246.301 501.134 255.709 499.291 254.977C497.447 254.245 480.119 243.133 480.119 243.133Z" fill="#FFD952"/>
<path d="M453.8 272.401C453.8 272.401 485.423 287.665 496.338 287.845C496.848 287.846 497.357 287.814 497.861 287.749C506.959 286.201 518.235 279.097 540.907 255.769C548.843 247.597 550.486 243.013 548.923 240.865C546.892 238.177 539.731 239.365 533.479 242.185C524.354 246.301 501.134 255.709 499.291 254.977C497.447 254.245 480.159 243.133 480.159 243.133L453.8 272.401Z" fill="#FFD952"/>
<path d="M485.716 248.857C482.149 253.393 478.355 257.785 474.454 262.057C472.543 264.181 470.633 266.293 468.629 268.345C466.625 270.397 464.327 272.497 462.256 274.645C462.163 274.741 461.989 274.645 462.082 274.525C464.06 272.329 465.877 270.001 467.801 267.769C469.724 265.537 471.581 263.521 473.492 261.397C477.38 257.089 481.308 252.781 485.356 248.581C485.376 248.559 485.4 248.542 485.428 248.529C485.456 248.516 485.486 248.509 485.517 248.507C485.548 248.504 485.579 248.508 485.609 248.516C485.639 248.525 485.666 248.539 485.69 248.557C485.713 248.575 485.733 248.597 485.747 248.622C485.761 248.647 485.77 248.674 485.772 248.702C485.775 248.73 485.771 248.758 485.761 248.784C485.752 248.811 485.737 248.835 485.716 248.857Z" fill="#2E2E2E"/>
<path d="M517.259 296.124L516.417 312C516.417 312 537.232 314.052 588.708 314.052C588.708 314.052 577.847 264.708 560.425 246.336C551.715 237.144 541 237.432 533.919 243.396C532.129 244.8 515.536 269.832 513.024 279.084C510.726 287.232 517.259 296.124 517.259 296.124Z" fill="#FFD952"/>
<path d="M537.34 248.533L533.065 260.401C531.649 264.401 530.313 268.401 529.057 272.401C527.881 276.409 526.385 280.441 527.293 284.401C528.067 288.445 529.754 292.305 532.25 295.741L532.357 295.897V296.065C532.196 298.849 531.929 301.633 531.729 304.465C531.528 307.297 531.221 310.033 530.914 312.865C530.914 310.065 530.914 307.265 530.914 304.465C530.994 301.669 531.007 298.873 531.141 296.065L531.234 296.389C528.585 292.835 526.767 288.834 525.89 284.629C525.498 282.494 525.561 280.311 526.078 278.197C526.558 276.133 527.173 274.105 527.828 272.089C529.164 268.069 530.687 264.121 532.25 260.185C533.813 256.249 535.563 252.397 537.34 248.533Z" fill="#2E2E2E"/>
<path d="M527.359 264.24C527.33 264.372 527.331 264.508 527.361 264.641C527.391 264.773 527.45 264.898 527.534 265.01C527.619 265.122 527.727 265.217 527.853 265.291C527.979 265.365 528.12 265.415 528.268 265.44C528.409 265.451 528.55 265.437 528.685 265.398C528.82 265.359 528.944 265.297 529.051 265.214C529.159 265.131 529.246 265.03 529.309 264.916C529.372 264.802 529.408 264.678 529.417 264.552C529.468 264.285 529.402 264.01 529.233 263.787C529.063 263.563 528.803 263.407 528.508 263.352C528.367 263.34 528.225 263.354 528.091 263.393C527.956 263.432 527.832 263.494 527.724 263.577C527.617 263.66 527.53 263.761 527.467 263.875C527.404 263.989 527.368 264.113 527.359 264.24Z" fill="#2E2E2E"/>
<path d="M523.258 275.857C523.21 276.123 523.278 276.396 523.447 276.619C523.616 276.842 523.873 276.999 524.167 277.057C524.309 277.07 524.452 277.057 524.588 277.019C524.724 276.981 524.851 276.919 524.959 276.836C525.068 276.753 525.157 276.651 525.22 276.536C525.284 276.422 525.321 276.297 525.329 276.169C525.384 275.902 525.319 275.626 525.149 275.401C524.979 275.176 524.717 275.021 524.421 274.969C524.279 274.957 524.136 274.971 524.001 275.01C523.866 275.048 523.74 275.111 523.632 275.194C523.524 275.276 523.435 275.378 523.371 275.491C523.307 275.605 523.268 275.729 523.258 275.857Z" fill="#2E2E2E"/>
<path d="M523.258 287.533C523.203 287.8 523.268 288.076 523.438 288.301C523.608 288.525 523.87 288.681 524.167 288.733C524.309 288.746 524.452 288.733 524.588 288.695C524.724 288.658 524.851 288.595 524.959 288.512C525.068 288.429 525.157 288.327 525.22 288.213C525.284 288.098 525.321 287.973 525.329 287.845C525.358 287.713 525.358 287.576 525.328 287.444C525.297 287.312 525.238 287.186 525.154 287.075C525.069 286.963 524.961 286.868 524.835 286.794C524.709 286.72 524.568 286.669 524.421 286.645C524.278 286.63 524.134 286.642 523.997 286.679C523.86 286.716 523.733 286.778 523.624 286.862C523.515 286.945 523.426 287.048 523.363 287.163C523.301 287.279 523.265 287.405 523.258 287.533Z" fill="#2E2E2E"/>
<path d="M527.36 297.025C527.329 297.157 527.328 297.294 527.357 297.427C527.387 297.56 527.445 297.686 527.53 297.798C527.615 297.91 527.724 298.006 527.851 298.079C527.978 298.152 528.12 298.202 528.268 298.225C528.409 298.238 528.552 298.225 528.688 298.187C528.823 298.149 528.948 298.086 529.056 298.003C529.163 297.92 529.251 297.818 529.313 297.703C529.375 297.589 529.411 297.464 529.417 297.337C529.446 297.204 529.446 297.068 529.416 296.936C529.386 296.803 529.327 296.678 529.242 296.566C529.158 296.455 529.049 296.359 528.923 296.285C528.797 296.212 528.656 296.161 528.509 296.137C528.368 296.125 528.226 296.139 528.091 296.178C527.957 296.217 527.832 296.279 527.725 296.362C527.618 296.445 527.53 296.546 527.467 296.66C527.405 296.774 527.368 296.898 527.36 297.025Z" fill="#2E2E2E"/>
<path d="M526.491 307.596C526.462 307.728 526.463 307.864 526.493 307.997C526.523 308.129 526.582 308.254 526.666 308.366C526.751 308.478 526.859 308.573 526.985 308.647C527.111 308.721 527.252 308.771 527.4 308.796C527.54 308.807 527.682 308.793 527.817 308.754C527.952 308.715 528.076 308.653 528.183 308.57C528.291 308.487 528.378 308.386 528.441 308.272C528.504 308.158 528.54 308.034 528.549 307.908C528.578 307.775 528.577 307.639 528.547 307.507C528.517 307.374 528.458 307.249 528.373 307.137C528.289 307.026 528.18 306.93 528.055 306.856C527.929 306.783 527.788 306.732 527.64 306.708C527.499 306.693 527.355 306.704 527.219 306.741C527.082 306.779 526.956 306.841 526.848 306.925C526.74 307.008 526.653 307.111 526.591 307.226C526.53 307.342 526.496 307.468 526.491 307.596Z" fill="#2E2E2E"/>
<path d="M523.619 258.301C521.868 260.953 520.238 263.665 518.635 266.389C519.036 265.105 519.504 263.833 519.971 262.573C519.971 262.477 519.838 262.417 519.784 262.513C518.97 264.032 518.403 265.649 518.101 267.313C517.58 268.201 517.059 269.077 516.551 269.965C515.562 271.753 514.547 273.565 513.759 275.377C512.969 277.244 512.518 279.213 512.423 281.209C512.423 281.305 512.61 281.329 512.623 281.209C512.996 279.191 513.699 277.234 514.707 275.401C515.603 273.565 516.605 271.801 517.58 269.965C519.677 266.113 521.748 262.249 523.712 258.349L523.619 258.301Z" fill="#2E2E2E"/>
<path d="M561.668 248.868C572.944 266.4 592.85 302.448 586.183 312.468C579.517 322.488 542.015 328.8 529.19 330.888C524.954 331.56 509.711 304.488 513.906 302.856C521.027 300.024 554.881 294.456 555.963 292.452C556.631 291.156 550.004 267.528 549.216 253.644C548.201 235.584 558.167 243.42 561.668 248.868Z" fill="#B78876"/>
<path d="M517.607 301.729C517.607 301.729 504.247 303.397 495.643 304.849C490.82 305.665 482.684 307.717 479.451 309.769C474.601 312.841 456.511 328.465 460.64 332.485C464.367 336.085 478.008 320.929 478.008 320.929C478.008 320.929 462.737 335.173 468.121 338.809C473.505 342.445 486.384 323.449 486.384 323.449C486.384 323.449 471.06 338.389 477.273 341.353C481.976 343.597 494.721 326.953 494.721 326.953C494.721 326.953 481.642 339.889 486.371 342.373C491.581 345.133 504.42 330.445 504.42 330.445C517.607 334.957 525.957 332.257 531.635 329.713C533.064 329.101 517.607 301.729 517.607 301.729Z" fill="#B78876"/>
<path d="M482.937 315.696C481.08 317.316 479.183 318.936 477.486 320.7C475.79 322.464 474.16 324.3 472.663 326.16C470.635 328.595 468.927 331.233 467.573 334.02C470.379 329.22 476.351 322.86 478.047 321.096C479.744 319.332 481.334 317.496 483.017 315.756C483.057 315.708 482.991 315.66 482.937 315.696Z" fill="#2E2E2E"/>
<path d="M490.125 321.083C487.841 323.243 485.489 325.307 483.325 327.551C481.161 329.795 479.317 332.075 477.34 334.427C477.18 334.619 477.34 334.631 477.5 334.427C479.598 332.135 481.722 330.167 483.846 327.899C485.97 325.631 487.974 323.291 490.179 321.107C490.219 321.095 490.152 321.047 490.125 321.083Z" fill="#2E2E2E"/>
<path d="M497.206 324.708C493.624 327.938 490.419 331.488 487.64 335.304C487.507 335.496 487.707 335.496 487.868 335.304C490.967 331.704 493.385 328.908 497.326 324.828C497.393 324.768 497.286 324.648 497.206 324.708Z" fill="#2E2E2E"/>
<path d="M516.404 301.2L543.445 331.2C543.445 331.2 582.59 323.136 588.161 311.148C593.732 299.16 574.801 265.452 564.42 251.496C554.039 237.54 547.373 237.888 548.589 253.896C549.684 268.212 555.589 291.24 554.975 292.02C554.36 292.8 516.404 301.2 516.404 301.2Z" fill="#FFD952"/>
<path d="M526.625 300.6C530.833 304.656 534.841 308.904 538.742 313.2C540.653 315.312 542.563 317.436 544.394 319.608C546.224 321.78 548.041 324.24 549.951 326.496C550.045 326.604 549.871 326.724 549.791 326.628C547.8 324.444 545.636 322.368 543.605 320.22C541.575 318.072 539.731 316.02 537.821 313.92C533.906 309.612 530.018 305.28 526.278 300.864C526.239 300.822 526.219 300.769 526.224 300.715C526.229 300.661 526.258 300.611 526.304 300.576C526.35 300.541 526.41 300.524 526.47 300.528C526.53 300.533 526.586 300.558 526.625 300.6Z" fill="#2E2E2E"/>
<path d="M516.324 301.2C519.343 300.984 555.242 292.716 555.282 292.704C555.322 292.692 553.545 282.468 553.157 280.536C552.396 276.6 551.541 272.664 550.592 268.752C550.592 268.668 550.392 268.668 550.405 268.752C550.619 271.152 550.913 273.552 551.26 275.88C550.86 274.86 550.432 273.828 549.924 272.832C549.924 272.736 549.724 272.832 549.751 272.832C550.352 274.848 551.087 276.84 551.715 278.832C551.808 279.348 551.862 279.876 551.955 280.404C552.316 282.384 552.703 284.364 553.131 286.32C553.331 287.292 554.159 291.048 554.36 292.056C549.59 292.896 519.036 299.988 516.257 300.948C516.177 300.996 516.217 301.2 516.324 301.2Z" fill="#2E2E2E"/>
<path d="M588.107 311.317C587.63 312.258 586.994 313.128 586.224 313.897C586.117 313.981 586.224 314.005 586.384 313.897C587.264 313.241 587.887 312.349 588.161 311.353C588.161 311.317 588.134 311.257 588.107 311.317Z" fill="#2E2E2E"/>
<path d="M549.671 241.764C549.457 242.964 543.739 251.208 537.647 251.364C535.656 251.364 534.868 241.632 534.868 241.632L534.627 240.924L531.261 230.976L543.833 222.456L545.663 221.316C545.663 221.316 546.384 224.088 547.253 227.556C547.253 227.712 547.333 227.868 547.373 228.048C547.413 228.228 547.48 228.42 547.52 228.612L547.921 230.172C548.014 230.58 548.108 230.964 548.188 231.372C548.268 231.78 548.375 232.212 548.468 232.572C549.101 235.608 549.503 238.679 549.671 241.764Z" fill="#B78876"/>
<path d="M547.213 227.568C546.313 230.485 544.718 233.192 542.538 235.5C540.358 237.808 537.645 239.663 534.587 240.936L531.221 230.988L543.792 222.468L545.623 221.328C545.623 221.328 546.344 224.1 547.213 227.568Z" fill="#2E2E2E"/>
<path d="M514.908 214.344C512.37 232.44 524.153 235.836 528.495 236.328C532.436 236.772 545.93 237.816 550.539 220.056C555.148 202.296 546.531 195.516 537.607 194.076C528.682 192.636 517.433 196.236 514.908 214.344Z" fill="#B78876"/>
<path d="M519.036 209.568C519.517 209.568 519.971 209.496 520.452 209.46C520.951 209.482 521.444 209.356 521.855 209.1C521.969 208.998 522.041 208.864 522.06 208.721C522.08 208.577 522.045 208.432 521.962 208.308C521.76 208.085 521.495 207.914 521.193 207.815C520.892 207.715 520.567 207.691 520.252 207.744C519.595 207.758 518.967 207.989 518.488 208.392C518.384 208.49 518.315 208.613 518.287 208.746C518.26 208.879 518.276 209.016 518.334 209.141C518.393 209.266 518.49 209.373 518.614 209.449C518.739 209.524 518.886 209.566 519.036 209.568Z" fill="#2E2E2E"/>
<path d="M532.397 211.199C531.942 211.091 531.495 210.954 531.061 210.791C530.547 210.716 530.077 210.488 529.725 210.143C529.643 210.018 529.611 209.872 529.633 209.729C529.654 209.585 529.729 209.452 529.845 209.351C530.098 209.176 530.401 209.067 530.719 209.035C531.037 209.003 531.358 209.05 531.648 209.171C532.285 209.319 532.835 209.68 533.185 210.179C533.253 210.293 533.285 210.42 533.277 210.549C533.269 210.677 533.221 210.801 533.14 210.907C533.058 211.012 532.945 211.096 532.814 211.147C532.683 211.199 532.538 211.217 532.397 211.199Z" fill="#2E2E2E"/>
<path d="M528.723 215.461C528.723 215.461 528.816 215.533 528.816 215.581C528.562 216.781 528.522 218.257 529.698 218.833C529.698 218.833 529.698 218.917 529.698 218.905C528.188 218.509 528.268 216.589 528.723 215.461Z" fill="#2E2E2E"/>
<path d="M530.165 214.333C532.396 214.465 531.928 218.485 529.844 218.353C527.76 218.221 528.281 214.213 530.165 214.333Z" fill="#2E2E2E"/>
<path d="M531.02 214.62C531.381 214.884 531.715 215.328 532.183 215.412C532.65 215.496 533.171 215.136 533.585 214.764H533.652C533.572 215.544 533.145 216.3 532.223 216.324C531.301 216.348 530.887 215.604 530.726 214.812C530.7 214.716 530.873 214.524 531.02 214.62Z" fill="#2E2E2E"/>
<path d="M521.041 214.404C521.041 214.404 520.92 214.404 520.92 214.5C520.827 215.7 520.493 217.164 519.184 217.464V217.536C520.8 217.476 521.228 215.592 521.041 214.404Z" fill="#2E2E2E"/>
<path d="M519.998 212.988C517.794 212.64 517.166 216.588 519.223 216.96C521.281 217.332 521.855 213.288 519.998 212.988Z" fill="#2E2E2E"/>
<path d="M519.036 213.144C518.649 213.312 518.234 213.648 517.82 213.624C517.406 213.6 517.032 213.108 516.792 212.664C516.792 212.664 516.725 212.664 516.711 212.664C516.565 213.42 516.711 214.248 517.526 214.5C518.341 214.752 518.862 214.14 519.21 213.408C519.277 213.3 519.183 213.072 519.036 213.144Z" fill="#2E2E2E"/>
<path d="M527.413 225.371C527.052 225.647 526.705 226.031 526.197 226.043C525.681 226.009 525.18 225.874 524.728 225.647C524.728 225.647 524.634 225.647 524.661 225.707C524.84 225.965 525.094 226.174 525.395 226.311C525.697 226.448 526.034 226.509 526.371 226.487C526.658 226.436 526.921 226.309 527.128 226.123C527.335 225.938 527.476 225.701 527.533 225.443C527.536 225.43 527.533 225.416 527.527 225.404C527.521 225.392 527.511 225.381 527.499 225.373C527.486 225.366 527.471 225.362 527.456 225.361C527.441 225.361 527.426 225.364 527.413 225.371Z" fill="#2E2E2E"/>
<path d="M522.229 220.273C521.964 221.163 521.75 222.064 521.588 222.973C521.588 223.057 521.802 223.117 522.136 223.177C522.953 223.401 523.824 223.42 524.653 223.232C525.482 223.044 526.237 222.655 526.838 222.109C526.919 222.025 526.838 221.929 526.705 221.965C525.368 222.596 523.84 222.819 522.349 222.601C522.349 222.349 523.365 219.505 523.218 219.481C522.453 219.463 521.69 219.536 520.947 219.697C521.922 215.869 523.619 212.221 524.5 208.393C524.5 208.261 524.313 208.189 524.26 208.309C522.346 212.166 520.869 216.187 519.851 220.309C519.704 220.801 521.815 220.381 522.229 220.273Z" fill="#2E2E2E"/>
<path d="M522.376 222.96C522.833 223.705 523.496 224.333 524.3 224.784C524.742 225.02 525.258 225.121 525.769 225.072C526.892 224.976 527.105 224.088 526.999 223.296C526.955 222.888 526.861 222.485 526.718 222.096C525.411 222.793 523.889 223.096 522.376 222.96Z" fill="#2E2E2E"/>
<path d="M524.3 224.784C524.742 225.021 525.258 225.122 525.769 225.072C526.892 224.976 527.105 224.088 526.999 223.296C526.428 223.237 525.852 223.352 525.363 223.622C524.874 223.891 524.499 224.301 524.3 224.784Z" fill="#FF9ABB"/>
<path d="M549.898 219.073C546.104 219.589 544.941 211.801 544.941 211.801C544.941 211.801 528.709 209.665 527.039 197.869C525.122 202.726 521.193 206.732 516.07 209.053C516.07 209.053 516.311 196.081 527.68 193.321C527.68 193.321 541.762 188.389 550.005 198.349C558.248 208.309 552.436 218.737 549.898 219.073Z" fill="#2E2E2E"/>
<path d="M526.959 197.004C526.809 198.83 527.101 200.664 527.814 202.38C528.499 204.133 529.582 205.739 530.994 207.096C531.343 207.434 531.714 207.754 532.103 208.056L532.677 208.512C532.878 208.656 533.091 208.788 533.305 208.92C533.733 209.172 534.147 209.448 534.574 209.688L535.91 210.324L536.592 210.624L537.313 210.852L538.743 211.308C539.731 211.536 540.72 211.716 541.708 211.884C540.773 211.536 539.811 211.284 538.903 210.936L537.567 210.372L536.899 210.096L536.258 209.76L534.988 209.076C534.588 208.836 534.2 208.56 533.813 208.296L533.225 207.9L532.69 207.456C532.32 207.169 531.972 206.861 531.648 206.532C530.314 205.246 529.234 203.764 528.455 202.152C528.057 201.34 527.731 200.502 527.48 199.644C527.22 198.779 527.046 197.896 526.959 197.004Z" fill="#2E2E2E"/>
<path d="M547.146 219.432C547.146 219.432 551.808 213.9 554.627 215.412C557.446 216.924 553.759 225.012 550.325 226.08C549.897 226.237 549.437 226.314 548.974 226.307C548.511 226.299 548.055 226.207 547.633 226.037C547.21 225.866 546.831 225.62 546.518 225.314C546.204 225.008 545.963 224.648 545.81 224.256L547.146 219.432Z" fill="#B78876"/>
<path d="M553.505 217.729C553.505 217.729 553.572 217.789 553.505 217.801C551.1 218.581 549.777 220.513 548.815 222.529C548.96 222.32 549.154 222.142 549.383 222.008C549.612 221.873 549.871 221.785 550.142 221.75C550.413 221.715 550.689 221.733 550.952 221.803C551.214 221.873 551.456 221.994 551.661 222.157C551.728 222.157 551.661 222.277 551.594 222.265C551.182 222.135 550.736 222.122 550.316 222.227C549.896 222.333 549.521 222.551 549.243 222.853C548.784 223.359 548.389 223.911 548.067 224.497C547.947 224.689 547.56 224.569 547.653 224.353C547.76 221.593 550.258 217.885 553.505 217.729Z" fill="#2E2E2E"/>
<path d="M534.467 240.612L537.5 249.012L549.524 239.412L552.476 242.916C552.476 242.916 540.199 258.624 540.185 257.88L536.979 250.62L531.221 255.18L532.557 242.94L534.467 240.612Z" fill="#FFD952"/>
<path d="M531.541 249.047C531.835 247.031 532.076 244.991 532.476 243.047C532.476 242.975 532.623 242.951 532.637 243.047C532.944 245.027 531.742 252.719 531.608 254.579C531.848 254.387 536.952 250.595 536.952 250.655C537.687 251.855 540.038 257.111 540.185 257.579C542.136 255.083 550.312 245.279 552.556 242.939C552.623 242.939 552.743 242.939 552.69 243.023C550.94 245.675 540.359 258.623 540.225 258.623C538.955 256.123 537.836 253.564 536.872 250.955C534.983 252.695 532.965 254.319 530.833 255.815C530.93 253.549 531.167 251.29 531.541 249.047Z" fill="#2E2E2E"/>
<path d="M499.45 198.276C501.235 195.891 502.197 193.086 502.216 190.212C502.216 180.012 489.751 171.744 474.373 171.744C458.996 171.744 446.531 180.012 446.531 190.212C446.531 200.412 458.983 208.692 474.373 208.692C481.208 208.79 487.912 207.006 493.585 203.58L503.178 205.776L499.45 198.276Z" fill="white"/>
<path d="M499.45 198.277C501.096 195.998 502.02 193.359 502.122 190.645C502.146 187.959 501.326 185.322 499.757 183.037C496.451 178.546 491.466 175.264 485.702 173.785C480.019 172.176 473.986 171.83 468.121 172.777C462.25 173.593 456.796 176 452.49 179.677C450.407 181.512 448.849 183.772 447.947 186.265C447.063 188.754 447.021 191.422 447.827 193.933C448.686 196.438 450.208 198.719 452.262 200.581C454.334 202.464 456.746 204.018 459.397 205.177C462.063 206.341 464.895 207.169 467.813 207.637C470.735 208.142 473.713 208.332 476.684 208.201C482.662 208.011 488.466 206.351 493.465 203.401L493.585 203.329H493.718L503.284 205.645L503.097 205.849L499.45 198.277ZM499.45 198.277L503.324 205.717L503.458 205.981L503.137 205.909L493.505 203.845H493.759C488.713 206.981 482.798 208.801 476.671 209.101C470.539 209.508 464.394 208.495 458.822 206.161C456.03 204.961 453.49 203.337 451.314 201.361C449.094 199.377 447.451 196.933 446.531 194.245C445.635 191.523 445.663 188.624 446.611 185.917C447.583 183.245 449.266 180.827 451.514 178.873C456.018 175.045 461.721 172.553 467.854 171.733C473.9 170.766 480.12 171.178 485.943 172.933C488.846 173.796 491.581 175.059 494.052 176.677C496.544 178.27 498.638 180.314 500.198 182.677C501.754 185.05 502.511 187.777 502.378 190.528C502.246 193.279 501.229 195.937 499.45 198.181V198.277Z" fill="#B9B9B9"/>
<path d="M464.354 190.213C464.354 190.726 464.184 191.227 463.867 191.653C463.55 192.079 463.099 192.412 462.572 192.608C462.045 192.804 461.465 192.855 460.905 192.755C460.345 192.655 459.831 192.408 459.427 192.046C459.024 191.683 458.749 191.222 458.637 190.719C458.526 190.216 458.583 189.695 458.802 189.221C459.02 188.748 459.39 188.343 459.865 188.058C460.339 187.773 460.897 187.621 461.468 187.621C462.233 187.621 462.967 187.894 463.508 188.38C464.05 188.866 464.354 189.526 464.354 190.213Z" fill="#B9B9B9"/>
<path d="M477.259 190.213C477.259 190.726 477.09 191.227 476.772 191.653C476.455 192.079 476.005 192.412 475.477 192.608C474.95 192.804 474.37 192.855 473.81 192.755C473.25 192.655 472.736 192.408 472.333 192.046C471.929 191.683 471.654 191.222 471.543 190.719C471.431 190.216 471.489 189.695 471.707 189.221C471.925 188.748 472.295 188.343 472.77 188.058C473.244 187.773 473.802 187.621 474.373 187.621C475.138 187.621 475.872 187.894 476.414 188.38C476.955 188.866 477.259 189.526 477.259 190.213Z" fill="#B9B9B9"/>
<path d="M490.165 190.213C490.165 190.726 489.996 191.227 489.679 191.653C489.362 192.079 488.911 192.412 488.384 192.608C487.856 192.804 487.276 192.855 486.716 192.755C486.157 192.655 485.642 192.408 485.239 192.046C484.835 191.683 484.56 191.222 484.449 190.719C484.338 190.216 484.395 189.695 484.613 189.221C484.832 188.748 485.202 188.343 485.676 188.058C486.151 187.773 486.709 187.621 487.279 187.621C487.658 187.621 488.034 187.688 488.384 187.818C488.734 187.949 489.052 188.14 489.32 188.38C489.588 188.621 489.8 188.907 489.945 189.221C490.09 189.536 490.165 189.873 490.165 190.213Z" fill="#B9B9B9"/>
</svg>
