<svg width="500" height="459" viewBox="0 0 500 459" fill="none" xmlns="http://www.w3.org/2000/svg">
<g clip-path="url(#clip0_8047_10492)">
<path d="M500 0H0V458.333H500V0Z" fill="white"/>
<path d="M307.605 322.305C271.973 284.262 213.767 265.41 160.141 274.543C145.067 277.109 130.223 281.809 117.656 289.898C105.089 297.986 94.9175 309.676 90.8925 323.306C85.4425 341.761 92.4185 362.837 108.117 375.348C119.301 384.262 133.838 388.684 148.199 391.936C176.543 398.352 205.88 401.032 235.039 399.867C252.236 399.179 269.684 397.081 285.32 390.447C299.755 384.322 313.283 373.109 320.548 359.912C328.01 346.353 317.154 332.5 307.605 322.305Z" fill="#EFFBF9"/>
<path d="M372.201 301.258C378.761 291.657 386.679 282.601 396.94 276.33C407.201 270.059 420.073 266.815 432.062 269.397C444.051 271.98 454.621 281.106 456.266 292.351C457.483 300.672 453.98 308.93 450.047 316.504C440.808 334.296 428.223 351.36 410 361.707C395.503 369.937 364.767 378.417 356.474 358.655C348.854 340.497 362.019 316.162 372.201 301.258Z" fill="#EFFBF9"/>
<path d="M195.37 36.3423C218.437 35.3248 241.728 35.9051 264.678 37.0078C294.579 38.4443 324.672 40.7075 353.472 48.2508C385.823 56.7235 418.128 72.6323 437.8 98.5299C457.187 124.052 469.086 163.439 455.918 193.405C446.959 213.792 427.247 228.287 407.658 240.856C388.07 253.426 367.215 265.548 353.867 283.784C351.336 287.241 349.061 290.934 345.737 293.765C342.413 296.596 337.704 298.471 333.339 297.368C329.993 296.522 327.414 294.113 325.109 291.723C316.931 283.245 309.919 273.69 300.381 266.52C282.446 253.039 258.201 249.757 235.253 246.973C209.394 243.836 183.536 240.695 157.676 237.563C137.263 235.089 113.145 232.165 94.2483 224.534C63.9793 212.31 42.9883 183.772 39.1883 153.52C34.6273 117.213 53.4893 72.3967 90.8623 56.9838C123.7 43.441 159.26 37.9346 195.37 36.3423Z" fill="#FBFAFF"/>
<path d="M298.333 405.85H279.924C277.092 405.85 274.795 403.735 274.795 401.124V287.361C274.795 284.751 272.499 282.635 269.666 282.635H196.67" stroke="#F7F5FF" stroke-miterlimit="10" stroke-linecap="round" stroke-linejoin="round"/>
<path d="M303.843 390.621H285.434C282.602 390.621 280.305 388.506 280.305 385.895V277.67C280.305 275.06 278.009 272.943 275.176 272.943H202.18" stroke="#F7F5FF" stroke-miterlimit="10" stroke-linecap="round" stroke-linejoin="round"/>
<path d="M297.833 371.701H273.593C271.228 371.701 269.31 369.934 269.31 367.755V290.822C269.31 288.212 267.014 286.096 264.181 286.096H174.637" stroke="#F7F5FF" stroke-miterlimit="10" stroke-linecap="round" stroke-linejoin="round"/>
<path d="M215.354 412.97L233.25 294.722C233.284 294.333 233.896 294.313 233.96 294.699L253.47 412.97" stroke="#B3F36A" stroke-width="2" stroke-miterlimit="10" stroke-linecap="round" stroke-linejoin="round"/>
<path d="M119.285 412.075L139.554 334.928L170.398 412.075" stroke="#B3F36A" stroke-width="2" stroke-miterlimit="10" stroke-linecap="round" stroke-linejoin="round"/>
<path d="M74.3284 302.306C74.1294 301.802 73.9154 301.305 73.7344 300.791C73.9154 301.305 74.1144 301.809 74.3284 302.306Z" fill="#EFFBF9"/>
<path d="M80.685 260.822C83.036 265.911 85.654 270.886 88.233 275.878C90.965 281.166 93.748 286.364 97.199 291.296C104.308 301.457 113.301 310.45 123.277 318.273C134.026 326.704 146.384 333.225 159.036 338.899C159.14 338.946 159.246 338.989 159.35 339.036C156.724 339.128 154.096 339.142 151.476 339.064C146.234 338.908 141.028 338.31 135.866 337.45C140.456 338.554 145.106 339.381 149.973 339.526C157.952 339.765 166.001 339.228 173.838 337.813C181.613 336.409 189.445 334.134 196.078 330.042C199.082 328.188 201.831 325.919 203.936 323.198C205.067 321.735 205.985 320.159 206.695 318.506C206.647 318.327 206.617 318.146 206.564 317.968C202.732 305.083 190.518 303.405 179.58 297.683C168.042 291.647 158.169 282.897 151.277 272.444C144.884 262.748 141.129 251.883 136.019 241.618C131.251 232.041 125.061 227.102 114.142 223.584C106.042 220.974 97.095 219.184 88.963 221.707C81.713 223.957 76.354 229.311 72.918 235.718C73.494 244.386 77.083 253.025 80.685 260.822Z" fill="#D4F8AC"/>
<path d="M195.707 282.869C195.765 277.826 195.607 273.24 197.024 268.221C198.9 261.574 204.463 257.944 211.401 255.895C212.925 255.445 214.602 255.122 216.103 255.635C217.838 256.226 218.945 257.803 219.62 259.389C221.802 264.523 220.666 270.284 219.501 275.691C216.893 287.799 214.284 299.906 211.676 312.013C211.526 312.711 211.308 313.497 210.628 313.832C210.106 314.09 209.471 313.996 208.891 313.89C203.031 312.814 197.311 311.092 191.891 308.775C194.167 309.748 195.694 283.998 195.707 282.869Z" fill="#AD6359"/>
<path d="M209.932 354.37C214.27 353.244 216.441 352.888 220.634 351.361C220.641 368.948 223.322 398.604 223.234 403.665C217.848 404.226 213.634 406.058 208.186 406.113C203.914 400.016 202.172 382.761 199.758 376.091C199.2 374.549 196.766 366.849 194.047 358.085C199.379 356.984 204.673 355.735 209.932 354.37Z" fill="#AD6359"/>
<path d="M199.966 319.087C206.174 320.405 212.546 321.01 218.841 321.866C222.157 322.317 228.937 324.055 232.065 321.919C236.021 319.219 229.541 317.642 226.609 316.131C221.56 313.53 216.439 311.052 211.349 308.522C206.648 306.184 200.611 301.202 195.815 306.022C192.731 309.122 192.378 314.068 192.027 318.044C194.718 318.131 197.323 318.526 199.966 319.087Z" fill="#2E2E2E"/>
<path d="M99.5407 298.463C102.412 290.111 115.406 288.196 123.428 288.789C140.119 290.022 156.861 290.399 173.461 291.65C186.983 292.669 201.701 295.364 210.999 305.299C218.598 313.418 219.824 324.591 221.975 334.766C225.959 353.606 227.073 371.271 226.609 390.359C226.598 390.808 226.576 391.289 226.287 391.65C225.909 392.122 225.208 392.236 224.578 392.314C216.641 393.293 208.703 394.272 200.766 395.251C200.295 395.308 199.783 395.359 199.376 395.133C198.931 394.886 198.75 394.383 198.605 393.923C197.366 389.993 180.994 329.87 182.149 329.701C168.442 331.704 157.603 331.123 143.769 330.099C133.993 329.376 124.046 327.82 115.516 323.358C107.272 319.044 96.2197 308.127 99.5407 298.463Z" fill="#2E2E2E"/>
<path d="M95.5613 295.194C96.5463 296.555 96.4703 297.794 96.9623 298.535C99.4733 298.503 101.99 298.539 104.501 298.575C111.081 298.667 117.721 298.754 124.195 297.501C129.825 296.411 135.424 294.83 140.848 293.075C149.222 290.364 157.075 288.453 156.459 279.002C155.685 266.822 154.087 251.475 157.818 239.595C159.324 234.8 160.141 231.226 162.396 226.686C163.016 225.439 163.638 224.153 163.726 222.784C163.789 221.806 163.576 220.831 163.321 219.878C159.155 204.289 145.011 204.1 130.005 202.878C127.681 202.688 125.326 202.5 123.027 202.862C120.191 203.309 116.881 204.08 114.414 205.443C101.262 212.714 100.372 224.93 96.4123 237.549C94.4353 243.852 91.3363 249.818 89.3523 256.12C85.1183 269.577 87.0813 283.474 95.5613 295.194Z" fill="#4E34FE"/>
<path d="M226.925 403.484C228.539 404.315 230.954 404.812 232.684 405.293C237.156 406.534 241.79 407.234 246.201 408.668C248.514 409.42 250.723 412.085 248.207 413.974C247.111 414.797 245.63 415.006 244.225 415.155C233.034 416.347 221.721 415.766 210.473 415.185C209.861 415.154 209.19 415.099 208.755 414.701C208.508 414.475 208.373 414.168 208.248 413.867C206.88 410.565 205.939 406.876 205.076 403.501C206.584 403.162 208.179 403.742 209.694 403.848C211.66 403.984 213.809 404.128 215.601 403.218C218.022 401.989 220.247 400.432 222.183 398.615C222.364 398.445 222.549 398.269 222.787 398.18C223.57 397.888 224.338 398.669 224.603 399.408C225.119 400.849 225.146 402.463 226.626 403.323C226.724 403.378 226.823 403.432 226.925 403.484Z" fill="#2E2E2E"/>
<path d="M195.232 279.526C195.098 277.814 195.241 276.225 196.977 275.623C199.372 274.792 200.181 275.966 201.712 273.679C204.66 269.273 206.755 263.767 208.751 258.938C211.156 253.117 215.69 245.521 215.452 239.267C215.44 238.941 215.411 238.598 215.204 238.335C214.963 238.028 214.54 237.903 214.143 237.807C210.606 236.954 206.891 237.041 203.243 237.257C179.195 238.682 165.77 262.709 154.395 279.164C152.68 281.645 142.687 293.589 140.062 293.397C149.253 294.067 156.33 298.357 164.831 300.724C170.049 302.176 175.789 306.464 180.671 307.079C182.249 307.278 188.687 296.373 189.626 294.945C192.088 291.202 195.562 286.933 195.486 282.395C195.471 281.503 195.307 280.495 195.232 279.526Z" fill="#2E2E2E"/>
<path d="M223.896 281.612C223.351 285.339 222.728 288.927 221.716 292.567C221.628 292.885 221.532 293.215 221.292 293.457C220.911 293.841 220.278 293.897 219.713 293.867C218.521 293.806 217.366 293.485 216.194 293.278C208.894 291.99 196.753 296.514 191.135 290.243C190.006 288.983 189.647 287.295 189.41 285.676C187.694 273.978 191.751 262.549 191.578 250.797C191.486 244.519 194.016 240.732 197.478 235.61C200.799 230.697 205.471 229.028 211.461 230.901C221.554 234.056 227.327 243.91 226.854 253.275C226.376 262.724 225.273 272.203 223.896 281.612Z" fill="#2E2E2E"/>
<path d="M129.958 190.752C129.86 191.885 132.434 194.475 133.221 195.292C134.469 196.587 135.923 197.589 137.677 198.226C142.248 199.887 147.038 200.04 150.621 196.568C152.322 194.92 153.478 192.861 154.446 190.769C155.921 187.582 157.98 178.793 157.046 175.436C156.198 172.39 152.653 175.044 149.426 174.022C146.618 173.132 144.481 172.336 141.477 172.817C138.807 173.245 136.233 174.468 134.555 176.464C134.103 177.003 133.694 177.548 133.319 178.093C132.431 179.831 131.613 181.602 131.022 183.447C130.529 184.985 130.362 186.545 130.096 188.102C130.077 188.988 130.034 189.872 129.958 190.752Z" fill="#AD6359"/>
<path d="M128.055 211.009C130.711 212.724 133.994 213.858 137.224 214.098C137.845 214.145 145.734 213.333 144.604 211.959C141.644 208.358 143.261 205.151 145.117 201.238C145.402 200.638 147.888 196.942 147.631 196.526C147.558 196.407 147.468 196.297 147.354 196.196C146.759 195.672 145.837 195.686 145.014 195.678C141.934 195.646 139.052 194.751 136.55 193.106C135.36 192.324 134.287 191.402 133.265 190.442C132.68 189.892 131.606 187.977 130.712 187.909C130.627 187.902 130.562 187.943 130.492 187.971C129.442 191.852 128.927 195.247 126.818 198.959C125.185 201.833 121.153 203.256 120.01 203.448C121.814 206.398 125.017 209.047 128.055 211.009Z" fill="#AD6359"/>
<path d="M136.911 184.919C136.992 184.322 137.071 183.594 137.667 183.349C138.273 183.098 138.927 183.551 139.576 183.685C141.65 184.112 143.562 182.039 144.748 180.723C144.989 180.457 145.226 180.209 145.465 179.982C146.821 178.693 148.217 178.068 150.523 178.242C152.8 178.414 155.08 179.138 157.322 178.735C159.808 178.288 161.882 176.375 162.464 174.103C163.407 170.425 160.131 165.527 155.613 166.218C154.394 166.404 153.075 166.972 152.004 166.406C151.402 166.088 151.061 165.487 150.647 164.972C149.056 162.997 145.939 162.213 143.48 163.171C142.832 163.423 142.231 163.781 141.559 163.972C140.272 164.338 138.89 164.058 137.546 163.991C135.956 163.913 134.294 164.162 132.984 164.996C131.674 165.83 130.796 167.33 131.08 168.774C131.163 169.198 131.342 169.619 131.282 170.047C131.073 171.552 128.474 171.611 127.697 172.949C126.953 174.232 128.312 175.811 127.928 177.223C127.699 178.062 126.877 178.715 126.782 179.577C126.665 180.644 127.729 181.391 128.187 182.28C128.694 183.263 129.169 184.55 129.273 185.628C129.487 187.849 128.028 190.237 131.593 189.959C134.525 189.728 136.551 187.576 136.911 184.919Z" fill="#2E2E2E"/>
<path d="M181.959 242.24C183.366 243.795 184.518 245.396 188.566 245.151C193.707 244.838 198.71 242.432 201.646 238.484C202.462 237.387 203.133 236.165 203.327 234.847C204.495 226.914 194.804 221.773 188.619 218.563C181.53 214.884 173.862 212.297 166.134 210.019C159.279 207.996 152.117 204.486 144.736 205.029C144.544 205.043 144.344 205.076 144.152 205.123C144.231 206.003 144.28 206.885 144.288 207.767C147.661 212.656 149.756 218.453 151.118 224.089C151.999 227.733 153.964 231.938 153.564 235.697C161.727 236.731 169.843 238.085 177.88 239.757C179.973 240.191 181.022 241.205 181.959 242.24Z" fill="#4E34FE"/>
<path d="M194.265 225.448C191.138 225.773 188.517 227.932 186.999 230.472C185.481 233.012 184.881 235.918 184.302 238.768C182.648 246.914 182.109 256.36 179.145 264.169C177.304 269.02 170.14 275.713 173.683 281.248C174.722 282.87 176.917 283.788 178.926 283.439C182.483 282.823 184.141 279.15 185.653 276.121C187.603 272.214 190.497 269.209 193.08 265.779C196.311 261.489 198.651 256.227 200.99 251.488C203.99 245.412 206.647 238.487 204.198 232.206C202.698 228.36 198.691 225.001 194.265 225.448Z" fill="#AD6359"/>
<mask id="mask0_8047_10492" style="mask-type:luminance" maskUnits="userSpaceOnUse" x="110" y="187" width="45" height="46">
<path d="M154.634 218.876C154.662 218.748 154.673 218.619 154.691 218.49C153.777 215.463 149.073 215.513 146.429 214.24C145.895 213.983 145.44 213.661 145.045 213.298C144.993 213.249 144.94 213.202 144.89 213.152C144.06 212.322 143.554 211.269 143.357 210.077C142.553 205.203 145.284 200.808 147.631 196.526C147.558 196.407 147.468 196.297 147.353 196.196C146.758 195.672 145.836 195.686 145.013 195.678C141.934 195.646 139.051 194.751 136.549 193.106C135.359 192.324 134.286 191.402 133.264 190.442C132.679 189.892 131.605 187.977 130.711 187.909C130.626 187.902 130.561 187.943 130.491 187.971C129.44 191.852 129.354 195.481 126.817 198.958C125.857 200.274 124.723 201.443 123.376 202.302C122.67 202.926 121.81 203.382 120.627 203.567C120.328 203.614 120.022 203.636 119.712 203.643C119.587 203.66 119.47 203.69 119.342 203.702C119.192 203.716 119.072 203.682 118.965 203.632C117.058 203.555 115.09 203.14 113.623 204.171C112.932 204.658 112.502 205.392 112.165 206.131C109.679 211.581 111.426 218.678 114.568 223.581C116.962 227.316 121.165 230.772 125.738 231.946C130.091 233.063 134.634 232.12 138.775 230.731C140.591 230.122 142.317 229.518 143.975 228.816C148.963 226.705 153.267 224.353 154.573 219.141C154.593 219.053 154.615 218.965 154.634 218.876Z" fill="white"/>
</mask>
<g mask="url(#mask0_8047_10492)">
<path d="M138.089 197.78C138.207 197.839 138.347 197.892 138.496 197.943C141.091 198.926 143.947 199.529 146.681 199.161C147.366 199.431 147.139 199.947 146.794 200.878C146.311 202.184 145.875 203.506 145.489 204.84C142.965 202.464 140.442 200.087 137.918 197.711C137.975 197.735 138.032 197.758 138.089 197.78Z" fill="#2E2E2E"/>
</g>
<path d="M98.5548 214.337C93.3868 219.781 91.2658 227.121 89.5098 233.996C87.2398 242.883 84.9688 251.769 82.6978 260.655C82.1648 262.741 81.6288 264.844 81.5638 266.987C81.4588 270.425 82.5288 274.799 83.4038 278.11C84.5278 282.36 87.2868 282.098 91.3948 281.722C97.8908 281.127 106.729 279.316 111.115 274.434C113.2 272.114 113.87 269.012 114.47 266.051C115.296 261.98 116.122 257.908 116.948 253.836C120.323 237.199 123.696 220.038 119.878 203.482C110.78 204.728 103.869 208.74 98.5548 214.337Z" fill="#4E34FE"/>
<path d="M120.058 230.854C112.548 232.656 113.222 241.511 112.541 246.973C111.536 255.041 109.866 263.039 107.549 270.873" stroke="#2E2E2E" stroke-miterlimit="10" stroke-linecap="round" stroke-linejoin="round"/>
<path d="M199.828 250.33C196.955 261.745 190.377 279.082 190.254 290.8" stroke="#2E2E2E" stroke-width="0.5" stroke-miterlimit="10" stroke-linecap="round" stroke-linejoin="round"/>
<path d="M146.193 191.561C146.642 192.635 147.631 193.42 148.709 193.561C149.788 193.701 150.919 193.191 151.59 192.264" fill="white"/>
<path d="M76.6484 288.32C97.4454 283.969 115.07 280.79 133.787 288.905C145.976 294.189 154.202 304.031 156.509 314.504C158.817 324.977 155.106 332.314 145.09 336.929" stroke="#EEEBFE" stroke-width="4" stroke-miterlimit="10" stroke-linecap="round" stroke-linejoin="round"/>
<path d="M185.743 331.098C185.174 327.127 185.048 322.206 184.479 318.234" stroke="#2E2E2E" stroke-width="0.5" stroke-miterlimit="10" stroke-linecap="round" stroke-linejoin="round"/>
<path d="M190.548 294.641C177.16 292.765 168.545 294.408 151.309 294.408" stroke="#2E2E2E" stroke-width="0.5" stroke-miterlimit="10" stroke-linecap="round" stroke-linejoin="round"/>
<path d="M132.873 184.495C132.873 186.513 134.649 188.149 136.839 188.149C139.03 188.149 140.805 186.513 140.805 184.495C140.805 182.476 139.029 180.84 136.839 180.84C134.648 180.84 132.873 182.476 132.873 184.495Z" fill="#AD6359"/>
<path d="M160.281 339.391C160.177 339.344 159.141 338.946 159.037 338.9C146.385 333.226 134.027 326.704 123.278 318.274C113.302 310.45 104.309 301.458 97.2003 291.296C93.7493 286.364 90.9663 281.166 88.2343 275.878C85.6553 270.886 83.0363 265.91 80.6863 260.823C77.0843 253.025 73.4943 244.387 72.9193 235.719C70.9983 239.3 69.6703 243.206 68.9653 247.093C65.9143 263.918 68.0003 284.526 73.7343 300.793C73.9153 301.307 74.1293 301.804 74.3283 302.308C78.1513 311.988 85.8623 320.632 100.294 328.173C125.892 341.546 146.191 339.544 151.433 339.701C154.054 339.777 157.655 339.483 160.281 339.391Z" fill="#B3F36A"/>
<path d="M109.339 263.531C113.366 264.342 117.318 265.529 121.271 266.63C127.548 268.38 133.908 269.39 140.284 270.953C142.096 271.398 143.935 271.832 145.81 271.847C149.033 271.876 152.146 270.674 155.369 270.609C159.679 270.522 163.889 272.738 166.231 276.036C170.175 281.59 163.638 280.103 159.524 280.048C156.316 280.005 153.108 279.962 149.9 279.918C137.288 279.749 125.362 280.338 112.71 281.318C105.837 281.851 93.854 283.335 87.74 279.577C84.769 277.751 79.872 268.864 82.599 266.207C83.11 265.709 83.816 265.429 84.507 265.176C90.694 262.907 97.392 262.079 104.038 262.724C105.824 262.897 107.589 263.179 109.339 263.531Z" fill="#AD6359"/>
<path d="M71.8176 262.061C72.0296 264.432 72.4496 266.803 72.8596 269.101C73.3826 272.036 73.9086 274.973 74.6936 277.858C75.3806 280.385 76.3026 282.933 78.0926 284.95C81.0326 288.262 86.3816 289.548 90.7626 288.216C94.2126 287.166 93.7366 286.034 92.2666 283.399C89.2176 277.934 86.0496 272.217 83.4306 266.533C80.7766 260.772 78.3336 255.318 76.1576 249.394C75.6986 248.144 75.2396 246.893 74.8426 245.625C74.2516 243.736 73.7986 241.809 73.4896 239.863C73.7646 241.594 73.1956 243.791 73.0096 245.531C72.7986 247.511 72.5426 249.487 72.2416 251.457C71.7036 254.974 71.4986 258.499 71.8176 262.061Z" fill="#D4F8AC"/>
<path d="M52.6777 412.97L71.4387 294.722C71.4737 294.333 72.1157 294.313 72.1827 294.699L92.6347 412.97" stroke="#B3F36A" stroke-width="2" stroke-miterlimit="10" stroke-linecap="round" stroke-linejoin="round"/>
<path d="M245.763 290.992H59.916V296.241H245.763V290.992Z" fill="#D4F8AC"/>
<path d="M138.701 183.966C138.464 182.649 136.507 181.913 135.338 182.701" stroke="#2E2E2E" stroke-width="0.5" stroke-miterlimit="10" stroke-linecap="round" stroke-linejoin="round"/>
<path d="M200.429 291.229H116.781C115.939 291.229 115.256 290.603 115.256 289.832V288.996C115.256 288.224 115.939 287.598 116.781 287.598H200.429C201.271 287.598 201.954 288.224 201.954 288.996V289.832C201.954 290.604 201.271 291.229 200.429 291.229Z" fill="#454545"/>
<path d="M202.226 291.229H128.139L134.586 252.227C134.81 250.873 136.065 249.863 137.522 249.863H205.737C207.498 249.863 208.823 251.317 208.553 252.953L202.226 291.229Z" fill="#454545"/>
<path d="M170.629 269.219L173.843 271.681" stroke="#DCD7FE" stroke-miterlimit="10" stroke-linecap="round" stroke-linejoin="round"/>
<path d="M166.406 269.219L169.619 271.681" stroke="#DCD7FE" stroke-miterlimit="10" stroke-linecap="round" stroke-linejoin="round"/>
<path d="M180.62 235.934C180.419 238.485 181.898 241.787 183.15 243.403" stroke="#2E2E2E" stroke-miterlimit="10" stroke-linecap="round" stroke-linejoin="round"/>
<path d="M349.749 167.581C348.771 167.843 347.836 168.187 346.954 168.607C347.016 168.668 347.082 168.722 347.138 168.79C347.994 169.834 347.769 171.32 346.635 172.108C345.501 172.896 343.889 172.689 343.033 171.645C342.973 171.571 342.93 171.491 342.88 171.413C342.181 172.084 341.554 172.816 341.007 173.597C341.099 173.622 341.192 173.64 341.282 173.675C342.59 174.185 343.201 175.576 342.648 176.781C342.094 177.987 340.585 178.549 339.278 178.04C339.175 177.999 339.085 177.945 338.992 177.895C338.749 178.793 338.599 179.722 338.551 180.671C338.655 180.646 338.756 180.617 338.865 180.605C340.275 180.444 341.558 181.366 341.733 182.665C341.907 183.964 340.906 185.148 339.497 185.308C339.373 185.322 339.252 185.318 339.131 185.315C339.416 186.237 339.797 187.118 340.261 187.949C340.346 187.87 340.43 187.789 340.529 187.721C341.662 186.932 343.275 187.139 344.131 188.184C344.987 189.228 344.762 190.714 343.628 191.503C343.52 191.578 343.405 191.636 343.289 191.693C344.033 192.353 344.845 192.947 345.715 193.461C345.747 193.345 345.779 193.229 345.831 193.116C346.385 191.911 347.894 191.348 349.201 191.858C350.509 192.368 351.12 193.758 350.567 194.963C350.511 195.085 350.439 195.195 350.365 195.303C351.36 195.531 352.39 195.669 353.441 195.71C353.404 195.591 353.368 195.471 353.351 195.345C353.177 194.046 354.178 192.863 355.587 192.702C356.996 192.541 358.28 193.464 358.455 194.762C358.473 194.895 358.471 195.026 358.465 195.154C359.476 194.884 360.44 194.524 361.349 194.085C361.252 193.999 361.156 193.912 361.073 193.81C360.217 192.766 360.442 191.28 361.576 190.492C362.709 189.703 364.322 189.911 365.178 190.955C365.262 191.057 365.327 191.166 365.39 191.276C366.103 190.587 366.741 189.834 367.293 189.029C367.171 188.999 367.048 188.971 366.928 188.925C365.62 188.415 365.009 187.025 365.563 185.819C366.116 184.614 367.625 184.051 368.933 184.561C369.052 184.608 369.159 184.668 369.266 184.73C369.504 183.821 369.646 182.883 369.686 181.925C369.575 181.952 369.465 181.983 369.347 181.996C367.938 182.156 366.654 181.234 366.479 179.935C366.305 178.636 367.306 177.453 368.715 177.293C368.83 177.28 368.942 177.284 369.055 177.285C368.763 176.374 368.379 175.505 367.911 174.685C367.836 174.751 367.767 174.82 367.682 174.88C366.549 175.668 364.936 175.461 364.08 174.417C363.224 173.373 363.449 171.887 364.582 171.098C364.665 171.04 364.756 170.999 364.844 170.951C364.112 170.311 363.314 169.737 362.462 169.239C362.435 169.321 362.417 169.404 362.379 169.485C361.826 170.69 360.316 171.254 359.009 170.743C357.701 170.233 357.09 168.843 357.643 167.637C357.681 167.555 357.734 167.483 357.78 167.406C356.815 167.191 355.818 167.061 354.801 167.02C354.82 167.098 354.848 167.174 354.859 167.255C355.033 168.554 354.032 169.737 352.623 169.898C351.214 170.058 349.93 169.136 349.755 167.837C349.744 167.752 349.75 167.667 349.749 167.581ZM352.817 171.785C358.56 171.13 363.793 174.89 364.504 180.182C365.215 185.475 361.135 190.296 355.392 190.951C349.648 191.606 344.416 187.846 343.705 182.554C342.994 177.261 347.074 172.44 352.817 171.785Z" fill="#DCD7FE"/>
<path d="M352.707 192.942C359.634 193.657 365.901 189.044 366.677 182.662C367.453 176.278 362.449 170.504 355.522 169.788C348.595 169.073 342.328 173.684 341.552 180.067C340.775 186.451 345.78 192.227 352.707 192.942ZM346.138 180.623C346.652 176.79 350.65 174.005 355.048 174.414C359.446 174.823 362.606 178.274 362.091 182.107C361.576 185.94 357.58 188.725 353.182 188.317C348.783 187.907 345.623 184.456 346.138 180.623Z" fill="#DCD7FE"/>
<path d="M265.457 189.278C264.66 189.497 263.898 189.785 263.18 190.138C263.23 190.19 263.285 190.235 263.33 190.293C264.031 191.176 263.851 192.429 262.929 193.092C262.007 193.754 260.691 193.576 259.99 192.693C259.941 192.631 259.905 192.563 259.865 192.497C259.297 193.061 258.787 193.677 258.344 194.335C258.419 194.356 258.495 194.371 258.568 194.402C259.636 194.835 260.138 196.009 259.69 197.025C259.242 198.041 258.013 198.512 256.944 198.079C256.86 198.045 256.787 198 256.71 197.956C256.514 198.715 256.395 199.497 256.357 200.297C256.441 200.277 256.524 200.252 256.612 200.242C257.761 200.11 258.811 200.891 258.957 201.987C259.103 203.083 258.29 204.079 257.141 204.212C257.04 204.224 256.942 204.219 256.843 204.217C257.078 204.996 257.391 205.74 257.772 206.441C257.841 206.374 257.909 206.307 257.99 206.249C258.912 205.586 260.228 205.765 260.929 206.647C261.63 207.531 261.45 208.783 260.528 209.446C260.44 209.509 260.346 209.558 260.252 209.605C260.861 210.166 261.524 210.668 262.236 211.103C262.262 211.005 262.287 210.908 262.329 210.813C262.777 209.797 264.007 209.325 265.074 209.759C266.142 210.192 266.644 211.366 266.196 212.382C266.151 212.485 266.092 212.578 266.032 212.669C266.845 212.863 267.684 212.982 268.542 213.019C268.511 212.918 268.482 212.817 268.467 212.71C268.321 211.614 269.135 210.618 270.284 210.485C271.433 210.353 272.483 211.134 272.629 212.231C272.644 212.343 272.642 212.453 272.638 212.562C273.462 212.336 274.248 212.035 274.988 211.666C274.909 211.594 274.83 211.519 274.762 211.433C274.061 210.551 274.241 209.297 275.163 208.635C276.085 207.972 277.401 208.151 278.102 209.033C278.171 209.12 278.224 209.212 278.276 209.306C278.856 208.725 279.374 208.091 279.822 207.414C279.722 207.389 279.622 207.365 279.524 207.325C278.456 206.891 277.954 205.717 278.402 204.701C278.85 203.686 280.079 203.214 281.148 203.647C281.245 203.687 281.333 203.739 281.42 203.79C281.611 203.025 281.725 202.234 281.755 201.425C281.664 201.447 281.575 201.473 281.479 201.484C280.33 201.617 279.28 200.835 279.134 199.738C278.988 198.642 279.802 197.647 280.951 197.514C281.045 197.503 281.136 197.507 281.228 197.508C280.988 196.739 280.672 196.005 280.288 195.312C280.227 195.368 280.171 195.426 280.102 195.476C279.18 196.139 277.864 195.96 277.163 195.077C276.462 194.194 276.642 192.941 277.564 192.279C277.632 192.23 277.705 192.195 277.777 192.156C277.178 191.614 276.526 191.128 275.829 190.706C275.807 190.775 275.792 190.845 275.762 190.913C275.314 191.928 274.084 192.4 273.017 191.967C271.949 191.533 271.447 190.359 271.895 189.343C271.926 189.274 271.969 189.213 272.006 189.149C271.218 188.965 270.405 188.853 269.575 188.816C269.591 188.882 269.614 188.947 269.623 189.015C269.769 190.112 268.956 191.107 267.807 191.239C266.658 191.371 265.608 190.59 265.462 189.495C265.453 189.423 265.458 189.352 265.457 189.278ZM267.971 192.833C272.654 192.293 276.931 195.478 277.526 199.945C278.12 204.412 274.806 208.471 270.123 209.01C265.44 209.55 261.163 206.365 260.568 201.898C259.974 197.431 263.288 193.372 267.971 192.833Z" fill="#DCD7FE"/>
<path d="M268.073 209.505C273.042 210.049 277.524 206.641 278.066 201.907C278.607 197.175 275.005 192.881 270.037 192.336C265.068 191.792 260.585 195.2 260.044 199.933C259.502 204.666 263.104 208.96 268.073 209.505ZM262.663 200.287C263.065 197.111 266.259 194.812 269.784 195.162C273.309 195.511 275.849 198.377 275.447 201.553C275.045 204.728 271.851 207.027 268.326 206.678C264.801 206.329 262.26 203.462 262.663 200.287Z" fill="#DCD7FE"/>
<path d="M302.446 165.794C300.725 166.254 299.08 166.861 297.528 167.602C297.637 167.708 297.754 167.804 297.852 167.923C299.358 169.761 298.962 172.376 296.968 173.764C294.974 175.151 292.136 174.787 290.631 172.949C290.525 172.819 290.45 172.678 290.362 172.542C289.132 173.722 288.028 175.008 287.067 176.383C287.228 176.427 287.392 176.459 287.55 176.522C289.851 177.419 290.927 179.866 289.953 181.987C288.979 184.107 286.324 185.099 284.023 184.201C283.842 184.13 283.684 184.035 283.519 183.947C283.091 185.528 282.828 187.161 282.742 188.83C282.924 188.787 283.102 188.736 283.294 188.714C285.774 188.431 288.033 190.055 288.34 192.34C288.647 194.625 286.885 196.707 284.405 196.99C284.188 197.015 283.975 197.007 283.762 197.003C284.264 198.626 284.933 200.175 285.751 201.637C285.901 201.497 286.048 201.356 286.222 201.234C288.216 199.846 291.054 200.211 292.559 202.049C294.065 203.887 293.669 206.501 291.675 207.889C291.485 208.021 291.282 208.123 291.079 208.223C292.388 209.386 293.817 210.43 295.348 211.334C295.404 211.131 295.46 210.926 295.552 210.727C296.526 208.607 299.181 207.615 301.483 208.513C303.784 209.411 304.86 211.858 303.886 213.979C303.787 214.193 303.661 214.387 303.53 214.578C305.282 214.979 307.093 215.223 308.943 215.294C308.877 215.084 308.814 214.873 308.784 214.65C308.477 212.365 310.239 210.284 312.719 210.001C315.199 209.718 317.458 211.341 317.765 213.627C317.796 213.86 317.792 214.089 317.782 214.316C319.562 213.841 321.258 213.208 322.857 212.435C322.687 212.284 322.518 212.131 322.371 211.952C320.865 210.114 321.261 207.5 323.255 206.112C325.249 204.724 328.087 205.089 329.592 206.927C329.74 207.107 329.854 207.3 329.966 207.493C331.221 206.279 332.343 204.954 333.315 203.537C333.1 203.486 332.884 203.436 332.673 203.354C330.372 202.456 329.296 200.01 330.27 197.888C331.244 195.768 333.899 194.776 336.2 195.674C336.41 195.755 336.598 195.863 336.787 195.97C337.205 194.372 337.456 192.721 337.525 191.035C337.329 191.083 337.136 191.137 336.929 191.16C334.449 191.443 332.19 189.82 331.883 187.535C331.576 185.249 333.338 183.168 335.818 182.884C336.02 182.861 336.217 182.87 336.416 182.871C335.903 181.268 335.226 179.738 334.403 178.296C334.272 178.413 334.15 178.536 334.001 178.639C332.007 180.027 329.169 179.662 327.663 177.824C326.157 175.986 326.553 173.372 328.547 171.984C328.694 171.882 328.853 171.809 329.007 171.727C327.718 170.6 326.314 169.591 324.815 168.714C324.768 168.858 324.735 169.004 324.67 169.146C323.696 171.267 321.041 172.258 318.739 171.36C316.438 170.463 315.362 168.016 316.336 165.895C316.403 165.75 316.495 165.624 316.577 165.489C314.878 165.109 313.125 164.88 311.336 164.809C311.37 164.947 311.419 165.079 311.438 165.223C311.745 167.508 309.984 169.59 307.503 169.873C305.023 170.156 302.764 168.533 302.457 166.248C302.437 166.095 302.449 165.945 302.446 165.794ZM308.004 174.368C317.405 173.296 325.969 179.45 327.133 188.112C328.297 196.775 321.619 204.667 312.218 205.74C302.817 206.812 294.253 200.659 293.089 191.995C291.925 183.333 298.603 175.441 308.004 174.368Z" fill="#DCD7FE"/>
<path d="M307.794 209.239C319.276 210.424 329.663 202.779 330.949 192.199C332.235 181.619 323.941 172.047 312.459 170.861C300.977 169.676 290.589 177.319 289.303 187.9C288.017 198.48 296.312 208.053 307.794 209.239ZM296.138 188.605C297.002 181.498 303.981 176.362 311.694 177.159C319.408 177.956 324.98 184.386 324.116 191.494C323.252 198.602 316.274 203.738 308.56 202.941C300.846 202.145 295.273 195.713 296.138 188.605Z" stroke="#2E2E2E" stroke-miterlimit="10" stroke-linecap="round" stroke-linejoin="round"/>
<path d="M213.324 61.2766C215.475 58.9822 219.236 58.7282 221.726 60.7101C224.216 62.6919 224.491 66.1578 222.341 68.4523" stroke="#2E2E2E" stroke-miterlimit="10" stroke-linecap="round" stroke-linejoin="round"/>
<path d="M230.215 89.0143C233.357 89.0143 235.903 86.6676 235.903 83.7728C235.903 80.878 233.357 78.5312 230.215 78.5312C227.074 78.5312 224.527 80.878 224.527 83.7728C224.527 86.6676 227.074 89.0143 230.215 89.0143Z" stroke="#2E2E2E" stroke-miterlimit="10" stroke-linecap="round" stroke-linejoin="round"/>
<path d="M377.315 102.09C377.194 94.5558 384.261 88.7349 392.006 89.0768C394.699 89.1951 397.169 90.0173 399.242 91.3236C402.468 87.9255 407.282 85.8639 412.557 86.0958C419.794 86.4148 426.799 90.9248 427.384 97.1105C434.47 98.975 439.811 105.028 439.444 112.104C439.217 116.476 436.976 120.32 433.587 122.91C434.444 125.154 434.362 127.791 432.8 130.419C431.963 131.827 430.641 132.969 429.064 133.653C426.177 134.906 423.451 134.842 421.153 134.016L420.97 146.229C420.959 146.962 419.934 147.25 419.481 146.647L412.548 137.426C406.087 139.863 400.29 136.208 399.858 130.8C398.141 131.587 396.196 132.003 394.144 131.913C388.219 131.651 383.55 127.354 383.095 122.044C379.857 123.82 375.631 124.197 371.435 122.261C369.11 121.189 367.283 119.33 366.363 117.088C363.115 109.175 369.412 101.979 377.315 102.09Z" fill="#A79AFE"/>
<path d="M425.039 117.039C428.86 117.208 432.048 119.422 433.415 122.479" stroke="#2E2E2E" stroke-miterlimit="10" stroke-linecap="round" stroke-linejoin="round"/>
<path d="M383.184 121.148C383.491 115.224 388.951 110.652 395.379 110.934" stroke="#2E2E2E" stroke-miterlimit="10" stroke-linecap="round" stroke-linejoin="round"/>
<path d="M376.32 102.101C378.777 101.951 381.069 102.493 383 103.53" stroke="#2E2E2E" stroke-miterlimit="10" stroke-linecap="round" stroke-linejoin="round"/>
<path d="M389.555 93.8691C394.718 94.0965 398.704 98.1381 398.457 102.896" stroke="#2E2E2E" stroke-miterlimit="10" stroke-linecap="round" stroke-linejoin="round"/>
<path d="M397.753 126.658C393.199 127.056 389.157 123.977 388.725 119.779" stroke="#2E2E2E" stroke-miterlimit="10" stroke-linecap="round" stroke-linejoin="round"/>
<path d="M371.681 115.481C370.332 111.896 372.392 107.983 376.282 106.74" stroke="#2E2E2E" stroke-miterlimit="10" stroke-linecap="round" stroke-linejoin="round"/>
<path d="M428.61 125.549C427.646 128.288 424.456 129.787 421.484 128.9" stroke="#2E2E2E" stroke-miterlimit="10" stroke-linecap="round" stroke-linejoin="round"/>
<path d="M415.004 99.2189C418.438 97.0409 422.76 96.2452 427.168 97.0721" stroke="#2E2E2E" stroke-miterlimit="10" stroke-linecap="round" stroke-linejoin="round"/>
<path d="M429.816 103.688C432.121 105.261 433.633 107.769 433.684 110.616" stroke="#2E2E2E" stroke-miterlimit="10" stroke-linecap="round" stroke-linejoin="round"/>
<path d="M404.811 106.982C407.687 106.451 410.853 107.715 412.4 110.012C413.947 112.309 413.771 115.485 411.977 117.624" stroke="#2E2E2E" stroke-miterlimit="10" stroke-linecap="round" stroke-linejoin="round"/>
<path d="M403.843 120.029C402.84 120.87 402.329 122.182 402.523 123.418C402.717 124.655 403.612 125.779 404.833 126.322" stroke="#2E2E2E" stroke-miterlimit="10" stroke-linecap="round" stroke-linejoin="round"/>
<path d="M330.507 62.041L330.94 100.729L322.143 100.773L321.711 62.085L330.507 62.041Z" fill="#F7F5FF"/>
<path d="M310.955 68.4375L311.317 100.827L302.52 100.871L302.158 68.4806L310.955 68.4375Z" fill="#DCD7FE"/>
<path d="M282.59 73.3457L282.898 100.967L291.695 100.923L291.386 73.3457H282.59Z" fill="#F7F5FF"/>
<path d="M273.306 86.168L273.472 101.013L264.676 101.056L264.51 86.211L273.306 86.168Z" fill="#DCD7FE"/>
<path d="M338.278 100.742L260.99 101.183" stroke="#454545" stroke-miterlimit="10" stroke-linecap="round" stroke-linejoin="round"/>
<path d="M303.82 70.7988V79.6135" stroke="#2E2E2E" stroke-miterlimit="10" stroke-linecap="round" stroke-linejoin="round"/>
<path d="M323.74 84.4707V95.6055" stroke="#2E2E2E" stroke-miterlimit="10" stroke-linecap="round" stroke-linejoin="round"/>
<path d="M265.801 90.2715V93.9556" stroke="#2E2E2E" stroke-miterlimit="10" stroke-linecap="round" stroke-linejoin="round"/>
<path d="M284.396 83.2969C284.396 83.823 284.396 84.3492 284.396 84.8754" stroke="#2E2E2E" stroke-miterlimit="10" stroke-linecap="round" stroke-linejoin="round"/>
<path d="M158.776 236.479C158.888 235.039 158.777 233.584 158.447 232.172" stroke="#2E2E2E" stroke-miterlimit="10" stroke-linecap="round" stroke-linejoin="round"/>
<path d="M374.269 133.932L354.342 152.294H275.185L250.602 175.331" stroke="#EEEBFE" stroke-miterlimit="10" stroke-linecap="round" stroke-linejoin="round"/>
<path d="M374.899 141.834L357.146 158.194H287.167L260.068 183.165" stroke="#EEEBFE" stroke-miterlimit="10" stroke-linecap="round" stroke-linejoin="round"/>
<path d="M355.912 107.445H234.332" stroke="#EEEBFE" stroke-miterlimit="10" stroke-linecap="round" stroke-linejoin="round"/>
<path d="M352.288 124.807H254.748L234.197 143.744" stroke="#EEEBFE" stroke-miterlimit="10" stroke-linecap="round" stroke-linejoin="round"/>
<path d="M317.267 135.713L306.397 145.728H256.883L242.994 158.527" stroke="#EEEBFE" stroke-miterlimit="10" stroke-linecap="round" stroke-linejoin="round"/>
<path d="M262.195 135.268H302.29" stroke="#EEEBFE" stroke-miterlimit="10" stroke-linecap="round" stroke-linejoin="round"/>
<path d="M339.97 115.682H269.924" stroke="#EEEBFE" stroke-miterlimit="10" stroke-linecap="round" stroke-linejoin="round"/>
<path d="M325.961 139.719H351.564" stroke="#EEEBFE" stroke-miterlimit="10" stroke-linecap="round" stroke-linejoin="round"/>
<path d="M358.793 107.223C358.793 108.63 357.543 109.839 355.911 109.839C354.28 109.839 353.029 108.63 353.029 107.223C353.029 105.817 354.28 104.607 355.911 104.607C357.543 104.607 358.793 105.817 358.793 107.223Z" fill="#EEEBFE" stroke="#EEEBFE"/>
<path d="M237.213 107.223C237.213 108.63 235.962 109.839 234.331 109.839C232.7 109.839 231.449 108.63 231.449 107.223C231.449 105.817 232.7 104.607 234.331 104.607C235.962 104.607 237.213 105.817 237.213 107.223Z" fill="#EEEBFE" stroke="#EEEBFE"/>
<path d="M353.481 140.165C353.481 141.571 352.23 142.78 350.599 142.78C348.968 142.78 347.717 141.571 347.717 140.165C347.717 138.758 348.968 137.549 350.599 137.549C352.23 137.549 353.481 138.758 353.481 140.165Z" fill="#EEEBFE" stroke="#EEEBFE"/>
<path d="M305.172 135.268C305.172 136.675 303.921 137.884 302.29 137.884C300.659 137.884 299.408 136.675 299.408 135.268C299.408 133.861 300.659 132.652 302.29 132.652C303.921 132.652 305.172 133.861 305.172 135.268Z" fill="#EEEBFE" stroke="#EEEBFE"/>
<path d="M318.698 135.268C318.698 136.675 317.447 137.884 315.816 137.884C314.184 137.884 312.934 136.675 312.934 135.268C312.934 133.861 314.184 132.652 315.816 132.652C317.447 132.652 318.698 133.861 318.698 135.268Z" fill="#EEEBFE" stroke="#EEEBFE"/>
<path d="M267.01 134.823C267.01 136.23 265.759 137.439 264.128 137.439C262.497 137.439 261.246 136.23 261.246 134.823C261.246 133.416 262.497 132.207 264.128 132.207C265.759 132.207 267.01 133.416 267.01 134.823Z" fill="#EEEBFE" stroke="#EEEBFE"/>
<path d="M251.568 171.381L251.568 171.381C253.199 171.38 254.45 172.59 254.45 173.997C254.45 175.403 253.199 176.612 251.568 176.612C249.936 176.612 248.686 175.403 248.686 173.997C248.686 172.59 249.936 171.381 251.568 171.381Z" fill="#EEEBFE" stroke="#EEEBFE"/>
<path d="M263.155 183.063C263.155 184.47 261.904 185.679 260.274 185.679C258.643 185.679 257.393 184.47 257.393 183.063C257.393 181.656 258.643 180.447 260.274 180.447C261.904 180.447 263.155 181.656 263.155 183.063Z" fill="#EEEBFE" stroke="#EEEBFE"/>
<path d="M247.203 156.635C247.203 158.042 245.953 159.251 244.321 159.251C242.69 159.251 241.439 158.042 241.439 156.635C241.439 155.228 242.69 154.02 244.321 154.02C245.953 154.02 247.203 155.228 247.203 156.635Z" fill="#EEEBFE" stroke="#EEEBFE"/>
<path d="M331.741 140.165C331.741 141.571 330.49 142.78 328.859 142.78C327.228 142.78 325.977 141.571 325.977 140.165C325.977 138.758 327.228 137.549 328.859 137.549C330.49 137.549 331.741 138.758 331.741 140.165Z" fill="#EEEBFE" stroke="#EEEBFE"/>
<path d="M355.17 124.807C355.17 126.214 353.919 127.423 352.288 127.423C350.657 127.423 349.406 126.214 349.406 124.807C349.406 123.4 350.657 122.191 352.288 122.191C353.919 122.191 355.17 123.4 355.17 124.807Z" fill="#EEEBFE" stroke="#EEEBFE"/>
<path d="M377.78 141.835C377.78 143.241 376.529 144.45 374.898 144.45C373.267 144.45 372.016 143.241 372.016 141.835C372.016 140.428 373.266 139.219 374.898 139.219C376.529 139.219 377.78 140.428 377.78 141.835Z" fill="#EEEBFE" stroke="#EEEBFE"/>
<path d="M374.027 131.094L374.027 131.094C375.658 131.093 376.909 132.302 376.909 133.71C376.909 135.116 375.658 136.325 374.027 136.325C372.396 136.325 371.145 135.116 371.145 133.71C371.145 132.303 372.395 131.094 374.027 131.094Z" fill="#EEEBFE" stroke="#EEEBFE"/>
<path d="M342.852 115.682C342.852 117.089 341.601 118.298 339.97 118.298C338.339 118.298 337.088 117.089 337.088 115.682C337.088 114.275 338.339 113.066 339.97 113.066C341.601 113.066 342.852 114.275 342.852 115.682Z" fill="#EEEBFE" stroke="#EEEBFE"/>
<path d="M272.807 115.682C272.807 117.089 271.556 118.298 269.925 118.298C268.294 118.298 267.043 117.089 267.043 115.682C267.043 114.275 268.294 113.066 269.925 113.066C271.556 113.066 272.807 114.275 272.807 115.682Z" fill="#EEEBFE" stroke="#EEEBFE"/>
<path d="M238.508 142.836C238.508 144.243 237.257 145.452 235.626 145.452C233.995 145.452 232.744 144.243 232.744 142.836C232.744 141.43 233.995 140.221 235.626 140.221C237.257 140.221 238.508 141.43 238.508 142.836Z" fill="#EEEBFE" stroke="#EEEBFE"/>
<path d="M77.582 108.377C77.582 109.323 78.414 110.091 79.441 110.091H115.211C116.238 110.091 117.07 109.323 117.07 108.377C117.07 107.431 116.238 106.664 115.211 106.664H79.441C78.414 106.664 77.582 107.431 77.582 108.377Z" fill="#FBFAFF"/>
<path d="M134.582 106.664H123.15C122.123 106.664 121.291 107.431 121.291 108.377C121.291 109.323 122.123 110.091 123.15 110.091H134.582C135.609 110.091 136.441 109.323 136.441 108.377C136.44 107.431 135.608 106.664 134.582 106.664Z" fill="#FBFAFF"/>
<path d="M123.158 115.098H90.6168C89.5898 115.098 88.7578 115.865 88.7578 116.811C88.7578 117.757 89.5898 118.524 90.6168 118.524H123.159C124.186 118.524 125.018 117.757 125.018 116.811C125.017 115.864 124.185 115.098 123.158 115.098Z" fill="#FBFAFF"/>
<path d="M128.166 116.809C128.166 117.755 128.998 118.522 130.025 118.522H136.954C137.981 118.522 138.813 117.755 138.813 116.809C138.813 115.863 137.981 115.096 136.954 115.096H130.025C128.998 115.097 128.166 115.863 128.166 116.809Z" fill="#FBFAFF"/>
<path d="M83.537 115.098H79.441C78.414 115.098 77.582 115.865 77.582 116.811C77.582 117.757 78.414 118.524 79.441 118.524H83.537C84.564 118.524 85.396 117.757 85.396 116.811C85.395 115.864 84.563 115.098 83.537 115.098Z" fill="#FBFAFF"/>
<path d="M71.3497 115.098H54.9547C53.9277 115.098 53.0957 115.865 53.0957 116.811C53.0957 117.757 53.9277 118.524 54.9547 118.524H71.3497C71.9667 118.524 72.4677 118.063 72.4677 117.494V116.128C72.4667 115.559 71.9667 115.098 71.3497 115.098Z" fill="#FBFAFF"/>
<path d="M93.9082 124.676C93.9082 125.622 94.7402 126.389 95.7672 126.389H136.256C137.283 126.389 138.115 125.622 138.115 124.676C138.115 123.73 137.283 122.963 136.256 122.963H95.7672C94.7402 122.963 93.9082 123.73 93.9082 124.676Z" fill="#FBFAFF"/>
<path d="M65.0977 124.676C65.0977 125.622 65.9297 126.389 66.9567 126.389H85.8387C86.8657 126.389 87.6977 125.622 87.6977 124.676C87.6977 123.73 86.8657 122.963 85.8387 122.963H66.9567C65.9307 122.963 65.0977 123.73 65.0977 124.676Z" fill="#FBFAFF"/>
<path d="M51.1914 133.108C51.1914 134.054 52.0234 134.821 53.0504 134.821H55.5414C56.5684 134.821 57.4004 134.054 57.4004 133.108C57.4004 132.162 56.5684 131.395 55.5414 131.395H53.0504C52.0234 131.395 51.1914 132.162 51.1914 133.108Z" fill="#FBFAFF"/>
<path d="M59.8828 133.108C59.8828 134.054 60.7148 134.821 61.7418 134.821H86.0878C87.1148 134.821 87.9468 134.054 87.9468 133.108C87.9468 132.162 87.1148 131.395 86.0878 131.395H61.7418C60.7148 131.395 59.8828 132.162 59.8828 133.108Z" fill="#FBFAFF"/>
<path d="M91.9199 133.108C91.9199 134.054 92.7519 134.821 93.7789 134.821H102.727C103.754 134.821 104.586 134.054 104.586 133.108C104.586 132.162 103.754 131.395 102.727 131.395H93.7789C92.7529 131.395 91.9199 132.162 91.9199 133.108Z" fill="#FBFAFF"/>
<path d="M110.051 133.108C110.051 134.054 110.883 134.821 111.91 134.821H121.107C122.134 134.821 122.966 134.054 122.966 133.108C122.966 132.162 122.134 131.395 121.107 131.395H111.91C110.883 131.395 110.051 132.162 110.051 133.108Z" fill="#FBFAFF"/>
<path d="M129.422 133.108C129.422 134.054 130.254 134.821 131.281 134.821H136.256C137.283 134.821 138.115 134.054 138.115 133.108C138.115 132.162 137.283 131.395 136.256 131.395H131.281C130.254 131.395 129.422 132.162 129.422 133.108Z" fill="#FBFAFF"/>
<path d="M71.8047 141.541C71.8047 142.487 72.6367 143.255 73.6637 143.255H77.1477C78.1747 143.255 79.0067 142.487 79.0067 141.541C79.0067 140.595 78.1747 139.828 77.1477 139.828H73.6637C72.6367 139.829 71.8047 140.595 71.8047 141.541Z" fill="#FBFAFF"/>
<path d="M86.3672 141.541C86.3672 142.487 87.1992 143.255 88.2262 143.255H105.719C106.746 143.255 107.578 142.487 107.578 141.541C107.578 140.595 106.746 139.828 105.719 139.828H88.2262C87.2002 139.829 86.3672 140.595 86.3672 141.541Z" fill="#FBFAFF"/>
<path d="M111.348 141.541C111.348 142.487 112.18 143.255 113.207 143.255H126.874C127.901 143.255 128.733 142.487 128.733 141.541C128.733 140.595 127.901 139.828 126.874 139.828H113.207C112.18 139.829 111.348 140.595 111.348 141.541Z" fill="#FBFAFF"/>
<path d="M94.3789 84.0453C94.3789 84.9913 95.2109 85.7585 96.2379 85.7585H136.727C137.754 85.7585 138.586 84.9913 138.586 84.0453C138.586 83.0993 137.754 82.332 136.727 82.332H96.2379C95.2109 82.332 94.3789 83.0993 94.3789 84.0453Z" fill="#FBFAFF"/>
<path d="M109.175 75.0469H104.226C103.199 75.0469 102.367 75.8141 102.367 76.7601C102.367 77.7061 103.199 78.4734 104.226 78.4734H109.175C110.202 78.4734 111.034 77.7061 111.034 76.7601C111.034 75.8141 110.202 75.0469 109.175 75.0469Z" fill="#FBFAFF"/>
<path d="M96.7071 75.0469H79.8981C78.8711 75.0469 78.0391 75.8141 78.0391 76.7601C78.0391 77.7061 78.8711 78.4734 79.8981 78.4734H96.7071C97.7341 78.4734 98.5661 77.7061 98.5661 76.7601C98.5661 75.8141 97.7341 75.0469 96.7071 75.0469Z" fill="#FBFAFF"/>
<path d="M113.924 76.7601C113.924 77.7061 114.756 78.4734 115.783 78.4734H136.728C137.755 78.4734 138.587 77.7061 138.587 76.7601C138.587 75.8141 137.755 75.0469 136.728 75.0469H115.783C114.756 75.0469 113.924 75.8141 113.924 76.7601Z" fill="#FBFAFF"/>
<path d="M92.3926 92.4789C92.3926 93.4249 93.2246 94.1921 94.2516 94.1921H103.2C104.227 94.1921 105.059 93.4249 105.059 92.4789C105.059 91.5329 104.227 90.7656 103.2 90.7656H94.2516C93.2246 90.7665 92.3926 91.5329 92.3926 92.4789Z" fill="#FBFAFF"/>
<path d="M110.521 92.4789C110.521 93.4249 111.353 94.1921 112.38 94.1921H121.577C122.604 94.1921 123.436 93.4249 123.436 92.4789C123.436 91.5329 122.604 90.7656 121.577 90.7656H112.38C111.353 90.7665 110.521 91.5329 110.521 92.4789Z" fill="#FBFAFF"/>
<path d="M128.824 92.4789C128.824 93.4249 129.656 94.1921 130.683 94.1921H137.457C138.484 94.1921 139.316 93.4249 139.316 92.4789C139.316 91.5329 138.484 90.7656 137.457 90.7656H130.683C129.656 90.7665 128.824 91.5329 128.824 92.4789Z" fill="#FBFAFF"/>
<path d="M100.912 100.912C100.912 101.858 101.744 102.626 102.771 102.626H113.209C114.236 102.626 115.068 101.858 115.068 100.912C115.068 99.9665 114.236 99.1992 113.209 99.1992H102.771C101.744 99.1992 100.912 99.9665 100.912 100.912Z" fill="#FBFAFF"/>
<path d="M72.2773 100.912C72.2773 101.858 73.1093 102.626 74.1363 102.626H77.6213C78.6483 102.626 79.4803 101.858 79.4803 100.912C79.4803 99.9665 78.6483 99.1992 77.6213 99.1992H74.1363C73.1093 99.1992 72.2773 99.9665 72.2773 100.912Z" fill="#FBFAFF"/>
<path d="M82.9551 100.912C82.9551 101.858 83.7871 102.626 84.8141 102.626H92.5211C93.5481 102.626 94.3801 101.858 94.3801 100.912C94.3801 99.9665 93.5481 99.1992 92.5211 99.1992H84.8141C83.7871 99.1992 82.9551 99.9665 82.9551 100.912Z" fill="#FBFAFF"/>
<path d="M121.947 100.912C121.947 101.858 122.779 102.626 123.806 102.626H137.473C138.5 102.626 139.332 101.858 139.332 100.912C139.332 99.9665 138.5 99.1992 137.473 99.1992H123.806C122.779 99.1992 121.947 99.9665 121.947 100.912Z" fill="#FBFAFF"/>
<path d="M71.5035 80.6783C71.2895 80.6783 71.0755 80.6068 70.9065 80.4629L66.4805 76.6936L70.8725 72.5237C71.2115 72.2019 71.7695 72.1946 72.1175 72.5063C72.4665 72.8179 72.4745 73.3322 72.1365 73.6539L69.0015 76.6303L72.1025 79.2713C72.4595 79.5756 72.4815 80.0889 72.1515 80.418C71.9765 80.5913 71.7405 80.6783 71.5035 80.6783Z" fill="#FBFAFF"/>
<path d="M76.8414 80.6783C76.6274 80.6783 76.4134 80.6068 76.2444 80.4629L71.8184 76.6936L76.2094 72.5237C76.5484 72.2019 77.1064 72.1946 77.4544 72.5063C77.8034 72.8179 77.8114 73.3322 77.4734 73.6539L74.3384 76.6303L77.4394 79.2713C77.7964 79.5756 77.8184 80.0889 77.4884 80.418C77.3154 80.5913 77.0794 80.6783 76.8414 80.6783Z" fill="#FBFAFF"/>
<path d="M136.865 145.975C136.628 145.975 136.392 145.888 136.218 145.715C135.888 145.386 135.91 144.872 136.267 144.568L139.368 141.927L136.233 138.951C135.894 138.63 135.903 138.116 136.252 137.803C136.6 137.491 137.158 137.499 137.497 137.821L141.888 141.99L137.462 145.76C137.293 145.904 137.079 145.975 136.865 145.975Z" fill="#FBFAFF"/>
<path d="M131.527 145.975C131.29 145.975 131.054 145.888 130.88 145.715C130.55 145.386 130.572 144.872 130.929 144.568L134.03 141.927L130.895 138.951C130.556 138.63 130.565 138.116 130.914 137.803C131.262 137.491 131.82 137.499 132.159 137.821L136.551 141.99L132.125 145.76C131.954 145.904 131.74 145.975 131.527 145.975Z" fill="#FBFAFF"/>
<path d="M206.8 153.6H205.701C202.7 153.6 200.268 151.371 200.268 148.62V112.152C200.268 109.401 202.7 107.172 205.701 107.172H206.8C209.801 107.172 212.233 109.402 212.233 112.152V148.62C212.233 151.37 209.801 153.6 206.8 153.6Z" fill="#A79AFE"/>
<path d="M226.131 187.165L225.063 187.698C222.748 188.852 219.856 188.058 218.603 185.925L203.243 159.763C201.99 157.63 202.852 154.965 205.167 153.81L206.235 153.278C208.55 152.124 211.442 152.918 212.695 155.051L228.055 181.212C229.308 183.346 228.446 186.011 226.131 187.165Z" fill="#A79AFE"/>
<path d="M222.672 203.103C219.344 197.051 220.927 190.147 226.207 187.681C231.488 185.215 238.466 188.121 241.795 194.173" stroke="#A79AFE" stroke-width="5" stroke-miterlimit="10" stroke-linecap="round" stroke-linejoin="round"/>
<path d="M206.66 150.737C207.723 150.737 208.584 149.943 208.584 148.964C208.584 147.985 207.723 147.191 206.66 147.191C205.598 147.191 204.736 147.985 204.736 148.964C204.736 149.943 205.598 150.737 206.66 150.737Z" fill="#2E2E2E"/>
<path d="M210.233 157.322C210.233 158.301 209.372 159.095 208.309 159.095C207.246 159.095 206.385 158.301 206.385 157.322C206.385 156.343 207.246 155.549 208.309 155.549C209.372 155.549 210.233 156.342 210.233 157.322Z" fill="#2E2E2E"/>
<path d="M206.935 120.343C213.538 120.343 218.891 115.411 218.891 109.326C218.891 103.241 213.538 98.3086 206.935 98.3086C200.331 98.3086 194.979 103.241 194.979 109.326C194.979 115.411 200.331 120.343 206.935 120.343Z" stroke="#2E2E2E" stroke-miterlimit="10" stroke-linecap="round" stroke-linejoin="round"/>
<path d="M206.934 116.823C211.427 116.823 215.069 113.467 215.069 109.327C215.069 105.186 211.427 101.83 206.934 101.83C202.441 101.83 198.799 105.186 198.799 109.327C198.799 113.467 202.441 116.823 206.934 116.823Z" fill="#2E2E2E"/>
<path d="M222.672 203.103C219.344 197.051 220.927 190.147 226.207 187.681C231.488 185.215 238.466 188.121 241.795 194.173" stroke="#2E2E2E" stroke-miterlimit="10" stroke-linecap="round" stroke-linejoin="round"/>
<path d="M207.168 107.173V92.971C207.168 87.3198 202.196 82.7383 196.063 82.7383H141.836" stroke="#F7F5FF" stroke-miterlimit="10" stroke-linecap="round" stroke-linejoin="round"/>
<path d="M141.836 104.773H166.136C171.192 104.773 176.041 106.624 179.616 109.919L202.655 131.149" stroke="#F7F5FF" stroke-miterlimit="10" stroke-linecap="round" stroke-linejoin="round"/>
<path d="M141.836 112.119H161.064C166.12 112.119 170.969 113.97 174.544 117.264L202.293 142.835" stroke="#F7F5FF" stroke-miterlimit="10" stroke-linecap="round" stroke-linejoin="round"/>
<path d="M202.225 291.229L209.299 252.047C209.505 250.904 208.549 249.863 207.291 249.863H176.049" stroke="#DCD7FE" stroke-miterlimit="10" stroke-linecap="round" stroke-linejoin="round"/>
<path d="M416.522 319.547H294.828V422.519H416.522V319.547Z" fill="#DCD7FE"/>
<path d="M416.521 339.852H294.828" stroke="#A79AFE" stroke-miterlimit="10" stroke-linecap="round" stroke-linejoin="round"/>
<path d="M416.521 360.156H294.828" stroke="#A79AFE" stroke-miterlimit="10" stroke-linecap="round" stroke-linejoin="round"/>
<path d="M416.521 380.463H294.828" stroke="#A79AFE" stroke-miterlimit="10" stroke-linecap="round" stroke-linejoin="round"/>
<path d="M416.521 400.768H294.828" stroke="#A79AFE" stroke-miterlimit="10" stroke-linecap="round" stroke-linejoin="round"/>
<path d="M326.379 408.15H303.342V414.15H326.379V408.15Z" fill="#FBFAFF"/>
<path d="M406.004 408.15H337.896V414.15H406.004V408.15Z" fill="#FBFAFF"/>
<path d="M326.379 388.309H303.342V394.308H326.379V388.309Z" fill="#FBFAFF"/>
<path d="M406.004 388.309H337.896V394.308H406.004V388.309Z" fill="#FBFAFF"/>
<path d="M326.379 368.465H303.342V374.464H326.379V368.465Z" fill="#FBFAFF"/>
<path d="M406.004 368.465H337.896V374.464H406.004V368.465Z" fill="#FBFAFF"/>
<path d="M326.379 348.619H303.342V354.619H326.379V348.619Z" fill="#FBFAFF"/>
<path d="M406.004 348.619H337.896V354.619H406.004V348.619Z" fill="#FBFAFF"/>
<path d="M326.379 328.777H303.342V334.777H326.379V328.777Z" fill="#FBFAFF"/>
<path d="M406.004 328.777H337.896V334.777H406.004V328.777Z" fill="#FBFAFF"/>
<path d="M384.096 153.415C384.096 154.821 382.845 156.03 381.214 156.03C379.583 156.03 378.332 154.821 378.332 153.415C378.332 152.008 379.583 150.799 381.214 150.799C382.845 150.799 384.096 152.008 384.096 153.415Z" fill="#DCD7FE" stroke="#F7F5FF"/>
<path d="M409.219 148.03C409.219 149.436 407.968 150.646 406.337 150.646C404.706 150.646 403.455 149.436 403.455 148.03C403.455 146.623 404.706 145.414 406.337 145.414C407.968 145.414 409.219 146.623 409.219 148.03Z" fill="#DCD7FE" stroke="#F7F5FF"/>
<path d="M401.457 143.877C401.457 145.284 400.207 146.493 398.575 146.493C396.944 146.493 395.693 145.284 395.693 143.877C395.693 142.471 396.944 141.262 398.575 141.262C400.207 141.262 401.457 142.471 401.457 143.877Z" fill="#DCD7FE" stroke="#F7F5FF"/>
<path d="M394.473 137.219C394.473 138.626 393.222 139.835 391.591 139.835C389.96 139.835 388.709 138.626 388.709 137.219C388.709 135.812 389.96 134.604 391.591 134.604C393.222 134.604 394.473 135.812 394.473 137.219Z" fill="#DCD7FE" stroke="#F7F5FF"/>
<path d="M406.436 146.492L407.187 298.089L439.864 328.2V374.233L420.145 392.405" stroke="#F7F5FF" stroke-miterlimit="10" stroke-linecap="round" stroke-linejoin="round"/>
<path d="M391.732 136.109V288.398L362.811 315.048" stroke="#F7F5FF" stroke-miterlimit="10" stroke-linecap="round" stroke-linejoin="round"/>
<path d="M398.76 143.627V311.241" stroke="#F7F5FF" stroke-miterlimit="10" stroke-linecap="round" stroke-linejoin="round"/>
<path d="M381.214 153.414V284.244L348.537 314.356" stroke="#F7F5FF" stroke-miterlimit="10" stroke-linecap="round" stroke-linejoin="round"/>
<path d="M351.377 314.317C351.377 315.724 350.126 316.933 348.495 316.933C346.864 316.933 345.613 315.724 345.613 314.317C345.613 312.91 346.864 311.701 348.495 311.701C350.126 311.701 351.377 312.91 351.377 314.317Z" fill="#DCD7FE" stroke="#F7F5FF"/>
<path d="M402.041 313.856C402.041 315.263 400.791 316.472 399.159 316.472C397.529 316.472 396.277 315.263 396.277 313.856C396.277 312.449 397.528 311.24 399.159 311.24C400.791 311.24 402.041 312.448 402.041 313.856Z" fill="#DCD7FE" stroke="#F7F5FF"/>
<path d="M422.407 393.231C422.407 394.638 421.156 395.847 419.525 395.847C417.894 395.847 416.643 394.638 416.643 393.231C416.643 391.824 417.894 390.615 419.525 390.615C421.156 390.615 422.407 391.824 422.407 393.231Z" fill="#DCD7FE" stroke="#F7F5FF"/>
<path d="M365.692 314.317C365.692 315.724 364.441 316.933 362.81 316.933C361.179 316.933 359.928 315.724 359.928 314.317C359.928 312.91 361.179 311.701 362.81 311.701C364.441 311.701 365.692 312.91 365.692 314.317Z" fill="#DCD7FE" stroke="#F7F5FF"/>
</g>
<defs>
<clipPath id="clip0_8047_10492">
<rect width="500" height="458.333" fill="white"/>
</clipPath>
</defs>
</svg>
