<svg width="240" height="241" viewBox="0 0 240 241" fill="none" xmlns="http://www.w3.org/2000/svg">
<path d="M240 184.052H0V184.172H240V184.052Z" fill="#EBEBEB"/>
<path d="M213.725 189.548H189.293V189.668H213.725V189.548Z" fill="#EBEBEB"/>
<path d="M47.8405 188.127H25.1797V188.247H47.8405V188.127Z" fill="#EBEBEB"/>
<path d="M191.039 187.321H181.828V187.441H191.039V187.321Z" fill="#EBEBEB"/>
<path d="M158.985 190.503H152.227V190.623H158.985V190.503Z" fill="#EBEBEB"/>
<path d="M147.949 190.503H130.938V190.623H147.949V190.503Z" fill="#EBEBEB"/>
<path d="M121.062 188.478H93.707V188.598H121.062V188.478Z" fill="#EBEBEB"/>
<path d="M113.759 162.644H21.0758C20.3498 162.643 19.6539 162.353 19.1409 161.839C18.6279 161.326 18.3398 160.629 18.3398 159.903V29.6167C18.3462 28.8948 18.6371 28.2045 19.1493 27.6958C19.6616 27.1872 20.3539 26.9011 21.0758 26.8999H113.759C114.486 26.8999 115.183 27.1887 115.697 27.7027C116.211 28.2167 116.5 28.9138 116.5 29.6407V159.903C116.5 160.63 116.211 161.327 115.697 161.841C115.183 162.355 114.486 162.644 113.759 162.644ZM21.0758 26.9959C20.3816 26.9972 19.7162 27.2739 19.2258 27.7652C18.7353 28.2566 18.4598 28.9225 18.4598 29.6167V159.903C18.4598 160.597 18.7353 161.263 19.2258 161.755C19.7162 162.246 20.3816 162.523 21.0758 162.524H113.759C114.454 162.523 115.12 162.246 115.611 161.755C116.102 161.264 116.379 160.598 116.38 159.903V29.6167C116.379 28.922 116.102 28.2561 115.611 27.7649C115.12 27.2737 114.454 26.9972 113.759 26.9959H21.0758Z" fill="#EBEBEB"/>
<path d="M217.589 162.644H124.901C124.174 162.643 123.478 162.353 122.964 161.84C122.451 161.326 122.161 160.63 122.16 159.903V29.6167C122.168 28.8944 122.46 28.2041 122.973 27.6955C123.486 27.187 124.179 26.9011 124.901 26.8999H217.589C218.31 26.9024 219.001 27.189 219.512 27.6975C220.024 28.2061 220.314 28.8956 220.32 29.6167V159.903C220.32 160.628 220.033 161.324 219.521 161.838C219.009 162.351 218.314 162.641 217.589 162.644ZM124.901 26.9959C124.206 26.9972 123.54 27.2737 123.049 27.7649C122.558 28.2561 122.281 28.922 122.28 29.6167V159.903C122.281 160.598 122.558 161.264 123.049 161.755C123.54 162.246 124.206 162.523 124.901 162.524H217.589C218.284 162.523 218.95 162.246 219.441 161.755C219.932 161.264 220.208 160.598 220.21 159.903V29.6167C220.208 28.922 219.932 28.2561 219.441 27.7649C218.95 27.2737 218.284 26.9972 217.589 26.9959H124.901Z" fill="#EBEBEB"/>
<path d="M34.6257 138.999H99.7617L99.7617 41.511L34.6257 41.511L34.6257 138.999Z" fill="#E6E6E6"/>
<path d="M33.1843 138.999H98.3203L98.3203 41.511L33.1843 41.511L33.1843 138.999Z" fill="#EEEBFE"/>
<path d="M95.7188 136.081V44.4297L35.7812 44.4297L35.7812 136.081H95.7188Z" fill="white"/>
<path d="M36.875 136.081L36.875 44.4297H35.7806L35.7806 136.081H36.875Z" fill="#E6E6E6"/>
<path d="M34.2566 76.9209L97.2422 76.9209V73.0041L34.2566 73.0041V76.9209Z" fill="#EEEBFE"/>
<path d="M30.3437 36.6777H102.593C102.699 36.679 102.801 36.722 102.875 36.7975C102.95 36.873 102.992 36.9748 102.992 37.0809C102.992 37.1866 102.95 37.2879 102.875 37.3626C102.8 37.4374 102.699 37.4793 102.593 37.4793H30.3437C30.2381 37.4793 30.1367 37.4374 30.062 37.3626C29.9873 37.2879 29.9453 37.1866 29.9453 37.0809C29.9453 36.9748 29.9871 36.873 30.0617 36.7975C30.1363 36.722 30.2376 36.679 30.3437 36.6777Z" fill="#E6E6E6"/>
<path d="M27.9454 37.0809C27.9492 37.4759 28.0698 37.861 28.292 38.1876C28.5143 38.5142 28.8282 38.7678 29.1942 38.9164C29.5603 39.0649 29.9621 39.1018 30.3491 39.0224C30.7361 38.943 31.091 38.7509 31.369 38.4702C31.647 38.1896 31.8357 37.8329 31.9114 37.4451C31.9871 37.0574 31.9464 36.6559 31.7943 36.2913C31.6423 35.9267 31.3857 35.6152 31.057 35.3961C30.7283 35.177 30.3421 35.0601 29.947 35.0601C29.6825 35.06 29.4207 35.1124 29.1766 35.2142C28.9325 35.316 28.7109 35.4652 28.5248 35.6531C28.3387 35.841 28.1917 36.0639 28.0922 36.309C27.9928 36.554 27.9429 36.8164 27.9454 37.0809Z" fill="#E6E6E6"/>
<path d="M99.2212 39.3174C99.3642 39.3174 99.5015 39.2609 99.603 39.1602C99.7046 39.0595 99.7623 38.9228 99.7636 38.7798V37.6182C99.7623 37.4751 99.7046 37.3384 99.603 37.2377C99.5015 37.137 99.3642 37.0806 99.2212 37.0806C99.0786 37.0806 98.9419 37.1372 98.8411 37.238C98.7402 37.3388 98.6836 37.4756 98.6836 37.6182V38.7798C98.6836 38.9223 98.7402 39.0591 98.8411 39.1599C98.9419 39.2607 99.0786 39.3174 99.2212 39.3174Z" fill="#E6E6E6"/>
<path d="M36.3774 39.3174C36.5205 39.3174 36.6577 39.2609 36.7593 39.1602C36.8609 39.0595 36.9186 38.9228 36.9198 38.7798V37.6182C36.9186 37.4751 36.8609 37.3384 36.7593 37.2377C36.6577 37.137 36.5205 37.0806 36.3774 37.0806C36.2349 37.0806 36.0981 37.1372 35.9973 37.238C35.8965 37.3388 35.8398 37.4756 35.8398 37.6182V38.7798C35.8398 38.9223 35.8965 39.0591 35.9973 39.1599C36.0981 39.2607 36.2349 39.3174 36.3774 39.3174Z" fill="#E6E6E6"/>
<path opacity="0.5" d="M30.4703 128.977H97.2383L97.2383 37.0758L30.4703 37.0758L30.4703 128.977Z" fill="#DCD7FE"/>
<path d="M90.7931 37.0809C90.7969 37.4761 90.9176 37.8614 91.1401 38.1881C91.3625 38.5148 91.6767 38.7684 92.0431 38.9168C92.4094 39.0652 92.8115 39.1018 93.1986 39.0221C93.5857 38.9423 93.9406 38.7497 94.2184 38.4685C94.4962 38.1874 94.6846 37.8302 94.7597 37.4422C94.8349 37.0541 94.7934 36.6525 94.6407 36.288C94.4879 35.9234 94.2306 35.6123 93.9012 35.3938C93.5719 35.1752 93.1852 35.0591 92.7899 35.0601C92.5257 35.06 92.264 35.1125 92.0202 35.2143C91.7764 35.3162 91.5551 35.4654 91.3694 35.6534C91.1837 35.8413 91.0371 36.0643 90.9382 36.3093C90.8392 36.5544 90.7899 36.8166 90.7931 37.0809Z" fill="#E6E6E6"/>
<path d="M89.587 182.185H102.441V153.677H89.587V182.185Z" fill="#FDC500"/>
<path d="M36.5656 183.989H99.9688V182.184H36.5656V183.989Z" fill="#FDC500"/>
<path d="M89.5809 153.678H34.0977V182.185H89.5809V153.678Z" fill="#EEEBFE"/>
<path d="M84.5267 157.187H39.1523V166.537H84.5267V157.187Z" fill="#FDC500"/>
<path d="M84.5267 169.326H39.1523V178.676H84.5267V169.326Z" fill="#FDC500"/>
<path d="M56.0579 162.5H67.6211C67.9339 162.5 68.1875 162.246 68.1875 161.934V161.785C68.1875 161.472 67.9339 161.218 67.6211 161.218H56.0579C55.7451 161.218 55.4915 161.472 55.4915 161.785V161.934C55.4915 162.246 55.7451 162.5 56.0579 162.5Z" fill="#EEEBFE"/>
<path d="M56.0579 174.639H67.6211C67.9339 174.639 68.1875 174.386 68.1875 174.073V173.924C68.1875 173.611 67.9339 173.358 67.6211 173.358H56.0579C55.7451 173.358 55.4915 173.611 55.4915 173.924V174.073C55.4915 174.386 55.7451 174.639 56.0579 174.639Z" fill="#EEEBFE"/>
<path d="M59.0022 148.882C59.0022 148.882 58.8438 153.682 52.9206 153.682C46.9974 153.682 46.8438 148.882 46.8438 148.882H59.0022Z" fill="#FDC500"/>
<path d="M72.8576 148.882C72.8576 148.882 72.704 153.682 66.776 153.682C60.848 153.682 60.6992 148.882 60.6992 148.882H72.8576Z" fill="#FDC500"/>
<path d="M59.0022 145.7C59.0022 145.7 58.8438 150.5 52.9206 150.5C46.9974 150.5 46.8438 145.7 46.8438 145.7H59.0022Z" fill="#FDC500"/>
<path d="M72.8576 145.7C72.8576 145.7 72.704 150.5 66.776 150.5C60.848 150.5 60.6992 145.7 60.6992 145.7H72.8576Z" fill="#FDC500"/>
<path d="M86.717 148.882C86.717 148.882 86.5634 153.682 80.6402 153.682C74.717 153.682 74.5586 148.882 74.5586 148.882H86.717Z" fill="#FDC500"/>
<path d="M86.717 145.7C86.717 145.7 86.5634 150.5 80.6402 150.5C74.717 150.5 74.5586 145.7 74.5586 145.7H86.717Z" fill="#FDC500"/>
<path d="M165.1 97.7529H203.918V41.7945L165.1 41.7945V97.7529Z" fill="#FFD952"/>
<path d="M154.324 97.7529H199.535V41.7945L154.324 41.7945V97.7529Z" fill="#EEEBFE"/>
<path d="M193.758 94.1577V45.3896H160.105V94.1577H193.758Z" fill="white"/>
<path d="M177.238 94.7816V44.7656H176.624V94.7816H177.238Z" fill="#EEEBFE"/>
<path d="M203.366 181.124H213.066V117.519H203.366V181.124Z" fill="#FDC500"/>
<path d="M130.506 184.042H210.508V181.119H130.506V184.042Z" fill="#FDC500"/>
<path d="M203.367 117.514H127.949V181.119H203.367V117.514Z" fill="#EEEBFE"/>
<path d="M198.126 140.501H133.191V155.631H198.126V140.501Z" fill="#FDC500"/>
<path d="M198.126 160.311H133.191V175.441H198.126V160.311Z" fill="#FDC500"/>
<path d="M146.933 141.543H184.387C184.931 141.543 185.371 141.102 185.371 140.559V140.453C185.371 139.91 184.931 139.469 184.387 139.469H146.933C146.389 139.469 145.949 139.91 145.949 140.453V140.559C145.949 141.102 146.389 141.543 146.933 141.543Z" fill="#EEEBFE"/>
<path d="M146.933 161.348H184.387C184.931 161.348 185.371 160.907 185.371 160.364V160.258C185.371 159.715 184.931 159.274 184.387 159.274H146.933C146.389 159.274 145.949 159.715 145.949 160.258V160.364C145.949 160.907 146.389 161.348 146.933 161.348Z" fill="#EEEBFE"/>
<path d="M198.126 120.697H133.191V135.826H198.126V120.697Z" fill="#FDC500"/>
<path d="M146.933 121.738H184.387C184.931 121.738 185.371 121.298 185.371 120.754V120.649C185.371 120.105 184.931 119.665 184.387 119.665H146.933C146.389 119.665 145.949 120.105 145.949 120.649V120.754C145.949 121.298 146.389 121.738 146.933 121.738Z" fill="#EEEBFE"/>
<path d="M120.001 205.729C171.4 205.729 213.068 203.296 213.068 200.295C213.068 197.294 171.4 194.861 120.001 194.861C68.6012 194.861 26.9336 197.294 26.9336 200.295C26.9336 203.296 68.6012 205.729 120.001 205.729Z" fill="#EEEBFE"/>
<path d="M141.028 192.596L137.395 191.458L139.065 182.737L142.699 183.879L141.028 192.596Z" fill="#FF8B7B"/>
<path d="M174.028 196.407H170.216L167.25 187.585H171.056L174.028 196.407Z" fill="#FF8B7B"/>
<path d="M169.706 195.966H174.352C174.428 195.965 174.501 195.991 174.559 196.038C174.618 196.085 174.658 196.151 174.674 196.225L175.428 199.609C175.446 199.691 175.445 199.777 175.425 199.859C175.406 199.941 175.367 200.018 175.314 200.083C175.26 200.148 175.192 200.2 175.116 200.235C175.039 200.271 174.955 200.288 174.871 200.286C173.373 200.262 172.284 200.175 170.402 200.175C169.245 200.175 165.756 200.295 164.162 200.295C162.568 200.295 162.357 198.711 163.01 198.572C165.943 197.929 168.156 197.046 169.096 196.201C169.264 196.05 169.481 195.966 169.706 195.966Z" fill="#121212"/>
<path d="M137.552 191.06L141.522 192.303C141.593 192.327 141.655 192.373 141.697 192.436C141.738 192.499 141.758 192.574 141.752 192.649L141.454 196.105C141.448 196.188 141.422 196.269 141.38 196.341C141.337 196.413 141.279 196.475 141.209 196.521C141.139 196.568 141.06 196.597 140.977 196.608C140.893 196.619 140.809 196.611 140.73 196.585C139.29 196.105 137.264 195.38 135.45 194.818C133.347 194.156 131.326 193.561 128.859 192.783C127.366 192.303 127.419 190.681 128.091 190.738C131.13 191.007 133.64 191.814 136.573 191.07C136.891 190.973 137.231 190.969 137.552 191.06Z" fill="#121212"/>
<path d="M159.736 82.1C159.097 82.9976 158.406 83.9576 157.753 84.9032C157.101 85.8488 156.453 86.8232 155.809 87.7832C154.542 89.7032 153.318 91.6472 152.233 93.6056C151.95 94.0856 151.72 94.5656 151.456 95.0792C151.192 95.5928 150.976 96.0392 150.765 96.5192C150.553 96.9992 150.352 97.4792 150.169 97.9592L150.059 98.2472C150.051 98.2711 150.04 98.2938 150.025 98.3144C150.025 98.3144 150.025 98.3144 150.025 98.1032V98.0024C150.025 97.9544 150.025 97.9112 150.025 97.8584C150.017 97.779 150.003 97.7004 149.982 97.6232C149.982 97.5608 149.949 97.4984 149.929 97.4408L149.901 97.3496L149.843 97.2152C149.801 97.1196 149.753 97.0266 149.699 96.9368C149.619 96.8062 149.525 96.684 149.421 96.572C149.142 96.2645 148.788 96.0346 148.393 95.9048C148.207 95.8425 148.013 95.8038 147.817 95.7896C147.728 95.7825 147.638 95.7825 147.549 95.7896H147.357C147.159 95.8119 146.965 95.8604 146.781 95.9336C146.682 95.973 146.586 96.0178 146.493 96.068C146.438 96.0983 146.385 96.132 146.334 96.1688L146.238 96.2456L146.176 96.2984C146.138 96.3278 146.104 96.3617 146.075 96.3992C146.041 96.4568 146.118 96.3992 146.181 96.3224C146.469 96.0104 146.843 95.5544 147.179 95.1128L148.235 93.7304C148.955 92.804 149.675 91.8584 150.443 90.9464L152.968 92.2904C152.617 93.4712 152.2 94.5992 151.744 95.732C151.504 96.2936 151.264 96.86 151 97.4216C150.719 98.0323 150.398 98.624 150.04 99.1928C149.904 99.4078 149.752 99.6116 149.584 99.8024C149.502 99.8937 149.416 99.9802 149.325 100.062L149.219 100.148L149.075 100.254C149.009 100.301 148.94 100.344 148.869 100.383C148.76 100.444 148.648 100.499 148.533 100.546C148.33 100.624 148.119 100.676 147.904 100.7H147.697C147.611 100.7 147.51 100.7 147.414 100.7C147.21 100.687 147.008 100.646 146.814 100.58C146.6 100.511 146.396 100.412 146.209 100.287C146.032 100.175 145.871 100.039 145.729 99.884C145.618 99.7652 145.52 99.6349 145.437 99.4952C145.377 99.398 145.324 99.297 145.278 99.1928L145.216 99.044L145.182 98.9432C145.158 98.876 145.139 98.804 145.12 98.7368C145.101 98.6696 145.081 98.54 145.067 98.444V98.2424V98.0888C145.064 97.8706 145.076 97.6524 145.105 97.436C145.105 97.292 145.144 97.172 145.163 97.0664C145.201 96.8504 145.24 96.6728 145.283 96.4952C145.44 95.8446 145.634 95.2036 145.864 94.5752C146.08 93.956 146.344 93.3656 146.569 92.7704C146.795 92.1752 147.083 91.604 147.361 91.052C148.447 88.8369 149.653 86.6832 150.976 84.6008C151.629 83.5736 152.296 82.556 152.997 81.5624C153.697 80.5688 154.384 79.5848 155.161 78.5864L159.736 82.1Z" fill="#FF8B7B"/>
<path d="M161.757 79.4842C162.497 83.0458 154.529 91.9642 154.529 91.9642L147.641 86.6842C149.252 83.7771 151.17 81.0511 153.362 78.553C156.621 75.0154 160.917 75.5722 161.757 79.4842Z" fill="#FDC500"/>
<path opacity="0.2" d="M155.998 81.9658C154.078 82.6666 153.065 87.3274 151.961 90.0106L154.51 91.9594C156.414 89.7996 158.156 87.5021 159.723 85.0858C158.806 83.0602 158.191 81.169 155.998 81.9658Z" fill="#121212"/>
<path opacity="0.2" d="M139.062 182.742L138.203 187.234L141.837 188.372L142.701 183.879L139.062 182.742Z" fill="#121212"/>
<path opacity="0.2" d="M171.061 187.59H167.25L168.781 192.135H172.592L171.061 187.59Z" fill="#121212"/>
<path d="M178.779 79.3068C177.317 83.3076 176.156 87.4117 175.304 91.5852C174.694 94.494 174.238 97.2828 173.864 99.8172C173.038 105.75 172.784 110.31 172.477 111.817C169.525 111.337 158.408 109.628 152.35 108.678C151.434 86.862 157.63 76.1916 157.63 76.1916C159.258 76.0269 160.895 75.9644 162.531 76.0044C162.872 76.0044 163.222 76.0044 163.578 76.0524C166.454 76.3333 169.311 76.7788 172.136 77.3868C172.674 77.4972 173.211 77.622 173.739 77.7516C176.451 78.4428 178.779 79.3068 178.779 79.3068Z" fill="#FDC500"/>
<path opacity="0.2" d="M175.995 87.1784L171.776 91.8632C171.776 91.8632 171.008 100.268 173.298 104.598C173.456 103.158 173.648 101.54 173.888 99.7976C174.239 97.2632 174.695 94.4744 175.328 91.5656C175.645 90.0488 176.005 88.4984 176.408 86.9336L175.995 87.1784Z" fill="#121212"/>
<path d="M172.826 67.6377C171.866 70.3065 170.532 75.2649 172.173 77.4057C171.187 78.1567 170.051 78.6876 168.842 78.9625C167.633 79.2374 166.38 79.2499 165.165 78.9993C162.804 78.5769 162.943 76.9065 163.615 76.0713C166.802 75.8169 167.076 73.5273 166.874 71.3049L172.826 67.6377Z" fill="#FF8B7B"/>
<path opacity="0.2" d="M170.398 69.1401L166.875 71.3049C166.928 71.8232 166.936 72.3452 166.899 72.8649C168.099 72.8649 169.913 71.8425 170.225 70.6329C170.372 70.1497 170.43 69.6441 170.398 69.1401Z" fill="#121212"/>
<path d="M166.39 56.1801C163.702 54.9321 162.482 63.9561 164.369 65.2569C166.255 66.5577 171.415 58.5033 166.39 56.1801Z" fill="#121212"/>
<path d="M173.8 63.548C172.989 67.2392 172.701 69.4424 170.522 71.06C167.244 73.4984 162.909 71.06 162.597 67.22C162.319 63.7496 163.692 58.2968 167.57 57.38C168.424 57.1745 169.316 57.1905 170.162 57.4264C171.008 57.6624 171.779 58.1106 172.403 58.7284C173.027 59.3463 173.483 60.1133 173.728 60.9568C173.972 61.8002 173.997 62.6922 173.8 63.548Z" fill="#FF8B7B"/>
<path d="M172.972 67.1577C171.296 68.1177 171.364 56.7801 174.637 58.4457C180.186 61.2633 176.932 64.8681 172.972 67.1577Z" fill="#121212"/>
<path d="M176.91 60.5001C175.389 61.8921 161.354 53.1705 167.349 51.7641C174.064 50.1753 179.829 57.8121 176.91 60.5001Z" fill="#121212"/>
<path d="M173.999 60.6393C172.285 61.7865 156.023 58.5657 159.983 53.8473C164.715 48.2025 177.551 58.2585 173.999 60.6393Z" fill="#121212"/>
<path d="M174.842 67.9208C174.215 68.6352 173.332 69.0733 172.384 69.14C171.127 69.2168 170.762 68.0312 171.333 66.98C171.842 66.02 173.114 64.8584 174.271 65.276C175.427 65.6936 175.6 67.0328 174.842 67.9208Z" fill="#FF8B7B"/>
<path d="M137.105 185.968L143.259 187.888C143.259 187.888 149.47 165.385 151.587 153.712C152.23 150.16 153.603 145.254 155.249 140.017C157.323 133.422 159.829 126.308 161.859 120.75C164 114.889 165.603 110.752 165.603 110.752L152.369 108.688C152.369 108.688 141.622 139.465 140.24 151.009C138.805 163.014 137.105 185.968 137.105 185.968Z" fill="#FDC500"/>
<path opacity="0.6" d="M137.105 185.968L143.259 187.888C143.259 187.888 149.47 165.385 151.587 153.712C152.23 150.16 153.603 145.254 155.249 140.017C157.323 133.422 159.829 126.308 161.859 120.75C164 114.889 165.603 110.752 165.603 110.752L152.369 108.688C152.369 108.688 141.622 139.465 140.24 151.009C138.805 163.014 137.105 185.968 137.105 185.968Z" fill="#121212"/>
<path opacity="0.2" d="M155.248 140.026C157.322 133.431 159.828 126.318 161.858 120.759L160.73 117.668C157.096 121.306 155.172 133.374 155.248 140.026Z" fill="#121212"/>
<path d="M159.508 109.811C159.508 109.811 158.179 142.422 158.841 153.558C159.566 165.755 167.001 191.257 167.001 191.257H173.976C173.976 191.257 170.98 168.102 169.8 156.246C168.456 142.743 172.507 111.836 172.507 111.836L159.508 109.811Z" fill="#FDC500"/>
<path opacity="0.6" d="M159.508 109.811C159.508 109.811 158.179 142.422 158.841 153.558C159.566 165.755 167.001 191.257 167.001 191.257H173.976C173.976 191.257 170.98 168.102 169.8 156.246C168.456 142.743 172.507 111.836 172.507 111.836L159.508 109.811Z" fill="#121212"/>
<path d="M166.153 191.406H174.366V188.953L165.184 188.79L166.153 191.406Z" fill="#FDC500"/>
<path d="M136.285 185.871L143.619 188.17L144.363 185.799L136.203 183.106L136.285 185.871Z" fill="#FDC500"/>
<path d="M167.999 63.7064C167.951 64.0088 167.754 64.2296 167.557 64.1864C167.361 64.1432 167.236 63.884 167.284 63.5816C167.332 63.2792 167.529 63.0584 167.725 63.1016C167.922 63.1448 168.033 63.404 167.999 63.7064Z" fill="#121212"/>
<path d="M164.558 63.1738C164.51 63.4762 164.309 63.697 164.112 63.6538C163.915 63.6106 163.79 63.3562 163.838 63.049C163.886 62.7418 164.083 62.5258 164.285 62.569C164.486 62.6122 164.602 62.8666 164.558 63.1738Z" fill="#121212"/>
<path d="M165.622 63.4951C165.115 64.3647 164.492 65.1609 163.77 65.8615C163.955 66.0389 164.177 66.1737 164.42 66.2566C164.663 66.3395 164.921 66.3685 165.176 66.3415L165.622 63.4951Z" fill="#FF5652"/>
<path d="M166.328 67.3737C166.195 67.37 166.061 67.3571 165.93 67.3353C165.918 67.3342 165.906 67.3306 165.896 67.3248C165.886 67.319 165.876 67.3111 165.869 67.3017C165.862 67.2922 165.857 67.2813 165.854 67.2698C165.851 67.2582 165.851 67.2462 165.853 67.2345C165.857 67.2116 165.87 67.1912 165.889 67.1771C165.907 67.163 165.93 67.1561 165.954 67.1577C166.33 67.2278 166.718 67.2068 167.084 67.0966C167.451 66.9864 167.786 66.7901 168.061 66.5241C168.069 66.5155 168.079 66.5087 168.091 66.5041C168.102 66.4995 168.114 66.4971 168.126 66.4971C168.138 66.4971 168.15 66.4995 168.161 66.5041C168.172 66.5087 168.182 66.5155 168.19 66.5241C168.199 66.5322 168.206 66.5418 168.21 66.5526C168.215 66.5633 168.217 66.5748 168.217 66.5865C168.217 66.5982 168.215 66.6097 168.21 66.6204C168.206 66.6311 168.199 66.6408 168.19 66.6489C167.946 66.8901 167.654 67.0788 167.334 67.2034C167.014 67.328 166.671 67.386 166.328 67.3737Z" fill="#121212"/>
<path d="M169.219 62.7655C169.187 62.7633 169.155 62.7534 169.128 62.7367C169.1 62.72 169.077 62.697 169.06 62.6695C168.959 62.4676 168.811 62.2924 168.629 62.1582C168.448 62.0239 168.237 61.9343 168.014 61.8967C167.988 61.8983 167.962 61.8943 167.937 61.8849C167.913 61.8756 167.891 61.8611 167.873 61.8424C167.854 61.8238 167.84 61.8014 167.831 61.7769C167.822 61.7523 167.819 61.7261 167.821 61.7001C167.823 61.674 167.831 61.6487 167.843 61.6259C167.856 61.6031 167.874 61.5833 167.895 61.5678C167.916 61.5523 167.94 61.5415 167.965 61.5361C167.991 61.5307 168.017 61.5309 168.043 61.5367C168.326 61.5785 168.594 61.6875 168.827 61.8545C169.059 62.0215 169.248 62.2417 169.377 62.4967C169.4 62.5388 169.405 62.588 169.391 62.6338C169.378 62.6795 169.347 62.7182 169.305 62.7415C169.279 62.756 169.249 62.7642 169.219 62.7655Z" fill="#121212"/>
<path d="M163.259 61.7624C163.223 61.76 163.189 61.7485 163.159 61.7289C163.139 61.7154 163.123 61.6983 163.11 61.6784C163.097 61.6585 163.089 61.6363 163.085 61.6131C163.081 61.5899 163.081 61.5661 163.087 61.5431C163.092 61.5201 163.102 61.4984 163.115 61.4793C163.275 61.2406 163.488 61.043 163.738 60.9028C163.989 60.7627 164.269 60.6838 164.555 60.6729C164.604 60.6729 164.65 60.6921 164.684 60.7263C164.719 60.7605 164.738 60.8069 164.738 60.8553C164.738 60.9036 164.719 60.95 164.684 60.9842C164.65 61.0184 164.604 61.0377 164.555 61.0377C164.329 61.0444 164.107 61.1071 163.91 61.2201C163.713 61.3332 163.547 61.4931 163.427 61.6857C163.408 61.7109 163.382 61.7311 163.353 61.7444C163.323 61.7578 163.291 61.764 163.259 61.7624Z" fill="#121212"/>
<path d="M168.448 196.628C168.189 196.648 167.931 196.58 167.714 196.436C167.646 196.377 167.594 196.303 167.561 196.219C167.529 196.136 167.517 196.045 167.527 195.956C167.526 195.903 167.541 195.851 167.569 195.806C167.597 195.761 167.637 195.725 167.685 195.702C168.103 195.481 169.332 196.239 169.471 196.326C169.486 196.335 169.498 196.349 169.505 196.365C169.513 196.381 169.516 196.399 169.514 196.417C169.51 196.434 169.502 196.449 169.49 196.462C169.478 196.474 169.463 196.484 169.447 196.489C169.12 196.571 168.785 196.618 168.448 196.628ZM167.882 195.86C167.842 195.859 167.803 195.867 167.767 195.884C167.748 195.894 167.733 195.91 167.722 195.928C167.712 195.947 167.708 195.968 167.709 195.99C167.7 196.05 167.707 196.111 167.728 196.168C167.749 196.225 167.784 196.276 167.829 196.316C168.04 196.494 168.535 196.518 169.183 196.388C168.787 196.13 168.346 195.95 167.882 195.86Z" fill="#FDC500"/>
<path d="M169.437 196.494C169.423 196.498 169.408 196.498 169.394 196.494C169 196.283 168.237 195.448 168.319 195.02C168.333 194.954 168.369 194.895 168.421 194.852C168.474 194.809 168.539 194.786 168.607 194.785C168.675 194.778 168.744 194.784 168.81 194.804C168.876 194.824 168.937 194.857 168.991 194.9C169.432 195.265 169.523 196.34 169.528 196.408C169.529 196.424 169.525 196.44 169.518 196.454C169.51 196.469 169.499 196.481 169.485 196.489C169.47 196.496 169.453 196.497 169.437 196.494ZM168.669 194.953H168.626C168.511 194.953 168.501 195.025 168.496 195.044C168.448 195.299 168.933 195.928 169.327 196.225C169.299 195.791 169.142 195.374 168.875 195.03C168.814 194.977 168.735 194.95 168.655 194.953H168.669Z" fill="#FDC500"/>
<path d="M137.033 191.434C136.409 191.367 135.325 191.185 135.037 190.705C134.993 190.633 134.967 190.552 134.962 190.468C134.957 190.385 134.973 190.301 135.008 190.225C135.025 190.179 135.053 190.138 135.09 190.106C135.127 190.074 135.171 190.052 135.219 190.042C135.742 189.932 136.966 191.132 137.105 191.271C137.116 191.286 137.122 191.303 137.122 191.322C137.122 191.34 137.116 191.357 137.105 191.372C137.101 191.388 137.092 191.403 137.079 191.414C137.066 191.425 137.05 191.432 137.033 191.434ZM135.281 190.225H135.248C135.229 190.228 135.211 190.237 135.197 190.249C135.183 190.262 135.172 190.278 135.166 190.297C135.14 190.345 135.126 190.398 135.126 190.453C135.126 190.507 135.14 190.561 135.166 190.609C135.329 190.878 135.915 191.089 136.76 191.218C136.285 190.767 135.589 190.215 135.281 190.225Z" fill="#FDC500"/>
<path d="M137.034 191.435C137.014 191.44 136.992 191.44 136.972 191.435C136.597 191.103 135.974 190.043 136.17 189.654C136.218 189.563 136.324 189.462 136.564 189.515C136.653 189.531 136.737 189.566 136.812 189.617C136.886 189.668 136.949 189.735 136.996 189.812C137.342 190.335 137.13 191.343 137.121 191.387C137.119 191.402 137.112 191.417 137.102 191.429C137.092 191.441 137.078 191.449 137.063 191.454L137.034 191.435ZM136.434 189.654C136.357 189.654 136.338 189.697 136.334 189.711C136.214 189.942 136.612 190.748 136.972 191.151C137.063 190.725 137.019 190.28 136.847 189.879C136.812 189.824 136.766 189.776 136.711 189.738C136.657 189.701 136.595 189.676 136.53 189.663L136.434 189.654Z" fill="#FDC500"/>
<path d="M180.797 83.7852C180.725 84.4476 180.653 85.0188 180.552 85.6284C180.451 86.238 180.355 86.8236 180.245 87.4188C180.039 88.6092 179.765 89.7852 179.467 90.966C178.863 93.3581 178.06 95.6958 177.067 97.9548L176.669 98.814L176.232 99.6684L176.122 99.8844L176.069 99.99L175.983 100.144C175.812 100.451 175.605 100.738 175.368 100.998C174.793 101.624 174.027 102.042 173.189 102.188C172.548 102.292 171.892 102.249 171.269 102.064C170.829 101.932 170.405 101.755 170.002 101.536C169.363 101.18 168.765 100.756 168.216 100.273C167.724 99.8502 167.258 99.3982 166.819 98.9196C166.383 98.4396 165.979 97.9884 165.595 97.5036C164.825 96.5498 164.121 95.5443 163.488 94.494L165.696 92.6748C167.338 94.1135 169.08 95.4336 170.909 96.6252C171.281 96.8504 171.673 97.04 172.08 97.1916C172.194 97.2402 172.316 97.2663 172.44 97.2684C172.498 97.2684 172.44 97.2108 172.229 97.23C171.966 97.2675 171.72 97.3867 171.528 97.5708C171.456 97.6428 171.423 97.6908 171.403 97.7052V97.662L171.437 97.5708L171.514 97.3884L171.811 96.6636L172.085 95.9196C172.81 93.8614 173.399 91.7577 173.847 89.622C174.091 88.5372 174.327 87.4476 174.514 86.3532C174.701 85.2588 174.893 84.126 175.051 83.1084L180.797 83.7852Z" fill="#FF8B7B"/>
<path d="M181.539 81.5239C183.608 84.5191 180.378 94.7623 180.378 94.7623L171.258 92.5879C171.709 89.42 172.448 86.2998 173.466 83.2663C175.199 78.4327 179.039 77.8951 181.539 81.5239Z" fill="#FDC500"/>
<path d="M165.971 92.9243L163.73 89.7803L161.301 93.9947C161.301 93.9947 163.806 96.2555 165.141 95.0651L165.971 92.9243Z" fill="#FF8B7B"/>
<path d="M160.687 88.8442L158.844 92.425L161.306 93.985L163.73 89.7706L160.687 88.8442Z" fill="#FF8B7B"/>
<path d="M150.863 90.6059L153.23 87.5483L155.481 91.8683C155.481 91.8683 152.889 94.0187 151.593 92.7755L150.863 90.6059Z" fill="#FF8B7B"/>
<path d="M156.312 86.7515L158.006 90.4043L155.482 91.8635L153.23 87.5483L156.312 86.7515Z" fill="#FF8B7B"/>
<path d="M68.5444 63.8599C67.7188 62.2999 68.2276 59.6503 72.6676 59.6119C77.1076 59.5735 82.1236 59.7799 81.3556 55.7383C85.1956 56.3767 87.8356 59.8135 85.9828 62.0743C83.0116 65.6887 85.0948 68.2471 83.002 69.6391C80.0884 71.5879 79.162 81.1591 72.7732 78.8023C73.3684 75.2599 63.3844 67.0855 68.5444 63.8599Z" fill="#121212"/>
<path d="M89.1922 87.8599C89.2978 89.0071 89.437 90.2599 89.6098 91.4551C89.7826 92.6503 89.9554 93.8551 90.1954 95.0647C90.6325 97.4333 91.2454 99.7662 92.029 102.044L92.341 102.869L92.485 103.244C92.485 103.268 92.485 103.244 92.4514 103.244C92.3553 103.154 92.2321 103.098 92.101 103.085C92.0338 103.085 92.1298 103.119 92.2786 103.085C92.7232 102.968 93.1484 102.787 93.541 102.548C94.0402 102.272 94.5212 101.964 94.981 101.626C95.965 100.922 96.9118 100.168 97.8178 99.3655C98.7442 98.5639 99.6754 97.7191 100.563 96.8839L102.157 98.2279C100.659 100.378 98.9373 102.364 97.021 104.151C96.5059 104.619 95.9642 105.056 95.3986 105.461C94.7457 105.934 94.0257 106.306 93.2626 106.565C92.7181 106.743 92.1421 106.801 91.573 106.738C91.1969 106.694 90.8323 106.58 90.4978 106.402C90.1579 106.222 89.8537 105.981 89.6002 105.692C89.3845 105.447 89.2036 105.175 89.0626 104.881C89.0356 104.834 89.0115 104.786 88.9906 104.737L88.9378 104.621L88.8322 104.391L88.4194 103.469C87.4161 101.025 86.6416 98.4923 86.1058 95.9047C85.8322 94.6279 85.5874 93.3511 85.4098 92.0647C85.2322 90.7783 85.0738 89.5063 84.9922 88.1383L89.1922 87.8599Z" fill="#FFC3BD"/>
<path d="M87.601 83.0885C89.041 83.4629 89.8762 93.0773 89.8762 93.0773L86.0074 95.4053C86.0074 95.4053 83.6698 88.3013 84.025 85.2341C84.2842 83.0021 86.5066 82.8101 87.601 83.0885Z" fill="#FFC3BD"/>
<path d="M100.516 96.5956L102.738 93.082L104 97.0708C104 97.0708 102.176 98.9908 100.525 98.5108L100.516 96.5956Z" fill="#FFC3BD"/>
<path d="M106.002 91.916L106.876 95.3192L104.001 97.0712L102.738 93.0824L106.002 91.916Z" fill="#FFC3BD"/>
<path d="M79.3359 196.11H83.4543L85.2015 180.985H79.5519L79.3359 196.11Z" fill="#FFC3BD"/>
<path d="M53.4727 190.551L57.4615 191.583L63.5863 177.702L58.0663 176.142L53.4727 190.551Z" fill="#FFC3BD"/>
<path d="M58.0796 190.92L53.822 189.111C53.7494 189.077 53.6669 189.072 53.5906 189.096C53.5143 189.12 53.4496 189.171 53.4092 189.24L51.4892 192.404C51.4442 192.485 51.4168 192.575 51.4087 192.667C51.4007 192.76 51.4122 192.853 51.4425 192.941C51.4729 193.029 51.5213 193.109 51.5848 193.177C51.6482 193.245 51.7253 193.299 51.8108 193.335C53.3084 193.94 54.062 194.156 55.934 194.952C57.086 195.432 58.718 196.277 60.3068 196.954C61.8956 197.631 62.654 196.09 62.0492 195.668C59.3516 193.748 59.2556 192.687 58.6124 191.42C58.4985 191.196 58.31 191.02 58.0796 190.92Z" fill="#121212"/>
<path d="M83.5905 195.629H78.9633C78.8837 195.629 78.8066 195.657 78.7465 195.709C78.6864 195.761 78.6474 195.834 78.6369 195.913L78.1089 199.575C78.0995 199.667 78.1096 199.761 78.1386 199.849C78.1677 199.937 78.215 200.019 78.2774 200.087C78.3399 200.156 78.4162 200.211 78.5013 200.249C78.5863 200.286 78.6783 200.305 78.7713 200.305C80.3841 200.276 81.1713 200.185 83.1969 200.185C84.4449 200.185 87.0369 200.314 88.7649 200.314C90.4929 200.314 90.5841 198.605 89.8641 198.447C86.6385 197.756 85.3665 196.796 84.2817 195.884C84.088 195.721 83.8435 195.631 83.5905 195.629Z" fill="#121212"/>
<path d="M87.8415 83.0841C87.8415 83.0841 89.7999 83.7753 85.8735 107.938H69.1647C69.4479 101.132 69.4527 96.9369 66.2031 82.9785C68.5431 82.4865 70.9158 82.1656 73.3023 82.0185C75.8303 81.8382 78.3679 81.8382 80.8959 82.0185C84.1599 82.3257 87.8415 83.0841 87.8415 83.0841Z" fill="#121212"/>
<path d="M74.0544 73.46C74.5344 75.9032 75.0144 80.3816 73.3008 82.0088C75.4369 84.276 77.9249 86.1837 80.6688 87.6584C83.04 83.8184 80.8944 82.0088 80.8944 82.0088C78.1728 81.3608 78.24 79.34 78.7152 77.4392L74.0544 73.46Z" fill="#FFC3BD"/>
<path d="M74.2464 79.9543C75.6854 80.0775 77.1334 80.0485 78.5664 79.8679C78.5803 79.8658 78.5944 79.8684 78.6066 79.8754C78.6188 79.8824 78.6283 79.8933 78.6336 79.9063C78.6768 80.0167 78.792 80.3191 78.8832 80.5255C78.89 80.5389 78.8913 80.5544 78.8868 80.5688C78.8823 80.5831 78.8724 80.5951 78.8592 80.6023C78.3792 80.8471 76.0032 81.1591 74.0592 80.7943C74.0503 80.7927 74.0419 80.7892 74.0345 80.7841C74.0272 80.7789 74.021 80.7723 74.0164 80.7645C74.0119 80.7568 74.009 80.7481 74.0081 80.7392C74.0072 80.7302 74.0083 80.7212 74.0112 80.7127C74.088 80.4247 74.1696 80.1175 74.1984 80.0023C74.1995 79.9899 74.2049 79.9783 74.2136 79.9695C74.2224 79.9608 74.234 79.9554 74.2464 79.9543Z" fill="#664EFE"/>
<path opacity="0.2" d="M75.9563 75.1016L78.7163 77.4584C78.5989 77.8986 78.5202 78.3484 78.4811 78.8024C77.4395 78.6536 76.0091 77.5112 75.8987 76.4024C75.8423 75.9687 75.8618 75.5285 75.9563 75.1016Z" fill="#121212"/>
<path d="M71.4764 68.9957C72.4364 72.9701 72.7532 74.6693 75.1484 76.3733C78.7484 78.9317 83.4188 76.8869 83.6684 72.7109C83.894 68.9477 82.286 63.0821 78.0716 62.1797C77.1432 61.9761 76.1781 62.0132 75.2681 62.2877C74.3582 62.5622 73.5335 63.0649 72.8726 63.7479C72.2117 64.431 71.7364 65.2717 71.492 66.1903C71.2477 67.1088 71.2423 68.0745 71.4764 68.9957Z" fill="#FFC3BD"/>
<path d="M85.8902 107.938C85.8902 107.938 89.135 139.662 88.8662 152.218C88.5878 165.284 85.9862 181.436 85.9862 181.436H78.8054C78.8054 181.436 79.1126 166.047 78.6182 153.217C78.0854 139.23 73.6406 107.938 73.6406 107.938H85.8902Z" fill="#664EFE"/>
<path d="M78.1917 182.151H86.2893L86.8797 180.068L77.8125 179.813L78.1917 182.151Z" fill="#121212"/>
<path opacity="0.2" d="M78.676 115.834C82.78 124.095 79.4968 139.172 78.0472 144.778C77.3032 136.354 76.0456 126.058 75.0664 118.498C75.6904 114.221 76.7992 112.023 78.676 115.834Z" fill="#121212"/>
<path d="M81.4685 107.938C81.4685 107.938 77.6813 140.919 74.8205 151.508C71.4221 164.074 64.4813 177.956 64.4813 177.956L57.2812 175.926C57.2812 175.926 61.3181 158.982 63.9149 152.358C69.4589 138.226 64.7117 117.164 69.1421 107.938H81.4685Z" fill="#664EFE"/>
<path d="M56.8555 177.02L64.3195 179.089L65.6635 177.174L57.3835 174.414L56.8555 177.02Z" fill="#121212"/>
<path d="M78.185 69.0776C78.2426 69.404 78.4634 69.6392 78.665 69.6008C78.8666 69.5624 79.0058 69.2648 78.9482 68.9384C78.8906 68.612 78.6698 68.3768 78.4682 68.4152C78.2666 68.4536 78.1274 68.7512 78.185 69.0776Z" fill="#121212"/>
<path d="M81.8842 68.42C81.9466 68.7464 82.1626 68.9816 82.3642 68.9432C82.5658 68.9048 82.705 68.612 82.6474 68.2856C82.5898 67.9592 82.369 67.724 82.1674 67.7624C81.9658 67.8008 81.8266 68.0936 81.8842 68.42Z" fill="#121212"/>
<path d="M82.0781 67.7959L82.8269 67.4312C82.8269 67.4312 82.5245 68.1127 82.0781 67.7959Z" fill="#121212"/>
<path d="M80.8359 69.1396C81.2599 69.8339 81.7767 70.4669 82.3719 71.0212C82.2256 71.1689 82.0489 71.2831 81.8542 71.3561C81.6595 71.429 81.4513 71.4589 81.2439 71.4437L80.8359 69.1396Z" fill="#ED847E"/>
<path d="M79.5155 72.9797C79.7021 72.9794 79.8884 72.9633 80.0723 72.9317C80.0851 72.9294 80.0972 72.9246 80.108 72.9175C80.1188 72.9104 80.1281 72.9012 80.1353 72.8905C80.1424 72.8797 80.1474 72.8676 80.1497 72.8549C80.1521 72.8422 80.1519 72.8291 80.1491 72.8165C80.1474 72.804 80.1432 72.7919 80.1366 72.7811C80.13 72.7704 80.1212 72.761 80.1108 72.7538C80.1004 72.7466 80.0887 72.7416 80.0762 72.7392C80.0638 72.7368 80.0511 72.7369 80.0387 72.7397C79.633 72.8209 79.2139 72.8054 78.8153 72.6945C78.4167 72.5836 78.0498 72.3804 77.7443 72.1013C77.7358 72.092 77.7254 72.0846 77.7138 72.0795C77.7023 72.0744 77.6898 72.0718 77.6771 72.0718C77.6645 72.0718 77.652 72.0744 77.6404 72.0795C77.6289 72.0846 77.6185 72.092 77.6099 72.1013C77.592 72.1201 77.582 72.145 77.582 72.1709C77.582 72.1968 77.592 72.2218 77.6099 72.2405C78.1258 72.7238 78.8087 72.9887 79.5155 72.9797Z" fill="#121212"/>
<path d="M70.144 63.2983C72.5056 64.4599 74.8624 63.9559 74.9824 66.8887C75.1024 69.8215 71.0656 74.5687 70.144 71.2087C69.2224 67.8487 70.144 63.2983 70.144 63.2983Z" fill="#121212"/>
<path d="M70.8482 64.82C73.8962 66.0536 82.2914 66.3752 82.109 62.612C81.9266 58.8488 74.669 60.5144 72.5906 61.3208C70.5122 62.1272 70.8482 64.82 70.8482 64.82Z" fill="#121212"/>
<path d="M71.3074 71.9913C71.4581 72.3525 71.6785 72.6805 71.9561 72.9564C72.2336 73.2323 72.5629 73.4508 72.925 73.5993C73.885 73.9929 74.4946 73.1481 74.3218 72.1593C74.1634 71.2809 73.4722 70.0137 72.4498 70.0425C72.2248 70.0508 72.0055 70.1157 71.8122 70.2313C71.6189 70.3468 71.4579 70.5092 71.344 70.7035C71.2302 70.8978 71.1671 71.1176 71.1607 71.3427C71.1543 71.5678 71.2048 71.7909 71.3074 71.9913Z" fill="#FFC3BD"/>
<path d="M76.7584 66.8886C76.7847 66.8892 76.8109 66.8839 76.835 66.8731C76.8591 66.8623 76.8805 66.8463 76.8976 66.8262C77.0621 66.645 77.2667 66.5046 77.495 66.4163C77.7233 66.328 77.9691 66.2941 78.2128 66.3174C78.2635 66.3261 78.3157 66.315 78.3585 66.2864C78.4014 66.2579 78.4316 66.214 78.4432 66.1638C78.4517 66.1124 78.4399 66.0596 78.4104 66.0167C78.3809 65.9737 78.3358 65.9439 78.2848 65.9334C77.9768 65.897 77.6645 65.9346 77.374 66.0431C77.0835 66.1517 76.8231 66.328 76.6144 66.5574C76.5786 66.5949 76.5586 66.6448 76.5586 66.6966C76.5586 66.7484 76.5786 66.7983 76.6144 66.8358C76.6538 66.8712 76.7054 66.8901 76.7584 66.8886Z" fill="#121212"/>
<path d="M82.8103 66.3845C82.8352 66.3853 82.8599 66.3811 82.883 66.372C82.9061 66.3629 82.9271 66.3492 82.9447 66.3317C82.9629 66.3138 82.9773 66.2926 82.9871 66.2691C82.997 66.2456 83.002 66.2204 83.002 66.1949C83.002 66.1695 82.997 66.1442 82.9871 66.1208C82.9773 66.0973 82.9629 66.076 82.9447 66.0581C82.7371 65.8276 82.4766 65.6509 82.1857 65.5431C81.8948 65.4352 81.5821 65.3995 81.2743 65.4389C81.2494 65.4435 81.2256 65.453 81.2043 65.4669C81.1831 65.4807 81.1648 65.4987 81.1505 65.5197C81.1362 65.5406 81.1262 65.5643 81.1211 65.5891C81.116 65.614 81.1159 65.6396 81.1207 65.6645C81.1301 65.7152 81.159 65.7602 81.2012 65.7898C81.2434 65.8194 81.2955 65.8313 81.3463 65.8229C81.5879 65.7942 81.8327 65.8226 82.0612 65.906C82.2897 65.9894 82.4953 66.1254 82.6615 66.3029C82.6789 66.3265 82.7012 66.346 82.7269 66.3601C82.7526 66.3742 82.7811 66.3825 82.8103 66.3845Z" fill="#121212"/>
<path d="M68.2894 88.9591C67.459 91.1287 66.6622 93.4087 65.9566 95.6503C65.2523 97.8617 64.7053 100.12 64.3198 102.409C64.267 102.687 64.243 102.961 64.2142 103.234L64.171 103.642V103.815C64.2188 104.134 64.3351 104.438 64.5118 104.708C65.0801 105.633 65.7411 106.499 66.4846 107.29C68.0254 109.013 69.8014 110.65 71.5534 112.273L70.339 113.972C68.1619 112.714 66.1066 111.257 64.1998 109.618C63.1664 108.746 62.2414 107.754 61.4446 106.661C60.9075 105.937 60.5519 105.094 60.4078 104.204C60.3874 104.045 60.3778 103.884 60.379 103.724C60.379 103.623 60.379 103.618 60.379 103.565V103.441V102.961C60.379 102.625 60.4078 102.289 60.4462 101.967C60.7193 99.4323 61.2222 96.9276 61.9486 94.4839C62.6237 92.0708 63.4379 89.6989 64.387 87.3799L68.2894 88.9591Z" fill="#FFC3BD"/>
<path d="M66.239 82.9641C64.5974 83.6361 62.543 92.6169 62.543 92.6169L66.0326 95.4969C66.0326 95.4969 69.3206 88.7769 69.4646 85.7145C69.551 83.3769 67.679 82.3737 66.239 82.9641Z" fill="#FFC3BD"/>
<path d="M59.9708 192.217C60.0459 192.178 60.1115 192.123 60.163 192.055C60.2144 191.988 60.2504 191.911 60.2684 191.828C60.2869 191.772 60.29 191.712 60.2773 191.655C60.2647 191.597 60.2367 191.544 60.1964 191.501C59.8412 191.113 58.3724 191.367 58.2044 191.396C58.1861 191.401 58.1693 191.411 58.1559 191.424C58.1424 191.438 58.1327 191.454 58.1276 191.473C58.1232 191.491 58.1244 191.511 58.1313 191.529C58.1381 191.547 58.1502 191.562 58.166 191.573C58.6076 191.895 59.4236 192.413 59.9132 192.241C59.9335 192.236 59.9529 192.228 59.9708 192.217ZM58.4732 191.54C59.0636 191.458 59.8652 191.42 60.0524 191.621C60.0665 191.644 60.0739 191.67 60.0739 191.696C60.0739 191.722 60.0665 191.748 60.0524 191.77C60.0419 191.832 60.0156 191.89 59.9761 191.939C59.9366 191.988 59.8852 192.026 59.8268 192.049C59.582 192.149 59.078 191.962 58.4732 191.54Z" fill="#664EFE"/>
<path d="M58.8924 191.367C59.3196 191.161 59.7564 190.844 59.8188 190.551C59.8341 190.475 59.8229 190.396 59.7872 190.327C59.7514 190.258 59.6931 190.203 59.622 190.172C59.5572 190.134 59.4852 190.111 59.4106 190.103C59.3361 190.096 59.2609 190.104 59.19 190.129C58.6284 190.321 58.1532 191.41 58.134 191.453C58.1255 191.468 58.1211 191.484 58.1211 191.501C58.1211 191.518 58.1255 191.535 58.134 191.549C58.1431 191.563 58.1561 191.575 58.1714 191.581C58.1868 191.588 58.2038 191.59 58.2204 191.588C58.4545 191.549 58.6812 191.475 58.8924 191.367ZM59.1948 190.34L59.2524 190.316C59.2969 190.299 59.3445 190.293 59.3918 190.297C59.4392 190.301 59.485 190.316 59.526 190.34C59.6316 190.402 59.6364 190.465 59.6268 190.508C59.5692 190.791 58.878 191.223 58.3932 191.357C58.5665 190.954 58.843 190.603 59.1948 190.34Z" fill="#664EFE"/>
<path d="M85.1356 196.34C85.4893 196.373 85.8434 196.283 86.1388 196.086C86.2051 196.026 86.2556 195.951 86.2858 195.867C86.316 195.784 86.3248 195.694 86.3116 195.606C86.3089 195.551 86.2925 195.499 86.264 195.453C86.2354 195.406 86.1957 195.368 86.1484 195.342C85.6684 195.068 84.0028 195.908 83.8156 196.004C83.7972 196.013 83.7822 196.028 83.7727 196.046C83.7632 196.064 83.7597 196.085 83.7628 196.105C83.7661 196.125 83.7752 196.143 83.7888 196.157C83.8025 196.172 83.8202 196.182 83.8396 196.186C84.2661 196.276 84.6999 196.328 85.1356 196.34ZM85.87 195.49C85.9326 195.487 85.9952 195.498 86.0524 195.524C86.0723 195.534 86.089 195.549 86.1009 195.567C86.1127 195.586 86.1192 195.608 86.1196 195.63C86.1287 195.687 86.1228 195.746 86.1027 195.801C86.0825 195.855 86.0487 195.904 86.0044 195.942C85.7548 196.167 85.078 196.206 84.166 196.057C84.6981 195.775 85.2744 195.587 85.87 195.5V195.49Z" fill="#664EFE"/>
<path d="M83.8617 196.206H83.9049C84.3849 195.985 85.3449 195.097 85.2873 194.631C85.2873 194.521 85.1913 194.382 84.9225 194.353C84.8262 194.344 84.7291 194.354 84.6368 194.383C84.5445 194.412 84.4589 194.459 84.3849 194.521C83.8665 194.953 83.7705 196.062 83.7657 196.11C83.7651 196.126 83.7687 196.143 83.7763 196.158C83.7838 196.173 83.795 196.186 83.8089 196.196C83.8246 196.206 83.8435 196.209 83.8617 196.206ZM84.8217 194.535H84.8793C85.0569 194.535 85.0713 194.622 85.0713 194.646C85.1193 194.929 84.4617 195.606 83.9577 195.927C83.9975 195.46 84.1821 195.017 84.4857 194.66C84.534 194.616 84.5909 194.582 84.6528 194.56C84.7147 194.539 84.7803 194.53 84.8457 194.535H84.8217Z" fill="#664EFE"/>
<path d="M68.9133 106.959L68.4861 108.457C68.4285 108.572 68.5629 108.687 68.7597 108.687H85.9725C86.1213 108.687 86.2461 108.615 86.2557 108.519L86.4093 107.021C86.4093 106.921 86.2893 106.834 86.1213 106.834H69.1869C69.1344 106.829 69.0815 106.838 69.0335 106.86C68.9855 106.882 68.9441 106.916 68.9133 106.959Z" fill="#664EFE"/>
<path opacity="0.8" d="M68.9133 106.959L68.4861 108.457C68.4285 108.572 68.5629 108.687 68.7597 108.687H85.9725C86.1213 108.687 86.2461 108.615 86.2557 108.519L86.4093 107.021C86.4093 106.921 86.2893 106.834 86.1213 106.834H69.1869C69.1344 106.829 69.0815 106.838 69.0335 106.86C68.9855 106.882 68.9441 106.916 68.9133 106.959Z" fill="white"/>
<path d="M71.1877 108.85H70.7317C70.6453 108.85 70.5733 108.807 70.5829 108.749L70.7941 106.801C70.7941 106.748 70.8805 106.7 70.9669 106.7H71.4469C71.5381 106.7 71.6053 106.748 71.6005 106.801L71.3893 108.749C71.3557 108.807 71.2789 108.85 71.1877 108.85Z" fill="#664EFE"/>
<path d="M84.6949 108.85H84.2437C84.1525 108.85 84.0853 108.807 84.0901 108.749L84.3013 106.801C84.3013 106.748 84.3877 106.7 84.4789 106.7H84.9301C85.0213 106.7 85.0885 106.748 85.0837 106.801L84.8725 108.749C84.8677 108.807 84.7861 108.85 84.6949 108.85Z" fill="#664EFE"/>
<path d="M77.9416 108.85H77.4904C77.3992 108.85 77.3272 108.807 77.3368 108.749L77.548 106.801C77.548 106.748 77.6344 106.7 77.7256 106.7H78.1768C78.268 106.7 78.3352 106.748 78.3304 106.801L78.1192 108.749C78.1096 108.807 78.0328 108.85 77.9416 108.85Z" fill="#664EFE"/>
<path d="M71.0666 111.913L75.5018 112.292L72.5402 115.249C72.5402 115.249 70.001 114.514 69.6602 112.849L71.0666 111.913Z" fill="#FFC3BD"/>
<path d="M100.945 91.2196L98.0646 104.996C98.0273 105.173 98.0254 105.357 98.0591 105.535C98.0927 105.714 98.1612 105.884 98.2606 106.036C98.36 106.188 98.4884 106.319 98.6384 106.421C98.7884 106.524 98.9572 106.595 99.135 106.632L125.362 112.133C125.722 112.206 126.096 112.134 126.404 111.932C126.711 111.731 126.926 111.417 127.004 111.058L129.884 97.282C129.956 96.9227 129.885 96.5491 129.685 96.242C129.484 95.9349 129.172 95.7188 128.813 95.6404L102.586 90.1444C102.243 90.076 101.888 90.1376 101.588 90.3172C101.424 90.4149 101.282 90.5456 101.171 90.7009C101.061 90.8562 100.983 91.0329 100.945 91.2196Z" fill="#664EFE"/>
<path opacity="0.5" d="M100.945 91.2196L98.0646 104.996C98.0273 105.173 98.0254 105.357 98.0591 105.535C98.0927 105.714 98.1612 105.884 98.2606 106.036C98.36 106.188 98.4884 106.319 98.6384 106.421C98.7884 106.524 98.9572 106.595 99.135 106.632L125.362 112.133C125.722 112.206 126.096 112.134 126.404 111.932C126.711 111.731 126.926 111.417 127.004 111.058L129.884 97.282C129.956 96.9227 129.885 96.5491 129.685 96.242C129.484 95.9349 129.172 95.7188 128.813 95.6404L102.586 90.1444C102.243 90.076 101.888 90.1376 101.588 90.3172C101.424 90.4149 101.282 90.5456 101.171 90.7009C101.061 90.8562 100.983 91.0329 100.945 91.2196Z" fill="#121212"/>
<path d="M129.657 96.2167L125.515 98.3239L117.297 102.495C116.153 103.08 114.843 103.256 113.585 102.994C112.327 102.732 111.196 102.048 110.38 101.055L104.692 94.0999L101.582 90.3127C101.884 90.1349 102.241 90.0734 102.585 90.1399L104.875 90.6199L125.688 94.9831L128.808 95.6359C129.154 95.7147 129.458 95.9223 129.657 96.2167Z" fill="#664EFE"/>
<path d="M126.507 79.4553L125.687 95.0025L125.514 98.3241L117.296 102.495C116.152 103.08 114.842 103.256 113.584 102.994C112.326 102.732 111.195 102.048 110.379 101.055L104.691 94.1001L104.874 90.6201L105.522 78.3321C105.542 77.9989 105.692 77.6869 105.939 77.4633C106.187 77.2397 106.513 77.1225 106.847 77.1369L125.312 78.0969C125.48 78.1061 125.645 78.1486 125.797 78.2222C125.948 78.2957 126.084 78.3987 126.195 78.5252C126.306 78.6517 126.391 78.7991 126.445 78.9588C126.499 79.1185 126.52 79.2873 126.507 79.4553Z" fill="#664EFE"/>
<path opacity="0.9" d="M126.507 79.4553L125.687 95.0025L125.514 98.3241L117.296 102.495C116.152 103.08 114.842 103.256 113.584 102.994C112.326 102.732 111.195 102.048 110.379 101.055L104.691 94.1001L104.874 90.6201L105.522 78.3321C105.542 77.9989 105.692 77.6869 105.939 77.4633C106.187 77.2397 106.513 77.1225 106.847 77.1369L125.312 78.0969C125.48 78.1061 125.645 78.1486 125.797 78.2222C125.948 78.2957 126.084 78.3987 126.195 78.5252C126.306 78.6517 126.391 78.7991 126.445 78.9588C126.499 79.1185 126.52 79.2873 126.507 79.4553Z" fill="white"/>
<path opacity="0.1" d="M111.359 99.1349L104.768 92.6597L104.691 94.0997L110.399 101.045C111.215 102.038 112.345 102.722 113.603 102.984C114.861 103.246 116.171 103.07 117.315 102.485L125.533 98.3141L125.615 96.7589L117.33 100.253C116.336 100.68 115.237 100.801 114.174 100.602C113.111 100.403 112.131 99.892 111.359 99.1349Z" fill="#121212"/>
<path d="M107.52 83.0212L107.721 79.2148L108.489 79.258L108.288 83.0596L107.52 83.0212Z" fill="#664EFE"/>
<path d="M109.027 83.1033L109.229 79.2969L109.978 79.3353L111.418 81.9609L111.547 79.4169L112.263 79.4553L112.061 83.2617L111.293 83.2233L109.872 80.6601L109.743 83.1417L109.027 83.1033Z" fill="#664EFE"/>
<path d="M113.833 83.3574L112.672 79.479L113.507 79.5222L114.323 82.4022L115.403 79.6374L116.219 79.6806L114.654 83.415L113.833 83.3574Z" fill="#664EFE"/>
<path d="M116.387 83.4919L116.588 79.6855L117.356 79.7239L117.155 83.5303L116.387 83.4919Z" fill="#664EFE"/>
<path d="M118.741 83.6168L118.909 80.4536L117.781 80.3912L117.815 79.748L120.839 79.9064L120.805 80.5496L119.677 80.492L119.509 83.6552L118.741 83.6168Z" fill="#664EFE"/>
<path d="M121.133 83.7415L121.334 79.9351L124.157 80.0839L124.123 80.7271L122.069 80.6167L122.026 81.4615L123.946 81.5623L123.912 82.2055L121.992 82.1047L121.939 83.1415L124.066 83.2519L124.032 83.8951L121.133 83.7415Z" fill="#664EFE"/>
<path d="M78.0398 114.649L75.4238 116.991L71.9102 115.014L75.5054 112.292L78.0398 114.649Z" fill="#FFC3BD"/>
<path d="M78.3789 68.4488L79.1229 68.084C79.1229 68.084 78.8301 68.7704 78.3789 68.4488Z" fill="#121212"/>
</svg>
