<svg width="280" height="280" viewBox="0 0 280 280" fill="none" xmlns="http://www.w3.org/2000/svg">
<path d="M119.661 180.164L119.146 183.317L118.597 186.705L113.557 217.6H105.319L110.354 186.705L110.908 183.317L111.423 180.164H119.661Z" fill="#D8D8D8"/>
<path d="M118.468 180.164C118.032 183.294 117.567 186.419 117.096 189.538L115.64 198.907L114.117 208.259L113.333 212.93L112.516 217.6L113.188 212.907L113.888 208.22L115.36 198.857L116.884 189.505C117.382 186.386 117.908 183.272 118.468 180.164Z" fill="#C7C7C7"/>
<path d="M119.146 183.316L118.597 186.704H110.354L110.908 183.316H119.146Z" fill="#C7C7C7"/>
<path d="M160.34 180.164L160.855 183.317L161.404 186.705L166.444 217.6H174.681L169.647 186.705L169.093 183.317L168.577 180.164H160.34Z" fill="#D8D8D8"/>
<path d="M161.561 180.164C161.992 183.294 162.462 186.419 162.933 189.538L164.383 198.907L165.906 208.259L166.696 212.93L167.513 217.6L166.841 212.907L166.141 208.22L164.685 198.857L163.162 189.505C162.641 186.386 162.115 183.272 161.561 180.164Z" fill="#C7C7C7"/>
<path d="M160.854 183.316H169.092L169.646 186.704H161.403L160.854 183.316Z" fill="#C7C7C7"/>
<path d="M119.359 171.472H112.829L113.641 165.379H118.547L119.359 171.472Z" fill="#C7C7C7"/>
<path d="M122.092 162.096C122.676 158.786 120.466 155.628 117.156 155.044C113.845 154.459 110.687 156.669 110.103 159.98C109.519 163.291 111.729 166.448 115.039 167.033C118.35 167.617 121.508 165.407 122.092 162.096Z" fill="#664EFE"/>
<path d="M120.6 162.098C121.19 159.609 119.65 157.113 117.161 156.524C114.673 155.934 112.177 157.473 111.587 159.962C110.998 162.451 112.537 164.947 115.026 165.537C117.515 166.126 120.01 164.587 120.6 162.098Z" fill="white"/>
<path d="M119.964 160.76C119.921 160.208 119.764 159.671 119.504 159.182C119.244 158.694 118.886 158.264 118.452 157.92C118.015 157.581 117.514 157.334 116.978 157.195C116.443 157.055 115.885 157.026 115.338 157.108C114.795 157.194 114.276 157.393 113.815 157.692C113.354 157.991 112.961 158.383 112.661 158.844C112.345 159.337 112.138 159.892 112.054 160.472C111.97 161.051 112.011 161.642 112.174 162.204C112.452 163.176 113.102 163.999 113.983 164.495C114.842 164.983 115.851 165.138 116.817 164.932C117.751 164.732 118.589 164.218 119.191 163.476C119.785 162.742 120.129 161.837 120.171 160.894C120.171 160.855 120.171 160.816 120.132 160.816C120.093 160.816 120.093 160.849 120.093 160.894C120.071 161.275 119.998 161.652 119.874 162.014C119.745 162.369 119.574 162.707 119.365 163.022C119.144 163.327 118.888 163.605 118.603 163.851C118.31 164.096 117.988 164.304 117.645 164.472C117.153 164.705 116.617 164.832 116.072 164.845C115.527 164.859 114.985 164.758 114.481 164.551C113.976 164.337 113.523 164.015 113.154 163.609C112.785 163.203 112.508 162.722 112.342 162.199C112.172 161.661 112.12 161.093 112.19 160.534C112.26 159.974 112.449 159.436 112.745 158.956C113.032 158.501 113.413 158.113 113.862 157.817C114.311 157.522 114.818 157.326 115.349 157.243C116.067 157.129 116.803 157.211 117.478 157.48C118.153 157.749 118.743 158.195 119.185 158.772C119.398 159.069 119.572 159.393 119.701 159.735C119.825 160.082 119.908 160.443 119.947 160.81C119.947 160.81 119.964 160.776 119.964 160.76Z" fill="#D8D8D8"/>
<path d="M119.42 160.765C119.38 160.293 119.243 159.833 119.017 159.416C118.792 158.999 118.483 158.633 118.11 158.34C117.735 158.053 117.307 157.842 116.85 157.721C116.394 157.6 115.918 157.57 115.45 157.635C114.982 157.705 114.534 157.872 114.135 158.127C113.737 158.382 113.396 158.718 113.137 159.113C112.861 159.535 112.678 160.011 112.6 160.51C112.523 161.008 112.553 161.517 112.689 162.003C112.804 162.423 113.003 162.817 113.272 163.16C113.541 163.503 113.876 163.79 114.257 164.002C115.005 164.43 115.886 164.562 116.726 164.372C117.537 164.197 118.263 163.748 118.782 163.1C119.295 162.463 119.591 161.678 119.627 160.86C119.627 160.827 119.627 160.793 119.594 160.793C119.56 160.793 119.549 160.821 119.549 160.86C119.503 161.517 119.283 162.149 118.91 162.691C118.538 163.234 118.028 163.667 117.432 163.946C117.008 164.152 116.545 164.266 116.074 164.28C115.603 164.293 115.134 164.206 114.699 164.024C114.262 163.839 113.87 163.561 113.55 163.209C113.231 162.857 112.993 162.44 112.851 161.986C112.706 161.52 112.664 161.029 112.727 160.545C112.791 160.062 112.96 159.598 113.221 159.186C113.467 158.798 113.795 158.467 114.182 158.218C114.569 157.968 115.005 157.806 115.461 157.741C116.07 157.651 116.693 157.723 117.266 157.951C117.838 158.18 118.34 158.555 118.72 159.04C118.903 159.293 119.053 159.568 119.168 159.858C119.273 160.156 119.346 160.463 119.386 160.776L119.42 160.765Z" fill="#D8D8D8"/>
<path d="M118.877 160.77C118.837 160.376 118.717 159.995 118.524 159.649C118.332 159.304 118.071 159.001 117.757 158.76C117.128 158.281 116.336 158.068 115.551 158.166C115.158 158.218 114.781 158.353 114.444 158.561C114.107 158.77 113.818 159.047 113.596 159.376C113.357 159.73 113.196 160.132 113.126 160.555C113.055 160.977 113.076 161.409 113.188 161.823C113.282 162.183 113.448 162.521 113.676 162.815C113.904 163.11 114.19 163.355 114.515 163.536C115.157 163.895 115.909 164.003 116.626 163.839C117.317 163.678 117.931 163.282 118.362 162.719C118.789 162.178 119.039 161.519 119.079 160.832C119.079 160.798 119.079 160.77 119.04 160.77C119.033 160.771 119.027 160.773 119.021 160.776C119.015 160.779 119.01 160.783 119.006 160.789C119.001 160.794 118.998 160.8 118.996 160.806C118.995 160.813 118.994 160.819 118.995 160.826C118.951 161.377 118.764 161.907 118.452 162.363C118.139 162.819 117.712 163.185 117.214 163.424C116.857 163.601 116.467 163.699 116.069 163.712C115.671 163.726 115.275 163.655 114.907 163.503C114.535 163.349 114.202 163.115 113.932 162.816C113.661 162.518 113.461 162.163 113.344 161.778C113.228 161.386 113.198 160.973 113.256 160.568C113.314 160.163 113.459 159.776 113.68 159.432C113.892 159.111 114.17 158.84 114.496 158.637C114.821 158.434 115.187 158.304 115.568 158.256C116.071 158.196 116.581 158.256 117.057 158.429C117.537 158.611 117.957 158.921 118.272 159.325C118.428 159.531 118.557 159.757 118.653 159.997C118.747 160.243 118.813 160.498 118.849 160.759C118.849 160.759 118.883 160.776 118.877 160.77Z" fill="#D8D8D8"/>
<path d="M118.339 160.777C118.257 160.146 117.929 159.572 117.427 159.181C116.924 158.805 116.298 158.633 115.674 158.7C115.356 158.737 115.05 158.84 114.775 159.003C114.5 159.166 114.263 159.385 114.078 159.646C113.877 159.934 113.74 160.261 113.677 160.606C113.613 160.95 113.624 161.305 113.708 161.645C113.782 161.945 113.918 162.226 114.106 162.47C114.294 162.715 114.53 162.918 114.8 163.068C115.332 163.362 115.955 163.448 116.547 163.308C117.11 163.172 117.61 162.848 117.964 162.39C118.301 161.942 118.496 161.404 118.524 160.844C118.525 160.838 118.525 160.832 118.523 160.827C118.522 160.821 118.519 160.816 118.515 160.811C118.512 160.806 118.507 160.802 118.502 160.799C118.497 160.796 118.491 160.795 118.485 160.794C118.485 160.794 118.446 160.794 118.44 160.839C118.407 161.282 118.261 161.71 118.016 162.082C117.771 162.453 117.435 162.756 117.04 162.961C116.752 163.112 116.434 163.198 116.109 163.213C115.784 163.229 115.46 163.173 115.159 163.051C114.853 162.925 114.58 162.732 114.36 162.485C114.14 162.239 113.978 161.946 113.887 161.628C113.798 161.31 113.778 160.975 113.831 160.649C113.883 160.322 114.005 160.01 114.19 159.736C114.363 159.483 114.589 159.27 114.852 159.113C115.115 158.955 115.408 158.856 115.713 158.823C116.111 158.787 116.513 158.838 116.889 158.974C117.267 159.114 117.602 159.351 117.858 159.663C117.981 159.827 118.084 160.006 118.166 160.195C118.245 160.391 118.304 160.596 118.339 160.805V160.777Z" fill="#D8D8D8"/>
<path d="M167.031 171.472H160.496L161.308 165.379H166.219L167.031 171.472Z" fill="#C7C7C7"/>
<path d="M169.883 161.564C170.387 158.235 168.098 155.128 164.769 154.624C161.441 154.12 158.334 156.409 157.83 159.737C157.326 163.066 159.615 166.172 162.943 166.677C166.272 167.181 169.378 164.892 169.883 161.564Z" fill="#664EFE"/>
<path d="M168.338 161.726C168.724 159.198 166.986 156.835 164.458 156.45C161.929 156.064 159.567 157.801 159.182 160.33C158.796 162.858 160.533 165.221 163.062 165.606C165.59 165.992 167.953 164.255 168.338 161.726Z" fill="white"/>
<path d="M167.636 160.759C167.592 160.208 167.435 159.671 167.175 159.183C166.915 158.694 166.557 158.264 166.124 157.92C165.687 157.581 165.186 157.334 164.651 157.195C164.116 157.055 163.558 157.026 163.011 157.108C162.468 157.194 161.949 157.392 161.488 157.691C161.027 157.99 160.633 158.383 160.334 158.844C160.015 159.336 159.807 159.891 159.723 160.471C159.639 161.051 159.681 161.642 159.847 162.204C160.123 163.177 160.773 164.001 161.655 164.494C162.514 164.983 163.523 165.138 164.489 164.931C165.424 164.731 166.262 164.218 166.863 163.475C167.458 162.742 167.801 161.837 167.843 160.894C167.843 160.854 167.843 160.815 167.804 160.815C167.765 160.815 167.765 160.849 167.759 160.894C167.737 161.275 167.666 161.651 167.547 162.014C167.418 162.37 167.245 162.709 167.031 163.022C166.593 163.646 166.001 164.145 165.312 164.472C164.821 164.706 164.286 164.834 163.741 164.847C163.197 164.861 162.656 164.76 162.154 164.55C161.648 164.337 161.194 164.016 160.823 163.61C160.453 163.204 160.175 162.722 160.009 162.198C159.84 161.66 159.789 161.092 159.859 160.533C159.93 159.973 160.12 159.435 160.418 158.956C160.704 158.501 161.085 158.113 161.534 157.817C161.983 157.521 162.491 157.325 163.022 157.242C163.74 157.128 164.475 157.21 165.15 157.479C165.825 157.748 166.415 158.195 166.858 158.771C167.069 159.07 167.242 159.393 167.373 159.734C167.496 160.082 167.577 160.443 167.614 160.81C167.614 160.81 167.636 160.776 167.636 160.759Z" fill="#D8D8D8"/>
<path d="M167.093 160.765C167.05 160.293 166.912 159.835 166.687 159.418C166.461 159.001 166.154 158.635 165.782 158.34C165.408 158.053 164.98 157.842 164.523 157.721C164.066 157.6 163.59 157.57 163.122 157.635C162.653 157.704 162.204 157.871 161.805 158.126C161.405 158.381 161.064 158.717 160.804 159.113C160.528 159.535 160.345 160.011 160.267 160.51C160.19 161.008 160.22 161.517 160.356 162.003C160.471 162.423 160.67 162.817 160.939 163.16C161.208 163.503 161.543 163.79 161.924 164.002C162.672 164.429 163.553 164.561 164.393 164.372C165.206 164.198 165.934 163.749 166.454 163.1C166.965 162.462 167.261 161.678 167.3 160.86C167.3 160.827 167.3 160.793 167.261 160.793C167.221 160.793 167.221 160.821 167.216 160.86C167.171 161.516 166.952 162.148 166.581 162.691C166.209 163.233 165.7 163.667 165.105 163.946C164.681 164.152 164.218 164.266 163.747 164.28C163.275 164.293 162.807 164.206 162.372 164.024C161.933 163.84 161.54 163.562 161.219 163.21C160.899 162.858 160.66 162.44 160.518 161.986C160.375 161.52 160.333 161.029 160.397 160.546C160.461 160.062 160.628 159.599 160.888 159.186C161.135 158.799 161.464 158.469 161.85 158.22C162.237 157.97 162.673 157.807 163.128 157.741C163.739 157.648 164.364 157.719 164.939 157.947C165.514 158.176 166.017 158.553 166.398 159.04C166.583 159.292 166.734 159.567 166.846 159.858C166.956 160.154 167.03 160.463 167.065 160.776C167.07 160.777 167.075 160.776 167.08 160.774C167.084 160.772 167.089 160.769 167.093 160.765Z" fill="#D8D8D8"/>
<path d="M166.55 160.772C166.507 160.379 166.386 159.998 166.193 159.653C166.001 159.308 165.741 159.004 165.43 158.761C164.8 158.283 164.008 158.07 163.223 158.168C162.833 158.221 162.458 158.356 162.123 158.565C161.788 158.773 161.501 159.05 161.28 159.377C161.041 159.732 160.88 160.134 160.809 160.556C160.737 160.978 160.757 161.41 160.866 161.824C160.963 162.184 161.131 162.521 161.359 162.816C161.588 163.11 161.874 163.355 162.199 163.538C162.839 163.896 163.589 164.004 164.304 163.84C164.997 163.68 165.612 163.284 166.046 162.72C166.474 162.181 166.722 161.521 166.757 160.833C166.757 160.8 166.757 160.772 166.723 160.772C166.717 160.772 166.71 160.774 166.705 160.777C166.699 160.781 166.694 160.785 166.689 160.79C166.685 160.795 166.682 160.801 166.68 160.808C166.678 160.814 166.678 160.821 166.679 160.828C166.634 161.378 166.446 161.908 166.134 162.364C165.822 162.819 165.395 163.186 164.898 163.426C164.541 163.602 164.151 163.7 163.753 163.714C163.355 163.727 162.959 163.656 162.591 163.504C162.219 163.351 161.886 163.116 161.615 162.818C161.345 162.519 161.145 162.165 161.028 161.78C160.912 161.387 160.882 160.975 160.94 160.57C160.998 160.165 161.143 159.777 161.364 159.433C161.574 159.112 161.851 158.841 162.176 158.638C162.501 158.435 162.866 158.305 163.246 158.257C163.751 158.197 164.263 158.257 164.741 158.431C165.221 158.612 165.641 158.922 165.956 159.327C166.112 159.533 166.24 159.759 166.337 159.999C166.426 160.246 166.492 160.501 166.533 160.76C166.537 160.766 166.543 160.77 166.55 160.772Z" fill="#D8D8D8"/>
<path d="M166.007 160.777C165.968 160.464 165.868 160.162 165.712 159.888C165.557 159.614 165.348 159.374 165.1 159.181C164.597 158.805 163.971 158.633 163.347 158.699C163.029 158.734 162.721 158.836 162.446 158.999C162.171 159.163 161.934 159.383 161.751 159.646C161.55 159.933 161.413 160.261 161.35 160.605C161.286 160.95 161.297 161.305 161.381 161.645C161.455 161.944 161.591 162.225 161.779 162.47C161.966 162.715 162.203 162.918 162.473 163.067C163.003 163.362 163.624 163.447 164.215 163.308C164.779 163.171 165.28 162.847 165.637 162.39C165.974 161.942 166.169 161.404 166.197 160.844C166.199 160.839 166.199 160.833 166.198 160.827C166.198 160.821 166.195 160.816 166.192 160.811C166.189 160.806 166.185 160.802 166.18 160.799C166.175 160.796 166.169 160.794 166.164 160.794C166.152 160.794 166.14 160.798 166.132 160.807C166.123 160.815 166.119 160.827 166.119 160.839C166.078 161.284 165.923 161.712 165.669 162.081C165.415 162.45 165.07 162.747 164.668 162.944C164.381 163.094 164.064 163.18 163.74 163.195C163.416 163.211 163.093 163.155 162.792 163.034C162.487 162.908 162.214 162.715 161.994 162.468C161.774 162.222 161.612 161.929 161.521 161.611C161.431 161.293 161.412 160.958 161.464 160.632C161.516 160.305 161.639 159.993 161.824 159.719C161.996 159.465 162.222 159.253 162.485 159.095C162.748 158.938 163.042 158.839 163.347 158.806C163.743 158.77 164.143 158.821 164.517 158.957C164.896 159.095 165.231 159.333 165.486 159.646C165.613 159.809 165.718 159.988 165.8 160.178C165.879 160.374 165.937 160.579 165.973 160.788C165.973 160.788 166.012 160.783 166.007 160.777Z" fill="#D8D8D8"/>
<path d="M181.048 168.369H98.9463V184.072H181.048V168.369Z" fill="#664EFE"/>
<path d="M115.825 168.369L109.866 184.072H99.2598L105.218 168.369H115.825Z" fill="#D8D8D8"/>
<path d="M137.559 168.369L131.601 184.072H120.994L126.953 168.369H137.559Z" fill="#D8D8D8"/>
<path d="M159.287 168.369L153.334 184.072H142.728L148.686 168.369H159.287Z" fill="#D8D8D8"/>
<path d="M181.026 168.369L175.067 184.072H164.461L170.419 168.369H181.026Z" fill="#D8D8D8"/>
<path d="M179.39 198.594H100.609V208.534H179.39V198.594Z" fill="#664EFE"/>
<path d="M116.799 198.594L111.087 208.528H100.912L106.63 198.594H116.799Z" fill="#D8D8D8"/>
<path d="M137.659 198.594L131.942 208.528H121.761L127.478 198.594H137.659Z" fill="#D8D8D8"/>
<path d="M158.508 198.594L152.79 208.528H142.615L148.333 198.594H158.508Z" fill="#D8D8D8"/>
<path d="M179.363 198.594L173.645 208.528H163.47L169.187 198.594H179.363Z" fill="#D8D8D8"/>
<path d="M261.969 93.582H198.588C198.588 93.582 204.871 76.418 214.542 76.418C224.213 76.418 227.243 88.262 227.243 88.262C227.243 88.262 233.767 81.8276 239.132 81.8276C244.497 81.8276 249.15 90.334 249.15 90.334C249.15 90.334 256.727 85.7588 261.969 93.582Z" fill="#D8D8D8"/>
<path d="M92.1038 53.3235H62.4854C62.4854 53.3235 69.099 43.7363 74.3182 43.7363C79.5374 43.7363 81.0718 50.1259 81.0718 50.1259C81.0718 50.1259 84.7509 47.1467 88.1613 47.6787C91.5717 48.2107 92.1038 53.3235 92.1038 53.3235Z" fill="#D8D8D8"/>
<path d="M251.877 122.366H222.259C222.259 122.366 228.878 112.779 234.092 112.779C239.305 112.779 240.845 119.169 240.845 119.169C240.845 119.169 244.524 116.184 247.935 116.722C251.345 117.259 251.877 122.366 251.877 122.366Z" fill="#D8D8D8"/>
<path d="M75.729 77.3531H18.0322C18.0322 77.3531 25.9338 59.7131 34.3842 58.6099C42.8346 57.5067 46.8778 71.7139 46.8778 71.7139C46.8778 71.7139 52.3322 66.6739 56.6162 66.6739C60.9002 66.6739 64.2098 73.2875 64.2098 73.2875C64.2098 73.2875 72.8002 68.7739 75.729 77.3531Z" fill="#D8D8D8"/>
<path d="M20.1094 217.739L49.8006 217.605L79.4974 217.554L138.88 217.459L198.268 217.554L227.959 217.605L257.65 217.739L227.959 217.873L198.268 217.924L138.88 218.019L79.4974 217.924L49.8006 217.873L20.1094 217.739Z" fill="#121212"/>
<path d="M140 261.872C204.977 261.872 257.65 255.732 257.65 248.158C257.65 240.584 204.977 234.443 140 234.443C75.0235 234.443 22.3496 240.584 22.3496 248.158C22.3496 255.732 75.0235 261.872 140 261.872Z" fill="#DCD7FE"/>
<path d="M155.383 250.718C156.548 251.11 189.89 251.227 191.167 250.426C191.654 250.124 191.951 245.269 192.147 239.394C192.192 238.123 192.225 236.813 192.259 235.474L194.958 217.694L172.67 217.549L170.564 235.34L170.648 239.26C170.648 239.26 157.864 244.927 156.559 245.952C155.254 246.977 154.224 250.32 155.383 250.718Z" fill="#EB9481"/>
<path d="M155.383 250.718C156.548 251.11 189.89 251.227 191.167 250.426C191.755 250.057 192.08 242.967 192.259 235.48L170.564 235.346L170.648 239.266C170.648 239.266 157.864 244.933 156.559 245.958C155.254 246.982 154.224 250.32 155.383 250.718Z" fill="white"/>
<path d="M155.383 250.719C156.548 251.111 189.89 251.229 191.167 250.428C191.654 250.125 191.951 245.27 192.147 239.396L170.648 239.256C170.648 239.256 157.864 244.923 156.559 245.948C155.254 246.973 154.224 250.321 155.383 250.719Z" fill="#FFC727"/>
<path d="M155.87 249.386C161.47 249.269 184.016 249.319 189.549 249.627C189.594 249.627 189.594 249.661 189.549 249.666C184.01 249.902 161.454 249.666 155.865 249.476C155.747 249.47 155.753 249.386 155.87 249.386Z" fill="#121212"/>
<path d="M158.709 244.754C159.335 244.736 159.957 244.85 160.535 245.087C161.114 245.324 161.637 245.68 162.069 246.131C162.852 246.932 163.297 248.002 163.313 249.122C163.313 249.155 163.245 249.155 163.24 249.122C163.057 248.018 162.522 247.003 161.714 246.229C160.907 245.455 159.87 244.963 158.76 244.827C158.75 244.833 158.738 244.836 158.727 244.834C158.715 244.832 158.705 244.825 158.698 244.815C158.692 244.806 158.689 244.794 158.691 244.782C158.693 244.771 158.7 244.76 158.709 244.754Z" fill="#121212"/>
<path d="M168.481 239.804C170.721 239.804 173.308 240.583 174.691 242.414C174.747 242.487 174.647 242.559 174.579 242.526C172.619 241.494 170.554 240.674 168.419 240.079C168.383 240.07 168.351 240.048 168.331 240.017C168.311 239.985 168.305 239.947 168.313 239.911C168.321 239.874 168.343 239.843 168.375 239.823C168.406 239.803 168.445 239.796 168.481 239.804Z" fill="#121212"/>
<path d="M166.751 240.471C168.991 240.471 171.578 241.249 172.961 243.086C173.017 243.153 172.917 243.232 172.85 243.192C170.89 242.159 168.825 241.341 166.69 240.751C166.658 240.738 166.632 240.714 166.616 240.684C166.6 240.653 166.596 240.618 166.603 240.585C166.61 240.552 166.629 240.522 166.656 240.501C166.683 240.48 166.717 240.469 166.751 240.471Z" fill="#121212"/>
<path d="M165.021 241.142C167.261 241.114 169.848 241.915 171.237 243.752C171.287 243.819 171.187 243.897 171.119 243.864C169.161 242.826 167.096 242.006 164.959 241.416C164.923 241.408 164.891 241.386 164.871 241.355C164.851 241.323 164.845 241.285 164.853 241.248C164.861 241.212 164.883 241.18 164.915 241.16C164.946 241.141 164.985 241.134 165.021 241.142Z" fill="#121212"/>
<path d="M163.291 241.808C165.531 241.808 168.123 242.581 169.507 244.418C169.557 244.485 169.456 244.563 169.389 244.53C167.431 243.492 165.365 242.672 163.229 242.083C163.193 242.074 163.161 242.052 163.141 242.021C163.121 241.989 163.114 241.951 163.123 241.915C163.131 241.878 163.153 241.846 163.185 241.827C163.216 241.807 163.254 241.8 163.291 241.808Z" fill="#121212"/>
<path d="M188.16 244.313C190.674 244.313 190.652 248.233 188.16 248.233C185.668 248.233 185.629 244.296 188.16 244.313Z" fill="#121212"/>
<path d="M166.252 237.105C167.451 238.668 169.288 239.659 170.878 240.762C170.915 240.783 170.957 240.795 171 240.797C171.043 240.799 171.086 240.791 171.125 240.774C171.164 240.757 171.199 240.73 171.226 240.697C171.253 240.664 171.272 240.625 171.281 240.583C171.29 240.585 171.299 240.584 171.308 240.582C171.316 240.58 171.324 240.575 171.331 240.569C171.337 240.563 171.342 240.556 171.345 240.547C171.349 240.539 171.35 240.53 171.348 240.521C171.193 238.468 170.499 236.492 169.338 234.792C168.644 233.812 167.221 232.894 166.084 233.829C164.948 234.764 165.547 236.198 166.252 237.105ZM166.152 235.252C166.387 232.821 168.576 234.692 169.058 235.436C169.362 235.922 169.633 236.427 169.87 236.948C170.342 238.034 170.758 239.142 171.119 240.269C170.374 239.676 169.579 239.149 168.812 238.589C167.899 237.923 166.028 236.596 166.152 235.252Z" fill="#121212"/>
<path d="M179.301 239.121C179.133 237.659 177.464 237.34 176.288 237.558C174.274 237.981 172.405 238.923 170.867 240.291C170.859 240.296 170.852 240.303 170.848 240.311C170.843 240.32 170.841 240.329 170.841 240.339C170.841 240.348 170.843 240.358 170.848 240.366C170.852 240.374 170.859 240.381 170.867 240.386C170.844 240.422 170.829 240.464 170.825 240.507C170.82 240.549 170.826 240.593 170.842 240.633C170.858 240.673 170.883 240.709 170.916 240.737C170.949 240.765 170.988 240.785 171.03 240.795C172.945 241.097 174.95 241.663 176.904 241.355C178.046 241.198 179.463 240.504 179.301 239.121ZM174.031 240.661C173.085 240.537 172.155 240.364 171.231 240.274C172.29 239.742 173.32 239.154 174.429 238.745C174.962 238.534 175.508 238.358 176.064 238.219C176.926 238.023 179.805 238.185 178.304 240.101C177.425 241.153 175.157 240.801 174.031 240.661Z" fill="#121212"/>
<path d="M227.718 135.486C227.718 135.486 201.829 179.525 201.135 182.616C200.071 187.37 194.415 234.287 194.415 234.287L167.479 233.806C167.479 233.806 172.121 192.433 176.517 178.808C179.687 168.991 202.529 136.433 202.529 136.433L227.718 135.486Z" fill="#37474F"/>
<path d="M169.938 229.674C173.807 229.646 187.516 229.495 192.663 229.971C192.673 229.971 192.683 229.975 192.69 229.982C192.698 229.989 192.702 229.999 192.702 230.01C192.702 230.02 192.698 230.03 192.69 230.038C192.683 230.045 192.673 230.049 192.663 230.049C190.893 230.301 173.807 229.903 169.938 229.78C169.929 229.783 169.92 229.784 169.912 229.782C169.903 229.781 169.895 229.778 169.887 229.772C169.88 229.767 169.874 229.76 169.87 229.752C169.866 229.745 169.864 229.736 169.864 229.727C169.864 229.718 169.866 229.709 169.87 229.702C169.874 229.694 169.88 229.687 169.887 229.682C169.895 229.676 169.903 229.673 169.912 229.672C169.92 229.67 169.929 229.671 169.938 229.674Z" fill="#121212"/>
<path d="M223.3 139.53C221.62 142.19 219.811 144.794 218.075 147.431C216.339 150.069 214.614 152.712 212.906 155.372C209.497 160.681 206.167 166.038 202.916 171.444C201.339 173.932 199.988 176.556 198.878 179.284C197.867 182.026 197.108 184.855 196.61 187.735C196.078 190.63 195.731 193.547 195.406 196.465C195.055 199.571 194.708 202.677 194.364 205.784C193.655 212.13 192.946 218.488 192.236 224.857C192.147 225.636 192.063 226.42 191.984 227.198C191.984 227.316 192.175 227.338 192.192 227.198C192.981 220.881 193.642 214.548 194.364 208.22L195.44 198.8C195.77 195.872 196.089 192.943 196.56 190.025C196.98 187.156 197.614 184.322 198.458 181.547C199.381 178.672 200.623 175.909 202.16 173.309C205.279 167.928 208.583 162.636 211.887 157.36C215.191 152.085 218.579 146.72 222.068 141.496C222.493 140.852 222.93 140.208 223.378 139.575C223.44 139.524 223.333 139.48 223.3 139.53Z" fill="#121212"/>
<path d="M204.831 254.42C206.057 254.499 239.142 245.779 240.173 244.682C240.218 244.615 240.245 244.538 240.251 244.458C240.38 243.371 238.689 239.311 237.501 234.109C237.429 233.779 236.807 232.199 235.933 230.066C233.531 224.214 229.247 214.156 229.247 214.156L207.648 219.7L215.6 235.688L216.675 239.446C216.675 239.446 205.749 248.187 204.753 249.526C203.756 250.864 203.61 254.331 204.831 254.42Z" fill="#EB9481"/>
<path d="M204.831 254.421C206.058 254.499 239.142 245.78 240.173 244.682C240.218 244.616 240.245 244.539 240.251 244.458C240.38 243.372 238.689 239.312 237.502 234.11C237.429 233.779 236.807 232.2 235.934 230.066L215.606 235.666L216.681 239.424C216.681 239.424 205.755 248.166 204.758 249.504C203.762 250.842 203.61 254.331 204.831 254.421Z" fill="white"/>
<path d="M204.831 254.415C206.058 254.505 239.142 245.78 240.173 244.682C240.565 244.268 239.708 239.793 237.502 234.109L216.681 239.452C216.681 239.452 205.755 248.182 204.758 249.532C203.762 250.881 203.61 254.331 204.831 254.415Z" fill="#FFC727"/>
<path d="M204.96 253.002C210.336 251.468 232.165 245.778 237.597 244.664C237.641 244.664 237.647 244.664 237.597 244.703C232.305 246.338 210.431 251.854 204.977 253.103C204.87 253.12 204.848 253.036 204.96 253.002Z" fill="#121212"/>
<path d="M206.533 247.807C207.13 247.634 207.757 247.588 208.373 247.671C208.989 247.754 209.581 247.964 210.111 248.288C211.07 248.865 211.772 249.786 212.071 250.864C212.071 250.898 212.015 250.915 212.004 250.864C211.543 249.84 210.762 248.993 209.779 248.45C208.795 247.908 207.662 247.7 206.55 247.857C206.546 247.862 206.541 247.866 206.536 247.869C206.53 247.871 206.524 247.872 206.517 247.872C206.511 247.871 206.505 247.868 206.5 247.864C206.496 247.86 206.492 247.855 206.49 247.849C206.488 247.843 206.488 247.837 206.489 247.83C206.491 247.824 206.494 247.819 206.498 247.814C206.503 247.81 206.508 247.807 206.515 247.805C206.521 247.804 206.527 247.804 206.533 247.807Z" fill="#121212"/>
<path d="M214.721 240.532C216.877 239.938 219.587 240.05 221.39 241.473C221.463 241.529 221.39 241.63 221.312 241.613C219.162 241.108 216.963 240.835 214.754 240.801C214.724 240.797 214.695 240.783 214.673 240.761C214.652 240.739 214.638 240.71 214.634 240.679C214.63 240.649 214.637 240.617 214.652 240.591C214.668 240.564 214.692 240.543 214.721 240.532Z" fill="#121212"/>
<path d="M213.22 241.618C215.376 241.024 218.086 241.136 219.889 242.559C219.962 242.615 219.889 242.715 219.805 242.699C217.654 242.204 215.455 241.943 213.248 241.92C213.208 241.924 213.168 241.912 213.137 241.886C213.106 241.86 213.086 241.823 213.083 241.783C213.079 241.743 213.091 241.703 213.117 241.672C213.143 241.641 213.18 241.622 213.22 241.618Z" fill="#121212"/>
<path d="M211.713 242.704C213.875 242.11 216.58 242.222 218.389 243.645C218.456 243.701 218.389 243.796 218.305 243.785C216.154 243.281 213.956 243.01 211.747 242.978C211.714 242.977 211.682 242.964 211.658 242.941C211.633 242.919 211.617 242.888 211.613 242.855C211.609 242.822 211.617 242.789 211.635 242.761C211.654 242.733 211.681 242.713 211.713 242.704Z" fill="#121212"/>
<path d="M210.213 243.786C212.369 243.198 215.079 243.31 216.883 244.732C216.955 244.788 216.883 244.883 216.804 244.866C214.653 244.368 212.455 244.099 210.247 244.066C210.21 244.07 210.172 244.06 210.143 244.036C210.113 244.013 210.094 243.98 210.09 243.942C210.085 243.905 210.096 243.868 210.119 243.838C210.142 243.809 210.176 243.79 210.213 243.786Z" fill="#121212"/>
<path d="M234.887 239.888C237.317 239.261 238.291 243.041 235.855 243.663C233.419 244.284 232.451 240.51 234.887 239.888Z" fill="#121212"/>
<path d="M211.875 238.488C213.438 239.692 215.465 240.168 217.279 240.845C217.321 240.857 217.365 240.858 217.407 240.85C217.449 240.841 217.489 240.823 217.522 240.796C217.556 240.769 217.583 240.735 217.601 240.696C217.619 240.657 217.628 240.614 217.627 240.571C217.636 240.571 217.645 240.568 217.653 240.564C217.661 240.559 217.668 240.553 217.673 240.545C217.678 240.537 217.681 240.528 217.681 240.519C217.682 240.51 217.681 240.501 217.677 240.492C217.004 238.543 215.829 236.805 214.272 235.452C213.354 234.685 211.741 234.153 210.879 235.352C210.016 236.55 210.968 237.788 211.875 238.488ZM211.315 236.724C210.923 234.31 213.516 235.57 214.171 236.164C214.59 236.554 214.981 236.973 215.342 237.418C216.077 238.344 216.763 239.309 217.397 240.308C216.523 239.927 215.622 239.624 214.737 239.272C213.673 238.857 211.528 238.051 211.31 236.724H211.315Z" fill="#121212"/>
<path d="M225.007 237.117C224.475 235.745 222.767 235.862 221.698 236.377C219.855 237.295 218.287 238.682 217.151 240.398C217.145 240.405 217.141 240.414 217.139 240.423C217.137 240.432 217.137 240.442 217.14 240.451C217.143 240.46 217.148 240.468 217.155 240.474C217.161 240.481 217.17 240.485 217.179 240.488C217.166 240.529 217.164 240.572 217.171 240.614C217.179 240.656 217.196 240.696 217.222 240.73C217.247 240.765 217.28 240.792 217.319 240.812C217.357 240.831 217.399 240.841 217.442 240.841C219.374 240.645 221.457 240.678 223.266 239.9C224.324 239.446 225.517 238.41 225.007 237.117ZM220.303 239.95C219.363 240.068 218.416 240.141 217.503 240.292C218.366 239.483 219.268 238.719 220.208 238.001C220.669 237.662 221.152 237.354 221.653 237.077C222.437 236.663 225.265 236.092 224.279 238.326C223.714 239.564 221.435 239.81 220.303 239.95Z" fill="#121212"/>
<path d="M214.121 234.641L238.324 228.291C238.324 228.291 215.152 182.69 215.364 179.543C215.532 176.743 232.338 152.282 233.284 147.701C234.802 140.203 231.151 133.505 227.612 129.361L202.58 136.417C202.58 136.417 204.573 140.746 208.236 143.479C208.236 143.479 192.505 169.743 192.102 178.389C191.699 187.036 214.121 234.641 214.121 234.641Z" fill="#37474F"/>
<path d="M213.663 230.161C217.168 229.159 216.149 229.4 219.671 228.431C221.396 227.96 232.725 224.864 234.405 224.701C234.444 224.701 234.461 224.757 234.405 224.774C232.859 225.468 221.48 228.369 219.75 228.806C216.211 229.702 217.213 229.405 213.663 230.268C213.623 230.273 213.595 230.161 213.663 230.161Z" fill="#121212"/>
<path d="M204.355 142.488C206.753 143.378 209.071 144.472 211.282 145.758C211.3 145.767 211.313 145.783 211.32 145.802C211.326 145.821 211.324 145.841 211.316 145.859C211.307 145.877 211.291 145.89 211.272 145.897C211.253 145.903 211.233 145.902 211.215 145.893C208.88 144.873 206.494 143.899 204.22 142.757C204.189 142.736 204.166 142.705 204.157 142.669C204.147 142.634 204.151 142.595 204.167 142.562C204.184 142.529 204.212 142.503 204.247 142.489C204.281 142.475 204.32 142.475 204.355 142.488Z" fill="#121212"/>
<path d="M207.295 141.871C207.472 142.311 207.622 142.762 207.743 143.221C207.874 143.579 207.933 143.96 207.916 144.341C207.909 144.354 207.898 144.364 207.885 144.372C207.873 144.379 207.858 144.383 207.843 144.383C207.829 144.383 207.814 144.379 207.801 144.372C207.789 144.364 207.778 144.354 207.771 144.341C207.561 144.006 207.402 143.642 207.3 143.26C207.149 142.84 206.987 142.426 206.852 142.006C206.757 141.737 207.199 141.602 207.295 141.871Z" fill="#121212"/>
<path d="M207.295 139.604C207.194 139.217 207.093 138.837 206.987 138.45C206.881 138.064 206.735 137.666 206.657 137.263C206.657 137.201 206.545 137.229 206.561 137.263C206.657 137.649 206.701 138.053 206.769 138.445C206.836 138.837 206.914 139.229 206.993 139.615C207.14 140.349 207.327 141.074 207.553 141.788C207.158 141.759 206.776 141.642 206.433 141.446C206.099 141.17 205.86 140.796 205.749 140.377C205.593 139.94 205.453 139.497 205.29 139.066C205.089 138.593 204.928 138.105 204.809 137.605C204.809 137.537 204.697 137.565 204.708 137.605C204.901 138.66 205.199 139.694 205.598 140.69C205.772 141.082 205.901 141.485 206.287 141.676C206.712 141.856 207.17 141.945 207.631 141.939C207.681 141.939 207.76 141.939 207.749 141.866C207.631 141.149 207.485 140.36 207.295 139.604Z" fill="#121212"/>
<path d="M207.709 144.353C206.757 146.072 205.671 147.713 204.652 149.393C203.632 151.073 202.714 152.708 201.784 154.388C199.914 157.782 198.178 161.265 196.593 164.804C195.809 166.555 195.063 168.326 194.353 170.118C193.615 171.902 193.007 173.736 192.533 175.606C192.088 177.473 192.004 179.409 192.287 181.307C192.641 183.254 193.143 185.171 193.788 187.042C195.085 191.326 196.664 195.52 198.514 199.597C198.576 199.731 198.8 199.63 198.749 199.49C197.428 195.761 196.061 192.042 194.868 188.29C193.72 184.628 192.354 180.831 192.987 176.939C193.34 175.072 193.873 173.244 194.577 171.479C195.257 169.665 195.981 167.871 196.75 166.098C198.273 162.598 199.976 159.198 201.723 155.81C202.697 153.912 203.722 152.036 204.713 150.143C205.704 148.25 206.679 146.29 207.793 144.454C207.827 144.347 207.76 144.302 207.709 144.353Z" fill="#121212"/>
<path d="M225.937 140.678C225.483 140.606 224.817 140.762 222.863 140.628C222.319 140.58 221.78 140.492 221.25 140.365C220.712 140.281 220.2 140.074 219.755 139.76C219.045 139.088 218.466 138.291 218.047 137.408C217.523 136.498 217.122 135.522 216.854 134.507C216.854 134.446 216.747 134.474 216.759 134.535C216.865 135.095 216.921 135.655 217.072 136.249C217.216 136.782 217.404 137.303 217.632 137.806C217.992 138.801 218.594 139.69 219.385 140.393C220.27 141.059 221.507 141.182 222.577 141.261C223.199 141.306 225.635 141.261 225.937 140.891C226.027 140.83 226.021 140.695 225.937 140.678Z" fill="#121212"/>
<path d="M232.316 223.082C229.262 216.878 226.275 210.634 223.356 204.35C220.436 198.067 217.602 191.737 214.855 185.361C214.095 183.864 213.489 182.293 213.046 180.674C212.671 178.898 213.22 177.314 213.97 175.706C215.366 172.792 216.927 169.959 218.646 167.222C220.326 164.467 222.14 161.774 223.916 159.069C225.751 156.419 227.434 153.667 228.956 150.826C230.333 148.076 231.1 145.147 230.708 142.067C230.316 138.987 228.989 136.142 227.572 133.438C227.197 132.726 226.811 132.021 226.452 131.304C226.424 131.254 226.34 131.304 226.374 131.354C227.953 134.188 229.471 137.162 230.21 140.314C230.591 141.886 230.708 143.51 230.557 145.119C230.36 146.744 229.903 148.327 229.202 149.806C227.886 152.696 226.049 155.362 224.319 158.01C222.588 160.659 220.746 163.414 219.021 166.158C217.269 168.905 215.659 171.741 214.2 174.654C213.561 175.958 212.861 177.319 212.704 178.781C212.536 180.388 213.113 181.922 213.735 183.373C216.423 189.678 219.256 195.934 222.135 202.155C225.013 208.377 227.998 214.621 231.028 220.803L232.148 223.138C232.22 223.267 232.36 223.178 232.316 223.082Z" fill="#121212"/>
<path d="M202.025 82.6561C202.585 80.0969 205.43 74.3065 211.047 75.4377C219.066 77.0561 220.225 92.5065 224.218 97.3225C231.448 106.047 231.683 114.683 225.758 116.066C219.117 117.611 212.654 110.466 212.878 95.0657C213.029 85.4225 210.313 81.1497 208.398 81.4353C206.483 81.7209 205.425 84.1569 205.425 84.1569L202.025 82.6561Z" fill="#121212"/>
<path d="M202.294 81.6992C202.691 80.5054 203.23 79.364 203.901 78.3C204.574 77.2097 205.467 76.2714 206.522 75.5448C207.614 74.8066 208.911 74.4305 210.229 74.4696C211.536 74.509 212.814 74.8645 213.953 75.5056C215.064 76.1701 216.019 77.0659 216.753 78.132C217.479 79.1795 218.082 80.3069 218.551 81.492C219.44 83.8416 220.064 86.2835 220.41 88.772C219.8 86.366 219.01 84.0093 218.047 81.7216C217.547 80.603 216.934 79.5389 216.216 78.5464C215.518 77.5667 214.621 76.746 213.584 76.1384C212.545 75.5459 211.379 75.2099 210.184 75.1584C209.002 75.103 207.83 75.4076 206.824 76.032C205.793 76.6825 204.897 77.5269 204.187 78.5184C203.816 79.0134 203.474 79.5295 203.162 80.064C202.848 80.5792 202.563 81.1336 202.294 81.6992Z" fill="#121212"/>
<path d="M212.85 89.752C212.934 91.2808 212.85 92.8152 212.816 94.344C212.783 95.8728 212.721 97.396 212.715 98.9192C212.71 100.442 212.76 101.96 212.917 103.466C213.045 104.966 213.319 106.45 213.735 107.896C214.128 109.333 214.792 110.682 215.689 111.872C216.63 113.03 217.768 114.014 219.049 114.778C220.332 115.557 221.781 116.021 223.277 116.134C224.026 116.191 224.779 116.152 225.517 116.016C225.897 115.945 226.271 115.848 226.637 115.725C227.002 115.617 227.349 115.457 227.667 115.249C227.043 115.703 226.332 116.025 225.579 116.195C224.827 116.391 224.053 116.487 223.277 116.481C222.494 116.466 221.715 116.355 220.959 116.15C220.204 115.938 219.477 115.639 218.791 115.26C218.104 114.883 217.455 114.441 216.854 113.938L216.411 113.558L215.986 113.16C215.697 112.888 215.428 112.596 215.179 112.286C214.217 111.037 213.502 109.615 213.074 108.098C212.298 105.1 212 101.999 212.189 98.9079C212.234 97.3735 212.351 95.8447 212.486 94.3215C212.62 92.7983 212.799 91.2808 212.85 89.752Z" fill="#121212"/>
<path d="M201.567 82.7013C201.477 81.9901 201.908 81.0213 202.356 80.8477C202.804 80.6741 206.377 81.8221 206.752 82.6789C207.127 83.5357 205.683 84.4485 205.683 84.4485L201.567 82.7013Z" fill="#FFC727"/>
<path d="M205.844 107.924C203.644 111.065 187.728 124.063 179.048 124.544C175.128 124.757 159.796 123.088 156.38 121.683C152.185 119.958 160.479 109.57 163.1 110.012C166.381 110.572 178.018 111.799 180.336 111.86C184.055 111.956 195.456 105.7 203.134 104.071C207.104 103.236 207.547 105.504 205.844 107.924Z" fill="#EB9481"/>
<path d="M205.671 108.517C203.241 112.756 194.661 120.025 194.661 120.025L193.2 117.325L188.361 108.416C188.361 108.416 196.493 105.179 201.885 103.605C202.519 103.411 203.167 103.269 203.823 103.18C207.306 102.732 207.76 104.877 205.671 108.517Z" fill="#664EFE"/>
<path d="M205.671 108.519C203.24 112.758 194.661 120.027 194.661 120.027L193.199 117.327L192.203 115.491L188.355 108.423C188.355 108.423 196.492 105.175 201.885 103.602C202.519 103.413 203.167 103.272 203.823 103.182C203.892 103.177 203.961 103.177 204.03 103.182C207.323 102.823 207.726 104.951 205.671 108.519Z" fill="#664EFE"/>
<path d="M195.53 106.228C195.716 107.001 195.716 107.807 195.53 108.58C195.343 107.807 195.343 107.001 195.53 106.228ZM193.228 110.842C192.833 110.836 192.44 110.883 192.058 110.982C192.44 111.079 192.834 111.126 193.228 111.122C193.624 111.126 194.02 111.079 194.404 110.982C194.02 110.884 193.625 110.836 193.228 110.842ZM205.122 104.268C204.726 104.262 204.33 104.309 203.946 104.408C204.33 104.507 204.726 104.554 205.122 104.548C205.517 104.551 205.91 104.504 206.293 104.408C205.91 104.312 205.517 104.265 205.122 104.268ZM200.542 110.114C200.819 110.396 201.131 110.641 201.471 110.842C201.27 110.502 201.025 110.19 200.743 109.913C200.465 109.632 200.153 109.388 199.814 109.185C200.016 109.524 200.261 109.836 200.542 110.114ZM196.022 115.714C196.299 115.998 196.612 116.245 196.952 116.448C196.752 116.107 196.508 115.794 196.224 115.518C195.947 115.235 195.635 114.988 195.294 114.785C195.487 115.125 195.725 115.437 196 115.714H196.022Z" fill="white"/>
<path d="M196.157 118.037C195.345 116.397 191.761 109.789 190.893 108.411C190.831 108.316 190.758 108.327 190.803 108.411C192.391 111.713 194.155 114.926 196.089 118.037C196.112 118.105 196.179 118.082 196.157 118.037Z" fill="#121212"/>
<path d="M205.671 108.518C203.241 112.757 194.662 120.026 194.662 120.026L193.2 117.327L192.203 115.49C196.857 110.898 202.462 105.247 204.03 103.17C207.323 102.823 207.726 104.951 205.671 108.518Z" fill="#A6A6A6"/>
<path d="M197.735 128.045L199.007 142.045C200.719 141.966 202.426 141.794 204.119 141.529C208.586 140.859 213.012 139.938 217.375 138.769C221.703 137.649 226.777 136.103 232.579 134.042C232.579 134.042 219.458 110.377 210.403 103.847C210.195 103.696 209.994 103.556 209.787 103.427C209.747 103.393 209.708 103.377 209.669 103.349C205.553 100.745 201.829 102.789 199.768 105.689C199.247 106.417 194.207 117.875 194.459 121.717C194.689 125.093 197.735 128.045 197.735 128.045Z" fill="#664EFE"/>
<path d="M205.016 113.059C205.115 113.441 205.162 113.835 205.156 114.23C205.162 114.626 205.115 115.022 205.016 115.406C204.917 115.022 204.87 114.626 204.876 114.23C204.872 113.835 204.919 113.442 205.016 113.059ZM208.068 127.72C208.065 128.116 208.112 128.512 208.208 128.896C208.31 128.513 208.357 128.117 208.348 127.72C208.354 127.324 208.307 126.928 208.208 126.544C208.112 126.929 208.065 127.324 208.068 127.72ZM217.84 119.376C217.834 119.773 217.881 120.168 217.98 120.552C218.167 119.779 218.167 118.973 217.98 118.2C217.881 118.584 217.834 118.98 217.84 119.376ZM199.92 125.934C199.914 126.33 199.961 126.726 200.06 127.11C200.247 126.337 200.247 125.531 200.06 124.758C199.961 125.142 199.914 125.537 199.92 125.934ZM211.21 115.613C210.813 115.61 210.418 115.657 210.034 115.753C210.806 115.939 211.613 115.939 212.386 115.753C212.003 115.657 211.61 115.61 211.215 115.613H211.21ZM219.542 126.057C219.146 126.048 218.75 126.095 218.366 126.197C219.139 126.383 219.945 126.383 220.718 126.197C220.336 126.099 219.943 126.051 219.548 126.057H219.542ZM206.875 134.334C206.48 134.327 206.087 134.374 205.705 134.474C206.087 134.573 206.48 134.62 206.875 134.614C207.272 134.62 207.667 134.573 208.051 134.474C207.668 134.378 207.275 134.331 206.881 134.334H206.875ZM221.631 132.721C221.237 132.718 220.843 132.765 220.461 132.861C221.232 133.048 222.036 133.048 222.807 132.861C222.423 132.765 222.027 132.718 221.631 132.721ZM205.122 104.251C204.726 104.245 204.33 104.292 203.946 104.391C204.33 104.489 204.726 104.536 205.122 104.531C205.517 104.533 205.91 104.486 206.293 104.391C205.909 104.3 205.516 104.259 205.122 104.267V104.251ZM211.114 106.843C211.391 107.127 211.704 107.374 212.044 107.577C211.846 107.235 211.601 106.922 211.316 106.647C211.039 106.364 210.727 106.117 210.386 105.914C210.588 106.26 210.835 106.578 211.12 106.86L211.114 106.843ZM223.35 119.942C223.627 120.225 223.94 120.472 224.28 120.675C224.08 120.334 223.835 120.022 223.552 119.746C223.274 119.463 222.962 119.217 222.622 119.012C222.823 119.358 223.067 119.676 223.35 119.959V119.942ZM203.784 121.342C204.061 121.625 204.373 121.872 204.714 122.075C204.295 121.389 203.719 120.813 203.034 120.395C203.24 120.748 203.492 121.072 203.784 121.359V121.342ZM215.04 130.823C215.317 131.106 215.629 131.353 215.97 131.556C215.551 130.87 214.975 130.294 214.29 129.876C214.497 130.223 214.749 130.541 215.04 130.823ZM200.57 110.103C200.847 110.384 201.159 110.629 201.499 110.831C201.298 110.49 201.053 110.178 200.771 109.901C200.493 109.62 200.181 109.376 199.842 109.173C200.035 109.514 200.27 109.83 200.542 110.114L200.57 110.103ZM199.774 117.461C200.057 117.183 200.303 116.871 200.508 116.531C200.167 116.731 199.854 116.976 199.578 117.259C199.295 117.536 199.048 117.849 198.845 118.189C199.173 117.987 199.476 117.747 199.746 117.472L199.774 117.461ZM226.346 127.463C226.63 127.187 226.875 126.874 227.074 126.533C226.387 126.949 225.81 127.525 225.394 128.213C225.733 128.007 226.044 127.759 226.318 127.474L226.346 127.463ZM201.225 131.472C201.507 131.195 201.751 130.883 201.953 130.543C201.265 130.959 200.689 131.535 200.273 132.223C200.611 132.017 200.922 131.769 201.197 131.483L201.225 131.472ZM216.222 112.169C216.505 111.892 216.752 111.58 216.955 111.239C216.614 111.441 216.301 111.688 216.026 111.973C215.742 112.25 215.495 112.562 215.292 112.903C215.622 112.701 215.925 112.458 216.194 112.18L216.222 112.169ZM212.503 137.313C212.788 137.037 213.035 136.725 213.237 136.383C212.896 136.585 212.583 136.832 212.307 137.117C212.024 137.394 211.777 137.706 211.574 138.047C211.903 137.845 212.206 137.602 212.475 137.324L212.503 137.313ZM212.503 122.193C212.79 121.919 213.037 121.606 213.237 121.263C212.551 121.681 211.975 122.257 211.557 122.943C211.899 122.734 212.212 122.48 212.486 122.187L212.503 122.193Z" fill="white"/>
<path d="M207.099 103.108C207.021 103.668 204.792 107.308 202.361 107.403C201.566 107.431 201.213 103.119 201.213 103.119L201.113 102.805L199.729 98.4317L204.68 94.6405L205.402 94.1309C205.402 94.1309 205.699 95.3573 206.057 96.8805L206.108 97.0989C206.108 97.1829 206.153 97.2613 206.169 97.3453L206.337 98.0341C206.377 98.2133 206.416 98.3869 206.449 98.5941L206.567 99.1541C206.834 100.458 207.012 101.779 207.099 103.108Z" fill="#EB9481"/>
<path d="M206.08 96.8805C205.738 98.1726 205.119 99.3746 204.265 100.403C203.411 101.431 202.343 102.26 201.135 102.833L199.752 98.4597L204.68 94.6405L205.402 94.1309C205.402 94.1309 205.699 95.3293 206.08 96.8805Z" fill="#121212"/>
<path d="M193.592 91.8413C193.553 99.8941 198.374 100.829 200.11 100.835C201.684 100.835 207.054 100.661 207.95 92.6533C208.846 84.6453 205.089 82.0861 201.488 81.8789C197.887 81.6717 193.631 83.7717 193.592 91.8413Z" fill="#EB9481"/>
<path d="M207.485 93.1963C206.169 93.3307 205.805 90.5699 205.805 90.5699C205.805 90.5699 203.123 90.6483 202.143 86.8067C202.247 87.9623 202.687 89.0623 203.409 89.9707C203.409 89.9707 198.654 89.6011 196.56 85.6811C196.56 85.6811 197.405 87.6803 198.167 88.3803C196.958 88.0392 195.899 87.3016 195.16 86.2859C195.16 86.2859 194.387 88.5931 193.765 89.2371C193.765 89.2371 192.847 85.1827 194.533 83.0771C198.083 78.5971 203.913 82.5171 203.913 82.5171C203.913 82.5171 207.172 83.0099 208.337 85.4515C210.134 89.1867 207.485 93.1963 207.485 93.1963Z" fill="#121212"/>
<path d="M206.639 93.246C206.639 93.246 208.185 90.5972 209.378 91.1292C210.571 91.6612 209.546 95.402 208.258 96.0068C208.099 96.0964 207.923 96.1531 207.741 96.1734C207.56 96.1937 207.376 96.1772 207.201 96.125C207.026 96.0727 206.863 95.9857 206.722 95.8692C206.582 95.7527 206.466 95.609 206.382 95.4468L206.639 93.246Z" fill="#EB9481"/>
<path d="M194.6 90.2117C194.789 90.1788 194.976 90.1339 195.16 90.0773C195.358 90.0551 195.543 89.9685 195.686 89.8309C195.726 89.7806 195.747 89.7185 195.747 89.6545C195.747 89.5905 195.726 89.5284 195.686 89.4781C195.591 89.3942 195.475 89.337 195.35 89.3124C195.225 89.2878 195.096 89.2967 194.975 89.3381C194.719 89.3867 194.49 89.5283 194.331 89.7357C194.3 89.7829 194.283 89.8377 194.281 89.8941C194.28 89.9504 194.293 90.0062 194.321 90.0553C194.349 90.1044 194.389 90.145 194.439 90.1725C194.488 90.2001 194.544 90.2137 194.6 90.2117Z" fill="#121212"/>
<path d="M199.852 90.8385C199.664 90.8198 199.477 90.7899 199.292 90.7489C199.088 90.745 198.89 90.672 198.732 90.5417C198.692 90.4918 198.67 90.4295 198.67 90.3653C198.67 90.3011 198.692 90.2388 198.732 90.1889C198.82 90.0972 198.931 90.0311 199.053 89.9976C199.176 89.964 199.305 89.9644 199.427 89.9985C199.686 90.0272 199.927 90.1485 200.104 90.3401C200.141 90.3862 200.163 90.4417 200.169 90.5001C200.175 90.5585 200.164 90.6173 200.137 90.6696C200.111 90.722 200.07 90.7657 200.02 90.7956C199.969 90.8255 199.911 90.8404 199.852 90.8385Z" fill="#121212"/>
<path d="M198.8 92.4844C198.8 92.4844 198.839 92.4844 198.839 92.5348C198.839 93.0948 198.912 93.722 199.399 93.8956V93.9292C198.8 93.8508 198.682 93.0108 198.8 92.4844Z" fill="#121212"/>
<path d="M199.264 91.9033C200.149 91.8193 200.25 93.5833 199.427 93.6785C198.604 93.7737 198.52 91.9705 199.264 91.9033Z" fill="#121212"/>
<path d="M199.617 91.9758C199.779 92.071 199.942 92.239 200.132 92.2502C200.323 92.2614 200.502 92.0598 200.636 91.875H200.664C200.664 92.2166 200.575 92.575 200.216 92.6478C199.858 92.7206 199.656 92.4238 199.522 92.0878C199.505 92.0374 199.555 91.9422 199.617 91.9758Z" fill="#121212"/>
<path d="M195.715 92.5137C195.715 92.5137 195.67 92.5417 195.675 92.5641C195.726 93.1241 195.675 93.7569 195.205 93.9697C195.815 93.8745 195.849 93.0289 195.715 92.5137Z" fill="#121212"/>
<path d="M195.182 91.9688C194.292 91.9688 194.337 93.7384 195.182 93.7496C196.028 93.7608 195.933 91.9799 195.182 91.9688Z" fill="#121212"/>
<path d="M194.818 92.0926C194.678 92.1934 194.544 92.367 194.376 92.3838C194.208 92.4006 194.029 92.2102 193.9 92.0254H193.872C193.872 92.367 193.995 92.7198 194.326 92.7758C194.656 92.8318 194.835 92.5294 194.886 92.1878C194.925 92.1486 194.88 92.0534 194.818 92.0926Z" fill="#121212"/>
<path d="M196.638 94.9539C196.638 94.9539 196.56 95.7603 196.56 96.1691C197.314 96.1461 198.067 96.2253 198.8 96.4043C198.973 96.4547 198.962 96.3091 198.766 96.2027C198.182 95.8881 197.517 95.7536 196.857 95.8163C196.829 95.7099 197.002 94.5451 196.941 94.5451C196.64 94.5828 196.346 94.662 196.067 94.7803C196.179 93.0499 196.571 91.3475 196.655 89.6227C196.655 89.6093 196.65 89.5965 196.64 89.587C196.631 89.5776 196.618 89.5723 196.605 89.5723C196.591 89.5723 196.578 89.5776 196.569 89.587C196.56 89.5965 196.554 89.6093 196.554 89.6227C196.081 91.4297 195.788 93.2793 195.681 95.1443C195.697 95.3515 196.487 95.0267 196.638 94.9539Z" fill="#121212"/>
<path d="M197.473 96.1695C197.753 96.5382 198.147 96.8056 198.593 96.9311C199.27 96.9983 199.315 96.3711 198.559 96.0855C198.196 96.0135 197.82 96.0426 197.473 96.1695Z" fill="#121212"/>
<path d="M198.604 96.9305C198.349 96.8877 198.11 96.7753 197.915 96.6057C198.038 96.3873 198.352 96.1409 199.091 96.4937C199.209 96.7513 199.035 96.9753 198.604 96.9305Z" fill="#FF99BA"/>
<path d="M205.917 102.145C206.903 102.145 208.561 102.391 210.801 104.093C210.801 104.093 206.13 107.851 201.785 107.851C200.233 107.851 199.769 105.684 199.769 105.684C199.769 105.684 201.857 102.178 205.917 102.145Z" fill="#EB9481"/>
<path d="M279.698 263.379H261.402C248.108 263.379 239.977 254.19 238.515 237.507C237.793 229.281 237.35 219.324 236.886 208.785C235.452 176.4 233.486 132.065 220.881 132.065H206.394V128.705H220.881C236.695 128.705 238.498 169.344 240.24 208.645C240.705 219.151 241.147 229.074 241.864 237.205C242.777 247.61 246.904 260.014 261.402 260.014H279.698V263.379Z" fill="#FFC727"/>
<path opacity="0.2" d="M217.034 128.695L216.317 132.055H206.394V128.695H217.034Z" fill="#121212"/>
<path d="M179.088 110.266H173.23V151.196H179.088V110.266Z" fill="#FFC727"/>
<path d="M173.236 113.289H150.965V147.751H173.236V113.289Z" fill="#FFC727"/>
<path opacity="0.2" d="M173.23 113.295V147.757H167.698L165.217 113.295H173.23Z" fill="#121212"/>
<path d="M133.873 119.477H150.959V124.629H133.873C133.288 124.629 132.727 124.396 132.313 123.982C131.899 123.569 131.667 123.007 131.667 122.422V121.689C131.666 121.398 131.723 121.111 131.833 120.842C131.944 120.574 132.106 120.33 132.311 120.125C132.516 119.919 132.76 119.756 133.028 119.645C133.296 119.534 133.583 119.477 133.873 119.477Z" fill="#664EFE"/>
<path d="M150.959 119.477H144.961V124.623H150.959V119.477Z" fill="#A6A6A6"/>
<path d="M133.873 136.416H150.959V141.568H133.873C133.288 141.568 132.727 141.336 132.313 140.922C131.899 140.508 131.667 139.947 131.667 139.362V138.628C131.666 138.338 131.723 138.05 131.833 137.782C131.944 137.514 132.106 137.27 132.311 137.064C132.516 136.859 132.76 136.696 133.028 136.584C133.296 136.473 133.583 136.416 133.873 136.416Z" fill="#664EFE"/>
<path d="M150.959 136.416H144.961V141.562H150.959V136.416Z" fill="#A6A6A6"/>
<path d="M213.701 127.232H196.302V134.104H213.701V127.232Z" fill="#FFC727"/>
<path d="M213.701 127.238H196.302V134.109H213.701V127.238Z" fill="#FFC727"/>
<path opacity="0.2" d="M202.411 127.238L201.84 134.109H196.302V127.238H202.411Z" fill="#121212"/>
<path d="M179.088 114.588H192.858C193.772 114.588 194.648 114.951 195.294 115.597C195.939 116.242 196.302 117.118 196.302 118.032V143.013C196.302 143.927 195.939 144.803 195.294 145.449C194.648 146.095 193.772 146.457 192.858 146.457H179.088V114.588Z" fill="#FFC727"/>
<path opacity="0.2" d="M186.413 114.588L183.932 146.457H179.094V114.588H186.413Z" fill="#121212"/>
<g opacity="0.2">
<path d="M185.13 121.027H184.032V140.011H185.13V121.027Z" fill="#121212"/>
<path d="M188.243 121.027H187.146V140.011H188.243V121.027Z" fill="#121212"/>
<path d="M191.357 121.027H190.26V140.011H191.357V121.027Z" fill="#121212"/>
</g>
<path d="M212.089 108.009C214.015 113.413 211.254 133.209 207.989 137.403C203.14 143.619 193.558 149.337 189.896 151.123C188.294 151.902 181.121 140.433 182.683 139.363C186.043 137.062 196.745 131.568 197.652 130.476C198.559 129.384 203.442 118.895 205.397 112.998C208.023 105.08 211.12 105.282 212.089 108.009Z" fill="#EB9481"/>
<path d="M189.884 151.156C184.805 154.056 174.697 153.631 173.319 153.211L171.539 152.651C169.416 152.052 168.845 150.881 168.845 150.881C168.845 150.881 166.191 150.915 165.899 149.313C165.575 147.516 169.366 147.818 171.555 146.709C176.595 144.172 182.991 139.155 184.363 138.281L189.884 151.156Z" fill="#EB9481"/>
<path d="M178.685 147.752C177.226 148.516 175.716 149.176 174.165 149.729C172.435 150.23 170.67 150.605 168.885 150.849C168.876 150.852 168.869 150.858 168.864 150.865C168.858 150.873 168.855 150.881 168.855 150.891C168.855 150.9 168.858 150.909 168.864 150.916C168.869 150.924 168.876 150.929 168.885 150.933C172.388 150.837 175.799 149.784 178.746 147.886C178.819 147.841 178.757 147.718 178.685 147.752Z" fill="#121212"/>
<path d="M180.656 150.556C179.166 151.172 176.54 152.236 171.533 152.606C171.533 152.606 171.533 152.634 171.533 152.64C174.713 152.859 177.891 152.19 180.712 150.708C180.801 150.64 180.756 150.517 180.656 150.556Z" fill="#121212"/>
<path d="M177.408 143.277C177.929 142.717 177.621 142.415 176.243 142.661C174.866 142.908 169.63 145.069 169.03 143.182C168.431 141.295 175.868 138.349 178.192 138.109C180.292 138 182.397 138.062 184.486 138.293C183.154 139.156 179.995 141.553 177.408 143.277Z" fill="#EB9481"/>
<path d="M206.684 109.369C210.072 102.24 213.163 104.128 213.46 111.178C213.56 116.074 213.339 120.972 212.799 125.839L200.519 122.322C200.519 122.322 204.517 113.933 206.684 109.369Z" fill="#664EFE"/>
<path d="M209.742 105.213C210.428 105.631 211.004 106.207 211.422 106.893C210.736 106.475 210.16 105.899 209.742 105.213ZM204.876 114.24C204.87 114.637 204.917 115.032 205.016 115.416C205.115 115.032 205.162 114.637 205.156 114.24C205.162 113.845 205.115 113.452 205.016 113.07C204.919 113.452 204.872 113.846 204.876 114.24ZM211.215 115.623C210.818 115.62 210.423 115.667 210.039 115.763C210.812 115.95 211.618 115.95 212.391 115.763C212.007 115.663 211.612 115.613 211.215 115.612V115.623ZM203.784 121.358C204.061 121.641 204.373 121.888 204.713 122.091C204.295 121.405 203.719 120.829 203.033 120.411C203.241 120.758 203.493 121.077 203.784 121.358ZM212.486 122.186C212.773 121.912 213.019 121.599 213.22 121.257C212.534 121.675 211.958 122.251 211.54 122.937C211.888 122.731 212.206 122.479 212.486 122.186Z" fill="white"/>
<path d="M205.519 111.541C205.06 112.476 204.579 113.395 204.097 114.341C204.179 113.904 204.246 113.462 204.299 113.014H204.265C204.198 113.361 204.114 113.708 204.047 114.056C204.019 114.224 203.985 114.392 203.951 114.56C203.951 114.593 203.951 114.627 203.951 114.666C203.576 115.383 203.207 116.105 202.831 116.833C202.406 117.707 202.008 118.586 201.605 119.465C201.202 120.344 200.827 121.42 200.373 122.31C200.759 122.471 201.161 122.591 201.571 122.668C201.678 122.708 201.734 122.601 201.622 122.584C201.51 122.568 200.591 122.204 200.58 122.198C200.983 121.308 201.482 120.468 201.907 119.594C202.333 118.72 202.77 117.858 203.179 116.979C204.007 115.198 204.735 113.367 205.559 111.58C205.559 111.536 205.519 111.519 205.519 111.541Z" fill="#121212"/>
<path d="M213.97 115.787C213.858 116.151 213.729 116.515 213.634 116.907C213.6 117.064 213.561 117.215 213.522 117.372C213.567 116.095 213.608 114.822 213.645 113.553C213.472 115.636 213.292 117.714 213.158 119.797C212.963 121.792 212.872 123.795 212.884 125.8C212.515 125.713 212.141 125.655 211.764 125.626C212.171 125.799 212.598 125.922 213.035 125.99C213.343 123.974 213.365 121.746 213.466 119.718C213.494 119.158 213.511 118.598 213.533 117.999C213.6 117.646 213.701 117.299 213.796 116.952C213.892 116.605 213.964 116.202 214.043 115.832C214.015 115.776 213.976 115.765 213.97 115.787Z" fill="#121212"/>
<path d="M212.301 123.979C210.571 123.363 203.403 121.1 201.824 120.714C201.712 120.686 201.667 120.748 201.779 120.787C205.214 122.064 208.718 123.15 212.273 124.041C212.318 124.057 212.346 123.99 212.301 123.979Z" fill="#121212"/>
<path d="M152.096 122.081C153.776 122.596 153.435 120.3 153.435 120.3C153.435 120.3 154.751 123.481 156.705 123.341C158.659 123.201 158.055 120.44 158.021 120.239C158.088 120.407 159.376 123.296 161.325 122.955C163.274 122.613 162.339 119.914 162.271 119.746C162.389 119.88 163.951 121.667 165.385 121.068C167.827 120.037 163.929 115.356 164.215 113.228L167.647 113.328C167.76 113.317 167.872 113.301 167.983 113.278L168.112 111.525C167.015 111.08 165.955 110.548 164.943 109.935C163.649 109.207 162.4 108.546 161.471 108.524C161.054 108.501 160.64 108.614 160.292 108.845C159.944 109.076 159.68 109.413 159.539 109.806C159.539 109.806 158.531 108.216 156.985 108.44C156.195 108.557 155.68 109.929 155.68 109.929C155.432 109.578 155.091 109.302 154.696 109.133C154.3 108.964 153.866 108.908 153.44 108.972C152.354 109.196 152.007 110.54 152.007 110.54C152.007 110.54 150.629 109.728 149.593 110.321C147.515 111.475 148.467 120.961 152.096 122.081Z" fill="#EB9481"/>
<path d="M164.64 113.025L167.63 113.3C167.743 113.289 167.855 113.272 167.966 113.249C171.74 112.566 174.092 108.243 171.326 107.935C169.248 107.694 166.997 110.455 164.897 109.9L164.64 113.025Z" fill="#EB9481"/>
<path d="M151.933 110.713H151.883C151.407 114.025 151.95 117.404 153.439 120.401C153.49 120.496 153.663 120.451 153.63 120.339C152.599 117.23 152.028 113.987 151.933 110.713Z" fill="#121212"/>
<path d="M155.68 109.856C155.68 109.816 155.619 109.816 155.613 109.856C155.109 113.508 155.927 117.22 157.92 120.322C157.993 120.428 158.167 120.451 158.088 120.322C156.845 118.16 155.68 112.93 155.68 109.856Z" fill="#121212"/>
<path d="M162.495 119.88C160.563 116.834 159.796 113.474 159.51 109.912C159.51 109.868 159.443 109.879 159.432 109.912C159.101 111.693 159.521 113.944 159.992 115.669C160.402 117.278 161.227 118.751 162.383 119.942C162.439 119.992 162.54 119.948 162.495 119.88Z" fill="#121212"/>
<path d="M115.192 247.52C114.033 247.906 80.8421 247.811 79.5765 247.01C79.1005 246.708 78.8317 241.87 78.6749 236.018C78.6357 234.758 78.6133 233.453 78.5909 232.126C78.5909 230.558 78.5461 228.967 78.5349 227.422C78.4957 220.489 78.5909 214.385 78.5909 214.385H100.201V227.422V232.126L100.089 236.018C100.089 236.018 112.779 241.741 114.089 242.771C115.4 243.802 116.352 247.162 115.192 247.52Z" fill="#AD6359"/>
<path d="M115.192 247.52C114.033 247.907 80.8414 247.811 79.5758 247.011C79.0998 246.708 78.831 241.87 78.6742 236.018C78.635 234.758 78.6126 233.453 78.5902 232.126C78.5902 230.558 78.5454 228.967 78.5342 227.422H100.189V232.126L100.077 236.018C100.077 236.018 112.767 241.741 114.077 242.771C115.388 243.802 116.351 247.162 115.192 247.52Z" fill="white"/>
<path d="M115.292 247.593C114.536 247.845 100.402 247.896 90.0924 247.683C87.7068 247.627 85.5284 247.565 83.7756 247.487C81.3508 247.375 79.7268 247.246 79.4636 247.078C78.8756 246.703 78.6012 239.602 78.4668 232.109H100.178L100.066 236.029C100.066 236.029 112.828 241.786 114.128 242.822C115.427 243.858 116.48 247.201 115.292 247.593Z" fill="#FFC727"/>
<path d="M114.8 246.26C109.2 246.103 86.6323 246.013 81.0883 246.288C81.0435 246.288 81.0435 246.316 81.0883 246.321C86.6323 246.596 109.206 246.501 114.8 246.349C114.935 246.344 114.94 246.26 114.8 246.26Z" fill="#121212"/>
<path d="M100.879 234.787C98.6779 234.372 95.9843 234.703 94.2987 236.265C94.2315 236.327 94.2987 236.416 94.3939 236.394C96.4995 235.719 98.6718 235.274 100.873 235.067C100.91 235.067 100.946 235.053 100.973 235.028C101 235.002 101.015 234.967 101.016 234.93C101.017 234.892 101.003 234.856 100.977 234.83C100.951 234.803 100.916 234.787 100.879 234.787Z" fill="#121212"/>
<path d="M102.48 235.761C100.28 235.341 97.5861 235.671 95.8949 237.239C95.8333 237.295 95.8949 237.39 95.9901 237.368C98.099 236.689 100.275 236.24 102.48 236.029C102.51 236.021 102.535 236.003 102.553 235.979C102.571 235.955 102.581 235.925 102.581 235.895C102.581 235.865 102.571 235.835 102.553 235.811C102.535 235.787 102.51 235.769 102.48 235.761Z" fill="#121212"/>
<path d="M104.054 236.712C101.853 236.292 99.1592 236.622 97.4736 238.185C97.4064 238.246 97.4736 238.341 97.5632 238.319C99.6696 237.646 101.842 237.2 104.042 236.986C104.074 236.981 104.104 236.965 104.125 236.941C104.147 236.917 104.159 236.886 104.161 236.854C104.162 236.821 104.152 236.789 104.132 236.764C104.113 236.738 104.085 236.719 104.054 236.712Z" fill="#121212"/>
<path d="M105.638 237.677C103.438 237.257 100.744 237.587 99.0584 239.15C98.9912 239.211 99.0584 239.306 99.1536 239.284C101.257 238.608 103.428 238.161 105.627 237.951C105.659 237.946 105.688 237.93 105.71 237.906C105.732 237.882 105.744 237.851 105.745 237.819C105.747 237.786 105.737 237.754 105.717 237.728C105.698 237.703 105.67 237.684 105.638 237.677Z" fill="#121212"/>
<path d="M104.961 229.706C104.099 228.514 102.486 229.046 101.568 229.813C100.01 231.165 98.8362 232.903 98.1629 234.853C98.1592 234.861 98.1576 234.87 98.1584 234.88C98.1591 234.889 98.1621 234.898 98.1671 234.906C98.1721 234.913 98.1789 234.92 98.187 234.924C98.195 234.929 98.2041 234.931 98.2133 234.931C98.2133 235.099 98.3701 235.278 98.5549 235.206C100.375 234.539 102.408 234.052 103.964 232.842C104.877 232.137 105.779 230.838 104.961 229.706ZM101.108 233.626C100.224 233.974 99.3221 234.282 98.4485 234.662C99.0837 233.663 99.7697 232.697 100.504 231.767C100.863 231.321 101.254 230.902 101.674 230.513C102.329 229.914 104.928 228.654 104.53 231.073C104.312 232.4 102.167 233.206 101.108 233.626Z" fill="#121212"/>
<path d="M92.5684 234.255C94.3772 235.033 96.4884 235 98.3924 235.196C98.4353 235.195 98.4775 235.185 98.5158 235.166C98.5542 235.147 98.5876 235.119 98.6136 235.085C98.6395 235.051 98.6574 235.012 98.6656 234.969C98.6739 234.927 98.6724 234.884 98.6612 234.843C98.6682 234.837 98.6738 234.831 98.6777 234.823C98.6816 234.815 98.6836 234.807 98.6836 234.798C98.6836 234.789 98.6816 234.781 98.6777 234.773C98.6738 234.765 98.6682 234.758 98.6612 234.753C97.5311 233.037 95.9711 231.647 94.1364 230.721C93.05 230.206 91.3364 230.094 90.8212 231.466C90.306 232.838 91.51 233.801 92.5684 234.255ZM91.5772 232.687C90.5916 230.447 93.4196 231.007 94.2036 231.427C94.7063 231.706 95.1908 232.016 95.654 232.356C96.5967 233.072 97.5014 233.837 98.3644 234.647C97.4236 234.496 96.4772 234.423 95.5308 234.305C94.3996 234.165 92.1204 233.919 91.5772 232.687Z" fill="#121212"/>
<path d="M103.27 230.586L76.4903 231.068C76.4903 231.068 72.8447 207.374 70.4479 192.64C69.5407 187.102 68.8239 182.824 68.5327 181.536C67.8383 178.461 54.2695 129.663 54.2695 129.663L73.7351 129.635H80.3879C80.3879 129.635 79.9623 137.794 80.2143 138.651C83.6863 150.461 90.7815 171.405 92.9991 178.702C96.3983 189.919 103.27 230.586 103.27 230.586Z" fill="#A6A6A6"/>
<path d="M100.834 226.48C96.9922 226.452 83.3618 226.301 78.2434 226.777C78.2361 226.78 78.2299 226.785 78.2255 226.792C78.2211 226.798 78.2187 226.806 78.2188 226.814C78.2187 226.821 78.2211 226.829 78.2255 226.836C78.2299 226.842 78.2361 226.847 78.2434 226.85C80.0074 227.102 96.9922 226.71 100.839 226.587C100.848 226.589 100.857 226.589 100.866 226.587C100.874 226.586 100.882 226.582 100.889 226.576C100.896 226.571 100.901 226.564 100.905 226.555C100.909 226.547 100.91 226.539 100.91 226.53C100.909 226.521 100.907 226.512 100.902 226.505C100.898 226.497 100.892 226.491 100.884 226.486C100.877 226.481 100.869 226.478 100.86 226.477C100.851 226.476 100.842 226.477 100.834 226.48Z" fill="#121212"/>
<path d="M76.9273 206.287C76.0014 200.161 74.9691 194.049 73.8305 187.953C73.2705 184.957 72.6601 181.966 71.8761 178.993C71.0921 176.019 70.0953 173.079 69.0761 170.162C67.0713 164.36 65.1561 158.53 63.3585 152.662C61.5609 146.793 59.8865 140.902 58.3185 134.96C58.1169 134.21 57.9209 133.459 57.7025 132.72C57.7025 132.658 57.5961 132.686 57.6073 132.72C58.2177 135.71 59.0073 138.673 59.7633 141.63C60.5193 144.586 61.3313 147.532 62.1769 150.466C63.8793 156.358 65.7254 162.208 67.7153 168.017C68.7065 170.906 69.7369 173.79 70.6161 176.719C71.4953 179.648 72.1785 182.616 72.7889 185.606C74.0265 191.677 75.0793 197.786 76.0537 203.896C77.0281 210.006 77.8625 216.216 78.6801 222.376C78.7865 223.154 78.8873 223.938 78.9881 224.722C79.0161 224.941 79.3633 224.941 79.3409 224.722C78.7081 218.579 77.8401 212.425 76.9273 206.287Z" fill="#121212"/>
<path d="M73.7351 129.623L70.4479 192.64C69.5407 187.101 68.8239 182.823 68.5327 181.535C67.8383 178.461 54.2695 129.662 54.2695 129.662L73.7351 129.623Z" fill="#121212"/>
<path d="M81.9786 252.829C80.8194 253.215 47.6282 253.12 46.3626 252.313C45.8866 252.017 45.6178 247.178 45.461 241.326C45.4218 240.061 45.3994 238.761 45.377 237.434C45.377 235.861 45.3322 234.276 45.321 232.73C45.2818 225.797 45.377 219.693 45.377 219.693H66.9818V237.44L66.8698 241.332C66.8698 241.332 79.5594 247.055 80.8698 248.085C82.1802 249.116 83.1378 252.448 81.9786 252.829Z" fill="#AD6359"/>
<path d="M81.9779 252.829C80.8187 253.215 47.6275 253.12 46.3619 252.314C45.8859 252.017 45.6171 247.178 45.4603 241.326C45.4211 240.061 45.3987 238.762 45.3763 237.434C45.3763 235.861 45.3315 234.276 45.3203 232.73H66.9755V237.44L66.8635 241.332C66.8635 241.332 79.5531 247.055 80.8635 248.086C82.1739 249.116 83.1371 252.448 81.9779 252.829Z" fill="white"/>
<path d="M82.0788 252.88C81.3228 253.127 67.1828 253.177 56.8788 252.964C54.4988 252.914 52.3204 252.847 50.562 252.774C48.1428 252.662 46.5188 252.528 46.25 252.36C45.69 251.984 45.3876 244.889 45.2588 237.396H66.97L66.858 241.316C66.858 241.316 79.6316 247.068 80.9308 248.081C82.23 249.095 83.2436 252.488 82.0788 252.88Z" fill="#FFC727"/>
<path d="M81.603 251.541C76.003 251.39 53.4294 251.295 47.891 251.569C47.8462 251.569 47.8462 251.603 47.891 251.608C53.4294 251.877 76.0086 251.788 81.603 251.636C81.7206 251.631 81.7206 251.547 81.603 251.541Z" fill="#121212"/>
<path d="M67.6649 240.073C65.4641 239.653 62.7705 239.984 61.0849 241.546C61.0177 241.608 61.0849 241.703 61.1745 241.68C63.2809 241.008 65.4528 240.561 67.6537 240.348C67.6857 240.343 67.715 240.327 67.7365 240.302C67.7581 240.278 67.7706 240.247 67.7719 240.215C67.7733 240.183 67.7633 240.151 67.7438 240.125C67.7243 240.099 67.6964 240.081 67.6649 240.073Z" fill="#121212"/>
<path d="M69.2498 241.036C67.049 240.616 64.3554 240.946 62.6698 242.509C62.6026 242.57 62.6698 242.666 62.765 242.643C64.8704 241.967 67.0427 241.52 69.2442 241.31C69.276 241.305 69.3048 241.288 69.3258 241.264C69.3467 241.239 69.3585 241.208 69.3592 241.176C69.3599 241.143 69.3493 241.112 69.3294 241.086C69.3094 241.061 69.2813 241.043 69.2498 241.036Z" fill="#121212"/>
<path d="M70.8398 241.994C68.639 241.579 65.9454 241.91 64.2542 243.472C64.1926 243.534 64.2542 243.623 64.3494 243.601C66.4559 242.93 68.6279 242.485 70.8286 242.274C70.8658 242.275 70.902 242.262 70.9293 242.237C70.9566 242.211 70.9727 242.176 70.9742 242.139C70.9757 242.102 70.9624 242.066 70.9372 242.039C70.912 242.011 70.877 241.995 70.8398 241.994Z" fill="#121212"/>
<path d="M72.4247 242.957C70.2239 242.542 67.5303 242.873 65.8447 244.435C65.7775 244.497 65.8447 244.586 65.9343 244.564C68.0409 243.893 70.2128 243.448 72.4135 243.237C72.4506 243.238 72.4868 243.225 72.5141 243.2C72.5414 243.174 72.5576 243.139 72.5591 243.102C72.5606 243.065 72.5472 243.029 72.522 243.002C72.4968 242.974 72.4618 242.958 72.4247 242.957Z" fill="#121212"/>
<path d="M71.7468 234.994C70.8844 233.795 69.2716 234.327 68.3476 235.1C66.7903 236.452 65.6161 238.191 64.9428 240.14C64.9403 240.149 64.9398 240.158 64.9413 240.167C64.9429 240.177 64.9465 240.185 64.9519 240.193C64.9573 240.2 64.9643 240.207 64.9724 240.211C64.9805 240.215 64.9895 240.218 64.9988 240.219C64.9963 240.261 65.004 240.304 65.0214 240.343C65.0388 240.383 65.0654 240.417 65.0988 240.444C65.1322 240.471 65.1716 240.489 65.2136 240.498C65.2557 240.506 65.2991 240.505 65.3404 240.493C67.1604 239.827 69.1876 239.339 70.75 238.13C71.6796 237.441 72.5588 236.119 71.7468 234.994ZM67.894 238.914C67.0036 239.267 66.1076 239.569 65.234 239.955C65.9004 238.975 66.522 237.973 67.2836 237.06C67.6458 236.615 68.0368 236.194 68.454 235.8C69.1148 235.207 71.7076 233.947 71.3156 236.36C71.1196 237.687 68.9524 238.494 67.894 238.908V238.914Z" fill="#121212"/>
<path d="M59.3599 239.54C61.1743 240.319 63.2799 240.285 65.1895 240.481C65.2329 240.481 65.2758 240.471 65.3145 240.452C65.3533 240.432 65.387 240.404 65.4126 240.369C65.4383 240.334 65.4554 240.293 65.4623 240.251C65.4693 240.208 65.466 240.164 65.4527 240.123C65.4614 240.12 65.4693 240.115 65.4759 240.108C65.4825 240.102 65.4876 240.094 65.4909 240.086C65.4941 240.077 65.4953 240.068 65.4945 240.059C65.4938 240.05 65.4909 240.041 65.4863 240.033C64.3452 238.319 62.7757 236.933 60.9335 236.012C59.8471 235.497 58.1335 235.385 57.6183 236.757C57.1031 238.129 58.2903 239.087 59.3599 239.54ZM58.3743 237.967C57.3887 235.727 60.2167 236.287 61.0007 236.712C61.5045 236.987 61.9891 237.296 62.4511 237.636C63.3925 238.356 64.2971 239.122 65.1615 239.932C64.2151 239.775 63.2687 239.708 62.3223 239.591C61.1855 239.451 58.9063 239.204 58.3631 237.967H58.3743Z" fill="#121212"/>
<path d="M70.0003 235.553H43.7979C43.7979 235.553 49.4931 154.309 48.5747 149.756C47.0683 142.302 48.0707 133.74 51.5987 129.596H74.9115C74.9115 129.596 75.3763 136.137 72.9683 140.045C72.9683 140.045 70.7787 141.429 69.7203 142.039L70.0003 235.553Z" fill="#A6A6A6"/>
<path d="M67.5588 231.313C63.93 231.224 64.9772 231.196 61.3428 231.145C59.5676 231.117 47.9028 230.955 46.2228 231.218C46.1836 231.218 46.1836 231.285 46.2228 231.291C47.9028 231.577 59.562 231.537 61.3428 231.526C64.9716 231.526 63.93 231.476 67.5588 231.42C67.57 231.416 67.5797 231.409 67.5866 231.4C67.5935 231.39 67.5973 231.378 67.5973 231.367C67.5973 231.355 67.5935 231.343 67.5866 231.334C67.5797 231.324 67.57 231.317 67.5588 231.313Z" fill="#121212"/>
<path d="M74.4239 139.021C72.1318 140.126 69.938 141.424 67.8663 142.902C67.8492 142.912 67.8369 142.929 67.8322 142.948C67.8275 142.968 67.8307 142.988 67.8411 143.005C67.8515 143.022 67.8682 143.035 67.8877 143.039C67.9071 143.044 67.9276 143.041 67.9447 143.031C70.1847 141.804 72.4247 140.617 74.5751 139.273C74.6085 139.253 74.6326 139.22 74.642 139.183C74.6515 139.145 74.6455 139.105 74.6255 139.071C74.6054 139.038 74.5729 139.014 74.5351 139.004C74.4973 138.995 74.4573 139.001 74.4239 139.021Z" fill="#121212"/>
<path d="M71.4506 138.684C71.3177 139.137 71.213 139.597 71.137 140.062C71.0419 140.427 71.0172 140.807 71.0642 141.182C71.0642 141.255 71.1818 141.249 71.2154 141.182C71.3911 140.829 71.512 140.451 71.5738 140.062C71.6858 139.631 71.809 139.205 71.9042 138.774C71.9714 138.5 71.5402 138.404 71.4506 138.684Z" fill="#121212"/>
<path d="M71.2428 136.438C71.3044 136.046 71.366 135.66 71.4388 135.273C71.5116 134.887 71.6124 134.467 71.6516 134.064C71.6516 133.997 71.7636 134.019 71.7524 134.064C71.6908 134.456 71.6852 134.859 71.6516 135.251C71.618 135.643 71.5844 136.041 71.5452 136.433C71.4663 137.172 71.3504 137.906 71.198 138.633C71.5848 138.568 71.9521 138.417 72.2732 138.191C72.5709 137.884 72.7665 137.493 72.8332 137.071C72.9452 136.623 73.046 136.175 73.1636 135.727C73.3222 135.242 73.4365 134.743 73.5052 134.238C73.5052 134.17 73.6172 134.193 73.606 134.238C73.5149 135.302 73.3161 136.355 73.0124 137.379C72.9469 137.785 72.7383 138.155 72.4244 138.421C72.0201 138.636 71.5762 138.768 71.1196 138.807C71.0692 138.807 70.9908 138.807 70.9964 138.745C71.0402 137.973 71.1224 137.203 71.2428 136.438Z" fill="#121212"/>
<path d="M52.3602 149.46C52.1922 147.746 51.9122 146.044 51.7274 144.33C51.3772 140.899 51.5852 137.435 52.3434 134.071C52.3434 134.009 52.2594 133.981 52.2482 134.071C51.5851 137.025 51.2768 140.048 51.3298 143.076C51.481 146.1 52.0186 149.079 52.0634 152.108C52.1082 155.138 51.873 158.24 51.677 161.298C51.481 164.356 51.2794 167.458 51.0834 170.532C50.2882 182.903 49.5546 195.273 48.7986 207.649C48.5895 211.099 48.3879 214.552 48.1938 218.009C47.9922 221.52 47.7458 225.037 47.6338 228.56C47.6338 228.862 48.0706 228.84 48.0986 228.56C48.625 222.349 48.9274 216.116 49.325 209.906C49.7226 203.696 50.0754 197.586 50.445 191.426C50.8146 185.266 51.1898 179.106 51.565 172.946C51.7442 169.87 51.9309 166.794 52.125 163.717C52.3042 160.654 52.5282 157.585 52.573 154.516C52.5976 152.828 52.5266 151.14 52.3602 149.46Z" fill="#121212"/>
<path d="M60.6145 133.841C60.6095 133.833 60.6025 133.826 60.5942 133.822C60.5858 133.817 60.5765 133.814 60.5669 133.814C60.5574 133.814 60.548 133.817 60.5397 133.822C60.5314 133.826 60.5244 133.833 60.5193 133.841C60.3802 134.247 60.3065 134.672 60.3009 135.101C60.2284 135.56 60.1217 136.013 59.9817 136.456C59.7246 137.347 59.2425 138.157 58.5817 138.808C57.1145 140.18 55.1489 140.69 53.2561 141.149C53.2436 141.153 53.2326 141.161 53.2249 141.171C53.2171 141.182 53.2129 141.195 53.2129 141.208C53.2129 141.221 53.2171 141.234 53.2249 141.244C53.2326 141.255 53.2436 141.263 53.2561 141.267C54.3808 141.317 55.5043 141.142 56.5601 140.751C57.502 140.463 58.371 139.976 59.1081 139.323C59.812 138.654 60.2929 137.784 60.4857 136.831C60.5858 136.333 60.6383 135.827 60.6425 135.319C60.6425 135.079 60.6425 134.838 60.6425 134.591C60.6827 134.342 60.6731 134.087 60.6145 133.841Z" fill="#121212"/>
<path d="M71.5908 102.414C72.0724 106.222 79.5316 120.379 87.4724 126.651C90.3844 128.952 105.824 130.313 109.688 130.011C114.207 129.664 114.884 118.906 112.353 118.066C109.189 117.019 94.5508 115.725 91.678 114.706C88.1836 113.44 81.822 105.315 75.774 100.286C72.666 97.682 71.2212 99.4852 71.5908 102.414Z" fill="#AD6359"/>
<path d="M109.687 130.015C111.115 129.976 117.65 129.226 119.426 128.61C121.201 127.994 126.146 125.855 125.832 124.449C125.518 123.043 123.995 123.553 123.995 123.553C123.995 123.553 125.95 122.315 125.485 120.932C125.02 119.549 122.685 120.423 122.685 120.423C122.685 120.423 124.6 119.006 124.034 117.656C123.469 116.307 121.29 117.578 121.29 117.578C121.29 117.578 123.105 116.363 122.175 115.444C121.055 114.324 117.964 116.962 115.959 117.494C115.5 117.617 106.54 119.291 106.54 119.291L109.687 130.015Z" fill="#AD6359"/>
<path d="M121.52 117.471C119.24 119.387 117.913 119.835 115.012 120.232C115.002 120.236 114.994 120.242 114.988 120.251C114.982 120.259 114.979 120.269 114.979 120.28C114.979 120.29 114.982 120.3 114.988 120.309C114.994 120.317 115.002 120.324 115.012 120.327C117.885 120.193 119.632 119.874 121.615 117.578C121.699 117.466 121.609 117.382 121.52 117.471Z" fill="#121212"/>
<path d="M122.881 120.265C120.344 122.08 118.91 122.545 115.92 123.2C115.881 123.2 115.892 123.284 115.92 123.278C118.922 122.892 120.658 122.533 122.959 120.417C123.054 120.31 122.998 120.181 122.881 120.265Z" fill="#121212"/>
<path d="M123.839 123.582C121.257 125.133 119.706 125.743 116.704 125.995C116.69 125.995 116.675 126.001 116.665 126.012C116.654 126.022 116.648 126.037 116.648 126.051C116.648 126.066 116.654 126.081 116.665 126.091C116.675 126.102 116.69 126.107 116.704 126.107C119.322 126.265 121.896 125.388 123.872 123.666C124.024 123.548 124.001 123.487 123.839 123.582Z" fill="#121212"/>
<path d="M104.468 118.116C105.976 117.142 107.554 116.279 109.189 115.535C110.768 114.975 117.432 114.975 117.505 116.42C117.605 118.279 113.758 119.024 111.826 119.147C111.826 119.147 112.067 123.442 109.418 124.579C106.769 125.716 104.468 118.116 104.468 118.116Z" fill="#AD6359"/>
<path d="M117.37 116.94C116.25 118.698 113.691 118.692 111.826 118.95C111.798 118.952 111.77 118.96 111.746 118.975C111.722 118.99 111.702 119.01 111.688 119.035C111.674 119.059 111.667 119.087 111.666 119.115C111.666 119.144 111.673 119.172 111.686 119.196C111.686 121.005 111.126 123.548 109.53 124.617C109.48 124.651 109.53 124.724 109.569 124.696C111.423 123.777 112.173 121.336 112.067 119.336C113.982 119.107 116.547 119 117.387 116.945C117.392 116.934 117.376 116.928 117.37 116.94Z" fill="#121212"/>
<path d="M96.3476 129.809C96.3476 129.809 88.4404 127.648 87.4772 126.892C86.4262 126.066 85.424 125.179 84.4756 124.237C77.2796 117.165 72.934 107.521 71.758 104.161C70.5148 100.583 71.6572 97.1557 74.9892 99.4629C75.2573 99.6527 75.5152 99.8565 75.762 100.073C79.682 103.489 90.1652 113.877 91.442 114.409C92.7188 114.941 98.8732 115.748 98.8732 115.748L96.3476 129.809Z" fill="#455A64"/>
<path d="M84.4756 124.237C77.2796 117.165 72.934 107.521 71.758 104.161C70.5148 100.583 71.6572 97.1557 74.9892 99.4629L84.4756 124.237Z" fill="#121212"/>
<path d="M96.3204 115.501C95.9523 116.582 95.6475 117.683 95.4076 118.8C95.1332 119.92 94.8476 121.04 94.618 122.16C94.1194 124.356 93.7455 126.579 93.498 128.818C93.498 128.831 93.5034 128.844 93.5128 128.854C93.5223 128.863 93.5351 128.868 93.5484 128.868C93.5618 128.868 93.5746 128.863 93.5841 128.854C93.5935 128.844 93.5988 128.831 93.5988 128.818C94.2036 126.623 94.6516 124.377 95.1108 122.148C95.3404 121.028 95.5476 119.942 95.7772 118.844C96.0068 117.747 96.2812 116.604 96.4044 115.518C96.4067 115.507 96.4044 115.495 96.3981 115.486C96.3918 115.476 96.382 115.47 96.3708 115.468C96.3597 115.465 96.3481 115.468 96.3387 115.474C96.3292 115.48 96.3227 115.49 96.3204 115.501Z" fill="#121212"/>
<path d="M79.2627 110.169C79.4475 110.998 79.5931 111.849 79.7051 112.722C79.7024 112.689 79.7024 112.655 79.7051 112.622C79.7499 112.146 79.7835 111.658 79.8675 111.188C79.8675 111.188 79.9123 111.16 79.9123 111.188C79.9413 111.672 79.9225 112.158 79.8563 112.638C79.8283 112.868 79.8003 113.098 79.7667 113.322C79.8059 113.708 79.8395 114.094 79.8619 114.475C79.9067 115.203 80.0467 118.311 80.0299 118.843C80.0299 118.955 79.9011 118.966 79.8731 118.843C79.7667 118.283 79.4867 115.097 79.4083 114.363C79.2618 112.964 79.1907 111.559 79.1955 110.152C79.2067 110.135 79.2515 110.141 79.2627 110.169Z" fill="#121212"/>
<path d="M80.1524 133.431C79.0324 134.439 77.666 135.912 69.8036 136.461C69.3108 136.461 68.8068 136.5 68.3028 136.461C60.7316 136.248 50.1084 130.301 49.4756 129.83C49.4756 129.83 57.6348 107.755 68.426 99.2824C69.966 98.0672 73.27 98.6664 75.3364 99.9152C76.0756 100.363 78.5172 104.446 79.01 108.164C79.5028 111.882 81.2668 132.423 80.1524 133.431Z" fill="#455A64"/>
<path d="M74.0207 105.449C72.1167 105.606 69.3895 102.313 68.4935 99.8487C68.4319 99.6807 68.9247 98.0735 69.4287 96.0911C69.7311 94.8871 70.0391 93.5431 70.2295 92.2943C70.2687 92.0367 71.0695 92.6415 71.0695 92.6415L72.6263 93.2799L77.7783 95.3967C77.09 96.8901 76.5878 98.4624 76.2831 100.078C76.2666 100.253 76.2666 100.43 76.2831 100.605C76.2856 100.633 76.2856 100.661 76.2831 100.689C76.2663 101.68 75.8575 105.281 74.0207 105.449Z" fill="#AD6359"/>
<path d="M76.2603 100.599C76.2628 100.627 76.2628 100.655 76.2603 100.683C75.988 100.679 75.7164 100.653 75.4483 100.604C70.1843 99.6804 70.5596 92.8652 70.5596 92.8652L72.6316 93.274L77.7835 95.3908C77.0952 96.8842 76.593 98.4565 76.2883 100.072C76.2625 100.247 76.2531 100.423 76.2603 100.599Z" fill="#121212"/>
<path d="M69.6979 84.0904C68.6955 86.8568 69.7651 95.044 71.6691 96.9704C74.4299 99.7704 79.1619 100.235 81.5643 96.864C83.8995 93.6048 82.3147 82.9536 80.1699 81.184C77.0059 78.5912 71.1763 80.008 69.6979 84.0904Z" fill="#AD6359"/>
<path d="M77.1563 89.7578C77.1563 89.7578 77.1171 89.7914 77.1227 89.8138C77.2067 90.3738 77.2179 91.0066 76.7363 91.253C76.7363 91.253 76.7363 91.2866 76.7363 91.281C77.3467 91.1186 77.3299 90.2618 77.1563 89.7578Z" fill="#121212"/>
<path d="M76.5916 89.2428C75.6956 89.2876 75.8524 91.074 76.6812 91.0348C77.51 90.9956 77.342 89.2036 76.5916 89.2428Z" fill="#121212"/>
<path d="M80.5507 89.3887C80.5507 89.3887 80.5955 89.3887 80.5955 89.4335C80.6291 89.9935 80.7579 90.6207 81.2731 90.7663C80.6403 90.7607 80.4891 89.9207 80.5507 89.3887Z" fill="#121212"/>
<path d="M80.9982 88.7656C81.883 88.6256 82.1182 90.4064 81.2838 90.5408C80.4494 90.6752 80.2534 88.8888 80.9982 88.7656Z" fill="#121212"/>
<path d="M75.8967 87.9204C76.1319 87.8364 76.3391 87.7188 76.5687 87.6124C76.8185 87.5396 77.0372 87.386 77.1903 87.1756C77.2275 87.1003 77.2384 87.0146 77.2211 86.9324C77.2039 86.8501 77.1595 86.7761 77.0951 86.722C76.9495 86.638 76.7844 86.5938 76.6163 86.5938C76.4482 86.5938 76.2831 86.638 76.1375 86.722C75.8161 86.8434 75.5522 87.0813 75.3983 87.3884C75.3703 87.4595 75.3629 87.537 75.3772 87.6121C75.3915 87.6871 75.4269 87.7565 75.4791 87.8123C75.5313 87.868 75.5983 87.9078 75.6722 87.9269C75.7462 87.9461 75.824 87.9438 75.8967 87.9204Z" fill="#121212"/>
<path d="M81.5579 88.1615C81.3131 88.1346 81.07 88.0934 80.8299 88.0383C80.568 88.0299 80.316 87.9355 80.1131 87.7695C80.0632 87.7034 80.0361 87.6228 80.0361 87.5399C80.0361 87.4571 80.0632 87.3765 80.1131 87.3103C80.2283 87.1879 80.3747 87.0993 80.5365 87.0539C80.6984 87.0085 80.8695 87.0081 81.0315 87.0527C81.3743 87.0882 81.6917 87.2499 81.9219 87.5063C81.9703 87.5696 81.9991 87.6455 82.0049 87.7249C82.0107 87.8043 81.9932 87.8836 81.9545 87.9532C81.9159 88.0227 81.8578 88.0795 81.7873 88.1165C81.7169 88.1535 81.6371 88.1692 81.5579 88.1615Z" fill="#121212"/>
<path d="M79.7723 92.4016C79.8285 92.8046 79.864 93.2101 79.8787 93.6168C79.1213 93.6198 78.3678 93.7253 77.6387 93.9304C77.4707 93.9864 77.4707 93.8408 77.6387 93.7288C78.2091 93.3893 78.8692 93.2311 79.5315 93.2752C79.5315 93.1688 79.3411 92.0096 79.4027 92.004C79.7035 92.0346 79.9991 92.1042 80.2819 92.2112C80.1083 90.4864 79.6603 88.8008 79.5091 87.0816C79.5091 87.02 79.5931 86.9976 79.6099 87.0536C80.151 88.844 80.5094 90.6845 80.6795 92.5472C80.7299 92.7656 79.9291 92.4632 79.7723 92.4016Z" fill="#121212"/>
<path d="M70.2916 90.9174C71.7028 90.8166 71.5236 87.367 71.5236 87.367C71.5236 87.367 73.674 86.9526 74.6876 84.007C74.6876 84.007 77.4876 85.687 79.8004 85.2614C83.4292 84.5558 83.2724 79.8238 81.9004 78.8774C79.9516 77.5334 76.5356 79.5662 76.5356 79.5662C76.5356 79.5662 71.3164 78.183 69.8156 81.7222C69.1418 81.7774 68.514 82.0861 68.0588 82.5859C67.6036 83.0858 67.3549 83.7397 67.3628 84.4158C67.2284 86.9638 69.2444 90.9902 70.2916 90.9174Z" fill="#121212"/>
<path d="M71.0247 87.7803C72.0689 87.5871 73.0188 87.051 73.7239 86.2571C74.1028 85.8279 74.3724 85.3136 74.5098 84.7578C74.6473 84.2021 74.6486 83.6214 74.5135 83.0651C74.517 83.0552 74.5234 83.0466 74.5319 83.0406C74.5405 83.0345 74.5507 83.0312 74.5611 83.0312C74.5716 83.0312 74.5818 83.0345 74.5903 83.0406C74.5989 83.0466 74.6053 83.0552 74.6087 83.0651C74.7763 83.6476 74.813 84.2599 74.7162 84.8582C74.6194 85.4565 74.3915 86.026 74.0487 86.5259C73.7064 86.9997 73.2463 87.376 72.714 87.6176C72.1817 87.8592 71.5956 87.9577 71.0135 87.9035C70.9799 87.8755 70.9631 87.7915 71.0247 87.7803Z" fill="#121212"/>
<path d="M76.3955 79.7222C76.8452 78.9797 77.5499 78.4263 78.3779 78.1654C79.3846 77.8797 80.4614 77.9754 81.4019 78.4342C81.776 78.6303 82.092 78.9214 82.318 79.2782C82.5441 79.635 82.6724 80.045 82.6899 80.467C82.7012 81.4462 82.3749 82.3993 81.7659 83.1662C81.7659 83.1662 81.7155 83.1662 81.7323 83.1662C82.2182 82.4422 82.4668 81.585 82.4435 80.7134C82.4283 80.2987 82.2962 79.8967 82.0623 79.5539C81.8285 79.211 81.5025 78.9413 81.1219 78.7758C79.6211 78.1318 77.4371 78.2662 76.4739 79.795C76.4459 79.8286 76.3619 79.7726 76.3955 79.7222Z" fill="#121212"/>
<path d="M71.1202 90.7871C71.1202 90.7871 69.3674 88.1047 68.1522 88.7263C66.937 89.3479 68.2082 93.2063 69.5914 93.7663C69.7635 93.8504 69.9509 93.8988 70.1423 93.9087C70.3336 93.9186 70.525 93.8897 70.7049 93.8238C70.8848 93.7579 71.0495 93.6564 71.1892 93.5252C71.3289 93.3941 71.4407 93.2361 71.5178 93.0607L71.1202 90.7871Z" fill="#AD6359"/>
<path d="M68.5156 89.8184C68.5156 89.8184 68.5156 89.8464 68.5156 89.8576C68.9583 90.0956 69.3461 90.424 69.6538 90.8215C69.9616 91.2189 70.1824 91.6765 70.302 92.1648C70.2484 92.0642 70.1735 91.9765 70.0825 91.9079C69.9915 91.8392 69.8867 91.7912 69.7753 91.7673C69.6639 91.7433 69.5486 91.7439 69.4374 91.769C69.3262 91.7941 69.2219 91.8432 69.1316 91.9128C69.1316 91.9128 69.1316 91.9688 69.1316 91.9632C69.3056 91.9138 69.4906 91.9195 69.6611 91.9797C69.8316 92.0399 69.9792 92.1515 70.0836 92.2992C70.2574 92.5478 70.4038 92.8144 70.5204 93.0944C70.5652 93.184 70.722 93.1392 70.694 93.0384C70.7724 91.7672 69.854 89.9864 68.5156 89.8184Z" fill="#121212"/>
<path d="M18.2952 263.38H0V260.02H18.2952C32.788 260.02 36.9208 247.616 37.8336 237.211C38.5504 229.063 38.9872 219.14 39.452 208.651C41.1936 169.35 42.9968 128.711 58.8112 128.711H73.304V132.071H58.8C46.2 132.071 44.24 176.417 42.8008 208.791C42.3304 219.336 41.888 229.293 41.1712 237.519C39.7152 254.19 31.5896 263.38 18.2952 263.38Z" fill="#FFC727"/>
<path opacity="0.2" d="M73.3035 128.693V132.053H61.7451L61.0283 128.693H73.3035Z" fill="#121212"/>
<path d="M123.581 152.08H129.752V108.971H123.581V152.08Z" fill="#FFC727"/>
<path d="M123.581 111.016H100.128V149.588H123.581V111.016Z" fill="#FFC727"/>
<path opacity="0.2" d="M123.581 111.016V149.588H117.757L115.142 111.016H123.581Z" fill="#121212"/>
<path d="M64.6018 133.807H82.001V126.935H64.6018V133.807Z" fill="#FFC727"/>
<path d="M82.0008 126.941H64.6016V133.813H82.0008V126.941Z" fill="#FFC727"/>
<path opacity="0.2" d="M75.8916 133.807L76.4628 126.941H82.0012V133.807H75.8916Z" fill="#121212"/>
<path d="M100.128 147.303H85.4447C84.5313 147.303 83.6553 146.94 83.0095 146.294C82.3636 145.648 82.0007 144.772 82.0007 143.859V117.18C82.0007 116.267 82.3636 115.391 83.0095 114.745C83.6553 114.099 84.5313 113.736 85.4447 113.736H100.128V147.303Z" fill="#FFC727"/>
<path opacity="0.2" d="M92.4111 147.303L95.0263 113.742H100.128V147.303H92.4111Z" fill="#121212"/>
<g opacity="0.2">
<path d="M93.7607 140.516H94.9199V120.524H93.7607V140.516Z" fill="#121212"/>
<path d="M90.4844 140.516H91.6436V120.524H90.4844V140.516Z" fill="#121212"/>
<path d="M87.2031 140.516H88.3623V120.524H87.2031V140.516Z" fill="#121212"/>
</g>
<path d="M63.5317 107.044C62.9717 115.13 62.3333 131.6 65.9061 136.433C70.5933 142.772 83.8261 146.619 87.7461 147.773C89.4261 148.271 93.4525 137.133 92.4557 135.531C91.4589 133.93 77.8005 130.491 76.7253 129.55C75.6501 128.61 72.2453 115.483 70.6269 108.797C68.5325 100.363 63.7613 103.852 63.5317 107.044Z" fill="#AD6359"/>
<path d="M102.547 139.81C104.703 140.325 107.974 139.216 108.08 140.868C108.175 142.335 105.84 142.878 105.84 142.878C105.84 142.878 108.674 143.119 108.326 144.726C107.979 146.334 105.291 146.406 105.291 146.406C105.291 146.406 107.89 146.759 107.425 148.338C106.96 149.918 104.468 150.136 104.468 150.136C104.468 150.136 105.123 150.623 104.294 151.592C103.113 152.981 99.1705 152.818 97.1377 152.247C95.1049 151.676 88.0657 148.07 86.9961 147.493L90.5633 134.389C90.5633 134.389 94.6569 133.739 96.7737 133.661C98.8905 133.582 105.93 135.262 105.633 137.021C105.336 138.779 100.38 137.525 99.0977 137.48C97.8153 137.435 97.5913 137.721 98.1513 138.191C98.5153 138.522 101.59 139.58 102.547 139.81Z" fill="#AD6359"/>
<path d="M105.711 142.85C102.401 143.41 100.856 143.041 97.8206 141.73C97.759 141.702 97.7086 141.786 97.7702 141.82C100.626 143.36 102.502 144.06 105.745 143.001C105.907 142.957 105.873 142.828 105.711 142.85Z" fill="#121212"/>
<path d="M105.42 146.351C101.932 146.603 100.257 146.25 96.9757 145.119C96.9309 145.119 96.8973 145.181 96.9421 145.203C100.072 146.575 101.954 147.242 105.409 146.53C105.566 146.502 105.583 146.34 105.42 146.351Z" fill="#121212"/>
<path d="M104.423 150.114C101.024 150.114 99.1705 149.8 96.1241 148.299C96.1101 148.292 96.094 148.291 96.079 148.296C96.064 148.3 96.0513 148.31 96.0434 148.324C96.0356 148.337 96.0332 148.353 96.0368 148.369C96.0403 148.384 96.0495 148.397 96.0625 148.406C99.0193 150.243 101.332 150.646 104.412 150.22C104.619 150.187 104.636 150.114 104.423 150.114Z" fill="#121212"/>
<path d="M77.4144 145.148C77.4144 145.148 66.7352 139.783 65.0944 135.673C63.0784 130.543 62.2552 115.586 63.0392 107.914C63.8232 100.242 69.1656 101.194 70.8792 107.975C72.5592 114.594 76.3504 127.816 76.7424 128.438C77.2408 129.238 83.3336 130.745 83.3336 130.745" fill="#455A64"/>
<path d="M76.345 126.724C76.1602 126.091 75.8354 124.663 75.6506 124.047C75.2754 122.815 74.9002 121.577 74.5306 120.345C74.161 119.113 73.7634 117.876 73.3546 116.649C73.2818 116.442 73.2146 116.229 73.1474 116.022C73.181 115.888 73.0298 114.264 73.041 113.866C73.041 113.804 72.9402 113.799 72.9458 113.866C72.9607 114.264 72.9476 114.663 72.9066 115.059C72.9066 115.132 72.9066 115.21 72.9066 115.283C72.649 114.476 72.3914 113.676 72.1282 112.892C72.1282 112.836 72.0162 112.858 72.033 112.892C72.537 114.572 72.7834 115.63 73.153 116.991C73.5226 118.352 73.9034 119.617 74.273 120.911C74.6426 122.204 75.0738 123.52 75.4826 124.831C75.7125 125.607 75.9817 126.372 76.289 127.121C76.5242 127.625 76.5354 127.39 76.345 126.724Z" fill="#121212"/>
<path d="M64.299 131.242C64.0806 129.859 63.8622 128.442 63.6942 127.076C63.3526 124.276 63.1341 121.521 63.0109 118.721C62.9381 117.119 62.8205 115.529 62.7309 113.933C62.7309 113.916 62.7245 113.901 62.7129 113.889C62.7014 113.878 62.6857 113.871 62.6694 113.871C62.653 113.871 62.6373 113.878 62.6258 113.889C62.6142 113.901 62.6078 113.916 62.6078 113.933C62.6078 115.355 62.5574 116.772 62.6078 118.194C62.6078 118.401 62.6078 118.609 62.6078 118.816L62.5406 118.525C62.3334 117.713 62.0422 116.917 61.863 116.094C61.8581 116.085 61.8499 116.077 61.84 116.073C61.8301 116.069 61.8191 116.069 61.809 116.072C61.7988 116.076 61.7902 116.083 61.7847 116.092C61.7792 116.101 61.7772 116.112 61.779 116.122C61.9806 116.94 62.087 117.802 62.2774 118.603C62.3782 119.012 62.4789 119.421 62.5909 119.829L62.647 120.003C62.6806 120.821 62.7198 121.638 62.7758 122.456C62.9276 125.262 63.2511 128.056 63.7446 130.822C64.0829 132.631 64.5718 134.409 65.2062 136.137C65.2093 136.145 65.2151 136.153 65.2226 136.158C65.2301 136.163 65.239 136.166 65.2482 136.166C65.2573 136.166 65.2662 136.163 65.2737 136.158C65.2812 136.153 65.287 136.145 65.2901 136.137C64.9597 134.753 64.523 132.625 64.299 131.242Z" fill="#121212"/>
<path d="M81.3513 130.739C80.7665 131.744 80.2429 132.784 79.7833 133.852C79.2905 134.905 78.7921 135.958 78.3273 137.022C77.3849 139.117 76.5604 141.263 75.8577 143.451C75.8564 143.463 75.8592 143.475 75.8656 143.486C75.872 143.496 75.8816 143.505 75.8931 143.509C75.9046 143.513 75.9172 143.514 75.9291 143.511C75.9409 143.507 75.9513 143.5 75.9585 143.49C77.0001 141.418 77.8905 139.262 78.7977 137.128C79.2457 136.076 79.6769 135.012 80.1193 133.959C80.5617 132.906 81.0657 131.848 81.4073 130.761C81.4185 130.728 81.3681 130.711 81.3513 130.739Z" fill="#121212"/>
<path d="M140.09 101.758C140.015 101.758 139.944 101.728 139.892 101.676C139.839 101.623 139.81 101.552 139.81 101.478V93.5984C139.81 93.5241 139.839 93.4529 139.892 93.4004C139.944 93.3479 140.015 93.3184 140.09 93.3184C140.164 93.3184 140.235 93.3479 140.288 93.4004C140.34 93.4529 140.37 93.5241 140.37 93.5984V101.478C140.37 101.552 140.34 101.623 140.288 101.676C140.235 101.728 140.164 101.758 140.09 101.758Z" fill="#121212"/>
<path d="M125.832 105.532C125.783 105.532 125.734 105.519 125.69 105.495C125.647 105.47 125.611 105.435 125.586 105.392L121.666 98.5658C121.643 98.5341 121.627 98.4979 121.618 98.4596C121.61 98.4213 121.61 98.3817 121.618 98.3434C121.626 98.305 121.642 98.2688 121.665 98.2371C121.688 98.2053 121.718 98.1787 121.752 98.159C121.785 98.1393 121.823 98.127 121.862 98.1227C121.901 98.1185 121.94 98.1225 121.978 98.1344C122.015 98.1464 122.049 98.166 122.079 98.1921C122.108 98.2182 122.131 98.2501 122.147 98.2858L126.067 105.112C126.086 105.144 126.099 105.179 126.104 105.215C126.109 105.251 126.107 105.288 126.098 105.324C126.088 105.359 126.072 105.393 126.049 105.422C126.027 105.451 125.999 105.475 125.967 105.493C125.926 105.518 125.88 105.531 125.832 105.532Z" fill="#121212"/>
<path d="M121.733 161.711C121.684 161.712 121.635 161.698 121.593 161.672C121.562 161.652 121.535 161.625 121.514 161.594C121.493 161.563 121.479 161.528 121.472 161.492C121.466 161.455 121.466 161.417 121.475 161.381C121.483 161.345 121.498 161.31 121.52 161.28L125.44 154.459C125.459 154.427 125.483 154.399 125.513 154.377C125.542 154.354 125.575 154.338 125.611 154.328C125.646 154.318 125.684 154.316 125.72 154.321C125.757 154.325 125.792 154.337 125.824 154.356C125.856 154.374 125.884 154.399 125.907 154.428C125.929 154.457 125.946 154.49 125.955 154.526C125.965 154.562 125.967 154.599 125.963 154.635C125.958 154.672 125.946 154.707 125.928 154.739L122.008 161.56C121.982 161.61 121.942 161.651 121.894 161.678C121.845 161.705 121.789 161.716 121.733 161.711Z" fill="#121212"/>
<path d="M139.911 166.627C139.837 166.627 139.765 166.598 139.713 166.545C139.66 166.493 139.631 166.421 139.631 166.347V158.479C139.631 158.405 139.66 158.334 139.713 158.281C139.765 158.229 139.837 158.199 139.911 158.199C139.985 158.201 140.055 158.231 140.107 158.283C140.159 158.335 140.189 158.405 140.191 158.479V166.358C140.188 166.431 140.157 166.499 140.105 166.549C140.053 166.599 139.983 166.627 139.911 166.627Z" fill="#121212"/>
<path d="M158.111 161.802C158.062 161.801 158.014 161.788 157.972 161.764C157.93 161.739 157.895 161.704 157.87 161.662L153.95 154.841C153.932 154.809 153.92 154.774 153.915 154.737C153.911 154.7 153.913 154.663 153.923 154.628C153.932 154.592 153.949 154.559 153.971 154.529C153.994 154.5 154.022 154.476 154.054 154.457C154.086 154.439 154.121 154.427 154.158 154.422C154.195 154.418 154.232 154.42 154.267 154.43C154.303 154.439 154.336 154.456 154.366 154.478C154.395 154.501 154.419 154.529 154.438 154.561L158.358 161.382C158.377 161.413 158.389 161.448 158.394 161.484C158.399 161.521 158.397 161.558 158.388 161.593C158.378 161.629 158.362 161.662 158.339 161.691C158.317 161.72 158.289 161.744 158.257 161.762C158.213 161.789 158.163 161.803 158.111 161.802Z" fill="#121212"/>
<path d="M154.325 105.621C154.276 105.622 154.227 105.608 154.185 105.582C154.153 105.564 154.125 105.54 154.102 105.511C154.08 105.482 154.063 105.449 154.054 105.413C154.045 105.378 154.042 105.341 154.048 105.304C154.053 105.268 154.065 105.233 154.084 105.201L158.004 98.3751C158.045 98.319 158.105 98.2801 158.173 98.2658C158.241 98.2515 158.311 98.2629 158.371 98.2977C158.431 98.3325 158.476 98.3884 158.497 98.4544C158.518 98.5204 158.514 98.5919 158.486 98.6551L154.566 105.481C154.541 105.523 154.505 105.558 154.463 105.582C154.421 105.607 154.374 105.62 154.325 105.621Z" fill="#121212"/>
</svg>
