<svg width="280" height="230" viewBox="0 0 280 230" fill="none" xmlns="http://www.w3.org/2000/svg">
<path d="M280 201.684H0V201.837H280V201.684Z" fill="#EBEBEB"/>
<path d="M47.9261 207.531H29.3789V207.685H47.9261V207.531Z" fill="#EBEBEB"/>
<path d="M119.657 205.867H95.8398V206.021H119.657V205.867Z" fill="#EBEBEB"/>
<path d="M63.0901 209.688H52.3438V209.841H63.0901V209.688Z" fill="#EBEBEB"/>
<path d="M251.943 212.207H243.414V212.361H251.943V212.207Z" fill="#EBEBEB"/>
<path d="M238.425 212.207H219.223V212.361H238.425V212.207Z" fill="#EBEBEB"/>
<path d="M185.825 207.781H172.48V207.935H185.825V207.781Z" fill="#EBEBEB"/>
<path d="M132.721 174.287H24.596C23.748 174.287 22.9347 173.918 22.335 173.26C21.7353 172.602 21.3984 171.71 21.3984 170.78V4.05476C21.4058 3.12989 21.746 2.24565 22.3448 1.59452C22.9437 0.943395 23.7528 0.57809 24.596 0.578125H132.721C133.569 0.578125 134.382 0.947649 134.982 1.6054C135.582 2.26316 135.918 3.15527 135.918 4.08548V170.78C135.918 171.71 135.582 172.602 134.982 173.26C134.382 173.918 133.569 174.287 132.721 174.287ZM24.596 0.700975C23.7856 0.702599 23.0087 1.05646 22.4356 1.68507C21.8625 2.31368 21.5399 3.16578 21.5384 4.05476V170.78C21.5399 171.669 21.8625 172.521 22.4356 173.15C23.0087 173.778 23.7856 174.132 24.596 174.134H132.721C133.531 174.132 134.308 173.778 134.881 173.15C135.454 172.521 135.777 171.669 135.778 170.78V4.05476C135.777 3.16578 135.454 2.31368 134.881 1.68507C134.308 1.05646 133.531 0.702599 132.721 0.700975H24.596Z" fill="#EBEBEB"/>
<path d="M253.853 174.287H145.717C144.87 174.286 144.057 173.916 143.458 173.258C142.858 172.601 142.521 171.71 142.52 170.78V4.05476C142.528 3.13039 142.869 2.24708 143.468 1.5963C144.066 0.945511 144.874 0.57969 145.717 0.578125H253.853C254.694 0.581322 255.501 0.948055 256.097 1.59884C256.694 2.24962 257.032 3.13201 257.04 4.05476V170.78C257.04 171.708 256.704 172.598 256.107 173.256C255.51 173.913 254.699 174.284 253.853 174.287ZM145.717 0.700975C144.907 0.702599 144.13 1.05646 143.557 1.68507C142.984 2.31368 142.661 3.16578 142.66 4.05476V170.78C142.661 171.669 142.984 172.521 143.557 173.15C144.13 173.778 144.907 174.132 145.717 174.134H253.853C254.664 174.132 255.44 173.778 256.014 173.15C256.587 172.521 256.909 171.669 256.911 170.78V4.05476C256.909 3.16578 256.587 2.31368 256.014 1.68507C255.44 1.05646 254.664 0.702599 253.853 0.700975H145.717Z" fill="#EBEBEB"/>
<path d="M172.198 87.4141L232.605 87.4141V20.9771L172.198 20.9771V87.4141Z" fill="#F0F0F0"/>
<path d="M172.198 20.9844H171.156V87.4213H172.198V20.9844Z" fill="#E0E0E0"/>
<path d="M177.534 83.2188H227.273V25.1724L177.534 25.1724V83.2188Z" fill="#FAFAFA"/>
<path d="M197.118 70.6016H212.871C216.287 70.6016 218.572 67.5672 217.973 63.8448L214.909 44.6005C214.569 42.7384 213.664 41.0574 212.343 39.8307C211.021 38.604 209.36 37.9037 207.629 37.8438H191.916C188.5 37.8438 186.215 40.8781 186.814 44.6005L189.877 63.8448C190.215 65.7004 191.114 67.3768 192.428 68.6029C193.742 69.829 195.394 70.5331 197.118 70.6016Z" fill="#F0F0F0"/>
<path d="M58.7838 107.594H45.3438V198.533H58.7838V107.594Z" fill="#F0F0F0"/>
<path d="M117.756 198.539H46.7148V201.678H117.756V198.539Z" fill="#F0F0F0"/>
<path d="M58.7823 198.539H118.938L118.937 107.6L58.7823 107.6L58.7823 198.539Z" fill="#F5F5F5"/>
<path d="M61.2027 171.184H116.52V154.943H61.2027V171.184Z" fill="#F0F0F0"/>
<path d="M61.2027 192.438H116.52V176.197H61.2027V192.438Z" fill="#F0F0F0"/>
<path d="M109.971 153.949H67.7467C67.3818 153.949 67.0859 154.274 67.0859 154.674V155.454C67.0859 155.854 67.3818 156.179 67.7467 156.179H109.971C110.336 156.179 110.632 155.854 110.632 155.454V154.674C110.632 154.274 110.336 153.949 109.971 153.949Z" fill="#F5F5F5"/>
<path d="M109.971 175.207H67.7467C67.3818 175.207 67.0859 175.532 67.0859 175.932V176.712C67.0859 177.112 67.3818 177.437 67.7467 177.437H109.971C110.336 177.437 110.632 177.112 110.632 176.712V175.932C110.632 175.532 110.336 175.207 109.971 175.207Z" fill="#F5F5F5"/>
<path d="M61.2027 128.844H116.52V112.603H61.2027V128.844Z" fill="#F0F0F0"/>
<path d="M61.2027 149.941H116.52V133.701H61.2027V149.941Z" fill="#F0F0F0"/>
<path d="M109.971 111.613H67.7467C67.3818 111.613 67.0859 111.938 67.0859 112.338V113.118C67.0859 113.518 67.3818 113.843 67.7467 113.843H109.971C110.336 113.843 110.632 113.518 110.632 113.118V112.338C110.632 111.938 110.336 111.613 109.971 111.613Z" fill="#F5F5F5"/>
<path d="M109.971 132.695H67.7467C67.3818 132.695 67.0859 133.02 67.0859 133.42V134.2C67.0859 134.601 67.3818 134.925 67.7467 134.925H109.971C110.336 134.925 110.632 134.601 110.632 134.2V133.42C110.632 133.02 110.336 132.695 109.971 132.695Z" fill="#F5F5F5"/>
<path d="M116.758 15.9727H41.3203V88.6135H116.758V15.9727Z" fill="#E6E6E6"/>
<path d="M124.847 13.1445H36.4401C36.3419 13.1445 36.2445 13.1659 36.1538 13.2073C36.0631 13.2487 35.9807 13.3095 35.9115 13.386C35.8423 13.4625 35.7875 13.5533 35.7504 13.6531C35.7133 13.7529 35.6946 13.8598 35.6953 13.9676C35.6953 14.1843 35.7738 14.3921 35.9135 14.5453C36.0532 14.6985 36.2426 14.7846 36.4401 14.7846H124.847C125.045 14.7846 125.235 14.6987 125.376 14.5457C125.517 14.3926 125.596 14.1849 125.598 13.9676C125.598 13.7493 125.519 13.54 125.378 13.3856C125.237 13.2313 125.046 13.1445 124.847 13.1445Z" fill="#E6E6E6"/>
<path d="M119.966 15.9727H42.8203V88.6135H119.966V15.9727Z" fill="#F0F0F0"/>
<path d="M116.758 88.6094H41.3203V90.9374H118.964L116.758 88.6094Z" fill="#E6E6E6"/>
<path d="M125.296 88.6094H48.1562L50.357 90.9374H127.503L125.296 88.6094Z" fill="#F0F0F0"/>
<path d="M115.484 83.6996V20.8867L47.3044 20.8867V83.6996H115.484Z" fill="#FAFAFA"/>
<path d="M62.7812 83.6996L89.0789 20.8867H101.5L75.1964 83.6996H62.7812Z" fill="white"/>
<path d="M77.8594 83.6996L104.163 20.8867H109.001L82.7034 83.6996H77.8594Z" fill="white"/>
<path d="M115.484 83.6996V20.8867H114.913V83.6996H115.484Z" fill="#E6E6E6"/>
<g opacity="0.4">
<path d="M47.3557 11.6797H39.6445V71.6241H47.3557V11.6797Z" fill="#F0F0F0"/>
<path d="M50.3643 11.6797H44.3555V71.6241H50.3643V11.6797Z" fill="#E6E6E6"/>
<path d="M55.0667 11.6797H47.3555V71.6241H55.0667V11.6797Z" fill="#F0F0F0"/>
<path d="M58.0752 11.6797H52.0664V71.6241H58.0752V11.6797Z" fill="#E6E6E6"/>
<path d="M62.7776 11.6797H55.0664V71.6241H62.7776V11.6797Z" fill="#F0F0F0"/>
</g>
<g opacity="0.4">
<path d="M112.614 11.6797H108.168V71.6241H112.614V11.6797Z" fill="#F0F0F0"/>
<path d="M114.34 11.6797H110.879V71.6241H114.34V11.6797Z" fill="#E6E6E6"/>
<path d="M117.056 11.6797H112.609V71.6241H117.056V11.6797Z" fill="#F0F0F0"/>
<path d="M118.785 11.6797H115.324V71.6241H118.785V11.6797Z" fill="#E6E6E6"/>
<path d="M121.501 11.6797H117.055V71.6241H121.501V11.6797Z" fill="#F0F0F0"/>
</g>
<path d="M199.838 132.154C199.772 133.043 199.948 133.933 200.343 134.712C200.738 135.491 201.335 136.124 202.058 136.531C202.781 136.938 203.598 137.101 204.405 136.999C205.213 136.897 205.974 136.534 206.594 135.958C207.214 135.381 207.664 134.616 207.887 133.758C208.11 132.901 208.097 131.991 207.848 131.142C207.6 130.293 207.128 129.544 206.491 128.99C205.855 128.435 205.083 128.1 204.273 128.027C203.186 127.93 202.108 128.31 201.277 129.084C200.445 129.858 199.928 130.962 199.838 132.154Z" fill="#E0E0E0"/>
<path d="M211.263 139.335C213.512 138.972 215.067 136.678 214.736 134.211C214.405 131.744 212.313 130.038 210.064 130.401C207.815 130.764 206.26 133.058 206.591 135.525C206.922 137.992 209.014 139.698 211.263 139.335Z" fill="#E0E0E0"/>
<path d="M213.764 135.436C213.698 136.325 213.873 137.215 214.269 137.994C214.664 138.773 215.26 139.406 215.984 139.813C216.707 140.22 217.524 140.383 218.331 140.281C219.138 140.179 219.9 139.817 220.52 139.24C221.139 138.663 221.589 137.898 221.813 137.041C222.036 136.183 222.023 135.273 221.774 134.424C221.526 133.575 221.053 132.826 220.417 132.272C219.781 131.717 219.009 131.382 218.199 131.309C217.66 131.259 217.118 131.327 216.603 131.507C216.089 131.688 215.612 131.979 215.2 132.362C214.787 132.746 214.449 133.215 214.202 133.742C213.956 134.27 213.807 134.846 213.764 135.436Z" fill="#E0E0E0"/>
<path d="M192.193 134.521C192.127 135.41 192.303 136.3 192.698 137.079C193.093 137.858 193.69 138.491 194.413 138.898C195.136 139.305 195.953 139.468 196.761 139.366C197.568 139.264 198.33 138.902 198.949 138.325C199.569 137.748 200.019 136.983 200.242 136.126C200.466 135.268 200.452 134.358 200.204 133.509C199.955 132.66 199.483 131.911 198.847 131.357C198.21 130.802 197.438 130.467 196.628 130.394C195.541 130.297 194.464 130.677 193.632 131.451C192.801 132.225 192.283 133.329 192.193 134.521Z" fill="#E0E0E0"/>
<path d="M224.399 139.331C226.648 138.968 228.203 136.674 227.872 134.207C227.541 131.74 225.45 130.035 223.201 130.398C220.952 130.76 219.397 133.054 219.728 135.521C220.059 137.988 222.15 139.694 224.399 139.331Z" fill="#E0E0E0"/>
<path d="M193.42 134.506C195.148 132.885 195.351 130.035 193.873 128.14C192.396 126.245 189.797 126.023 188.07 127.644C186.342 129.264 186.139 132.114 187.617 134.009C189.094 135.904 191.693 136.127 193.42 134.506Z" fill="#E0E0E0"/>
<path d="M180.834 133.494C180.768 134.383 180.944 135.273 181.339 136.052C181.734 136.831 182.331 137.464 183.054 137.871C183.777 138.278 184.594 138.441 185.401 138.339C186.209 138.237 186.97 137.874 187.59 137.297C188.21 136.721 188.66 135.955 188.883 135.098C189.106 134.241 189.093 133.33 188.844 132.482C188.596 131.633 188.124 130.884 187.487 130.329C186.851 129.775 186.079 129.44 185.269 129.366C184.182 129.27 183.104 129.65 182.273 130.424C181.441 131.198 180.924 132.302 180.834 133.494Z" fill="#E0E0E0"/>
<path d="M176.137 134.711C176.137 134.711 176.842 153.181 203.902 153.181C230.961 153.181 231.666 134.711 231.666 134.711H176.137Z" fill="#F0F0F0"/>
<path d="M247.103 153.18H241.957V201.674H247.103V153.18Z" fill="#E6E6E6"/>
<path d="M248.475 153.18H245.445V201.675H248.475V153.18Z" fill="#F0F0F0"/>
<path d="M225.209 153.18H220.062V201.674H225.209V153.18Z" fill="#E6E6E6"/>
<path d="M226.174 153.18H223.145V201.674H226.174V153.18Z" fill="#F0F0F0"/>
<path d="M176.36 159.066H249.418V153.188H176.36V159.066Z" fill="#F0F0F0"/>
<path d="M154.033 153.18H148.887V201.674H154.033V153.18Z" fill="#E6E6E6"/>
<path d="M154.998 153.18H151.969V201.674H154.998V153.18Z" fill="#F0F0F0"/>
<path d="M147.969 159.066H174.16V153.188H147.969V159.066Z" fill="#E6E6E6"/>
<path d="M175.924 153.18H170.777V201.674H175.924V153.18Z" fill="#E6E6E6"/>
<path d="M177.303 153.18H174.273V201.674H177.303V153.18Z" fill="#F0F0F0"/>
<path d="M140 229.426C199.966 229.426 248.579 226.313 248.579 222.473C248.579 218.633 199.966 215.52 140 215.52C80.0341 215.52 31.4219 218.633 31.4219 222.473C31.4219 226.313 80.0341 229.426 140 229.426Z" fill="#F5F5F5"/>
<path d="M199.068 216.371C199.069 217.599 198.673 218.787 197.95 219.724C197.227 220.661 196.224 221.286 195.12 221.488C181.534 224.002 167.659 224.002 154.072 221.488C152.973 221.28 151.977 220.653 151.259 219.716C150.541 218.78 150.149 217.595 150.152 216.371V166.617H199.091L199.068 216.371Z" fill="#664EFE"/>
<path opacity="0.3" d="M150.125 167.512V174.496C153.071 175.694 162.742 176.572 174.597 176.572C186.452 176.572 196.14 175.694 199.069 174.496V167.512H150.125Z" fill="black"/>
<path d="M199.988 172.837C199.988 174.415 188.877 175.693 174.597 175.693C160.317 175.693 149.207 174.415 149.207 172.837L148.742 166.633H200.481L199.988 172.837Z" fill="#664EFE"/>
<path d="M174.597 169.485C188.877 169.485 200.453 168.209 200.453 166.635C200.453 165.061 188.877 163.785 174.597 163.785C160.318 163.785 148.742 165.061 148.742 166.635C148.742 168.209 160.318 169.485 174.597 169.485Z" fill="#664EFE"/>
<path opacity="0.3" d="M174.597 169.485C188.877 169.485 200.453 168.209 200.453 166.635C200.453 165.061 188.877 163.785 174.597 163.785C160.318 163.785 148.742 165.061 148.742 166.635C148.742 168.209 160.318 169.485 174.597 169.485Z" fill="black"/>
<path opacity="0.2" d="M156.687 212.87C156.184 212.868 155.702 212.648 155.347 212.258C154.991 211.868 154.791 211.339 154.789 210.788V182.262C154.791 181.71 154.991 181.182 155.347 180.791C155.702 180.401 156.184 180.181 156.687 180.18C157.19 180.183 157.671 180.403 158.027 180.793C158.382 181.183 158.583 181.711 158.586 182.262V210.788C158.583 211.339 158.382 211.867 158.027 212.256C157.671 212.646 157.19 212.867 156.687 212.87Z" fill="black"/>
<path opacity="0.2" d="M192.512 212.87C192.009 212.868 191.527 212.648 191.171 212.258C190.815 211.868 190.615 211.339 190.613 210.788V182.262C190.615 181.71 190.815 181.182 191.171 180.791C191.527 180.401 192.009 180.181 192.512 180.18C193.014 180.183 193.495 180.403 193.851 180.793C194.206 181.183 194.407 181.711 194.41 182.262V210.788C194.407 211.339 194.206 211.867 193.851 212.256C193.495 212.646 193.014 212.867 192.512 212.87Z" fill="black"/>
<path opacity="0.2" d="M180.566 212.87C180.064 212.867 179.583 212.646 179.227 212.256C178.872 211.867 178.671 211.339 178.668 210.788V182.262C178.671 181.711 178.872 181.183 179.227 180.793C179.583 180.403 180.064 180.183 180.566 180.18C181.069 180.181 181.551 180.401 181.907 180.791C182.263 181.182 182.463 181.71 182.465 182.262V210.788C182.463 211.339 182.263 211.868 181.907 212.258C181.551 212.648 181.069 212.868 180.566 212.87Z" fill="black"/>
<path opacity="0.2" d="M168.629 212.87C168.126 212.867 167.645 212.646 167.29 212.256C166.934 211.867 166.733 211.339 166.73 210.788V182.262C166.733 181.711 166.934 181.183 167.29 180.793C167.645 180.403 168.126 180.183 168.629 180.18C169.132 180.181 169.614 180.401 169.97 180.791C170.325 181.182 170.526 181.71 170.527 182.262V210.788C170.526 211.339 170.325 211.868 169.97 212.258C169.614 212.648 169.132 212.868 168.629 212.87Z" fill="black"/>
<path d="M108.009 52.2759C108.009 52.8396 107.857 53.3906 107.571 53.8593C107.286 54.328 106.88 54.6933 106.405 54.909C105.93 55.1248 105.408 55.1812 104.904 55.0712C104.4 54.9613 103.937 54.6898 103.574 54.2912C103.21 53.8926 102.963 53.3848 102.862 52.8319C102.762 52.279 102.814 51.706 103.01 51.1852C103.207 50.6644 103.54 50.2193 103.967 49.9061C104.395 49.5929 104.897 49.4258 105.411 49.4258C106.1 49.4258 106.761 49.7261 107.248 50.2606C107.736 50.7951 108.009 51.52 108.009 52.2759Z" fill="#263238"/>
<path d="M103.323 52.6862C103.298 52.6869 103.273 52.6798 103.251 52.6657C103.229 52.6516 103.212 52.631 103.2 52.6063C103.028 52.2603 102.92 51.8805 102.882 51.4887C102.845 51.0969 102.877 50.7008 102.979 50.3229C103.081 49.945 103.249 49.5928 103.475 49.2864C103.701 48.9799 103.979 48.7253 104.295 48.5369C104.61 48.3486 104.957 48.2302 105.314 48.1886C105.671 48.147 106.032 48.183 106.377 48.2945C106.721 48.4061 107.042 48.5909 107.322 48.8385C107.601 49.0862 107.833 49.3917 108.005 49.7378C108.021 49.7739 108.025 49.8155 108.014 49.8543C108.004 49.893 107.98 49.926 107.949 49.9466C107.933 49.9563 107.915 49.9625 107.897 49.9647C107.878 49.9668 107.86 49.965 107.842 49.9593C107.824 49.9536 107.808 49.9441 107.793 49.9314C107.779 49.9187 107.767 49.903 107.758 49.8852C107.447 49.258 106.922 48.7921 106.297 48.5899C105.673 48.3877 105.001 48.4659 104.429 48.8072C103.857 49.1485 103.433 49.7249 103.248 50.4098C103.064 51.0946 103.135 51.8317 103.446 52.4589C103.455 52.4766 103.461 52.4961 103.463 52.5162C103.465 52.5363 103.463 52.5567 103.458 52.5761C103.453 52.5955 103.444 52.6136 103.433 52.6293C103.421 52.645 103.407 52.6581 103.39 52.6677C103.37 52.6795 103.347 52.6858 103.323 52.6862Z" fill="#263238"/>
<path d="M100.798 65.2947C100.291 65.2924 99.7957 65.1363 99.3655 64.8437C98.9353 64.5511 98.5875 64.1334 98.3607 63.6371C98.1338 63.1407 98.0369 62.5851 98.0805 62.032C98.1242 61.4788 98.3068 60.9498 98.608 60.5036C98.8227 60.1881 99.092 59.9221 99.4004 59.7208C99.7088 59.5195 100.05 59.3868 100.406 59.3303C100.424 59.3269 100.442 59.3275 100.46 59.3322C100.478 59.3369 100.495 59.3455 100.509 59.3576C100.524 59.3697 100.536 59.385 100.546 59.4025C100.555 59.42 100.56 59.4393 100.562 59.4593C100.567 59.4992 100.558 59.5395 100.536 59.5717C100.514 59.6038 100.481 59.6252 100.445 59.6313C99.801 59.7348 99.221 60.1145 98.8324 60.687C98.4438 61.2595 98.2785 61.9779 98.3728 62.6841C98.4671 63.3903 98.8133 64.0265 99.3353 64.4527C99.8572 64.879 100.512 65.0603 101.156 64.9568C101.193 64.9503 101.231 64.9603 101.262 64.9844C101.292 65.0086 101.312 65.0451 101.318 65.0858C101.324 65.1266 101.315 65.1682 101.293 65.2016C101.271 65.235 101.238 65.2575 101.201 65.264C101.067 65.2834 100.932 65.2936 100.798 65.2947Z" fill="#263238"/>
<path d="M114.915 69.9426C114.39 69.9418 113.876 69.7731 113.436 69.4574C113.405 69.4347 113.383 69.3997 113.375 69.3597C113.366 69.3197 113.372 69.2776 113.392 69.2424C113.413 69.2091 113.445 69.1861 113.482 69.1781C113.518 69.1702 113.556 69.1777 113.588 69.1994C114.133 69.5879 114.798 69.7227 115.434 69.5741C116.07 69.4255 116.627 69.0057 116.981 68.407C117.335 67.8083 117.458 67.0798 117.323 66.3817C117.187 65.6836 116.805 65.0732 116.259 64.6846C116.228 64.662 116.206 64.627 116.197 64.587C116.189 64.547 116.195 64.5049 116.214 64.4697C116.236 64.4364 116.268 64.4134 116.304 64.4054C116.341 64.3975 116.379 64.405 116.41 64.4267C117.017 64.8602 117.443 65.54 117.594 66.3171C117.745 67.0942 117.609 67.9053 117.216 68.5728C117.022 68.905 116.77 69.1912 116.474 69.4149C116.178 69.6385 115.844 69.7949 115.492 69.875C115.302 69.9188 115.109 69.9414 114.915 69.9426Z" fill="#263238"/>
<path d="M103.955 61.1644C105.984 61.1644 107.628 59.3603 107.628 57.1349C107.628 54.9095 105.984 53.1055 103.955 53.1055C101.926 53.1055 100.281 54.9095 100.281 57.1349C100.281 59.3603 101.926 61.1644 103.955 61.1644Z" fill="#263238"/>
<path d="M107.405 66.3373C109.308 64.2504 109.308 60.8668 107.405 58.7799C105.503 56.6929 102.418 56.6929 100.515 58.7799C98.6127 60.8668 98.6127 64.2504 100.515 66.3373C102.418 68.4243 105.503 68.4243 107.405 66.3373Z" fill="#263238"/>
<path d="M104.473 75.2595C107.448 75.2595 109.86 72.614 109.86 69.3505C109.86 66.087 107.448 63.4414 104.473 63.4414C101.498 63.4414 99.0859 66.087 99.0859 69.3505C99.0859 72.614 101.498 75.2595 104.473 75.2595Z" fill="#263238"/>
<path d="M115.103 71.1082C115.786 67.932 113.993 64.7495 111.097 63.9998C108.201 63.2502 105.3 65.2173 104.616 68.3935C103.933 71.5697 105.726 74.7522 108.622 75.5019C111.518 76.2516 114.419 74.2844 115.103 71.1082Z" fill="#263238"/>
<path d="M127.728 81.9404C127.728 82.4195 127.728 83.0276 127.768 83.5804C127.807 84.1333 127.807 84.7229 127.84 85.2942C127.913 86.4367 127.986 87.5915 128.098 88.7401C128.3 91.0456 128.581 93.3408 128.944 95.6258C129.039 96.1909 129.123 96.7683 129.229 97.3334L129.476 98.7278C129.537 98.9489 129.476 98.9059 129.397 98.8998C129.319 98.8936 129.397 99.0103 129.728 99.0103C130.573 98.9173 131.397 98.6572 132.158 98.2425C132.606 98.0214 133.065 97.7818 133.524 97.5238C133.984 97.2659 134.448 96.971 134.868 96.713L136.504 98.783C136.113 99.2732 135.698 99.7387 135.26 100.177C134.829 100.628 134.373 101.048 133.894 101.437C133.392 101.851 132.862 102.222 132.309 102.548C131.68 102.925 131.005 103.202 130.304 103.371C129.872 103.475 129.43 103.516 128.988 103.494C128.449 103.46 127.921 103.314 127.432 103.064C126.911 102.796 126.447 102.411 126.071 101.934C125.747 101.519 125.483 101.053 125.287 100.552C125.135 100.168 125.011 99.772 124.917 99.3666L124.699 98.4698C124.542 97.8555 124.413 97.272 124.279 96.67C123.755 94.2553 123.351 91.8111 123.069 89.3482C122.929 88.1197 122.817 86.8912 122.75 85.632C122.716 85.0178 122.688 84.4035 122.672 83.7524C122.655 83.1013 122.672 82.5239 122.672 81.793L127.728 81.9404Z" fill="#FFB573"/>
<path d="M125.012 75.3184C129.789 79.3294 129.599 86.8908 129.599 86.8908L121.053 89.1328C121.053 89.1328 118.432 81.5284 119.496 78.7459C120.605 75.8466 122.324 73.0579 125.012 75.3184Z" fill="#664EFE"/>
<path opacity="0.7" d="M125.012 75.3184C129.789 79.3294 129.599 86.8908 129.599 86.8908L121.053 89.1328C121.053 89.1328 118.432 81.5284 119.496 78.7459C120.605 75.8466 122.324 73.0579 125.012 75.3184Z" fill="white"/>
<path d="M134.55 97.4208L135.962 94.8164L139.501 98.9687C139.501 98.9687 136.964 100.75 134.332 99.4785L134.55 97.4208Z" fill="#FFB573"/>
<path d="M137.703 93.5703L142.244 96.5064L139.5 98.9695L135.961 94.8172L137.703 93.5703Z" fill="#FFB573"/>
<path d="M98.2734 217.936L103.157 218.452L106.192 205.903L101.303 205.387L98.2734 217.936Z" fill="#FFB573"/>
<path d="M73.2383 207.39L77.6231 209.908L82.8367 198.569L78.4519 196.051L73.2383 207.39Z" fill="#FFB573"/>
<path d="M78.7957 207.701L74.8757 203.334C74.8106 203.257 74.7219 203.21 74.6267 203.201C74.5316 203.192 74.4368 203.222 74.3605 203.285L70.7597 206.19C70.6724 206.267 70.6008 206.363 70.5496 206.473C70.4983 206.582 70.4686 206.702 70.4622 206.825C70.4559 206.948 70.4731 207.07 70.5128 207.185C70.5525 207.3 70.6137 207.405 70.6925 207.492C72.0813 208.991 72.8205 209.636 74.5453 211.559C75.6093 212.738 77.7933 215.521 79.2605 217.154C80.7277 218.788 82.2733 217.283 81.7973 216.46C79.6581 212.775 79.2997 210.459 79.1653 208.586C79.141 208.252 79.0101 207.939 78.7957 207.701Z" fill="#263238"/>
<path d="M103.916 216.825H97.997C97.8911 216.826 97.7884 216.865 97.7046 216.936C97.6207 217.007 97.5602 217.106 97.5322 217.218L96.2666 222.322C96.2349 222.444 96.2297 222.571 96.2514 222.695C96.2731 222.819 96.321 222.936 96.3913 223.036C96.4616 223.135 96.5524 223.216 96.6562 223.27C96.76 223.324 96.874 223.351 96.989 223.348C99.0666 223.348 100.052 223.348 102.645 223.348H110.58C112.736 223.348 113.19 220.959 112.294 220.738C108.295 219.767 105.988 218.428 104.756 217.15C104.523 216.931 104.223 216.815 103.916 216.825Z" fill="#263238"/>
<path opacity="0.2" d="M106.184 205.91L104.621 212.379H99.6094L101.295 205.395L106.184 205.91Z" fill="black"/>
<path opacity="0.2" d="M78.4497 196.051L82.8401 198.575L80.1521 204.417L75.7617 201.892L78.4497 196.051Z" fill="black"/>
<path d="M123.567 74.5467C123.567 74.5467 125.728 75.5848 118.482 107.034L98.3555 105.124C99.4027 96.1744 99.8451 90.6338 97.3867 71.8195C100.256 71.4509 103.145 71.3093 106.033 71.3956C109.094 71.4464 112.148 71.7359 115.172 72.2617C118.004 72.8673 120.806 73.63 123.567 74.5467Z" fill="#664EFE"/>
<path opacity="0.7" d="M123.567 74.5467C123.567 74.5467 125.728 75.5848 118.482 107.034L98.3555 105.124C99.4027 96.1744 99.8451 90.6338 97.3867 71.8195C100.256 71.4509 103.145 71.3093 106.033 71.3956C109.094 71.4464 112.148 71.7359 115.172 72.2617C118.004 72.8673 120.806 73.63 123.567 74.5467Z" fill="white"/>
<path d="M106.034 71.2188C106.034 71.2188 104.914 71.2188 103.542 71.2188C102.73 72.5885 106.157 76.5873 110.514 80.5185C111.566 76.9374 113.224 76.9497 113.224 76.9497L106.034 71.2188Z" fill="white"/>
<path d="M115.168 72.1797C115.168 72.1797 115.678 72.2595 116.898 72.5667C117.705 73.9364 118.158 77.3639 115.778 80.3492C114.843 76.6637 113.23 76.9954 113.23 76.9954L115.168 72.1797Z" fill="white"/>
<path d="M107.827 60.1914C108.152 63.4715 108.258 69.4051 106.035 71.3953C106.035 71.3953 108.41 74.0611 113.226 76.9972C116.72 74.3437 115.174 72.2614 115.174 72.2614C111.96 71.0943 112.257 68.4346 113.024 65.9776L107.827 60.1914Z" fill="#FFB573"/>
<path opacity="0.2" d="M109.948 62.5586L113.023 65.98C112.834 66.5486 112.692 67.1344 112.597 67.7306C111.365 67.4173 109.573 66.0045 109.551 64.5549C109.572 63.8686 109.707 63.1922 109.948 62.5586Z" fill="black"/>
<path d="M119.374 49.4922C121.435 51.4946 122.039 56.3718 120.079 59.6825C119.491 56.3264 119.254 52.9074 119.374 49.4922Z" fill="#263238"/>
<path d="M107.201 53.3065C106.842 58.7058 106.59 60.9846 108.718 64.0989C111.922 68.7856 118.048 68.0792 119.868 62.9072C121.509 58.2451 121.817 50.1985 117.298 47.3606C116.304 46.7248 115.179 46.3791 114.03 46.3566C112.88 46.3342 111.744 46.6356 110.731 47.2322C109.718 47.8288 108.861 48.7006 108.243 49.7641C107.625 50.8276 107.266 52.0473 107.201 53.3065Z" fill="#FFB573"/>
<path d="M106.541 57.6549C110.181 57.5014 112.197 52.2803 111.284 50.0751C115.412 52.4338 121.661 54.2888 120.967 51.2545C120.032 47.1574 115.512 44.1538 109.952 46.3405C106.732 47.8761 103.976 51.2545 106.541 57.6549Z" fill="#263238"/>
<path d="M105.435 57.6482C105.591 58.6806 106.11 59.6048 106.88 60.2219C107.911 61.0265 108.851 60.1297 108.924 58.8214C108.991 57.6359 108.538 55.7931 107.328 55.5106C107.063 55.4529 106.789 55.4688 106.532 55.5569C106.274 55.645 106.04 55.8024 105.852 56.0149C105.664 56.2274 105.527 56.4882 105.454 56.7734C105.382 57.0587 105.375 57.3594 105.435 57.6482Z" fill="#FFB573"/>
<path d="M118.482 107.032C118.482 107.032 123.034 139.618 120.498 160.552C118.577 176.368 106.184 210.496 106.184 210.496L98.1367 210.256C98.1367 210.256 106.447 177.179 108.166 164.188C111.106 141.94 103.742 105.656 103.742 105.656L118.482 107.032Z" fill="#263238"/>
<path opacity="0.2" d="M110.631 113.711L106.336 121.137C107.629 129.942 108.45 138.823 108.794 147.734C114.831 135.879 111.998 119.982 110.631 113.711Z" fill="black"/>
<path d="M107.442 210.991L97.3281 210.69L97.9441 207.121L108.394 207.189L107.442 210.991Z" fill="#664EFE"/>
<path d="M114.081 106.684C114.081 106.684 110.721 142.765 103.044 162.396C96.8333 178.244 82.0269 203.594 82.0269 203.594L76.1133 199.798C76.1133 199.798 85.6333 171.61 90.3317 161.045C101.795 135.142 91.1325 114.362 98.3565 105.148L114.081 106.684Z" fill="#263238"/>
<path d="M82.6721 204.144L75.1289 199.604L76.3553 196.066L84.3913 201.042L82.6721 204.144Z" fill="#664EFE"/>
<path d="M98.1552 103.804L97.0912 105.696C97.0128 105.837 97.164 106.015 97.3992 106.034L118.506 108.036C118.685 108.036 118.847 107.969 118.864 107.846L119.206 105.886C119.206 105.751 119.077 105.622 118.881 105.604L98.4968 103.669C98.4341 103.658 98.37 103.665 98.3103 103.689C98.2507 103.712 98.1974 103.752 98.1552 103.804Z" fill="#664EFE"/>
<path d="M100.7 106.563L100.14 106.514C100.033 106.514 99.9547 106.434 99.9659 106.361L100.425 103.818C100.425 103.738 100.543 103.689 100.649 103.701L101.209 103.75C101.321 103.75 101.4 103.83 101.383 103.904L100.929 106.447C100.907 106.52 100.8 106.576 100.7 106.563Z" fill="#263238"/>
<path d="M116.955 108.102L116.395 108.053C116.283 108.053 116.204 107.973 116.221 107.9L116.68 105.357C116.68 105.283 116.792 105.228 116.899 105.24L117.459 105.289C117.565 105.289 117.643 105.369 117.632 105.443L117.173 107.986C117.162 108.072 117.039 108.115 116.955 108.102Z" fill="#263238"/>
<path d="M108.825 107.335L108.265 107.28C108.158 107.28 108.08 107.2 108.091 107.126L108.55 104.583C108.55 104.51 108.662 104.454 108.774 104.467L109.334 104.522C109.441 104.522 109.519 104.602 109.508 104.675L109.049 107.218C109.037 107.292 108.937 107.341 108.825 107.335Z" fill="#263238"/>
<path d="M114.909 55.9911C114.853 56.4272 115.021 56.8142 115.279 56.851C115.536 56.8879 115.794 56.5685 115.839 56.1324C115.884 55.6963 115.721 55.3093 115.464 55.2724C115.206 55.2356 114.96 55.555 114.909 55.9911Z" fill="#263238"/>
<path d="M119.4 56.6512C119.349 57.0874 119.517 57.4743 119.775 57.5112C120.032 57.5481 120.29 57.2286 120.335 56.7925C120.38 56.3564 120.223 55.9694 119.965 55.9326C119.708 55.8957 119.456 56.2151 119.4 56.6512Z" fill="#263238"/>
<path d="M119.84 55.941L120.837 55.7812C120.837 55.7812 120.254 56.5245 119.84 55.941Z" fill="#263238"/>
<path d="M117.637 57.1328C117.87 58.1787 118.232 59.185 118.712 60.1242C118.491 60.2534 118.246 60.328 117.996 60.3428C117.745 60.3577 117.495 60.3124 117.262 60.2102L117.637 57.1328Z" fill="#ED893E"/>
<path d="M114.931 61.5131C114.143 61.2316 113.482 60.6321 113.083 59.8362C113.072 59.8108 113.072 59.7822 113.08 59.756C113.088 59.7299 113.105 59.7081 113.127 59.695C113.151 59.6821 113.179 59.6801 113.204 59.6893C113.229 59.6985 113.25 59.7182 113.262 59.7441C113.511 60.2227 113.859 60.6301 114.278 60.9332C114.698 61.2363 115.176 61.4266 115.675 61.4886C115.701 61.4886 115.725 61.4996 115.743 61.5191C115.76 61.5387 115.771 61.5653 115.771 61.593C115.771 61.6207 115.76 61.6472 115.743 61.6668C115.725 61.6864 115.701 61.6974 115.675 61.6974C115.422 61.6667 115.172 61.6049 114.931 61.5131Z" fill="#263238"/>
<path d="M112.869 53.4644C112.836 53.4496 112.808 53.4264 112.785 53.3968C112.766 53.3773 112.752 53.3539 112.742 53.3281C112.732 53.3022 112.727 53.2744 112.727 53.2463C112.727 53.2182 112.732 53.1904 112.742 53.1645C112.752 53.1387 112.766 53.1153 112.785 53.0958C113.059 52.8267 113.389 52.6346 113.746 52.5362C114.103 52.4377 114.477 52.4359 114.835 52.5307C114.859 52.5384 114.882 52.5515 114.902 52.569C114.921 52.5866 114.938 52.6083 114.95 52.6329C114.962 52.6575 114.969 52.6846 114.972 52.7124C114.974 52.7402 114.971 52.7682 114.963 52.7948C114.949 52.8492 114.916 52.8952 114.871 52.9229C114.825 52.9505 114.772 52.9574 114.723 52.9423C114.428 52.8703 114.122 52.8763 113.83 52.9596C113.538 53.0429 113.268 53.2012 113.043 53.4214C113.018 53.4419 112.99 53.4563 112.96 53.4637C112.93 53.4712 112.899 53.4714 112.869 53.4644Z" fill="#263238"/>
<path d="M121.291 54.7771C121.262 54.7646 121.235 54.7458 121.212 54.7219C121.016 54.4692 120.768 54.2707 120.489 54.1427C120.21 54.0146 119.907 53.9605 119.605 53.9848C119.58 53.991 119.553 53.9912 119.528 53.9854C119.502 53.9796 119.478 53.9678 119.457 53.951C119.436 53.9342 119.418 53.9126 119.405 53.8877C119.392 53.8628 119.384 53.8352 119.381 53.8066C119.373 53.7504 119.386 53.693 119.416 53.647C119.447 53.6009 119.493 53.57 119.544 53.5609C119.909 53.5249 120.277 53.5852 120.617 53.7369C120.957 53.8887 121.259 54.1274 121.498 54.4332C121.525 54.4687 121.541 54.5129 121.544 54.5591C121.546 54.6054 121.535 54.6513 121.512 54.69C121.488 54.7287 121.454 54.7581 121.414 54.7738C121.375 54.7895 121.331 54.7907 121.291 54.7771Z" fill="#263238"/>
<path d="M125.718 101.119C126.08 99.8799 126.662 98.7314 127.429 97.7389C128.196 96.7464 129.134 95.9294 130.189 95.3345C131.244 94.7396 132.396 94.3784 133.578 94.2717C134.76 94.1649 135.95 94.3147 137.08 94.7124C138.21 95.11 139.257 95.7478 140.162 96.5894C141.066 97.4309 141.811 98.4597 142.354 99.617C142.896 100.774 143.225 102.037 143.323 103.334C143.42 104.631 143.283 105.936 142.921 107.175L139.438 119.129L122.234 113.066L125.718 101.119Z" fill="#664EFE"/>
<path opacity="0.3" d="M125.718 101.119C126.08 99.8799 126.662 98.7314 127.429 97.7389C128.196 96.7464 129.134 95.9294 130.189 95.3345C131.244 94.7396 132.396 94.3784 133.578 94.2717C134.76 94.1649 135.95 94.3147 137.08 94.7124C138.21 95.11 139.257 95.7478 140.162 96.5894C141.066 97.4309 141.811 98.4597 142.354 99.617C142.896 100.774 143.225 102.037 143.323 103.334C143.42 104.631 143.283 105.936 142.921 107.175L139.438 119.129L122.234 113.066L125.718 101.119Z" fill="black"/>
<path d="M108.746 95.1356L105.599 105.885C105.552 106.039 105.535 106.202 105.546 106.364C105.558 106.526 105.599 106.684 105.667 106.829C105.734 106.973 105.828 107.102 105.941 107.206C106.054 107.311 106.185 107.39 106.327 107.439L122.231 113.041L125.725 101.112C126.458 98.6123 128.066 96.534 130.196 95.3338C132.325 94.1337 134.802 93.91 137.082 94.7118L120.108 88.729C117.827 87.929 115.349 88.1542 113.219 89.3552C111.089 90.5563 109.48 92.6351 108.746 95.1356Z" fill="#664EFE"/>
<path d="M117.278 103.284L121.663 88.3144C121.678 88.2607 121.683 88.204 121.676 88.1483C121.669 88.0925 121.652 88.039 121.625 87.9913C121.598 87.9435 121.562 87.9027 121.519 87.8716C121.476 87.8404 121.428 87.8197 121.377 87.8108L116.897 87.0859L116.337 89.027L119.602 90.1756L115.906 102.792L117.278 103.284Z" fill="#263238"/>
<path d="M114.951 102.465C114.85 102.811 114.845 103.183 114.936 103.534C115.027 103.884 115.211 104.196 115.465 104.432C115.718 104.667 116.029 104.815 116.359 104.857C116.689 104.899 117.023 104.832 117.318 104.666C117.614 104.499 117.857 104.241 118.019 103.923C118.181 103.604 118.252 103.241 118.226 102.878C118.199 102.515 118.075 102.168 117.868 101.883C117.662 101.597 117.384 101.385 117.068 101.273C116.858 101.198 116.636 101.17 116.416 101.19C116.195 101.209 115.981 101.276 115.784 101.387C115.587 101.498 115.413 101.65 115.27 101.835C115.127 102.02 115.018 102.234 114.951 102.465Z" fill="#263238"/>
<path d="M123.058 114.828L145.122 122.598C145.202 122.626 145.287 122.637 145.371 122.63C145.455 122.623 145.537 122.597 145.612 122.555C145.687 122.513 145.753 122.454 145.808 122.384C145.862 122.313 145.903 122.231 145.929 122.143C145.955 122.055 145.966 121.963 145.96 121.87C145.953 121.778 145.93 121.688 145.891 121.605C145.853 121.523 145.8 121.45 145.735 121.39C145.67 121.331 145.595 121.286 145.514 121.259L122.229 113.059C122.125 113.414 122.154 113.8 122.31 114.131C122.465 114.463 122.734 114.714 123.058 114.828Z" fill="#664EFE"/>
<path opacity="0.2" d="M123.058 114.828L132.074 118.003C132.155 118.032 132.24 118.043 132.324 118.036C132.408 118.028 132.491 118.003 132.566 117.961C132.641 117.919 132.709 117.86 132.763 117.79C132.818 117.719 132.86 117.637 132.886 117.549C132.937 117.371 132.922 117.179 132.845 117.013C132.767 116.847 132.633 116.722 132.472 116.664L122.229 113.059C122.125 113.414 122.154 113.8 122.31 114.131C122.465 114.463 122.734 114.714 123.058 114.828Z" fill="black"/>
<path d="M99.7547 80.4937L99.4467 80.8684L99.0995 81.3045C98.8643 81.5993 98.6291 81.9187 98.4051 82.2197C97.9459 82.834 97.5091 83.4912 97.1003 84.1546C95.4083 86.7817 94.0762 89.6665 93.1467 92.7172C92.9227 93.4789 92.7155 94.2405 92.5531 95.0206C92.4971 95.2479 92.4915 95.34 92.4635 95.4445C92.4592 95.5345 92.4592 95.6247 92.4635 95.7147C92.4545 95.8107 92.4545 95.9074 92.4635 96.0034C92.4635 96.114 92.6539 96.372 93.1131 96.6177C93.6652 96.8901 94.2467 97.0841 94.8435 97.1951C96.2839 97.4462 97.7423 97.5511 99.2003 97.5083C100.724 97.5083 102.269 97.3609 103.815 97.1828C105.36 97.0047 106.928 96.7835 108.446 96.5317L109.056 99.1914C105.931 100.307 102.715 101.091 99.4523 101.532C97.7347 101.777 95.998 101.818 94.2723 101.654C93.2857 101.553 92.3169 101.301 91.3939 100.905C90.8403 100.662 90.3201 100.335 89.8483 99.9346C89.2927 99.4567 88.8348 98.8561 88.5043 98.1717C87.9354 96.8879 87.7833 95.4294 88.0731 94.0378C88.2075 93.098 88.4035 92.1951 88.6331 91.2492C89.0726 89.4333 89.6572 87.6636 90.3803 85.9605C91.1053 84.2534 91.9497 82.6105 92.9059 81.0465C93.3875 80.2664 93.9027 79.5109 94.4403 78.7676C94.7147 78.3991 95.0003 78.0367 95.2803 77.6743L95.7339 77.1399C95.8963 76.9495 96.0251 76.7959 96.2491 76.5625L99.7547 80.4937Z" fill="#FFB573"/>
<path d="M107.226 97.0953L111.146 94.8164L111.32 99.4355C111.32 99.4355 108.52 100.707 106.918 99.3066L107.226 97.0953Z" fill="#FFB573"/>
<path d="M114.378 94.4648L113.79 98.7216L111.326 99.4341L111.152 94.815L114.378 94.4648Z" fill="#FFB573"/>
<path d="M97.3857 71.8336C94.9161 72.3127 91.4609 80.0768 91.4609 80.0768L97.6825 86.2193C97.6825 86.2193 102.627 80.2979 102.364 76.7722C102.14 73.7931 100.527 71.2194 97.3857 71.8336Z" fill="#664EFE"/>
<path opacity="0.7" d="M97.3857 71.8336C94.9161 72.3127 91.4609 80.0768 91.4609 80.0768L97.6825 86.2193C97.6825 86.2193 102.627 80.2979 102.364 76.7722C102.14 73.7931 100.527 71.2194 97.3857 71.8336Z" fill="white"/>
<path d="M80.723 210.074C80.6579 210.083 80.592 210.083 80.527 210.074C79.9054 210.037 79.2446 208.993 78.903 208.378C78.8924 208.361 78.8867 208.341 78.8867 208.32C78.8867 208.299 78.8924 208.279 78.903 208.262C78.9132 208.243 78.9286 208.229 78.9468 208.222C78.965 208.214 78.985 208.213 79.0038 208.219C79.2054 208.262 80.947 208.692 81.1654 209.337C81.188 209.407 81.1938 209.482 81.182 209.555C81.1702 209.628 81.1413 209.697 81.0982 209.754C81.0085 209.903 80.8767 210.015 80.723 210.074ZM79.1942 208.513C79.6926 209.355 80.1854 209.859 80.5382 209.883C80.6185 209.885 80.6979 209.864 80.7686 209.822C80.8393 209.78 80.8988 209.718 80.9414 209.644C80.9655 209.617 80.9821 209.583 80.989 209.546C80.996 209.509 80.9931 209.47 80.9806 209.435C80.8462 209.042 79.799 208.673 79.1942 208.513Z" fill="#664EFE"/>
<path d="M80.5429 208.381C80.0265 208.537 79.4846 208.562 78.958 208.455C78.9415 208.449 78.9267 208.439 78.9149 208.425C78.9031 208.411 78.8948 208.394 78.8909 208.375C78.883 208.359 78.8789 208.341 78.8789 208.323C78.8789 208.305 78.883 208.287 78.8909 208.271C78.9357 208.228 79.9549 207.134 80.6661 207.19C80.7539 207.191 80.8403 207.215 80.9181 207.26C80.996 207.305 81.0631 207.369 81.1141 207.448C81.1752 207.519 81.2128 207.611 81.2209 207.709C81.2291 207.807 81.2072 207.905 81.1588 207.988C80.998 208.189 80.7817 208.327 80.5429 208.381ZM79.1932 208.283C79.7532 208.369 80.8004 208.215 81.0188 207.865C81.0524 207.81 81.0804 207.724 80.9796 207.583C80.9458 207.529 80.9007 207.484 80.8481 207.453C80.7955 207.422 80.7369 207.406 80.6773 207.405C80.1901 207.368 79.4844 207.994 79.1932 208.283Z" fill="#664EFE"/>
<path d="M106.006 217.649C105.465 217.635 104.926 217.559 104.399 217.422C104.381 217.415 104.365 217.401 104.353 217.384C104.342 217.366 104.336 217.345 104.336 217.324C104.336 217.302 104.342 217.281 104.353 217.263C104.365 217.246 104.381 217.233 104.399 217.225C104.64 217.096 106.785 215.997 107.322 216.414C107.371 216.451 107.409 216.501 107.434 216.559C107.459 216.618 107.468 216.682 107.462 216.746C107.46 216.866 107.432 216.984 107.382 217.09C107.331 217.197 107.259 217.289 107.171 217.36C106.82 217.588 106.412 217.689 106.006 217.649ZM104.735 217.281C105.368 217.41 106.544 217.582 107.031 217.182C107.093 217.128 107.145 217.061 107.181 216.983C107.218 216.906 107.239 216.821 107.244 216.734C107.249 216.707 107.246 216.679 107.236 216.654C107.226 216.628 107.209 216.607 107.188 216.593C106.885 216.365 105.62 216.851 104.718 217.281H104.735Z" fill="#664EFE"/>
<path d="M104.413 217.407C104.393 217.413 104.372 217.413 104.352 217.407C104.338 217.393 104.328 217.376 104.322 217.357C104.316 217.337 104.315 217.317 104.318 217.297C104.318 217.198 104.828 214.883 105.998 215.03C106.289 215.073 106.368 215.227 106.384 215.356C106.457 215.97 105.108 217.131 104.464 217.426L104.413 217.407ZM105.88 215.214C105.141 215.214 104.71 216.566 104.564 217.106C105.264 216.701 106.244 215.737 106.183 215.362C106.183 215.331 106.183 215.245 105.964 215.221L105.88 215.214Z" fill="#664EFE"/>
<path d="M115.359 55.2769L116.351 55.1172C116.351 55.1172 115.763 55.8604 115.359 55.2769Z" fill="#263238"/>
<path d="M149.815 106.667L128.132 111.581C127.761 111.658 127.378 111.572 127.064 111.342C126.75 111.113 126.53 110.758 126.452 110.353L125.438 105.193L125.074 103.289L125.713 101.115C125.801 100.802 125.908 100.497 126.032 100.199C126.046 100.152 126.065 100.107 126.088 100.064C126.446 99.1694 126.927 98.3406 127.516 97.6072L128.636 97.3492L147.228 93.1171C147.599 93.0407 147.982 93.1264 148.296 93.356C148.61 93.5856 148.829 93.9407 148.908 94.3456L150.885 104.788C150.966 105.192 150.899 105.615 150.699 105.967C150.499 106.318 150.182 106.569 149.815 106.667Z" fill="#664EFE"/>
<path opacity="0.3" d="M148.738 93.7913L138.278 105.462L136.038 104.467L127.324 100.591L126.098 100.044C126.455 99.1495 126.937 98.3207 127.526 97.5874L128.646 97.3294L147.238 93.0972C147.522 93.0348 147.818 93.0676 148.085 93.1914C148.353 93.3151 148.58 93.5241 148.738 93.7913Z" fill="black"/>
<path d="M148.74 93.7912L136.039 104.485L135.21 105.186L127.23 100.843L126.043 100.229C126.057 100.181 126.076 100.136 126.099 100.093C126.457 99.1986 126.938 98.3698 127.527 97.6364L128.647 97.3784L147.239 93.1463C147.519 93.0789 147.811 93.1042 148.079 93.219C148.346 93.3338 148.576 93.5329 148.74 93.7912Z" fill="#664EFE"/>
<path opacity="0.2" d="M148.74 93.7912L136.039 104.485L135.21 105.186L127.23 100.843L126.043 100.229C126.057 100.181 126.076 100.136 126.099 100.093C126.457 99.1986 126.938 98.3698 127.527 97.6364L128.647 97.3784L147.239 93.1463C147.519 93.0789 147.811 93.1042 148.079 93.219C148.346 93.3338 148.576 93.5329 148.74 93.7912Z" fill="white"/>
<path d="M176.286 128.208L169.678 136.021C169.417 136.326 169.057 136.505 168.676 136.52C168.296 136.535 167.925 136.384 167.645 136.101L151.438 119.547C151.159 119.262 150.995 118.867 150.981 118.449C150.968 118.031 151.106 117.624 151.366 117.317L157.996 109.504C158.124 109.351 158.279 109.227 158.452 109.14C158.624 109.053 158.81 109.005 159 108.997C159.19 108.99 159.379 109.024 159.556 109.097C159.734 109.17 159.896 109.281 160.034 109.424L176.235 125.978C176.445 126.192 176.592 126.471 176.657 126.777C176.722 127.084 176.702 127.404 176.599 127.698C176.529 127.891 176.422 128.065 176.286 128.208Z" fill="#664EFE"/>
<path opacity="0.3" d="M176.575 127.729L161.836 125.093L158.414 109.123C158.675 108.991 158.966 108.947 159.25 108.996C159.534 109.045 159.799 109.186 160.01 109.399L176.211 125.953C176.431 126.172 176.584 126.46 176.649 126.778C176.715 127.095 176.689 127.428 176.575 127.729Z" fill="black"/>
<path d="M176.575 127.728L162.222 123.035L158.414 109.178C158.675 109.046 158.966 109.002 159.25 109.051C159.534 109.1 159.799 109.24 160.01 109.454L176.211 126.008C176.421 126.222 176.568 126.501 176.633 126.807C176.697 127.113 176.677 127.434 176.575 127.728Z" fill="#664EFE"/>
<path opacity="0.2" d="M176.575 127.728L162.222 123.035L158.414 109.178C158.675 109.046 158.966 109.002 159.25 109.051C159.534 109.1 159.799 109.24 160.01 109.454L176.211 126.008C176.421 126.222 176.568 126.501 176.633 126.807C176.697 127.113 176.677 127.434 176.575 127.728Z" fill="white"/>
<path d="M182.048 141.075L189.328 150.4C189.467 150.578 189.572 150.786 189.635 151.01C189.699 151.234 189.72 151.47 189.697 151.703C189.675 151.937 189.609 152.163 189.504 152.367C189.399 152.572 189.257 152.751 189.087 152.893L173.273 166.407C173.007 166.582 172.691 166.643 172.387 166.577C172.083 166.511 171.811 166.324 171.626 166.051L165.931 158.925C165.824 158.788 165.736 158.635 165.668 158.471C165.562 158.245 165.518 157.99 165.541 157.738C165.564 157.485 165.653 157.245 165.797 157.046L179.797 141.008C180.015 140.748 180.304 140.572 180.621 140.506C180.937 140.44 181.265 140.486 181.555 140.639C181.743 140.749 181.91 140.897 182.048 141.075Z" fill="#664EFE"/>
<path opacity="0.3" d="M181.556 140.659L178.079 157.624L165.691 158.49C165.586 158.264 165.542 158.01 165.564 157.757C165.587 157.504 165.676 157.264 165.82 157.065L179.82 141.027C180.037 140.773 180.322 140.6 180.634 140.534C180.946 140.468 181.268 140.511 181.556 140.659Z" fill="black"/>
<path d="M181.556 140.659L175.726 158.662L165.68 158.49C165.574 158.264 165.53 158.01 165.553 157.757C165.576 157.504 165.664 157.264 165.809 157.065L179.809 141.027C180.026 140.77 180.313 140.596 180.627 140.53C180.941 140.463 181.267 140.509 181.556 140.659Z" fill="#664EFE"/>
<path opacity="0.2" d="M181.556 140.659L175.726 158.662L165.68 158.49C165.574 158.264 165.53 158.01 165.553 157.757C165.576 157.504 165.664 157.264 165.809 157.065L179.809 141.027C180.026 140.77 180.313 140.596 180.627 140.53C180.941 140.463 181.267 140.509 181.556 140.659Z" fill="white"/>
</svg>
