<svg width="280" height="280" viewBox="0 0 280 280" fill="none" xmlns="http://www.w3.org/2000/svg">
<path d="M140 239.434C199.966 239.434 248.579 236.596 248.579 233.095C248.579 229.594 199.966 226.756 140 226.756C80.0341 226.756 31.4219 229.594 31.4219 233.095C31.4219 236.596 80.0341 239.434 140 239.434Z" fill="#DCD7FE"/>
<path d="M199.07 227.534C199.071 228.653 198.675 229.736 197.952 230.59C197.229 231.444 196.226 232.014 195.122 232.199C181.536 234.491 167.661 234.491 154.074 232.199C152.975 232.009 151.978 231.437 151.261 230.583C150.543 229.729 150.151 228.649 150.154 227.534V182.174H199.093L199.07 227.534Z" fill="#FDC500"/>
<path opacity="0.3" d="M150.125 182.99V189.357C153.071 190.449 162.742 191.25 174.597 191.25C186.452 191.25 196.14 190.449 199.069 189.357V182.99H150.125Z" fill="black"/>
<path d="M199.988 187.845C199.988 189.285 188.877 190.449 174.597 190.449C160.317 190.449 149.207 189.285 149.207 187.845L148.742 182.189H200.481L199.988 187.845Z" fill="#FDC500"/>
<path d="M174.597 184.789C188.877 184.789 200.453 183.625 200.453 182.19C200.453 180.755 188.877 179.592 174.597 179.592C160.318 179.592 148.742 180.755 148.742 182.19C148.742 183.625 160.318 184.789 174.597 184.789Z" fill="#FDC500"/>
<path opacity="0.3" d="M174.597 184.789C188.877 184.789 200.453 183.625 200.453 182.19C200.453 180.755 188.877 179.592 174.597 179.592C160.318 179.592 148.742 180.755 148.742 182.19C148.742 183.625 160.318 184.789 174.597 184.789Z" fill="black"/>
<path opacity="0.2" d="M156.689 224.342C156.186 224.341 155.704 224.14 155.349 223.785C154.993 223.429 154.792 222.947 154.791 222.444V196.437C154.792 195.934 154.993 195.452 155.349 195.097C155.704 194.741 156.186 194.541 156.689 194.539C157.192 194.542 157.673 194.743 158.029 195.098C158.384 195.454 158.585 195.935 158.588 196.437V222.444C158.585 222.946 158.384 223.428 158.029 223.783C157.673 224.138 157.192 224.339 156.689 224.342Z" fill="black"/>
<path opacity="0.2" d="M192.512 224.342C192.009 224.341 191.527 224.14 191.171 223.785C190.815 223.429 190.615 222.947 190.613 222.444V196.437C190.615 195.934 190.815 195.452 191.171 195.097C191.527 194.741 192.009 194.541 192.512 194.539C193.014 194.542 193.495 194.743 193.851 195.098C194.206 195.454 194.407 195.935 194.41 196.437V222.444C194.407 222.946 194.206 223.428 193.851 223.783C193.495 224.138 193.014 224.339 192.512 224.342Z" fill="black"/>
<path opacity="0.2" d="M180.566 224.342C180.064 224.339 179.583 224.138 179.227 223.783C178.872 223.428 178.671 222.946 178.668 222.444V196.437C178.671 195.935 178.872 195.454 179.227 195.098C179.583 194.743 180.064 194.542 180.566 194.539C181.069 194.541 181.551 194.741 181.907 195.097C182.263 195.452 182.463 195.934 182.465 196.437V222.444C182.463 222.947 182.263 223.429 181.907 223.785C181.551 224.14 181.069 224.341 180.566 224.342Z" fill="black"/>
<path opacity="0.2" d="M168.627 224.342C168.124 224.339 167.643 224.138 167.288 223.783C166.932 223.428 166.731 222.946 166.729 222.444V196.437C166.731 195.935 166.932 195.454 167.288 195.098C167.643 194.743 168.124 194.542 168.627 194.539C169.13 194.541 169.612 194.741 169.968 195.097C170.323 195.452 170.524 195.934 170.525 196.437V222.444C170.524 222.947 170.323 223.429 169.968 223.785C169.612 224.14 169.13 224.341 168.627 224.342Z" fill="black"/>
<path d="M108.013 77.9285C108.013 78.4424 107.861 78.9448 107.575 79.3721C107.29 79.7994 106.884 80.1324 106.409 80.3291C105.934 80.5258 105.412 80.5772 104.908 80.4769C104.404 80.3767 103.941 80.1292 103.577 79.7658C103.214 79.4024 102.967 78.9394 102.866 78.4354C102.766 77.9314 102.818 77.4089 103.014 76.9341C103.211 76.4593 103.544 76.0535 103.971 75.768C104.399 75.4825 104.901 75.3301 105.415 75.3301C106.104 75.3301 106.765 75.6038 107.252 76.0911C107.739 76.5784 108.013 77.2393 108.013 77.9285Z" fill="#263238"/>
<path d="M103.325 78.3051C103.3 78.3058 103.275 78.2993 103.253 78.2864C103.231 78.2735 103.214 78.2548 103.202 78.2323C103.03 77.9168 102.922 77.5706 102.884 77.2134C102.847 76.8562 102.879 76.495 102.981 76.1505C103.083 75.806 103.251 75.4849 103.477 75.2055C103.703 74.9261 103.981 74.694 104.297 74.5223C104.612 74.3505 104.958 74.2426 105.316 74.2047C105.673 74.1668 106.034 74.1996 106.378 74.3013C106.723 74.403 107.044 74.5715 107.323 74.7972C107.603 75.023 107.835 75.3016 108.007 75.6171C108.023 75.65 108.027 75.6879 108.016 75.7233C108.006 75.7586 107.982 75.7887 107.951 75.8075C107.935 75.8163 107.917 75.8219 107.898 75.8239C107.88 75.8259 107.862 75.8242 107.844 75.819C107.826 75.8138 107.81 75.8052 107.795 75.7936C107.781 75.782 107.769 75.7677 107.76 75.7515C107.449 75.1797 106.924 74.7549 106.299 74.5706C105.675 74.3862 105.003 74.4575 104.431 74.7687C103.859 75.0798 103.435 75.6054 103.25 76.2297C103.066 76.8541 103.137 77.5261 103.448 78.0979C103.457 78.114 103.463 78.1318 103.465 78.1501C103.467 78.1685 103.465 78.187 103.46 78.2047C103.455 78.2224 103.446 78.2389 103.434 78.2532C103.423 78.2676 103.409 78.2795 103.392 78.2883C103.372 78.299 103.349 78.3047 103.325 78.3051Z" fill="#263238"/>
<path d="M100.8 89.801C100.293 89.7989 99.7977 89.6566 99.3675 89.3898C98.9373 89.123 98.5895 88.7422 98.3626 88.2897C98.1358 87.8372 98.0388 87.3307 98.0825 86.8264C98.1261 86.3221 98.3087 85.8397 98.6099 85.4329C98.8247 85.1454 99.0939 84.9029 99.4024 84.7194C99.7108 84.5358 100.052 84.4149 100.408 84.3633C100.426 84.3602 100.444 84.3607 100.462 84.365C100.48 84.3693 100.497 84.3772 100.511 84.3882C100.526 84.3992 100.538 84.4131 100.547 84.4291C100.557 84.4451 100.562 84.4627 100.564 84.481C100.569 84.5173 100.56 84.554 100.538 84.5834C100.516 84.6127 100.483 84.6322 100.447 84.6378C99.8029 84.7321 99.2229 85.0783 98.8343 85.6002C98.4458 86.1222 98.2804 86.7771 98.3748 87.421C98.4691 88.0648 98.8153 88.6448 99.3372 89.0334C99.8592 89.4219 100.514 89.5873 101.158 89.4929C101.195 89.487 101.233 89.4961 101.264 89.5181C101.294 89.5402 101.314 89.5734 101.32 89.6106C101.326 89.6477 101.317 89.6857 101.295 89.7161C101.273 89.7466 101.24 89.767 101.203 89.7729C101.069 89.7906 100.934 89.8 100.8 89.801Z" fill="#263238"/>
<path d="M114.917 94.0353C114.391 94.0346 113.878 93.8808 113.438 93.5929C113.407 93.5723 113.385 93.5404 113.377 93.5039C113.368 93.4674 113.374 93.4291 113.394 93.3969C113.415 93.3666 113.447 93.3457 113.484 93.3384C113.52 93.3311 113.558 93.338 113.59 93.3578C114.135 93.712 114.8 93.8349 115.436 93.6994C116.072 93.5639 116.629 93.1812 116.983 92.6353C117.337 92.0895 117.46 91.4254 117.325 90.7889C117.189 90.1525 116.807 89.596 116.261 89.2417C116.23 89.2211 116.207 89.1892 116.199 89.1527C116.191 89.1162 116.197 89.0779 116.216 89.0457C116.237 89.0154 116.27 88.9945 116.306 88.9872C116.343 88.9799 116.38 88.9868 116.412 89.0065C117.019 89.4018 117.445 90.0215 117.596 90.73C117.747 91.4385 117.611 92.1779 117.218 92.7865C117.024 93.0893 116.772 93.3503 116.476 93.5542C116.18 93.7581 115.846 93.9007 115.494 93.9737C115.304 94.0136 115.111 94.0343 114.917 94.0353Z" fill="#263238"/>
<path d="M103.959 86.0328C105.988 86.0328 107.632 84.388 107.632 82.3592C107.632 80.3303 105.988 78.6855 103.959 78.6855C101.93 78.6855 100.285 80.3303 100.285 82.3592C100.285 84.388 101.93 86.0328 103.959 86.0328Z" fill="#263238"/>
<path d="M107.407 90.7497C109.31 88.8471 109.31 85.7623 107.407 83.8597C105.505 81.957 102.42 81.957 100.517 83.8597C98.6147 85.7623 98.6147 88.8471 100.517 90.7497C102.42 92.6523 105.505 92.6524 107.407 90.7497Z" fill="#263238"/>
<path d="M104.473 98.8838C107.448 98.8838 109.86 96.4718 109.86 93.4966C109.86 90.5213 107.448 88.1094 104.473 88.1094C101.498 88.1094 99.0859 90.5213 99.0859 93.4966C99.0859 96.4718 101.498 98.8838 104.473 98.8838Z" fill="#263238"/>
<path d="M115.107 95.101C115.79 92.2053 113.997 89.3038 111.101 88.6204C108.205 87.9369 105.304 89.7303 104.62 92.626C103.937 95.5217 105.73 98.4232 108.626 99.1066C111.522 99.7901 114.423 97.9967 115.107 95.101Z" fill="#263238"/>
<path d="M127.73 104.978C127.73 105.415 127.73 105.969 127.769 106.473C127.809 106.977 127.809 107.515 127.842 108.036C127.915 109.077 127.988 110.13 128.1 111.177C128.301 113.279 128.583 115.372 128.945 117.455C129.041 117.97 129.125 118.497 129.231 119.012L129.477 120.283C129.539 120.485 129.477 120.445 129.399 120.44C129.321 120.434 129.399 120.541 129.729 120.541C130.575 120.456 131.399 120.219 132.16 119.841C132.608 119.639 133.067 119.421 133.526 119.185C133.985 118.95 134.45 118.681 134.87 118.446L136.505 120.333C136.115 120.78 135.7 121.205 135.262 121.605C134.831 122.015 134.375 122.399 133.896 122.753C133.394 123.13 132.864 123.469 132.311 123.766C131.682 124.11 131.007 124.362 130.306 124.517C129.874 124.611 129.432 124.648 128.99 124.629C128.451 124.597 127.923 124.464 127.433 124.237C126.913 123.992 126.449 123.641 126.073 123.206C125.749 122.828 125.485 122.403 125.289 121.946C125.137 121.596 125.013 121.235 124.919 120.865L124.701 120.048C124.544 119.488 124.415 118.956 124.281 118.407C123.757 116.205 123.353 113.977 123.071 111.732C122.931 110.612 122.819 109.492 122.752 108.344C122.718 107.784 122.69 107.224 122.673 106.63C122.657 106.037 122.673 105.51 122.673 104.844L127.73 104.978Z" fill="#AD6359"/>
<path d="M125.014 98.9407C129.791 102.598 129.601 109.491 129.601 109.491L121.055 111.535C121.055 111.535 118.434 104.602 119.498 102.066C120.607 99.4223 122.326 96.8799 125.014 98.9407Z" fill="#664EFE"/>
<path opacity="0.7" d="M125.014 98.9407C129.791 102.598 129.601 109.491 129.601 109.491L121.055 111.535C121.055 111.535 118.434 104.602 119.498 102.066C120.607 99.4223 122.326 96.8799 125.014 98.9407Z" fill="white"/>
<path d="M134.55 119.089L135.962 116.715L139.501 120.5C139.501 120.5 136.964 122.124 134.332 120.965L134.55 119.089Z" fill="#AD6359"/>
<path d="M137.704 115.578L142.246 118.255L139.502 120.501L135.963 116.715L137.704 115.578Z" fill="#AD6359"/>
<path d="M98.2754 228.96L103.159 229.431L106.194 217.99L101.305 217.52L98.2754 228.96Z" fill="#AD6359"/>
<path d="M73.2422 219.345L77.627 221.641L82.8406 211.304L78.4558 209.008L73.2422 219.345Z" fill="#AD6359"/>
<path d="M78.7977 219.632L74.8777 215.65C74.8125 215.58 74.7238 215.537 74.6287 215.529C74.5335 215.521 74.4387 215.548 74.3625 215.605L70.7617 218.254C70.6744 218.324 70.6028 218.412 70.5515 218.512C70.5003 218.612 70.4705 218.721 70.4642 218.833C70.4578 218.945 70.4751 219.057 70.5147 219.161C70.5544 219.266 70.6156 219.362 70.6945 219.441C72.0833 220.808 72.8225 221.396 74.5473 223.148C75.6113 224.224 77.7953 226.76 79.2625 228.25C80.7297 229.74 82.2753 228.368 81.7993 227.617C79.6601 224.257 79.3017 222.146 79.1673 220.438C79.143 220.134 79.0121 219.849 78.7977 219.632Z" fill="#263238"/>
<path d="M103.92 227.948H98.0009C97.895 227.949 97.7923 227.984 97.7085 228.049C97.6246 228.114 97.5641 228.204 97.5361 228.306L96.2705 232.96C96.2389 233.07 96.2337 233.187 96.2553 233.3C96.277 233.413 96.3249 233.519 96.3952 233.61C96.4655 233.701 96.5563 233.774 96.6601 233.824C96.7639 233.873 96.8779 233.898 96.9929 233.895C99.0705 233.895 100.056 233.895 102.649 233.895H110.584C112.74 233.895 113.194 231.717 112.298 231.515C108.299 230.63 105.992 229.409 104.76 228.245C104.527 228.045 104.227 227.939 103.92 227.948Z" fill="#263238"/>
<path opacity="0.2" d="M106.188 217.996L104.625 223.893H99.6133L101.299 217.525L106.188 217.996Z" fill="black"/>
<path opacity="0.2" d="M78.4497 209.008L82.8401 211.309L80.1521 216.635L75.7617 214.333L78.4497 209.008Z" fill="black"/>
<path d="M123.571 98.235C123.571 98.235 125.732 99.1814 118.486 127.853L98.3594 126.112C99.4066 117.953 99.849 112.901 97.3906 95.7486C100.26 95.4126 103.149 95.2835 106.037 95.3622C109.098 95.4085 112.152 95.6724 115.176 96.1518C118.008 96.704 120.809 97.3992 123.571 98.235Z" fill="#664EFE"/>
<path opacity="0.7" d="M123.571 98.235C123.571 98.235 125.732 99.1814 118.486 127.853L98.3594 126.112C99.4066 117.953 99.849 112.901 97.3906 95.7486C100.26 95.4126 103.149 95.2835 106.037 95.3622C109.098 95.4085 112.152 95.6724 115.176 96.1518C118.008 96.704 120.809 97.3992 123.571 98.235Z" fill="white"/>
<path d="M106.036 95.1992C106.036 95.1992 104.916 95.1992 103.544 95.1992C102.732 96.448 106.159 100.094 110.516 103.678C111.568 100.413 113.226 100.424 113.226 100.424L106.036 95.1992Z" fill="white"/>
<path d="M115.17 96.0781C115.17 96.0781 115.68 96.1509 116.9 96.4309C117.707 97.6797 118.16 100.805 115.78 103.526C114.845 100.166 113.232 100.469 113.232 100.469L115.17 96.0781Z" fill="white"/>
<path d="M107.827 85.1484C108.152 88.1388 108.258 93.5484 106.035 95.3628C106.035 95.3628 108.41 97.7932 113.226 100.47C116.72 98.0508 115.174 96.1524 115.174 96.1524C111.96 95.0884 112.257 92.6636 113.024 90.4236L107.827 85.1484Z" fill="#AD6359"/>
<path opacity="0.2" d="M109.95 87.3027L113.025 90.4219C112.836 90.9403 112.694 91.4744 112.599 92.0179C111.367 91.7323 109.575 90.4443 109.553 89.1227C109.574 88.497 109.709 87.8804 109.95 87.3027Z" fill="black"/>
<path d="M119.376 75.3926C121.437 77.2182 122.041 81.6646 120.081 84.683C119.493 81.6232 119.256 78.5061 119.376 75.3926Z" fill="#263238"/>
<path d="M107.201 78.8704C106.842 83.7928 106.59 85.8704 108.718 88.7096C111.922 92.9824 118.048 92.3384 119.868 87.6232C121.509 83.3728 121.817 76.0368 117.298 73.4496C116.304 72.8699 115.179 72.5548 114.03 72.5343C112.88 72.5138 111.744 72.7886 110.731 73.3325C109.718 73.8764 108.861 74.6712 108.243 75.6408C107.625 76.6104 107.266 77.7224 107.201 78.8704Z" fill="#AD6359"/>
<path d="M106.545 82.8349C110.185 82.6949 112.201 77.9349 111.288 75.9245C115.416 78.0749 121.665 79.7661 120.971 76.9997C120.036 73.2645 115.516 70.5261 109.956 72.5197C106.736 73.9197 103.98 76.9997 106.545 82.8349Z" fill="#263238"/>
<path d="M105.437 82.8294C105.593 83.7707 106.112 84.6132 106.882 85.1758C107.913 85.9094 108.853 85.0918 108.926 83.899C108.993 82.8182 108.54 81.1382 107.33 80.8806C107.065 80.828 106.791 80.8425 106.534 80.9228C106.276 81.0031 106.042 81.1467 105.854 81.3404C105.666 81.5342 105.529 81.7719 105.456 82.032C105.384 82.292 105.377 82.5662 105.437 82.8294Z" fill="#AD6359"/>
<path d="M118.485 127.854C118.485 127.854 123.038 157.562 120.501 176.647C118.581 191.067 106.188 222.18 106.188 222.18L98.1406 221.962C98.1406 221.962 106.451 191.806 108.17 179.962C111.11 159.679 103.746 126.6 103.746 126.6L118.485 127.854Z" fill="#263238"/>
<path opacity="0.2" d="M110.633 133.941L106.338 140.712C107.631 148.739 108.452 156.836 108.796 164.96C114.833 154.152 111.999 139.659 110.633 133.941Z" fill="black"/>
<path d="M107.442 222.628L97.3281 222.353L97.9441 219.1L108.394 219.161L107.442 222.628Z" fill="#664EFE"/>
<path d="M114.083 127.535C114.083 127.535 110.723 160.429 103.046 178.327C96.8352 192.775 82.0288 215.886 82.0288 215.886L76.1152 212.425C76.1152 212.425 85.6352 186.727 90.3336 177.095C101.797 153.48 91.1344 134.535 98.3584 126.135L114.083 127.535Z" fill="#263238"/>
<path d="M82.6721 216.389L75.1289 212.251L76.3553 209.025L84.3913 213.561L82.6721 216.389Z" fill="#664EFE"/>
<path d="M98.1571 124.907L97.0931 126.632C97.0147 126.76 97.1659 126.923 97.4011 126.94L118.508 128.765C118.687 128.765 118.849 128.704 118.866 128.592L119.208 126.805C119.208 126.682 119.079 126.564 118.883 126.548L98.4987 124.784C98.436 124.774 98.372 124.78 98.3123 124.802C98.2526 124.823 98.1993 124.859 98.1571 124.907Z" fill="#664EFE"/>
<path d="M100.7 127.422L100.14 127.377C100.033 127.377 99.9547 127.304 99.9659 127.237L100.425 124.919C100.425 124.846 100.543 124.801 100.649 124.812L101.209 124.857C101.321 124.857 101.4 124.93 101.383 124.997L100.929 127.315C100.907 127.383 100.8 127.433 100.7 127.422Z" fill="#263238"/>
<path d="M116.957 128.828L116.397 128.783C116.285 128.783 116.206 128.71 116.223 128.643L116.682 126.325C116.682 126.258 116.794 126.207 116.901 126.218L117.461 126.263C117.567 126.263 117.645 126.336 117.634 126.403L117.175 128.722C117.164 128.8 117.041 128.839 116.957 128.828Z" fill="#263238"/>
<path d="M108.825 128.128L108.265 128.078C108.158 128.078 108.08 128.005 108.091 127.938L108.55 125.62C108.55 125.552 108.662 125.502 108.774 125.513L109.334 125.564C109.441 125.564 109.519 125.636 109.508 125.704L109.049 128.022C109.037 128.089 108.937 128.134 108.825 128.128Z" fill="#263238"/>
<path d="M114.911 81.318C114.855 81.7156 115.023 82.0684 115.281 82.102C115.538 82.1356 115.796 81.8444 115.841 81.4468C115.886 81.0492 115.723 80.6964 115.466 80.6628C115.208 80.6292 114.962 80.9204 114.911 81.318Z" fill="#263238"/>
<path d="M119.403 81.9215C119.353 82.3191 119.521 82.6719 119.779 82.7055C120.036 82.7391 120.294 82.4479 120.339 82.0503C120.383 81.6527 120.227 81.2999 119.969 81.2663C119.711 81.2327 119.459 81.5239 119.403 81.9215Z" fill="#263238"/>
<path d="M119.84 81.2726L120.837 81.127C120.837 81.127 120.254 81.8046 119.84 81.2726Z" fill="#263238"/>
<path d="M117.639 82.3594C117.872 83.3129 118.234 84.2303 118.714 85.0866C118.493 85.2043 118.248 85.2724 117.998 85.2859C117.747 85.2994 117.497 85.2582 117.264 85.165L117.639 82.3594Z" fill="#AD6359"/>
<path d="M114.934 86.3516C114.147 86.0949 113.486 85.5484 113.086 84.8228C113.076 84.7996 113.075 84.7735 113.084 84.7496C113.092 84.7258 113.109 84.7059 113.131 84.694C113.155 84.6822 113.182 84.6804 113.208 84.6888C113.233 84.6972 113.254 84.7151 113.266 84.7388C113.514 85.175 113.863 85.5465 114.282 85.8228C114.701 86.0992 115.18 86.2726 115.679 86.3292C115.704 86.3292 115.729 86.3392 115.747 86.357C115.764 86.3749 115.774 86.3991 115.774 86.4244C115.774 86.4496 115.764 86.4738 115.747 86.4917C115.729 86.5095 115.704 86.5196 115.679 86.5196C115.425 86.4916 115.176 86.4352 114.934 86.3516Z" fill="#263238"/>
<path d="M112.869 79.0164C112.836 79.0029 112.808 78.9818 112.785 78.9548C112.766 78.937 112.752 78.9157 112.742 78.8921C112.732 78.8685 112.727 78.8432 112.727 78.8176C112.727 78.7919 112.732 78.7666 112.742 78.743C112.752 78.7194 112.766 78.6981 112.785 78.6804C113.059 78.435 113.389 78.2599 113.746 78.1702C114.103 78.0804 114.477 78.0787 114.835 78.1652C114.859 78.1722 114.882 78.1841 114.902 78.2001C114.921 78.2161 114.938 78.2359 114.95 78.2584C114.962 78.2808 114.969 78.3054 114.972 78.3308C114.974 78.3561 114.971 78.3817 114.963 78.406C114.949 78.4556 114.916 78.4975 114.871 78.5227C114.825 78.5478 114.772 78.5542 114.723 78.5404C114.428 78.4748 114.122 78.4802 113.83 78.5562C113.538 78.6321 113.268 78.7764 113.043 78.9772C113.018 78.9958 112.99 79.009 112.96 79.0158C112.93 79.0226 112.899 79.0228 112.869 79.0164Z" fill="#263238"/>
<path d="M121.291 80.2079C121.262 80.1965 121.235 80.1794 121.212 80.1575C121.016 79.9271 120.768 79.7462 120.489 79.6295C120.21 79.5127 119.907 79.4634 119.605 79.4855C119.58 79.4912 119.553 79.4914 119.528 79.4861C119.502 79.4808 119.478 79.4701 119.457 79.4547C119.436 79.4394 119.418 79.4197 119.405 79.397C119.392 79.3743 119.384 79.3491 119.381 79.3231C119.373 79.2719 119.386 79.2195 119.416 79.1776C119.447 79.1356 119.493 79.1074 119.544 79.0991C119.909 79.0662 120.277 79.1212 120.617 79.2596C120.957 79.3979 121.259 79.6155 121.498 79.8943C121.525 79.9267 121.541 79.9669 121.544 80.0091C121.546 80.0514 121.535 80.0932 121.512 80.1285C121.488 80.1637 121.454 80.1905 121.414 80.2049C121.375 80.2192 121.331 80.2202 121.291 80.2079Z" fill="#263238"/>
<path d="M125.72 122.46C126.082 121.331 126.664 120.284 127.431 119.379C128.198 118.474 129.136 117.729 130.191 117.187C131.246 116.645 132.398 116.315 133.58 116.218C134.762 116.121 135.952 116.257 137.082 116.62C138.212 116.982 139.259 117.564 140.163 118.331C141.068 119.098 141.813 120.036 142.356 121.091C142.898 122.146 143.227 123.298 143.324 124.48C143.422 125.663 143.285 126.853 142.923 127.982L139.44 138.88L122.236 133.353L125.72 122.46Z" fill="#664EFE"/>
<path opacity="0.3" d="M125.72 122.46C126.082 121.331 126.664 120.284 127.431 119.379C128.198 118.474 129.136 117.729 130.191 117.187C131.246 116.645 132.398 116.315 133.58 116.218C134.762 116.121 135.952 116.257 137.082 116.62C138.212 116.982 139.259 117.564 140.163 118.331C141.068 119.098 141.813 120.036 142.356 121.091C142.898 122.146 143.227 123.298 143.324 124.48C143.422 125.663 143.285 126.853 142.923 127.982L139.44 138.88L122.236 133.353L125.72 122.46Z" fill="black"/>
<path d="M108.746 117.007L105.599 126.807C105.552 126.948 105.535 127.096 105.546 127.244C105.558 127.391 105.599 127.535 105.667 127.667C105.734 127.799 105.828 127.916 105.941 128.011C106.054 128.107 106.185 128.179 106.327 128.224L122.231 133.331L125.725 122.456C126.458 120.176 128.066 118.282 130.196 117.187C132.325 116.093 134.802 115.889 137.082 116.62L120.108 111.166C117.827 110.437 115.349 110.642 113.219 111.737C111.089 112.832 109.48 114.727 108.746 117.007Z" fill="#664EFE"/>
<path d="M117.28 124.437L121.665 110.79C121.68 110.741 121.684 110.689 121.678 110.638C121.671 110.588 121.654 110.539 121.627 110.495C121.6 110.452 121.564 110.415 121.521 110.386C121.478 110.358 121.43 110.339 121.379 110.331L116.899 109.67L116.339 111.44L119.604 112.487L115.908 123.989L117.28 124.437Z" fill="#263238"/>
<path d="M114.951 123.687C114.85 124.004 114.845 124.343 114.936 124.662C115.027 124.981 115.211 125.266 115.465 125.481C115.718 125.696 116.029 125.831 116.359 125.869C116.689 125.906 117.023 125.846 117.318 125.694C117.614 125.543 117.857 125.307 118.019 125.017C118.181 124.726 118.252 124.395 118.226 124.064C118.199 123.733 118.075 123.417 117.868 123.157C117.662 122.897 117.384 122.703 117.068 122.601C116.858 122.533 116.636 122.507 116.416 122.525C116.195 122.543 115.981 122.604 115.784 122.705C115.587 122.806 115.413 122.945 115.27 123.113C115.127 123.282 115.018 123.477 114.951 123.687Z" fill="#263238"/>
<path d="M123.06 134.96L145.124 142.044C145.204 142.071 145.289 142.081 145.373 142.074C145.457 142.067 145.539 142.044 145.614 142.005C145.689 141.967 145.755 141.914 145.81 141.849C145.864 141.785 145.905 141.71 145.93 141.63C145.957 141.55 145.968 141.465 145.962 141.381C145.955 141.297 145.932 141.215 145.893 141.139C145.855 141.064 145.801 140.998 145.737 140.943C145.672 140.889 145.597 140.848 145.516 140.824L122.231 133.348C122.127 133.671 122.156 134.023 122.312 134.326C122.467 134.628 122.736 134.856 123.06 134.96Z" fill="#664EFE"/>
<path opacity="0.2" d="M123.06 134.96L132.076 137.856C132.157 137.882 132.241 137.892 132.326 137.885C132.41 137.879 132.493 137.855 132.568 137.817C132.643 137.778 132.711 137.725 132.765 137.661C132.82 137.596 132.862 137.522 132.888 137.441C132.939 137.279 132.924 137.104 132.847 136.953C132.769 136.802 132.635 136.688 132.474 136.635L122.231 133.348C122.127 133.671 122.156 134.023 122.312 134.326C122.467 134.628 122.736 134.856 123.06 134.96Z" fill="black"/>
<path d="M99.7586 103.656L99.4506 103.998L99.1034 104.395C98.8682 104.664 98.633 104.955 98.409 105.23C97.9498 105.79 97.513 106.389 97.1042 106.994C95.4122 109.389 94.0802 112.019 93.1506 114.8C92.9266 115.495 92.7194 116.189 92.557 116.9C92.501 117.107 92.4954 117.191 92.4674 117.287C92.4631 117.369 92.4631 117.451 92.4674 117.533C92.4584 117.621 92.4584 117.709 92.4674 117.796C92.4674 117.897 92.6578 118.132 93.117 118.356C93.6691 118.605 94.2506 118.781 94.8474 118.883C96.2878 119.112 97.7463 119.207 99.2042 119.168C100.727 119.168 102.273 119.034 103.819 118.871C105.364 118.709 106.932 118.507 108.45 118.278L109.06 120.703C105.935 121.72 102.719 122.434 99.4562 122.836C97.7386 123.06 96.0019 123.097 94.2762 122.948C93.2896 122.856 92.3208 122.626 91.3978 122.265C90.8442 122.043 90.324 121.745 89.8522 121.38C89.2966 120.945 88.8387 120.397 88.5082 119.773C87.9394 118.603 87.7872 117.273 88.077 116.004C88.2114 115.147 88.4074 114.324 88.637 113.462C89.0765 111.806 89.6611 110.193 90.3842 108.64C91.1092 107.084 91.9536 105.586 92.9098 104.16C93.3914 103.449 93.9066 102.76 94.4442 102.083C94.7186 101.747 95.0042 101.416 95.2842 101.086L95.7378 100.599C95.9002 100.425 96.029 100.285 96.253 100.072L99.7586 103.656Z" fill="#AD6359"/>
<path d="M107.228 118.792L111.148 116.715L111.322 120.926C111.322 120.926 108.522 122.085 106.92 120.808L107.228 118.792Z" fill="#AD6359"/>
<path d="M114.38 116.396L113.792 120.277L111.328 120.927L111.154 116.716L114.38 116.396Z" fill="#AD6359"/>
<path d="M97.3896 95.7591C94.92 96.1959 91.4648 103.274 91.4648 103.274L97.6864 108.874C97.6864 108.874 102.631 103.476 102.368 100.262C102.144 97.5455 100.531 95.1991 97.3896 95.7591Z" fill="#664EFE"/>
<path opacity="0.7" d="M97.3896 95.7591C94.92 96.1959 91.4648 103.274 91.4648 103.274L97.6864 108.874C97.6864 108.874 102.631 103.476 102.368 100.262C102.144 97.5455 100.531 95.1991 97.3896 95.7591Z" fill="white"/>
<path d="M80.7249 221.794C80.6599 221.803 80.594 221.803 80.5289 221.794C79.9073 221.761 79.2465 220.809 78.9049 220.249C78.8943 220.233 78.8887 220.214 78.8887 220.195C78.8887 220.176 78.8943 220.158 78.9049 220.142C78.9152 220.126 78.9305 220.113 78.9487 220.106C78.9669 220.099 78.987 220.098 79.0057 220.103C79.2073 220.142 80.9489 220.534 81.1673 221.122C81.19 221.186 81.1957 221.255 81.1839 221.321C81.1722 221.388 81.1433 221.451 81.1001 221.503C81.0105 221.639 80.8786 221.741 80.7249 221.794ZM79.1961 220.372C79.6945 221.139 80.1873 221.598 80.5401 221.621C80.6205 221.622 80.6999 221.603 80.7705 221.565C80.8412 221.526 80.9007 221.47 80.9433 221.402C80.9675 221.378 80.984 221.347 80.991 221.313C80.9979 221.279 80.995 221.244 80.9825 221.212C80.8481 220.853 79.8009 220.517 79.1961 220.372Z" fill="#664EFE"/>
<path d="M80.5448 220.248C80.0284 220.39 79.4865 220.413 78.96 220.316C78.9435 220.31 78.9286 220.301 78.9168 220.288C78.9051 220.275 78.8968 220.26 78.8928 220.243C78.885 220.228 78.8809 220.212 78.8809 220.195C78.8809 220.179 78.885 220.162 78.8928 220.148C78.9376 220.108 79.9568 219.112 80.668 219.162C80.7559 219.163 80.8422 219.185 80.9201 219.226C80.9979 219.267 81.065 219.326 81.116 219.397C81.1772 219.463 81.2148 219.547 81.2229 219.636C81.231 219.725 81.2092 219.815 81.1608 219.89C81 220.073 80.7837 220.199 80.5448 220.248ZM79.1952 220.159C79.7552 220.237 80.8024 220.097 81.0208 219.778C81.0544 219.728 81.0824 219.649 80.9816 219.52C80.9478 219.471 80.9027 219.431 80.8501 219.403C80.7975 219.374 80.7389 219.359 80.6792 219.358C80.192 219.324 79.4864 219.896 79.1952 220.159Z" fill="#664EFE"/>
<path d="M106.008 228.698C105.467 228.685 104.928 228.615 104.401 228.491C104.382 228.484 104.367 228.472 104.355 228.456C104.344 228.44 104.338 228.421 104.338 228.401C104.338 228.381 104.344 228.362 104.355 228.346C104.367 228.33 104.382 228.318 104.401 228.311C104.642 228.194 106.787 227.191 107.324 227.572C107.373 227.605 107.411 227.651 107.436 227.704C107.461 227.757 107.47 227.816 107.464 227.875C107.462 227.984 107.434 228.091 107.383 228.188C107.333 228.285 107.261 228.37 107.173 228.435C106.822 228.642 106.414 228.734 106.008 228.698ZM104.737 228.362C105.37 228.479 106.546 228.636 107.033 228.272C107.095 228.223 107.147 228.161 107.183 228.091C107.22 228.02 107.241 227.943 107.246 227.863C107.251 227.839 107.248 227.813 107.238 227.79C107.228 227.767 107.211 227.748 107.19 227.735C106.887 227.527 105.622 227.97 104.72 228.362H104.737Z" fill="#664EFE"/>
<path d="M104.417 228.48C104.397 228.485 104.376 228.485 104.356 228.48C104.342 228.467 104.332 228.451 104.326 228.434C104.32 228.416 104.319 228.397 104.322 228.379C104.322 228.29 104.832 226.178 106.002 226.313C106.293 226.352 106.372 226.492 106.388 226.61C106.461 227.17 105.112 228.228 104.468 228.497L104.417 228.48ZM105.884 226.481C105.145 226.481 104.714 227.713 104.568 228.206C105.268 227.836 106.248 226.957 106.187 226.615C106.187 226.587 106.187 226.509 105.968 226.486L105.884 226.481Z" fill="#664EFE"/>
<path d="M115.359 80.6671L116.351 80.5215C116.351 80.5215 115.763 81.1991 115.359 80.6671Z" fill="#263238"/>
<path d="M149.817 127.517L128.134 131.997C127.763 132.067 127.38 131.989 127.066 131.779C126.752 131.57 126.532 131.246 126.454 130.877L125.44 126.173L125.076 124.437L125.715 122.455C125.803 122.17 125.91 121.891 126.034 121.62C126.048 121.577 126.067 121.536 126.09 121.497C126.447 120.681 126.929 119.926 127.518 119.257L128.638 119.022L147.23 115.164C147.601 115.094 147.984 115.172 148.298 115.381C148.612 115.591 148.831 115.914 148.91 116.284L150.887 125.804C150.968 126.172 150.901 126.558 150.701 126.878C150.501 127.199 150.184 127.428 149.817 127.517Z" fill="#FDC500"/>
<path opacity="0.3" d="M148.742 115.78L138.282 126.42L136.042 125.513L127.328 121.979L126.102 121.481C126.459 120.665 126.941 119.909 127.53 119.241L128.65 119.006L147.242 115.147C147.526 115.09 147.822 115.12 148.089 115.233C148.357 115.346 148.584 115.536 148.742 115.78Z" fill="black"/>
<path d="M148.742 115.78L136.041 125.529L135.212 126.168L127.232 122.209L126.045 121.649C126.059 121.606 126.078 121.564 126.101 121.525C126.459 120.71 126.94 119.954 127.529 119.285L128.649 119.05L147.241 115.192C147.521 115.13 147.813 115.153 148.081 115.258C148.348 115.363 148.578 115.544 148.742 115.78Z" fill="#FDC500"/>
<path opacity="0.2" d="M148.742 115.78L136.041 125.529L135.212 126.168L127.232 122.209L126.045 121.649C126.059 121.606 126.078 121.564 126.101 121.525C126.459 120.71 126.94 119.954 127.529 119.285L128.649 119.05L147.241 115.192C147.521 115.13 147.813 115.153 148.081 115.258C148.348 115.363 148.578 115.544 148.742 115.78Z" fill="white"/>
<path d="M176.288 147.158L169.68 154.281C169.419 154.559 169.059 154.722 168.678 154.736C168.297 154.749 167.927 154.612 167.647 154.354L151.44 139.262C151.161 139.002 150.997 138.642 150.983 138.26C150.97 137.879 151.108 137.508 151.368 137.229L157.998 130.106C158.126 129.966 158.281 129.853 158.454 129.774C158.626 129.695 158.812 129.65 159.002 129.643C159.192 129.637 159.381 129.668 159.558 129.734C159.736 129.801 159.898 129.903 160.036 130.033L176.237 145.125C176.447 145.32 176.594 145.574 176.659 145.853C176.724 146.133 176.704 146.425 176.601 146.693C176.531 146.868 176.424 147.027 176.288 147.158Z" fill="#FDC500"/>
<path opacity="0.3" d="M176.579 146.721L161.84 144.319L158.418 129.759C158.679 129.638 158.97 129.598 159.254 129.643C159.538 129.688 159.803 129.816 160.014 130.011L176.215 145.103C176.435 145.302 176.588 145.564 176.653 145.854C176.719 146.144 176.692 146.447 176.579 146.721Z" fill="black"/>
<path d="M176.579 146.719L162.226 142.441L158.418 129.807C158.679 129.687 158.97 129.647 159.254 129.692C159.538 129.736 159.803 129.864 160.014 130.059L176.215 145.151C176.425 145.347 176.572 145.6 176.636 145.88C176.701 146.159 176.681 146.451 176.579 146.719Z" fill="#FDC500"/>
<path opacity="0.2" d="M176.579 146.719L162.226 142.441L158.418 129.807C158.679 129.687 158.97 129.647 159.254 129.692C159.538 129.736 159.803 129.864 160.014 130.059L176.215 145.151C176.425 145.347 176.572 145.6 176.636 145.88C176.701 146.159 176.681 146.451 176.579 146.719Z" fill="white"/>
<path d="M182.05 158.89L189.33 167.39C189.469 167.553 189.574 167.742 189.637 167.947C189.7 168.151 189.722 168.366 189.699 168.579C189.676 168.792 189.611 168.998 189.506 169.184C189.401 169.371 189.259 169.534 189.089 169.664L173.275 181.984C173.009 182.144 172.693 182.199 172.389 182.139C172.085 182.079 171.813 181.908 171.628 181.659L165.933 175.163C165.826 175.038 165.737 174.899 165.67 174.749C165.564 174.543 165.52 174.311 165.543 174.08C165.566 173.85 165.655 173.631 165.799 173.45L179.799 158.828C180.017 158.591 180.306 158.431 180.623 158.371C180.939 158.31 181.267 158.353 181.557 158.492C181.745 158.592 181.912 158.727 182.05 158.89Z" fill="#FDC500"/>
<path opacity="0.3" d="M181.558 158.508L178.081 173.975L165.693 174.765C165.588 174.559 165.544 174.327 165.566 174.096C165.589 173.866 165.678 173.647 165.822 173.466L179.822 158.844C180.039 158.612 180.324 158.455 180.636 158.395C180.948 158.334 181.27 158.374 181.558 158.508Z" fill="black"/>
<path d="M181.558 158.508L175.728 174.921L165.682 174.765C165.576 174.559 165.532 174.327 165.555 174.096C165.578 173.866 165.666 173.647 165.81 173.465L179.81 158.844C180.028 158.61 180.315 158.451 180.629 158.39C180.943 158.33 181.269 158.371 181.558 158.508Z" fill="#FDC500"/>
<path opacity="0.2" d="M181.558 158.508L175.728 174.921L165.682 174.765C165.576 174.559 165.532 174.327 165.555 174.096C165.578 173.866 165.666 173.647 165.81 173.465L179.81 158.844C180.028 158.61 180.315 158.451 180.629 158.39C180.943 158.33 181.269 158.371 181.558 158.508Z" fill="white"/>
</svg>
