<svg width="280" height="280" viewBox="0 0 280 280" fill="none" xmlns="http://www.w3.org/2000/svg">
<path d="M54.8419 33.0625H35.1523V39.3289H54.8419V33.0625Z" fill="#EBEBEB"/>
<path d="M190.356 107.273H170.666V113.54H190.356V107.273Z" fill="#EBEBEB"/>
<path d="M43.86 25.1583C40.5896 25.2143 32.2064 25.3542 29.048 25.3934H24.1704L24.428 25.1358V31.4023L24.148 31.1223C27.4184 31.1223 35.7568 31.1671 38.9152 31.2119L43.8376 31.2734L43.7032 31.4023L43.8376 25.1358L43.86 25.1583ZM43.86 25.1583L43.9888 31.4246V31.5591H43.8544C41.396 31.5927 36.4624 31.6486 34.0096 31.6655L24.1648 31.7046H23.8848V31.4246V25.1583V24.9062H24.1368H29.104C32.24 24.9398 40.584 25.0798 43.8264 25.1358L43.86 25.1583Z" fill="#EBEBEB"/>
<path d="M99.5751 160.158C96.3047 160.214 87.9215 160.354 84.7631 160.387H79.8855L80.1431 160.135V166.402L79.8631 166.122C83.1335 166.122 91.4719 166.161 94.6303 166.206L99.5527 166.267L99.4183 166.402L99.5527 160.135L99.5751 160.158ZM99.5751 160.158L99.7095 166.424V166.553H99.5751C97.1167 166.553 92.1887 166.643 89.7303 166.659L79.8855 166.699H79.6055V166.419V160.152V159.895H79.8575L84.8247 159.923C87.9607 159.956 96.3103 160.096 99.5471 160.152L99.5751 160.158Z" fill="#EBEBEB"/>
<path d="M88.5926 152.248C85.3222 152.304 76.939 152.444 73.7806 152.477H68.903L69.1606 152.225V158.492L68.8806 158.212C72.151 158.212 80.4894 158.251 83.6478 158.296L88.5702 158.357L88.4358 158.492L88.5702 152.225L88.5926 152.248ZM88.5926 152.248L88.727 158.514V158.643H88.5926C86.1342 158.671 81.2006 158.732 78.7478 158.749L68.903 158.788H68.623V158.508V152.242V151.984H68.8806H73.8478C76.9838 152.018 85.3278 152.158 88.5702 152.214L88.5926 152.248Z" fill="#EBEBEB"/>
<path d="M77.6564 160.148H57.9668V166.415H77.6564V160.148Z" fill="#EBEBEB"/>
<path d="M255.83 25.1602H236.141V31.4266H255.83V25.1602Z" fill="#EBEBEB"/>
<path d="M244.85 218.668H225.16V224.934H244.85V218.668Z" fill="#EBEBEB"/>
<path d="M255.831 210.765C252.561 210.821 244.177 210.961 241.019 211.001H236.141L236.399 210.743V217.009L236.119 216.729C239.389 216.729 247.728 216.774 250.886 216.819L255.809 216.881L255.674 217.009L255.809 210.743L255.831 210.765ZM255.831 210.765L255.965 217.032V217.166H255.831C253.373 217.2 248.445 217.256 245.986 217.278L236.141 217.312H235.861V217.026L235.889 210.76V210.508H236.141H241.109C244.245 210.541 252.594 210.687 255.831 210.737V210.765Z" fill="#EBEBEB"/>
<path d="M54.8407 218.667C51.5703 218.723 43.1871 218.863 40.0287 218.902H35.1511L35.4087 218.645V224.911L35.1287 224.631L44.9735 224.67C47.4263 224.67 52.3655 224.749 54.8183 224.782L54.6839 224.911L54.8183 218.645L54.8407 218.667ZM54.8407 218.667L54.9751 224.934V225.068H54.8407C52.3823 225.102 47.4487 225.158 44.9959 225.18L35.1511 225.214H34.8711V224.928V218.662V218.398H35.1231H40.0903C43.2263 218.432 51.5703 218.578 54.8127 218.628L54.8407 218.667Z" fill="#EBEBEB"/>
<path d="M113.161 67.2833L112.141 74.5633C112.057 75.2916 111.826 75.9953 111.462 76.6315C111.097 77.2678 110.608 77.8235 110.022 78.2649C109.437 78.7063 108.768 79.0243 108.056 79.1995C107.344 79.3747 106.604 79.4035 105.881 79.2841C104.428 79.0758 103.116 78.3011 102.233 77.129C101.349 75.957 100.966 74.483 101.165 73.0289L102.795 61.3809C102.795 61.2689 102.924 61.2857 102.941 61.1737C102.845 61.0449 102.845 61.0449 102.857 60.9329C103.099 59.4962 103.883 58.2067 105.046 57.329C106.209 56.4512 107.663 56.0516 109.112 56.2121C110.769 56.4647 112.46 56.3858 114.087 55.98C115.713 55.5742 117.243 54.8495 118.588 53.848C119.932 52.8465 121.064 51.588 121.919 50.1456C122.773 48.7032 123.333 47.1056 123.565 45.4453C123.798 43.785 123.698 42.095 123.273 40.4735C122.847 38.8519 122.104 37.331 121.086 35.9989C120.068 34.6667 118.796 33.5499 117.343 32.7131C115.89 31.8763 114.286 31.3362 112.623 31.1241C110.448 30.8126 108.23 31.0793 106.191 31.8972C104.152 32.715 102.365 34.0554 101.009 35.7833C100.554 36.3665 99.9887 36.8539 99.3449 37.2175C98.7012 37.581 97.9918 37.8135 97.2577 37.9015C96.5236 37.9895 95.7794 37.9312 95.0679 37.7301C94.3565 37.529 93.6919 37.189 93.1125 36.7297C92.5444 36.2772 92.0714 35.7168 91.7208 35.0807C91.3702 34.4445 91.149 33.7453 91.0699 33.0233C90.9907 32.3013 91.0553 31.5708 91.2598 30.8739C91.4643 30.1769 91.8047 29.5273 92.2613 28.9625C94.6892 25.863 97.8491 23.4151 101.457 21.839C105.065 20.2629 109.008 19.6078 112.932 19.9326C116.856 20.2574 120.637 21.552 123.937 23.7C127.237 25.848 129.951 28.7821 131.836 32.2387C133.721 35.6953 134.718 39.566 134.737 43.5032C134.756 47.4404 133.797 51.3207 131.945 54.7953C130.094 58.2699 127.408 61.2301 124.129 63.4099C120.85 65.5896 117.081 66.9206 113.161 67.2833ZM109.728 91.8057L109.442 93.8217C109.361 94.5513 109.132 95.2566 108.769 95.8948C108.406 96.533 107.917 97.0907 107.332 97.534C106.747 97.9772 106.078 98.2966 105.365 98.4729C104.652 98.6492 103.911 98.6786 103.187 98.5593C101.733 98.3538 100.42 97.5798 99.5355 96.407C98.6515 95.2343 98.2689 93.7587 98.4717 92.3041L98.7517 90.2881C98.971 88.8404 99.7485 87.5362 100.918 86.6548C102.087 85.7735 103.555 85.3851 105.007 85.5729C105.729 85.6656 106.425 85.9013 107.055 86.2662C107.685 86.6312 108.236 87.1181 108.676 87.6984C109.115 88.2787 109.435 88.9409 109.615 89.6461C109.796 90.3514 109.834 91.0855 109.728 91.8057Z" fill="#EBEBEB"/>
<path d="M58.9079 102.137L60.5375 108.079C60.715 108.666 60.7712 109.283 60.7027 109.893C60.6343 110.503 60.4426 111.092 60.1393 111.625C59.8361 112.158 59.4276 112.624 58.9386 112.995C58.4497 113.365 57.8905 113.632 57.2951 113.78C56.11 114.105 54.8444 113.946 53.7758 113.34C52.7071 112.733 51.9227 111.727 51.5943 110.543L48.9791 101.023C48.9791 100.939 49.0519 100.911 49.0239 100.816C48.9063 100.754 48.9063 100.754 48.8783 100.659C48.5877 99.4745 48.7617 98.2235 49.3648 97.1633C49.9678 96.103 50.954 95.314 52.1207 94.9583C53.5159 94.6376 54.8318 94.0377 55.9889 93.1949C57.1461 92.3521 58.1207 91.2837 58.854 90.0542C59.5872 88.8247 60.064 87.4594 60.2556 86.0407C60.4471 84.622 60.3495 83.1792 59.9686 81.7992C59.5877 80.4193 58.9313 79.1307 58.0391 78.0111C57.1469 76.8916 56.0372 75.9643 54.7771 75.285C53.5169 74.6058 52.1323 74.1886 50.7066 74.0588C49.2809 73.929 47.8437 74.0891 46.4815 74.5295C44.7072 75.01 43.091 75.95 41.7961 77.2548C40.5012 78.5595 39.5734 80.1828 39.1063 81.9607C38.9534 82.5619 38.6824 83.1267 38.309 83.6221C37.9357 84.1176 37.4675 84.5338 36.9317 84.8465C36.3959 85.1592 35.8033 85.3622 35.1883 85.4436C34.5733 85.525 33.9482 85.4832 33.3495 85.3207C32.7629 85.1607 32.2137 84.8864 31.7335 84.5134C31.2532 84.1405 30.8514 83.6763 30.5511 83.1476C30.2509 82.6189 30.0581 82.036 29.9838 81.4325C29.9095 80.8291 29.9552 80.2168 30.1183 79.6311C30.9551 76.4428 32.5709 73.5124 34.8204 71.1031C37.07 68.6938 39.8829 66.8812 43.0063 65.828C46.1298 64.7749 49.466 64.5142 52.7151 65.0695C55.9643 65.6248 59.0245 66.9786 61.621 69.0093C64.2174 71.04 66.2687 73.6839 67.5905 76.7035C68.9122 79.7231 69.4631 83.0238 69.1935 86.309C68.924 89.5942 67.8425 92.761 66.0462 95.5248C64.2499 98.2886 61.7951 100.563 58.9023 102.143L58.9079 102.137ZM64.4071 122.129L64.8607 123.77C65.038 124.359 65.0936 124.978 65.0241 125.588C64.9547 126.199 64.7616 126.79 64.4567 127.323C64.1518 127.857 63.7414 128.324 63.2506 128.694C62.7597 129.064 62.1986 129.33 61.6015 129.477C60.4157 129.798 59.1509 129.638 58.0829 129.03C57.0149 128.423 56.2305 127.418 55.9007 126.234L55.4415 124.588C55.135 123.403 55.3021 122.145 55.9074 121.08C56.5126 120.016 57.5085 119.229 58.6839 118.887C59.2723 118.716 59.8889 118.665 60.4975 118.736C61.106 118.807 61.6941 118.999 62.2271 119.301C62.7601 119.604 63.2271 120.01 63.6005 120.495C63.974 120.981 64.2464 121.537 64.4015 122.129H64.4071Z" fill="#EBEBEB"/>
<path d="M87.876 128.85L87.6352 133.408C87.6193 133.863 87.5114 134.309 87.3179 134.721C87.1245 135.132 86.8495 135.5 86.5098 135.802C86.17 136.104 85.7724 136.334 85.3412 136.478C84.9099 136.622 84.4539 136.677 84.0008 136.64C83.0914 136.59 82.2388 136.183 81.6298 135.505C81.0209 134.828 80.7055 133.937 80.7528 133.028L81.1336 125.748C81.1336 125.68 81.212 125.686 81.2176 125.613C81.2232 125.54 81.1448 125.54 81.1504 125.468C81.2231 124.567 81.6378 123.728 82.3094 123.123C82.981 122.518 83.8587 122.193 84.7624 122.214C85.792 122.269 86.8222 122.12 87.7944 121.777C88.7666 121.434 89.6616 120.902 90.4283 120.213C91.1951 119.524 91.8185 118.69 92.2632 117.76C92.7078 116.83 92.9648 115.821 93.0196 114.791C93.0744 113.762 92.9259 112.731 92.5825 111.759C92.2391 110.787 91.7076 109.892 91.0183 109.125C90.3291 108.359 89.4955 107.735 88.5653 107.291C87.6351 106.846 86.6264 106.589 85.5968 106.534C84.2357 106.458 82.8785 106.741 81.6616 107.355C80.4446 107.97 79.4108 108.894 78.664 110.034C78.4156 110.421 78.0927 110.754 77.7141 111.015C77.3355 111.275 76.9088 111.458 76.4589 111.551C76.0091 111.645 75.545 111.648 75.0938 111.561C74.6427 111.474 74.2134 111.297 73.8312 111.042C73.4561 110.793 73.134 110.472 72.8835 110.097C72.633 109.723 72.4591 109.303 72.3716 108.861C72.2842 108.419 72.285 107.964 72.374 107.522C72.4631 107.081 72.6386 106.661 72.8904 106.288C74.2254 104.24 76.0481 102.557 78.1949 101.388C80.3417 100.22 82.7451 99.6033 85.1892 99.5939C87.6334 99.5844 90.0415 100.182 92.1973 101.334C94.353 102.486 96.1887 104.155 97.5395 106.192C98.8902 108.229 99.7136 110.57 99.9357 113.004C100.158 115.438 99.7714 117.889 98.8116 120.137C97.8517 122.385 96.3484 124.359 94.4366 125.882C92.5249 127.404 90.2647 128.428 87.8592 128.861L87.876 128.85ZM87.064 144.2L86.9968 145.46C86.9838 145.914 86.8785 146.362 86.6874 146.775C86.4963 147.188 86.2233 147.557 85.8851 147.862C85.5468 148.166 85.1503 148.398 84.7195 148.545C84.2888 148.691 83.8328 148.748 83.3792 148.713C82.4688 148.664 81.6152 148.255 81.0062 147.577C80.3971 146.899 80.0824 146.006 80.1312 145.096L80.1984 143.836C80.259 142.93 80.67 142.084 81.3444 141.476C82.0188 140.869 82.9034 140.548 83.8104 140.582C84.2634 140.601 84.7081 140.709 85.1184 140.902C85.5287 141.095 85.8962 141.368 86.1994 141.705C86.5026 142.042 86.7352 142.437 86.8837 142.865C87.0322 143.294 87.0935 143.747 87.064 144.2Z" fill="#DBDBDB"/>
<path d="M222.842 46.0195H178.031V90.8307H222.842V46.0195Z" fill="white"/>
<path d="M175.695 43.6797V93.1501H225.171V43.6797H175.695ZM222.842 90.8205H178.042V46.0205H222.842V90.8205Z" fill="#DBDBDB"/>
<path d="M219.611 82.1459V66.6562H184.684V82.1459H219.611Z" fill="#EBEBEB"/>
<path d="M209.379 77.3742V59.4766H191.481V77.3742H209.379Z" fill="#C7C7C7"/>
<path d="M227.081 43.6836H225.172V93.1596H227.081V43.6836Z" fill="#C7C7C7"/>
<path d="M245.997 111.871H201.186V156.682H245.997V111.871Z" fill="white"/>
<path d="M220.591 119.039H208.893V152.841H220.591V119.039Z" fill="#C7C7C7"/>
<path d="M198.857 109.535V159.039H248.328V109.535H198.857ZM245.998 156.682H201.198V111.882H245.998V156.682Z" fill="#DBDBDB"/>
<path d="M232.54 125.328H214.648V143.22H232.54V125.328Z" fill="#EBEBEB"/>
<path d="M250.242 109.535H248.332V159.011H250.242V109.535Z" fill="#C7C7C7"/>
<path d="M26.5664 245.135L54.9248 245.001L83.2832 244.951L140 244.855L196.717 244.951L225.075 245.001L253.434 245.135L225.075 245.27L196.717 245.32L140 245.415L83.2832 245.32L54.9248 245.27L26.5664 245.135Z" fill="#263238"/>
<path d="M161.157 136.207C189.414 165.736 224.599 227.487 217.683 239.807C209.977 253.51 170.643 212.126 170.817 209.746C170.957 207.948 157.461 170.546 147.201 143.369C136.942 116.192 154.168 128.904 161.157 136.207Z" fill="#D3766A"/>
<path d="M170.548 209.757C169.383 205.764 150.999 156.462 145.763 140.877C140.527 125.292 145.667 120.571 161.073 135.008C176.479 149.445 210 197.387 217.426 222.676C224.583 247.036 212.1 246.846 195.799 235.422C182.448 226.064 170.548 209.757 170.548 209.757Z" fill="#FDC500"/>
<path d="M144.524 128.623C144.418 128.584 144.311 128.545 144.199 128.494C144.243 128.356 144.301 128.223 144.373 128.097C144.586 128.181 144.804 128.259 145.022 128.332C146.786 128.892 148.942 129.077 150.494 127.862C150.669 127.724 150.83 127.571 150.975 127.402L151.401 127.615C149.822 129.508 146.786 129.452 144.524 128.623ZM156.704 131.199L156.273 130.858C156.026 130.977 155.78 131.089 155.534 131.194C152.006 132.745 147.649 134.307 144.597 136.928L144.731 137.488C146.353 136.089 148.172 134.938 150.13 134.072C152.286 133.03 154.559 132.207 156.704 131.199ZM160.624 141.705C161.664 140.375 162.818 139.138 164.074 138.009C163.962 137.886 163.844 137.768 163.732 137.65C160.512 140.45 158.205 144.729 155.142 147.445C153.457 149.007 151.433 150.158 149.228 150.805C149.278 150.95 149.329 151.096 149.385 151.242C150.912 150.805 152.354 150.11 153.646 149.186C156.542 147.221 158.479 144.393 160.63 141.682L160.624 141.705ZM176.534 152.793C171.874 159.115 163.424 160.633 156.01 161.753C155.114 161.887 154.218 162.033 153.322 162.212C153.383 162.374 153.439 162.542 153.501 162.71C156.631 162.072 159.851 161.803 162.965 161.092C168.156 159.905 173.605 157.446 176.858 153.213L176.534 152.793ZM182.878 207.298C179.675 206.497 176.763 207.561 173.946 209.05C173.022 209.543 172.087 210.064 171.146 210.551L171.466 210.966C175.262 209.011 178.919 206.575 183.293 207.998C184.721 208.462 186.093 209.375 186.653 210.798C187.381 212.651 186.563 214.583 185.27 215.955C183.461 217.865 180.991 218.626 178.6 219.528L179.014 219.993L181.081 219.186C183.931 218.066 187.28 215.983 187.487 212.556C187.638 209.795 185.387 207.919 182.884 207.298H182.878ZM171.734 173.138C173.974 169.951 176.074 166.642 178.331 163.45C179.306 162.066 180.33 160.65 181.45 159.322L181.131 158.891C180.532 159.597 179.966 160.319 179.418 161.047C177.144 164.066 175.106 167.252 172.989 170.377C169.797 175.086 166.05 180.39 161.134 183.654C161.195 183.828 161.257 183.996 161.324 184.17C165.535 181.375 168.923 177.091 171.74 173.132L171.734 173.138ZM172.854 181.538C172.681 182.905 172.88 184.294 173.433 185.557C173.985 186.82 174.869 187.91 175.99 188.711C178.6 190.503 181.518 189.4 183.371 187.104C184.491 185.749 185.258 184.192 186.238 182.758C187.372 181.072 188.778 179.586 190.399 178.362C191.352 177.657 192.4 177.091 193.513 176.682L193.194 176.195C192.5 176.459 191.833 176.787 191.2 177.175C188.036 179.102 186.11 182.075 184.172 185.127C183.175 186.684 181.977 188.342 180.134 188.93C179.348 189.149 178.518 189.154 177.729 188.942C176.941 188.73 176.224 188.31 175.654 187.726C172.966 185.217 172.793 181.358 174.82 178.407C176.959 175.282 180.661 173.602 184.161 172.482C185.953 171.922 187.801 171.441 189.61 170.864L189.302 170.41C185.662 171.581 181.781 172.398 178.662 174.246C175.979 175.842 173.375 178.329 172.882 181.549L172.854 181.538ZM202.534 191.231C201.021 193.058 199.225 194.631 197.214 195.89C193.934 198.069 190.161 199.393 186.238 199.743C182.358 200.094 178.491 198.937 175.442 196.512C172.782 194.373 170.402 191.718 166.874 191.136C165.874 190.97 164.855 190.949 163.85 191.074C163.922 191.27 163.99 191.461 164.062 191.634C165.447 191.481 166.849 191.626 168.173 192.06C170.032 192.682 171.566 193.953 173.022 195.213C174.376 196.489 175.863 197.616 177.458 198.573C179.027 199.413 180.734 199.965 182.498 200.202C186.018 200.631 189.588 200.149 192.869 198.802C196.414 197.402 200.283 194.994 202.859 191.802L202.534 191.231ZM202.562 239.61C203.083 239.89 203.598 240.17 204.102 240.394C205.83 240.786 207.491 241.431 209.03 242.309C209.68 242.491 210.34 242.633 211.007 242.734C209.304 241.668 207.478 240.811 205.57 240.181C204.591 239.891 203.585 239.703 202.568 239.621L202.562 239.61ZM205.362 196.193L205.116 195.756C200.39 196.77 195.977 200.152 194.218 204.458C192.83 207.858 193.658 211.178 195.126 214.404C196.048 216.208 196.858 218.067 197.55 219.97C198.102 221.721 198.41 223.54 198.463 225.374C198.586 228.914 197.684 232.415 195.865 235.454L196.302 235.757C197.703 233.455 198.579 230.871 198.866 228.191C199.242 224.796 198.759 221.361 197.461 218.201C195.932 214.482 193.334 210.82 194.101 206.598C195.086 201.546 200.087 197.307 205.385 196.204L205.362 196.193ZM217.716 223.762C216.187 224.253 214.619 224.615 213.029 224.842C211.125 225.078 208.829 224.994 207.709 223.162C206.902 221.841 207.048 220.144 207.485 218.722C208.442 215.619 210.951 213.838 213.32 211.873C213.258 211.716 213.186 211.559 213.113 211.402C211.92 212.382 210.666 213.306 209.59 214.337C207.664 216.185 206.23 219.119 206.684 221.841C207.244 225.257 210.716 225.733 213.6 225.285C215.034 225.02 216.449 224.657 217.834 224.198C217.839 224.075 217.783 223.924 217.738 223.773L217.716 223.762Z" fill="white"/>
<path opacity="0.1" d="M195.799 235.421C182.449 226.069 170.549 209.757 170.549 209.757C169.39 205.764 150.994 156.461 145.763 140.877C143.831 135.114 143.31 130.841 144.206 128.473L195.799 235.421Z" fill="black"/>
<path d="M169.641 245.037H60.5137C60.5137 245.037 82.8353 158.293 119.711 122.397C124.656 117.581 143.914 118.393 148.355 125.645C164.993 152.844 169.943 244.651 169.641 245.037Z" fill="#FDC500"/>
<path d="M155.764 196.439C151.475 202.532 156.139 210.831 162.977 212.265C164.381 212.551 165.834 212.503 167.216 212.125L167.267 212.685C165.99 213.033 164.655 213.113 163.347 212.92C157.265 211.973 152.147 205.494 153.776 199.323C155.031 194.513 159.936 191.164 164.797 191.013C164.797 191.214 164.847 191.41 164.875 191.612C164.457 191.617 164.04 191.651 163.627 191.713C162.066 191.933 160.566 192.466 159.215 193.277C157.865 194.089 156.691 195.164 155.764 196.439ZM65.201 229.602L65.033 229.462C64.9714 229.647 64.9154 229.832 64.8594 230.022C69.121 233.545 70.0002 239.889 71.3666 245.047H71.9266C70.4706 239.643 69.6754 233.41 65.201 229.602ZM83.4402 198.242C86.7722 198.029 90.1602 196.915 92.1874 194.121C93.7554 191.965 94.573 188.929 93.4138 186.409C92.0698 183.492 88.7882 182.719 85.8538 182.792C84.5826 182.82 83.3282 182.943 82.0794 183.083L81.8442 183.643C83.8798 183.307 85.9505 183.237 88.0042 183.436C89.8074 183.682 91.5826 184.472 92.5906 186.051C92.9908 186.736 93.2514 187.493 93.3571 188.28C93.4628 189.066 93.4117 189.865 93.2066 190.632C92.3554 194.3 89.365 196.613 85.8034 197.385C82.6506 198.069 79.4418 197.699 76.2834 197.245L76.0818 197.755C78.5126 198.159 80.9773 198.322 83.4402 198.242ZM88.1386 239.061C84.9578 238.501 79.8506 241.536 78.137 237.381C76.849 234.267 78.697 230.789 80.6682 228.449C83.0706 225.609 86.173 223.487 89.2362 221.421C94.8922 217.596 108.595 205.886 102.055 200.925C95.9562 196.305 88.1218 209.784 83.5354 214.012C79.481 217.741 73.545 221.118 67.7434 221.034L67.5754 221.533C73.4386 221.633 79.2346 218.296 83.5914 214.684C89.3258 209.935 94.9762 197.587 101.601 201.373C107.1 204.514 96.8466 215.529 91.1682 219.444C88.3066 221.421 85.333 223.274 82.7234 225.604C80.4162 227.653 78.1538 230.185 77.4538 233.276C76.9386 235.561 77.2018 238.495 79.5258 239.693C81.0042 240.461 82.6786 240.169 84.241 239.873C86.2066 239.492 88.049 239.262 89.8746 240.253C90.7858 240.756 91.5841 241.44 92.2199 242.263C92.8557 243.087 93.3154 244.033 93.5706 245.041H94.1698C94.1698 245.041 94.1698 245.041 94.1698 245.013C93.4026 242.174 91.073 239.609 88.1218 239.066L88.1386 239.061ZM128.061 169.94C126.683 169.145 125.105 168.764 123.516 168.843C121.927 168.921 120.394 169.456 119.101 170.382C116.301 172.365 114.582 175.568 113.266 178.659C111.799 182.114 110.466 185.939 107.61 188.498C106.064 189.893 103.628 191.113 101.73 189.618C100.492 188.644 100.05 186.925 99.977 185.407C99.8706 182.159 101.808 179.09 103.746 176.637C105.751 174.089 108.091 171.833 110.113 169.296C111.989 166.944 113.635 164.256 114.078 161.232C114.296 159.737 114.078 158.118 112.851 157.116C111.792 156.365 110.484 156.052 109.2 156.242C106.019 156.55 103.303 158.863 101.388 161.282C100.32 162.653 99.3828 164.121 98.5882 165.667C97.7202 167.319 97.0762 169.083 96.197 170.707C95.1778 172.611 93.425 173.535 91.3082 172.885C89.9161 172.425 88.7087 171.53 87.8642 170.332C87.7858 170.494 87.7074 170.657 87.6346 170.819C89.1914 172.729 91.521 174.218 94.0018 173.412C95.5754 172.897 96.421 171.474 97.0706 170.052C97.821 168.372 98.549 166.731 99.4338 165.141C101.209 161.943 103.679 158.667 107.184 157.25C108.657 156.657 110.544 156.416 112.006 157.183C114.039 158.253 113.781 160.75 113.249 162.637C111.468 168.893 105.583 172.846 102.049 178.049C100.436 180.434 99.0978 183.313 99.4786 186.264C99.8258 188.918 101.719 191.388 104.659 190.744C108.114 189.993 110.365 186.348 111.771 183.402C113.372 180.042 114.447 176.453 116.727 173.473C119.006 170.494 122.506 168.501 126.297 169.794C130.357 171.177 132.681 175.187 132.832 179.314C133.112 186.857 127.792 193.101 122.371 197.654C117.152 202.028 111.255 205.589 106.428 210.433C101.08 215.823 97.6003 222.784 96.4994 230.297C95.8218 234.905 95.8274 240.449 97.6922 245.025H98.3978C97.8457 243.669 97.4366 242.259 97.177 240.819C95.7434 233.125 97.4906 224.792 101.343 218.044C105.056 211.542 110.891 207.09 116.799 202.705C121.996 198.847 127.439 194.826 130.727 189.109C134.243 183.077 135.078 173.854 128.044 169.945L128.061 169.94ZM146.244 205.55C146.185 203.839 145.727 202.166 144.907 200.663C144.088 199.16 142.929 197.869 141.523 196.893C140.25 196.017 138.745 195.538 137.2 195.515C135.655 195.492 134.137 195.927 132.838 196.764C130.144 198.489 128.403 201.541 127.736 204.604C126.767 209.056 127.574 213.625 127.663 218.117C127.812 226.727 125.485 235.2 120.96 242.527C120.428 243.384 119.84 244.207 119.235 245.036H119.997C121.82 242.545 123.339 239.845 124.522 236.994C126.161 233.192 127.274 229.185 127.831 225.083C128.419 220.76 128.145 216.521 127.915 212.203C127.697 208.048 127.831 203.697 130.256 200.146C132.39 197.021 136.119 195.106 139.821 196.663C143.523 198.22 145.6 202.162 145.679 206.082C145.903 214.185 140.079 220.989 136.086 227.513C134.182 230.616 132.474 233.897 131.673 237.47C131.119 239.96 131.035 242.532 131.427 245.053H131.987C131.533 242.192 131.701 239.268 132.479 236.479C134.535 229.199 139.894 223.481 143.315 216.879C145.113 213.362 146.474 209.509 146.227 205.556L146.244 205.55ZM162.512 230.19C160.429 227.704 157.411 226.052 154.112 226.377C151.088 226.673 148.434 228.617 147.784 231.669C147.039 235.197 148.904 238.859 150.836 241.687C151.587 242.807 152.438 243.888 153.25 245.019H153.883C152.359 242.835 150.651 240.763 149.492 238.349C147.812 234.855 147.252 230.061 151.172 227.816C154.482 225.906 158.559 227.015 161.196 229.524C164.052 232.245 165.391 236.132 166.186 239.901C166.539 241.581 166.807 243.261 167.076 245.019H167.608C166.791 239.738 165.995 234.379 162.495 230.207L162.512 230.19ZM128.072 119.512C127.766 119.542 127.464 119.575 127.165 119.613C125.888 121.102 124.415 122.411 122.786 123.505C120.544 125.032 118.06 126.168 115.439 126.865L114.755 127.637C115.389 127.509 116.015 127.346 116.631 127.15C120.736 125.829 125.227 123.169 128.072 119.512ZM128.856 135.041C128.183 133.7 128.01 132.163 128.369 130.706C128.996 127.861 131.27 125.106 134.249 124.63C138.107 124.003 141.154 127.397 144.525 128.623C146.239 129.25 148.389 129.435 150.024 128.668C149.963 128.533 149.895 128.405 149.834 128.281C148.372 129.021 146.547 128.841 145.023 128.332C141.596 127.212 138.863 124.059 135.05 124.104C130.01 124.171 126.146 130.583 128.33 135.102C129.097 136.67 130.57 137.734 131.83 138.854C133.147 139.946 134.201 141.32 134.915 142.875C135.559 144.334 135.899 145.908 135.916 147.502C135.932 149.096 135.624 150.677 135.011 152.149C134.428 153.575 133.448 154.803 132.187 155.689C130.926 156.574 129.438 157.079 127.899 157.144C126.43 157.18 124.972 156.881 123.637 156.268C122.302 155.656 121.124 154.747 120.193 153.61C119.3 152.494 118.791 151.119 118.743 149.69C118.692 147.775 119.415 145.916 119.863 144.09C120.574 141.374 120.68 137.813 117.572 136.569C115.08 135.567 112.129 136.816 110.18 138.401C107.576 140.512 106.523 143.844 105.067 146.745C103.511 149.841 101.237 152.781 97.5354 153.117C97.3002 153.117 97.0706 153.151 96.841 153.151C96.7402 153.33 96.6394 153.515 96.533 153.711H96.6786C99.669 153.739 102.167 152.182 103.897 149.791C105.935 146.991 106.809 143.519 108.78 140.663C110.46 138.238 114.061 135.998 117.096 136.956C121.515 138.35 119.297 143.816 118.569 146.873C117.908 149.634 118.216 152.238 120.171 154.4C123.771 158.37 130.57 158.88 134.087 154.568C137.693 150.121 136.92 142.976 132.827 139.106C131.505 137.824 129.769 136.76 128.856 135.041ZM144.945 151.163C147.919 152.283 151.2 150.911 153.653 149.214C154.694 148.486 155.655 147.651 156.52 146.722L156.386 146.241C155.988 146.666 155.574 147.075 155.148 147.456C152.567 149.746 148.635 152.048 145.096 150.704C141.451 149.321 140.678 145.065 141.831 141.744C143.131 137.975 146.698 135.69 150.131 134.077C150.769 133.779 151.413 133.493 152.063 133.221C152.012 133.075 151.951 132.935 151.889 132.789C146.636 135.069 141.137 138.02 140.818 144.314C140.672 147.215 142.095 150.082 144.945 151.163ZM163.52 181.862C161.283 183.842 158.636 185.305 155.77 186.146C151.766 187.266 147.706 186.292 145.163 182.881C144.07 181.352 143.244 179.648 142.722 177.841C142.033 175.601 141.535 173.188 142.162 170.886C143.181 167.022 146.888 164.603 150.495 163.472C153.586 162.497 156.834 162.173 160.015 161.652C159.975 161.473 159.942 161.293 159.908 161.092C158.598 161.327 157.293 161.534 156.022 161.725C152.242 162.285 148.361 163.069 145.281 165.477C143.88 166.507 142.783 167.896 142.104 169.497C141.425 171.099 141.19 172.853 141.423 174.577C141.865 178.037 143.248 181.857 145.729 184.354C148.21 186.852 151.682 187.563 155.064 186.846C158.23 186.101 161.163 184.588 163.604 182.439C163.565 182.265 163.52 182.064 163.52 181.862Z" fill="white"/>
<path d="M216.663 239.172C208.823 247.292 193.177 248.015 148.506 249.655C142.346 249.885 128.99 206.692 135.575 206.11C143.874 205.376 176.237 204.335 178.611 204.553C198.654 206.429 221.972 233.667 216.663 239.172Z" fill="#D3766A"/>
<path d="M149.952 207.152C149.952 207.152 132.351 203.232 122.467 204.044C109.234 205.125 98.2526 211.509 93.8118 214.46C84.5438 220.62 66.3718 241.9 71.619 248.223C76.351 253.924 93.8006 231.21 93.8006 231.21C93.8006 231.21 72.1846 251.432 79.1398 257.25C86.095 263.068 104.855 235.544 104.855 235.544C104.855 235.544 83.1158 256.824 91.2358 261.685C97.3958 265.364 115.769 241.396 115.769 241.396C115.769 241.396 97.2054 259.843 103.354 263.864C110.153 268.344 128.521 247.282 128.521 247.282C145.881 254.954 157.293 251.504 165.111 248.083C167.004 247.254 149.952 207.152 149.952 207.152Z" fill="#D3766A"/>
<path d="M100.828 223.735C98.2012 226.019 95.53 228.315 93.1164 230.824C90.7028 233.333 88.3788 235.926 86.206 238.664C80.886 245.345 78.6012 250.357 78.7748 250.06C82.9132 243.105 91.414 233.988 93.8276 231.479C96.2412 228.971 98.5204 226.35 100.928 223.841C100.99 223.763 100.889 223.684 100.828 223.735Z" fill="#263238"/>
<path d="M110.046 232.284C106.82 235.342 103.505 238.265 100.414 241.468C97.3227 244.671 94.6963 247.953 91.8403 251.347C91.6219 251.604 91.8403 251.638 92.0643 251.386C95.0435 248.11 98.0563 245.31 101.075 242.073C104.093 238.836 106.988 235.471 110.113 232.357C110.175 232.307 110.096 232.239 110.046 232.284Z" fill="#263238"/>
<path d="M119.28 238.199C114.111 242.623 109.76 247.999 105.627 253.369C105.42 253.638 105.7 253.649 105.924 253.369C110.37 248.239 113.814 244.179 119.431 238.355C119.521 238.288 119.386 238.103 119.28 238.199Z" fill="#263238"/>
<path d="M140.729 204.902L172.01 253.174C172.01 253.174 210.65 249.612 217.852 240.658C222.601 234.766 198.952 204.857 176.647 204.465L140.729 204.902Z" fill="#FDC500"/>
<path d="M146.227 205.555C146.334 207.749 146.036 209.943 145.348 212.029L144.973 211.469C145.481 209.722 145.719 207.907 145.678 206.087C145.667 205.677 145.633 205.268 145.577 204.861H146.137C146.182 205.085 146.212 205.316 146.227 205.555ZM154.627 226.359L154.963 226.875C157.287 226.97 159.494 227.919 161.162 229.54C164.018 232.262 165.357 236.148 166.152 239.917C166.549 241.782 166.835 243.714 167.132 245.657L167.826 246.732C166.925 240.903 166.365 234.827 162.489 230.207C160.529 227.86 157.729 226.242 154.633 226.359H154.627ZM197.478 218.228C196.358 215.546 194.717 212.897 194.169 210.041L193.648 209.733C193.922 211.357 194.425 212.933 195.143 214.415C196.065 216.218 196.875 218.077 197.568 219.981C198.12 221.732 198.427 223.55 198.481 225.385C198.705 232.76 194.667 239.99 187.309 242.062C180.689 243.927 173.18 241.065 171.326 234.048C170.507 231.061 170.841 227.875 172.261 225.122C174.137 221.644 177.609 220.575 181.07 219.203C183.921 218.083 187.269 215.999 187.477 212.572C187.639 209.772 185.388 207.913 182.885 207.291C179.681 206.491 176.769 207.555 173.953 209.044C170.531 210.853 167.02 213.11 162.977 212.259C161.059 211.82 159.285 210.897 157.824 209.579C156.364 208.26 155.265 206.59 154.633 204.727H153.955C154.643 206.806 155.876 208.663 157.528 210.102C159.179 211.542 161.187 212.511 163.341 212.908C170.621 214.028 175.969 205.628 183.288 207.986C184.716 208.451 186.088 209.363 186.648 210.786C187.376 212.639 186.558 214.571 185.265 215.943C182.431 218.934 177.985 219.102 174.737 221.437C170.128 224.752 169.293 231.489 171.634 236.4C174.395 242.196 181.317 244.167 187.219 242.605C193.9 240.835 198.156 234.899 198.895 228.185C199.263 224.8 198.778 221.377 197.484 218.228H197.478ZM211.792 225.447L211.383 224.943C209.944 224.903 208.533 224.495 207.726 223.184C207.226 222.307 207.029 221.289 207.166 220.289L206.679 219.802C206.573 220.485 206.573 221.18 206.679 221.863C207.149 224.562 209.44 225.43 211.797 225.447H211.792ZM205.576 240.191C202.933 239.407 199.83 239.267 197.277 240.449C194.555 241.703 193.401 244.369 193.777 247.292C193.912 248.157 194.099 249.014 194.337 249.857L194.807 249.767C194.247 247.471 193.782 245.181 195.031 243.092C196.644 240.404 200.239 239.9 203.089 240.231C206.662 240.645 209.625 242.65 212.693 244.358L213.304 244.05C210.761 242.644 208.32 241.003 205.576 240.191Z" fill="white"/>
<path d="M201.672 215.345C190.444 206.194 186.647 204.615 168.974 204.402C168.828 204.402 168.8 204.587 168.946 204.593C188.327 205.466 197.276 212.629 201.543 215.49C201.655 215.558 201.773 215.429 201.672 215.345Z" fill="#263238"/>
<path d="M183.507 247.735C180.354 242.241 176.905 236.921 173.427 231.612C169.95 226.304 166.511 220.972 162.916 215.759C160.883 212.802 158.867 209.84 156.756 206.956C156.7 206.883 156.56 206.956 156.61 207.04C159.758 212.528 163.185 217.864 166.606 223.184C170.028 228.504 173.517 233.824 177.05 239.094C179.05 242.068 181.099 245.008 183.21 247.892C183.339 248.032 183.602 247.892 183.507 247.735Z" fill="#263238"/>
<path opacity="0.1" d="M180.174 204.762L154.414 226.042L140.711 204.902L176.641 204.465C177.061 204.465 177.486 204.493 177.912 204.521L179.922 204.739L180.174 204.762Z" fill="black"/>
<path d="M106.541 152.233C101.954 204.01 109.122 245.254 130.861 248.228C145.298 250.199 141.681 206.418 141.647 205.483C141.535 202.28 139.872 175.562 129.635 146.498C118.373 114.528 108.59 129.099 106.541 152.233Z" fill="#D3766A"/>
<path d="M106.541 152.233C101.954 204.01 109.122 245.254 130.861 248.228C145.298 250.199 147.32 213.278 147.286 212.343C147.169 209.14 139.872 175.562 129.635 146.498C118.373 114.528 108.59 129.099 106.541 152.233Z" fill="#FDC500"/>
<path d="M130.889 150.181C134.053 159.931 136.931 169.781 139.725 179.637C142.385 189.533 145.225 199.417 146.893 209.536C143.102 192.176 135.609 167.592 130.889 150.176V150.181Z" fill="#263238"/>
<path d="M133.566 152.602C134.283 155.402 134.821 158.386 134.16 161.22C134.244 158.381 133.718 155.435 133.566 152.602Z" fill="#263238"/>
<path d="M108.83 140.678C108.578 141.042 108.348 141.412 108.124 141.798C108.24 141.279 108.363 140.77 108.494 140.269C108.991 139.581 109.574 138.96 110.23 138.421C112.179 136.836 115.13 135.588 117.622 136.59C120.73 137.833 120.624 141.395 119.912 144.111C119.436 145.936 118.714 147.796 118.792 149.711C118.841 151.14 119.349 152.515 120.243 153.631C121.173 154.768 122.351 155.677 123.687 156.289C125.022 156.902 126.48 157.201 127.948 157.164C129.672 157.119 131.33 156.491 132.652 155.384C132.714 155.557 132.77 155.731 132.826 155.91C129.124 158.766 123.435 157.948 120.248 154.437C118.294 152.276 118.008 149.672 118.647 146.911C119.375 143.853 121.592 138.388 117.174 136.993C114.111 136.013 110.504 138.253 108.83 140.678ZM114.083 161.247C114.301 159.752 114.083 158.133 112.856 157.131C111.798 156.373 110.488 156.054 109.2 156.24C108.119 156.352 107.071 156.674 106.114 157.187C106.114 157.383 106.08 157.579 106.069 157.775C106.43 157.572 106.804 157.395 107.189 157.243C108.662 156.649 110.549 156.409 112.011 157.176C114.044 158.245 113.786 160.743 113.254 162.63C111.949 167.211 108.444 170.56 105.285 174.065C105.285 174.317 105.285 174.569 105.285 174.816C106.892 172.973 108.6 171.22 110.124 169.305C112 166.959 113.64 164.276 114.083 161.247ZM130.765 189.118C134.243 183.076 135.077 173.852 128.044 169.944C126.665 169.149 125.087 168.768 123.498 168.847C121.91 168.925 120.377 169.46 119.084 170.386C116.284 172.369 114.564 175.572 113.248 178.663C111.781 182.118 110.448 185.943 107.592 188.502C106.933 189.106 106.176 189.593 105.352 189.941C105.352 190.143 105.352 190.339 105.38 190.535C108.432 189.471 110.465 186.133 111.77 183.4C113.372 180.04 114.447 176.451 116.726 173.472C119.005 170.492 122.505 168.499 126.296 169.793C130.356 171.176 132.68 175.185 132.832 179.313C133.112 186.856 127.792 193.1 122.371 197.653C117.404 201.813 111.826 205.24 107.139 209.737C107.178 210 107.217 210.264 107.262 210.521C110.251 207.692 113.432 205.073 116.782 202.681C122.035 198.856 127.472 194.836 130.765 189.118ZM143.326 216.838C145.006 213.618 146.277 210.057 146.255 206.4C146.255 206.114 146.255 205.84 146.227 205.554C146.136 204.024 145.756 202.524 145.107 201.136C144.32 199.415 143.069 197.947 141.495 196.896C140.221 196.021 138.717 195.542 137.171 195.519C135.626 195.496 134.108 195.931 132.809 196.768C130.116 198.492 128.374 201.544 127.708 204.608C126.739 209.06 127.545 213.629 127.635 218.12C127.791 226.727 125.474 235.197 120.96 242.525C120.836 242.727 120.708 242.923 120.579 243.124C120.73 243.27 120.887 243.41 121.044 243.55C122.397 241.473 123.561 239.278 124.521 236.993C126.16 233.191 127.273 229.184 127.831 225.081C128.419 220.758 128.144 216.519 127.915 212.201C127.696 208.046 127.831 203.695 130.256 200.144C132.389 197.02 136.119 195.104 139.82 196.661C143.522 198.218 145.6 202.16 145.678 206.08C145.902 214.184 140.078 220.988 136.085 227.512C134.181 230.614 132.473 233.896 131.672 237.468C130.922 240.857 131.039 244.38 132.014 247.711C132.07 247.912 132.137 248.114 132.199 248.316C132.389 248.316 132.58 248.316 132.759 248.277C131.51 244.456 131.414 240.352 132.484 236.477C134.545 229.175 139.904 223.44 143.326 216.838Z" fill="white"/>
<path d="M105.554 159.333C105.493 171.972 105.817 184.628 106.865 197.217C108.192 212.97 111.905 246.178 132.065 247.746C135.223 247.936 138.135 247.32 140.689 245.344C144.513 242.605 147.711 239.083 150.769 235.521C156.856 228.331 162.377 220.351 167.496 212.595L166.269 211.346L167.541 212.55C165.928 215.283 164.22 217.954 162.501 220.608C157.377 228.252 145.555 245.808 136.869 248.323C126.229 250.68 118.233 243.372 113.909 234.356C104.389 214.236 104.949 181.616 105.537 159.316L105.554 159.333Z" fill="#263238"/>
<path d="M104.512 162.465C104.781 164.862 105.173 167.174 105.431 169.571C104.563 167.309 104.249 164.873 104.512 162.465Z" fill="#263238"/>
<path d="M142.51 150.081C142.51 150.081 123.879 133.034 112.203 133.841L102.576 142.969C102.576 142.969 99.3561 144.145 98.2753 142.112C95.6153 137.072 94.7081 124.752 105.057 116.397C114.538 108.73 134.547 109.565 147.947 112.622C160.827 115.557 168.107 122.831 164.462 131.281C160.816 139.732 142.51 150.081 142.51 150.081Z" fill="#FDC500"/>
<path opacity="0.1" d="M143.656 146.129C143.656 146.129 157.936 135.192 159.241 128.943C160.546 122.693 147.946 117.183 139.859 115.139C127.343 111.963 118.926 113.044 112.201 119.893C105.475 126.742 143.656 146.129 143.656 146.129Z" fill="black"/>
<path d="M145.717 144.047C139.042 144.887 128.917 133.737 125.383 125.197C125.143 124.637 126.615 118.875 128.077 111.819C128.945 107.535 129.813 102.747 130.289 98.3173C130.384 97.4045 157.343 108.044 157.343 108.044C157.343 108.044 153.619 117.038 152.835 124.766C152.781 125.377 152.781 125.992 152.835 126.603C152.835 126.687 152.835 126.793 152.835 126.911C153.031 130.422 152.168 143.229 145.717 144.047Z" fill="#D3766A"/>
<path d="M149.974 126.746C150.922 126.883 151.879 126.936 152.836 126.903C152.836 126.785 152.836 126.684 152.836 126.595C152.777 125.984 152.777 125.369 152.836 124.758C153.615 117.041 157.316 108.047 157.316 108.047C157.316 108.047 135.431 99.4066 130.996 98.3594C131.366 103.567 133.628 124.629 149.974 126.746Z" fill="#263238"/>
<path d="M121.452 76.0225C120.752 86.3545 132.327 113.044 140.638 117.664C152.683 124.384 169.198 121.433 174.047 107.696C178.768 94.3737 163.066 59.8609 154.083 55.9969C140.862 50.3017 122.488 60.7569 121.452 76.0225Z" fill="#D3766A"/>
<path d="M152.588 87.1675C152.543 87.1059 152.482 87.3131 152.515 87.3859C153.344 89.1667 153.994 91.3395 152.622 92.6331C152.577 92.6779 152.622 92.7619 152.678 92.7283C154.559 91.5971 153.658 88.7187 152.588 87.1675Z" fill="#263238"/>
<path d="M150.174 85.9744C147.184 86.9992 149.441 92.9072 152.213 91.9608C154.985 91.0144 152.683 85.1232 150.174 85.9744Z" fill="#263238"/>
<path d="M163.721 82.6295C163.721 82.5511 163.894 82.6295 163.922 82.7359C164.561 84.5895 165.602 86.5999 167.501 86.5775C167.557 86.5775 167.585 86.6671 167.501 86.6839C165.395 87.1711 164.029 84.4831 163.721 82.6295Z" fill="#263238"/>
<path d="M164.64 80.0803C167.496 78.7307 169.988 84.5603 167.339 85.7923C164.69 87.0243 162.226 81.2003 164.64 80.0803Z" fill="#263238"/>
<path d="M147.633 86.2086C148.449 85.9193 149.249 85.5866 150.03 85.2118C150.948 84.8198 151.71 84.6014 152.27 83.7278C152.403 83.4644 152.445 83.1643 152.39 82.8744C152.334 82.5845 152.183 82.3214 151.962 82.1262C150.971 81.3366 149.722 81.5382 148.602 81.9694C147.458 82.3551 146.5 83.1539 145.914 84.2094C145.304 85.3182 146.513 86.5558 147.633 86.2086Z" fill="#263238"/>
<path d="M164.775 75.1925C163.92 75.334 163.058 75.4312 162.193 75.4837C161.202 75.5845 160.418 75.7637 159.505 75.2765C159.261 75.1105 159.078 74.8686 158.985 74.5882C158.891 74.3078 158.893 74.0045 158.99 73.7253C159.483 72.5549 160.67 72.1293 161.851 71.9613C163.046 71.75 164.276 71.9916 165.301 72.6389C166.376 73.2885 165.917 74.9573 164.775 75.1925Z" fill="#263238"/>
<path d="M157.304 104.161C157.903 104.425 158.569 104.845 159.252 104.649C159.928 104.374 160.539 103.96 161.044 103.433C161.054 103.421 161.068 103.412 161.083 103.408C161.099 103.404 161.115 103.406 161.129 103.414C161.144 103.421 161.155 103.434 161.161 103.448C161.167 103.463 161.167 103.48 161.162 103.495C161.037 103.955 160.791 104.373 160.449 104.705C160.107 105.037 159.682 105.271 159.219 105.382C158.334 105.55 157.651 104.99 157.158 104.313C157.091 104.206 157.214 104.111 157.304 104.161Z" fill="#263238"/>
<path d="M158.434 101.267C160.394 99.4465 163.474 98.5841 165.474 98.0857C165.67 97.9737 165.703 97.4809 165.658 97.2681L164.04 93.4489C164.65 93.5049 167.697 93.6617 167.372 92.9505C164.673 87.0705 161.671 80.5297 157.746 75.2433C157.722 75.2018 157.683 75.1713 157.636 75.1587C157.59 75.1461 157.541 75.1524 157.499 75.1761C157.458 75.1999 157.427 75.2392 157.415 75.2854C157.402 75.3316 157.408 75.3809 157.432 75.4225C159.801 81.1737 163.166 86.4769 165.642 92.2225C164.69 92.2225 163.116 92.1721 162.394 92.4745C162.214 92.6033 164.314 96.4281 164.488 97.0777C164.488 97.0777 160.366 97.4081 158.098 100.499C157.505 101.283 157.494 102.135 158.434 101.267Z" fill="#263238"/>
<path d="M127.405 101.362C131.918 100.948 133.212 93.5555 133.29 90.6099C133.369 87.6643 129.236 76.7051 129.774 72.1299C130.311 67.5547 134.55 64.5531 138.286 64.2899C142.021 64.0267 148.041 66.7763 150.432 65.6115C152.823 64.4467 151.384 58.8467 153.109 58.1915C156.906 56.7523 162.069 64.5755 164.342 68.4787C164.342 68.4787 159.442 49.4387 139.294 55.0387C120.92 60.0787 119.85 74.5435 120.338 80.4795C121.262 91.7971 127.405 101.362 127.405 101.362Z" fill="#263238"/>
<path d="M154.382 99.2501C152.883 99.6819 151.293 99.6843 149.793 99.2572C148.293 98.8301 146.943 97.9906 145.897 96.8342C144.85 95.6778 144.149 94.2508 143.873 92.7157C143.598 91.1806 143.758 89.599 144.337 88.1507C144.916 86.7024 145.89 85.4456 147.147 84.5233C148.405 83.601 149.896 83.0502 151.452 82.9335C153.007 82.8168 154.564 83.139 155.945 83.8634C157.326 84.5877 158.476 85.6852 159.265 87.0309C160.379 88.9387 160.691 91.2102 160.132 93.3476C159.574 95.4849 158.19 97.3136 156.286 98.4325C155.687 98.7821 155.047 99.0567 154.382 99.2501ZM150.081 84.3037C149.504 84.4689 148.95 84.708 148.434 85.0149C146.857 85.9447 145.694 87.4406 145.181 89.198C144.668 90.9554 144.845 92.8423 145.674 94.4743C146.504 96.1063 147.924 97.3608 149.646 97.9824C151.368 98.604 153.262 98.5458 154.943 97.8198C156.623 97.0939 157.964 95.7546 158.692 94.0748C159.42 92.395 159.48 90.5009 158.86 88.7782C158.241 87.0555 156.988 85.6338 155.357 84.8025C153.725 83.9712 151.839 83.7928 150.081 84.3037Z" fill="#EBEBEB"/>
<path d="M171.97 91.7535C168.907 92.6383 165.25 90.3031 163.57 86.2935C162.731 84.3915 162.509 82.2742 162.937 80.2399C163.096 79.3664 163.463 78.544 164.007 77.8422C164.551 77.1405 165.256 76.5799 166.062 76.2079C167.63 75.5471 169.422 75.7655 171.13 76.8015C172.88 77.9212 174.237 79.5599 175.011 81.4887C176.786 85.7279 175.666 90.2527 172.513 91.5687C172.337 91.6432 172.155 91.7049 171.97 91.7535ZM166.879 77.0983C166.743 77.1374 166.608 77.1841 166.476 77.2383C165.833 77.5427 165.272 77.998 164.842 78.5654C164.412 79.1328 164.126 79.7956 164.007 80.4975C163.632 82.3005 163.827 84.1756 164.567 85.8623C166.112 89.5303 169.461 91.6415 172.054 90.5495C174.647 89.4575 175.492 85.5935 173.952 81.9199C173.272 80.2078 172.074 78.7511 170.525 77.7535C169.996 77.3968 169.399 77.1543 168.771 77.0415C168.144 76.9286 167.499 76.948 166.879 77.0983Z" fill="#EBEBEB"/>
<path d="M159.376 88.028L158.385 87.5184C159.141 86.0512 161.286 83.5984 163.985 84.8248L163.531 85.8384C161.112 84.7408 159.449 87.9216 159.376 88.028Z" fill="#EBEBEB"/>
<path d="M126.001 104.373L124.881 104.283C124.92 103.768 125.346 99.1873 127.485 97.8545C129.484 96.6113 143.792 92.1201 144.397 91.9297L144.733 92.9937C140.628 94.2761 129.613 97.8321 128.073 98.7953C126.65 99.6801 126.079 103.118 126.001 104.373Z" fill="#EBEBEB"/>
<path d="M134.529 97.8604C134.529 97.8604 126 90.4796 122.472 93.75C118.944 97.0204 126.991 108.825 132.221 109.396C137.452 109.968 138.068 105.129 138.068 105.129L134.529 97.8604Z" fill="#D3766A"/>
<path d="M124.88 97.0783C124.862 97.0783 124.845 97.0853 124.832 97.098C124.82 97.1106 124.812 97.1276 124.812 97.1455C124.812 97.1633 124.82 97.1804 124.832 97.193C124.845 97.2056 124.862 97.2127 124.88 97.2127C128.576 97.7223 131.129 100.382 133.179 103.289C131.869 102.303 130.34 101.967 128.979 103.574C128.912 103.658 129.029 103.776 129.119 103.731C130.413 103.087 131.465 103.076 132.669 103.938C133.495 104.601 134.246 105.352 134.909 106.178C135.144 106.436 135.643 106.139 135.441 105.825C135.43 105.799 135.415 105.775 135.396 105.753C134.4 101.48 129.55 96.3223 124.88 97.0783Z" fill="#263238"/>
<path d="M143.657 146.13C143.657 146.13 128.374 122.129 110.23 120.309L112.202 133.844C112.202 133.844 122.976 133.508 142.509 150.084L143.657 146.13Z" fill="#FDC500"/>
<path d="M107.342 134.238C110.635 133.717 113.944 134.339 117.08 135.212C120.222 136.148 123.247 137.438 126.096 139.059C128.968 140.645 131.731 142.421 134.367 144.374L138.248 147.415L141.995 150.635L142.415 150.999L142.863 150.752C146.173 148.905 149.354 146.834 152.383 144.553C153.915 143.433 155.377 142.222 156.762 140.924C158.16 139.645 159.429 138.233 160.553 136.707C157.966 139.463 154.903 141.641 151.806 143.735C150.249 144.771 148.647 145.746 147.029 146.681C145.411 147.616 143.787 148.563 142.14 149.408L143.003 149.52L139.251 146.188C137.957 145.13 136.635 144.099 135.331 143.075C134.026 142.05 132.581 141.148 131.164 140.275C129.747 139.401 128.291 138.527 126.768 137.811C123.777 136.254 120.598 135.087 117.31 134.339C116.498 134.137 115.658 134.025 114.829 133.885C114 133.745 113.149 133.711 112.315 133.7C110.639 133.596 108.957 133.778 107.342 134.238Z" fill="#263238"/>
<path d="M102.576 142.971C104.368 141.662 106.068 140.232 107.667 138.693C109.288 137.178 110.804 135.554 112.203 133.832C110.408 135.138 108.705 136.565 107.107 138.105C105.49 139.624 103.976 141.25 102.576 142.971Z" fill="#263238"/>
<path d="M136.74 141.346C136.167 147.059 136.088 152.811 136.505 158.538C136.768 162.536 139.546 176.71 143.936 175.808C148.327 174.907 140.302 166.288 138.376 158.863C136.427 151.314 137.995 145.725 137.872 141.184L136.74 141.346Z" fill="#FDC500"/>
<g opacity="0.1">
<path d="M136.74 141.346C136.167 147.059 136.088 152.811 136.505 158.538C136.768 162.536 139.546 176.71 143.936 175.808C148.327 174.907 140.302 166.288 138.376 158.863C136.427 151.314 137.995 145.725 137.872 141.184L136.74 141.346Z" fill="black"/>
</g>
<path d="M151.716 142.059C153.68 146.88 155.223 151.862 156.331 156.949C157.131 160.494 158.358 173.536 154.309 173.878C150.26 174.219 155.026 164.677 154.791 157.711C154.561 150.643 151.761 146.163 150.691 142.204L151.716 142.059Z" fill="#FDC500"/>
<g opacity="0.1">
<path d="M151.716 142.059C153.68 146.88 155.223 151.862 156.331 156.949C157.131 160.494 158.358 173.536 154.309 173.878C150.26 174.219 155.026 164.677 154.791 157.711C154.561 150.643 151.761 146.163 150.691 142.204L151.716 142.059Z" fill="black"/>
</g>
<path d="M134.904 245.085C146.821 243.254 166.348 216.407 178.724 185.725C181.082 179.884 135.733 156.269 133.924 162.765C128.167 183.603 116.895 210.858 117.259 227.669C117.555 240.739 126.667 246.356 134.904 245.085Z" fill="#D3766A"/>
<path d="M156.117 140.653C153.227 137.114 152.785 127.213 150.192 121.378C147.599 115.543 140 112.805 138.662 114.949C137.323 117.094 139.306 119.256 139.927 128.843C140.325 135.003 135.604 147.323 137.62 158.523C138.634 164.14 159.04 144.193 156.117 140.653Z" fill="#F7A9A0"/>
<path d="M156.117 140.653C153.227 137.114 152.785 127.213 150.192 121.378C147.599 115.543 140 112.805 138.662 114.949C137.323 117.094 139.306 119.256 139.927 128.843C140.325 135.003 135.604 147.323 137.62 158.523C138.634 164.14 159.04 144.193 156.117 140.653Z" fill="#D3766A"/>
<path opacity="0.06" d="M156.117 140.653C153.227 137.114 152.785 127.213 150.192 121.378C147.599 115.543 140 112.805 138.662 114.949C137.323 117.094 139.306 119.256 139.927 128.843C140.325 135.003 135.604 147.323 137.62 158.523C138.634 164.14 159.04 144.193 156.117 140.653Z" fill="black"/>
<path d="M178.64 110.539C182.689 114.314 172.531 123.503 172.531 123.503C172.531 123.503 176.221 122.507 179.43 124.299C183.103 126.343 181.502 133.007 181.502 133.007C181.502 133.007 185.45 132.771 188.647 135C191.968 137.319 191.307 144.268 191.307 144.268C191.307 144.268 195.104 146.071 196.482 149.98C198.845 156.672 191.442 164.697 187.858 170.571C184.011 176.86 179.183 184.667 176.417 188.542L133.045 166.478C133.045 166.478 140.476 133.309 146.362 127.631C151.34 122.848 172.48 104.766 178.64 110.539Z" fill="#D3766A"/>
<path d="M172.357 123.478C165.861 127.297 160.295 132.662 154.997 137.898C154.973 137.922 154.959 137.956 154.959 137.99C154.959 138.025 154.973 138.058 154.997 138.083C155.022 138.107 155.055 138.121 155.09 138.121C155.124 138.121 155.158 138.107 155.182 138.083C160.407 132.813 167.166 128.815 172.587 123.764C172.625 123.733 172.649 123.689 172.654 123.641C172.659 123.592 172.645 123.544 172.615 123.506C172.584 123.468 172.54 123.444 172.492 123.439C172.444 123.433 172.395 123.447 172.357 123.478Z" fill="#263238"/>
<path d="M180.975 132.768C179.53 133.676 178.394 135.059 177.251 136.302C176.019 137.64 174.81 139.007 173.628 140.384C171.254 143.147 168.948 145.968 166.712 148.846C166.611 148.975 166.785 149.16 166.897 149.031C169.266 146.281 171.679 143.565 174.177 140.922C175.42 139.597 176.674 138.29 177.94 137.002C179.11 135.787 180.454 134.605 181.339 133.149C181.364 133.125 181.384 133.097 181.398 133.065C181.412 133.033 181.42 132.999 181.42 132.965C181.421 132.93 181.415 132.896 181.403 132.863C181.39 132.831 181.371 132.802 181.348 132.777C181.324 132.752 181.295 132.732 181.263 132.718C181.232 132.704 181.198 132.696 181.163 132.695C181.129 132.695 181.094 132.701 181.062 132.713C181.03 132.726 181 132.744 180.975 132.768Z" fill="#263238"/>
<path d="M191.223 144.383C189.935 145.122 188.983 146.623 188.037 147.743C186.984 149.027 185.922 150.304 184.851 151.573C182.711 154.11 180.572 156.647 178.343 159.111C178.231 159.234 178.416 159.419 178.528 159.295C180.802 156.803 183.109 154.345 185.36 151.831C186.48 150.599 187.58 149.359 188.659 148.112C189.588 147.054 190.871 145.839 191.352 144.489C191.358 144.472 191.358 144.453 191.353 144.436C191.348 144.419 191.338 144.403 191.324 144.392C191.31 144.38 191.293 144.373 191.275 144.371C191.257 144.37 191.239 144.374 191.223 144.383Z" fill="#263238"/>
<path d="M173.819 109.414C166.455 112.46 157.629 118.934 152.455 122.955C150.524 124.452 148.671 126.048 146.905 127.737C145.192 129.456 144.072 131.657 142.985 133.813C142.24 135.275 141.608 136.792 140.98 138.293C142.1 134.373 143.444 130.207 146.233 127.093C147.976 125.315 149.835 123.656 151.8 122.126C157.008 118.122 162.35 114.062 168.409 111.447L173.819 109.414Z" fill="#263238"/>
<path d="M124.594 174.867L167.518 212.572C167.518 212.572 145.073 248.849 134.607 248.138C124.141 247.426 112.767 240.65 113.624 215.49C113.831 209.19 124.594 174.867 124.594 174.867Z" fill="#FDC500"/>
<path d="M116.839 202.723L116.279 203.127C116.358 202.824 116.442 202.522 116.52 202.214C118.508 200.741 120.496 199.263 122.389 197.672C127.166 193.674 131.842 188.365 132.71 181.992L133.135 182.367C132.745 184.732 131.935 187.008 130.744 189.087C127.474 194.839 122.036 198.859 116.839 202.723ZM141.507 196.905C140.233 196.03 138.729 195.551 137.184 195.528C135.639 195.505 134.121 195.939 132.822 196.776C130.128 198.501 128.387 201.553 127.72 204.616C126.751 209.068 127.558 213.638 127.647 218.129C127.799 226.65 125.525 235.038 121.09 242.315C121.241 242.472 121.398 242.623 121.554 242.769C122.688 240.919 123.682 238.987 124.528 236.99C126.167 233.188 127.28 229.181 127.838 225.079C128.426 220.755 128.151 216.516 127.922 212.199C127.703 208.043 127.838 203.692 130.262 200.142C132.396 197.017 136.126 195.102 139.827 196.659C143.529 198.215 145.601 202.163 145.679 206.083C145.903 214.187 140.079 220.991 136.086 227.515C134.182 230.617 132.475 233.899 131.674 237.471C130.923 240.86 131.041 244.383 132.015 247.714C132.028 247.761 132.043 247.808 132.06 247.854L132.659 247.949C131.509 244.221 131.451 240.241 132.491 236.48C134.546 229.2 139.906 223.483 143.327 216.88C145.114 213.414 146.474 209.55 146.228 205.596C146.174 203.879 145.72 202.198 144.9 200.688C144.08 199.177 142.918 197.88 141.507 196.899V196.905ZM154.085 226.4C151.061 226.697 148.407 228.64 147.757 231.692C147.298 233.876 147.835 236.116 148.771 238.171C148.899 238.02 149.039 237.869 149.174 237.718C147.735 234.302 147.494 229.945 151.145 227.839C152.103 227.306 153.163 226.984 154.256 226.895C155.348 226.806 156.447 226.953 157.478 227.324C157.59 227.173 157.697 227.022 157.814 226.871C156.622 226.436 155.348 226.273 154.085 226.395V226.4ZM167.054 212.171C165.713 212.504 164.313 212.528 162.961 212.243C157.674 211.123 153.687 205.927 154.13 200.808L153.57 200.299C152.702 206.151 157.585 212.003 163.342 212.899C164.73 213.101 166.146 212.999 167.491 212.602L167.519 212.551L167.054 212.171Z" fill="white"/>
<path d="M124.118 190.464C126.218 192.217 128.178 194.155 130.172 196.025C132.166 197.896 134.148 199.794 136.102 201.715C140.007 205.556 143.881 209.426 147.722 213.324C148.77 214.393 149.817 215.463 150.847 216.555C151.878 217.647 152.902 219.024 154.017 220.172C154.03 220.192 154.036 220.215 154.034 220.239C154.031 220.262 154.021 220.284 154.005 220.3C153.988 220.317 153.966 220.327 153.943 220.329C153.92 220.332 153.896 220.326 153.877 220.312C152.902 219.388 151.794 218.599 150.797 217.692C149.8 216.784 148.753 215.788 147.745 214.819C145.774 212.919 143.81 211.011 141.854 209.096C137.934 205.265 134.053 201.407 130.273 197.453C128.139 195.213 125.916 193.018 123.917 190.66C123.891 190.634 123.876 190.598 123.877 190.56C123.877 190.523 123.893 190.488 123.92 190.462C123.946 190.436 123.982 190.421 124.02 190.422C124.057 190.422 124.092 190.438 124.118 190.464Z" fill="#263238"/>
<path d="M129.456 179.14L124.495 174.985L124.735 174.917C122.378 183.81 119.774 192.636 117.332 201.501C116.205 205.334 115.27 209.222 114.532 213.149C113.893 218.261 113.878 223.432 114.487 228.549C113.254 223.467 112.856 218.218 113.311 213.009C114.527 204.413 117.282 196.119 119.847 187.859C121.308 183.407 122.854 178.989 124.528 174.609L124.691 174.755L129.451 179.14H129.456Z" fill="#263238"/>
<path d="M252.521 191.685C245.174 201.631 237.519 213.173 235.654 225.644C235.654 225.829 235.934 225.89 235.979 225.705C236.824 222.304 237.909 218.968 239.227 215.721C244.054 214.393 248.792 213.301 251.329 208.508C253.916 203.58 253.569 197.162 253.093 191.792C253.059 191.517 252.667 191.517 252.521 191.685Z" fill="#FDC500"/>
<path d="M239.3 215.627C242.598 208.223 246.832 200.792 252.213 194.705C252.221 194.697 252.231 194.692 252.242 194.691C252.253 194.691 252.264 194.695 252.272 194.702C252.28 194.71 252.285 194.72 252.286 194.731C252.286 194.742 252.282 194.753 252.275 194.761C248.753 199.101 246.07 203.822 243.455 208.627C245.891 206.157 248.551 203.945 250.858 201.347C250.903 201.291 250.976 201.347 250.931 201.419C248.641 204.163 246.143 207.143 243.169 209.175C242.37 210.646 241.562 212.123 240.745 213.605C240.946 213.493 241.153 213.392 241.355 213.291C241.394 213.291 241.422 213.331 241.389 213.347C241.159 213.465 240.935 213.583 240.7 213.683C240.313 214.383 239.933 215.083 239.535 215.783C239.445 215.918 239.227 215.783 239.3 215.627Z" fill="#263238"/>
<path d="M241.752 213.044C243.725 211.937 245.61 210.678 247.391 209.281C247.436 209.242 247.508 209.281 247.458 209.348C245.743 210.835 243.864 212.122 241.858 213.184C241.74 213.229 241.662 213.095 241.752 213.044Z" fill="#263238"/>
<path d="M234.802 223.792C234.802 223.943 235.077 223.938 235.071 223.792C235.11 219.687 235.071 215.56 235.138 211.433C236.191 209.311 238.448 208.135 240.021 206.438C241.15 205.193 242.133 203.823 242.95 202.355C244.841 198.849 245.997 194.994 246.349 191.027C246.781 186.636 245.112 172.138 243.264 172.642C242.301 172.899 239.193 180.084 238.369 182.453C237.033 186.37 236.054 190.399 235.446 194.493C233.945 204.142 234.08 214.065 234.802 223.792Z" fill="#FDC500"/>
<path d="M234.774 206.078C234.998 200.881 236.169 195.634 237.261 190.594C238.442 185.162 239.826 180.049 242.62 175.205C242.67 175.116 242.805 175.205 242.754 175.289C240.892 179.056 239.45 183.017 238.454 187.1C238.644 186.803 238.868 186.54 239.064 186.248C239.142 186.142 239.322 186.248 239.243 186.355C238.995 186.794 238.702 187.207 238.37 187.587C238.359 187.591 238.347 187.591 238.336 187.587C237.373 191.468 236.684 195.427 236.096 199.397L236.23 199.246C236.258 199.212 236.309 199.246 236.292 199.291C236.219 199.425 236.135 199.554 236.057 199.688C235.754 201.699 235.497 203.704 235.206 205.692C238.784 202.634 241.836 199.028 243.561 194.581C243.561 194.581 243.606 194.581 243.594 194.581C241.914 199.19 239.243 203.284 235.144 206.084C235.071 206.644 234.998 207.153 234.92 207.685C234.92 207.797 234.73 207.769 234.73 207.685C234.73 207.209 234.73 206.733 234.774 206.263C234.758 206.254 234.745 206.24 234.735 206.224C234.726 206.208 234.721 206.189 234.721 206.17C234.721 206.152 234.726 206.133 234.735 206.117C234.745 206.101 234.758 206.087 234.774 206.078Z" fill="#263238"/>
<path d="M236.459 198.541C239.198 194.459 241.751 190.494 243.739 185.986C243.739 185.936 243.851 185.986 243.829 186.02C242.149 190.5 239.78 195.047 236.588 198.648C236.532 198.721 236.403 198.625 236.459 198.541Z" fill="#263238"/>
<path d="M240.094 184.98C241.214 182.975 242.423 181.02 243.487 178.976C243.521 178.92 243.599 178.976 243.571 179.027C242.7 181.161 241.593 183.191 240.273 185.08C240.195 185.181 240.032 185.092 240.094 184.98Z" fill="#263238"/>
<path d="M239.681 185.848V185.887C239.681 185.887 239.63 185.848 239.681 185.848Z" fill="#263238"/>
<path d="M232.024 211.913C231.969 214.635 231.649 217.345 231.066 220.005C231.106 220.296 231.15 220.565 231.19 220.89C232.031 217.951 232.518 214.922 232.64 211.868C232.665 211.826 232.678 211.777 232.678 211.728C232.678 211.679 232.665 211.63 232.64 211.588C232.762 207.491 232.462 203.393 231.744 199.358C230.473 191.814 227.695 184.568 222.431 178.912C222.388 178.88 222.338 178.857 222.285 178.845C222.232 178.833 222.178 178.833 222.125 178.844C222.072 178.855 222.022 178.878 221.978 178.91C221.934 178.941 221.898 178.982 221.871 179.03C219.749 184.434 220.488 190.879 222.297 196.266C223.281 199.183 224.689 201.94 226.474 204.448C228.255 206.99 230.557 209.135 232.024 211.913Z" fill="#FDC500"/>
<path d="M223.054 181.438C228.044 189.535 231.516 199.134 231.936 208.698C231.936 208.866 231.661 208.911 231.639 208.738C231.521 207.881 231.387 207.03 231.253 206.184C229.186 204.207 227.069 202.124 225.591 199.649C225.591 199.61 225.63 199.554 225.664 199.598C227.379 201.698 229.215 203.695 231.163 205.579C230.79 203.466 230.362 201.385 229.881 199.335C229.746 199.178 229.617 199.022 229.483 198.87C229.349 198.719 229.545 198.618 229.634 198.725L229.752 198.854C229.051 196.042 228.179 193.276 227.142 190.571C225.877 189.059 224.454 187.771 223.53 185.923C223.526 185.914 223.526 185.905 223.529 185.895C223.532 185.886 223.538 185.879 223.547 185.874C223.555 185.869 223.565 185.867 223.574 185.869C223.583 185.871 223.592 185.876 223.597 185.884C224.342 186.931 225.059 187.978 225.905 188.947C226.241 189.334 226.61 189.692 226.957 190.067C225.81 187.132 224.447 184.285 222.881 181.55C222.877 181.528 222.879 181.505 222.888 181.485C222.897 181.465 222.912 181.448 222.93 181.436C222.949 181.424 222.97 181.418 222.992 181.418C223.015 181.418 223.036 181.425 223.054 181.438Z" fill="#263238"/>
<path d="M224.062 191.431C225.675 193.599 227.511 195.671 229.012 197.916C229.057 197.978 228.962 198.045 228.906 197.995C226.979 196.186 225.35 193.722 223.955 191.493C223.911 191.426 224 191.364 224.062 191.431Z" fill="#263238"/>
<path d="M229.236 198.412L229.303 198.485C229.353 198.53 229.303 198.603 229.23 198.558L229.163 198.491C229.112 198.44 229.191 198.368 229.236 198.412Z" fill="#263238"/>
<path d="M215.236 197.006C215.639 201.172 217.829 206.145 220.5 209.354C221.675 210.751 223.131 211.886 224.773 212.686C226.621 213.604 228.558 214.657 230.468 215.407C231.379 217.721 232.054 220.121 232.484 222.57L232.669 221.937C231.442 211.392 224.616 202.376 215.869 196.591C215.801 196.551 215.723 196.53 215.644 196.531C215.565 196.533 215.488 196.557 215.422 196.6C215.356 196.643 215.304 196.704 215.271 196.776C215.238 196.848 215.226 196.927 215.236 197.006Z" fill="#FDC500"/>
<path d="M218.255 200.121C218.194 200.065 218.255 199.959 218.345 200.009C223.142 203.575 226.966 208.289 229.467 213.718C229.528 213.858 229.332 213.987 229.248 213.841C228.845 213.13 228.431 212.441 228.011 211.758C226.017 211.383 224.13 209.977 222.651 208.644C222.612 208.611 222.651 208.555 222.707 208.588C223.471 209.283 224.32 209.878 225.233 210.358C226.045 210.772 226.913 211.03 227.764 211.36C227.017 210.192 226.247 209.072 225.451 208C223.3 207.184 221.283 206.051 219.465 204.64C219.457 204.638 219.45 204.633 219.445 204.627C219.439 204.621 219.435 204.614 219.432 204.607C219.429 204.599 219.428 204.591 219.429 204.583C219.43 204.575 219.433 204.567 219.437 204.56C219.441 204.553 219.446 204.547 219.453 204.542C219.46 204.537 219.467 204.534 219.475 204.533C219.483 204.532 219.492 204.532 219.5 204.534C219.507 204.536 219.515 204.54 219.521 204.545C221.321 205.636 223.18 206.629 225.087 207.519C223.872 205.916 222.563 204.387 221.167 202.938C220.49 202.58 219.801 202.221 219.146 201.818C219.135 201.811 219.127 201.8 219.123 201.787C219.12 201.774 219.12 201.761 219.126 201.749C219.131 201.737 219.141 201.727 219.152 201.721C219.164 201.716 219.178 201.714 219.191 201.717C219.736 201.909 220.256 202.165 220.742 202.479C219.935 201.678 219.123 200.888 218.255 200.121Z" fill="#263238"/>
<path d="M218.44 203.762C218.558 203.834 218.67 203.914 218.776 204.003C218.81 204.003 218.776 204.076 218.731 204.059C218.616 203.993 218.506 203.92 218.401 203.84C218.322 203.84 218.401 203.723 218.44 203.762Z" fill="#263238"/>
<path d="M246.294 245.413H222.371L224.303 223.629L224.729 218.824H243.942L244.362 223.629L246.294 245.413Z" fill="#455A64"/>
<path d="M244.362 223.629H224.303L224.728 218.824H243.942L244.362 223.629Z" fill="#263238"/>
<path d="M245.084 215.465H223.586V220.219H245.084V215.465Z" fill="#455A64"/>
<path d="M199.322 74.8583C199.42 76.0145 199.174 77.1739 198.614 78.1901C198.054 79.2063 197.205 80.0336 196.175 80.5676C195.145 81.1015 193.979 81.3181 192.826 81.19C191.673 81.0619 190.584 80.5948 189.696 79.8477C188.808 79.1007 188.161 78.1072 187.838 76.9929C187.515 75.8785 187.529 74.6933 187.879 73.587C188.229 72.4807 188.899 71.503 189.804 70.7774C190.71 70.0518 191.81 69.6109 192.966 69.5103C193.734 69.4435 194.509 69.5289 195.244 69.7616C195.98 69.9943 196.662 70.3697 197.253 70.8664C197.843 71.3632 198.33 71.9714 198.685 72.6564C199.04 73.3414 199.256 74.0896 199.322 74.8583Z" fill="white"/>
<path d="M199.32 74.8615C199.824 80.0807 193.614 83.3847 189.537 80.0415C188.919 79.5278 188.409 78.8967 188.037 78.1847C187.665 77.4726 187.438 76.6938 187.368 75.8934C187.299 75.0929 187.389 74.2866 187.634 73.5212C187.878 72.7558 188.272 72.0465 188.792 71.4343C192.231 67.4359 198.923 69.6255 199.32 74.8615ZM199.32 74.8615C198.867 69.7487 192.371 67.7663 189.162 71.7423C188.228 72.8963 187.776 74.3671 187.903 75.8464C188.029 77.3257 188.723 78.6987 189.839 79.6775C193.681 83.0375 199.746 79.9687 199.315 74.8615H199.32Z" fill="#263238"/>
<path d="M183.764 80.954C183.819 81.5973 183.682 82.2425 183.371 82.808C183.059 83.3736 182.587 83.8341 182.014 84.1313C181.441 84.4286 180.792 84.5492 180.151 84.478C179.509 84.4067 178.903 84.1468 178.409 83.7311C177.915 83.3154 177.555 82.7625 177.375 82.1424C177.195 81.5223 177.204 80.8628 177.398 80.2473C177.593 79.6318 177.966 79.0879 178.471 78.6844C178.975 78.2809 179.587 78.0359 180.23 77.9804C181.093 77.9074 181.949 78.1795 182.612 78.7369C183.274 79.2943 183.688 80.0916 183.764 80.954Z" fill="white"/>
<path d="M183.764 80.9532C183.811 81.5159 183.716 82.0813 183.49 82.5986C183.264 83.1159 182.913 83.569 182.469 83.9171C182.024 84.2653 181.5 84.4977 180.944 84.5934C180.387 84.6892 179.816 84.6453 179.281 84.4657C178.745 84.2861 178.263 83.9764 177.877 83.5644C177.491 83.1524 177.213 82.6511 177.069 82.1053C176.924 81.5595 176.917 80.9864 177.049 80.4373C177.181 79.8883 177.447 79.3805 177.823 78.9596C178.269 78.4679 178.848 78.1164 179.489 77.948C180.131 77.7795 180.808 77.8014 181.438 78.0109C182.068 78.2204 182.623 78.6085 183.036 79.1279C183.449 79.6474 183.702 80.2757 183.764 80.9364V80.9532ZM183.764 80.9532C183.272 76.826 177.302 77.3748 177.537 81.5132C178.013 85.6124 183.988 85.1252 183.764 80.9532Z" fill="#263238"/>
<path d="M250.59 49.6862C250.951 52.6683 250.523 55.6931 249.347 58.4576C248.172 61.2221 246.291 63.6294 243.893 65.4384C241.495 67.2474 238.663 68.3947 235.682 68.7653C232.701 69.1359 229.675 68.7169 226.907 67.5502C225.561 69.3081 223.828 70.7315 221.842 71.7096C219.856 72.6877 217.671 73.194 215.457 73.1892C213.243 73.1843 211.06 72.6683 209.078 71.6815C207.096 70.6946 205.369 69.2636 204.031 67.4998C203.404 67.6915 202.761 67.8264 202.11 67.903C199.872 68.1755 197.602 67.7934 195.577 66.8029C193.551 65.8124 191.856 64.256 190.696 62.322C189.537 60.388 188.962 58.1594 189.043 55.9059C189.124 53.6524 189.856 51.4706 191.151 49.6246C188.62 46.4112 187.321 42.3983 187.489 38.311C187.658 34.2236 189.282 30.3313 192.07 27.337C194.857 24.3428 198.623 22.4441 202.688 21.9839C206.753 21.5237 210.848 22.5324 214.234 24.8278C215.821 22.8443 217.904 21.3164 220.273 20.3995C222.642 19.4825 225.211 19.2093 227.72 19.6076C230.228 20.0058 232.586 21.0614 234.555 22.6669C236.523 24.2723 238.031 26.3704 238.925 28.7478C239.523 28.5441 240.14 28.4034 240.767 28.3278C242.675 28.0944 244.608 28.4507 246.307 29.3489C248.006 30.247 249.389 31.6439 250.27 33.3516C251.151 35.0593 251.489 36.9959 251.236 38.901C250.984 40.8061 250.155 42.5883 248.859 44.0078C249.768 45.7828 250.354 47.7057 250.59 49.6862Z" fill="white"/>
<path d="M250.589 49.688C250.951 52.6772 250.524 55.7092 249.348 58.4814C248.173 61.2537 246.291 63.6691 243.89 65.4866C241.49 67.3041 238.654 68.4601 235.667 68.8393C232.68 69.2184 229.646 68.8074 226.867 67.6472L226.985 67.6136C225.63 69.3908 223.883 70.8312 221.88 71.8228C219.877 72.8143 217.672 73.3301 215.437 73.3301C213.203 73.3301 210.998 72.8143 208.995 71.8228C206.992 70.8312 205.245 69.3908 203.89 67.6136L204.081 67.6752C203.206 67.9443 202.301 68.1005 201.387 68.14C191.52 68.7504 185.287 57.584 190.96 49.4808V49.7832C182.504 39.1824 189.207 23.2616 202.669 21.7832C206.78 21.3237 210.918 22.3529 214.334 24.684L214.105 24.7232C221.099 15.9928 235.093 18.2384 239.008 28.716L238.901 28.6656C239.641 28.4124 240.412 28.2635 241.192 28.2232C243.079 28.0832 244.965 28.5127 246.605 29.4563C248.245 30.3998 249.565 31.814 250.392 33.5157C251.22 35.2175 251.518 37.1284 251.247 39.0013C250.977 40.8742 250.15 42.6228 248.875 44.0208C249.79 45.7888 250.373 47.7097 250.594 49.688H250.589ZM250.589 49.688C250.348 47.7048 249.756 45.7802 248.841 44.004C250.222 42.4636 251.053 40.5095 251.206 38.4467C251.359 36.3839 250.824 34.3286 249.686 32.6017C248.547 30.8748 246.869 29.5735 244.913 28.9009C242.957 28.2283 240.833 28.2224 238.873 28.884C235.026 18.5632 221.222 16.312 214.362 24.964L214.267 25.0872L214.133 24.9976C210.784 22.7229 206.729 21.729 202.709 22.1976C189.627 23.7096 183.237 39.1376 191.352 49.4752L191.469 49.6264L191.363 49.7776C185.875 57.556 191.856 68.3248 201.365 67.7816C202.293 67.7433 203.211 67.5833 204.097 67.3056C205.411 69.0741 207.116 70.5139 209.08 71.5119C211.044 72.5099 213.213 73.0389 215.415 73.0573C217.618 73.0758 219.795 72.5832 221.775 71.6182C223.756 70.6533 225.485 69.2422 226.828 67.496L226.878 67.4344L226.945 67.468C229.704 68.6308 232.719 69.0497 235.69 68.6828C238.661 68.316 241.484 67.1762 243.877 65.3774C246.269 63.5786 248.148 61.1836 249.326 58.4315C250.504 55.6794 250.939 52.6665 250.589 49.6936V49.688Z" fill="#263238"/>
<path d="M221.339 48.7496L221.199 51.1184C221.192 51.3544 221.138 51.5866 221.038 51.8006C220.938 52.0147 220.796 52.2063 220.62 52.3635C220.444 52.5208 220.238 52.6404 220.014 52.7152C219.79 52.79 219.553 52.8183 219.318 52.7984C218.846 52.7709 218.404 52.5575 218.089 52.2048C217.774 51.8521 217.612 51.3889 217.638 50.9168L217.85 47.1312C217.85 47.092 217.89 47.0976 217.895 47.0584C217.901 47.0192 217.839 47.0416 217.839 46.9856C217.878 46.5178 218.094 46.0826 218.445 45.77C218.795 45.4573 219.252 45.2911 219.721 45.3056C220.266 45.3532 220.816 45.2908 221.336 45.122C221.857 44.9533 222.339 44.6816 222.753 44.3232C223.166 43.9648 223.504 43.5269 223.745 43.0356C223.987 42.5442 224.127 42.0094 224.158 41.4628C224.189 40.9162 224.109 40.369 223.925 39.8536C223.74 39.3383 223.453 38.8653 223.082 38.4627C222.711 38.0602 222.263 37.7362 221.765 37.5101C221.266 37.284 220.727 37.1603 220.18 37.1464C219.473 37.1046 218.767 37.2497 218.134 37.5673C217.501 37.8848 216.963 38.3635 216.574 38.9552C216.45 39.1639 216.286 39.3454 216.091 39.4888C215.896 39.6323 215.673 39.7346 215.437 39.7896C215.201 39.8447 214.957 39.8513 214.718 39.8091C214.48 39.7669 214.252 39.6768 214.049 39.5441C213.846 39.4115 213.673 39.2391 213.538 39.0373C213.404 38.8356 213.312 38.6088 213.268 38.3705C213.224 38.1323 213.229 37.8876 213.282 37.6512C213.335 37.4148 213.436 37.1916 213.578 36.9952C214.275 35.9336 215.226 35.0621 216.344 34.4588C217.461 33.8555 218.712 33.5395 219.982 33.5391C221.252 33.5386 222.503 33.8539 223.621 34.4564C224.739 35.0589 225.69 35.9299 226.388 36.991C227.087 38.0521 227.511 39.2701 227.622 40.5355C227.733 41.8009 227.527 43.074 227.024 44.2405C226.522 45.407 225.737 46.4302 224.741 47.2183C223.744 48.0063 222.568 48.5344 221.317 48.7552L221.339 48.7496ZM220.891 56.724L220.852 57.3792C220.844 57.615 220.789 57.8467 220.689 58.0604C220.589 58.2741 220.447 58.4653 220.271 58.6224C220.095 58.7795 219.889 58.8992 219.666 58.9743C219.442 59.0494 219.206 59.0783 218.97 59.0592C218.498 59.0289 218.057 58.8138 217.743 58.4605C217.428 58.1073 217.266 57.6443 217.29 57.172L217.33 56.5168C217.363 56.0469 217.578 55.6084 217.929 55.2947C218.281 54.9809 218.741 54.8167 219.211 54.8368C219.446 54.8474 219.677 54.905 219.89 55.0062C220.102 55.1074 220.293 55.2502 220.449 55.4261C220.606 55.602 220.726 55.8074 220.801 56.0303C220.877 56.2533 220.908 56.4891 220.891 56.724Z" fill="#FDC500"/>
</svg>
