<svg width="300" height="300" viewBox="0 0 300 300" fill="none" xmlns="http://www.w3.org/2000/svg">
<path d="M52.5532 155.135L44.6812 155.297L40.6852 155.369C39.3472 155.369 38.0032 155.369 36.6652 155.399H36.4012V155.135L36.3652 148.421V148.115H36.6652L44.6092 148.151C47.2612 148.151 49.9072 148.217 52.5532 148.247H52.7212V148.409C52.7212 149.543 52.6672 150.677 52.6432 151.799L52.5532 155.135ZM52.5532 155.135L52.4692 151.739C52.4692 150.623 52.4032 149.519 52.3912 148.421L52.5532 148.583C49.9072 148.613 47.2612 148.679 44.6092 148.679L36.6652 148.721L36.9652 148.421V155.135L36.6952 154.865C38.0032 154.865 39.3112 154.865 40.6252 154.895L44.5732 154.967L52.5532 155.135Z" fill="#EBEBEB"/>
<path d="M43.6919 163.602L35.8199 163.764L31.8239 163.836C30.4859 163.836 29.1419 163.836 27.8039 163.866H27.5399V163.602L27.5039 156.888V156.6H27.8039L35.7479 156.636C38.3939 156.636 41.0459 156.702 43.6919 156.732H43.8599V156.894C43.8599 158.028 43.8119 159.162 43.7819 160.284L43.6919 163.602ZM43.6919 163.602L43.6079 160.2C43.5779 159.084 43.5419 157.98 43.5299 156.882L43.6919 157.044C41.0459 157.074 38.3939 157.14 35.7479 157.14L27.8039 157.2L28.1039 156.906L28.0739 163.62L27.8039 163.35C29.1119 163.35 30.4199 163.35 31.7339 163.35L35.6819 163.422L43.6919 163.602Z" fill="#EBEBEB"/>
<path d="M136.235 124.475L128.363 124.643L124.367 124.709C123.029 124.739 121.691 124.709 120.347 124.745H120.083V124.475L120.047 117.761V117.461H120.347L128.291 117.497C130.943 117.497 133.589 117.569 136.235 117.599H136.403V117.761C136.403 118.901 136.349 120.035 136.325 121.151L136.235 124.475ZM136.235 124.475L136.151 121.085C136.151 119.963 136.085 118.859 136.073 117.761L136.235 117.923C133.589 117.959 130.943 118.019 128.291 118.025L120.347 118.061L120.647 117.761L120.599 124.475L120.329 124.211C121.643 124.211 122.945 124.211 124.259 124.211L128.207 124.277L136.235 124.475Z" fill="#EBEBEB"/>
<path d="M127.375 132.942L119.504 133.11L115.507 133.176C114.169 133.176 112.826 133.176 111.488 133.212H111.223V132.942L111.188 126.228V125.928H111.488L119.432 125.964C122.084 125.964 124.729 126.036 127.375 126.066H127.544V126.228C127.544 127.368 127.489 128.502 127.459 129.618L127.375 132.942ZM127.375 132.942L127.291 129.552C127.291 128.43 127.226 127.326 127.214 126.228L127.375 126.39C124.729 126.39 122.084 126.486 119.432 126.492L111.488 126.528L111.788 126.228L111.757 132.942L111.488 132.672C112.796 132.672 114.104 132.672 115.418 132.708L119.366 132.774L127.375 132.942Z" fill="#EBEBEB"/>
<path d="M145.234 132.942L137.362 133.11L133.366 133.176C132.028 133.176 130.684 133.176 129.346 133.212H129.082V132.942V126.228V125.928H129.382L137.326 125.964C139.972 125.964 142.624 126.036 145.27 126.066H145.438V126.228C145.438 127.368 145.39 128.502 145.36 129.618L145.234 132.942ZM145.234 132.942L145.15 129.552C145.15 128.43 145.084 127.326 145.072 126.228L145.234 126.39C142.588 126.39 139.936 126.486 137.29 126.492L129.346 126.528L129.646 126.228L129.598 132.942L129.328 132.672C130.636 132.672 131.944 132.672 133.258 132.708L137.206 132.774L145.234 132.942Z" fill="#EBEBEB"/>
<path d="M272.196 163.602L264.318 163.764L260.322 163.836C258.99 163.836 257.646 163.836 256.308 163.866H256.038V163.602L256.008 156.888V156.6H256.308L264.252 156.636C266.898 156.636 269.55 156.702 272.196 156.732H272.358V156.894C272.358 158.028 272.31 159.162 272.28 160.284L272.196 163.602ZM272.196 163.602L272.112 160.206C272.112 159.09 272.04 157.986 272.034 156.888L272.196 157.05C269.55 157.08 266.898 157.146 264.252 157.146L256.308 157.182L256.608 156.888L256.572 163.602L256.308 163.332C257.616 163.332 258.924 163.332 260.232 163.332L264.18 163.404L272.196 163.602Z" fill="#EBEBEB"/>
<path d="M263.333 32.5199L255.455 32.6879L251.459 32.7539C250.127 32.7539 248.783 32.7539 247.445 32.7899H247.199V32.5199V25.8059V25.5059H247.505L255.449 25.5419C258.095 25.5419 260.741 25.6139 263.393 25.6439H263.555V25.7999C263.555 26.9399 263.501 28.0739 263.477 29.1899L263.333 32.5199ZM263.333 32.5199L263.249 29.1299C263.219 28.0079 263.177 26.9039 263.165 25.8059L263.333 25.9679C260.681 25.9679 258.035 26.0639 255.389 26.0699L247.445 26.1059L247.745 25.8059L247.709 32.5199L247.445 32.2499C248.753 32.2499 250.055 32.2499 251.369 32.2859L255.317 32.3519L263.333 32.5199Z" fill="#EBEBEB"/>
<path d="M272.196 40.9867L264.318 41.1547L260.322 41.2207C258.99 41.2207 257.646 41.2207 256.308 41.2567H256.038V40.9867L256.008 34.2727V33.9727H256.308L264.252 34.0087C266.898 34.0087 269.55 34.0807 272.196 34.1107H272.358V34.2727C272.358 35.4127 272.31 36.5467 272.28 37.6627L272.196 40.9867ZM272.196 40.9867L272.112 37.5967C272.112 36.4747 272.04 35.3707 272.034 34.2727L272.196 34.4347C269.55 34.4347 266.898 34.5307 264.252 34.5367L256.308 34.5727L256.608 34.2727L256.572 40.9867L256.308 40.7167C257.616 40.7167 258.924 40.7167 260.232 40.7527L264.18 40.8187L272.196 40.9867Z" fill="#EBEBEB"/>
<path d="M24.8691 230.478L56.1531 230.328L87.4371 230.28L149.999 230.178L212.561 230.274L243.845 230.328L275.129 230.478L243.845 230.622L212.561 230.676L149.999 230.778L87.4371 230.676L56.1531 230.622L24.8691 230.478Z" fill="#263238"/>
<path d="M150 275.633C214.839 275.633 267.402 268.243 267.402 259.127C267.402 250.011 214.839 242.621 150 242.621C85.1603 242.621 32.5977 250.011 32.5977 259.127C32.5977 268.243 85.1603 275.633 150 275.633Z" fill="#EBEBEB"/>
<path d="M256.306 32.4473V204.533H126.07V32.4473H128.272L129.1 36.0473L132.658 38.3993V41.1113H136.858V36.9113H133.618L133.936 32.4833H143.248L143.524 36.9113H142.924V41.1113H147.124V36.9113H145.324L145.882 32.4833H152.2L153.178 36.9113V41.1113H157.378V36.9113H155.788L156.712 32.4833H163.798L164.17 36.9113H163.42V41.1113H167.62V36.9113H165.868V32.4473H172.678L172.858 33.7673L173.788 36.8753H173.674V41.0753H177.874V36.8753H176.272L175.954 34.0193L175.798 32.4473H184.936V34.0913C184.936 34.1933 185.722 36.8753 185.722 36.8753H183.958V41.0753H188.158V36.8753H187.042V32.4473H195.31L194.86 36.8753H194.218V41.0753H198.418V36.8753H197.398L197.164 32.4473H204.268L204.556 36.8753H204.454V41.0753H208.654V36.8753H206.902L205.654 32.4473H214.51L214.708 36.8753V41.0753H218.908V36.8753H217.198L216.694 32.4473H223.798L224.998 38.3333V41.0813H229.198V36.8813H226.882L227.668 32.4533H235.258V41.0813H239.458V36.8813H236.842L236.242 32.4533H242.938L245.524 38.0753V41.0753H249.724V36.8753H246.85L246.622 32.4473H256.306Z" fill="#EBEBEB"/>
<path d="M246.552 55.3965H135.828V55.8465H246.552V55.3965Z" fill="#DBDBDB"/>
<path d="M246.552 61.3496H135.828V61.7996H246.552V61.3496Z" fill="#DBDBDB"/>
<path d="M246.552 67.3008H135.828V67.7508H246.552V67.3008Z" fill="#DBDBDB"/>
<path d="M246.552 73.2598H135.828V73.7098H246.552V73.2598Z" fill="#DBDBDB"/>
<path d="M246.552 79.2109H135.828V79.6609H246.552V79.2109Z" fill="#DBDBDB"/>
<path d="M246.552 85.1641H135.828V85.6141H246.552V85.1641Z" fill="#DBDBDB"/>
<path d="M246.552 91.1152H135.828V91.5652H246.552V91.1152Z" fill="#DBDBDB"/>
<path d="M246.552 97.0664H135.828V97.5164H246.552V97.0664Z" fill="#DBDBDB"/>
<path d="M246.552 103.02H135.828V103.47H246.552V103.02Z" fill="#DBDBDB"/>
<path d="M246.552 108.977H135.828V109.427H246.552V108.977Z" fill="#DBDBDB"/>
<path d="M246.552 114.93H135.828V115.38H246.552V114.93Z" fill="#DBDBDB"/>
<path d="M246.552 120.881H135.828V121.331H246.552V120.881Z" fill="#DBDBDB"/>
<path d="M246.552 126.834H135.828V127.284H246.552V126.834Z" fill="#DBDBDB"/>
<path d="M246.552 132.785H135.828V133.235H246.552V132.785Z" fill="#DBDBDB"/>
<path d="M246.552 138.736H135.828V139.186H246.552V138.736Z" fill="#DBDBDB"/>
<path d="M246.552 144.689H135.828V145.139H246.552V144.689Z" fill="#DBDBDB"/>
<path d="M246.552 150.646H135.828V151.096H246.552V150.646Z" fill="#DBDBDB"/>
<path d="M246.552 156.6H135.828V157.05H246.552V156.6Z" fill="#DBDBDB"/>
<path d="M246.552 162.551H135.828V163.001H246.552V162.551Z" fill="#DBDBDB"/>
<path d="M246.552 168.504H135.828V168.954H246.552V168.504Z" fill="#DBDBDB"/>
<path d="M246.552 174.455H135.828V174.905H246.552V174.455Z" fill="#DBDBDB"/>
<path d="M246.552 180.408H135.828V180.858H246.552V180.408Z" fill="#DBDBDB"/>
<path d="M246.552 186.359H135.828V186.809H246.552V186.359Z" fill="#DBDBDB"/>
<path d="M246.552 192.316H135.828V192.766H246.552V192.316Z" fill="#DBDBDB"/>
<path d="M139.527 59.8254L152.439 59.6754L165.357 59.5914L191.187 59.5254L217.017 59.5914L229.935 59.6754L242.847 59.8254L229.935 59.9694L217.017 60.0534L191.187 60.1254L165.357 60.0534L152.439 59.9694L139.527 59.8254Z" fill="#263238"/>
<path d="M139.527 65.7766C145.887 65.6506 152.247 65.5966 158.607 65.5486L177.687 65.4766L196.767 65.5426L206.307 65.6266L215.847 65.7766L206.307 65.9206L196.797 65.9986L177.717 66.0706L158.637 65.9986C152.247 65.9566 145.887 65.8966 139.527 65.7766Z" fill="#263238"/>
<path d="M139.527 71.7297L152.439 71.5857L165.357 71.5017L191.187 71.4297L217.017 71.5017L229.935 71.5857L242.847 71.7297L229.935 71.8737L217.017 71.9577L191.187 72.0297L165.357 71.9577L152.439 71.8737L139.527 71.7297Z" fill="#263238"/>
<path d="M139.527 77.6809C143.691 77.5549 147.849 77.5009 152.013 77.4529L164.499 77.3809L176.979 77.4529L183.225 77.5369C185.301 77.5849 187.383 77.6149 189.465 77.6809C187.383 77.7469 185.301 77.7769 183.225 77.8309L176.979 77.9149L164.499 77.9809L152.013 77.9089C147.849 77.8609 143.691 77.8069 139.527 77.6809Z" fill="#263238"/>
<path d="M139.527 89.5852L152.439 89.4412L165.357 89.3572L191.187 89.2852L217.017 89.3572L229.935 89.4412L242.847 89.5852L229.935 89.7352L217.017 89.8192L191.187 89.8852L165.357 89.8192L152.439 89.7352L139.527 89.5852Z" fill="#263238"/>
<path d="M139.527 95.5441C145.875 95.4181 152.229 95.3581 158.577 95.3101L177.627 95.2441L196.671 95.3101L206.199 95.3941L215.721 95.5441L206.199 95.6881L196.671 95.7721L177.627 95.8381L158.577 95.7721C152.229 95.7241 145.875 95.6641 139.527 95.5441Z" fill="#263238"/>
<path d="M139.527 101.495C146.589 101.369 153.645 101.309 160.707 101.261L181.881 101.195L203.055 101.261L213.645 101.345L224.235 101.495L213.645 101.639L203.055 101.723L181.881 101.795L160.707 101.723C153.645 101.675 146.589 101.615 139.527 101.495Z" fill="#263238"/>
<path d="M139.527 113.4C144.789 113.274 150.051 113.22 155.307 113.172L171.093 113.1L186.873 113.166L194.763 113.25L202.653 113.4L194.763 113.544L186.873 113.628L171.093 113.7L155.307 113.628C150.051 113.58 144.789 113.526 139.527 113.4Z" fill="#263238"/>
<path d="M139.527 119.351L152.439 119.207L165.357 119.123L191.187 119.051L217.017 119.123L229.935 119.207L242.847 119.351L229.935 119.501L217.017 119.585L191.187 119.651L165.357 119.579L152.439 119.495L139.527 119.351Z" fill="#263238"/>
<path d="M139.527 125.304C146.589 125.184 153.645 125.124 160.707 125.076L181.881 125.004L203.055 125.076L213.645 125.16L224.235 125.304L213.645 125.454L203.055 125.538L181.881 125.604L160.707 125.538C153.645 125.49 146.589 125.43 139.527 125.304Z" fill="#263238"/>
<path d="M139.527 131.255L152.439 131.111L165.357 131.027L191.187 130.955L217.017 131.027L229.935 131.111L242.847 131.255L229.935 131.405L217.017 131.489L191.187 131.555L165.357 131.489L152.439 131.405L139.527 131.255Z" fill="#263238"/>
<path d="M139.527 137.208C144.669 137.088 149.817 137.028 154.959 136.98L170.391 136.914L185.823 136.98L193.539 137.064L201.255 137.208L193.539 137.358L185.823 137.442L170.391 137.508L154.959 137.442C149.817 137.4 144.669 137.334 139.527 137.208Z" fill="#263238"/>
<path d="M137.581 110.671H95.6169C95.0635 107.195 94.7607 103.684 94.7109 100.165V57.8945H147.511V100.711C147.487 105.001 137.581 110.671 137.581 110.671Z" fill="#FFC727"/>
<path opacity="0.2" d="M147.48 100.704C147.48 104.862 138.174 110.304 137.598 110.64C139.14 109.596 138.876 101.334 138.876 101.334C138.876 101.334 147.324 100.236 147.48 100.704Z" fill="black"/>
<path d="M102.48 70.3623C108.684 69.8583 114.894 69.7623 121.08 69.7143C127.266 69.6663 133.494 69.8523 139.68 70.3623C133.476 70.8783 127.266 70.9623 121.08 71.0163C114.894 71.0703 108.684 70.8723 102.48 70.3623Z" fill="white"/>
<path d="M102.48 77.3228C107.364 76.8128 112.248 76.7228 117.126 76.6688C122.004 76.6148 126.894 76.8128 131.778 77.3228C126.909 77.7941 122.019 78.0204 117.126 78.0008C112.248 77.9528 107.364 77.8328 102.48 77.3228Z" fill="white"/>
<path d="M102.48 84.2833C107.364 83.7733 112.248 83.6533 117.126 83.6293C122.018 83.6016 126.909 83.8199 131.778 84.2833C126.894 84.7933 122.01 84.9133 117.126 84.9373C112.242 84.9613 107.364 84.7933 102.48 84.2833Z" fill="white"/>
<path d="M237.479 228.341H187.427C187.427 228.341 184.949 223.229 184.949 218.381V178.289H235.001V218.897C235.001 222.959 237.479 228.341 237.479 228.341Z" fill="#FFC727"/>
<path opacity="0.8" d="M237.479 228.341H187.427C187.427 228.341 184.949 223.229 184.949 218.381V178.289H235.001V218.897C235.001 222.959 237.479 228.341 237.479 228.341Z" fill="white"/>
<path d="M235.001 181.703H184.949V181.853H235.001V181.703Z" fill="#DBDBDB"/>
<path d="M235.001 185.299H184.949V185.449H235.001V185.299Z" fill="#DBDBDB"/>
<path d="M235.001 188.898H184.949V189.048H235.001V188.898Z" fill="#DBDBDB"/>
<path d="M235.001 192.492H184.949V192.642H235.001V192.492Z" fill="#DBDBDB"/>
<path d="M235.001 196.092H184.949V196.242H235.001V196.092Z" fill="#DBDBDB"/>
<path d="M235.001 199.686H184.949V199.836H235.001V199.686Z" fill="#DBDBDB"/>
<path d="M235.001 203.279H184.949V203.429H235.001V203.279Z" fill="#DBDBDB"/>
<path d="M235.001 206.881H184.949V207.031H235.001V206.881Z" fill="#DBDBDB"/>
<path d="M235.001 210.475H184.949V210.625H235.001V210.475Z" fill="#DBDBDB"/>
<path d="M235.001 214.074H184.949V214.224H235.001V214.074Z" fill="#DBDBDB"/>
<path d="M235.001 217.668H184.949V217.818H235.001V217.668Z" fill="#DBDBDB"/>
<path d="M235.251 221.4H185.229C185.226 221.35 185.226 221.3 185.229 221.25H235.251C235.233 221.316 235.245 221.4 235.251 221.4Z" fill="#DBDBDB"/>
<path d="M236.202 225H186.138C186.118 224.951 186.102 224.901 186.09 224.85H236.154C236.166 224.901 236.182 224.951 236.202 225Z" fill="#DBDBDB"/>
<path d="M190.667 228.343H190.511C190.115 227.263 189.719 226.123 189.371 225.013C189.371 224.959 189.341 224.911 189.329 224.863C188.967 223.734 188.674 222.584 188.453 221.419C188.45 221.369 188.45 221.319 188.453 221.269C188.356 220.752 188.304 220.228 188.297 219.703V178.303H188.399V219.703C188.406 220.228 188.459 220.752 188.555 221.269C188.555 221.317 188.555 221.365 188.555 221.419C188.781 222.583 189.076 223.733 189.437 224.863C189.437 224.911 189.467 224.965 189.485 225.013C189.875 226.129 190.271 227.269 190.667 228.343Z" fill="#DBDBDB"/>
<path d="M194.265 228.343H194.109C193.713 227.263 193.317 226.123 192.969 225.013C192.969 224.959 192.939 224.911 192.927 224.863C192.565 223.734 192.272 222.584 192.051 221.419C192.048 221.369 192.048 221.319 192.051 221.269C191.954 220.752 191.902 220.228 191.895 219.703V178.303H191.997V219.703C192.004 220.228 192.056 220.752 192.153 221.269C192.153 221.317 192.153 221.365 192.153 221.419C192.379 222.583 192.674 223.733 193.035 224.863C193.035 224.911 193.065 224.965 193.083 225.013C193.473 226.129 193.869 227.269 194.265 228.343Z" fill="#DBDBDB"/>
<path d="M197.861 228.343H197.705C197.309 227.263 196.913 226.123 196.565 225.013C196.565 224.959 196.535 224.911 196.523 224.863C196.161 223.734 195.868 222.584 195.647 221.419C195.634 221.369 195.624 221.319 195.617 221.269C195.521 220.752 195.468 220.228 195.461 219.703V178.303H195.599V219.703C195.606 220.228 195.659 220.752 195.755 221.269C195.755 221.317 195.755 221.365 195.755 221.419C195.982 222.583 196.276 223.733 196.637 224.863C196.637 224.911 196.637 224.965 196.685 225.013C197.069 226.129 197.465 227.269 197.861 228.343Z" fill="#DBDBDB"/>
<path d="M201.462 228.343H201.306C200.91 227.263 200.514 226.123 200.166 225.013C200.166 224.959 200.136 224.911 200.118 224.863C199.759 223.733 199.466 222.583 199.242 221.419C199.242 221.371 199.242 221.317 199.242 221.269C199.146 220.752 199.093 220.228 199.086 219.703V178.303H199.2V219.703C199.207 220.228 199.26 220.752 199.356 221.269C199.356 221.317 199.356 221.365 199.356 221.419C199.583 222.583 199.877 223.733 200.238 224.863C200.238 224.911 200.238 224.965 200.286 225.013C200.67 226.129 201.066 227.269 201.462 228.343Z" fill="#DBDBDB"/>
<path d="M205.052 228.343H204.896C204.5 227.263 204.104 226.123 203.756 225.013C203.756 224.959 203.726 224.911 203.714 224.863C203.352 223.734 203.06 222.584 202.838 221.419C202.825 221.369 202.815 221.319 202.808 221.269C202.712 220.752 202.66 220.228 202.652 219.703V178.303H202.796V219.703C202.804 220.228 202.856 220.752 202.952 221.269C202.952 221.317 202.952 221.365 202.952 221.419C203.179 222.583 203.473 223.733 203.834 224.863C203.834 224.911 203.864 224.965 203.882 225.013C204.26 226.129 204.656 227.269 205.052 228.343Z" fill="#DBDBDB"/>
<path d="M208.654 228.343H208.498C208.102 227.263 207.706 226.123 207.358 225.013C207.358 224.959 207.328 224.911 207.316 224.863C206.954 223.734 206.661 222.584 206.44 221.419C206.427 221.369 206.417 221.319 206.41 221.269C206.314 220.752 206.261 220.228 206.254 219.703V178.303H206.398V219.703C206.405 220.228 206.458 220.752 206.554 221.269C206.554 221.317 206.554 221.365 206.554 221.419C206.78 222.583 207.075 223.733 207.436 224.863C207.436 224.911 207.466 224.965 207.484 225.013C207.862 226.129 208.258 227.269 208.654 228.343Z" fill="#DBDBDB"/>
<path d="M212.247 228.343H212.091C211.695 227.263 211.299 226.123 210.951 225.013C210.951 224.959 210.951 224.911 210.903 224.863C210.544 223.733 210.251 222.583 210.027 221.419C210.027 221.371 210.027 221.317 210.027 221.269C209.931 220.752 209.879 220.228 209.871 219.703V178.303H209.997V219.703C210.005 220.228 210.057 220.752 210.153 221.269C210.153 221.317 210.153 221.365 210.153 221.419C210.38 222.583 210.674 223.733 211.035 224.863C211.035 224.911 211.065 224.965 211.083 225.013C211.455 226.129 211.851 227.269 212.247 228.343Z" fill="#DBDBDB"/>
<path d="M215.849 228.343H215.693C215.297 227.263 214.901 226.123 214.553 225.013C214.553 224.959 214.553 224.911 214.505 224.863C214.146 223.733 213.853 222.583 213.629 221.419C213.629 221.371 213.629 221.317 213.629 221.269C213.532 220.752 213.48 220.228 213.473 219.703V178.303H213.599V219.703C213.606 220.228 213.658 220.752 213.755 221.269C213.755 221.317 213.755 221.365 213.755 221.419C213.981 222.583 214.276 223.733 214.637 224.863C214.637 224.911 214.667 224.965 214.685 225.013C215.057 226.129 215.453 227.269 215.849 228.343Z" fill="#DBDBDB"/>
<path d="M219.443 228.343H219.287C218.891 227.263 218.495 226.123 218.147 225.013C218.147 224.959 218.117 224.911 218.105 224.863C217.743 223.734 217.45 222.584 217.229 221.419C217.216 221.369 217.206 221.319 217.199 221.269C217.103 220.752 217.05 220.228 217.043 219.703V178.303H217.199V219.703C217.206 220.228 217.259 220.752 217.355 221.269C217.355 221.317 217.355 221.365 217.355 221.419C217.582 222.583 217.876 223.733 218.237 224.863C218.237 224.911 218.267 224.965 218.285 225.013C218.651 226.129 219.047 227.269 219.443 228.343Z" fill="#DBDBDB"/>
<path d="M223.041 228.343H222.885C222.489 227.263 222.093 226.123 221.745 225.013C221.745 224.959 221.715 224.911 221.703 224.863C221.341 223.734 221.048 222.584 220.827 221.419C220.814 221.369 220.804 221.319 220.797 221.269C220.7 220.752 220.648 220.228 220.641 219.703V178.303H220.797V219.703C220.804 220.228 220.856 220.752 220.953 221.269C220.953 221.317 220.953 221.365 220.953 221.419C221.179 222.583 221.474 223.733 221.835 224.863C221.835 224.911 221.865 224.965 221.883 225.013C222.249 226.129 222.645 227.269 223.041 228.343Z" fill="#DBDBDB"/>
<path d="M226.636 228.341H226.48C226.084 227.261 225.688 226.121 225.34 225.011C225.34 224.957 225.31 224.909 225.292 224.861C224.926 223.726 224.628 222.57 224.398 221.399C224.398 221.351 224.398 221.297 224.398 221.249C224.302 220.733 224.25 220.209 224.242 219.683V178.283H224.398V219.683C224.406 220.209 224.458 220.733 224.554 221.249C224.554 221.297 224.554 221.345 224.554 221.399C224.781 222.563 225.075 223.713 225.436 224.843C225.436 224.891 225.466 224.945 225.484 224.993C225.844 226.127 226.24 227.267 226.636 228.341Z" fill="#DBDBDB"/>
<path d="M230.238 228.341H230.082C229.686 227.261 229.29 226.121 228.942 225.011C228.942 224.957 228.912 224.909 228.894 224.861C228.528 223.726 228.229 222.57 228 221.399C228 221.351 228 221.297 228 221.249C227.903 220.733 227.851 220.209 227.844 219.683V178.283H228V219.683C228.007 220.209 228.059 220.733 228.156 221.249C228.156 221.297 228.156 221.345 228.156 221.399C228.382 222.563 228.677 223.713 229.038 224.843C229.038 224.891 229.068 224.945 229.086 224.993C229.446 226.127 229.842 227.267 230.238 228.341Z" fill="#DBDBDB"/>
<path d="M233.829 228.341H233.673C233.277 227.261 232.881 226.121 232.533 225.011C232.533 224.957 232.503 224.909 232.491 224.861C232.123 223.727 231.824 222.57 231.597 221.399C231.595 221.349 231.595 221.299 231.597 221.249C231.501 220.733 231.449 220.209 231.441 219.683V178.283H231.597V219.683C231.605 220.209 231.657 220.733 231.753 221.249C231.753 221.297 231.753 221.345 231.753 221.399C231.98 222.563 232.274 223.713 232.635 224.843C232.635 224.891 232.665 224.945 232.683 224.993C233.037 226.127 233.433 227.267 233.829 228.341Z" fill="#DBDBDB"/>
<path d="M192.473 188.149C195.431 188.023 198.395 187.969 201.353 187.921C204.311 187.873 207.269 187.873 210.233 187.849C213.197 187.825 216.149 187.849 219.107 187.921L223.547 188.005C225.029 188.053 226.505 188.083 227.987 188.149C226.505 188.215 225.029 188.245 223.547 188.299L219.107 188.383C216.149 188.425 213.191 188.425 210.233 188.449C207.275 188.473 204.311 188.449 201.353 188.377C198.395 188.305 195.431 188.275 192.473 188.149Z" fill="#263238"/>
<path d="M192.473 191.676C195.431 191.556 198.395 191.496 201.353 191.448C204.311 191.4 207.269 191.4 210.233 191.376C213.197 191.352 216.149 191.376 219.107 191.448L223.547 191.532C225.029 191.58 226.505 191.61 227.987 191.676C226.505 191.748 225.029 191.772 223.547 191.826L219.107 191.91C216.149 191.958 213.191 191.952 210.233 191.976C207.275 192 204.311 191.976 201.353 191.91C198.395 191.844 195.431 191.802 192.473 191.676Z" fill="#263238"/>
<path d="M192.473 195.204C194.591 195.084 196.673 195.024 198.821 194.976C200.969 194.928 203.051 194.916 205.169 194.904C207.287 194.892 209.399 194.904 211.517 194.976L214.685 195.06C215.747 195.108 216.803 195.138 217.859 195.204C216.803 195.276 215.747 195.306 214.685 195.354L211.517 195.438C209.399 195.492 207.281 195.498 205.169 195.504C203.057 195.51 200.933 195.504 198.821 195.438C196.709 195.372 194.591 195.33 192.473 195.204Z" fill="#263238"/>
<path d="M192.473 202.267C193.757 202.141 195.041 202.087 196.325 202.039C197.609 201.991 198.893 201.973 200.177 201.967C201.461 201.961 202.745 201.967 204.035 202.033L205.961 202.117C206.603 202.171 207.245 202.195 207.887 202.267C207.245 202.333 206.603 202.363 205.961 202.411L204.035 202.495C202.745 202.549 201.461 202.561 200.177 202.567C198.893 202.573 197.609 202.567 196.325 202.495C195.041 202.423 193.757 202.387 192.473 202.267Z" fill="#263238"/>
<path d="M192.473 205.799C195.431 205.673 198.395 205.619 201.353 205.571C204.311 205.523 207.269 205.523 210.233 205.499C213.197 205.475 216.149 205.499 219.107 205.565L223.547 205.649C225.029 205.703 226.505 205.733 227.987 205.799C226.505 205.865 225.029 205.895 223.547 205.943L219.107 206.027C216.149 206.075 213.191 206.075 210.233 206.099C207.275 206.123 204.311 206.099 201.353 206.027C198.395 205.955 195.431 205.919 192.473 205.799Z" fill="#263238"/>
<path d="M192.473 209.323C194.987 209.203 197.495 209.143 200.009 209.095C202.523 209.047 205.031 209.047 207.545 209.023C210.059 208.999 212.567 209.023 215.081 209.095L218.849 209.179C220.103 209.227 221.363 209.257 222.617 209.323C221.363 209.389 220.103 209.419 218.849 209.473L215.081 209.557C212.567 209.605 210.059 209.599 207.545 209.623C205.031 209.647 202.523 209.623 200.009 209.551C197.495 209.479 194.999 209.449 192.473 209.323Z" fill="#263238"/>
<path d="M192.473 212.851C194.549 212.731 196.619 212.671 198.695 212.623C200.771 212.575 202.841 212.563 204.917 212.551C206.993 212.539 209.063 212.551 211.139 212.623L214.253 212.707C215.291 212.755 216.323 212.785 217.361 212.851C216.323 212.923 215.291 212.953 214.253 213.001L211.139 213.085C209.063 213.139 206.993 213.145 204.917 213.151C202.841 213.157 200.771 213.151 198.695 213.085C196.619 213.019 194.549 213.001 192.473 212.851Z" fill="#263238"/>
<g opacity="0.5">
<path d="M198.868 173.196L196.684 174.618L199.15 173.67L200.08 175.224L199.084 176.094L200.356 175.68L200.71 176.28L199.354 177.264L200.902 176.598L201.172 177.048L182.878 187.98L182.074 186.636L183.508 185.688L181.864 186.276L181.522 185.706L182.596 184.938L181.342 185.4L181.174 185.124L182.884 183.738L180.742 184.404L180.16 183.426L198.454 172.5L198.868 173.196Z" fill="white"/>
<path d="M240.347 186.901L238.325 185.323L239.987 187.321L238.817 188.701L237.689 188.053L238.475 189.103L238.019 189.637L236.675 188.695L237.779 189.925L237.443 190.321L221.465 176.755L222.479 175.561L223.811 176.593L222.749 175.249L223.181 174.733L224.237 175.495L223.409 174.469L223.619 174.223L225.461 175.381L224.159 173.581L224.891 172.717L240.869 186.283L240.347 186.901Z" fill="white"/>
</g>
<path d="M267.912 156.93H234.264L226.734 151.764L234.264 146.604H267.912V156.93Z" fill="#FFC727"/>
<path d="M275.131 143.928H241.477L233.953 138.762L241.477 133.596H275.131V143.928Z" fill="#455A64"/>
<path d="M49.8007 257.454L145.651 257.862C168.949 239.568 171.355 212.466 154.735 196.062C144.673 186.126 131.899 188.13 119.737 186.546H119.701C115.405 186.099 111.226 184.879 107.365 182.946C94.8427 176.346 87.7807 160.746 77.2447 147.642C75.9307 145.998 74.5627 144.396 73.1167 142.842C64.4527 133.59 47.2087 133.29 38.1907 146.292C15.2827 179.316 25.8007 228.504 49.8007 257.454Z" fill="#DBDBDB"/>
<path d="M47.6827 181.837C50.1907 221.161 95.6107 235.837 123.973 224.059C148.639 213.817 140.563 190.459 119.773 186.523H119.737C115.441 186.076 111.262 184.856 107.401 182.923C94.8787 176.323 87.8167 160.723 77.2807 147.619C61.5607 139.441 45.8407 153.037 47.6827 181.837Z" fill="#C7C7C7"/>
<path d="M80.9364 128.161C87.7704 134.641 92.4684 151.495 89.0064 162.133C84.8784 174.805 73.5744 181.273 64.3044 178.273C55.9044 175.549 52.1784 167.041 55.2684 160.711C58.2684 154.603 63.9564 152.365 65.0124 146.911C65.5164 144.307 64.6464 139.987 64.8624 136.063C65.2464 128.941 75.6024 123.121 80.9364 128.161Z" fill="#263238"/>
<path d="M54.1406 162.176C54.5008 160.85 55.0612 159.588 55.8026 158.432C56.5087 157.304 57.3466 156.265 58.2986 155.336C59.2466 154.418 60.1766 153.47 61.0766 152.48C62.0028 151.477 62.8083 150.37 63.4766 149.18C63.823 148.562 64.1142 147.916 64.3466 147.248C64.5571 146.551 64.682 145.832 64.7186 145.106C64.762 143.673 64.73 142.239 64.6226 140.81C64.5306 139.406 64.599 137.997 64.8266 136.61C65.1513 135.246 65.7051 133.948 66.4646 132.77C65.6171 133.901 64.9846 135.178 64.5986 136.538C64.3127 137.943 64.1939 139.377 64.2446 140.81C64.2446 142.238 64.3706 143.666 64.2446 145.052C64.1984 145.732 64.0735 146.404 63.8726 147.056C63.6415 147.678 63.3585 148.28 63.0266 148.856C61.7426 151.226 59.8046 153.056 57.9926 155C57.0657 155.986 56.26 157.08 55.5926 158.258C54.9013 159.477 54.411 160.8 54.1406 162.176Z" fill="#263238"/>
<path d="M130.376 275.178C128.966 274.662 97.142 249.228 96.542 247.494C96.314 246.834 99.746 241.986 104.06 236.244C104.99 235.002 105.962 233.724 106.952 232.434C113.384 224.034 120.404 215.316 120.404 215.316L141.74 232.266L127.706 248.922L124.628 252.582C124.628 252.582 132.428 267.768 132.908 269.742C133.388 271.716 131.786 275.694 130.376 275.178Z" fill="#D3766A"/>
<path d="M130.376 275.18C128.966 274.664 97.1419 249.23 96.5419 247.496C96.2659 246.692 101.39 239.696 106.952 232.436L127.706 248.924L124.628 252.584C124.628 252.584 132.428 267.77 132.908 269.744C133.388 271.718 131.786 275.696 130.376 275.18Z" fill="white"/>
<path d="M130.376 275.178C128.966 274.662 97.142 249.228 96.542 247.494C96.314 246.834 99.746 241.986 104.06 236.244L124.628 252.6C124.628 252.6 132.428 267.786 132.908 269.76C133.388 271.734 131.786 275.694 130.376 275.178Z" fill="#FFC727"/>
<path d="M130.94 273.541C125.708 269.149 104.198 251.941 98.6962 247.975C98.6482 247.939 98.6242 247.975 98.6662 247.975C103.754 252.445 125.402 269.503 130.868 273.601C130.982 273.715 131.048 273.637 130.94 273.541Z" fill="#263238"/>
<path d="M131.772 266.965C131.192 266.474 130.517 266.11 129.789 265.896C129.06 265.681 128.295 265.62 127.542 265.717C126.185 265.876 124.942 266.556 124.074 267.613C124.074 267.643 124.11 267.691 124.14 267.661C125.166 266.749 126.46 266.195 127.827 266.082C129.195 265.968 130.562 266.301 131.724 267.031C131.733 267.034 131.743 267.035 131.752 267.032C131.761 267.03 131.769 267.024 131.774 267.016C131.78 267.009 131.782 267 131.782 266.99C131.782 266.981 131.778 266.972 131.772 266.965Z" fill="#263238"/>
<path d="M126.271 254.767C124.159 253.027 121.081 251.803 118.357 252.493C118.255 252.493 118.291 252.667 118.357 252.685C121.006 253.197 123.592 253.992 126.073 255.055C126.111 255.081 126.158 255.091 126.203 255.082C126.249 255.074 126.289 255.048 126.316 255.01C126.342 254.971 126.352 254.924 126.344 254.879C126.335 254.833 126.309 254.793 126.271 254.767Z" fill="#263238"/>
<path d="M127.407 256.723C125.295 254.989 122.217 253.765 119.493 254.449C119.391 254.479 119.427 254.629 119.493 254.647C122.143 255.16 124.729 255.954 127.209 257.017C127.248 257.043 127.296 257.053 127.342 257.044C127.388 257.035 127.429 257.008 127.455 256.969C127.482 256.93 127.491 256.882 127.482 256.836C127.473 256.79 127.446 256.749 127.407 256.723Z" fill="#263238"/>
<path d="M128.54 258.684C126.428 256.95 123.35 255.726 120.626 256.41C120.524 256.41 120.56 256.584 120.626 256.602C123.277 257.121 125.864 257.925 128.342 259.002C128.363 259.015 128.386 259.023 128.411 259.027C128.435 259.031 128.46 259.031 128.484 259.025C128.508 259.02 128.53 259.009 128.55 258.995C128.57 258.981 128.587 258.963 128.6 258.942C128.613 258.921 128.622 258.898 128.626 258.873C128.63 258.849 128.629 258.824 128.624 258.8C128.618 258.776 128.608 258.754 128.594 258.734C128.579 258.714 128.561 258.697 128.54 258.684Z" fill="#263238"/>
<path d="M129.673 260.647C127.561 258.907 124.483 257.683 121.765 258.367C121.657 258.397 121.699 258.547 121.765 258.565C124.415 259.077 127.001 259.871 129.481 260.935C129.52 260.96 129.566 260.969 129.611 260.96C129.656 260.951 129.696 260.925 129.721 260.887C129.747 260.848 129.756 260.802 129.747 260.757C129.738 260.712 129.712 260.672 129.673 260.647Z" fill="#263238"/>
<path d="M104.101 243.991C101.701 242.083 98.7311 245.791 101.137 247.723C103.543 249.655 106.507 245.905 104.101 243.991Z" fill="white"/>
<path d="M133.129 250.908C132.769 249.15 130.729 248.94 129.295 249.336C126.889 250.064 124.719 251.414 123.001 253.248C122.992 253.254 122.985 253.263 122.98 253.273C122.975 253.283 122.973 253.294 122.973 253.305C122.973 253.316 122.975 253.327 122.98 253.336C122.985 253.346 122.992 253.355 123.001 253.362C122.979 253.409 122.968 253.46 122.969 253.512C122.97 253.564 122.983 253.615 123.006 253.662C123.03 253.708 123.064 253.748 123.106 253.779C123.147 253.811 123.195 253.832 123.247 253.842C125.611 254.004 128.113 254.472 130.447 253.902C131.827 253.572 133.477 252.6 133.129 250.908ZM126.883 253.356C125.719 253.302 124.567 253.194 123.403 253.182C124.633 252.426 125.803 251.616 127.135 250.98C127.76 250.666 128.405 250.393 129.067 250.164C130.093 249.834 133.615 249.72 131.971 252.216C131.065 253.59 128.269 253.416 126.883 253.356Z" fill="#263238"/>
<path d="M117.055 249.799C118.687 251.569 121.027 252.571 123.055 253.747C123.103 253.77 123.154 253.78 123.206 253.779C123.259 253.777 123.31 253.763 123.355 253.738C123.401 253.713 123.44 253.677 123.469 253.634C123.498 253.591 123.517 253.541 123.523 253.489C123.571 253.489 123.613 253.459 123.601 253.405C123.192 250.923 122.134 248.592 120.535 246.649C119.587 245.533 117.757 244.567 116.473 245.827C115.189 247.087 116.101 248.767 117.055 249.799ZM116.737 247.555C116.737 244.555 119.623 246.619 120.289 247.465C120.715 248.021 121.1 248.607 121.441 249.217C122.132 250.487 122.759 251.791 123.319 253.123C122.347 252.481 121.327 251.923 120.319 251.323C119.143 250.609 116.725 249.199 116.737 247.555Z" fill="#263238"/>
<path d="M163.292 199.674C161.834 210.756 134.492 242.76 131.354 246.432L130.634 247.266L108.038 229.896L108.296 229.56L128.198 203.508L68.8398 203.16L91.3758 185.634C91.3758 185.634 93.2058 186.69 97.0038 186.132C110.108 184.218 139.64 179.97 146.606 180.252C155.588 180.6 164.636 189.498 163.292 199.674Z" fill="#37474F"/>
<path d="M135.343 193.801C134.608 194.637 133.922 195.517 133.291 196.435C132.589 197.359 131.875 198.271 131.173 199.195C131.299 198.925 131.419 198.655 131.551 198.385C131.995 197.467 132.349 196.519 132.871 195.643C132.876 195.632 132.877 195.621 132.874 195.61C132.871 195.599 132.865 195.589 132.855 195.582C132.846 195.576 132.834 195.573 132.823 195.574C132.812 195.575 132.801 195.58 132.793 195.589C132.253 196.465 131.629 197.293 131.167 198.211C130.945 198.643 130.741 199.075 130.567 199.519C130.465 199.765 130.357 200.011 130.261 200.257C130.213 200.372 130.171 200.491 130.135 200.611C129.817 201.037 129.535 201.469 129.205 201.907C128.533 202.879 127.945 203.905 127.267 204.865C127.231 204.919 127.309 204.967 127.351 204.919C128.035 204.013 128.803 203.167 129.505 202.267C130.207 201.367 130.885 200.413 131.551 199.465C132.217 198.517 132.835 197.611 133.483 196.681C134.195 195.77 134.851 194.816 135.445 193.825C135.421 193.831 135.373 193.801 135.343 193.801Z" fill="#263238"/>
<path d="M80.8565 164.875C84.0665 171.037 96.3665 190.753 103.254 191.551C107.772 192.073 125.454 188.587 128.136 184.057C129.294 182.083 125.766 169.459 123.432 170.203C121.098 170.947 106.956 174.247 105.144 173.911C103.332 173.575 88.6505 159.685 83.3525 156.397C74.2205 150.733 79.1285 161.557 80.8565 164.875Z" fill="#D3766A"/>
<path d="M117.931 169.801L120.211 189.067C120.211 189.067 106.297 193.045 100.015 191.299C92.377 189.181 80.005 166.699 78.271 163.009C75.427 156.913 75.871 153.091 79.411 153.799C80.791 154.063 82.633 154.999 84.937 156.799C87.337 158.659 101.263 170.833 105.553 172.999C107.947 174.271 117.931 169.801 117.931 169.801Z" fill="#455A64"/>
<path d="M117.932 169.8L120.212 189.072C120.212 189.072 117.902 189.732 114.74 190.392C110.144 191.358 103.742 192.33 100.016 191.298C92.3838 189.18 80.0058 166.698 78.2718 163.002C76.2138 158.598 75.8718 155.376 77.1978 154.2C77.5088 153.961 77.8724 153.799 78.2585 153.728C78.6445 153.657 79.0419 153.679 79.4178 153.792C80.7858 154.062 82.6338 154.992 84.9378 156.792C87.3378 158.652 101.258 170.832 105.548 173.028C107.948 174.276 117.932 169.8 117.932 169.8Z" fill="#FFC727"/>
<path d="M116.664 189.001C116.238 186.163 114.936 174.493 114.828 171.949C114.828 171.775 114.93 171.727 114.96 171.907C116.43 180.379 116.502 186.175 116.76 188.977C116.778 189.049 116.67 189.073 116.664 189.001Z" fill="#263238"/>
<path d="M78.2726 163.009C80.0006 166.723 92.3846 189.193 100.011 191.305C101.895 191.827 104.469 191.833 107.145 191.599L78.9446 153.733C78.6366 153.683 78.3214 153.7 78.0203 153.782C77.7192 153.863 77.439 154.008 77.1986 154.207C75.8786 155.401 76.2026 158.605 78.2726 163.009Z" fill="#263238"/>
<path d="M57.0781 200.809L93.1741 191.587L89.6161 178.555C89.6161 178.555 92.4721 174.469 91.2541 170.569C90.1741 167.095 81.9421 156.769 80.2801 155.383C77.4301 153.025 72.3301 152.233 69.5401 155.527C58.0321 169.093 57.0781 200.809 57.0781 200.809Z" fill="#FFC727"/>
<path opacity="0.1" d="M78.3023 154.16L68.7023 156.56C68.9723 156.206 69.2483 155.864 69.5303 155.528L69.7283 155.306L76.6163 153.602C77.1951 153.733 77.7597 153.919 78.3023 154.16ZM80.5643 155.642L67.0163 159.044C66.9563 159.146 66.8903 159.248 66.8363 159.35L80.7743 155.852L80.5643 155.642ZM82.3103 157.574L65.5103 161.774C65.3243 162.146 65.1383 162.53 64.9583 162.914L83.0063 158.402C82.7663 158.108 82.5323 157.832 82.3103 157.574ZM84.3803 160.106L63.9143 165.242L63.7943 165.53L84.5543 160.328L84.3803 160.106ZM85.9103 162.092L62.9063 167.864C62.7743 168.232 62.6483 168.598 62.5283 168.962L86.5283 162.962C86.3363 162.65 86.1203 162.368 85.9103 162.092ZM87.8003 164.672L61.8023 171.194C61.7688 171.284 61.7408 171.376 61.7183 171.47L87.9383 164.87C87.9023 164.822 87.8483 164.75 87.8003 164.672ZM89.1683 166.694L61.0763 173.744C60.9863 174.098 60.8903 174.458 60.7943 174.812L89.7203 167.558C89.5463 167.282 89.3663 166.994 89.1683 166.694ZM90.7403 169.358L60.2663 177.002C60.2663 177.092 60.2243 177.188 60.2003 177.278L90.8543 169.586C90.8224 169.507 90.7843 169.43 90.7403 169.358ZM91.4783 171.536L59.7143 179.504L59.4983 180.56L91.5563 172.52C91.557 172.19 91.5309 171.861 91.4783 171.536ZM59.0783 182.714C59.0783 182.804 59.0423 182.9 59.0303 182.99L91.2323 174.914C91.2323 174.818 91.2803 174.728 91.2983 174.632L59.0783 182.714ZM58.6583 185.186C58.6043 185.54 58.5503 185.888 58.5023 186.23L89.7023 178.4C89.9407 178.023 90.159 177.635 90.3563 177.236L58.6583 185.186ZM90.0923 180.356L58.2023 188.36L58.1663 188.63L90.1763 180.602L90.0923 180.356ZM90.6923 182.57L57.9083 190.802C57.8663 191.156 57.8243 191.498 57.7883 191.834L90.9683 183.506L90.6923 182.57ZM91.4723 185.432L57.5663 193.94C57.5663 194.03 57.5663 194.12 57.5663 194.21L91.5863 185.678L91.4723 185.432ZM92.0723 187.646L57.3563 196.358C57.3563 196.718 57.3023 197.06 57.2783 197.378L92.3543 188.582L92.0723 187.646ZM92.8523 190.502L57.1523 199.466C57.1523 199.556 57.1523 199.646 57.1523 199.73L92.9663 190.73L92.8523 190.502Z" fill="black"/>
<path d="M85.0949 160.729C86.0009 161.857 86.9849 162.937 87.9209 164.047C87.5069 163.231 87.0929 162.421 86.6429 161.647C87.3203 162.585 87.8993 163.59 88.3709 164.647C89.0747 165.479 89.7164 166.361 90.2909 167.287C91.0037 168.364 91.5159 169.561 91.8029 170.821C92.0287 172.103 91.9734 173.42 91.6409 174.679C91.2412 176.137 90.7069 177.555 90.0449 178.915C89.9609 179.095 89.6909 178.963 89.7569 178.783C90.6449 176.383 91.6469 173.851 91.2509 171.277C90.8549 168.703 89.3429 166.519 87.8669 164.437C86.9939 163.159 86.0399 161.939 85.0109 160.783C84.9689 160.741 85.0589 160.681 85.0949 160.729Z" fill="#263238"/>
<path d="M84.2915 176.844C82.6405 177.445 81.0361 178.167 79.4915 179.004C78.7295 179.436 77.9975 179.892 77.2715 180.372C76.9055 180.612 76.5395 180.834 76.1675 181.056C75.7943 181.306 75.3911 181.508 74.9675 181.656C74.9595 181.656 74.9519 181.66 74.9463 181.665C74.9407 181.671 74.9375 181.678 74.9375 181.686C74.9375 181.694 74.9407 181.702 74.9463 181.708C74.9519 181.713 74.9595 181.716 74.9675 181.716C75.3874 181.628 75.8004 181.51 76.2035 181.362C76.5882 181.206 76.9629 181.025 77.3255 180.822C78.0995 180.396 78.8495 179.934 79.6235 179.502C81.1775 178.626 82.7255 177.75 84.3395 176.988C84.4235 176.94 84.3695 176.814 84.2915 176.844Z" fill="#263238"/>
<path d="M88.856 177.216C87.4219 177.444 86.0017 177.753 84.602 178.14C83.9 178.332 83.222 178.566 82.544 178.824C82.22 178.944 81.902 179.07 81.584 179.202C81.266 179.334 80.894 179.538 80.546 179.676C80.504 179.676 80.546 179.748 80.546 179.736C80.888 179.616 81.242 179.55 81.59 179.448L82.622 179.142C83.318 178.938 84.008 178.74 84.698 178.542C86.078 178.122 87.458 177.72 88.856 177.342C88.964 177.312 88.934 177.204 88.856 177.216Z" fill="#263238"/>
<path d="M73.202 155.431C73.418 156.079 76.988 160.087 80.006 159.661C80.984 159.523 80.462 154.123 80.462 154.123L80.516 153.721L81.242 148.015L74.288 144.415L73.292 143.941C73.292 143.941 73.196 145.519 73.094 147.475V147.757C73.094 147.865 73.094 147.973 73.094 148.075C73.094 148.369 73.058 148.675 73.046 148.963C73.034 149.251 73.046 149.413 73.046 149.653V150.361C72.982 152.053 73.0341 153.747 73.202 155.431Z" fill="#D3766A"/>
<path d="M73.1016 147.481C73.8115 148.998 74.8431 150.342 76.1248 151.419C77.4066 152.497 78.9076 153.283 80.5236 153.721L81.2496 148.015L74.2956 144.415L73.2996 143.941C73.2996 143.941 73.2036 145.525 73.1016 147.481Z" fill="#263238"/>
<path d="M88.3817 137.827C90.9557 147.583 85.3817 150.229 83.2997 150.781C81.3917 151.285 74.8217 152.749 71.2517 143.311C67.6817 133.873 71.4017 129.601 75.7097 128.221C80.0177 126.841 85.8017 128.077 88.3817 137.827Z" fill="#D3766A"/>
<path d="M86.6421 137.401C86.4103 137.413 86.1779 137.413 85.9461 137.401C85.7001 137.428 85.4519 137.376 85.2381 137.251C85.1791 137.198 85.1391 137.127 85.1239 137.049C85.1088 136.971 85.1194 136.89 85.1541 136.819C85.2461 136.69 85.3708 136.588 85.5153 136.524C85.6598 136.46 85.8189 136.435 85.9761 136.453C86.3012 136.437 86.6203 136.544 86.8701 136.753C86.9197 136.804 86.954 136.868 86.9693 136.938C86.9845 137.008 86.98 137.08 86.9564 137.147C86.9327 137.215 86.8908 137.274 86.8352 137.319C86.7797 137.364 86.7129 137.392 86.6421 137.401Z" fill="#263238"/>
<path d="M79.7376 138.367C79.9566 138.289 80.171 138.199 80.3796 138.097C80.6176 138.034 80.8284 137.895 80.9796 137.701C81.0143 137.629 81.0249 137.549 81.0098 137.471C80.9946 137.393 80.9546 137.322 80.8956 137.269C80.7627 137.183 80.6094 137.133 80.4513 137.126C80.2932 137.119 80.1359 137.153 79.9956 137.227C79.6892 137.33 79.4323 137.544 79.2756 137.827C79.2374 137.894 79.2208 137.972 79.2283 138.049C79.2358 138.126 79.2669 138.2 79.3173 138.259C79.3678 138.318 79.4352 138.36 79.5104 138.379C79.5856 138.398 79.6649 138.394 79.7376 138.367Z" fill="#263238"/>
<path d="M81.561 139.992C81.561 139.992 81.513 140.04 81.519 140.064C81.687 140.73 81.765 141.522 81.207 141.864C81.207 141.864 81.207 141.912 81.207 141.9C81.939 141.648 81.825 140.598 81.561 139.992Z" fill="#263238"/>
<path d="M80.8087 139.423C79.7107 139.573 80.0887 141.757 81.1087 141.619C82.1287 141.481 81.7267 139.297 80.8087 139.423Z" fill="#263238"/>
<path d="M80.4015 139.615C80.2335 139.771 80.0835 140.023 79.8555 140.083C79.6275 140.143 79.3515 139.963 79.1415 139.771C79.1415 139.771 79.1055 139.771 79.1055 139.807C79.1775 140.227 79.4115 140.623 79.8675 140.611C80.3235 140.599 80.5215 140.173 80.5515 139.735C80.5575 139.651 80.4675 139.549 80.4015 139.615Z" fill="#263238"/>
<path d="M85.5014 139.051C85.5014 139.051 85.5554 139.051 85.5614 139.105C85.6514 139.783 85.8734 140.551 86.5214 140.671V140.713C85.7594 140.731 85.4774 139.711 85.5014 139.051Z" fill="#263238"/>
<path d="M85.9859 138.247C87.0599 137.983 87.5099 140.155 86.5139 140.395C85.5179 140.635 85.0799 138.469 85.9859 138.247Z" fill="#263238"/>
<path d="M86.467 138.295C86.665 138.373 86.875 138.547 87.067 138.517C87.259 138.487 87.433 138.211 87.541 137.959C87.541 137.929 87.541 137.959 87.577 137.959C87.673 138.367 87.625 138.829 87.247 138.991C86.869 139.153 86.557 138.841 86.371 138.445C86.353 138.391 86.401 138.259 86.467 138.295Z" fill="#263238"/>
<path d="M82.8031 145.747C82.9831 145.891 83.1751 146.089 83.4031 146.077C83.6546 146.038 83.8955 145.948 84.1111 145.813C84.1111 145.813 84.1592 145.813 84.1472 145.813C84.0671 145.959 83.9489 146.081 83.8053 146.165C83.6616 146.25 83.4978 146.294 83.3312 146.293C83.1903 146.271 83.0586 146.209 82.9521 146.115C82.8457 146.02 82.7689 145.896 82.7312 145.759C82.6952 145.753 82.7431 145.729 82.8031 145.747Z" fill="#263238"/>
<path d="M85.1367 142.8C85.1367 142.8 85.4667 143.784 85.5567 144.258C85.5567 144.3 85.4547 144.348 85.2927 144.384C84.8985 144.535 84.47 144.575 84.0549 144.497C83.6397 144.42 83.2541 144.229 82.9407 143.946C82.9324 143.938 82.9272 143.927 82.926 143.916C82.9249 143.905 82.9278 143.893 82.9343 143.884C82.9408 143.874 82.9505 143.868 82.9616 143.865C82.9727 143.862 82.9844 143.863 82.9947 143.868C83.6794 144.17 84.443 144.244 85.1727 144.078C85.1727 143.94 84.5727 142.41 84.6267 142.392C85.0029 142.356 85.3822 142.37 85.7547 142.434C85.1547 140.37 84.1827 138.42 83.5947 136.35C83.5891 136.334 83.5896 136.317 83.5961 136.302C83.6026 136.287 83.6146 136.274 83.6298 136.268C83.6449 136.261 83.6621 136.26 83.6778 136.265C83.6936 136.27 83.7068 136.281 83.7147 136.296C84.7963 138.356 85.6687 140.518 86.3187 142.752C86.4027 143.004 85.3467 142.83 85.1367 142.8Z" fill="#263238"/>
<path d="M71.3531 143.857C71.9625 143.47 72.4615 142.931 72.802 142.294C73.1426 141.658 73.3131 140.944 73.2972 140.221C74.9715 139.26 76.3576 137.868 77.3112 136.189C77.2692 136.405 76.9451 137.953 76.7591 138.739C83.0051 136.843 84.4452 131.743 84.4452 131.743C85.7878 132.732 86.891 134.009 87.6731 135.481C87.6731 135.481 87.2831 131.563 84.9851 129.163C84.2325 128.322 83.2692 127.697 82.1945 127.352C81.1198 127.008 79.9727 126.955 78.8711 127.201C77.2542 126.993 75.6109 127.224 74.1145 127.872C72.6182 128.519 71.3242 129.558 70.3691 130.879C66.7211 135.859 71.3531 143.857 71.3531 143.857Z" fill="#263238"/>
<path d="M81.4956 137.148C80.5316 137.823 79.4718 138.349 78.3516 138.708C80.0902 138.02 81.6028 136.861 82.7196 135.36C83.1927 134.72 83.5837 134.022 83.8836 133.284C84.2515 132.491 84.4555 131.632 84.4836 130.758C84.4836 130.692 84.5796 130.692 84.5796 130.758C84.6483 131.623 84.5713 132.493 84.3516 133.332C84.0934 134.155 83.6867 134.924 83.1516 135.6C82.6736 136.196 82.1164 136.722 81.4956 137.166" fill="#263238"/>
<path d="M73.0025 143.653C73.0025 143.653 70.2965 140.929 69.0185 141.943C67.7405 142.957 70.1585 147.175 71.9165 147.505C72.1392 147.563 72.3714 147.575 72.5989 147.54C72.8265 147.506 73.0446 147.425 73.2403 147.304C73.436 147.183 73.6051 147.024 73.7375 146.835C73.8699 146.647 73.9627 146.434 74.0105 146.209L73.0025 143.653Z" fill="#D3766A"/>
<path d="M69.7383 143.137V143.179C70.9803 143.449 71.7783 144.421 72.3963 145.459C72.3078 145.355 72.1979 145.272 72.0741 145.215C71.9504 145.157 71.8156 145.128 71.6793 145.128C71.5429 145.128 71.4082 145.157 71.2844 145.215C71.1606 145.272 71.0507 145.355 70.9623 145.459C70.9623 145.459 70.9623 145.525 71.0043 145.513C71.1968 145.414 71.4151 145.376 71.6298 145.405C71.8445 145.434 72.045 145.528 72.2043 145.675C72.4688 145.925 72.7061 146.203 72.9123 146.503C72.9843 146.599 73.1583 146.503 73.0983 146.395C72.8583 144.877 71.3523 143.011 69.7383 143.137Z" fill="#263238"/>
<path d="M65.358 160.531C59.958 168.991 53.778 182.497 53.61 192.049C53.526 196.711 61.59 200.947 64.53 199.537C71.43 196.207 81.042 188.563 84.822 183.523C86.16 181.723 71.874 169.777 70.824 171.913C69.774 174.049 69.126 175.297 68.076 176.113C67.56 176.515 70.596 170.233 72.126 161.437C74.208 149.431 67.314 157.465 65.358 160.531Z" fill="#D3766A"/>
<path d="M82.1224 151.392C82.1224 151.392 79.8845 148.62 81.9005 147.252C83.9165 145.884 85.6744 148.968 85.6744 148.968L82.1224 151.392Z" fill="#FF91B4"/>
<path d="M85.5915 148.873L82.043 151.295L96.1595 171.981L99.708 169.56L85.5915 148.873Z" fill="#FFC727"/>
<path opacity="0.2" d="M85.5915 148.873L82.043 151.295L96.1595 171.981L99.708 169.56L85.5915 148.873Z" fill="black"/>
<path d="M85.8151 148.552L81.6719 151.379L82.2333 152.202L86.3765 149.374L85.8151 148.552Z" fill="#37474F"/>
<path d="M86.4284 149.462L82.2852 152.289L82.8466 153.112L86.9898 150.284L86.4284 149.462Z" fill="#37474F"/>
<path d="M99.7161 169.536L100.124 173.004L100.262 174.144L99.2421 173.604L96.1641 171.96V171.204L96.8661 171.48V170.718L97.5741 170.994V170.238L98.2881 170.508V169.752L98.9961 170.022V169.266L99.7161 169.536Z" fill="white"/>
<path d="M100.124 173.004L100.262 174.144L99.2422 173.604L100.124 173.004Z" fill="#37474F"/>
<path d="M92.3491 154.722C93.6271 156.486 89.0131 159.264 89.0131 159.264C89.9496 159.226 90.8697 159.519 91.6111 160.092C92.8771 161.16 91.7551 163.608 91.7551 163.608C92.7355 163.771 93.6435 164.227 94.3591 164.916C95.4631 166.062 94.6831 168.69 94.6831 168.69C95.5012 169.339 96.0573 170.262 96.2491 171.288C96.6571 174.042 93.2011 176.58 91.3711 178.578C89.4091 180.714 85.5631 182.748 84.0751 184.302L70.3711 173.016C70.3711 173.016 74.7571 161.88 78.6031 158.88C80.7451 157.2 90.3991 152.028 92.3491 154.722Z" fill="#D3766A"/>
<path d="M88.9394 159.241C86.1434 160.225 83.5934 161.869 81.1394 163.489C81.0854 163.525 81.1394 163.609 81.1994 163.573C83.5994 161.935 86.5214 160.903 88.9994 159.373C89.0169 159.365 89.0305 159.35 89.0373 159.332C89.044 159.314 89.0434 159.294 89.0354 159.277C89.0275 159.259 89.0129 159.246 88.9949 159.239C88.9769 159.232 88.9569 159.233 88.9394 159.241Z" fill="#263238"/>
<path d="M91.5619 163.471C90.9492 163.758 90.3764 164.123 89.8579 164.557C89.2579 164.977 88.7119 165.415 88.1539 165.859C87.0259 166.739 85.9239 167.653 84.8479 168.601C84.7999 168.643 84.8479 168.721 84.9019 168.685C86.0239 167.803 87.1579 166.939 88.3219 166.105C88.9219 165.685 89.4799 165.277 90.0679 164.863C90.6442 164.523 91.1815 164.121 91.6699 163.663C91.6953 163.649 91.714 163.625 91.7219 163.597C91.7298 163.569 91.7262 163.539 91.7119 163.513C91.6975 163.488 91.6737 163.469 91.6456 163.461C91.6174 163.453 91.5873 163.457 91.5619 163.471Z" fill="#263238"/>
<path d="M94.6354 168.726C94.0856 168.992 93.5846 169.349 93.1534 169.782C92.6494 170.196 92.1454 170.61 91.6354 171.018C90.6214 171.834 89.6014 172.65 88.5574 173.418C88.5034 173.454 88.5574 173.538 88.6174 173.502C89.6794 172.71 90.7594 171.936 91.8154 171.138C92.3374 170.748 92.8534 170.352 93.3694 169.938C93.874 169.618 94.3187 169.211 94.6834 168.738C94.6834 168.738 94.6654 168.72 94.6354 168.726Z" fill="#263238"/>
<path d="M77.8516 159.552C78.9062 158.252 80.3346 157.307 81.9436 156.846C82.0096 156.846 82.0096 156.846 81.9436 156.894C80.4801 157.613 79.1133 158.514 77.8756 159.576L77.8516 159.552Z" fill="#263238"/>
<path d="M85.5018 186.037L70.6038 171.367L68.3298 175.489C68.3298 175.489 71.7258 166.315 72.5898 161.311C73.4538 156.307 73.3098 150.439 66.9618 157.939C60.7458 165.283 52.4178 186.469 52.8438 191.959C53.2698 197.449 60.2538 200.773 63.7698 200.143C67.2858 199.513 85.5018 186.037 85.5018 186.037Z" fill="#FFC727"/>
<path d="M81.6 187.621C79.518 185.647 71.298 177.259 69.642 175.327C69.528 175.189 69.588 175.087 69.726 175.213C76.104 180.973 79.734 185.491 81.672 187.531C81.732 187.585 81.666 187.669 81.6 187.621Z" fill="#263238"/>
<path d="M57.674 190.351C58.478 188.959 59.414 187.621 60.308 186.277C61.202 184.933 62.108 183.571 63.044 182.251C63.98 180.931 65 179.641 66.008 178.351C66.506 177.703 67.484 176.443 67.988 175.801C68.492 175.159 68.54 175.309 68.066 176.005C67.592 176.701 66.68 177.961 66.224 178.633C65.33 179.953 64.424 181.285 63.53 182.587C62.636 183.889 61.64 185.179 60.686 186.469C59.732 187.759 58.802 189.127 57.776 190.399C57.734 190.453 57.644 190.411 57.674 190.351Z" fill="#263238"/>
<path d="M69.5674 170.935C70.0834 169.417 70.7074 167.935 71.1094 166.363C71.1094 166.303 71.2234 166.327 71.2054 166.363C70.9054 167.389 70.6714 168.427 70.4014 169.459C70.4296 169.418 70.4556 169.376 70.4794 169.333C70.7134 168.937 70.9414 168.529 71.1634 168.133C71.1934 168.079 71.2774 168.133 71.2474 168.187C71.0434 168.601 70.8394 169.021 70.6474 169.441C70.5112 169.787 70.3404 170.119 70.1374 170.431C70.0714 170.653 70.0114 170.875 69.9394 171.097C69.4757 172.621 68.9043 174.111 68.2294 175.555C68.2176 175.571 68.2006 175.583 68.1812 175.589C68.1618 175.594 68.1411 175.593 68.1224 175.585C68.1038 175.578 68.0882 175.564 68.0782 175.547C68.0682 175.529 68.0644 175.509 68.0674 175.489C68.5114 173.965 69.0454 172.441 69.5674 170.935Z" fill="#263238"/>
<path d="M70.4889 171.282C70.5369 171.204 70.9029 171.588 71.0889 171.792C71.1189 171.822 71.0889 171.84 71.0349 171.792C70.9809 171.744 70.7769 171.648 70.6629 171.552C70.3149 172.248 68.3829 175.53 68.2629 175.674C68.1429 175.818 68.1429 175.674 68.1729 175.59C68.2569 175.248 70.0569 171.996 70.4889 171.282Z" fill="#263238"/>
<path d="M68.6583 197.587C72.9543 194.449 77.3343 191.413 81.8163 188.539C83.0163 187.747 84.2163 186.901 85.4163 186.079C85.2843 185.995 84.0723 184.711 84.0363 184.663C84.0003 184.615 84.0363 184.603 84.0363 184.627C84.1743 184.741 85.7223 185.995 85.8363 186.139C85.9503 186.283 81.3423 189.337 79.1883 190.861C77.0343 192.385 74.7723 193.831 72.5343 195.271C71.2623 196.087 69.9843 196.891 68.6883 197.671C68.6523 197.701 68.6103 197.623 68.6583 197.587Z" fill="#263238"/>
<path d="M117.536 191.142L95.0664 193.086L103.07 163.35L125.54 161.406L117.536 191.142Z" fill="#EBEBEB"/>
<path d="M119.078 191.011L96.6016 192.949L104.606 163.213L127.076 161.275L119.078 191.011Z" fill="#FFC727"/>
<path d="M106.995 163.008C106.884 163.526 106.573 163.978 106.131 164.268C105.927 164.4 105.849 164.124 106.047 163.998C106.335 163.812 106.548 163.529 106.647 163.2C106.664 163.147 106.678 163.093 106.689 163.038C106.737 162.857 106.737 162.667 106.689 162.486C106.665 162.41 106.616 162.345 106.551 162.3H106.521C106.507 162.303 106.492 162.303 106.479 162.3C106.428 162.283 106.373 162.283 106.323 162.3C106.228 162.346 106.144 162.411 106.077 162.492C105.997 162.589 105.931 162.696 105.879 162.81C105.879 162.864 105.825 162.924 105.795 162.984V163.02V163.08C105.793 163.094 105.793 163.108 105.795 163.122L105.477 163.152C105.535 162.941 105.622 162.739 105.735 162.552C105.819 162.399 105.935 162.265 106.076 162.162C106.217 162.058 106.379 161.987 106.551 161.952C106.677 161.938 106.803 161.974 106.904 162.051C107.004 162.128 107.071 162.241 107.091 162.366C107.113 162.585 107.08 162.805 106.995 163.008Z" fill="#455A64"/>
<path d="M108.752 162.858C108.641 163.376 108.33 163.829 107.888 164.118C107.684 164.25 107.606 163.974 107.81 163.848C108.095 163.658 108.306 163.377 108.41 163.05C108.41 162.996 108.44 162.936 108.446 162.888C108.494 162.708 108.494 162.517 108.446 162.336C108.421 162.26 108.37 162.194 108.302 162.15H108.254C108.203 162.134 108.148 162.134 108.098 162.15C108.004 162.192 107.922 162.256 107.858 162.336C107.744 162.491 107.65 162.658 107.576 162.834V162.87C107.574 162.89 107.574 162.911 107.576 162.93C107.573 162.944 107.573 162.959 107.576 162.972H107.258C107.317 162.762 107.404 162.56 107.516 162.372C107.6 162.219 107.716 162.086 107.857 161.982C107.998 161.879 108.16 161.807 108.332 161.772C108.458 161.759 108.584 161.794 108.685 161.871C108.786 161.948 108.852 162.061 108.872 162.186C108.891 162.417 108.85 162.649 108.752 162.858Z" fill="#455A64"/>
<path d="M110.51 162.708C110.401 163.223 110.093 163.675 109.652 163.962C109.448 164.1 109.364 163.824 109.568 163.692C109.851 163.503 110.062 163.224 110.168 162.9C110.182 162.845 110.194 162.789 110.204 162.732C110.252 162.551 110.252 162.361 110.204 162.18C110.175 162.105 110.125 162.041 110.06 161.994H110.018C109.962 161.99 109.906 162 109.856 162.024C109.761 162.065 109.678 162.129 109.616 162.21C109.532 162.304 109.465 162.412 109.418 162.528C109.384 162.583 109.356 162.642 109.334 162.702V162.744C109.33 162.764 109.33 162.784 109.334 162.804C109.334 162.804 109.334 162.804 109.334 162.84L109.016 162.87C109.075 162.66 109.161 162.458 109.274 162.27C109.36 162.118 109.477 161.986 109.617 161.883C109.758 161.779 109.919 161.707 110.09 161.67C110.216 161.658 110.343 161.695 110.443 161.773C110.544 161.851 110.61 161.965 110.63 162.09C110.643 162.303 110.602 162.516 110.51 162.708Z" fill="#455A64"/>
<path d="M112.268 162.553C112.216 162.809 112.113 163.053 111.965 163.269C111.818 163.485 111.629 163.67 111.41 163.813C111.206 163.945 111.122 163.669 111.326 163.543C111.613 163.355 111.825 163.073 111.926 162.745C111.942 162.692 111.954 162.638 111.962 162.583C112.011 162.402 112.011 162.212 111.962 162.031C111.936 161.955 111.885 161.89 111.818 161.845H111.788H111.746C111.695 161.831 111.641 161.831 111.59 161.845C111.494 161.889 111.41 161.955 111.344 162.037C111.263 162.133 111.196 162.24 111.146 162.355C111.115 162.411 111.087 162.469 111.062 162.529V162.565V162.625C111.062 162.625 111.062 162.625 111.062 162.667L110.738 162.697C110.797 162.486 110.883 162.284 110.996 162.097C111.082 161.945 111.199 161.813 111.34 161.71C111.481 161.606 111.642 161.534 111.812 161.497C111.939 161.483 112.066 161.518 112.168 161.595C112.269 161.672 112.338 161.785 112.358 161.911C112.382 162.129 112.351 162.35 112.268 162.553Z" fill="#455A64"/>
<path d="M114.031 162.402C113.92 162.919 113.61 163.372 113.167 163.662C112.963 163.794 112.879 163.518 113.083 163.392C113.37 163.204 113.582 162.922 113.683 162.594C113.683 162.54 113.713 162.48 113.719 162.432C113.768 162.251 113.768 162.061 113.719 161.88C113.696 161.802 113.645 161.736 113.575 161.694H113.533C113.483 161.677 113.428 161.677 113.377 161.694C113.282 161.736 113.197 161.799 113.131 161.88C113.052 161.979 112.985 162.088 112.933 162.204C112.903 162.258 112.879 162.318 112.849 162.378V162.414C112.845 162.434 112.845 162.454 112.849 162.474C112.849 162.474 112.849 162.474 112.849 162.516H112.531C112.587 162.305 112.671 162.103 112.783 161.916C112.867 161.763 112.984 161.629 113.125 161.526C113.266 161.422 113.428 161.351 113.599 161.316C113.726 161.301 113.854 161.335 113.956 161.412C114.058 161.49 114.126 161.604 114.145 161.73C114.167 161.96 114.127 162.192 114.031 162.402Z" fill="#455A64"/>
<path d="M115.801 162.252C115.69 162.768 115.379 163.218 114.937 163.506C114.733 163.644 114.649 163.368 114.853 163.236C115.138 163.049 115.35 162.769 115.453 162.444C115.47 162.389 115.484 162.333 115.495 162.276C115.544 162.097 115.544 161.909 115.495 161.73C115.473 161.652 115.424 161.584 115.357 161.538H115.201C115.147 161.533 115.093 161.544 115.045 161.568C114.948 161.607 114.864 161.672 114.799 161.754C114.72 161.851 114.653 161.958 114.601 162.072C114.601 162.126 114.547 162.186 114.517 162.246V162.288C114.515 162.308 114.515 162.328 114.517 162.348C114.517 162.348 114.517 162.348 114.517 162.384H114.199C114.256 162.174 114.341 161.972 114.451 161.784C114.538 161.633 114.655 161.501 114.796 161.397C114.936 161.294 115.097 161.221 115.267 161.184C115.395 161.172 115.522 161.208 115.623 161.286C115.725 161.364 115.792 161.478 115.813 161.604C115.863 161.818 115.859 162.04 115.801 162.252Z" fill="#455A64"/>
<path d="M117.548 162.103C117.435 162.618 117.125 163.068 116.684 163.357C116.48 163.489 116.402 163.213 116.6 163.087C116.888 162.9 117.101 162.618 117.2 162.289C117.218 162.236 117.232 162.182 117.242 162.127C117.291 161.946 117.291 161.756 117.242 161.575C117.218 161.499 117.17 161.434 117.104 161.389H117.074H117.002C116.951 161.374 116.897 161.374 116.846 161.389C116.75 161.433 116.666 161.498 116.6 161.581C116.521 161.678 116.454 161.785 116.402 161.899C116.372 161.953 116.348 162.013 116.318 162.073V162.115C116.316 162.133 116.316 162.151 116.318 162.169C116.316 162.183 116.316 162.197 116.318 162.211H116C116.055 161.999 116.142 161.797 116.258 161.611C116.342 161.457 116.459 161.324 116.6 161.22C116.741 161.117 116.902 161.045 117.074 161.011C117.2 160.997 117.327 161.032 117.427 161.109C117.528 161.186 117.595 161.299 117.614 161.425C117.651 161.653 117.628 161.886 117.548 162.103Z" fill="#455A64"/>
<path d="M119.306 161.946C119.196 162.464 118.885 162.916 118.442 163.206C118.238 163.338 118.16 163.062 118.364 162.936C118.649 162.746 118.861 162.465 118.964 162.138C118.964 162.084 118.994 162.024 119 161.976C119.049 161.796 119.049 161.605 119 161.424C118.976 161.348 118.925 161.282 118.856 161.238H118.808C118.758 161.221 118.703 161.221 118.652 161.238C118.559 161.28 118.476 161.344 118.413 161.424C118.329 161.521 118.262 161.63 118.214 161.748C118.181 161.803 118.152 161.862 118.13 161.922V161.958V162.018C118.128 162.032 118.128 162.046 118.13 162.06H117.812C117.873 161.85 117.959 161.649 118.07 161.46C118.155 161.307 118.271 161.174 118.412 161.07C118.553 160.966 118.715 160.895 118.886 160.86C119.013 160.847 119.139 160.882 119.24 160.959C119.34 161.036 119.407 161.149 119.426 161.274C119.446 161.505 119.405 161.737 119.306 161.946Z" fill="#455A64"/>
<path d="M121.065 161.796C120.956 162.311 120.648 162.762 120.207 163.05C120.003 163.188 119.919 162.912 120.123 162.786C120.405 162.593 120.616 162.313 120.723 161.988C120.738 161.933 120.75 161.877 120.759 161.82C120.807 161.641 120.807 161.453 120.759 161.274C120.732 161.197 120.682 161.129 120.615 161.082H120.549C120.493 161.078 120.437 161.088 120.387 161.112C120.292 161.153 120.21 161.217 120.147 161.298C120.065 161.393 119.998 161.5 119.949 161.616C119.915 161.671 119.887 161.729 119.865 161.79V161.832C119.862 161.852 119.862 161.872 119.865 161.892C119.865 161.892 119.865 161.892 119.865 161.928L119.547 161.958C119.606 161.748 119.693 161.546 119.805 161.358C119.891 161.206 120.008 161.074 120.149 160.971C120.289 160.867 120.45 160.795 120.621 160.758C120.747 160.746 120.874 160.783 120.974 160.861C121.075 160.939 121.142 161.052 121.161 161.178C121.179 161.389 121.146 161.601 121.065 161.796Z" fill="#455A64"/>
<path d="M122.82 161.647C122.712 162.162 122.403 162.613 121.962 162.901C121.758 163.033 121.674 162.757 121.878 162.631C122.163 162.441 122.375 162.159 122.478 161.833C122.494 161.78 122.506 161.726 122.514 161.671C122.563 161.49 122.563 161.3 122.514 161.119C122.488 161.043 122.437 160.977 122.37 160.933H122.328C122.277 160.919 122.223 160.919 122.172 160.933C122.076 160.977 121.992 161.043 121.926 161.125C121.845 161.221 121.778 161.328 121.728 161.443C121.697 161.499 121.669 161.557 121.644 161.617V161.659C121.641 161.679 121.641 161.699 121.644 161.719C121.644 161.719 121.644 161.719 121.644 161.755L121.32 161.785C121.379 161.574 121.465 161.372 121.578 161.185C121.664 161.033 121.781 160.901 121.922 160.798C122.063 160.694 122.224 160.622 122.394 160.585C122.52 160.571 122.647 160.606 122.747 160.684C122.848 160.761 122.915 160.874 122.934 160.999C122.954 161.221 122.914 161.445 122.82 161.647Z" fill="#455A64"/>
<path d="M124.586 161.49C124.475 162.007 124.165 162.46 123.722 162.75C123.518 162.882 123.434 162.606 123.638 162.48C123.925 162.292 124.137 162.01 124.238 161.682C124.253 161.629 124.265 161.575 124.274 161.52C124.322 161.339 124.322 161.149 124.274 160.968C124.251 160.89 124.2 160.824 124.13 160.782H124.088C124.037 160.765 123.982 160.765 123.932 160.782C123.837 160.826 123.754 160.889 123.686 160.968C123.607 161.067 123.54 161.176 123.488 161.292C123.488 161.346 123.434 161.406 123.404 161.466V161.502C123.399 161.522 123.399 161.542 123.404 161.562C123.404 161.562 123.404 161.592 123.404 161.604H123.086C123.14 161.393 123.225 161.19 123.338 161.004C123.422 160.851 123.539 160.717 123.68 160.614C123.82 160.51 123.982 160.438 124.154 160.404C124.281 160.389 124.409 160.423 124.511 160.5C124.613 160.578 124.681 160.692 124.7 160.818C124.721 161.048 124.682 161.28 124.586 161.49Z" fill="#455A64"/>
<path d="M126.344 161.341C126.233 161.857 125.923 162.308 125.48 162.595C125.276 162.733 125.192 162.457 125.396 162.331C125.681 162.14 125.892 161.859 125.996 161.533C125.996 161.479 126.026 161.419 126.038 161.371C126.087 161.19 126.087 161 126.038 160.819C126.016 160.739 125.965 160.671 125.894 160.627H125.864H125.822C125.769 160.622 125.714 160.633 125.666 160.657C125.57 160.697 125.485 160.761 125.42 160.843C125.342 160.941 125.276 161.048 125.222 161.161C125.222 161.215 125.168 161.275 125.138 161.335V161.377C125.136 161.397 125.136 161.417 125.138 161.437C125.138 161.437 125.138 161.437 125.138 161.473L124.82 161.503C124.877 161.293 124.962 161.091 125.072 160.903C125.159 160.752 125.276 160.62 125.417 160.517C125.557 160.413 125.718 160.341 125.888 160.303C126.016 160.291 126.143 160.327 126.244 160.405C126.346 160.483 126.414 160.597 126.434 160.723C126.454 160.933 126.423 161.145 126.344 161.341Z" fill="#455A64"/>
<path d="M126.321 168.414C127.473 170.868 130.383 173.922 130.611 175.926C130.686 176.417 130.6 176.92 130.367 177.359C130.133 177.798 129.764 178.15 129.315 178.362C129.315 178.362 131.307 179.37 131.217 181.218C131.169 182.172 129.609 182.934 129.609 182.934C129.609 182.934 131.169 183.81 130.983 185.448C130.839 186.756 129.297 187.326 129.297 187.326C129.297 187.326 130.401 188.862 129.825 190.146C128.661 192.75 117.363 192.696 115.641 188.526C114.837 186.582 117.597 186.726 117.597 186.726C117.597 186.726 113.691 185.526 113.643 183.204C113.595 180.882 117.165 181.308 117.165 181.308C117.165 181.308 113.385 180.108 113.565 177.708C113.763 175.188 117.261 176.232 117.261 176.232C117.261 176.232 114.759 174.516 115.335 172.698C116.277 169.698 121.017 173.502 123.501 172.926L124.893 168.84L126.321 168.414Z" fill="#D3766A"/>
<path d="M128.564 171.985C127.682 169.585 130.688 166.585 130.172 164.185C129.476 160.891 125.756 164.095 124.91 168.871V172.693L128.564 171.985Z" fill="#D3766A"/>
<path d="M129.062 187.453C129.098 187.453 129.11 187.501 129.062 187.507C125.2 188.443 121.145 188.181 117.434 186.757C117.314 186.709 117.344 186.499 117.482 186.523C121.277 187.394 125.178 187.707 129.062 187.453Z" fill="#263238"/>
<path d="M129.662 182.958C129.704 182.958 129.71 183.024 129.662 183.036C125.822 183.93 120.92 183.606 117.026 181.428C116.888 181.35 116.846 181.152 117.026 181.224C119.714 182.478 126.002 183.246 129.662 182.958Z" fill="#263238"/>
<path d="M117.044 175.993C120.86 177.937 124.916 178.465 129.158 178.393C129.218 178.393 129.212 178.471 129.158 178.483C127.094 179.083 124.358 178.831 122.294 178.483C120.345 178.177 118.51 177.366 116.972 176.131C116.918 176.077 116.966 175.951 117.044 175.993Z" fill="#263238"/>
<path d="M212.874 239.239C212.352 240.643 186.816 272.389 185.076 272.983C184.422 273.211 179.58 269.761 173.85 265.429C172.614 264.493 171.342 263.515 170.052 262.519C161.694 256.063 153 249.001 153 249.001L170.022 227.719L186.6 241.801L190.248 244.891C190.248 244.891 205.458 237.091 207.438 236.665C209.418 236.239 213.396 237.829 212.874 239.239Z" fill="#D3766A"/>
<path d="M212.876 239.238C212.354 240.642 186.818 272.388 185.078 272.982C184.274 273.258 177.278 268.11 170.078 262.518L186.602 241.8L190.25 244.89C190.25 244.89 205.46 237.09 207.44 236.664C209.42 236.238 213.398 237.828 212.876 239.238Z" fill="white"/>
<path d="M212.876 239.238C212.354 240.642 186.818 272.388 185.078 272.982C184.424 273.21 179.582 269.76 173.852 265.428L190.256 244.914C190.256 244.914 205.466 237.114 207.446 236.688C209.426 236.262 213.398 237.828 212.876 239.238Z" fill="#FFC727"/>
<path d="M211.237 238.668C206.827 243.888 189.529 265.338 185.562 270.828C185.562 270.876 185.562 270.9 185.598 270.858C190.08 265.782 207.199 244.188 211.327 238.74C211.411 238.626 211.333 238.56 211.237 238.668Z" fill="#263238"/>
<path d="M204.663 237.81C204.175 238.385 203.811 239.055 203.594 239.778C203.377 240.501 203.312 241.261 203.403 242.01C203.559 243.367 204.234 244.612 205.287 245.484C205.317 245.484 205.365 245.448 205.335 245.418C204.428 244.389 203.88 243.093 203.771 241.726C203.663 240.358 204.001 238.993 204.735 237.834C204.734 237.826 204.731 237.818 204.726 237.812C204.721 237.806 204.714 237.802 204.706 237.799C204.699 237.797 204.691 237.796 204.683 237.798C204.675 237.8 204.668 237.804 204.663 237.81Z" fill="#263238"/>
<path d="M192.445 243.277C190.705 245.383 189.445 248.455 190.147 251.179C190.147 251.287 190.321 251.251 190.339 251.179C190.862 248.531 191.666 245.946 192.739 243.469C192.765 243.43 192.773 243.382 192.764 243.337C192.754 243.291 192.727 243.251 192.688 243.226C192.649 243.2 192.602 243.191 192.556 243.201C192.51 243.211 192.471 243.238 192.445 243.277Z" fill="#263238"/>
<path d="M194.402 242.148C192.662 244.254 191.402 247.326 192.104 250.05C192.104 250.158 192.278 250.116 192.296 250.05C192.819 247.402 193.623 244.817 194.696 242.34C194.722 242.301 194.73 242.253 194.721 242.208C194.711 242.162 194.684 242.122 194.645 242.097C194.606 242.071 194.559 242.063 194.513 242.072C194.467 242.082 194.428 242.109 194.402 242.148Z" fill="#263238"/>
<path d="M196.375 241.021C194.629 243.127 193.375 246.199 194.071 248.923C194.071 249.031 194.245 248.989 194.263 248.923C194.786 246.277 195.59 243.694 196.663 241.219C196.676 241.2 196.685 241.179 196.689 241.156C196.694 241.134 196.695 241.111 196.69 241.088C196.686 241.066 196.678 241.044 196.665 241.025C196.653 241.006 196.636 240.989 196.618 240.976C196.599 240.963 196.577 240.954 196.555 240.949C196.532 240.944 196.509 240.944 196.487 240.948C196.464 240.952 196.443 240.961 196.423 240.973C196.404 240.986 196.388 241.002 196.375 241.021Z" fill="#263238"/>
<path d="M198.339 239.893C196.593 241.999 195.339 245.071 196.035 247.795C196.035 247.903 196.215 247.861 196.233 247.795C196.756 245.148 197.56 242.565 198.633 240.091C198.66 240.052 198.669 240.004 198.66 239.958C198.651 239.912 198.624 239.871 198.585 239.845C198.546 239.818 198.499 239.809 198.452 239.818C198.406 239.827 198.366 239.854 198.339 239.893Z" fill="#263238"/>
<path d="M181.605 265.41C179.685 267.81 183.405 270.81 185.325 268.41C187.245 266.01 183.519 263.01 181.605 265.41Z" fill="white"/>
<path d="M188.611 236.402C186.853 236.762 186.631 238.802 187.027 240.236C187.746 242.646 189.087 244.825 190.915 246.554C190.922 246.562 190.93 246.569 190.94 246.574C190.95 246.579 190.961 246.582 190.972 246.582C190.983 246.582 190.994 246.579 191.004 246.574C191.014 246.569 191.022 246.562 191.029 246.554C191.076 246.578 191.128 246.591 191.181 246.591C191.234 246.592 191.286 246.579 191.333 246.555C191.38 246.531 191.42 246.496 191.451 246.453C191.482 246.41 191.502 246.36 191.509 246.308C191.683 243.95 192.157 241.448 191.599 239.108C191.275 237.716 190.279 236.066 188.611 236.402ZM191.011 242.66C190.951 243.824 190.837 244.976 190.825 246.14C190.033 244.931 189.302 243.683 188.635 242.402C188.322 241.774 188.051 241.127 187.825 240.464C187.495 239.438 187.399 235.916 189.883 237.566C191.287 238.478 191.107 241.274 191.041 242.66H191.011Z" fill="#263238"/>
<path d="M187.447 252.474C189.247 250.854 190.237 248.514 191.419 246.474C191.441 246.427 191.451 246.375 191.45 246.323C191.448 246.271 191.434 246.22 191.409 246.174C191.384 246.128 191.348 246.089 191.305 246.06C191.262 246.031 191.212 246.012 191.161 246.006C191.161 245.958 191.131 245.916 191.077 245.928C188.592 246.329 186.258 247.378 184.309 248.97C183.193 249.918 182.215 251.748 183.475 253.032C184.735 254.316 186.409 253.428 187.447 252.474ZM185.203 252.786C182.203 252.756 184.273 249.9 185.125 249.234C185.684 248.813 186.271 248.43 186.883 248.088C188.154 247.4 189.46 246.777 190.795 246.222C190.153 247.194 189.595 248.208 188.995 249.222C188.269 250.392 186.847 252.804 185.203 252.786Z" fill="#263238"/>
<path d="M185.719 238.614L168.001 262.512L108.241 221.034L102.475 217.038C102.475 217.038 100.843 218.136 98.3886 219.492C94.9746 221.376 89.9886 223.764 85.5486 224.418C78.1326 225.516 66.9486 225.396 60.6906 217.038C55.4226 209.994 57.0906 200.808 57.0906 200.808L65.2386 197.31C65.2386 197.31 84.5226 181.248 97.0386 180.762C102.343 180.552 110.065 184.572 117.217 188.772C124.369 192.972 185.719 238.614 185.719 238.614Z" fill="#37474F"/>
<path d="M102.476 217.038C102.476 217.038 100.844 218.136 98.3898 219.492C94.0458 214.296 84.8478 204.852 84.5898 204.492L102.476 217.038Z" fill="#263238"/>
<path d="M72.2959 191.935C71.1439 192.733 70.0279 193.585 68.8879 194.407C67.7479 195.229 66.6199 195.973 65.5519 196.855C64.4839 197.737 63.4459 198.709 62.4319 199.675C61.9399 200.143 61.4479 200.611 60.9739 201.097C60.4736 201.562 60.0102 202.065 59.5879 202.603C59.5519 202.651 59.6239 202.711 59.6719 202.681C60.2122 202.296 60.7273 201.877 61.2139 201.427L62.8279 200.053C63.8659 199.171 64.9219 198.319 65.9539 197.431C66.9859 196.543 67.9339 195.595 68.9539 194.707C69.9739 193.819 71.1919 192.871 72.3259 191.971C72.3379 191.953 72.3199 191.917 72.2959 191.935Z" fill="#263238"/>
<path d="M181.561 237.757C180.409 238.999 179.347 240.331 178.273 241.639C177.199 242.947 176.131 244.279 175.069 245.605C172.945 248.257 170.803 250.897 168.715 253.579C167.563 255.055 166.435 256.537 165.367 258.073C165.319 258.139 165.427 258.217 165.487 258.157C167.767 255.643 169.861 252.961 171.979 250.315C174.097 247.669 176.215 244.993 178.303 242.305C179.443 240.835 180.619 239.371 181.663 237.835C181.669 237.821 181.671 237.806 181.667 237.792C181.663 237.778 181.655 237.765 181.643 237.756C181.631 237.747 181.617 237.742 181.602 237.742C181.587 237.742 181.573 237.748 181.561 237.757Z" fill="#263238"/>
<path d="M136.2 240.361C133.2 238.021 126.462 233.443 123.378 231.247C120.294 229.051 117.246 226.867 114.132 224.743C113.24 224.139 112.342 223.539 111.438 222.943C110.538 222.343 109.602 221.791 108.72 221.173C108.672 221.137 108.624 221.221 108.672 221.257C109.482 221.857 110.244 222.487 111.072 223.087C111.9 223.687 112.584 224.245 113.346 224.809C114.84 225.913 116.346 226.999 117.858 228.091C120.906 230.293 123.984 232.477 127.092 234.607C128.856 235.807 134.292 239.407 136.092 240.547C136.158 240.601 136.29 240.445 136.2 240.361Z" fill="#263238"/>
<path d="M154.941 215.67C152.193 213.396 145.941 209.016 143.049 206.91C140.157 204.804 137.241 202.632 134.313 200.514L125.607 194.226C122.799 192.192 119.997 190.122 117.027 188.322C115.401 187.338 113.733 186.426 112.017 185.604C110.358 184.752 108.627 184.046 106.845 183.492C106.835 183.491 106.825 183.494 106.816 183.499C106.808 183.504 106.801 183.512 106.797 183.521C106.793 183.531 106.792 183.541 106.794 183.551C106.796 183.561 106.802 183.57 106.809 183.576C108.273 184.398 109.809 185.082 111.291 185.874C112.773 186.666 114.201 187.476 115.623 188.334C118.569 190.134 121.353 192.156 124.149 194.166C129.963 198.366 135.759 202.566 141.609 206.658C144.885 208.968 151.413 213.732 154.809 215.85C154.833 215.861 154.86 215.864 154.886 215.857C154.911 215.85 154.933 215.835 154.949 215.814C154.964 215.793 154.972 215.767 154.971 215.741C154.969 215.715 154.959 215.69 154.941 215.67Z" fill="#263238"/>
<path d="M272.032 187.535C266.164 195.485 260.032 204.707 258.556 214.673C258.551 214.706 258.559 214.74 258.578 214.768C258.598 214.796 258.627 214.815 258.66 214.822C258.693 214.829 258.727 214.823 258.756 214.805C258.785 214.787 258.805 214.759 258.814 214.727C259.49 212.009 260.358 209.342 261.412 206.747C265.27 205.685 269.056 204.809 271.084 200.981C273.148 197.045 272.884 191.909 272.494 187.625C272.464 187.391 272.152 187.385 272.032 187.535Z" fill="#FFC727"/>
<path d="M261.467 206.67C264.107 200.754 267.467 194.814 271.793 189.948C271.823 189.918 271.865 189.948 271.841 189.996C269.021 193.464 266.885 197.238 264.791 201.072C266.735 199.104 268.865 197.334 270.707 195.24C270.743 195.204 270.797 195.24 270.767 195.3C268.967 197.496 266.939 199.878 264.557 201.504C263.921 202.68 263.277 203.86 262.625 205.044C262.781 204.954 262.949 204.876 263.111 204.792C263.141 204.792 263.165 204.822 263.141 204.834C262.955 204.93 262.775 205.026 262.589 205.104C262.283 205.662 261.989 206.22 261.659 206.778C261.599 206.904 261.413 206.796 261.467 206.67Z" fill="#263238"/>
<path d="M263.431 204.6C265.008 203.718 266.515 202.715 267.937 201.6C267.973 201.57 268.033 201.6 267.991 201.654C266.615 202.845 265.108 203.874 263.497 204.72C263.401 204.756 263.359 204.648 263.431 204.6Z" fill="#263238"/>
<path d="M257.878 213.191C257.878 213.22 257.889 213.247 257.909 213.267C257.929 213.288 257.957 213.299 257.986 213.299C258.014 213.299 258.042 213.288 258.062 213.267C258.082 213.247 258.094 213.22 258.094 213.191C258.094 209.909 258.094 206.591 258.142 203.315C258.982 201.617 260.788 200.675 262.042 199.319C262.944 198.323 263.731 197.228 264.388 196.055C265.896 193.252 266.818 190.172 267.1 187.001C267.448 183.491 266.116 171.905 264.634 172.307C263.866 172.517 261.382 178.253 260.728 180.149C259.659 183.272 258.876 186.485 258.388 189.749C257.188 197.489 257.29 205.421 257.878 213.191Z" fill="#FFC727"/>
<path d="M257.855 199.032C258.035 194.88 258.971 190.686 259.847 186.66C260.789 182.316 261.893 178.23 264.131 174.36C264.167 174.288 264.275 174.36 264.239 174.426C262.751 177.437 261.598 180.602 260.801 183.864C260.951 183.63 261.131 183.408 261.287 183.186C261.347 183.102 261.491 183.186 261.431 183.27C261.233 183.623 261 183.954 260.735 184.26H260.705C259.937 187.362 259.385 190.536 258.905 193.698L259.013 193.578C259.013 193.548 259.079 193.578 259.061 193.614L258.869 193.926C258.635 195.534 258.413 197.136 258.191 198.726C261.053 196.284 263.495 193.398 264.875 189.846C263.525 193.53 261.395 196.8 258.119 199.038C258.067 199.462 258.007 199.888 257.939 200.316C257.939 200.406 257.789 200.382 257.789 200.316C257.789 199.938 257.789 199.56 257.825 199.176C257.815 199.166 257.808 199.153 257.804 199.139C257.8 199.125 257.8 199.11 257.803 199.096C257.806 199.082 257.812 199.069 257.821 199.058C257.83 199.047 257.842 199.038 257.855 199.032Z" fill="#263238"/>
<path d="M259.197 193.013C261.432 189.853 263.384 186.502 265.029 182.999C265.029 182.957 265.113 182.999 265.095 182.999C263.79 186.682 261.83 190.098 259.311 193.085C259.257 193.157 259.155 193.079 259.197 193.013Z" fill="#263238"/>
<path d="M262.108 182.171C263.008 180.569 263.968 179.009 264.82 177.371C264.82 177.329 264.904 177.371 264.886 177.413C264.187 179.117 263.301 180.739 262.246 182.249C262.236 182.267 262.218 182.281 262.198 182.286C262.178 182.292 262.156 182.289 262.138 182.279C262.12 182.269 262.106 182.251 262.101 182.231C262.095 182.211 262.098 182.189 262.108 182.171Z" fill="#263238"/>
<path d="M255.652 203.7C255.609 205.875 255.354 208.042 254.89 210.168C254.92 210.402 254.956 210.636 254.992 210.876C255.661 208.53 256.048 206.113 256.144 203.676C256.165 203.642 256.176 203.604 256.176 203.565C256.176 203.525 256.165 203.487 256.144 203.454C256.238 200.183 255.995 196.912 255.418 193.692C254.404 187.656 252.184 181.866 247.972 177.348C247.938 177.317 247.897 177.295 247.853 177.283C247.808 177.272 247.762 177.27 247.717 177.28C247.672 177.289 247.63 177.309 247.594 177.337C247.558 177.366 247.529 177.402 247.51 177.444C245.812 181.758 246.406 186.912 247.852 191.244C248.638 193.577 249.762 195.783 251.188 197.79C252.64 199.8 254.482 201.486 255.652 203.7Z" fill="#FFC727"/>
<path d="M248.484 179.346C252.474 185.82 255.246 193.494 255.588 201.138C255.588 201.27 255.366 201.306 255.348 201.138C255.252 200.454 255.144 199.77 255.036 199.092C253.305 197.559 251.783 195.803 250.512 193.872C250.512 193.836 250.542 193.794 250.566 193.824C251.935 195.51 253.404 197.113 254.964 198.624C254.676 196.938 254.364 195.27 253.938 193.632C253.83 193.512 253.728 193.386 253.626 193.266C253.524 193.146 253.668 193.062 253.74 193.146L253.836 193.248C253.274 191.008 252.579 188.804 251.754 186.648C250.74 185.448 249.606 184.392 248.862 182.934C248.862 182.898 248.892 182.874 248.916 182.904C249.516 183.738 250.086 184.578 250.758 185.352C251.028 185.658 251.322 185.952 251.604 186.246C250.684 183.901 249.593 181.627 248.34 179.442C248.334 179.423 248.335 179.403 248.341 179.384C248.347 179.366 248.36 179.35 248.376 179.339C248.392 179.328 248.412 179.323 248.431 179.324C248.451 179.326 248.469 179.333 248.484 179.346Z" fill="#263238"/>
<path d="M249.294 187.33C250.584 189.064 252.048 190.72 253.248 192.508C253.284 192.562 253.206 192.616 253.164 192.574C251.635 191.012 250.305 189.267 249.204 187.378C249.168 187.324 249.252 187.276 249.294 187.33Z" fill="#263238"/>
<path d="M253.427 192.911L253.481 192.971C253.523 193.007 253.481 193.067 253.421 193.025L253.367 192.971C253.331 192.935 253.391 192.875 253.427 192.911Z" fill="#263238"/>
<path d="M242.237 191.79C242.71 195.401 244.162 198.815 246.437 201.66C247.379 202.774 248.541 203.681 249.851 204.324C251.327 205.056 252.851 205.896 254.405 206.496C255.13 208.346 255.671 210.263 256.019 212.22C256.067 212.058 256.115 211.884 256.163 211.716C255.185 203.286 249.731 196.08 242.753 191.454C242.698 191.42 242.635 191.403 242.571 191.404C242.506 191.405 242.444 191.425 242.39 191.46C242.336 191.495 242.293 191.544 242.266 191.603C242.239 191.661 242.229 191.726 242.237 191.79Z" fill="#FFC727"/>
<path d="M244.648 194.279C244.6 194.231 244.648 194.147 244.72 194.183C248.552 197.035 251.609 200.802 253.612 205.139C253.66 205.259 253.504 205.355 253.438 205.241C253.114 204.677 252.778 204.119 252.442 203.579C250.846 203.279 249.34 202.157 248.158 201.095C248.122 201.065 248.158 201.017 248.206 201.047C248.815 201.603 249.492 202.079 250.222 202.463C250.87 202.793 251.566 203.003 252.244 203.267C251.644 202.331 251.044 201.431 250.396 200.561C248.671 199.906 247.054 198.998 245.596 197.867C245.554 197.867 245.596 197.759 245.644 197.789C247.082 198.667 248.567 199.468 250.09 200.189C249.119 198.905 248.071 197.681 246.952 196.523C246.406 196.241 245.86 195.953 245.338 195.647C245.331 195.64 245.326 195.632 245.323 195.623C245.321 195.613 245.322 195.603 245.325 195.594C245.328 195.585 245.334 195.577 245.342 195.572C245.349 195.566 245.359 195.563 245.368 195.563C245.805 195.711 246.222 195.913 246.61 196.163C245.998 195.521 245.344 194.891 244.648 194.279Z" fill="#263238"/>
<path d="M244.798 197.189C244.892 197.244 244.981 197.308 245.062 197.381C245.092 197.381 245.062 197.435 245.032 197.423C244.934 197.379 244.839 197.327 244.75 197.267C244.743 197.259 244.739 197.25 244.738 197.239C244.738 197.229 244.74 197.219 244.745 197.21C244.751 197.202 244.759 197.195 244.768 197.191C244.778 197.187 244.788 197.186 244.798 197.189Z" fill="#263238"/>
<path d="M267.057 230.477H247.941L249.483 213.065L249.825 209.225H265.173L265.515 213.065L267.057 230.477Z" fill="#455A64"/>
<path d="M265.516 213.065H249.484L249.826 209.225H265.174L265.516 213.065Z" fill="#263238"/>
<path d="M266.094 206.543H248.91V210.341H266.094V206.543Z" fill="#455A64"/>
</svg>
