<svg width="200" height="200" viewBox="0 0 200 200" fill="none" xmlns="http://www.w3.org/2000/svg">
<path d="M177.57 138.025H105.27C103.978 138.025 102.926 136.973 102.926 135.681V30.3733C102.926 29.0813 103.978 28.0293 105.27 28.0293H177.57C178.862 28.0293 179.914 29.0813 179.914 30.3733V135.681C179.914 136.973 178.862 138.025 177.57 138.025ZM105.27 28.1253C104.034 28.1253 103.026 29.1333 103.026 30.3693V135.681C103.026 136.917 104.034 137.925 105.27 137.925H177.57C178.806 137.925 179.814 136.917 179.814 135.681V30.3733C179.814 29.1373 178.806 28.1293 177.57 28.1293H105.27V28.1253Z" fill="#F7FDFC"/>
<path d="M94.1966 138.025H21.9006C20.6086 138.025 19.5566 136.973 19.5566 135.681V30.3733C19.5566 29.0813 20.6086 28.0293 21.9006 28.0293H94.1966C95.4886 28.0293 96.5406 29.0813 96.5406 30.3733V135.681C96.5406 136.973 95.4886 138.025 94.1966 138.025ZM21.9006 28.1253C20.6646 28.1253 19.6566 29.1333 19.6566 30.3693V135.681C19.6566 136.917 20.6646 137.925 21.9006 137.925H94.1966C95.4326 137.925 96.4406 136.917 96.4406 135.681V30.3733C96.4406 29.1373 95.4326 28.1293 94.1966 28.1293H21.9006V28.1253Z" fill="#F7FDFC"/>
<path d="M200 162.455H0V162.555H200V162.455Z" fill="#F7FDFC"/>
<path d="M27.092 168.16H20.668V168.26H27.092V168.16Z" fill="#F7FDFC"/>
<path d="M89.5526 167.076H68.1406V167.176H89.5526V167.076Z" fill="#F7FDFC"/>
<path d="M41.9902 171.877H27.4902V171.977H41.9902V171.877Z" fill="#F7FDFC"/>
<path d="M168.616 167.025H151.34V167.125H168.616V167.025Z" fill="#F7FDFC"/>
<path d="M174.714 167.025H172.182V167.125H174.714V167.025Z" fill="#F7FDFC"/>
<path d="M148.04 169.518H126.484V169.618H148.04V169.518Z" fill="#F7FDFC"/>
<path d="M71.2819 34.0051C76.3219 33.4491 80.2179 30.6131 81.9019 25.8291C83.5819 21.0451 83.0579 15.3251 79.4739 11.7371C77.6379 9.90108 75.1939 8.58908 72.5979 8.48508C68.9139 8.33708 65.4059 10.7091 63.5979 13.9251C61.7899 17.1411 61.1619 20.4331 61.8219 24.0611C62.4739 27.6571 64.5939 32.0531 69.5419 33.7891C69.5419 33.7891 67.9299 36.5011 68.6659 36.9211C69.4019 37.3411 70.3299 35.7851 70.3299 35.7851C70.3299 35.7851 71.9579 37.9211 72.1579 36.9211C72.4539 35.4491 71.2859 34.0011 71.2859 34.0011L71.2819 34.0051Z" fill="#FFD952"/>
<g opacity="0.3">
<path d="M64.7413 22.409C64.0533 22.513 63.3693 22.621 62.6813 22.725C62.2493 20.425 62.5253 17.997 63.4693 15.853C64.4093 13.709 66.0093 11.861 67.9933 10.625C67.9933 10.625 65.8093 13.821 65.1533 16.597C64.4453 19.609 64.7413 22.409 64.7413 22.409Z" fill="white"/>
</g>
<path d="M133.837 42.4447C137.825 39.4727 139.717 35.1407 138.765 30.2607C137.813 25.3767 134.533 20.8007 129.717 19.5447C127.253 18.9007 124.533 19.0087 122.289 20.2047C119.097 21.9087 117.309 25.6567 117.377 29.2727C117.441 32.8887 118.545 35.9847 120.901 38.7287C123.237 41.4487 127.213 44.1127 132.257 43.1287C132.257 43.1287 132.241 46.2247 133.069 46.2167C133.897 46.2087 133.913 44.4287 133.913 44.4287C133.913 44.4287 136.349 45.4247 136.025 44.4847C135.545 43.0927 133.841 42.4447 133.841 42.4447H133.837Z" fill="#FFD952"/>
<g opacity="0.3">
<path d="M122.55 35.875C122.022 36.303 121.49 36.735 120.962 37.163C119.454 35.431 118.486 33.239 118.218 30.959C117.95 28.679 118.386 26.323 119.454 24.291C119.454 24.291 119.19 28.079 120.014 30.755C120.906 33.655 122.55 35.875 122.55 35.875Z" fill="white"/>
</g>
<path d="M40.7692 55.3954C44.5492 53.5714 46.8092 50.2874 46.8012 46.0914C46.7932 41.8954 44.8092 37.5794 41.0252 35.7674C39.0892 34.8394 36.8172 34.4914 34.7652 35.1234C31.8492 36.0234 29.7692 38.8394 29.2412 41.8474C28.7172 44.8554 29.1332 47.5954 30.6452 50.2434C32.1452 52.8674 35.0092 55.7154 39.3452 55.7074C39.3452 55.7074 38.8372 58.2674 39.5252 58.3954C40.2132 58.5234 40.5092 57.0514 40.5092 57.0514C40.5092 57.0514 42.3692 58.2674 42.2492 57.4354C42.0732 56.2074 40.7652 55.3954 40.7652 55.3954H40.7692Z" fill="#FFD952"/>
<g opacity="0.3">
<path d="M32.4727 48.1466C31.9647 48.4186 31.4607 48.6906 30.9527 48.9586C29.9807 47.2826 29.5287 45.3106 29.6727 43.3826C29.8167 41.4506 30.5567 39.5706 31.7647 38.0586C31.7647 38.0586 30.9407 41.1506 31.1927 43.5026C31.4687 46.0466 32.4727 48.1506 32.4727 48.1506V48.1466Z" fill="white"/>
</g>
<path d="M21.6962 120.994C25.6882 122.282 29.5922 121.466 32.4842 118.422C35.3762 115.382 36.9162 110.886 35.4282 106.962C34.6642 104.954 33.2642 103.134 31.3442 102.178C28.6122 100.818 25.1602 101.418 22.7082 103.234C20.2522 105.046 18.6642 107.318 17.9282 110.282C17.2002 113.218 17.3122 117.254 20.4562 120.238C20.4562 120.238 18.3202 121.738 18.7322 122.306C19.1442 122.874 20.3722 122.014 20.3722 122.014C20.3722 122.014 20.8762 124.178 21.3682 123.494C22.0882 122.482 21.7002 120.994 21.7002 120.994H21.6962Z" fill="#FFD952"/>
<path d="M170.841 125.121C174.833 126.409 178.737 125.593 181.629 122.549C184.521 119.509 186.061 115.013 184.573 111.089C183.809 109.081 182.409 107.261 180.489 106.305C177.757 104.945 174.305 105.545 171.853 107.361C169.397 109.173 167.809 111.445 167.073 114.409C166.345 117.345 166.457 121.381 169.601 124.365C169.601 124.365 167.465 125.865 167.877 126.433C168.289 127.001 169.517 126.141 169.517 126.141C169.517 126.141 170.021 128.305 170.513 127.621C171.233 126.609 170.845 125.121 170.845 125.121H170.841Z" fill="#FFD952"/>
<g opacity="0.3">
<path d="M169.838 114.147C169.286 113.995 168.73 113.839 168.178 113.687C168.63 111.803 169.666 110.067 171.102 108.767C172.538 107.467 174.37 106.615 176.29 106.355C176.29 106.355 173.558 108.023 172.122 109.899C170.566 111.931 169.842 114.147 169.842 114.147H169.838Z" fill="white"/>
</g>
<path d="M102.474 170.307C105.974 167.995 107.774 164.439 107.21 160.279C106.642 156.123 104.098 152.107 100.106 150.819C98.0624 150.159 95.7664 150.119 93.8184 151.019C91.0464 152.299 89.3624 155.371 89.2424 158.419C89.1224 161.467 89.9024 164.131 91.7584 166.555C93.5944 168.955 96.8144 171.395 101.11 170.807C101.11 170.807 100.946 173.411 101.646 173.447C102.346 173.479 102.442 171.983 102.442 171.983C102.442 171.983 104.446 172.939 104.218 172.131C103.878 170.935 102.474 170.311 102.474 170.311V170.307Z" fill="#FFD952"/>
<g opacity="0.3">
<path d="M93.2806 164.236C92.8126 164.572 92.3486 164.908 91.8806 165.244C90.6966 163.712 89.9846 161.82 89.8686 159.888C89.7526 157.956 90.2326 155.992 91.2286 154.332C91.2286 154.332 90.8246 157.508 91.3886 159.8C92.0006 162.284 93.2766 164.232 93.2766 164.232L93.2806 164.236Z" fill="white"/>
</g>
<path d="M123.103 138.776C119.243 140.42 116.831 143.592 116.635 147.784C116.443 151.976 118.219 156.38 121.915 158.372C123.807 159.388 126.059 159.844 128.135 159.312C131.091 158.552 133.303 155.836 133.971 152.856C134.639 149.876 134.351 147.12 132.967 144.4C131.595 141.708 128.867 138.728 124.535 138.532C124.535 138.532 125.167 136 124.483 135.84C123.803 135.68 123.435 137.136 123.435 137.136C123.435 137.136 121.635 135.832 121.715 136.672C121.831 137.908 123.099 138.78 123.099 138.78L123.103 138.776Z" fill="#FFD952"/>
<g opacity="0.3">
<path d="M131.047 146.408C131.567 146.16 132.087 145.916 132.603 145.668C133.495 147.388 133.851 149.376 133.615 151.3C133.379 153.22 132.551 155.068 131.275 156.52C131.275 156.52 132.247 153.468 132.103 151.112C131.947 148.556 131.043 146.408 131.043 146.408H131.047Z" fill="white"/>
</g>
<path d="M172.778 39.5571C176.95 39.0971 180.174 36.7531 181.566 32.7931C182.958 28.8331 182.526 24.1011 179.558 21.1331C178.042 19.6131 176.018 18.5291 173.87 18.4411C170.822 18.3171 167.918 20.2811 166.422 22.9411C164.926 25.6011 164.406 28.3251 164.95 31.3251C165.49 34.3011 167.242 37.9371 171.334 39.3731C171.334 39.3731 170.002 41.6171 170.606 41.9651C171.214 42.3131 171.982 41.0251 171.982 41.0251C171.982 41.0251 173.33 42.7931 173.494 41.9651C173.738 40.7451 172.774 39.5491 172.774 39.5491L172.778 39.5571Z" fill="#FFD952"/>
<g opacity="0.3">
<path d="M167.368 29.9609C166.8 30.0489 166.232 30.1329 165.664 30.2209C165.308 28.3169 165.536 26.3089 166.316 24.5369C167.096 22.7649 168.42 21.2369 170.06 20.2129C170.06 20.2129 168.252 22.8569 167.708 25.1529C167.12 27.6449 167.368 29.9609 167.368 29.9609Z" fill="white"/>
</g>
<path d="M184.178 182.936C184.178 184.292 146.77 185.388 100.63 185.388C54.49 185.388 17.082 184.288 17.082 182.936C17.082 181.584 54.49 180.484 100.63 180.484C146.77 180.484 184.178 181.584 184.178 182.936Z" fill="#F7F5FF"/>
<path d="M54.8965 91.4981L100.48 59.7461L146.068 91.4981L101.452 126.826L54.8965 91.4981Z" fill="#2E2E2E"/>
<path d="M141.419 41.4023H59.5469V121.178H141.419V41.4023Z" fill="#A79AFE"/>
<path opacity="0.8" d="M141.419 41.4023H59.5469V121.178H141.419V41.4023Z" fill="white"/>
<path opacity="0.2" d="M59.5471 92.4609L100.479 113.073L141.415 92.4609L140.307 107.441L97.4791 124.253L58.7871 96.7769L59.5471 92.4609Z" fill="#2E2E2E"/>
<path d="M97.4801 93.7891H68.0801V95.4611H97.4801V93.7891Z" fill="#2E2E2E"/>
<path opacity="0.7" d="M97.4801 93.7891H68.0801V95.4611H97.4801V93.7891Z" fill="white"/>
<path d="M137.112 93.7891H99.5V95.4611H137.112V93.7891Z" fill="#2E2E2E"/>
<path opacity="0.7" d="M137.112 93.7891H99.5V95.4611H137.112V93.7891Z" fill="white"/>
<path d="M131.669 101.883H72.1934V103.555H131.669V101.883Z" fill="#2E2E2E"/>
<path opacity="0.7" d="M131.669 101.883H72.1934V103.555H131.669V101.883Z" fill="white"/>
<path d="M125.472 105.93H78.3125V107.602H125.472V105.93Z" fill="#2E2E2E"/>
<path opacity="0.7" d="M125.472 105.93H78.3125V107.602H125.472V105.93Z" fill="white"/>
<path d="M125.881 110.033H78.7207V111.705H125.881V110.033Z" fill="#2E2E2E"/>
<path opacity="0.7" d="M125.881 110.033H78.7207V111.705H125.881V110.033Z" fill="white"/>
<path d="M111.232 97.834H68.0801V99.506H111.232V97.834Z" fill="#2E2E2E"/>
<path opacity="0.7" d="M111.232 97.834H68.0801V99.506H111.232V97.834Z" fill="white"/>
<path d="M131.663 97.834H112.859V99.506H131.663V97.834Z" fill="#2E2E2E"/>
<path opacity="0.7" d="M131.663 97.834H112.859V99.506H131.663V97.834Z" fill="white"/>
<path d="M54.8965 148.1V91.5L100.26 115.724L146.068 91.5V148.1H54.8965Z" fill="#A79AFE"/>
<path d="M52.6836 105.785V139.017C52.6836 139.405 53.2836 139.405 53.2836 139.017V105.785C53.2836 105.397 52.6836 105.397 52.6836 105.785Z" fill="#A79AFE"/>
<path d="M53.3148 104.493V102.109C53.3148 101.721 52.7148 101.721 52.7148 102.109V104.493C52.7148 104.881 53.3148 104.881 53.3148 104.493Z" fill="#A79AFE"/>
<path opacity="0.2" d="M145.953 148.257L100.265 115.969L55.0133 148.257L54.7812 147.933L100.261 115.477L146.185 147.933L145.953 148.257Z" fill="#2E2E2E"/>
<path d="M78.3933 57.4827C79.8445 55.2827 79.2374 52.3228 77.0374 50.8717C74.8375 49.4205 71.8776 50.0275 70.4264 52.2275C68.9752 54.4275 69.5823 57.3873 71.7823 58.8385C73.9823 60.2897 76.9421 59.6827 78.3933 57.4827Z" fill="#A79AFE"/>
<path d="M99.6216 52.1641H83.7656V53.8361H99.6216V52.1641Z" fill="#A79AFE"/>
<path d="M127.534 55.4277H83.6738V57.0997H127.534V55.4277Z" fill="#2E2E2E"/>
<path opacity="0.7" d="M127.534 55.4277H83.6738V57.0997H127.534V55.4277Z" fill="white"/>
<path d="M90.3487 66.0176H67.9688V67.6896H90.3487V66.0176Z" fill="#2E2E2E"/>
<path opacity="0.7" d="M90.3487 66.0176H67.9688V67.6896H90.3487V66.0176Z" fill="white"/>
<path d="M101.351 70.543H67.7715V72.215H101.351V70.543Z" fill="#2E2E2E"/>
<path opacity="0.7" d="M101.351 70.543H67.7715V72.215H101.351V70.543Z" fill="white"/>
<path d="M134.205 74.4434H100.625V76.1154H134.205V74.4434Z" fill="#2E2E2E"/>
<path opacity="0.7" d="M134.205 74.4434H100.625V76.1154H134.205V74.4434Z" fill="white"/>
<path d="M97.4801 74.4434H68.0801V76.1154H97.4801V74.4434Z" fill="#2E2E2E"/>
<path opacity="0.7" d="M97.4801 74.4434H68.0801V76.1154H97.4801V74.4434Z" fill="white"/>
<path d="M112.42 70.543H104.344V72.215H112.42V70.543Z" fill="#2E2E2E"/>
<path opacity="0.7" d="M112.42 70.543H104.344V72.215H112.42V70.543Z" fill="white"/>
<path d="M134.205 70.543H114.641V72.215H134.205V70.543Z" fill="#2E2E2E"/>
<path opacity="0.7" d="M134.205 70.543H114.641V72.215H134.205V70.543Z" fill="white"/>
<path d="M77.6516 87.3266H74.3916L73.7676 88.8306H72.0996L75.2316 81.8066H76.8396L79.9796 88.8306H78.2716L77.6476 87.3266H77.6516ZM77.1396 86.0906L76.0236 83.4026L74.9076 86.0906H77.1356H77.1396Z" fill="#A79AFE"/>
<path d="M80.7129 81.8066H83.9049C84.6689 81.8066 85.3409 81.9506 85.9289 82.2426C86.5129 82.5346 86.9689 82.9426 87.2929 83.4706C87.6169 83.9986 87.7809 84.6146 87.7809 85.3186C87.7809 86.0226 87.6169 86.6386 87.2929 87.1666C86.9689 87.6946 86.5129 88.1066 85.9289 88.3946C85.3449 88.6866 84.6689 88.8306 83.9049 88.8306H80.7129V81.8066ZM83.8249 87.4986C84.5289 87.4986 85.0889 87.3026 85.5049 86.9106C85.9249 86.5186 86.1329 85.9906 86.1329 85.3186C86.1329 84.6466 85.9249 84.1186 85.5049 83.7266C85.0849 83.3346 84.5249 83.1386 83.8249 83.1386H82.3409V87.4946H83.8249V87.4986Z" fill="#A79AFE"/>
<path d="M95.3978 88.8307L95.3898 84.6147L93.3218 88.0867H92.5898L90.5338 84.7027V88.8267H89.0098V81.8027H90.3538L92.9818 86.1667L95.5698 81.8027H96.9058L96.9258 88.8267H95.4018L95.3978 88.8307Z" fill="#A79AFE"/>
<path d="M98.5879 81.8066H100.212V88.8306H98.5879V81.8066Z" fill="#A79AFE"/>
<path d="M103.336 83.1306H101.088V81.8066H107.212V83.1306H104.964V88.8306H103.34V83.1306H103.336Z" fill="#A79AFE"/>
<path d="M109.639 83.1306H107.391V81.8066H113.515V83.1306H111.267V88.8306H109.643V83.1306H109.639Z" fill="#A79AFE"/>
<path d="M119.827 87.5266V88.8306H114.387V81.8066H119.695V83.1106H116.003V84.6346H119.267V85.8986H116.003V87.5226H119.827V87.5266Z" fill="#A79AFE"/>
<path d="M121.125 81.8066H124.317C125.081 81.8066 125.753 81.9506 126.341 82.2426C126.925 82.5346 127.381 82.9426 127.705 83.4706C128.029 83.9986 128.193 84.6146 128.193 85.3186C128.193 86.0226 128.029 86.6386 127.705 87.1666C127.381 87.6946 126.925 88.1066 126.341 88.3946C125.757 88.6866 125.081 88.8306 124.317 88.8306H121.125V81.8066ZM124.237 87.4986C124.941 87.4986 125.501 87.3026 125.917 86.9106C126.337 86.5186 126.545 85.9906 126.545 85.3186C126.545 84.6466 126.337 84.1186 125.917 83.7266C125.497 83.3346 124.937 83.1386 124.237 83.1386H122.753V87.4946H124.237V87.4986Z" fill="#A79AFE"/>
<path d="M17.5215 72.4155L18.7975 71.9355C18.7975 71.9355 18.4655 73.2875 20.2855 73.6755L19.1295 74.5075C19.1295 74.5075 17.5735 73.9275 17.5255 72.4155H17.5215Z" fill="#664EFE"/>
<path d="M88.8366 32.6816L89.2286 33.9856C89.2286 33.9856 87.9006 33.5656 87.3926 35.3536L86.6406 34.1456C86.6406 34.1456 87.3246 32.6296 88.8366 32.6856V32.6816Z" fill="#664EFE"/>
<path d="M49.916 49.4581L50.028 48.5221C50.028 48.5221 50.752 49.1541 51.568 48.1621L51.712 49.1381C51.712 49.1381 50.86 49.9101 49.916 49.4581Z" fill="#664EFE"/>
<path d="M46.5508 22.253L46.6628 21.317C46.6628 21.317 47.3868 21.949 48.2028 20.957L48.3468 21.933C48.3468 21.933 47.4948 22.705 46.5508 22.253Z" fill="#664EFE"/>
<path d="M97.7285 20.253L97.8405 19.317C97.8405 19.317 98.5645 19.949 99.3805 18.957L99.5245 19.933C99.5245 19.933 98.6725 20.705 97.7285 20.253Z" fill="#664EFE"/>
<path d="M35.2285 34.0634L35.3885 32.7114C35.3885 32.7114 36.4365 33.6274 37.6165 32.1914L37.8245 33.5994C37.8245 33.5994 36.5925 34.7154 35.2285 34.0634Z" fill="#664EFE"/>
<path opacity="0.7" d="M35.2285 34.0634L35.3885 32.7114C35.3885 32.7114 36.4365 33.6274 37.6165 32.1914L37.8245 33.5994C37.8245 33.5994 36.5925 34.7154 35.2285 34.0634Z" fill="white"/>
<path d="M55.213 34.8606L56.417 34.2246C56.417 34.2246 56.257 35.6086 58.109 35.7646L57.065 36.7366C57.065 36.7366 55.445 36.3566 55.209 34.8606H55.213Z" fill="#664EFE"/>
<path opacity="0.7" d="M55.213 34.8606L56.417 34.2246C56.417 34.2246 56.257 35.6086 58.109 35.7646L57.065 36.7366C57.065 36.7366 55.445 36.3566 55.209 34.8606H55.213Z" fill="white"/>
<path d="M105.713 30.8059L106.917 30.1699C106.917 30.1699 106.757 31.5539 108.609 31.7099L107.565 32.6819C107.565 32.6819 105.945 32.3019 105.709 30.8059H105.713Z" fill="#664EFE"/>
<path opacity="0.7" d="M105.713 30.8059L106.917 30.1699C106.917 30.1699 106.757 31.5539 108.609 31.7099L107.565 32.6819C107.565 32.6819 105.945 32.3019 105.709 30.8059H105.713Z" fill="white"/>
<path d="M153.456 46.209L153.848 47.513C153.848 47.513 152.52 47.093 152.012 48.881L151.26 47.673C151.26 47.673 151.944 46.157 153.456 46.213V46.209Z" fill="#664EFE"/>
<path d="M164.022 60.5525L163.902 59.1965C163.902 59.1965 165.114 59.8765 165.978 58.2285L166.47 59.5645C166.47 59.5645 165.494 60.9085 164.022 60.5485V60.5525Z" fill="#664EFE"/>
<path d="M184.116 106.59L183.996 105.234C183.996 105.234 185.208 105.914 186.072 104.266L186.564 105.602C186.564 105.602 185.588 106.946 184.116 106.586V106.59Z" fill="#664EFE"/>
<path d="M15.4325 115.724L15.3125 114.368C15.3125 114.368 16.5245 115.048 17.3885 113.4L17.8805 114.736C17.8805 114.736 16.9045 116.08 15.4325 115.72V115.724Z" fill="#664EFE"/>
<path d="M163.537 31.6124L163.649 30.6764C163.649 30.6764 164.373 31.3084 165.189 30.3164L165.333 31.2924C165.333 31.2924 164.481 32.0644 163.537 31.6124Z" fill="#664EFE"/>
<path d="M127.113 33.9776L127.225 33.0416C127.225 33.0416 127.949 33.6736 128.765 32.6816L128.909 33.6576C128.909 33.6576 128.057 34.4296 127.113 33.9776Z" fill="#664EFE"/>
<path d="M172.416 40.8801L173.62 40.2441C173.62 40.2441 173.46 41.6281 175.312 41.7841L174.268 42.7561C174.268 42.7561 172.648 42.3761 172.412 40.8801H172.416Z" fill="#664EFE"/>
<path opacity="0.7" d="M172.416 40.8801L173.62 40.2441C173.62 40.2441 173.46 41.6281 175.312 41.7841L174.268 42.7561C174.268 42.7561 172.648 42.3761 172.412 40.8801H172.416Z" fill="white"/>
<path d="M182.098 59.0989L183.302 58.4629C183.302 58.4629 183.142 59.8469 184.994 60.0029L183.95 60.9749C183.95 60.9749 182.33 60.5949 182.094 59.0989H182.098Z" fill="#664EFE"/>
<path opacity="0.7" d="M182.098 59.0989L183.302 58.4629C183.302 58.4629 183.142 59.8469 184.994 60.0029L183.95 60.9749C183.95 60.9749 182.33 60.5949 182.094 59.0989H182.098Z" fill="white"/>
<path d="M173.869 120.564L175.073 119.928C175.073 119.928 174.913 121.312 176.765 121.468L175.721 122.44C175.721 122.44 174.101 122.06 173.865 120.564H173.869Z" fill="#664EFE"/>
<path opacity="0.7" d="M173.869 120.564L175.073 119.928C175.073 119.928 174.913 121.312 176.765 121.468L175.721 122.44C175.721 122.44 174.101 122.06 173.865 120.564H173.869Z" fill="white"/>
<path d="M19.0763 132.021L20.2803 131.385C20.2803 131.385 20.1203 132.769 21.9723 132.925L20.9283 133.897C20.9283 133.897 19.3083 133.517 19.0723 132.021H19.0763Z" fill="#664EFE"/>
<path opacity="0.7" d="M19.0763 132.021L20.2803 131.385C20.2803 131.385 20.1203 132.769 21.9723 132.925L20.9283 133.897C20.9283 133.897 19.3083 133.517 19.0723 132.021H19.0763Z" fill="white"/>
<path d="M146.604 33.018L146.992 31.714C146.992 31.714 147.868 32.794 149.276 31.582L149.24 33.006C149.24 33.006 147.836 33.894 146.6 33.018H146.604Z" fill="#664EFE"/>
<path opacity="0.7" d="M146.604 33.018L146.992 31.714C146.992 31.714 147.868 32.794 149.276 31.582L149.24 33.006C149.24 33.006 147.836 33.894 146.6 33.018H146.604Z" fill="white"/>
<path d="M130.463 19.2895L130.851 17.9855C130.851 17.9855 131.727 19.0655 133.135 17.8535L133.099 19.2775C133.099 19.2775 131.695 20.1655 130.459 19.2895H130.463Z" fill="#664EFE"/>
<path opacity="0.7" d="M130.463 19.2895L130.851 17.9855C130.851 17.9855 131.727 19.0655 133.135 17.8535L133.099 19.2775C133.099 19.2775 131.695 20.1655 130.459 19.2895H130.463Z" fill="white"/>
<path d="M18.6055 49.254C18.1975 44.918 21.3855 41.07 25.7215 40.666C30.0575 40.258 33.9055 43.446 34.3095 47.782C34.6215 51.13 32.7895 54.178 29.9455 55.582L29.3135 57.866L27.3215 56.35C27.2775 56.354 27.2375 56.366 27.1935 56.37C22.8575 56.778 19.0095 53.59 18.6055 49.254Z" fill="#664EFE"/>
<path d="M18.4818 44.7893C18.4818 44.7893 18.4578 44.7893 18.4458 44.7813C18.3938 44.7613 18.3698 44.7053 18.3858 44.6533C19.2978 42.2333 21.5258 40.3253 24.0578 39.7933C24.1098 39.7813 24.1658 39.8173 24.1778 39.8693C24.1898 39.9213 24.1538 39.9773 24.1018 39.9893C21.6338 40.5093 19.4658 42.3693 18.5738 44.7253C18.5578 44.7653 18.5218 44.7893 18.4818 44.7893Z" fill="#664EFE"/>
<path d="M17.8423 47.0412C17.7863 47.0412 17.7423 46.9932 17.7463 46.9372C17.7543 46.5332 17.8503 46.1292 18.0183 45.7612C18.0423 45.7092 18.1023 45.6892 18.1503 45.7132C18.1983 45.7372 18.2223 45.7972 18.1983 45.8452C18.0383 46.1852 17.9503 46.5652 17.9423 46.9412C17.9423 46.9972 17.8983 47.0372 17.8423 47.0372V47.0412Z" fill="#664EFE"/>
<path d="M26.4581 52.7171C26.1621 52.7171 25.9141 52.6211 25.7141 52.4291C25.5141 52.2371 25.4141 52.0051 25.4141 51.7291C25.4141 51.4531 25.5101 51.2251 25.7061 51.0411C25.9021 50.8571 26.1501 50.7651 26.4541 50.7651C26.7581 50.7651 27.0061 50.8571 27.2021 51.0411C27.3981 51.2251 27.4941 51.4571 27.4941 51.7291C27.4941 52.0011 27.3941 52.2371 27.1941 52.4291C26.9941 52.6211 26.7461 52.7171 26.4501 52.7171H26.4581ZM27.1301 49.9931H25.7861L25.4501 45.0371H27.4661L27.1301 49.9931Z" fill="white"/>
<path d="M181.085 81.8816C181.077 80.9256 180.397 79.9656 179.453 79.8016C180.289 79.4856 181.085 78.9056 181.385 78.0616C181.681 77.2176 181.301 76.1136 180.449 75.8496C179.745 75.6296 179.005 76.0016 178.353 76.3456C177.373 76.8576 176.265 77.3416 175.193 77.0776C174.053 76.7976 173.273 75.7496 172.745 74.7016C172.217 73.6536 171.817 72.5056 170.997 71.6616C170.181 70.8176 168.757 70.3936 167.829 71.1176L167.213 74.6056C167.465 77.5536 168.009 80.6496 170.009 82.8296C172.077 85.0856 174.173 85.7416 177.101 85.3016C178.049 85.1576 178.997 84.8816 179.765 84.3096C180.533 83.7376 181.097 82.8376 181.089 81.8816H181.085Z" fill="#2E2E2E"/>
<path d="M167.827 71.1152C168.051 71.3032 171.343 73.2112 169.967 76.1872C168.591 79.1632 167.795 78.4112 167.795 78.4112L167.831 71.1152H167.827Z" fill="#2E2E2E"/>
<path d="M157.573 84.5468C158.197 84.2748 158.433 83.9588 158.601 83.2748C158.737 82.7508 158.781 82.1668 158.789 81.5828L159.745 81.1188L164.505 79.2148C163.453 81.4108 161.433 84.8228 162.649 86.7948C162.649 86.7948 164.377 88.5668 165.189 89.1988C164.425 89.4148 156.385 93.3828 153.157 91.6588C150.225 90.0908 153.785 84.8068 154.653 84.1388C155.633 84.2468 156.677 84.3788 157.573 84.5468Z" fill="#E9B376"/>
<path opacity="0.2" d="M158.482 83.5634C159.53 83.7154 161.162 83.6114 161.826 82.6074C162.098 82.1954 162.282 81.7514 162.374 81.4434L158.81 82.1154C158.678 82.5554 158.786 82.9754 158.482 83.5634Z" fill="#2E2E2E"/>
<path d="M167.304 76.1727C165.5 79.4287 164.808 80.8447 162.272 81.8527C158.46 83.3687 154.804 80.6847 155.584 77.0167C156.288 73.7127 159.12 68.9407 163.08 68.9807C166.98 69.0207 169.108 72.9167 167.304 76.1767V76.1727Z" fill="#E9B376"/>
<path d="M162.047 75.4059C161.915 75.7299 161.623 75.9299 161.387 75.8539C161.155 75.7779 161.071 75.4579 161.203 75.1379C161.335 74.8139 161.627 74.6139 161.859 74.6899C162.091 74.7659 162.175 75.0859 162.043 75.4059H162.047Z" fill="#2E2E2E"/>
<path d="M163.45 74.6402C163.406 74.6242 163.366 74.5922 163.346 74.5482C163.042 73.8322 162.382 73.7362 162.374 73.7362C162.274 73.7242 162.21 73.6322 162.23 73.5362C162.25 73.4402 162.346 73.3722 162.446 73.3842C162.482 73.3882 163.314 73.5082 163.69 74.4002C163.726 74.4882 163.682 74.5962 163.586 74.6362C163.542 74.6562 163.49 74.6562 163.45 74.6442V74.6402Z" fill="#2E2E2E"/>
<path d="M158.809 71.7179C158.773 71.6899 158.753 71.6499 158.749 71.6019C158.741 71.5059 158.821 71.4219 158.921 71.4139C159.957 71.3419 160.489 71.9739 160.513 72.0019C160.577 72.0779 160.561 72.1859 160.477 72.2459C160.393 72.3059 160.277 72.2899 160.213 72.2139C160.193 72.1899 159.773 71.7059 158.949 71.7619C158.897 71.7619 158.845 71.7499 158.809 71.7179Z" fill="#2E2E2E"/>
<path d="M160.061 74.0957C160.061 74.0957 158.969 75.1317 158.025 75.6597C157.861 75.7517 157.837 75.9837 157.973 76.1157C158.325 76.4557 158.877 76.5317 158.877 76.5317L160.065 74.0957H160.061Z" fill="#D58745"/>
<path d="M161.984 74.7707L161.244 74.3027C161.244 74.3027 161.588 75.0987 161.984 74.7707Z" fill="#2E2E2E"/>
<path d="M158.957 74.0346C158.825 74.3546 158.533 74.5586 158.297 74.4826C158.065 74.4066 157.981 74.0866 158.113 73.7666C158.245 73.4466 158.537 73.2426 158.769 73.3186C159.001 73.3946 159.085 73.7146 158.953 74.0346H158.957Z" fill="#2E2E2E"/>
<path d="M158.844 73.3352L158.104 72.8672C158.104 72.8672 158.448 73.6632 158.844 73.3352Z" fill="#2E2E2E"/>
<path d="M163.833 81.0228C165.897 80.5868 168.541 78.4668 169.157 75.9588C169.801 73.3428 168.525 70.6188 165.541 69.1788C159.693 66.3588 156.873 73.6068 156.873 73.6068C160.509 67.2948 165.505 71.9788 165.505 71.9788C163.313 74.2068 164.989 76.8668 164.989 76.8668C165.121 79.0188 163.833 81.0188 163.833 81.0188V81.0228Z" fill="#2E2E2E"/>
<path d="M167.111 79.3896C166.403 79.9096 165.559 80.0616 164.895 79.9456C163.899 79.7776 164.071 78.1256 164.771 77.3616C165.403 76.6736 166.523 76.5256 167.319 77.0856C168.103 77.6376 167.915 78.7936 167.107 79.3896H167.111Z" fill="#E9B376"/>
<path opacity="0.2" d="M165.764 79.212C165.672 79.212 165.572 79.204 165.464 79.188C165.408 79.18 165.372 79.128 165.38 79.076C165.388 79.02 165.436 78.984 165.492 78.992C166.028 79.072 166.352 78.908 166.528 78.756C166.72 78.592 166.788 78.396 166.788 78.28C166.788 78.048 166.596 77.788 166.324 77.784C166.268 77.784 166.224 77.74 166.224 77.684C166.224 77.628 166.268 77.584 166.324 77.584C166.72 77.588 166.984 77.948 166.984 78.28C166.984 78.492 166.856 78.728 166.656 78.904C166.484 79.052 166.2 79.208 165.76 79.208L165.764 79.212Z" fill="#2E2E2E"/>
<path d="M169.253 74.9394C169.329 73.5154 168.669 70.0474 164.057 68.3954C159.445 66.7434 157.453 69.4514 157.453 69.4514C158.441 68.9074 159.557 68.6234 160.685 68.6354C159.369 68.8194 158.209 69.6034 157.557 70.7634C157.889 70.4074 159.169 70.6194 159.169 70.6194C159.693 70.1474 160.289 69.7594 160.933 69.4754C160.261 69.7634 159.837 71.0034 159.837 71.0034L161.165 71.6394C161.481 70.8874 162.045 70.2634 162.761 69.8754C162.285 70.5194 162.017 71.2994 161.997 72.0994C162.185 71.2114 162.737 70.4434 163.513 69.9794C163.001 70.6714 162.621 71.4514 162.401 72.2834C163.021 72.8474 163.565 73.4874 164.017 74.1914C164.189 73.2394 164.677 72.3754 165.397 71.7314C164.045 73.8634 165.109 76.5354 165.109 76.5354C165.109 76.5354 169.177 76.3594 169.253 74.9354V74.9394Z" fill="#2E2E2E"/>
<path d="M159.525 77.9626C159.673 78.3666 159.797 79.1146 159.797 79.1146C159.865 79.1146 159.937 79.1146 160.005 79.1146C160.949 79.1066 161.385 78.7906 161.585 78.4466C161.693 78.2546 161.725 78.0546 161.729 77.8866C161.737 77.6946 161.701 77.5586 161.701 77.5586C161.201 77.8626 160.321 77.9346 159.849 77.9546C159.653 77.9666 159.525 77.9626 159.525 77.9626Z" fill="#2E2E2E"/>
<path d="M159.844 77.9547L159.932 78.2907C160.824 78.2827 161.448 78.1547 161.724 77.8827C161.732 77.6907 161.696 77.5547 161.696 77.5547C161.196 77.8587 160.316 77.9307 159.844 77.9507V77.9547Z" fill="white"/>
<path d="M160 79.1133C160.944 79.1053 161.38 78.7893 161.58 78.4453C161.26 78.4613 160.872 78.5133 160.532 78.6613C160.272 78.7733 160.108 78.9453 160 79.1173V79.1133Z" fill="#C15854"/>
<path d="M147.58 83.9189C147.58 83.9189 144.544 74.2269 144.8 72.4229C145.056 70.6189 149.564 61.7109 149.564 61.7109L152.276 63.1229L148.92 72.7309L153.172 82.0789L147.58 83.9189Z" fill="#E9B376"/>
<path d="M148.184 88.7737C147.992 85.3577 146.16 79.9497 146.16 79.9497L151.428 77.3457C151.428 77.3457 153.072 82.0417 155.344 83.9617C155.344 83.9617 148.28 90.8457 148.184 88.7737Z" fill="#2E2E2E"/>
<path d="M147.773 65.4474L149.565 61.7114C149.565 61.7114 149.369 60.8474 149.377 60.2114C149.385 59.5714 149.437 58.7634 150.157 57.9834C150.877 57.2034 151.001 57.9834 151.001 57.9834C151.829 57.3034 152.365 58.0554 152.365 58.0554C153.073 57.4434 153.709 58.1914 153.709 58.1914C153.709 58.1914 154.549 58.9314 154.721 59.4154C154.889 59.8994 154.093 61.5674 154.093 61.5674L152.425 62.8234L151.025 66.7074C150.957 66.6794 147.777 65.4474 147.777 65.4474H147.773Z" fill="#E9B376"/>
<path opacity="0.3" d="M151.511 61.0118C151.955 60.5678 152.567 60.3478 153.191 60.3998C153.231 60.3998 153.267 60.3678 153.279 60.3318C153.375 60.0038 153.475 59.6718 153.571 59.3438C153.583 59.3038 153.563 59.2638 153.531 59.2438C153.211 59.0558 152.759 58.7558 152.951 58.3238C152.951 58.3238 152.963 58.3158 152.959 58.3158C152.991 58.3158 153.023 58.3238 153.067 58.3398C153.243 58.4118 153.407 58.5358 153.559 58.6478C153.915 58.9078 154.251 59.1878 154.587 59.4718C154.675 59.5438 154.803 59.4198 154.715 59.3438C154.399 59.0798 154.079 58.8158 153.747 58.5638C153.571 58.4318 153.391 58.2958 153.195 58.1998C153.011 58.1118 152.827 58.0998 152.751 58.3198C152.579 58.8198 153.071 59.1758 153.439 59.3958L153.399 59.2958C153.303 59.6238 153.203 59.9558 153.107 60.2838L153.195 60.2158C152.527 60.1598 151.863 60.4078 151.387 60.8798C151.303 60.9598 151.431 61.0878 151.515 61.0078L151.511 61.0118Z" fill="#2E2E2E"/>
<path opacity="0.3" d="M149.636 58.816C149.544 58.98 149.544 59.176 149.628 59.34C149.712 59.504 149.892 59.608 150.08 59.616C150.268 59.624 150.44 59.528 150.552 59.372C150.668 59.212 150.72 59.008 150.796 58.824C150.896 58.576 151.024 58.336 151.168 58.108C151.228 58.008 151.076 57.92 151.012 58.016C150.876 58.232 150.756 58.46 150.656 58.696C150.576 58.888 150.524 59.112 150.396 59.28C150.284 59.428 150.08 59.48 149.912 59.384C149.744 59.288 149.696 59.064 149.788 58.9C149.844 58.8 149.688 58.708 149.632 58.808L149.636 58.816Z" fill="#2E2E2E"/>
<path opacity="0.3" d="M150.64 59.2017C150.696 59.4497 150.84 59.6937 151.068 59.8137C151.272 59.9177 151.54 59.9177 151.732 59.7817C151.96 59.6177 151.996 59.3097 152.092 59.0657C152.204 58.7737 152.364 58.4937 152.556 58.2457C152.628 58.1537 152.5 58.0257 152.428 58.1177C152.268 58.3257 152.128 58.5457 152.016 58.7817C151.964 58.8977 151.916 59.0137 151.872 59.1337C151.828 59.2537 151.804 59.3857 151.74 59.5017C151.632 59.6937 151.4 59.7537 151.2 59.6777C150.98 59.5937 150.856 59.3737 150.808 59.1537C150.784 59.0417 150.608 59.0897 150.636 59.2017H150.64Z" fill="#2E2E2E"/>
<path opacity="0.3" d="M152.039 59.4427C152.135 59.6987 152.367 59.8787 152.639 59.9067C152.911 59.9347 153.183 59.7707 153.307 59.5307C153.359 59.4267 153.207 59.3387 153.151 59.4387C153.055 59.6227 152.859 59.7387 152.655 59.7267C152.463 59.7147 152.279 59.5747 152.211 59.3947C152.195 59.3507 152.151 59.3187 152.099 59.3307C152.055 59.3427 152.019 59.3947 152.035 59.4427H152.039Z" fill="#2E2E2E"/>
<path d="M163.631 86.769C161.379 88.585 155.099 88.877 155.099 88.877C154.651 86.313 155.287 84.897 156.123 84.125L156.547 84.225C158.691 84.813 160.787 85.557 162.823 86.449C163.079 86.553 163.351 86.673 163.635 86.769H163.631Z" fill="#E9B376"/>
<path d="M143.242 104.174L161.778 109.334L162.95 106.638L153.462 101.418L144.49 101.598L143.242 104.174Z" fill="#2E2E2E"/>
<path opacity="0.2" d="M143.242 104.174L161.778 109.334L162.95 106.638L153.462 101.418L144.49 101.598L143.242 104.174Z" fill="#2E2E2E"/>
<path d="M156.545 84.2143C158.685 84.8063 160.785 85.5463 162.821 86.4383C164.737 87.2383 166.589 88.1783 168.365 89.2503C161.633 99.8583 160.461 103.346 158.725 109.054C156.061 108.118 150.189 108.002 144.701 106.082C146.369 90.6023 152.045 84.0103 152.045 84.0103C153.541 83.7263 155.081 83.7983 156.545 84.2183V84.2143Z" fill="#E9B376"/>
<path d="M161.27 107.621C160.066 105.117 154.558 103.881 150.298 103.109C146.038 102.337 143.238 104.173 143.238 104.173L143.934 101.705C144.442 99.8855 145.238 97.0935 146.89 91.6655C147.554 89.4855 148.682 86.9455 149.914 85.5535C150.354 84.7255 150.906 83.9575 151.55 83.2735C152.69 82.1735 153.614 82.1495 155.566 84.0375C155.566 84.0375 155.562 85.8255 157.346 86.7815C160.018 88.2095 163.482 86.4495 163.482 86.4495C163.482 86.4495 167.202 88.2135 168.206 89.2575C168.626 89.6975 167.822 91.2855 166.498 93.7655C166.466 93.8175 166.418 93.8695 166.414 93.9215C165.69 95.2455 163.774 98.3775 162.842 100.177C161.186 103.317 166.47 106.897 161.774 109.337L161.266 107.629L161.27 107.621Z" fill="#2E2E2E"/>
<path opacity="0.2" d="M164.357 93.7058C164.469 93.3138 164.557 93.0898 164.557 93.0898C165.305 93.1018 166.033 93.3418 166.645 93.7698C166.613 93.8218 166.565 93.8738 166.561 93.9258C165.837 95.2498 164.789 96.5298 163.861 98.3298C163.597 96.6778 163.877 95.3018 164.361 93.7018L164.357 93.7058Z" fill="#2E2E2E"/>
<path d="M174.555 95.3864C174.275 96.0624 174.163 96.9584 173.995 97.7784C171.911 95.6904 170.211 92.9304 168.795 90.3984L163.879 92.8144V92.8264C166.019 97.0064 168.851 100.914 172.959 103.37C174.443 104.262 176.367 103.782 177.259 102.298C177.287 102.25 177.315 102.206 177.339 102.158C178.351 100.462 178.247 99.8704 178.571 98.1904L174.555 95.3824V95.3864Z" fill="#E9B376"/>
<path d="M163.786 93.3176C163.446 95.2896 166.554 98.7296 166.554 98.7296L171.606 93.8856C171.606 93.8856 169.446 89.7256 168.054 89.0816C166.474 88.3336 164.13 91.3496 163.79 93.3216L163.786 93.3176Z" fill="#2E2E2E"/>
<path d="M182.479 84.0077L182.579 92.3997L170.771 95.8157L171.135 86.6397L181.399 83.6797L182.479 84.0077Z" fill="#664EFE"/>
<path opacity="0.2" d="M182.479 84.0077L182.579 92.3997L170.771 95.8157L171.135 86.6397L181.399 83.6797L182.479 84.0077Z" fill="#2E2E2E"/>
<path d="M174.87 87.1827L173.806 95.9347L171.514 95.0307L171.554 87.0547L174.87 87.1827Z" fill="#664EFE"/>
<path opacity="0.7" d="M174.87 87.1827L173.806 95.9347L171.514 95.0307L171.554 87.0547L174.87 87.1827Z" fill="white"/>
<path d="M181.403 83.6797L182.483 84.0077L183.339 92.9357L172.623 96.1517L172.631 87.5397L171.139 86.6397L181.403 83.6797Z" fill="#664EFE"/>
<path d="M175.519 93.3515L175.719 89.2115C175.719 89.2115 175.203 88.4915 174.963 87.8995C174.723 87.3075 174.455 86.5435 174.819 85.5435C175.183 84.5475 175.595 85.2115 175.595 85.2115C176.095 84.2595 176.879 84.7515 176.879 84.7515C177.295 83.9115 178.171 84.3555 178.171 84.3555C178.171 84.3555 179.235 84.7115 179.579 85.0915C179.923 85.4715 179.835 87.3195 179.835 87.3195L178.787 89.1275L178.843 93.2555C178.771 93.2555 175.519 93.3515 175.519 93.3515Z" fill="#E9B376"/>
<path d="M173.998 97.7789L175.718 89.2109L178.794 89.2989C178.794 89.2989 179.198 98.9589 177.79 101.323C176.382 103.687 175.266 101.999 175.266 101.999L173.998 97.7789Z" fill="#E9B376"/>
<path d="M153.337 178.292L149.829 179.024L146.229 170.328L151.561 169.156L153.337 178.292Z" fill="#E9B376"/>
<path d="M149.053 177.823L150.265 177.431C150.541 177.343 150.837 177.399 151.073 177.567C152.081 178.295 152.489 177.763 152.961 176.619C153.425 176.407 153.737 176.919 153.825 177.055L155.797 180.059C155.965 180.307 155.897 180.647 155.649 180.815C155.605 180.843 155.557 180.867 155.505 180.883C154.033 181.359 153.337 181.583 151.505 182.179L145.901 183.991C144.373 184.487 143.557 183.047 144.141 182.703C146.769 181.163 148.501 179.679 149.109 178.575C149.225 178.379 149.025 178.323 149.053 177.823Z" fill="#2E2E2E"/>
<path d="M147.609 179.531C147.989 179.399 148.353 179.227 148.697 179.019C148.729 178.995 148.733 178.951 148.709 178.919C148.697 178.903 148.677 178.891 148.657 178.891C148.461 178.863 146.717 178.647 146.421 179.039C146.365 179.107 146.353 179.203 146.393 179.283C146.445 179.439 146.569 179.563 146.725 179.611C147.021 179.679 147.329 179.651 147.609 179.531ZM148.429 179.003C148.009 179.231 147.213 179.611 146.785 179.463C146.673 179.423 146.585 179.335 146.541 179.223C146.521 179.191 146.525 179.147 146.553 179.119C146.717 178.903 147.709 178.927 148.429 179.003Z" fill="#664EFE"/>
<path d="M148.683 179.026C148.683 179.026 148.715 179.022 148.731 179.01C148.747 178.986 148.743 178.954 148.731 178.934C148.711 178.87 147.871 177.494 147.071 177.858C146.875 177.954 146.847 178.07 146.867 178.158C146.943 178.57 148.139 179.01 148.655 179.054L148.687 179.03L148.683 179.026ZM147.191 177.95C147.719 177.778 148.303 178.55 148.519 178.866C147.939 178.766 147.047 178.366 147.011 178.114C147.003 178.094 146.987 178.038 147.135 177.974L147.191 177.954V177.95Z" fill="#664EFE"/>
<path d="M149.755 179.461C149.731 179.461 149.711 179.453 149.691 179.437C149.371 179.169 148.939 179.053 148.527 179.129C148.475 179.141 148.419 179.101 148.411 179.049C148.403 178.997 148.439 178.941 148.491 178.933C148.955 178.849 149.451 178.981 149.815 179.285C149.859 179.321 149.863 179.385 149.827 179.425C149.807 179.449 149.779 179.461 149.751 179.461H149.755Z" fill="#664EFE"/>
<path d="M149.191 180.274C149.167 180.274 149.147 180.266 149.127 180.25C148.807 179.982 148.375 179.87 147.963 179.942C147.907 179.95 147.855 179.914 147.847 179.862C147.839 179.806 147.875 179.754 147.927 179.746C148.395 179.662 148.891 179.794 149.251 180.098C149.295 180.134 149.299 180.198 149.263 180.238C149.243 180.262 149.215 180.274 149.187 180.274H149.191Z" fill="#664EFE"/>
<path d="M148.406 181.055C148.382 181.055 148.362 181.047 148.342 181.031C148.022 180.763 147.59 180.651 147.178 180.723C147.126 180.735 147.07 180.695 147.062 180.643C147.054 180.587 147.09 180.535 147.142 180.527C147.61 180.443 148.106 180.575 148.466 180.879C148.51 180.915 148.514 180.979 148.478 181.019C148.458 181.043 148.43 181.055 148.402 181.055H148.406Z" fill="#664EFE"/>
<path opacity="0.3" d="M148.676 176.239L148.98 176.979L152.864 175.851L152.688 174.959L148.676 176.239Z" fill="#2E2E2E"/>
<path d="M181.081 156.253L178.821 159.037L170.541 154.565L173.933 150.289L181.081 156.253Z" fill="#E9B376"/>
<path d="M177.533 158.521L178.225 157.453C178.381 157.209 178.649 157.065 178.937 157.049C180.177 156.977 180.161 156.309 179.801 155.125C180.029 154.665 180.589 154.869 180.745 154.917L184.173 156.001C184.461 156.089 184.625 156.393 184.537 156.681C184.521 156.733 184.497 156.781 184.469 156.825C183.629 158.125 183.229 158.737 182.185 160.357L178.985 165.301C178.113 166.649 176.573 166.049 176.809 165.413C177.873 162.561 178.281 160.317 178.053 159.073C178.017 158.849 177.829 158.933 177.533 158.521Z" fill="#2E2E2E"/>
<path d="M177.492 160.755C177.704 160.411 177.876 160.047 178.012 159.671C178.02 159.635 177.996 159.595 177.96 159.587C177.94 159.583 177.916 159.587 177.9 159.599C177.728 159.703 176.24 160.635 176.26 161.123C176.26 161.211 176.312 161.295 176.392 161.331C176.532 161.419 176.704 161.435 176.86 161.375C177.132 161.243 177.356 161.023 177.496 160.755H177.492ZM177.796 159.827C177.616 160.271 177.236 161.067 176.812 161.223C176.7 161.263 176.576 161.251 176.472 161.191C176.436 161.175 176.412 161.143 176.416 161.103C176.408 160.835 177.192 160.223 177.796 159.827Z" fill="#664EFE"/>
<path d="M178.004 159.685C178.004 159.685 178.028 159.661 178.032 159.645C178.028 159.617 178.008 159.593 177.98 159.585C177.924 159.549 176.404 159.013 176.012 159.797C175.92 159.993 175.972 160.105 176.04 160.157C176.36 160.429 177.564 160.013 177.992 159.721L178 159.681L178.004 159.685ZM176.164 159.793C176.464 159.329 177.408 159.557 177.772 159.665C177.26 159.953 176.316 160.209 176.128 160.033C176.112 160.021 176.06 159.989 176.136 159.845L176.164 159.793Z" fill="#664EFE"/>
<path d="M177.878 159.896C177.854 159.896 177.83 159.888 177.814 159.872C177.774 159.836 177.766 159.772 177.802 159.732C178.11 159.372 178.57 159.168 179.05 159.168C179.106 159.168 179.15 159.216 179.15 159.268C179.15 159.324 179.106 159.368 179.05 159.368C179.046 159.368 179.038 159.368 179.034 159.368C178.626 159.368 178.222 159.552 177.954 159.864C177.934 159.888 177.906 159.9 177.878 159.9V159.896Z" fill="#664EFE"/>
<path d="M177.949 160.883C177.925 160.883 177.901 160.875 177.885 160.859C177.845 160.823 177.837 160.759 177.873 160.719C178.181 160.359 178.645 160.147 179.121 160.155C179.177 160.155 179.221 160.203 179.221 160.255C179.221 160.311 179.177 160.355 179.121 160.355C179.113 160.355 179.109 160.355 179.105 160.355C178.697 160.355 178.293 160.539 178.025 160.851C178.005 160.875 177.977 160.887 177.949 160.887V160.883Z" fill="#664EFE"/>
<path d="M177.833 161.984C177.809 161.984 177.785 161.976 177.769 161.96C177.729 161.924 177.721 161.86 177.757 161.82C178.061 161.464 178.521 161.256 178.989 161.256H179.009C179.065 161.256 179.109 161.304 179.109 161.356C179.109 161.412 179.065 161.456 179.009 161.456C179.005 161.456 178.997 161.456 178.993 161.456C178.585 161.456 178.181 161.64 177.913 161.952C177.893 161.976 177.865 161.988 177.837 161.988L177.833 161.984Z" fill="#664EFE"/>
<path opacity="0.3" d="M175.172 157.142L176.42 157.742L178.68 154.25L177.872 153.574L175.172 157.142Z" fill="#2E2E2E"/>
<path d="M155.426 106.508C155.426 106.508 150.954 133.204 149.586 144.832L153.982 174.696L147.122 176.64C147.122 176.64 138.682 153.312 139.274 142.396C138.458 132.416 142.954 106.32 144.71 105.668L155.426 106.504V106.508Z" fill="#664EFE"/>
<path opacity="0.2" d="M155.426 106.508C155.426 106.508 150.954 133.204 149.586 144.832L153.982 174.696L147.122 176.64C147.122 176.64 138.682 153.312 139.274 142.396C138.458 132.416 142.954 106.32 144.71 105.668L155.426 106.504V106.508Z" fill="#2E2E2E"/>
<path opacity="0.2" d="M153.397 115.622C152.029 122.15 151.089 135.246 149.873 142.55C148.981 137.554 147.509 122.55 151.653 115.61C153.553 112.406 153.129 111.842 153.401 115.618L153.397 115.622Z" fill="#2E2E2E"/>
<path d="M159.422 106.832C159.422 106.832 163.338 111.584 163.654 119.836C163.918 126.72 161.074 135.776 161.71 141.092C168.314 142.688 177.906 153.544 177.906 153.544L175.45 157.552C175.45 157.552 154.698 149.244 152.558 144.1C150.626 133.612 148.75 105.996 148.75 105.996L159.422 106.828V106.832Z" fill="#664EFE"/>
<path opacity="0.2" d="M159.422 106.832C159.422 106.832 163.338 111.584 163.654 119.836C163.918 126.72 161.074 135.776 161.71 141.092C168.314 142.688 177.906 153.544 177.906 153.544L175.45 157.552C175.45 157.552 154.698 149.244 152.558 144.1C150.626 133.612 148.75 105.996 148.75 105.996L159.422 106.828V106.832Z" fill="#2E2E2E"/>
<path d="M44.6094 77.5727L54.6574 67.4207L55.7414 55.4727L58.8054 56.6127C58.8054 56.6127 59.9094 68.2647 59.0934 69.5767C58.2734 70.8927 49.3854 80.9327 49.3854 80.9327L44.6134 77.5767L44.6094 77.5727Z" fill="#895555"/>
<path d="M59.0775 59.6352L58.8055 55.4992C58.8055 55.4992 59.3055 54.7712 59.5375 54.1752C59.7695 53.5792 60.0215 52.8072 59.6415 51.8192C59.2615 50.8272 58.8575 51.5032 58.8575 51.5032C58.3415 50.5632 57.5655 51.0632 57.5655 51.0632C57.1375 50.2312 56.2655 50.6872 56.2655 50.6872C56.2655 50.6872 55.2095 51.0592 54.8695 51.4472C54.5295 51.8352 54.6495 53.6792 54.6495 53.6792L55.7295 55.4672L55.5855 59.5952C55.6575 59.5952 59.0694 59.6352 59.0694 59.6352H59.0775Z" fill="#895555"/>
<path opacity="0.3" d="M57.4214 54.0434C57.1574 53.4274 56.6254 52.9554 55.9894 52.7594L56.0574 52.8474C56.0894 52.5034 56.1214 52.1634 56.1534 51.8194L56.0854 51.9074C56.4694 51.8474 56.9134 51.7474 57.0734 51.3434C57.1174 51.2354 57.1454 51.0634 57.0574 50.9634C56.9934 50.8954 56.8894 50.8834 56.8014 50.8874C56.6134 50.8874 56.4214 50.9394 56.2374 50.9874C55.7934 51.0994 55.3574 51.2394 54.9214 51.3834C54.8134 51.4194 54.8574 51.5914 54.9694 51.5554C55.3894 51.4194 55.8134 51.2794 56.2414 51.1714C56.4294 51.1234 56.6294 51.0674 56.8254 51.0674C56.8734 51.0674 56.8974 51.0714 56.9214 51.0874C56.9214 51.0874 56.9294 51.0874 56.9294 51.1114C56.9294 51.0914 56.9294 51.1634 56.9294 51.1794C56.9174 51.2994 56.8454 51.4074 56.7574 51.4874C56.5614 51.6634 56.2814 51.6994 56.0334 51.7394C55.9934 51.7474 55.9694 51.7914 55.9654 51.8274C55.9334 52.1714 55.9014 52.5114 55.8694 52.8554C55.8694 52.8954 55.9014 52.9314 55.9374 52.9434C56.5374 53.1274 57.0174 53.5674 57.2654 54.1434C57.3094 54.2514 57.4654 54.1594 57.4214 54.0514V54.0434Z" fill="#2E2E2E"/>
<path opacity="0.3" d="M59.6404 52.7947C59.6604 52.9747 59.5564 53.1627 59.3724 53.2067C59.1884 53.2507 58.9964 53.1227 58.9404 52.9387C58.8804 52.7307 58.9204 52.4947 58.9164 52.2787C58.9084 52.0227 58.8804 51.7707 58.8364 51.5227C58.8164 51.4107 58.6404 51.4587 58.6644 51.5707C58.7204 51.8827 58.7444 52.1987 58.7364 52.5147C58.7324 52.7627 58.7164 53.0427 58.9044 53.2307C59.0604 53.3907 59.3204 53.4387 59.5204 53.3427C59.7204 53.2467 59.8484 53.0147 59.8204 52.7947C59.8084 52.6827 59.6284 52.6787 59.6404 52.7947Z" fill="#2E2E2E"/>
<path opacity="0.3" d="M58.5925 52.6706C58.4685 52.8506 58.2725 52.9986 58.0485 53.0026C57.8405 53.0026 57.6405 52.8666 57.6045 52.6546C57.5845 52.5346 57.6045 52.4146 57.6165 52.2946C57.6245 52.1586 57.6285 52.0266 57.6165 51.8906C57.6045 51.6266 57.5565 51.3626 57.4845 51.1106C57.4525 50.9986 57.2805 51.0466 57.3125 51.1586C57.4005 51.4706 57.4445 51.7906 57.4405 52.1106C57.4405 52.3826 57.3485 52.6946 57.5285 52.9346C57.6685 53.1186 57.9125 53.2066 58.1405 53.1746C58.3965 53.1386 58.6045 52.9706 58.7445 52.7626C58.8085 52.6666 58.6525 52.5786 58.5885 52.6706H58.5925Z" fill="#2E2E2E"/>
<path opacity="0.3" d="M57.2169 52.3545C57.0809 52.5025 56.8649 52.5665 56.6729 52.5065C56.4809 52.4465 56.3409 52.2665 56.3209 52.0705C56.3169 52.0225 56.2849 51.9785 56.2289 51.9785C56.1849 51.9785 56.1329 52.0185 56.1369 52.0705C56.1649 52.3425 56.3449 52.5865 56.6049 52.6745C56.8649 52.7625 57.1609 52.6785 57.3409 52.4825C57.4169 52.3985 57.2929 52.2705 57.2129 52.3545H57.2169Z" fill="#2E2E2E"/>
<path d="M71.0567 174.321L67.1367 164.065L73.9207 162.105L76.0367 174.789L71.0567 174.321Z" fill="#664EFE"/>
<path opacity="0.7" d="M71.0567 174.321L67.1367 164.065L73.9207 162.105L76.0367 174.789L71.0567 174.321Z" fill="white"/>
<path d="M71.8608 179.699L74.6968 179.515C74.6968 179.515 75.2528 179.191 75.5928 179.207C75.9328 179.223 77.1128 179.359 77.1128 179.359L84.6488 178.871C84.5688 178.579 84.4768 178.319 84.3768 178.091C84.2528 177.811 84.1208 177.579 83.9728 177.383C83.4608 176.699 82.8048 176.483 82.1088 176.487C81.0488 176.495 77.5928 174.627 77.5928 174.627C77.5928 174.627 76.3608 174.311 76.2168 173.111C76.1608 172.663 75.4168 172.155 75.0768 172.131C74.3808 172.083 74.0248 172.515 73.9688 173.171L73.9008 173.931L72.2928 173.803C72.2928 173.803 70.6248 173.143 70.7488 173.879C70.8208 174.299 71.2168 176.171 71.4888 177.659C71.5528 178.007 71.6128 178.335 71.6608 178.623C71.7768 179.263 71.8568 179.703 71.8568 179.703L71.8608 179.699Z" fill="#2E2E2E"/>
<g opacity="0.7">
<path d="M84.6539 178.87L77.1179 179.358C77.1179 179.358 75.9339 179.226 75.5979 179.206C75.2579 179.19 74.7019 179.514 74.7019 179.514L71.8659 179.698C71.8659 179.698 71.7859 179.258 71.6699 178.622L84.3819 178.09C84.4819 178.318 84.5739 178.578 84.6539 178.87Z" fill="white"/>
</g>
<path d="M79.2985 175.294C79.2625 175.266 79.2065 175.266 79.1665 175.294C78.9865 175.422 78.8425 175.598 78.7465 175.81C78.6985 175.922 78.8745 176.018 78.9225 175.902C79.0065 175.714 79.1345 175.558 79.2905 175.446C79.3425 175.41 79.3465 175.338 79.2985 175.298V175.294Z" fill="white"/>
<path d="M78.6774 175.001C78.6414 174.973 78.5854 174.973 78.5454 175.001C78.3654 175.129 78.2214 175.305 78.1254 175.517C78.0774 175.629 78.2534 175.725 78.3014 175.609C78.3854 175.421 78.5134 175.265 78.6694 175.153C78.7214 175.117 78.7254 175.045 78.6774 175.005V175.001Z" fill="white"/>
<path d="M78.0407 174.73C78.0047 174.702 77.9487 174.702 77.9087 174.73C77.7287 174.858 77.5847 175.034 77.4887 175.246C77.4407 175.358 77.6167 175.454 77.6647 175.338C77.7487 175.15 77.8767 174.994 78.0327 174.882C78.0847 174.846 78.0887 174.774 78.0407 174.734V174.73Z" fill="white"/>
<path d="M67.7891 165.874L74.2051 163.83L74.4291 165.154L68.3331 167.19L67.7891 165.874Z" fill="#664EFE"/>
<path d="M68.4648 167.636L74.5008 165.58L74.5808 166.056L68.6888 168.212L68.4648 167.636Z" fill="#664EFE"/>
<path d="M33.5527 176.615L33.5807 165.635L40.6127 166.243L38.0327 178.839L33.5527 176.615Z" fill="#664EFE"/>
<path opacity="0.7" d="M33.5527 176.615L33.5807 165.635L40.6127 166.243L38.0327 178.839L33.5527 176.615Z" fill="white"/>
<path d="M32.6502 181.812L36.3342 182.276C36.3342 182.276 36.9302 182.036 37.2622 182.104C37.5942 182.172 38.7462 182.476 38.7462 182.476L46.1342 183.128C46.0982 182.828 46.0462 182.556 45.9782 182.316C45.8982 182.024 45.7982 181.772 45.6822 181.556C45.2742 180.804 44.7942 180.468 44.1062 180.368C43.0582 180.22 39.9102 177.868 39.9102 177.868C39.9102 177.868 38.7382 177.372 38.7742 176.164C38.7862 175.712 38.1222 175.104 37.7902 175.028C37.1102 174.876 36.6942 175.256 36.5422 175.892L36.3662 176.632L34.7942 176.268C34.7942 176.268 33.2382 175.372 33.2582 176.12C33.2702 176.548 32.5382 178.228 32.5862 179.736C32.5982 180.088 32.6062 180.42 32.6182 180.712C32.6382 181.36 32.6542 181.808 32.6542 181.808L32.6502 181.812Z" fill="#2E2E2E"/>
<path opacity="0.7" d="M46.1352 183.129L38.7472 182.477C38.7472 182.477 37.5952 182.173 37.2632 182.105C36.9312 182.037 36.3352 182.277 36.3352 182.277L32.6512 181.813C32.6512 181.813 32.6352 181.369 32.6152 180.717L45.9792 182.313C46.0432 182.553 46.0992 182.825 46.1352 183.125V183.129Z" fill="white"/>
<path d="M41.5019 178.774C41.4699 178.738 41.4179 178.73 41.3739 178.754C41.1779 178.854 41.0059 179.006 40.8859 179.202C40.8219 179.306 40.9819 179.426 41.0459 179.318C41.1539 179.142 41.3059 179.01 41.4739 178.922C41.5299 178.894 41.5459 178.822 41.5019 178.774Z" fill="white"/>
<path d="M40.9297 178.391C40.8977 178.355 40.8457 178.347 40.8017 178.371C40.6057 178.471 40.4337 178.623 40.3137 178.819C40.2497 178.923 40.4097 179.043 40.4737 178.935C40.5817 178.759 40.7337 178.627 40.9017 178.539C40.9577 178.511 40.9737 178.439 40.9297 178.391Z" fill="white"/>
<path d="M40.3359 178.032C40.3039 177.996 40.2519 177.988 40.2079 178.012C40.0119 178.112 39.8399 178.264 39.7199 178.46C39.6559 178.564 39.8159 178.684 39.8799 178.576C39.9879 178.4 40.1399 178.268 40.3079 178.18C40.3639 178.152 40.3799 178.08 40.3359 178.032Z" fill="white"/>
<path d="M33.543 167.553L40.259 167.953L39.995 169.265L33.575 168.977L33.543 167.553Z" fill="#664EFE"/>
<path d="M33.5332 169.443L39.9052 169.691L39.8092 170.167L33.5372 170.063L33.5332 169.443Z" fill="#664EFE"/>
<path d="M32.0933 174.349L39.6733 173.913C39.6733 173.913 44.9293 150.305 45.2693 144.341C45.6093 138.377 45.0013 123.505 45.0013 123.505V123.533C45.2933 123.837 47.5333 127.357 50.4413 130.617C54.2453 134.885 58.3053 139.497 59.2573 140.745C62.0493 144.413 68.7333 172.293 68.7333 172.293L75.8773 171.121C75.8773 171.121 71.4453 141.925 70.1773 138.297C67.2213 129.829 51.5973 112.661 50.9413 111.713C50.1013 110.505 47.9893 106.641 47.9893 106.641L29.4413 110.025C29.4413 110.025 29.2973 112.849 29.4613 115.305C30.0813 124.513 34.3053 139.857 34.8173 143.189C32.9373 150.841 32.0973 174.357 32.0973 174.357L32.0933 174.349Z" fill="#2E2E2E"/>
<path opacity="0.2" d="M46.214 121.809L45.002 123.529C45.242 123.953 49.238 129.529 50.278 130.369C50.546 126.561 49.626 123.521 46.214 121.809Z" fill="#2E2E2E"/>
<path d="M38.8459 84.956C39.8179 86.372 41.3419 87.916 44.4179 86.4C46.4859 85.38 49.2539 82.404 53.0379 79.216L46.5099 74.416C44.2179 76.336 43.4819 77.28 40.4099 79.96C36.3819 84.128 38.8499 84.96 38.8499 84.96L38.8459 84.956Z" fill="#664EFE"/>
<path opacity="0.7" d="M38.8459 84.956C39.8179 86.372 41.3419 87.916 44.4179 86.4C46.4859 85.38 49.2539 82.404 53.0379 79.216L46.5099 74.416C44.2179 76.336 43.4819 77.28 40.4099 79.96C36.3819 84.128 38.8499 84.96 38.8499 84.96L38.8459 84.956Z" fill="#2E2E2E"/>
<path d="M47.1182 89.3025C46.5502 87.3745 45.7422 84.9865 45.0742 83.0745C44.3582 81.0185 42.6382 79.5545 40.4582 79.5905C37.1182 79.6505 33.6022 79.6545 27.9702 81.1625L26.7422 90.9585L29.7822 106.586C29.7822 106.586 29.7622 110.378 28.9742 113.822C37.1222 116.314 47.1462 115.754 52.0542 112.434C52.0542 112.434 48.2582 93.1745 47.1142 89.2985L47.1182 89.3025Z" fill="#664EFE"/>
<path opacity="0.7" d="M31.3809 80.3938C31.3809 80.3938 33.9329 83.2098 37.6929 82.3578C41.4529 81.5058 40.5849 79.5898 40.5849 79.5898C40.5849 79.5898 40.1889 79.5978 39.5649 79.6018C37.8529 79.6138 34.2729 79.7098 31.3809 80.3938Z" fill="#2E2E2E"/>
<path d="M36.635 99.2372L32.391 94.8652L30.127 104.385C30.127 104.385 31.863 107.729 31.911 107.557C31.959 107.385 36.635 99.2412 36.635 99.2412V99.2372Z" fill="#2E2E2E"/>
<path d="M36.1177 99.3615L32.4417 95.6975L30.4457 95.3535L30.3457 103.442L32.7137 104.894L36.1177 99.3615Z" fill="#664EFE"/>
<path opacity="0.7" d="M36.1177 99.3615L32.4417 95.6975L30.4457 95.3535L30.3457 103.442L32.7137 104.894L36.1177 99.3615Z" fill="white"/>
<path d="M30.335 94.4688L34.151 98.8128L36.635 99.2128L33.611 111.849L30.087 112.433L27.543 107.397L30.335 94.4688Z" fill="#664EFE"/>
<path d="M30.335 94.4688L34.151 98.8128L36.635 99.2128L33.611 111.849L30.087 112.433L27.543 107.397L30.335 94.4688Z" fill="#2E2E2E"/>
<path d="M34.0552 99.563L29.4592 95.543L27.9512 105.211C27.9512 105.211 29.9472 108.403 29.9832 108.227C30.0152 108.051 34.0552 99.563 34.0552 99.563Z" fill="#664EFE"/>
<path opacity="0.4" d="M34.0552 99.563L29.4592 95.543L27.9512 105.211C27.9512 105.211 29.9472 108.403 29.9832 108.227C30.0152 108.051 34.0552 99.563 34.0552 99.563Z" fill="#2E2E2E"/>
<path d="M33.5579 99.755L29.6019 96.391L27.5859 96.207L28.1219 104.279L30.5979 105.543L33.5579 99.755Z" fill="#664EFE"/>
<path opacity="0.7" d="M33.5579 99.755L29.6019 96.391L27.5859 96.207L28.1219 104.279L30.5979 105.543L33.5579 99.755Z" fill="white"/>
<path d="M27.4066 95.332L31.5506 99.364L34.0546 99.564L32.0426 112.404L28.5706 113.256L25.6426 108.444L27.4066 95.332Z" fill="#664EFE"/>
<path opacity="0.2" d="M27.4066 95.332L31.5506 99.364L34.0546 99.564L32.0426 112.404L28.5706 113.256L25.6426 108.444L27.4066 95.332Z" fill="#2E2E2E"/>
<path d="M23.1617 85.3457C22.8417 85.9297 15.7657 97.8777 15.4977 100.486C15.1857 103.542 15.8017 104.458 17.1217 105.262C18.4377 106.07 31.2897 106.426 31.2897 106.426L30.8257 102.582L21.9297 100.098L29.6777 88.0017L23.1617 85.3497V85.3457Z" fill="#895555"/>
<path d="M28.0954 81.1678C28.0954 81.1678 24.8754 80.8918 23.2434 84.1878C21.7394 87.2238 18.0234 93.8718 18.0234 93.8718L25.7714 97.1558L30.0714 89.5038L28.0954 81.1718V81.1678Z" fill="#664EFE"/>
<path opacity="0.7" d="M28.0954 81.1678C28.0954 81.1678 24.8754 80.8918 23.2434 84.1878C21.7394 87.2238 18.0234 93.8718 18.0234 93.8718L25.7714 97.1558L30.0714 89.5038L28.0954 81.1718V81.1678Z" fill="#2E2E2E"/>
<path d="M26.1465 106.055L31.2865 106.427C31.2865 106.427 32.0985 107.171 32.7905 107.555C33.4865 107.939 34.3905 108.383 35.6785 108.087C36.9665 107.787 36.2025 107.179 36.2025 107.179C37.4505 106.703 36.9625 105.663 36.9625 105.663C38.0625 105.275 37.6465 104.127 37.6465 104.127C37.6465 104.127 37.3665 102.763 36.9505 102.279C36.5305 101.795 34.2385 101.631 34.2385 101.631L31.8505 102.655L26.7625 101.967C26.7505 102.059 26.1465 106.055 26.1465 106.055Z" fill="#895555"/>
<path d="M32.4219 80.6551C34.3339 78.8231 33.9499 73.8551 33.4419 71.2871L39.4619 75.9271C39.3419 76.2271 39.2379 76.5351 39.1619 76.8511C38.9979 77.4151 38.9859 78.0071 39.1179 78.5791C39.2499 79.0471 39.8539 80.3431 39.8539 80.3431C39.8539 80.3431 40.2259 81.8071 36.3219 81.9631C34.6179 82.2151 32.4219 80.6591 32.4219 80.6591V80.6551Z" fill="#895555"/>
<path opacity="0.2" d="M34.6218 73.8595C34.4538 76.8995 37.5618 78.1875 39.1218 78.5795C38.9858 78.0075 39.0018 77.4155 39.1658 76.8515L34.6218 73.8555V73.8595Z" fill="#2E2E2E"/>
<path d="M32.3286 69.088C33.2406 72.616 33.6846 74.624 35.8926 76.088C39.2166 78.296 43.3446 75.868 43.5366 72.128C43.7086 68.764 42.1846 63.56 38.3126 62.848C34.4966 62.148 31.4126 65.556 32.3286 69.084V69.088Z" fill="#895555"/>
<path d="M30.7893 64.2882C30.9253 62.0842 36.3413 61.0442 38.0613 61.8362C38.3173 61.9562 35.4093 64.1242 35.5893 64.0162L34.1733 64.8082C33.9293 64.8002 33.5253 65.1522 33.4213 65.9002C33.4213 65.9002 34.7213 71.7162 33.3413 73.7282C31.8453 73.3362 31.3173 71.0322 30.6213 69.7362C29.5813 67.8002 28.2253 64.9362 30.7853 64.2922L30.7893 64.2882Z" fill="#2E2E2E"/>
<path d="M31.4531 72.3351C31.9251 73.1991 32.7651 73.7631 33.5611 73.9791C34.7611 74.3031 34.9451 73.0631 34.6251 71.9551C34.3371 70.9591 33.7931 69.7831 32.5851 69.9471C31.3931 70.1071 30.9171 71.3431 31.4531 72.3311V72.3351Z" fill="#895555"/>
<path d="M37.3213 68.9792C37.3933 69.3432 37.6493 69.5992 37.8933 69.5512C38.1373 69.5032 38.2813 69.1672 38.2093 68.8032C38.1373 68.4392 37.8813 68.1792 37.6373 68.2312C37.3933 68.2792 37.2493 68.6152 37.3213 68.9792Z" fill="#2E2E2E"/>
<path d="M41.0342 68.5515C41.1062 68.9155 41.3622 69.1755 41.6062 69.1235C41.8502 69.0755 41.9942 68.7395 41.9222 68.3755C41.8502 68.0115 41.5942 67.7515 41.3502 67.8035C41.1062 67.8515 40.9622 68.1875 41.0342 68.5515Z" fill="#2E2E2E"/>
<path d="M40.25 68.5352C40.25 68.5352 41.79 70.1272 42.314 70.7952C41.878 71.3512 40.938 71.3112 40.938 71.3112L40.25 68.5392V68.5352Z" fill="#6D3939"/>
<path d="M36.5373 67.5846C36.5973 67.5966 36.6653 67.5766 36.7093 67.5286C37.2413 66.9406 37.8933 67.0206 37.9013 67.0206C37.9973 67.0326 38.0893 66.9646 38.1053 66.8726C38.1213 66.7766 38.0533 66.6886 37.9533 66.6766C37.9173 66.6726 37.0973 66.5726 36.4413 67.3046C36.3773 67.3766 36.3813 67.4886 36.4573 67.5486C36.4813 67.5686 36.5093 67.5806 36.5373 67.5886V67.5846Z" fill="#2E2E2E"/>
<path opacity="0.2" d="M33.9837 72.0479C33.9397 72.0479 33.9037 72.0199 33.8877 71.9799C33.7957 71.6959 33.6317 71.4399 33.4077 71.2359C33.2637 71.1039 33.0317 70.9439 32.7557 70.9319C32.5117 70.9239 32.2717 71.0479 32.1877 71.2359C32.1637 71.2879 32.1077 71.3079 32.0557 71.2879C32.0037 71.2639 31.9837 71.2079 32.0037 71.1559C32.1197 70.8919 32.4357 70.7159 32.7637 70.7359C33.0997 70.7519 33.3717 70.9399 33.5397 71.0919C33.7917 71.3199 33.9757 71.6039 34.0757 71.9239C34.0917 71.9759 34.0637 72.0319 34.0117 72.0479C34.0037 72.0479 33.9917 72.0519 33.9797 72.0519L33.9837 72.0479Z" fill="#2E2E2E"/>
<path d="M42.82 66.6674C42.852 66.6554 42.88 66.6314 42.9 66.6034C42.956 66.5234 42.932 66.4154 42.852 66.3594C42.032 65.8274 41.276 66.1474 41.24 66.1554C41.148 66.1954 41.108 66.2954 41.144 66.3874C41.184 66.4754 41.284 66.5154 41.376 66.4794C41.408 66.4634 41.992 66.2274 42.652 66.6554C42.704 66.6874 42.768 66.6914 42.82 66.6714V66.6674Z" fill="#2E2E2E"/>
<path d="M40.873 72.5385C40.589 72.9545 40.333 73.3865 40.113 73.8385C40.029 73.8145 39.941 73.7905 39.861 73.7585C38.713 73.3945 38.301 72.8505 38.197 72.3545C38.149 72.1105 38.161 71.8585 38.229 71.6185C38.265 71.4825 38.317 71.3545 38.389 71.2305C38.881 71.7865 39.921 72.2065 40.489 72.4065C40.737 72.4825 40.877 72.5385 40.877 72.5385H40.873Z" fill="#2E2E2E"/>
<path d="M40.4963 72.3987L40.2603 72.7747C39.1843 72.4307 38.4723 72.0468 38.2363 71.6068C38.2723 71.4708 38.3243 71.3428 38.3963 71.2188C38.8923 71.7788 39.9283 72.1948 40.4963 72.3948V72.3987Z" fill="white"/>
<path d="M39.8691 73.7517C38.7211 73.3877 38.3091 72.8437 38.2051 72.3477C38.6371 72.4917 39.0411 72.7157 39.3971 72.9997C39.6291 73.1957 39.7931 73.4597 39.8691 73.7517Z" fill="#C15854"/>
<path d="M32.5372 63.6795C32.5372 63.6795 34.1972 58.2395 39.1812 58.3675C38.7332 58.5555 38.3212 58.8235 37.9732 59.1675C37.9732 59.1675 42.0932 58.0315 43.9372 60.7315L43.0492 60.4115C43.0492 60.4115 44.5612 62.6475 43.6092 64.4835L43.2292 63.7195C43.2292 63.7195 41.9052 66.1595 39.2332 66.0275L40.0332 65.4115C40.0332 65.4115 35.6052 66.0875 34.3252 65.1715C33.6732 64.7435 33.0732 64.2435 32.5332 63.6795H32.5372Z" fill="#2E2E2E"/>
</svg>
