<svg width="200" height="200" viewBox="0 0 200 200" fill="none" xmlns="http://www.w3.org/2000/svg">
<path d="M25.9941 22.0684V122.025H85.7629V22.0684H25.9941ZM28.1997 24.274H83.5573V119.819H28.1997V24.274Z" fill="#F7F5FF"/>
<path d="M83.5568 24.2734H28.1992V119.818H83.5568V24.2734Z" fill="#FBFAFF"/>
<path d="M83.5596 74.9434H28.2012V77.1482H83.5596V74.9434Z" fill="#F7F5FF"/>
<path d="M89.8259 122.023H21.9355V128.352H89.8259V122.023Z" fill="#FBFAFF"/>
<path d="M83.5596 88.9119H28.2012V24.2715H83.5596V88.9119ZM30.2432 86.8699H81.5172V26.3135H30.2432V86.8699Z" fill="#FBFAFF"/>
<path d="M46.9715 24.2715H45.8691V86.8699H46.9715V24.2715Z" fill="#FBFAFF"/>
<path d="M65.8915 24.2715H64.7891V86.8699H65.8915V24.2715Z" fill="#FBFAFF"/>
<path d="M114.23 22.0684V122.025H174V22.0684H114.23ZM116.436 24.274H171.794V119.819H116.436V24.274Z" fill="#F7F5FF"/>
<path d="M171.793 24.2734H116.436V119.818H171.793V24.2734Z" fill="#FBFAFF"/>
<path d="M171.796 74.9434H116.438V77.1482H171.796V74.9434Z" fill="#F7F5FF"/>
<path d="M178.062 122.023H110.172V128.352H178.062V122.023Z" fill="#FBFAFF"/>
<path d="M171.796 88.9119H116.438V24.2715H171.796V88.9119ZM118.48 86.8699H169.754V26.3135H118.48V86.8699Z" fill="#FBFAFF"/>
<path d="M135.208 24.2715H134.105V86.8699H135.208V24.2715Z" fill="#FBFAFF"/>
<path d="M154.128 24.2715H153.025V86.8699H154.128V24.2715Z" fill="#FBFAFF"/>
<path d="M62.2162 75.1866C64.0582 76.7658 65.0518 79.3186 64.3358 82.0526C63.767 84.2254 62.055 86.035 59.9054 86.6882C57.0562 87.5538 54.323 86.5606 52.6878 84.5578C51.4826 85.1666 50.0582 85.427 48.5526 85.2618C45.429 84.9194 42.7414 82.5286 42.0614 79.4602C41.1698 75.4366 43.4754 71.7754 47.0018 70.5818L46.9894 70.2834C46.8126 66.0126 50.6514 62.509 55.109 63.4182C57.3246 63.8702 59.2222 65.517 59.9966 67.6414C60.3438 68.5934 60.4678 69.5366 60.4074 70.4362" fill="#FBFAFF"/>
<path d="M62.2161 75.1867C69.7853 81.9503 59.0197 92.3479 52.3157 84.8623L52.9049 84.9871C46.2581 88.3651 38.8597 81.1103 42.0777 74.3843C42.9997 72.3851 44.7721 70.8179 46.8477 70.1267L46.5217 70.6015C46.1325 60.6895 60.8489 60.3891 60.4081 70.4367C60.4193 61.1387 46.6381 61.5403 47.5069 70.9159C43.5489 71.9947 41.3185 76.6351 42.9301 80.3923C44.3653 84.1867 49.2857 86.0103 52.8193 83.9551C58.8085 91.3595 68.9341 81.7795 62.2161 75.1867Z" fill="#FBFAFF"/>
<path d="M61.5645 68.5715C65.5953 67.5711 69.6885 66.9335 73.8329 66.6699C69.8029 67.6735 65.7089 68.3047 61.5645 68.5715Z" fill="#FBFAFF"/>
<path d="M64.2246 74.8878C67.6194 73.1178 71.1578 71.6862 74.8314 70.6074C71.4378 72.381 67.897 73.8058 64.2246 74.8878Z" fill="#FBFAFF"/>
<path d="M60.4277 72.4389C64.3481 70.9353 68.3753 69.7833 72.5001 68.9961C68.5805 70.5033 64.5517 71.6485 60.4277 72.4389Z" fill="#FBFAFF"/>
<path d="M145.852 70.1103C145.215 67.2567 146.099 64.0759 148.764 61.9547C150.882 60.2687 153.84 59.7587 156.386 60.6807C159.76 61.9027 161.68 64.8347 161.812 67.9475C163.415 68.2299 164.977 69.0075 166.311 70.2539C169.077 72.8395 169.945 77.0875 168.385 80.5387C166.34 85.0647 161.472 86.9331 157.207 85.5387L157.004 85.8355C154.091 90.0839 147.857 90.6931 144.212 86.5971C142.401 84.5615 141.759 81.6019 142.545 78.9927C142.898 77.8235 143.459 76.8239 144.167 75.9995" fill="#FBFAFF"/>
<path d="M145.852 70.1111C143.432 58.1195 161.327 55.8599 162.391 67.9235L161.913 67.3775C170.766 68.9171 172.667 81.2595 164.705 85.4259C162.371 86.6891 159.529 86.9215 157.028 86.0903L157.685 85.8675C150.904 95.7131 136.487 85.3767 144.167 75.9999C137.443 84.9635 151.03 94.5267 156.961 84.8527C161.559 86.6695 167.062 83.8027 168.22 79.0139C169.575 74.3163 166.144 69.0039 161.25 68.4355C160.817 56.9663 144.13 58.8991 145.852 70.1111Z" fill="#FBFAFF"/>
<path d="M141.703 76.965C137.092 75.0198 132.682 72.6798 128.492 69.9414C133.105 71.883 137.512 74.2298 141.703 76.965Z" fill="#FBFAFF"/>
<path d="M143.698 68.9487C139.145 68.2055 134.697 67.0319 130.373 65.4199C134.927 66.1595 139.373 67.3411 143.698 68.9487Z" fill="#FBFAFF"/>
<path d="M145.596 74.053C140.727 72.6734 136.009 70.877 131.461 68.6582C136.331 70.0338 141.046 71.8378 145.596 74.053Z" fill="#FBFAFF"/>
<path d="M115.07 94.5904C140.378 111.628 161.942 128.113 163.196 136.042C166.005 153.806 157.408 158.982 155.63 159.097C143.5 159.886 113.628 122.222 101.559 104.025C90.7908 87.7888 101.565 85.4988 115.07 94.5904Z" fill="#89E1D2"/>
<path opacity="0.1" d="M105.673 89.924L103.409 93.8L100.817 89.356C102.153 89.184 103.805 89.376 105.673 89.924ZM107.597 100.972L107.421 100.676L103.409 93.8L99.4648 100.556C100.041 101.632 100.737 102.788 101.557 104.024C102.205 105.004 102.909 106.04 103.657 107.124C103.717 107.216 103.781 107.304 103.845 107.396C105.249 109.424 106.809 111.616 108.497 113.912L111.821 108.212L107.597 100.972ZM124.433 100.992L124.413 100.96V100.956L124.237 100.66L124.153 100.8C122.281 99.5 120.377 98.188 118.441 96.872L116.137 100.82V100.824L115.961 101.116L111.821 108.212L115.825 115.072L115.997 115.372L120.233 122.628L124.377 115.532V115.528L124.545 115.236L128.645 108.212L124.433 100.992ZM139.325 111.756C139.121 111.604 138.917 111.448 138.709 111.292C137.905 110.688 137.089 110.076 136.257 109.46C136.177 109.4 136.097 109.34 136.013 109.28C134.201 107.94 132.325 106.58 130.401 105.204L128.645 108.212L132.641 115.06L132.817 115.356L137.061 122.628L141.189 115.552V115.548L141.365 115.252L142.145 113.916C141.229 113.208 140.285 112.484 139.325 111.756ZM124.401 129.768L124.229 129.472L120.233 122.628L118.065 126.34C119.593 128.236 121.161 130.136 122.745 132.008C122.813 132.092 122.881 132.172 122.953 132.252C124.633 134.236 126.333 136.188 128.037 138.084L128.645 137.04L124.401 129.768ZM141.217 129.752L141.045 129.456L137.061 122.628L132.961 129.652L132.789 129.944V129.948L128.645 137.04L131.373 141.712C131.893 142.268 132.413 142.812 132.933 143.352C133.005 143.428 133.077 143.5 133.149 143.576C134.981 145.468 136.793 147.252 138.557 148.892L141.201 144.36L141.373 144.064V144.06L145.473 137.04L141.217 129.752ZM158.033 129.736L157.861 129.436L155.341 125.12L155.337 125.116C154.741 124.54 154.121 123.956 153.465 123.352L149.777 129.664V129.668L149.605 129.964L145.473 137.04L149.449 143.852L149.621 144.148L153.885 151.456L158.017 144.376L158.189 144.084V144.08L162.297 137.04L158.033 129.736ZM163.197 136.04C163.177 135.908 163.149 135.772 163.117 135.636L162.297 137.04L163.597 139.264C163.505 138.24 163.373 137.164 163.197 136.04ZM153.885 151.456L150.257 157.672C152.281 158.68 154.097 159.196 155.629 159.096C156.045 159.068 156.829 158.768 157.757 158.092L153.885 151.456ZM112.065 92.724L111.737 93.284L111.561 93.58L107.421 100.676L103.657 107.124C103.717 107.216 103.781 107.304 103.845 107.396L107.597 100.972L111.737 93.876L111.909 93.584L112.325 92.876C112.237 92.824 112.153 92.776 112.065 92.724ZM124.237 100.66L124.153 100.8L120.137 107.68L119.965 107.976L115.825 115.072L113.005 119.908C113.069 119.992 113.133 120.08 113.201 120.164L115.997 115.372L120.141 108.276L120.313 107.98L124.401 100.972L124.413 100.96V100.956L124.237 100.66ZM136.013 109.28L132.641 115.06L128.545 122.08L128.369 122.376L124.229 129.472L122.745 132.008C122.813 132.092 122.881 132.172 122.953 132.252L124.401 129.768L128.545 122.672L128.717 122.376L132.817 115.356L136.257 109.46C136.177 109.4 136.097 109.34 136.013 109.28ZM147.581 118.256L145.349 122.08L145.177 122.376L141.045 129.456L136.945 136.476L136.773 136.772L132.933 143.352C133.005 143.428 133.077 143.5 133.149 143.576L136.949 137.072L137.117 136.772L141.217 129.752L145.349 122.672L145.525 122.376L147.813 118.452C147.737 118.388 147.661 118.324 147.581 118.256ZM158.485 128.368L157.861 129.436L153.753 136.476L153.581 136.772L149.449 143.852L145.349 150.876L145.177 151.172L143.849 153.448C143.929 153.512 144.005 153.576 144.085 153.632L145.349 151.468L145.525 151.172L149.621 144.148L153.753 137.072L153.925 136.772L158.033 129.736L158.693 128.604C158.629 128.524 158.557 128.448 158.485 128.368ZM162.157 150.876L161.981 151.172L158.093 157.836C158.325 157.652 158.565 157.444 158.805 157.208L162.157 151.468L162.329 151.172L162.677 150.572C162.793 150.212 162.897 149.832 162.993 149.44L162.157 150.876ZM162.329 151.172L162.157 150.876L158.189 144.084V144.08L153.925 136.772L153.753 136.476L149.777 129.668V129.664L145.525 122.376L145.349 122.08L141.365 115.252L139.325 111.756C139.121 111.604 138.917 111.448 138.709 111.292L141.189 115.548V115.552L145.177 122.376L145.349 122.672L149.605 129.964L153.581 136.772L153.753 137.072L158.017 144.376L161.981 151.172L162.157 151.468L162.293 151.704C162.341 151.584 162.385 151.464 162.429 151.34L162.329 151.172ZM145.525 151.172L145.349 150.876L141.373 144.064V144.06L137.117 136.772L136.945 136.476L132.961 129.652L128.717 122.376L128.545 122.08L124.549 115.24L124.545 115.236L120.313 107.98L120.137 107.68L116.137 100.824V100.82L111.909 93.584L111.737 93.284L111.101 92.2C110.933 92.108 110.769 92.02 110.605 91.94L111.561 93.58L111.737 93.876L115.961 101.116L119.965 107.976L120.141 108.276L124.377 115.528V115.532L128.369 122.376L128.545 122.672L132.789 129.944V129.948L136.773 136.772L136.949 137.072L141.201 144.36L145.177 151.172L145.349 151.468L148.357 156.62C148.533 156.724 148.709 156.828 148.881 156.928L145.525 151.172Z" fill="#2E2E2E"/>
<path opacity="0.1" d="M156.564 158.805C156.169 158.988 155.846 159.08 155.629 159.094C143.497 159.885 113.627 122.219 101.557 104.025C96.339 96.1563 96.1802 91.5643 98.9362 89.9551L156.564 158.805Z" fill="#2E2E2E"/>
<path d="M136.778 183.025H49.1074C53.5646 161.626 66.8342 105.342 83.9638 90.2128C91.1962 83.8236 102.943 85.8184 106.76 89.9864C118.661 102.982 132.326 161.048 136.778 183.025Z" fill="#89E1D2"/>
<path opacity="0.1" d="M90.7184 86.7087L86.5784 93.8007L84.3104 89.9127C86.2264 88.3207 88.4344 87.2887 90.7184 86.7087ZM99.2704 86.4407C99.2104 86.4327 99.1544 86.4207 99.0944 86.4127L99.1904 86.5767L103.406 93.8007L106.034 89.2967C104.45 87.9727 102.034 86.9407 99.2704 86.4407ZM74.8144 102.473C73.5224 104.793 72.2664 107.297 71.0384 109.945C70.9904 110.057 70.9384 110.169 70.8864 110.281C69.6784 112.913 68.5064 115.685 67.3744 118.549L69.7544 122.629L73.9224 115.485V115.481L74.0984 115.185L78.1664 108.213L74.8144 102.473ZM86.58 93.8007L78.1672 108.215L86.58 122.629L94.9928 108.215L86.58 93.8007ZM103.406 93.8007L94.9928 108.215L103.406 122.629L111.818 108.215L103.406 93.8007ZM117.846 112.201C117.802 112.077 117.758 111.953 117.714 111.833C116.65 108.917 115.574 106.161 114.494 103.629L111.818 108.213L115.822 115.073L115.994 115.373L120.23 122.629L120.97 121.361V121.357C119.95 118.185 118.906 115.113 117.846 112.201ZM61.0544 136.549C60.8344 137.253 60.6144 137.953 60.3984 138.657L61.3424 137.041L61.0544 136.549ZM69.7544 122.628L61.3416 137.042L69.7544 151.456L78.1672 137.042L69.7544 122.628ZM86.58 122.628L78.1672 137.042L86.58 151.456L94.9928 137.042L86.58 122.628ZM103.406 122.628L94.9928 137.042L103.406 151.456L111.818 137.042L103.406 122.628ZM123.854 130.705C123.814 130.573 123.774 130.445 123.738 130.313C123.394 129.153 123.046 127.997 122.694 126.853V126.849L120.23 122.629L116.142 129.633L115.97 129.929L111.818 137.041L115.81 143.885L115.986 144.181L120.23 151.457L124.382 144.345L124.554 144.049L126.626 140.493C125.734 137.221 124.806 133.941 123.854 130.705ZM57.1224 158.645V158.641L56.9504 158.349V158.345L55.5024 155.865C54.7064 158.893 53.9624 161.837 53.2704 164.649C53.2024 164.941 53.1304 165.233 53.0624 165.525C53.0464 165.573 53.0344 165.625 53.0264 165.673C53.0024 165.765 52.9784 165.857 52.9584 165.949C52.0584 169.665 51.2584 173.133 50.5664 176.237L52.9304 180.285L57.1264 173.093V173.089L57.3024 172.793L61.3424 165.869L57.1224 158.645ZM69.7544 151.456L61.3416 165.87L69.7544 180.284L78.1672 165.87L69.7544 151.456ZM86.58 151.456L78.1672 165.87L86.58 180.284L94.9928 165.87L86.58 151.456ZM103.406 151.456L94.9928 165.87L103.406 180.284L111.818 165.87L103.406 151.456ZM120.231 151.456L111.818 165.87L120.231 180.284L128.644 165.87L120.231 151.456ZM135.734 178.021C135.258 175.781 134.718 173.321 134.126 170.693C134.094 170.553 134.062 170.409 134.03 170.265C133.338 167.217 132.578 163.945 131.758 160.529L128.642 165.869L132.618 172.681L132.79 172.977V172.981L135.734 178.021ZM52.9304 180.285L51.3304 183.025H54.5304L52.9304 180.285ZM69.7544 180.284L68.1544 183.025H71.3544L69.7544 180.284ZM86.5784 180.285L84.9784 183.025H88.1784L86.5784 180.285ZM103.406 180.285L101.806 183.025H105.006L103.406 180.285ZM120.23 180.285L118.63 183.025H121.83L120.23 180.285ZM136.434 181.353L135.458 183.025H136.778C136.67 182.489 136.554 181.933 136.434 181.353ZM99.0944 86.4127C99.0464 86.4047 98.9984 86.3967 98.9504 86.3887L94.9264 93.2847L94.7544 93.5807L90.6064 100.693V100.697L86.5224 107.681L86.3504 107.977L82.1904 115.109L78.1224 122.077L77.9464 122.373L73.7784 129.521L69.7184 136.477L69.5424 136.773L65.3624 143.933V143.937L61.3144 150.873L61.1424 151.173L56.9504 158.345V158.349L53.2704 164.649C53.2024 164.941 53.1304 165.233 53.0624 165.525C53.0464 165.573 53.0344 165.625 53.0264 165.673L53.0864 165.569L57.1224 158.645V158.641L61.3144 151.469L61.4864 151.173L65.5384 144.233L69.7184 137.073L69.8904 136.773L73.9504 129.821L78.1224 122.673L78.2944 122.377L82.3664 115.409V115.405L86.5224 108.277L86.6984 107.977L90.7744 100.989L94.9264 93.8767L95.0984 93.5807L99.1904 86.5767L99.2704 86.4407C99.2104 86.4327 99.1544 86.4207 99.0944 86.4127ZM110.502 95.3887L107.418 100.677L103.33 107.681L103.154 107.977L99.0064 115.089L94.9264 122.077L94.7544 122.373L90.5944 129.505L86.5224 136.477L86.3504 136.773L82.1824 143.917V143.921L78.1224 150.873L77.9464 151.173L73.7664 158.333L69.7184 165.269L69.5424 165.569L65.3544 172.745V172.749L61.3144 179.669L61.1384 179.969L59.3544 183.025H59.7024L61.3144 180.265L61.4904 179.969L65.5304 173.045L69.7184 165.869L69.8904 165.569L73.9424 158.629L78.1224 151.469L78.2944 151.173L82.3544 144.217L86.5264 137.073L86.6984 136.773L90.7664 129.801L94.9264 122.673L95.1024 122.377L99.1784 115.389V115.385L103.334 108.277L103.502 107.981L107.594 100.973L110.674 95.6927C110.618 95.5887 110.562 95.4887 110.502 95.3887ZM117.714 111.833L115.822 115.073L111.734 122.077L111.558 122.373L107.41 129.485L107.406 129.489L103.33 136.477L103.154 136.773L98.9984 143.901L94.9264 150.873L94.7544 151.169L90.5824 158.317L86.5224 165.269L86.3504 165.569L82.1704 172.729L78.1224 179.669L77.9464 179.965L76.1584 183.025H76.5104L78.1224 180.265L78.2944 179.969L82.3424 173.029L86.5224 165.869L86.6984 165.569L90.7584 158.613L94.9264 151.469L95.1024 151.173L99.1704 144.201L103.334 137.073L103.502 136.773L107.582 129.785L111.734 122.673L111.906 122.377L115.994 115.373L117.846 112.201C117.802 112.077 117.758 111.953 117.714 111.833ZM123.738 130.313L120.134 136.477L119.966 136.773L115.81 143.885L111.734 150.873L111.558 151.173L107.398 158.297V158.301L103.33 165.269L103.158 165.569L98.9864 172.713V172.717L94.9264 179.669L94.7544 179.969L92.9704 183.025H93.3184L94.9264 180.265L95.1024 179.969L99.1584 173.013V173.009L103.334 165.865L103.502 165.569L107.574 158.597L111.734 151.469L111.906 151.173L115.986 144.181L120.138 137.073L120.31 136.773L123.854 130.705C123.814 130.573 123.774 130.445 123.738 130.313ZM129.118 149.889L128.542 150.873L128.366 151.173L124.218 158.281L124.214 158.285L120.134 165.269L119.966 165.569L115.802 172.697L111.734 179.669L111.558 179.965L109.774 183.025H110.122L111.734 180.261L111.906 179.969L115.978 172.997V172.993L120.138 165.865L120.31 165.569L124.39 158.581L128.542 151.469L128.714 151.173L129.222 150.301C129.186 150.165 129.154 150.029 129.118 149.889ZM134.03 170.265L132.618 172.681L128.542 179.669L128.366 179.969L126.582 183.025H126.926L128.542 180.261L128.714 179.969L132.79 172.981V172.977L134.126 170.693C134.094 170.553 134.062 170.409 134.03 170.265ZM129.998 153.373L128.714 151.173L128.542 150.873L124.554 144.049L120.31 136.773L120.134 136.477L116.142 129.633L111.906 122.377L111.734 122.077L107.73 115.221L103.502 107.981L103.33 107.681L99.3184 100.805L95.0984 93.5807L94.9264 93.2847L91.0424 86.6287C90.9384 86.6527 90.8384 86.6767 90.7384 86.7007L94.7544 93.5807L94.9264 93.8767L99.1424 101.105L103.154 107.977L103.334 108.277L107.558 115.517L111.558 122.373L111.734 122.673L115.97 129.929L119.966 136.773L120.138 137.073L124.382 144.345L128.366 151.173L128.542 151.469L130.262 154.417C130.174 154.069 130.09 153.721 129.998 153.373ZM128.714 179.969L128.542 179.669L124.566 172.861V172.857L120.31 165.569L120.134 165.269L116.15 158.449V158.445L111.906 151.173L111.734 150.873L107.738 144.033V144.029L103.502 136.773L103.33 136.477L99.3264 129.617L95.1024 122.377L94.9264 122.077L90.9144 115.205L86.6984 107.977L86.5224 107.681L82.4984 100.793V100.789L79.3384 95.3727C79.2744 95.4567 79.2104 95.5447 79.1464 95.6327L82.3304 101.081V101.085L86.3504 107.977L86.5224 108.277L90.7424 115.497V115.501L94.7544 122.373L94.9264 122.673L99.1544 129.917L103.154 136.773L103.334 137.073L107.566 144.325L111.558 151.173L111.734 151.469L115.978 158.741L119.966 165.569L120.138 165.865L124.39 173.153L124.394 173.157L128.366 179.969L128.542 180.261L130.154 183.025H130.498L128.714 179.969ZM111.906 179.969L111.734 179.669L107.75 172.841L103.502 165.569L103.33 165.269L99.3344 158.433V158.429L95.1024 151.173L94.9264 150.873L90.9224 144.013L86.6984 136.773L86.5224 136.477L82.5104 129.601L78.2944 122.377L78.1224 122.077L74.0984 115.185L71.0384 109.945C70.9904 110.057 70.9384 110.169 70.8864 110.281L73.9224 115.481V115.485L77.9464 122.373L78.1224 122.673L82.3384 129.897L86.3504 136.773L86.5264 137.073L90.7504 144.313L94.7544 151.169L94.9264 151.469L99.1664 158.725L103.158 165.569L103.334 165.865L107.574 173.137V173.141L111.558 179.965L111.734 180.261L113.346 183.025H113.69L111.906 179.969ZM95.1024 179.969L94.9264 179.669L90.9344 172.825L86.6984 165.569L86.5224 165.269L82.5224 158.413L82.5184 158.409L78.2944 151.173L78.1224 150.873L74.1064 143.997L69.8904 136.773L69.7184 136.477L65.6944 129.581L64.2144 127.045L64.0824 127.417L65.5184 129.881V129.885L69.5424 136.773L69.7184 137.073L73.9344 144.293L77.9464 151.173L78.1224 151.469L82.3464 158.709L86.3504 165.569L86.5224 165.869L90.7584 173.121L90.7624 173.125L94.7544 179.969L94.9264 180.265L96.5384 183.025H96.8864L95.1024 179.969ZM78.2944 179.969L78.1224 179.669L74.1144 172.813V172.809L69.8904 165.569L69.7184 165.269L65.7024 158.397V158.393L61.4864 151.173L61.3144 150.873L58.2984 145.709C58.2584 145.841 58.2224 145.973 58.1824 146.105L61.1424 151.173L61.3144 151.469L65.5304 158.689V158.693L69.5424 165.569L69.7184 165.869L73.9424 173.109L77.9464 179.965L78.1224 180.265L79.7304 183.025H80.0784L78.2944 179.969ZM61.4904 179.969L61.3144 179.669L57.3024 172.793L53.0864 165.569L53.0624 165.525C53.0464 165.573 53.0344 165.625 53.0264 165.673C53.0024 165.765 52.9784 165.857 52.9584 165.949L57.1264 173.089V173.093L61.1384 179.969L61.3144 180.265L62.9264 183.025H63.2744L61.4904 179.969Z" fill="#2E2E2E"/>
<path d="M86.5234 95.043C87.2174 95.983 87.9434 96.8954 88.6778 97.7998C89.4222 98.6962 90.1866 99.5746 90.957 100.446C92.5066 102.181 94.1034 103.871 95.777 105.481C97.4446 107.096 99.1594 108.662 100.949 110.136C102.726 111.627 104.581 113.018 106.473 114.358L105.821 114.477C105.854 114.423 105.936 114.276 105.987 114.158C106.048 114.036 106.1 113.902 106.155 113.772C106.261 113.507 106.361 113.236 106.453 112.96C106.641 112.41 106.8 111.844 106.955 111.277C107.266 110.141 107.527 108.986 107.777 107.829C108.028 106.67 108.25 105.504 108.482 104.337L109.136 100.826C109.074 102.017 108.973 103.204 108.859 104.392C108.753 105.581 108.592 106.763 108.425 107.947C108.237 109.127 108.031 110.307 107.766 111.481C107.625 112.065 107.479 112.65 107.299 113.232C107.213 113.523 107.115 113.814 107.009 114.105C106.952 114.25 106.901 114.395 106.834 114.542C106.803 114.615 106.771 114.689 106.733 114.765C106.693 114.844 106.666 114.904 106.593 115.017L106.337 115.414L105.941 115.136C104.02 113.785 102.103 112.419 100.327 110.879C99.4178 110.136 98.5554 109.339 97.6834 108.553C97.2502 108.157 96.8394 107.737 96.4166 107.33C95.9946 106.922 95.5762 106.511 95.173 106.085C93.5318 104.408 91.9846 102.641 90.5314 100.803C89.0846 98.9614 87.7082 97.0594 86.5234 95.043Z" fill="#263238"/>
<path d="M103.036 105.197C97.9908 106.292 89.5112 98.457 86.2204 92.1734C85.9972 91.7414 86.7344 87.2586 87.372 81.7686C87.746 78.4354 88.0836 74.7154 88.1468 71.2986C88.1564 70.597 109.48 76.901 109.48 76.901C109.48 76.901 107.241 84.0246 107.168 89.9822C107.167 90.4802 107.208 90.9442 107.289 91.387C107.295 91.4518 107.313 91.5298 107.316 91.6202C107.701 94.291 107.911 104.135 103.036 105.197Z" fill="#AD6359"/>
<path d="M89.4629 71.4121C90.3501 77.2069 93.6853 91.2297 105.116 91.7001C105.911 91.7341 106.643 91.7077 107.31 91.6217C107.318 91.5261 107.296 91.4553 107.287 91.3861C107.212 90.9397 107.165 90.4821 107.161 89.9857C107.237 84.0177 109.481 76.8953 109.481 76.8953C109.481 76.8953 94.0981 72.3485 89.4629 71.4121Z" fill="#263238"/>
<path d="M85.9767 45.5185C83.5547 53.0861 87.2699 75.0929 92.6083 80.0609C100.348 87.2629 113.167 88.1149 119.323 78.7781C125.291 69.7277 119.941 41.1333 113.965 36.6037C105.161 29.9313 89.5543 34.3397 85.9767 45.5185Z" fill="#AD6359"/>
<path d="M104.94 59.6033C104.917 59.5497 104.839 59.6969 104.853 59.7565C105.199 61.2201 105.348 62.9549 104.114 63.7141C104.076 63.7377 104.095 63.8109 104.143 63.7941C105.723 63.2353 105.502 60.9345 104.94 59.6033Z" fill="#263238"/>
<path d="M103.311 58.3319C100.905 58.6327 101.683 63.4227 103.913 63.1439C106.107 62.8695 105.328 58.0795 103.311 58.3319Z" fill="#263238"/>
<path d="M113.742 58.1359C113.744 58.0771 113.869 58.1871 113.877 58.2479C114.072 59.7391 114.545 61.4147 115.967 61.6895C116.011 61.6983 116.019 61.7735 115.968 61.7743C114.293 61.8103 113.687 59.5799 113.742 58.1359Z" fill="#263238"/>
<path d="M114.815 56.3714C117.172 55.8026 118.137 60.5582 115.954 61.0854C113.804 61.605 112.84 56.8486 114.815 56.3714Z" fill="#263238"/>
<path d="M99.6756 53.7757C100.146 53.2825 100.662 52.9061 101.178 52.4657C101.759 51.9697 102.171 51.5145 102.964 51.4221C103.389 51.3729 103.877 51.7693 103.964 52.1777C104.166 53.1285 103.605 53.9133 102.929 54.5393C102.196 55.2185 101.456 55.5541 100.46 55.6173C99.4956 55.6789 99.056 54.4265 99.6756 53.7757Z" fill="#263238"/>
<path d="M116.811 50.1582C116.201 49.8534 115.588 49.6738 114.954 49.4354C114.238 49.1654 113.696 48.877 112.919 49.059C112.503 49.1566 112.179 49.6946 112.235 50.1086C112.367 51.0714 113.161 51.6194 114.009 51.979C114.929 52.3694 115.738 52.435 116.697 52.1566C117.625 51.8878 117.615 50.5602 116.811 50.1582Z" fill="#263238"/>
<path d="M105.933 74.6738C106.332 74.9802 106.747 75.4182 107.294 75.3982C107.819 75.3794 108.399 75.0718 108.853 74.8294C108.898 74.8054 108.952 74.8498 108.927 74.8982C108.608 75.5178 107.837 75.9746 107.13 75.937C106.44 75.9002 106.035 75.3566 105.797 74.7586C105.764 74.6746 105.874 74.629 105.933 74.6738Z" fill="#263238"/>
<path d="M112.856 66.6715C112.856 66.6715 113.298 68.9511 113.357 70.0347C113.361 70.1359 110.449 69.8811 107.331 71.1243C106.864 71.3107 106.847 70.9095 107.365 70.5587C108.399 69.8579 109.557 69.3007 112.374 69.1427C112.434 68.8387 111.629 65.6459 111.8 65.6235C112.39 65.5407 113.578 65.8807 114.291 66.0475C113.508 61.2719 111.966 56.6607 111.258 51.8939C111.236 51.7235 111.479 51.6587 111.537 51.8083C113.495 56.5267 114.516 62.0027 115.451 66.9135C115.574 67.5255 113.3 66.8327 112.856 66.6715Z" fill="#263238"/>
<path d="M110.438 69.4102C110.438 69.4102 110.506 72.555 108.93 73.5162C107.116 74.6218 105.5 72.5366 107.228 70.655C108.133 69.669 110.438 69.4102 110.438 69.4102Z" fill="#263238"/>
<path d="M109.29 73.2294C109.182 73.3414 109.062 73.4374 108.93 73.5174C107.63 74.3054 106.434 73.4654 106.494 72.2334C108.502 71.8614 109.146 72.5294 109.29 73.2294Z" fill="#FF99BA"/>
<path d="M86.4986 65.5205C89.8582 65.9578 92.0141 60.7733 92.5541 58.6393C93.0941 56.5054 91.0434 47.509 92.183 44.263C93.3226 41.017 96.4462 38.8598 99.2182 39.2662C101.99 39.6726 105.928 42.679 107.866 42.2186C109.803 41.7582 109.667 37.4414 111.034 37.2458C114.042 36.8154 118.08 43.469 119.093 46.6894C119.093 46.6894 118.033 32.4222 102.421 33.169C88.1842 33.8502 85.3894 44.6798 84.769 49.0906C83.5806 57.5402 86.4986 65.5205 86.4986 65.5205Z" fill="#263238"/>
<path d="M91.9652 63.6135C91.9652 63.6135 86.9544 56.5463 83.7448 58.3379C80.5348 60.1291 84.3348 70.3959 88.126 71.7791C91.9172 73.1623 93.2664 69.6779 93.2664 69.6779L91.9652 63.6135Z" fill="#AD6359"/>
<path d="M84.9065 61.2541C84.8457 61.2489 84.8345 61.3341 84.8873 61.3553C87.5457 62.4125 88.9581 64.8625 89.9525 67.4053C89.1573 66.4289 88.0797 65.8985 86.7713 66.8457C86.7029 66.8953 86.7697 67.0033 86.8441 66.9869C87.9289 66.7473 88.7137 66.9305 89.4533 67.7957C89.9769 68.4081 90.3369 69.1849 90.7137 69.8937C90.8397 70.1305 91.2669 70.0009 91.1749 69.7281C91.1681 69.7081 91.1597 69.6873 91.1525 69.6669C91.1981 66.2849 88.5389 61.5705 84.9065 61.2541Z" fill="#263238"/>
<path d="M107.303 89.8674L102.414 102.633L86.3926 86.8398L82.0098 92.0614C82.0098 92.0614 97.8398 117.309 97.9182 116.156L102.969 105.138L110.637 112.623L109.716 93.5366L107.303 89.8674Z" fill="#F7F5FF"/>
<path d="M110.715 103.163C110.457 100.016 110.286 96.8408 109.883 93.71C109.868 93.5988 109.693 93.552 109.668 93.684C109.086 96.7356 110.136 108.761 110.169 111.648C110.159 111.638 110.146 111.626 110.135 111.616C109.815 111.292 103.033 105.036 102.969 105.138C101.863 106.892 98.1558 114.916 97.905 115.644C95.4014 111.634 84.7946 95.8348 81.847 92.0516C81.7622 91.9432 81.593 92.0364 81.6598 92.1644C83.8826 96.406 97.593 117.26 97.7818 117.201C97.913 117.299 102.521 107.416 103.061 105.554C104.214 106.922 111.072 113.994 111.087 113.526C111.192 110.364 110.973 106.313 110.715 103.163Z" fill="#263238"/>
<path d="M155.249 155.504C147.416 151.19 133.72 135.078 117.835 109.614C115.239 105.451 137.697 85.4773 140.927 89.6105C144.997 94.8169 167.17 125.207 168.047 126.884C175.449 141.032 160.455 158.371 155.249 155.504Z" fill="#AD6359"/>
<path d="M111.73 95.0428C112.015 100.941 117.673 109.328 117.673 109.328L142.796 92.2496C142.796 92.2496 138.38 83.7832 138.315 78.71C138.296 77.2368 137.882 69.5256 137.958 62.02C138.044 53.5008 137.045 44.5576 136.358 43.7932C135.035 42.3232 132.024 43.6784 130.612 49.3996C129.194 55.1188 128.373 66.7508 128.141 67.4356C128.111 67.5212 127.983 67.7368 127.777 68.0624C127.777 68.0624 127.777 68.0624 127.769 68.0664C127.527 68.2776 119.293 69.7632 117.653 73.1736C115.981 76.6508 111.325 94.0464 111.73 95.0428Z" fill="#AD6359"/>
<path d="M129.794 78.7813C129.794 78.7813 136.129 65.9025 135.675 62.9501C135.221 59.9981 135.202 41.8585 133.91 40.3609C132.618 38.8633 129.576 40.2493 128.161 45.9693C126.747 51.6893 125.926 63.3177 125.692 64.0069C125.458 64.6961 118.108 74.9781 117.716 76.1305C117.325 77.2833 129.794 78.7813 129.794 78.7813Z" fill="#AD6359"/>
<path d="M134.388 72.0341C134.755 70.5037 135.056 68.9613 135.366 67.4181C135.51 66.6445 135.642 65.8689 135.762 65.0889C135.821 64.6981 135.88 64.3081 135.924 63.9109C135.951 63.7153 135.964 63.5101 135.981 63.3081C135.99 63.0921 135.985 62.8629 135.973 62.6849C135.851 59.5597 135.714 56.4137 135.561 53.2789C135.388 50.1377 135.236 47.0165 134.979 43.8617C134.888 43.0637 134.74 42.2653 134.453 41.4969C134.309 41.1141 134.129 40.7373 133.876 40.3957C133.625 40.0605 133.29 39.7377 132.845 39.6109C132.404 39.4809 131.93 39.5897 131.574 39.8005C131.208 40.0089 130.91 40.2921 130.646 40.5937C130.117 41.1985 129.738 41.8993 129.4 42.6081C129.816 41.9429 130.26 41.2877 130.808 40.7457C131.082 40.4773 131.385 40.2369 131.717 40.0825C132.046 39.9237 132.412 39.8833 132.72 40.0025C133.355 40.2413 133.728 40.9749 133.954 41.6717C134.182 42.3893 134.288 43.1533 134.337 43.9173C134.44 47.0337 134.571 50.1889 134.727 53.3213C134.902 56.4601 135.059 59.5901 135.339 62.7345C135.431 63.4569 135.308 64.2485 135.244 65.0221C135.165 65.7997 135.062 66.5777 134.967 67.3561L134.388 72.0341Z" fill="#263238"/>
<path d="M126.767 79.9411C126.767 79.9411 133.655 65.7967 133.201 62.8447C132.747 59.8927 132.729 41.7531 131.436 40.2555C130.144 38.7579 127.102 40.1439 125.687 45.8639C124.273 51.5839 123.453 63.2123 123.218 63.9015C122.984 64.5911 116.92 75.2551 116.528 76.4075C116.137 77.5603 126.767 79.9411 126.767 79.9411Z" fill="#AD6359"/>
<path d="M132.084 73.8593C132.447 71.9645 132.737 70.0581 133.027 68.1497C133.155 67.1933 133.276 66.2353 133.379 65.2725C133.429 64.7913 133.473 64.3081 133.505 63.8197C133.538 63.3401 133.53 62.8017 133.496 62.3405C133.302 58.4973 133.093 54.6461 132.856 50.8005L132.467 45.0313L132.353 43.5885C132.316 43.1149 132.276 42.6065 132.174 42.1117C132.073 41.6173 131.927 41.1245 131.696 40.6561C131.459 40.1977 131.144 39.7221 130.604 39.4457C130.339 39.3109 130.019 39.2573 129.724 39.2989C129.426 39.3349 129.169 39.4629 128.94 39.6021C128.486 39.8945 128.141 40.2753 127.836 40.6701C127.236 41.4681 126.778 42.3361 126.381 43.2229C125.582 45.0065 125.146 46.9269 125.004 48.8481C125.33 46.9517 125.843 45.0781 126.744 43.3965C127.177 42.5477 127.653 41.7149 128.244 40.9953C128.539 40.6397 128.87 40.3125 129.238 40.0969C129.606 39.8765 129.998 39.8261 130.314 40.0101C130.64 40.1865 130.892 40.5569 131.073 40.9541C131.248 41.3593 131.381 41.7969 131.46 42.2485C131.61 43.1377 131.614 44.1297 131.684 45.0829L132.025 50.8517C132.269 54.6981 132.508 58.5417 132.833 62.3881C132.887 62.8869 132.91 63.3125 132.899 63.7957C132.888 64.2701 132.865 64.7485 132.835 65.2269C132.774 66.1841 132.693 67.1429 132.605 68.1013L132.084 73.8593Z" fill="#263238"/>
<path d="M127.254 80.0541C127.254 80.0541 130.364 66.3737 129.941 63.6261C129.519 60.8781 130.281 48.4917 129.078 47.0977C127.874 45.7033 125.043 46.9937 123.726 52.3185C122.41 57.6433 120.866 63.9681 120.649 64.6101C120.43 65.2517 116.891 75.3365 116.526 76.4093C116.162 77.4817 127.254 80.0541 127.254 80.0541Z" fill="#AD6359"/>
<path d="M129.211 76.6639C129.607 74.2131 129.963 71.7567 130.328 69.3015C130.513 68.0739 130.685 66.8451 130.846 65.6131L130.964 64.6875C131.007 64.3803 131.022 64.0395 131.025 63.7331C131.034 63.1043 131.018 62.4819 130.998 61.8595C130.906 59.3715 130.76 56.8903 130.526 54.4139C130.409 53.1755 130.283 51.9383 130.127 50.7011C130.05 50.0823 129.966 49.4643 129.865 48.8447C129.756 48.2195 129.668 47.6179 129.44 46.9531C129.307 46.6203 129.071 46.2307 128.644 46.0475C128.222 45.8603 127.781 45.9335 127.445 46.0559C126.756 46.3155 126.248 46.7599 125.788 47.2271C124.893 48.1767 124.194 49.3227 123.848 50.5871C123.177 52.9939 122.574 55.3939 121.957 57.8011C121.351 60.1959 120.732 62.6411 120.173 65.0071C119.83 66.1855 119.443 67.3711 119.068 68.5523C118.708 69.7411 118.342 70.9283 118.018 72.1299C119.034 69.8547 119.966 67.5655 120.842 65.2219L122.705 57.9943C123.338 55.5991 123.966 53.1903 124.646 50.8215C124.957 49.6895 125.575 48.6451 126.373 47.7867C126.771 47.3679 127.235 46.9835 127.714 46.8043C128.216 46.6231 128.514 46.7495 128.713 47.2375C128.894 47.7459 129.005 48.3759 129.11 48.9711C129.214 49.5755 129.302 50.1863 129.384 50.7979C129.548 52.0219 129.684 53.2523 129.81 54.4835C130.047 56.9475 130.295 59.4151 130.435 61.8847C130.47 62.5015 130.501 63.1195 130.507 63.7315C130.528 64.3371 130.438 64.9323 130.379 65.5579L129.984 69.2583L129.211 76.6639Z" fill="#263238"/>
<path d="M120.844 65.2207C119.378 68.7463 118.29 72.4167 117.085 76.0367C115.379 81.4839 113.57 86.9327 112.372 92.5103C112.207 93.4167 111.995 94.3155 112.111 95.2407C112.184 95.9159 112.32 96.6515 112.456 97.3215C112.94 99.3907 113.648 101.409 114.52 103.362C115.275 105.108 116.152 106.806 117.112 108.458C115.998 106.902 115.047 105.233 114.165 103.529C113.188 101.607 112.381 99.5711 111.826 97.4715C111.66 96.7775 111.504 96.0275 111.415 95.3231C111.267 94.3507 111.467 93.3299 111.628 92.3691C112.769 86.7219 114.603 81.2611 116.496 75.8371C117.814 72.2511 119.083 68.6179 120.844 65.2207Z" fill="#263238"/>
<path d="M144.968 89.0195L120.939 122.882C120.939 122.882 145.607 155.725 154.263 158.59C164.296 161.912 179.164 143.879 168.836 125.434L144.968 89.0195Z" fill="#89E1D2"/>
<path opacity="0.1" d="M145.472 108.214L141.364 115.254L141.188 115.55V115.554L137.06 122.63L132.816 115.358L132.64 115.062L129.864 110.306L134.4 103.914L134.588 103.65L139.1 97.2944L141.052 100.642V100.646L141.224 100.938V100.942L145.472 108.214ZM155.56 105.178L155.376 104.898L151.16 98.4704L149.768 100.854L149.592 101.154L145.472 108.214L149.456 115.042L149.628 115.338L153.884 122.63L158.008 115.566L158.18 115.27L160.06 112.046L155.56 105.178ZM141.216 129.754L141.044 129.458L137.06 122.63L132.96 129.654L132.788 129.946V129.95L130.108 134.538C131.58 136.346 133.16 138.254 134.788 140.17C134.856 140.254 134.924 140.334 134.996 140.414C136.668 142.382 138.392 144.354 140.104 146.242L141.2 144.362L141.372 144.066V144.062L145.472 137.042L141.216 129.754ZM153.884 122.63L145.472 137.044L153.884 151.458L162.297 137.044L153.884 122.63ZM172.04 134.53C172.016 134.378 171.992 134.226 171.964 134.074C171.484 131.326 170.516 128.49 168.952 125.642L166.592 129.686L166.416 129.982V129.986L162.296 137.042L166.26 143.834V143.838L166.436 144.134L169.564 149.49C171.028 146.726 172.024 143.502 172.272 140.006C172.284 139.83 172.296 139.654 172.304 139.474C172.384 137.874 172.304 136.218 172.04 134.53ZM158.024 158.55V158.546L157.852 158.254L153.884 151.458L150.864 156.63C152.156 157.59 153.308 158.274 154.264 158.59C155.284 158.926 156.352 159.046 157.436 158.962C157.556 158.958 157.676 158.946 157.8 158.93C157.936 158.914 158.076 158.898 158.212 158.874L158.024 158.55ZM146.484 91.3384L145.348 93.2864L145.176 93.5824L141.052 100.642V100.646L136.944 107.686L136.772 107.978L132.64 115.062L128.544 122.082L128.368 122.378L125 128.15C125.068 128.234 125.132 128.318 125.2 128.402L128.544 122.674L128.716 122.378L132.816 115.358L136.948 108.278L137.116 107.982L141.224 100.942V100.938L145.348 93.8784L145.524 93.5824L146.672 91.6184L146.484 91.3384ZM155.376 104.898L153.752 107.682L153.58 107.978L149.456 115.042L145.348 122.082L145.176 122.378L141.044 129.458L136.944 136.478L136.772 136.774L134.788 140.17C134.856 140.254 134.924 140.334 134.996 140.414L136.948 137.074L137.116 136.774L141.216 129.754L145.348 122.674L145.524 122.378L149.628 115.338L153.752 108.278L153.924 107.978L155.56 105.178L155.376 104.898ZM164.268 118.462L162.156 122.082L161.98 122.378L157.86 129.438L153.752 136.478L153.58 136.774L149.448 143.854L145.348 150.878L145.176 151.174L145.028 151.43L145.244 151.646L145.348 151.47L145.524 151.174L149.62 144.15L153.752 137.074L153.924 136.774L158.032 129.738L162.156 122.674L162.328 122.378L164.448 118.742L164.268 118.462ZM171.964 134.074L170.56 136.478L170.384 136.774L166.26 143.834V143.838L162.156 150.878L161.98 151.174L157.852 158.25V158.254L157.436 158.962C157.556 158.958 157.676 158.946 157.8 158.93L158.024 158.55V158.546L162.156 151.47L162.328 151.174L166.436 144.134L170.56 137.074L170.728 136.774L172.04 134.53C172.016 134.378 171.992 134.226 171.964 134.074ZM170.728 136.774L170.56 136.478L166.592 129.686L162.328 122.378L162.156 122.082L158.18 115.27L153.924 107.978L153.752 107.682L149.768 100.854L145.524 93.5824L145.348 93.2864L143.812 90.6504L143.62 90.9184L145.176 93.5824L145.348 93.8784L149.592 101.154L153.58 107.978L153.752 108.278L158.008 115.566L161.98 122.378L162.156 122.674L166.416 129.982V129.986L170.384 136.774L170.56 137.074L172.272 140.006C172.284 139.83 172.296 139.654 172.304 139.474L170.728 136.774ZM162.328 151.174L162.156 150.878L158.188 144.086V144.082L153.924 136.774L153.752 136.478L149.776 129.67V129.666L145.524 122.378L145.348 122.082L141.364 115.254L137.116 107.982L136.944 107.686L134.588 103.65L134.4 103.914L136.772 107.978L136.948 108.278L141.188 115.55V115.554L145.176 122.378L145.348 122.674L149.604 129.966L153.58 136.774L153.752 137.074L158.016 144.378L161.98 151.174L162.156 151.47L164.632 155.714C164.708 155.646 164.784 155.582 164.86 155.514L162.328 151.174ZM145.524 151.174L145.348 150.878L141.372 144.066V144.062L137.116 136.774L136.944 136.478L132.96 129.654L128.716 122.378L128.544 122.082L125.368 116.642L125.18 116.91L128.368 122.378L128.544 122.674L132.788 129.946V129.95L136.772 136.774L136.948 137.074L141.2 144.362L145.176 151.174L145.348 151.47L145.724 152.114C145.992 152.378 146.26 152.634 146.524 152.886L145.524 151.174Z" fill="#2E2E2E"/>
<path d="M148.573 99.4539C140.114 113.571 130.674 124.588 128.919 127.088C128.836 127.206 128.655 127.059 128.745 126.944C130.595 124.582 139.928 110.266 148.381 99.2963C148.479 99.1691 148.654 99.3183 148.573 99.4539Z" fill="#263238"/>
<path d="M146.21 152.503C142.834 148.709 139.437 144.933 136.102 141.102C132.769 137.274 129.549 133.356 126.383 129.389C124.636 127.199 123.154 125.043 121.463 122.809C122.336 121.561 122.937 120.534 123.838 119.135C123.958 118.949 123.672 118.725 123.531 118.898C122.381 120.297 120.563 122.784 120.639 122.891C123.603 127.023 126.703 131.05 129.931 134.98C133.175 138.93 136.539 142.779 140.047 146.497C142.016 148.586 144.057 150.599 146.157 152.557C146.193 152.589 146.242 152.539 146.21 152.503Z" fill="#263238"/>
<path d="M146.859 155.819C146.575 155.516 146.51 150.782 146.888 150.705C147.266 150.628 153.701 152.971 155.689 152.628C157.676 152.285 163.505 149.397 164.249 149.412C164.993 149.427 167.732 152.587 167.732 152.587C167.732 152.587 162.475 158.904 156.923 159.476C152.583 159.923 146.859 155.819 146.859 155.819Z" fill="#89E1D2"/>
<path opacity="0.1" d="M146.859 155.819C146.575 155.516 146.51 150.782 146.888 150.705C147.266 150.628 153.701 152.971 155.689 152.628C157.676 152.285 163.505 149.397 164.249 149.412C164.993 149.427 167.732 152.587 167.732 152.587C167.732 152.587 162.475 158.904 156.923 159.476C152.583 159.923 146.859 155.819 146.859 155.819Z" fill="#2E2E2E"/>
<path d="M157.906 154.406C157.467 153.692 157.256 152.959 157.135 152.203C157.078 151.826 157.051 151.444 157.06 151.056C157.075 150.667 157.112 150.275 157.245 149.867C157.496 150.215 157.65 150.578 157.781 150.945C157.906 151.312 157.995 151.686 158.052 152.065C158.108 152.444 158.133 152.827 158.121 153.216C158.099 153.606 158.068 154.003 157.906 154.406Z" fill="#263238"/>
<path d="M165.338 153.112C165.631 152.326 166.079 151.709 166.601 151.149C166.863 150.872 167.148 150.616 167.459 150.384C167.775 150.157 168.107 149.945 168.509 149.799C168.39 150.21 168.198 150.556 167.989 150.884C167.777 151.21 167.537 151.51 167.273 151.787C167.009 152.064 166.721 152.32 166.407 152.55C166.088 152.772 165.755 152.992 165.338 153.112Z" fill="#263238"/>
<path d="M164.451 152.599C164.562 151.769 164.862 151.067 165.246 150.405C165.44 150.076 165.661 149.764 165.913 149.469C166.17 149.177 166.447 148.896 166.807 148.664C166.782 149.092 166.672 149.471 166.542 149.838C166.406 150.202 166.239 150.548 166.044 150.877C165.848 151.206 165.625 151.52 165.369 151.813C165.107 152.102 164.831 152.389 164.451 152.599Z" fill="#263238"/>
<path d="M145.045 152.617C145.887 152.724 146.602 153.022 147.278 153.403C147.614 153.596 147.935 153.816 148.238 154.068C148.538 154.324 148.827 154.6 149.068 154.96C148.635 154.938 148.249 154.829 147.876 154.7C147.505 154.567 147.153 154.401 146.816 154.206C146.48 154.012 146.159 153.79 145.857 153.535C145.561 153.272 145.264 152.998 145.045 152.617Z" fill="#263238"/>
<path d="M154.91 150.768C155.752 150.875 156.467 151.172 157.143 151.554C157.479 151.746 157.8 151.966 158.103 152.218C158.403 152.474 158.692 152.75 158.933 153.111C158.5 153.088 158.115 152.98 157.741 152.851C157.371 152.717 157.018 152.551 156.681 152.357C156.345 152.162 156.024 151.94 155.722 151.685C155.426 151.423 155.129 151.148 154.91 150.768Z" fill="#263238"/>
<path d="M37.554 159.54C46.454 158.661 71.1488 137.115 88.1756 110.367C90.81 106.228 70.6452 84.4873 67.0444 88.3025C62.5088 93.1077 36.9536 119.786 35.9236 121.374C27.2384 134.772 31.5172 160.136 37.554 159.54Z" fill="#AD6359"/>
<path d="M95.6366 96.5261C94.7922 102.37 88.3614 110.181 88.3614 110.181L64.9766 90.7917C64.9766 90.7917 70.1774 82.7833 70.7246 77.7397C70.8834 76.2749 72.0294 68.6381 72.6674 61.1593C73.3918 52.6705 75.2354 43.8625 75.9926 43.1669C77.449 41.8293 80.3174 43.4645 81.179 49.2941C82.047 55.1221 81.7582 66.7793 81.9246 67.4833C81.9454 67.5713 82.0522 67.7981 82.2266 68.1421C82.2266 68.1421 82.2266 68.1421 82.2346 68.1469C82.4558 68.3801 90.511 70.6417 91.8194 74.1925C93.1534 77.8129 96.1346 95.5725 95.6366 96.5261Z" fill="#AD6359"/>
<path d="M79.2007 78.6209C79.2007 78.6209 74.1191 65.1981 74.8515 62.3025C75.5839 59.4069 77.3271 41.3517 78.7559 39.9833C80.1851 38.6153 83.0815 40.2841 83.9451 46.1129C84.8091 51.9417 84.5203 63.5949 84.6879 64.3037C84.8555 65.0121 91.1947 75.9465 91.4751 77.1309C91.7559 78.3153 79.2007 78.6209 79.2007 78.6209Z" fill="#AD6359"/>
<path d="M75.2679 71.4668C75.0487 69.9088 74.8951 68.3444 74.7335 66.7788C74.6643 65.9952 74.6059 65.2104 74.5607 64.4224C74.5391 64.028 74.5183 63.634 74.5115 63.2344C74.5035 63.0372 74.5107 62.8316 74.5123 62.6288C74.5235 62.4132 74.5507 62.1852 74.5799 62.0092C74.9983 58.9096 75.4335 55.7908 75.8843 52.6852C76.3551 49.5748 76.8031 46.482 77.3587 43.3656C77.5251 42.5796 77.7491 41.7992 78.1071 41.0616C78.2871 40.6944 78.5019 40.336 78.7863 40.0204C79.0679 39.7104 79.4319 39.4212 79.8867 39.3372C80.3383 39.25 80.7999 39.4032 81.1343 39.6468C81.4791 39.8888 81.7487 40.1992 81.9819 40.5244C82.4515 41.1768 82.7627 41.9104 83.0307 42.6484C82.6803 41.9468 82.3007 41.2524 81.8067 40.6604C81.5595 40.3672 81.2807 40.0992 80.9651 39.9136C80.6527 39.724 80.2923 39.6492 79.9743 39.7384C79.3191 39.9156 78.8783 40.6108 78.5875 41.2828C78.2919 41.9752 78.1139 42.7256 77.9923 43.482C77.5931 46.5744 77.1627 49.7032 76.7099 52.8064C76.2371 55.9144 75.7831 59.0152 75.2059 62.1188C75.0455 62.8288 75.0923 63.6288 75.0827 64.4052C75.0875 65.1868 75.1163 65.9708 75.1367 66.7548L75.2679 71.4668Z" fill="#263238"/>
<path d="M82.104 80.0622C82.104 80.0622 76.5924 65.327 77.3248 62.4314C78.0572 59.5358 79.8004 41.4806 81.2296 40.1122C82.6584 38.7442 85.5552 40.413 86.4192 46.2418C87.2832 52.0706 86.9944 63.7238 87.162 64.4326C87.3296 65.1414 92.3524 76.3338 92.6328 77.5182C92.9124 78.7026 82.104 80.0622 82.104 80.0622Z" fill="#AD6359"/>
<path d="M77.3889 73.5021C77.2073 71.5813 77.0993 69.6557 76.9925 67.7285C76.9561 66.7641 76.9265 65.7993 76.9161 64.8309C76.9117 64.3469 76.9137 63.8617 76.9289 63.3729C76.9413 62.8925 77.0001 62.3569 77.0781 61.9013C77.6365 58.0937 78.2105 54.2801 78.8117 50.4741L79.7481 44.7681L79.9985 43.3425C80.0809 42.8749 80.1689 42.3725 80.3177 41.8897C80.4649 41.4073 80.6569 40.9305 80.9317 40.4861C81.2109 40.0521 81.5701 39.6089 82.1333 39.3853C82.4105 39.2761 82.7341 39.2533 83.0233 39.3225C83.3173 39.3869 83.5605 39.5385 83.7761 39.6989C84.2005 40.0333 84.5073 40.4449 84.7729 40.8669C85.2945 41.7181 85.6677 42.6257 85.9789 43.5465C86.6049 45.3981 86.8557 47.3513 86.8145 49.2773C86.6705 47.3585 86.3381 45.4445 85.6009 43.6849C85.2505 42.7985 84.8557 41.9241 84.3361 41.1521C84.0765 40.7701 83.7777 40.4129 83.4321 40.1633C83.0861 39.9089 82.7009 39.8213 82.3685 39.9745C82.0281 40.1193 81.7417 40.4637 81.5237 40.8421C81.3105 41.2289 81.1369 41.6521 81.0153 42.0937C80.7809 42.9645 80.6833 43.9517 80.5233 44.8941L79.6353 50.6041C79.0261 54.4101 78.4237 58.2137 77.7341 62.0117C77.6329 62.5029 77.5693 62.9245 77.5341 63.4069C77.4997 63.8801 77.4777 64.3585 77.4621 64.8377C77.4321 65.7965 77.4213 66.7585 77.4177 67.7209L77.3889 73.5021Z" fill="#263238"/>
<path d="M81.6071 80.1264C81.6071 80.1264 79.8127 66.2124 80.4943 63.5172C81.1759 60.822 81.5951 48.4192 82.9251 47.1456C84.2555 45.872 86.9515 47.426 87.7559 52.8516C88.5603 58.2772 89.4951 64.7204 89.6511 65.38C89.8075 66.0396 92.3719 76.4152 92.6327 77.5176C92.8939 78.62 81.6071 80.1264 81.6071 80.1264Z" fill="#AD6359"/>
<path d="M79.9813 76.5661C79.8197 74.0885 79.6993 71.6097 79.5685 69.1305C79.5013 67.8909 79.4473 66.6513 79.4037 65.4097L79.3741 64.4769C79.3601 64.1673 79.3773 63.8265 79.4045 63.5213C79.4553 62.8945 79.5301 62.2765 79.6089 61.6585C79.9377 59.1905 80.3189 56.7345 80.7877 54.2913C81.0213 53.0697 81.2649 51.8501 81.5373 50.6333C81.6733 50.0249 81.8153 49.4173 81.9749 48.8101C82.1429 48.1981 82.2873 47.6077 82.5781 46.9673C82.7421 46.6485 83.0133 46.2833 83.4565 46.1417C83.8937 45.9953 84.3261 46.1105 84.6493 46.2641C85.3109 46.5881 85.7741 47.0785 86.1877 47.5873C86.9881 48.6177 87.5745 49.8249 87.7993 51.1165C88.2377 53.5761 88.6105 56.0225 88.9953 58.4777C89.3709 60.9193 89.7545 63.4121 90.0865 65.8205C90.3157 67.0261 90.5885 68.2433 90.8493 69.4545C91.0953 70.6721 91.3461 71.8885 91.5549 73.1157C90.7593 70.7541 90.0497 68.3869 89.4001 65.9705L88.2333 58.5985C87.8301 56.1537 87.4349 53.6965 86.9829 51.2737C86.7805 50.1173 86.2653 49.0185 85.5521 48.0881C85.1957 47.6337 84.7705 47.2065 84.3109 46.9829C83.8289 46.7545 83.5193 46.8525 83.2753 47.3189C83.0469 47.8077 82.8761 48.4241 82.7149 49.0069C82.5545 49.5985 82.4085 50.1985 82.2693 50.7997C81.9897 52.0025 81.7369 53.2145 81.4949 54.4281C81.0245 56.8585 80.5433 59.2913 80.1685 61.7365C80.0753 62.3473 79.9861 62.9597 79.9213 63.5681C79.8429 64.1693 79.8765 64.7701 79.8753 65.3981L79.9169 69.1193L79.9813 76.5661Z" fill="#263238"/>
<path d="M89.6513 65.3789C92.1217 74.9545 94.9273 84.4977 96.0425 94.3569C96.1381 95.3585 96.1085 96.4381 95.7817 97.4129C94.9581 100.294 93.6409 103.014 92.0821 105.558C91.0137 107.221 89.8745 108.892 88.3613 110.181C89.7417 108.768 90.7813 107.071 91.7333 105.353C93.1441 102.782 94.3365 100.063 95.0941 97.2285C95.3785 96.3217 95.3813 95.3637 95.2781 94.4177C94.0845 84.6361 91.3785 75.0813 89.6513 65.3789Z" fill="#263238"/>
<path d="M63.0753 87.3398L79.9597 129.727C79.9597 129.727 45.8845 159.21 36.9993 161.258C26.7013 163.632 23.2729 137.263 35.2721 119.858L63.0753 87.3398Z" fill="#89E1D2"/>
<path opacity="0.1" d="M42.9832 110.838L40.4672 115.154L40.2913 115.45V115.454L36.1033 122.63L34.8512 120.486C34.9872 120.274 35.1272 120.066 35.2712 119.858L39.7832 114.582L39.9913 114.338L42.9832 110.838ZM57.1432 101.022L56.9712 100.726L54.8073 97.0139L49.9792 102.658L49.7712 102.898L44.8033 108.71L48.5592 115.142L48.7313 115.438L52.9312 122.63L57.1112 115.47L57.2833 115.17L61.3433 108.214L57.1432 101.022ZM70.7273 106.55L70.5872 106.198L67.3152 97.9859L65.6873 100.77L65.5112 101.07L61.3433 108.214L65.3753 115.126L65.5472 115.422L69.7552 122.63L73.9232 115.486V115.482L74.0993 115.186L74.1393 115.118L70.7273 106.55ZM40.3193 129.854L40.1432 129.558V129.554L36.1033 122.63L32.0633 129.55L31.8913 129.846V129.85L28.7473 135.234C28.5433 136.15 28.3713 137.062 28.2313 137.966L31.7352 143.97L31.9072 144.266L36.1033 151.458L40.2992 144.266L40.4753 143.966L44.5152 137.042L40.3193 129.854ZM52.9297 122.63L44.5168 137.044L52.9297 151.458L61.3424 137.044L52.9297 122.63ZM73.9513 129.822L73.7792 129.522L69.7552 122.63L65.6953 129.582L65.5193 129.882V129.886L61.3433 137.042L64.5513 142.538C65.6073 141.69 66.6433 140.854 67.6393 140.038C67.8633 139.858 68.0832 139.678 68.3032 139.498C68.9592 138.962 69.5952 138.438 70.2152 137.926C70.2952 137.862 70.3753 137.798 70.4513 137.734C72.5393 136.01 74.4032 134.45 75.9113 133.178L73.9513 129.822ZM40.3112 158.666V158.662L40.1352 158.366L36.1033 151.458L32.0753 158.362L31.8992 158.662L31.5152 159.318C31.9872 159.858 32.5032 160.306 33.0552 160.642C33.2232 160.746 33.3952 160.838 33.5672 160.918C34.5992 161.41 35.7472 161.546 36.9992 161.258C37.5232 161.138 38.1313 160.922 38.8193 160.622C38.9713 160.554 39.1312 160.482 39.2952 160.406C39.7872 160.178 40.3113 159.91 40.8633 159.61L40.3112 158.666ZM52.9312 151.458L52.8352 151.622C52.8792 151.59 52.9272 151.554 52.9712 151.522L52.9312 151.458ZM63.7673 89.0859L61.3152 93.2859L61.1432 93.5819L56.9712 100.726L52.9112 107.682L52.7393 107.978L48.5592 115.142L44.5112 122.078L44.3352 122.378L40.1432 129.554V129.558L36.1072 136.478L35.9313 136.774L31.7352 143.97L28.0312 150.31C28.0553 150.47 28.0793 150.626 28.1033 150.782L31.9072 144.266L36.1072 137.074L36.2792 136.774L40.3193 129.854L44.5072 122.674L44.6832 122.374L48.7313 115.438L52.9112 108.278L53.0872 107.978L57.1432 101.022L61.3152 93.8779L61.4873 93.5819L63.9073 89.4339L63.7673 89.0859ZM70.5872 106.198L69.7192 107.682L69.5433 107.978L65.3753 115.126L61.3152 122.078L61.1432 122.378L56.9633 129.538L52.9112 136.478L52.7393 136.774L48.5512 143.954L44.5112 150.874L44.3352 151.174L40.1352 158.366L38.8193 160.622C38.9713 160.554 39.1312 160.482 39.2952 160.406L40.3112 158.666V158.662L44.5072 151.47L44.6832 151.17L48.7232 144.25V144.246L52.9112 137.07L53.0872 136.774L57.1352 129.834L61.3152 122.674L61.4873 122.374L65.5472 115.422L69.7192 108.278L69.8912 107.978L70.7273 106.55L70.5872 106.198ZM77.4032 123.31L73.7792 129.522L69.7192 136.478L69.5433 136.774L67.6393 140.038C67.8633 139.858 68.0832 139.678 68.3032 139.498L69.7192 137.074L69.8912 136.774L73.9513 129.822L77.5433 123.666L77.4032 123.31ZM75.0592 117.426L74.3112 115.546L74.0993 115.186L69.8912 107.978L69.7192 107.682L65.6873 100.77L61.4873 93.5819L61.3152 93.2859L59.9672 90.9779L59.7633 91.2179L61.1432 93.5819L61.3152 93.8779L65.5112 101.07L69.5433 107.978L69.7192 108.278L73.9232 115.482V115.486L75.0592 117.426ZM69.8912 136.774L69.7192 136.478L65.6953 129.582L61.4873 122.374L61.3152 122.078L57.2833 115.17L53.0872 107.978L52.9112 107.682L49.9792 102.658L49.7712 102.898L52.7393 107.978L52.9112 108.278L57.1112 115.47L61.1432 122.378L61.3152 122.674L65.5193 129.882V129.886L69.5433 136.774L69.7192 137.074L70.2152 137.926C70.2952 137.862 70.3753 137.798 70.4513 137.734L69.8912 136.774ZM57.2912 143.986V143.982L53.0872 136.774L52.9112 136.478L48.8792 129.57L44.6832 122.374L44.5112 122.078L40.4672 115.154L39.9913 114.338L39.7832 114.582L40.2913 115.45V115.454L44.3352 122.378L44.5072 122.674L48.7072 129.866L52.7393 136.774L52.9112 137.07L57.1193 144.278L58.7753 147.114C58.8553 147.05 58.9312 146.986 59.0112 146.926L57.2912 143.986ZM44.6832 151.17L44.5112 150.874L40.4753 143.966L36.2792 136.774L36.1072 136.478L32.0633 129.55L31.0392 127.794C30.9872 127.91 30.9392 128.026 30.8992 128.146L31.8913 129.846V129.85L35.9313 136.774L36.1072 137.074L40.2992 144.266L44.3352 151.174L44.5072 151.47L47.0193 155.77C47.1033 155.714 47.1832 155.658 47.2672 155.602L44.6832 151.17ZM32.0753 158.362L28.3072 151.91C28.3752 152.238 28.4473 152.558 28.5193 152.87L31.8992 158.662L33.0552 160.642C33.2232 160.746 33.3952 160.838 33.5672 160.918L32.0753 158.362Z" fill="#2E2E2E"/>
<path d="M70.8119 130.946C63.5463 116.18 59.4171 102.272 58.2703 99.4413C58.2159 99.3073 58.4375 99.2353 58.4855 99.3733C59.4655 102.209 66.4235 117.819 71.0483 130.871C71.1019 131.023 70.8815 131.088 70.8119 130.946Z" fill="#263238"/>
<path d="M78.2641 124.437C78.1577 124.185 77.7769 124.332 77.8673 124.591C78.3001 125.831 79.3013 129.001 79.2697 129.257C79.2481 129.431 73.5785 134.209 71.7057 135.846C67.9877 139.095 64.2045 142.27 60.3597 145.368C56.4853 148.49 57.4153 148.599 59.4073 147C63.4349 143.765 67.3741 140.865 71.2753 137.479C73.2113 135.799 80.2057 129.521 80.2901 129.351C80.3601 129.21 78.5273 125.061 78.2641 124.437Z" fill="#263238"/>
<path d="M174.574 39.7476C173.416 50.8264 163.49 58.8724 152.411 57.7136C147.933 57.2452 143.953 55.3448 140.871 52.5064L130.779 53.9876L135.828 45.2632C134.603 42.2824 134.087 38.9652 134.444 35.55C135.603 24.4712 145.529 16.4252 156.608 17.5836C167.687 18.7428 175.733 28.6688 174.574 39.7476Z" fill="#FBFAFF"/>
<path d="M174.574 39.7475C174.153 43.4303 172.806 47.0399 170.503 49.9731C169.974 50.7415 169.292 51.3835 168.674 52.0779C167.973 52.6887 167.319 53.3583 166.546 53.8803C165.07 55.0171 163.412 55.9075 161.68 56.5895C159.955 57.3155 158.1 57.6619 156.249 57.8847C155.316 57.9351 154.381 58.0199 153.446 57.9379C152.51 57.9167 151.577 57.8167 150.654 57.6475C146.963 56.9791 143.467 55.2511 140.674 52.7199L140.913 52.7935L130.831 54.3415L130.1 54.4539L130.47 53.8091L135.49 45.0671L135.466 45.4123C133.021 39.6543 133.572 32.7979 136.709 27.4331C138.272 24.7467 140.453 22.4319 143.027 20.7055C145.599 18.9743 148.582 17.8887 151.636 17.4751C154.693 17.0695 157.839 17.3479 160.758 18.3179C163.673 19.2995 166.346 20.9507 168.537 23.0879C172.991 27.3223 175.23 33.6735 174.574 39.7475ZM174.574 39.7475C175.187 33.6679 172.904 27.3555 168.449 23.1787C166.237 21.0899 163.56 19.5071 160.67 18.5891C157.776 17.6835 154.68 17.4675 151.698 17.9167C148.719 18.3739 145.834 19.4835 143.367 21.2079C140.906 22.9359 138.83 25.1959 137.331 27.7911C135.802 30.3807 135.011 33.3483 134.771 36.3267C134.582 39.3151 135.07 42.3395 136.19 45.1143L136.263 45.2947L136.167 45.4595L131.088 54.1667L130.726 53.6343L140.828 52.2195L140.968 52.1999L141.067 52.2931C143.737 54.7995 147.116 56.5495 150.726 57.2687C151.628 57.4503 152.543 57.5647 153.463 57.6015C154.382 57.6987 155.302 57.6307 156.224 57.5971C158.05 57.4091 159.892 57.0999 161.611 56.4111C163.338 55.7647 165.006 54.9167 166.477 53.7887C167.25 53.2747 167.904 52.6131 168.607 52.0103C169.226 51.3235 169.91 50.6887 170.442 49.9267C172.758 47.0203 174.128 43.4279 174.574 39.7475Z" fill="#664EFE"/>
<path d="M152.5 28.3054C153.32 29.1778 153.835 30.3414 153.835 31.6498C153.835 32.9586 153.32 34.1354 152.5 34.9946C151.72 35.8538 150.557 36.409 149.341 36.409C148.072 36.409 146.908 35.8538 146.102 34.9946C145.282 34.1354 144.793 32.959 144.793 31.6498C144.793 30.341 145.282 29.1778 146.102 28.3054C146.908 27.4326 148.072 26.8906 149.341 26.8906C150.557 26.891 151.72 27.433 152.5 28.3054ZM152.329 31.6502C152.329 30.7514 151.971 29.9182 151.429 29.3366C150.874 28.7418 150.134 28.3978 149.341 28.3978C148.495 28.3978 147.755 28.7414 147.199 29.3366C146.644 29.9182 146.301 30.751 146.301 31.6502C146.301 32.5494 146.644 33.3822 147.199 33.9506C147.755 34.5454 148.495 34.9022 149.341 34.9022C150.134 34.9022 150.874 34.5454 151.429 33.9506C151.971 33.3818 152.329 32.549 152.329 31.6502Z" fill="#664EFE"/>
<path d="M155.91 35.6831V27.8835C155.91 27.4735 156.227 27.1562 156.637 27.1562C157.047 27.1562 157.378 27.4735 157.378 27.8835V31.0563H160.802V27.8835C160.802 27.4735 161.119 27.1562 161.529 27.1562C161.939 27.1562 162.269 27.4735 162.269 27.8835V35.6831C162.269 36.0931 161.939 36.4103 161.529 36.4103C161.119 36.4103 160.802 36.0931 160.802 35.6831V32.5103H157.378V35.6831C157.378 36.0931 157.047 36.4103 156.637 36.4103C156.227 36.4103 155.91 36.0931 155.91 35.6831Z" fill="#664EFE"/>
<path d="M145.006 47.1436C145.006 47.5404 144.676 47.8708 144.293 47.8708C143.883 47.8708 143.566 47.5404 143.566 47.1436V39.4628C143.566 39.4628 143.566 39.4628 143.566 39.4496C143.552 39.2248 143.658 38.9868 143.856 38.8416C144.187 38.6168 144.637 38.6832 144.861 39.0004L149.131 44.9096V39.4628C149.131 39.0796 149.448 38.7488 149.845 38.7488C150.242 38.7488 150.572 39.0792 150.572 39.4628V47.1436C150.572 47.5404 150.242 47.8708 149.845 47.8708C149.633 47.8708 149.435 47.7652 149.303 47.6064C149.276 47.58 149.25 47.5536 149.237 47.5272L145.006 41.6576V47.1436Z" fill="#664EFE"/>
<path d="M160.381 39.766C161.201 40.6384 161.716 41.802 161.716 43.1104C161.716 44.4192 161.201 45.596 160.381 46.4552C159.601 47.3144 158.437 47.8696 157.221 47.8696C155.953 47.8696 154.789 47.3144 153.983 46.4552C153.163 45.596 152.674 44.4192 152.674 43.1104C152.674 41.8016 153.163 40.6384 153.983 39.766C154.789 38.8932 155.953 38.3516 157.221 38.3516C158.437 38.3516 159.601 38.8936 160.381 39.766ZM160.209 43.1108C160.209 42.212 159.852 41.3792 159.31 40.7972C158.755 40.2024 158.015 39.8584 157.221 39.8584C156.375 39.8584 155.635 40.202 155.079 40.7972C154.524 41.3788 154.181 42.2116 154.181 43.1108C154.181 44.01 154.524 44.8428 155.079 45.4112C155.635 46.006 156.375 46.3628 157.221 46.3628C158.014 46.3628 158.754 46.006 159.31 45.4112C159.852 44.8428 160.209 44.0096 160.209 43.1108Z" fill="#664EFE"/>
<path d="M164.174 44.6832V39.3424C164.174 38.9456 164.505 38.6152 164.901 38.6152C165.297 38.6152 165.615 38.9456 165.615 39.3424V44.6832C165.615 45.0932 165.297 45.4104 164.901 45.4104C164.505 45.4104 164.174 45.0928 164.174 44.6832ZM164.901 47.8692C164.505 47.8692 164.174 47.552 164.174 47.142V46.8776C164.174 46.4808 164.505 46.1504 164.901 46.1504C165.297 46.1504 165.615 46.4808 165.615 46.8776V47.142C165.615 47.552 165.297 47.8692 164.901 47.8692Z" fill="#664EFE"/>
<path d="M73.5854 42.1858L55.1582 37.3142L57.1318 32.9922L73.5854 42.1858Z" fill="#664EFE"/>
<path d="M73.1972 50.0935L61.654 52.6971L61.2988 49.2539L73.1972 50.0935Z" fill="#664EFE"/>
<path d="M76.3126 39.9837L70.8574 29.6181L74.0062 27.9609L76.3126 39.9837Z" fill="#664EFE"/>
<path d="M114.744 34.3395L128.716 21.3743L124.941 18.4883L114.744 34.3395Z" fill="#664EFE"/>
<path d="M118.354 39.1533L130.131 38.0097L129.39 34.6289L118.354 39.1533Z" fill="#664EFE"/>
<path d="M112.289 32.4037L114.222 20.8513L110.713 20.2637L112.289 32.4037Z" fill="#664EFE"/>
<path d="M21.9355 183.022C71.9479 182.777 128.051 182.775 178.063 183.022C128.05 183.269 71.9475 183.267 21.9355 183.022Z" fill="#263238"/>
</svg>
