<svg width="5" height="18" viewBox="0 0 5 18" fill="none" xmlns="http://www.w3.org/2000/svg">
<path d="M2.5 2L2.5 2.01M2.5 9L2.5 9.01M2.5 16L2.5 16.01M2.5 3C1.94772 3 1.5 2.55228 1.5 2C1.5 1.44772 1.94772 1 2.5 1C3.05228 1 3.5 1.44772 3.5 2C3.5 2.55228 3.05228 3 2.5 3ZM2.5 10C1.94771 10 1.5 9.55228 1.5 9C1.5 8.44772 1.94771 8 2.5 8C3.05228 8 3.5 8.44772 3.5 9C3.5 9.55228 3.05228 10 2.5 10ZM2.5 17C1.94771 17 1.5 16.5523 1.5 16C1.5 15.4477 1.94771 15 2.5 15C3.05228 15 3.5 15.4477 3.5 16C3.5 16.5523 3.05228 17 2.5 17Z" stroke="#2E2E2E" stroke-width="2" stroke-linecap="round" stroke-linejoin="round"/>
</svg>
