<svg width="900" height="900" viewBox="0 0 900 900" fill="none" xmlns="http://www.w3.org/2000/svg">
<rect width="900" height="900" fill="#F7F5FF"/>
<path d="M812.376 803.862C812.376 829.404 650.124 850.122 450 850.122C249.876 850.122 87.624 829.404 87.624 803.862C87.624 778.32 249.876 757.602 450 757.602C650.124 757.602 812.376 778.32 812.376 803.862Z" fill="#F7F5FF"/>
<path d="M720.252 587.952C720.252 587.952 690.39 581.184 674.028 566.1C657.666 551.016 648.504 523.998 648.504 523.998C659.855 526.175 671.047 529.115 682.002 532.8C686.112 537.041 689.532 541.9 692.136 547.2C692.393 543.791 692.393 540.367 692.136 536.958C695.961 538.607 699.541 540.775 702.774 543.402C716.4 555.21 720.252 587.952 720.252 587.952Z" fill="#63AD0E"/>
<path d="M667.152 537.12C663.084 534.312 658.944 531.594 654.894 528.75C654.642 528.588 654.894 528.192 655.128 528.354C662.832 532.944 670.41 537.858 677.754 543.006C680.31 544.806 682.83 546.66 685.314 548.568L684.792 547.686C683.892 546.192 682.992 544.716 682.002 543.24C680.131 540.247 678.012 537.417 675.666 534.78C675.576 534.69 675.666 534.546 675.81 534.636C678.132 537.318 680.454 540.036 682.578 542.826C683.586 544.176 684.522 545.58 685.422 547.002C685.89 547.758 686.34 548.496 686.754 549.27L687.204 550.026C691.074 553.068 694.836 556.236 698.418 559.566C700.638 561.63 702.78 563.766 704.844 565.974C703.674 562.374 702.666 558.774 701.334 555.174C701.334 555.048 701.496 554.994 701.532 555.174C702.828 558.9 704.25 562.662 705.258 566.496C707.544 568.962 709.74 571.518 711.792 574.2L711.684 573.714C711.342 572.292 711 570.888 710.622 569.502C709.902 566.802 709.092 564.102 708.192 561.456C706.47 555.959 703.749 550.827 700.164 546.318C700.074 546.21 700.164 546.066 700.308 546.174C705.903 553.154 709.819 561.327 711.756 570.06C712.08 571.32 712.368 572.598 712.656 573.876C712.818 574.56 712.998 575.244 713.106 575.946C714.006 577.17 714.906 578.394 715.752 579.654C720.822 587.444 725.045 595.753 728.352 604.44C732.105 614.182 735.326 624.12 738 634.212C737.989 634.244 737.968 634.271 737.941 634.291C737.913 634.31 737.881 634.321 737.847 634.321C737.813 634.321 737.78 634.31 737.753 634.291C737.726 634.271 737.705 634.244 737.694 634.212C731.844 616.734 725.886 599.004 715.878 583.398C713.768 580.098 711.491 576.908 709.056 573.84C704.108 573.523 699.224 572.555 694.53 570.96C689.409 569.225 684.524 566.861 679.986 563.922C677.4 562.175 674.907 560.294 672.516 558.288C672.5 558.282 672.485 558.273 672.474 558.26C672.462 558.248 672.453 558.233 672.449 558.217C672.444 558.2 672.443 558.183 672.446 558.166C672.449 558.149 672.457 558.134 672.467 558.12C672.478 558.107 672.491 558.096 672.507 558.089C672.522 558.081 672.539 558.078 672.556 558.078C672.573 558.079 672.59 558.084 672.605 558.092C672.62 558.1 672.632 558.112 672.642 558.126C676.815 561.495 681.422 564.286 686.34 566.424C691.167 568.639 696.218 570.329 701.406 571.464C703.602 571.95 705.852 572.31 708.084 572.616C705.322 569.213 702.384 565.956 699.282 562.86C698.274 561.852 697.23 560.88 696.186 559.908C692.706 557.474 689.013 555.359 685.152 553.59C680.256 551.214 675.432 548.712 670.59 546.246C667.854 544.86 665.19 543.438 662.4 542.088C662.274 542.088 662.4 541.872 662.508 541.926C667.404 544.302 672.39 546.516 677.34 548.784C682.29 551.052 686.736 553.068 691.2 555.57L691.776 555.912C687.726 552.312 683.532 549.036 679.176 545.796C675.252 542.88 671.238 540 667.152 537.12Z" fill="#2E2E2E"/>
<path d="M668.862 552.6C671.292 553.662 673.758 554.598 676.17 555.732C678.582 556.866 680.976 558.234 683.37 559.62C683.381 559.626 683.39 559.634 683.398 559.643C683.405 559.653 683.411 559.664 683.414 559.675C683.418 559.687 683.419 559.699 683.417 559.711C683.416 559.723 683.412 559.735 683.406 559.746C683.4 559.756 683.392 559.766 683.383 559.773C683.373 559.781 683.362 559.787 683.351 559.79C683.339 559.793 683.327 559.794 683.315 559.793C683.303 559.792 683.291 559.788 683.28 559.782C680.904 558.648 678.492 557.586 676.08 556.398C673.668 555.21 671.274 553.878 668.79 552.798C668.682 552.6 668.736 552.474 668.862 552.6Z" fill="#2E2E2E"/>
<path d="M817.2 437.4C811.656 444.51 808.506 453.193 808.2 462.204C808.11 464.886 808.524 468.63 808.848 473.004C801.392 477.33 794.786 482.978 789.354 489.672C795.315 486.208 802.162 484.568 809.046 484.956C808.892 487.98 808.513 490.988 807.912 493.956C803.59 493.969 799.311 494.818 795.312 496.458C799.232 496.417 803.118 497.189 806.724 498.726C801.324 515.664 785.592 533.07 741.924 540.45C737.299 519.676 740.035 497.941 749.664 478.962C762.786 453.168 817.2 437.4 817.2 437.4Z" fill="#63AD0E"/>
<path d="M726.84 612.882C727.596 605.682 728.538 598.482 729.666 591.282C731.877 576.887 734.815 562.612 738.468 548.514C740.185 541.896 742.295 535.387 744.786 529.02C744.661 527.86 744.607 526.694 744.624 525.528C744.624 524.124 744.624 522.72 744.624 521.316C744.624 518.526 744.786 515.736 745.02 512.946C745.463 507.416 746.36 501.931 747.702 496.548C748.512 493.434 749.502 490.374 750.348 487.296C750.357 487.277 750.371 487.26 750.388 487.249C750.406 487.237 750.426 487.231 750.447 487.231C750.468 487.231 750.489 487.237 750.506 487.249C750.524 487.26 750.538 487.277 750.546 487.296C749.088 492.668 748.006 498.135 747.306 503.658C746.533 509.094 746.046 514.568 745.848 520.056C745.848 521.55 745.758 523.062 745.758 524.556C745.758 525.204 745.758 525.852 745.758 526.482C747.909 521.265 750.367 516.18 753.12 511.254C757.56 503.445 762.559 495.967 768.078 488.88C768.089 488.052 768.21 487.228 768.438 486.432C768.636 485.46 768.852 484.488 769.068 483.498C769.518 481.518 770.022 479.52 770.562 477.558C771.642 473.598 773.082 469.764 774.324 465.858C774.333 465.839 774.347 465.822 774.364 465.811C774.382 465.799 774.402 465.793 774.423 465.793C774.444 465.793 774.465 465.799 774.482 465.811C774.5 465.822 774.514 465.839 774.522 465.858C773.37 469.728 772.596 473.742 771.714 477.684C771.264 479.628 770.85 481.572 770.418 483.534C770.202 484.506 769.986 485.478 769.788 486.45C769.788 486.45 769.788 486.612 769.788 486.684C771.552 484.452 773.352 482.256 775.188 480.096C783.522 470.304 792.666 461.268 801.882 452.322C803.016 451.206 804.168 450.144 805.32 449.046C805.32 449.046 805.554 449.046 805.464 449.208C796.662 458.388 788.004 467.658 779.796 477.378C777.834 479.7 775.926 482.04 774.036 484.398L777.024 482.418C779.562 480.762 782.136 479.142 784.782 477.666C787.428 476.19 790.182 474.714 792.828 473.364C795.474 472.014 798.624 470.844 801.342 469.278C801.45 469.278 801.558 469.404 801.432 469.458C798.671 470.732 796.006 472.206 793.458 473.868C790.794 475.452 788.148 477.036 785.538 478.692C782.928 480.348 780.39 481.932 777.834 483.588C775.71 484.974 773.622 486.486 771.408 487.746C766.343 494.256 761.667 501.06 757.404 508.122C754.771 512.574 752.368 517.158 750.204 521.856L751.77 521.172L755.784 519.372C758.34 518.238 760.932 517.122 763.506 516.006C768.402 513.864 773.388 511.92 778.194 509.58C780.903 508.302 783.525 506.847 786.042 505.224C786.15 505.224 786.24 505.224 786.132 505.404C777.132 511.578 767.124 515.916 757.224 520.308L752.922 522.216C751.734 522.738 750.546 523.314 749.322 523.782C746.383 530.349 743.91 537.116 741.924 544.032C738.021 557.944 734.849 572.052 732.42 586.296C729.918 600.57 728.226 614.934 726.912 629.37C726.75 631.17 726.588 632.97 726.372 634.77C726.348 634.903 726.279 635.023 726.175 635.11C726.071 635.197 725.94 635.244 725.805 635.244C725.67 635.244 725.539 635.197 725.436 635.11C725.332 635.023 725.262 634.903 725.238 634.77C725.4 627.498 726.066 620.172 726.84 612.882Z" fill="#2E2E2E"/>
<path d="M753.426 492.21C754.218 487.764 755.406 483.426 756.594 479.07C756.594 478.944 756.828 479.07 756.792 479.07C755.694 483.336 754.902 487.692 754.092 492.012C753.282 496.332 752.562 500.868 751.932 505.314C751.932 505.314 751.806 505.404 751.806 505.314C752.096 500.919 752.637 496.544 753.426 492.21Z" fill="#2E2E2E"/>
<path d="M772.2 504.252C775.242 502.239 778.417 500.434 781.704 498.852C783.288 498.042 784.908 497.25 786.51 496.476C788.112 495.702 789.912 495 791.568 494.172C791.676 494.172 791.766 494.28 791.568 494.334C789.966 495.144 788.454 496.134 786.888 496.962L782.028 499.626C778.842 501.336 775.692 503.226 772.344 504.63C772.306 504.619 772.271 504.6 772.242 504.573C772.213 504.547 772.191 504.514 772.177 504.477C772.163 504.44 772.157 504.401 772.161 504.362C772.165 504.323 772.179 504.285 772.2 504.252Z" fill="#2E2E2E"/>
<path opacity="0.1" d="M719.712 536.22C719.712 536.22 692.082 529.614 679.392 511.02C667.278 493.326 663.354 463.14 663.048 460.476C663.534 462.924 669.24 489.276 688.05 501.588C702.468 511.056 716.4 518.796 719.712 536.22Z" fill="#2E2E2E"/>
<path d="M719.711 536.22C719.711 536.22 692.082 529.614 679.392 511.02C667.278 493.326 663.353 463.14 663.047 460.476C663.039 460.416 663.039 460.356 663.047 460.296C663.047 460.296 676.295 479.142 690.227 483.948C704.159 488.754 723.708 505.422 719.711 536.22Z" fill="#63AD0E"/>
<path d="M667.908 470.736C670.388 475.815 673.246 480.701 676.458 485.352C679.677 489.765 683.501 493.703 687.816 497.052C691.578 500.04 695.538 502.74 699.336 505.656V505.512C698.616 504.468 697.86 503.424 697.068 502.434C695.484 500.4 693.756 498.492 692.01 496.602C688.59 492.876 685.08 489.222 682.002 485.19C680.286 482.946 678.802 480.534 677.574 477.99C677.574 477.864 677.7 477.81 677.754 477.99C682.236 487.332 691.2 493.308 697.554 501.192C698.458 502.313 699.305 503.478 700.092 504.684C700.726 505.559 701.264 506.501 701.694 507.492C705.194 510.299 708.359 513.5 711.126 517.032C710.886 515.207 710.513 513.402 710.01 511.632C709.372 509.17 708.384 506.812 707.076 504.63C707.076 504.522 707.184 504.396 707.256 504.522C708.59 506.709 709.671 509.04 710.478 511.47C711.062 513.406 711.401 515.408 711.486 517.428C712.855 519.286 714.105 521.227 715.23 523.242C715.104 522.648 714.996 522.054 714.888 521.442C714.33 518.688 713.736 515.934 713.088 513.216C711.784 507.683 709.537 502.416 706.446 497.646C706.356 497.538 706.446 497.43 706.608 497.538C709.778 502.236 712.257 507.364 713.97 512.766C714.852 515.484 715.554 518.166 716.184 521.028C716.49 522.378 716.76 523.746 717.012 525.114C717.156 525.816 717.3 526.554 717.426 527.274C720.162 533.295 722.296 539.571 723.798 546.012C726.507 557.52 728.473 569.19 729.684 580.95C731.111 593.263 731.749 605.654 731.592 618.048C731.592 619.614 731.466 621.162 731.394 622.71C731.394 623.106 730.764 623.178 730.746 622.71C730.476 616.572 730.314 610.434 729.954 604.314C729.594 598.194 729.054 592.074 728.406 585.954C727.145 573.947 725.222 562.019 722.646 550.224C720.396 540.126 717.498 529.956 711.972 521.1C709.228 516.693 705.87 512.699 702 509.238C698.13 505.764 693.9 502.722 689.814 499.5C685.674 496.349 681.916 492.724 678.618 488.7C675.246 484.236 672.305 479.463 669.834 474.444L667.854 470.7C667.674 470.736 667.8 470.628 667.908 470.736Z" fill="#2E2E2E"/>
<path d="M672.678 474.804C674.496 478.532 676.552 482.14 678.834 485.604C678.834 485.604 678.834 485.766 678.708 485.604C676.334 482.184 674.251 478.571 672.48 474.804C672.426 474.75 672.624 474.678 672.678 474.804Z" fill="#2E2E2E"/>
<path d="M821.124 523.998C821.124 523.998 821.574 563.274 798.084 574.596C774.594 585.918 762.084 576.504 746.064 580.302C746.676 579.366 758.07 562.986 776.178 558.486C794.826 553.824 815.4 540.36 821.124 523.998Z" fill="#63AD0E"/>
<path opacity="0.1" d="M821.124 523.998C821.124 523.998 821.574 563.274 798.084 574.596C774.594 585.918 762.084 576.504 746.064 580.302C754.497 576.279 763.512 573.612 772.776 572.4C787.59 570.6 815.868 560.97 821.124 523.998Z" fill="#2E2E2E"/>
<path d="M744.516 581.004C747.305 578.449 750.452 576.314 753.858 574.668C754.344 574.434 754.866 574.236 755.388 574.02C755.627 573.703 755.885 573.403 756.162 573.12C756.882 572.382 757.602 571.68 758.376 571.014C759.853 569.746 761.437 568.608 763.11 567.612C766.998 565.326 771.264 563.724 775.242 561.6C775.35 561.6 775.458 561.708 775.332 561.78C773.37 562.788 771.462 563.922 769.554 565.038C767.646 566.154 765.792 567.162 763.974 568.332C762.347 569.38 760.795 570.541 759.33 571.806C758.916 572.166 758.52 572.562 758.124 572.958C760.722 572.086 763.373 571.382 766.062 570.852C770.364 569.988 774.702 569.376 779.004 568.458C781.108 568.008 783.186 567.449 785.232 566.784C787.176 565.2 789.12 563.652 790.974 561.942C793.204 559.894 795.235 557.64 797.04 555.21C797.04 555.12 797.292 555.21 797.202 555.318C794.356 559.172 791.137 562.735 787.59 565.956C788.598 565.56 789.588 565.146 790.578 564.696C798.648 561.083 805.572 555.323 810.594 548.046C810.594 547.938 810.846 548.046 810.774 548.154C806.503 554.398 800.988 559.693 794.574 563.706C791.365 565.711 787.934 567.336 784.35 568.548C780.187 569.837 775.941 570.842 771.642 571.554C767.43 572.237 763.274 573.224 759.204 574.506C755.457 575.776 751.934 577.628 748.764 579.996C742.786 584.642 737.967 590.613 734.688 597.438C730.479 606.525 727.855 616.266 726.93 626.238C726.93 626.652 726.246 626.652 726.264 626.238C727.362 609.642 731.79 592.452 744.516 581.004Z" fill="#2E2E2E"/>
<path d="M771.768 568.188C772.992 566.356 774.649 564.854 776.592 563.814C778.819 562.651 780.775 561.032 782.334 559.062C782.334 558.954 782.586 559.062 782.496 559.17C781.087 560.965 779.375 562.5 777.438 563.706C775.306 564.841 773.426 566.396 771.912 568.278C771.84 568.368 771.696 568.278 771.768 568.188Z" fill="#2E2E2E"/>
<path d="M759.294 609.984L758.232 631.584L754.956 697.554H705.69L702.414 631.584L701.352 609.984H759.294Z" fill="#737373"/>
<path d="M759.294 609.984L758.232 631.584H702.414L701.352 609.984H759.294Z" fill="#2E2E2E"/>
<path d="M762.75 600.966H697.896V621.576H762.75V600.966Z" fill="#737373"/>
<path d="M75.9961 697.554L169.488 697.122L262.998 696.96L450 696.654L637.002 696.96L730.512 697.122L824.004 697.554L730.512 698.004L637.002 698.166L450 698.454L262.998 698.148L169.488 698.004L75.9961 697.554Z" fill="#2E2E2E"/>
<path d="M675.396 745.668V118.314C675.396 105.5 665.009 95.1118 652.194 95.1118L247.824 95.1118C235.01 95.1118 224.622 105.5 224.622 118.314L224.622 745.668C224.622 758.482 235.01 768.87 247.824 768.87H652.194C665.009 768.87 675.396 758.482 675.396 745.668Z" fill="#2E2E2E"/>
<path d="M656.37 142.272H244.152V722.124H656.37V142.272Z" fill="white"/>
<path d="M499.032 123.732V121.23C499.032 119.987 498.025 118.98 496.782 118.98H403.182C401.94 118.98 400.932 119.987 400.932 121.23V123.732C400.932 124.975 401.94 125.982 403.182 125.982H496.782C498.025 125.982 499.032 124.975 499.032 123.732Z" fill="#2E2E2E"/>
<path d="M450 757.602C457.008 757.602 462.69 751.92 462.69 744.912C462.69 737.903 457.008 732.222 450 732.222C442.991 732.222 437.31 737.903 437.31 744.912C437.31 751.92 442.991 757.602 450 757.602Z" fill="#2E2E2E"/>
<path d="M592.866 221.904H307.674V225.918H592.866V221.904Z" fill="#F7F5FF"/>
<path d="M592.866 234.36H307.674V238.374H592.866V234.36Z" fill="#F7F5FF"/>
<path d="M592.866 613.674H307.674V617.688H592.866V613.674Z" fill="#F7F5FF"/>
<path d="M592.866 626.13H307.674V630.144H592.866V626.13Z" fill="#F7F5FF"/>
<path d="M562.752 585.72H337.248V394.956L449.982 323.352L562.752 394.956V585.72Z" fill="#664EFE"/>
<path opacity="0.2" d="M562.752 585.72H337.248V394.956L449.982 323.352L562.752 394.956V585.72Z" fill="#2E2E2E"/>
<path d="M550.026 314.28H349.956V571.122H550.026V314.28Z" fill="#F7F5FF"/>
<path d="M437.814 467.946L392.004 421.578L407.394 406.368L434.16 433.458L489.744 346.302L507.996 357.93L437.814 467.946Z" fill="#664EFE"/>
<path d="M562.752 442.8V585.72H337.248V442.8C346.932 448.2 356.454 454.032 366.048 459.648C375.642 465.264 385.146 471.096 394.632 476.928C405.198 483.354 415.764 489.906 426.294 496.494L426.636 496.296C426.528 496.296 426.456 496.476 426.366 496.53C434.238 501.39 442.116 506.28 450 511.2C457.848 506.25 465.75 501.264 473.634 496.386C473.544 496.386 473.472 496.224 473.364 496.152C473.47 496.226 473.585 496.286 473.706 496.332C484.23 489.768 494.784 483.24 505.368 476.748C514.86 470.952 524.376 465.204 533.916 459.504C543.6 453.942 553.068 448.2 562.752 442.8Z" fill="#664EFE"/>
<g opacity="0.2">
<path d="M562.752 442.8C553.644 449.19 544.374 455.4 535.194 461.628C526.014 467.856 516.672 473.94 507.348 480.042C497.628 486.414 487.89 492.726 478.134 498.978L477.252 499.59L451.278 516.15L449.982 516.924L448.722 516.15L422.784 499.554L421.866 498.978C412.086 492.714 402.336 486.39 392.616 480.006C383.328 473.94 374.058 467.784 364.806 461.628C355.554 455.472 346.356 449.1 337.248 442.8C346.932 448.2 356.454 454.032 366.048 459.648C375.642 465.264 385.146 471.096 394.632 476.928C405.198 483.354 415.764 489.906 426.294 496.494C434.214 501.378 442.116 506.28 450 511.2C457.848 506.25 465.75 501.264 473.634 496.386C484.158 489.822 494.712 483.294 505.296 476.802C514.788 471.006 524.304 465.258 533.844 459.558C543.6 453.942 553.068 448.2 562.752 442.8Z" fill="#2E2E2E"/>
<path d="M426.6 496.206C426.492 496.206 426.42 496.386 426.33 496.44L422.73 499.464C417.078 504.234 411.282 508.806 405.396 513.252C398.196 518.652 390.87 524.052 383.49 529.2C376.11 534.348 368.622 539.388 360.99 544.266C353.358 549.144 345.69 553.914 337.734 558.288C344.574 552.294 351.684 546.696 358.866 541.26C366.048 535.824 373.428 530.46 380.772 525.294C388.116 520.128 395.676 515.07 403.29 510.192C409.356 506.304 415.53 502.47 421.812 498.888C423.27 498.042 424.728 497.232 426.222 496.404L426.6 496.206Z" fill="#2E2E2E"/>
<path d="M562.212 558.288C554.256 553.914 546.534 549.144 538.956 544.266C531.378 539.388 523.8 534.312 516.42 529.2C509.04 524.088 501.696 518.724 494.514 513.252C488.664 508.806 482.868 504.252 477.252 499.5L473.652 496.44C473.562 496.44 473.49 496.278 473.382 496.206C473.488 496.28 473.603 496.34 473.724 496.386C475.218 497.232 476.676 498.042 478.134 498.888C484.416 502.488 490.554 506.304 496.656 510.192C504.27 515.07 511.722 520.146 519.138 525.294C526.554 530.442 533.862 535.77 541.044 541.26C548.226 546.75 555.372 552.294 562.212 558.288Z" fill="#2E2E2E"/>
</g>
<path d="M353.52 302.04C352.32 292.146 352.32 282.144 353.52 272.25C354.72 282.144 354.72 292.146 353.52 302.04Z" fill="#2E2E2E"/>
<path d="M340.848 306.774C336.902 303.73 333.168 300.422 329.67 296.874C326.117 293.386 322.809 289.657 319.77 285.714C327.615 291.863 334.692 298.933 340.848 306.774Z" fill="#2E2E2E"/>
<path d="M335.25 319.068C330.308 319.708 325.329 320.009 320.346 319.968C315.369 320.024 310.395 319.729 305.46 319.086C310.395 318.437 315.369 318.136 320.346 318.186C325.328 318.139 330.308 318.434 335.25 319.068Z" fill="#2E2E2E"/>
<path d="M339.984 331.722C333.828 339.562 326.758 346.638 318.924 352.8C325.065 344.943 332.137 337.859 339.984 331.704V331.722Z" fill="#2E2E2E"/>
<path d="M545.13 302.04C544.505 297.097 544.21 292.118 544.248 287.136C544.213 282.159 544.52 277.185 545.166 272.25C546.366 282.144 546.366 292.146 545.166 302.04H545.13Z" fill="#2E2E2E"/>
<path d="M557.802 306.774C563.957 298.933 571.034 291.863 578.88 285.714C575.84 289.657 572.532 293.386 568.98 296.874C565.481 300.422 561.747 303.73 557.802 306.774Z" fill="#2E2E2E"/>
<path d="M563.4 319.068C568.342 318.434 573.322 318.139 578.304 318.186C583.281 318.136 588.256 318.436 593.19 319.086C588.255 319.73 583.281 320.024 578.304 319.968C573.322 320.009 568.342 319.709 563.4 319.068Z" fill="#2E2E2E"/>
<path d="M558.666 331.722C566.512 337.871 573.584 344.949 579.726 352.8C575.787 349.749 572.058 346.436 568.566 342.882C565.014 339.394 561.706 335.665 558.666 331.722Z" fill="#2E2E2E"/>
<path d="M304.722 822.816C300.834 824.076 190.08 822.636 185.922 819.9C184.32 818.892 183.582 802.746 183.258 783.198V782.586C183.258 778.572 183.132 774.414 183.114 770.22C183.114 769.644 183.114 769.068 183.114 768.42L188.514 710.964L262.602 711.702L255.276 768.618V770.868L254.826 782.64V783.864C254.826 783.864 296.982 803.376 301.266 806.868C305.55 810.36 308.592 821.592 304.722 822.816Z" fill="#AD6359"/>
<path d="M304.722 822.816C300.834 824.076 190.08 822.636 185.922 819.9C184.32 818.892 183.582 802.746 183.258 783.198V782.586C183.258 778.572 183.132 774.414 183.114 770.22C183.114 769.644 183.114 769.068 183.114 768.42L255.258 768.618V770.868L254.808 782.64V783.864C254.808 783.864 296.964 803.376 301.248 806.868C305.532 810.36 308.592 821.592 304.722 822.816Z" fill="#F7F5FF"/>
<path d="M305.046 823.086C301.122 824.346 189.36 823.284 185.13 820.548C183.51 819.522 182.718 803.232 182.322 783.522L254.322 784.008C254.322 784.008 296.928 803.556 301.266 807.048C305.604 810.54 308.952 821.808 305.046 823.086Z" fill="#FFD952"/>
<path d="M303.48 818.604C284.76 817.956 209.142 817.146 190.584 817.938C190.44 817.938 190.44 818.046 190.584 818.064C209.142 819.09 284.742 819.288 303.48 818.91C303.876 818.892 303.876 818.604 303.48 818.604Z" fill="#2E2E2E"/>
<path d="M294.156 802.962C292.075 802.892 290.001 803.253 288.066 804.021C286.13 804.789 284.373 805.948 282.906 807.426C280.256 810.08 278.723 813.649 278.622 817.398C278.622 817.506 278.838 817.506 278.856 817.398C279.525 813.694 281.379 810.307 284.138 807.746C286.897 805.185 290.412 803.588 294.156 803.196C294.175 803.204 294.196 803.207 294.216 803.204C294.237 803.202 294.256 803.195 294.273 803.183C294.291 803.172 294.304 803.156 294.314 803.138C294.324 803.12 294.329 803.1 294.329 803.079C294.329 803.059 294.324 803.038 294.314 803.02C294.304 803.002 294.291 802.986 294.273 802.975C294.256 802.963 294.237 802.956 294.216 802.954C294.196 802.952 294.175 802.954 294.156 802.962Z" fill="#2E2E2E"/>
<path d="M261.63 785.952C254.124 785.772 245.43 788.328 240.696 794.412C240.516 794.664 240.858 794.916 241.074 794.79C247.667 791.423 254.6 788.768 261.756 786.87C261.864 786.839 261.958 786.77 262.019 786.676C262.081 786.582 262.107 786.468 262.091 786.357C262.076 786.245 262.021 786.143 261.936 786.068C261.851 785.994 261.743 785.953 261.63 785.952Z" fill="#2E2E2E"/>
<path d="M267.39 788.256C259.902 788.076 251.19 790.65 246.456 796.734C246.276 796.968 246.618 797.22 246.834 797.112C253.424 793.734 260.358 791.073 267.516 789.174C267.624 789.143 267.718 789.074 267.779 788.98C267.841 788.886 267.866 788.772 267.851 788.661C267.836 788.549 267.781 788.447 267.696 788.372C267.611 788.298 267.503 788.257 267.39 788.256Z" fill="#2E2E2E"/>
<path d="M273.168 790.56C265.662 790.398 256.968 792.954 252.234 799.038C252.054 799.272 252.378 799.542 252.612 799.416C259.2 796.051 266.127 793.396 273.276 791.496C273.377 791.458 273.462 791.387 273.519 791.294C273.575 791.202 273.598 791.093 273.586 790.986C273.574 790.878 273.526 790.778 273.45 790.701C273.374 790.624 273.275 790.574 273.168 790.56Z" fill="#2E2E2E"/>
<path d="M279 792.882C271.512 792.702 262.8 795.276 258.066 801.36C257.886 801.594 258.228 801.846 258.444 801.738C264.994 798.369 271.885 795.708 279 793.8C279.106 793.779 279.202 793.722 279.271 793.638C279.339 793.555 279.377 793.45 279.377 793.341C279.377 793.233 279.339 793.128 279.271 793.044C279.202 792.961 279.106 792.903 279 792.882Z" fill="#2E2E2E"/>
<path d="M195.534 800.19C187.11 800.19 187.02 813.204 195.534 813.258C204.048 813.312 203.958 800.244 195.534 800.19Z" fill="white"/>
<path d="M270 766.008C266.238 762.822 261.414 765.864 259.056 769.104C255.065 774.745 252.631 781.338 252 788.22C252 788.364 252.108 788.436 252.234 788.436C252.261 788.577 252.321 788.709 252.409 788.822C252.498 788.935 252.612 789.025 252.742 789.085C252.873 789.145 253.015 789.173 253.159 789.166C253.302 789.16 253.442 789.119 253.566 789.048C258.966 785.448 265.14 782.172 269.244 777.006C271.62 774 273.492 769.032 270 766.008ZM260.64 781.866C258.048 783.666 255.366 785.466 252.846 787.392C254.097 783.631 255.539 779.936 257.166 776.322C257.986 774.583 258.918 772.9 259.956 771.282C261.612 768.816 268.956 762.624 269.694 770.796C270 775.296 263.664 779.652 260.568 781.866H260.64Z" fill="#2E2E2E"/>
<path d="M233.316 790.812C239.85 791.874 246.6 790.092 253.026 789.156C253.165 789.12 253.293 789.052 253.402 788.958C253.51 788.864 253.595 788.746 253.651 788.614C253.707 788.482 253.731 788.339 253.723 788.195C253.714 788.052 253.673 787.913 253.602 787.788C253.625 787.77 253.643 787.746 253.655 787.72C253.668 787.693 253.674 787.665 253.674 787.635C253.674 787.606 253.668 787.577 253.655 787.551C253.643 787.524 253.625 787.501 253.602 787.482C248.531 782.824 242.323 779.583 235.602 778.086C231.66 777.276 226.062 778.284 225.432 783.18C224.802 787.806 229.518 790.2 233.316 790.812ZM228.834 786.6C223.83 780.12 233.478 779.688 236.358 780.39C238.197 780.866 240.001 781.467 241.758 782.19C245.466 783.666 248.958 785.628 252.432 787.446C249.246 787.716 246.114 788.256 242.928 788.634C239.202 789.03 231.606 790.074 228.834 786.6Z" fill="#2E2E2E"/>
<path opacity="0.1" d="M241.74 823.266C213.966 822.78 187.164 821.862 185.13 820.548C183.51 819.522 182.718 803.232 182.322 783.522H192.582C203.922 792.81 227.916 812.124 241.74 823.266Z" fill="#2E2E2E"/>
<path d="M259.56 783H179.802C179.802 783 195.858 596.718 195.228 593.46C194.436 589.284 189.72 570.438 183.456 545.796C181.494 538.092 179.37 529.83 177.174 521.262C171.216 498.078 164.574 472.752 158.958 450.702C150.39 417.69 143.694 392.04 143.694 392.04H211.284C211.284 392.04 219.168 417.006 229.104 449.514C245.304 502.308 266.904 574.992 269.028 592.668C272.484 621.162 259.56 783 259.56 783Z" fill="#2E2E2E"/>
<path d="M256.032 769.356C243.846 769.104 247.338 769.014 235.152 768.888C229.194 768.888 190.026 768.492 184.446 769.41C184.413 769.41 184.381 769.423 184.357 769.447C184.334 769.471 184.32 769.503 184.32 769.536C184.32 769.57 184.334 769.602 184.357 769.625C184.381 769.649 184.413 769.662 184.446 769.662C190.026 770.58 229.194 770.238 235.152 770.184C247.338 770.076 243.846 769.968 256.032 769.716C256.08 769.716 256.126 769.697 256.16 769.663C256.193 769.63 256.212 769.584 256.212 769.536C256.212 769.488 256.193 769.443 256.16 769.409C256.126 769.375 256.08 769.356 256.032 769.356Z" fill="#2E2E2E"/>
<path d="M210.24 582.03C207.63 570.51 203.706 559.206 200.304 547.83C193.392 524.85 186.438 501.87 179.442 478.89C175.95 467.406 172.446 455.922 168.93 444.438C167.154 438.642 165.354 432.852 163.53 427.068C161.73 421.398 159.732 415.8 158.13 410.076C157.482 407.754 157.122 409.032 157.968 411.984C159.642 417.924 161.298 423.882 163.044 429.822C166.464 441.582 169.92 453.33 173.412 465.066C180.324 488.43 187.296 511.776 194.328 535.104C197.844 546.816 201.366 558.516 204.894 570.204C206.678 575.774 208.115 581.448 209.196 587.196C210.147 593.201 210.389 599.297 209.916 605.358C209.142 617.562 207.72 629.748 206.604 641.916C205.488 654.084 204.336 666.324 203.22 678.51C200.976 702.798 198.744 727.08 196.524 751.356C196.254 754.434 195.984 757.512 195.75 760.608C195.75 761.634 197.226 761.544 197.334 760.608C199.962 736.614 201.978 712.512 204.228 688.482C206.478 664.452 208.728 640.62 210.96 616.698C211.518 610.686 212.166 604.674 212.166 598.698C212.152 593.087 211.506 587.496 210.24 582.03Z" fill="#2E2E2E"/>
<path d="M203.616 392.004C198.918 428.31 189.972 496.404 183.456 545.76C168.21 486 143.694 392.004 143.694 392.004H203.616Z" fill="#2E2E2E"/>
<path d="M220.212 823.896C216.342 825.156 105.588 824.13 101.412 821.412C99.8103 820.404 99.0183 804.258 98.6223 784.71V784.098C98.5323 780.084 98.4603 775.926 98.4423 771.732C98.4423 771.156 98.4423 770.58 98.4423 769.932C98.1903 741.744 100.242 712.494 100.242 712.494L172.638 712.962L170.604 769.878V772.128L170.208 783.918V785.124C170.208 785.124 212.238 804.6 216.522 808.02C220.806 811.44 224.1 822.6 220.212 823.896Z" fill="#AD6359"/>
<path d="M220.212 823.896C216.342 825.156 105.588 824.13 101.412 821.412C99.8104 820.404 99.0184 804.258 98.6224 784.71V784.098C98.5324 780.084 98.4604 775.926 98.4424 771.732C98.4424 771.156 98.4424 770.58 98.4424 769.932H170.586V772.182L170.19 783.972V785.178C170.19 785.178 212.238 804.6 216.522 808.02C220.806 811.44 224.1 822.6 220.212 823.896Z" fill="#F7F5FF"/>
<path d="M220.662 823.662C216.738 824.922 104.976 823.86 100.746 821.124C99.1265 820.098 98.3345 803.808 97.9385 784.098L169.938 784.584C169.938 784.584 212.544 804.132 216.864 807.624C221.184 811.116 224.568 822.384 220.662 823.662Z" fill="#FFD952"/>
<path d="M219.096 819.18C200.358 818.532 124.758 817.722 106.2 818.514C106.056 818.514 106.056 818.622 106.2 818.622C124.74 819.666 200.358 819.864 219.096 819.486C219.492 819.468 219.492 819.18 219.096 819.18Z" fill="#2E2E2E"/>
<path d="M209.772 803.538C207.691 803.467 205.617 803.827 203.681 804.595C201.745 805.363 199.989 806.523 198.522 808.002C195.866 810.652 194.332 814.223 194.238 817.974C194.238 818.082 194.454 818.082 194.472 817.974C195.142 814.27 196.995 810.883 199.754 808.322C202.513 805.761 206.028 804.164 209.772 803.772C209.796 803.763 209.816 803.747 209.83 803.726C209.844 803.705 209.852 803.68 209.852 803.655C209.852 803.63 209.844 803.605 209.83 803.584C209.816 803.564 209.796 803.547 209.772 803.538Z" fill="#2E2E2E"/>
<path d="M177.246 786.6C169.74 786.438 161.046 788.994 156.312 795.078C156.132 795.312 156.456 795.582 156.69 795.456C163.283 792.089 170.216 789.434 177.372 787.536C177.473 787.496 177.559 787.424 177.614 787.33C177.669 787.236 177.691 787.126 177.677 787.018C177.662 786.911 177.612 786.811 177.534 786.735C177.456 786.659 177.354 786.611 177.246 786.6Z" fill="#2E2E2E"/>
<path d="M183.006 788.832C175.518 788.652 166.806 791.208 162.072 797.31C161.892 797.544 162.234 797.796 162.45 797.688C169.04 794.31 175.974 791.649 183.132 789.75C183.24 789.719 183.334 789.65 183.395 789.556C183.457 789.461 183.482 789.348 183.467 789.236C183.452 789.125 183.397 789.022 183.312 788.948C183.227 788.874 183.119 788.833 183.006 788.832Z" fill="#2E2E2E"/>
<path d="M188.784 791.136C181.278 790.956 172.584 793.53 167.85 799.614C167.652 799.848 167.994 800.1 168.228 799.992C174.812 796.617 181.74 793.962 188.892 792.072C188.993 792.034 189.079 791.963 189.135 791.871C189.191 791.778 189.215 791.67 189.203 791.562C189.19 791.455 189.142 791.355 189.067 791.277C188.991 791.2 188.891 791.151 188.784 791.136Z" fill="#2E2E2E"/>
<path d="M194.544 793.458C187.038 793.278 178.344 795.834 173.61 801.936C173.43 802.17 173.772 802.422 173.988 802.314C180.577 798.933 187.511 796.272 194.67 794.376C194.778 794.345 194.872 794.276 194.934 794.182C194.995 794.087 195.021 793.974 195.005 793.862C194.99 793.751 194.935 793.648 194.85 793.574C194.765 793.5 194.657 793.459 194.544 793.458Z" fill="#2E2E2E"/>
<path d="M111.15 800.766C102.726 800.766 102.636 813.78 111.15 813.834C119.664 813.888 119.574 800.82 111.15 800.766Z" fill="white"/>
<path d="M185.544 766.584C181.764 763.398 176.958 766.44 174.582 769.68C170.618 775.323 168.21 781.909 167.598 788.778C167.594 788.809 167.598 788.84 167.609 788.869C167.62 788.898 167.638 788.924 167.66 788.945C167.683 788.966 167.711 788.981 167.74 788.99C167.77 788.998 167.801 789 167.832 788.994C167.856 789.136 167.915 789.271 168.002 789.386C168.09 789.501 168.203 789.594 168.334 789.655C168.465 789.717 168.608 789.746 168.753 789.741C168.897 789.736 169.038 789.695 169.164 789.624C174.564 786.024 180.738 782.748 184.842 777.564C187.2 774.54 189.108 769.59 185.544 766.584ZM176.184 782.442C173.592 784.242 170.91 786.042 168.39 787.95C169.67 784.187 171.142 780.492 172.8 776.88C173.62 775.147 174.552 773.47 175.59 771.858C177.246 769.392 184.59 763.2 185.328 771.354C185.616 775.8 179.28 780.228 176.184 782.442Z" fill="#2E2E2E"/>
<path d="M148.932 791.388C155.448 792.45 162.216 790.65 168.624 789.732C168.76 789.697 168.886 789.632 168.993 789.541C169.099 789.45 169.183 789.336 169.239 789.207C169.295 789.079 169.32 788.939 169.313 788.799C169.307 788.659 169.268 788.523 169.2 788.4C169.226 788.382 169.248 788.358 169.262 788.329C169.277 788.301 169.285 788.27 169.285 788.238C169.285 788.206 169.277 788.175 169.262 788.147C169.248 788.119 169.226 788.094 169.2 788.076C164.122 783.428 157.917 780.189 151.2 778.68C147.258 777.888 141.66 778.896 141.03 783.792C140.4 788.4 145.134 790.758 148.932 791.388ZM144.45 787.068C139.446 780.588 149.094 780.174 151.974 780.876C153.814 781.351 155.618 781.953 157.374 782.676C161.013 784.246 164.57 786.001 168.03 787.932C164.844 788.202 161.712 788.724 158.544 789.12C154.8 789.606 147.222 790.65 144.45 787.068Z" fill="#2E2E2E"/>
<path d="M209.106 392.004C209.106 392.004 207.54 424.404 200.106 449.964C199.512 452.088 198.864 454.158 198.18 456.156C191.404 458.908 184.891 462.27 178.722 466.2C178.722 466.2 177.948 492.21 177.174 521.244C176.31 553.644 175.374 589.86 175.59 597.546C176.274 626.346 171.99 784.152 171.99 784.152L92.2324 784.476C92.2324 784.476 106.632 608.076 106.632 597.618C106.47 580.716 110.484 505.98 113.598 451.494C115.398 417.906 117.054 392.094 117.054 392.094L209.106 392.004Z" fill="#2E2E2E"/>
<path d="M169.2 769.95C157.014 769.752 160.506 769.644 148.338 769.572C142.362 769.572 103.194 769.356 97.6319 770.31C97.5984 770.31 97.5664 770.323 97.5428 770.347C97.5191 770.371 97.5059 770.403 97.5059 770.436C97.5059 770.47 97.5191 770.502 97.5428 770.525C97.5664 770.549 97.5984 770.562 97.6319 770.562C103.194 771.462 142.38 770.94 148.338 770.868C160.524 770.688 157.014 770.616 169.2 770.31C169.248 770.31 169.293 770.291 169.327 770.258C169.361 770.224 169.38 770.178 169.38 770.13C169.38 770.083 169.361 770.037 169.327 770.003C169.293 769.969 169.248 769.95 169.2 769.95Z" fill="#2E2E2E"/>
<path d="M123.696 403.56C122.22 448.056 120.672 492.552 118.674 537.012C116.676 581.472 113.994 626.256 110.268 670.752C108.18 695.628 106.2 730.62 103.518 755.352C103.518 755.514 103.752 755.586 103.788 755.352C109.584 711.216 112.788 656.658 115.686 612.234C118.584 567.81 120.474 523.35 121.986 478.89C122.85 453.69 123.498 428.49 124.254 403.398C124.2 403.2 123.714 403.2 123.696 403.56Z" fill="#2E2E2E"/>
<path d="M201.6 454.23C193.643 457.552 185.988 461.557 178.722 466.2C178.673 466.24 178.638 466.295 178.626 466.357C178.613 466.419 178.622 466.484 178.652 466.54C178.682 466.595 178.731 466.639 178.79 466.662C178.849 466.686 178.914 466.688 178.974 466.668C186.66 462.924 194.508 459.324 201.996 455.166C202.091 455.097 202.16 454.997 202.191 454.884C202.223 454.77 202.215 454.65 202.169 454.541C202.123 454.433 202.042 454.343 201.939 454.287C201.835 454.23 201.716 454.21 201.6 454.23Z" fill="#2E2E2E"/>
<path d="M201.978 426.798C201.438 429.624 200.754 432.432 200.178 435.258C199.602 438.084 199.188 440.658 198.486 443.214C197.905 445.74 196.619 448.05 194.778 449.874C193.752 450.828 192.6 451.674 191.502 452.574L189.702 453.996C189.702 453.618 189.864 453.24 189.918 452.844C190.116 451.764 190.296 450.702 190.476 449.622C190.872 447.228 191.25 444.834 191.628 442.422C192.348 437.706 192.996 432.954 193.986 428.31C193.986 428.112 193.734 428.04 193.698 428.31C192.528 432.918 191.232 437.472 190.206 442.134C189.702 444.42 187.92 455.688 187.848 456.534C187.776 457.38 187.686 458.19 187.668 459.018C187.55 459.854 187.55 460.702 187.668 461.538C187.668 461.754 187.956 461.718 188.046 461.538C188.396 460.759 188.638 459.935 188.766 459.09C188.982 458.298 189.162 457.47 189.306 456.66C189.306 456.372 189.306 456.066 189.432 455.76C190.548 455.094 191.574 454.194 192.618 453.438C193.662 452.682 194.886 451.836 195.93 450.954C197.826 449.27 199.174 447.057 199.8 444.6C200.485 441.945 200.931 439.234 201.132 436.5C201.492 433.296 201.744 430.074 202.194 426.888C202.302 426.6 202.014 426.6 201.978 426.798Z" fill="#2E2E2E"/>
<path d="M172.8 318.726C178.974 337.32 206.622 396.432 218.232 400.572C230.328 404.856 277.038 410.202 287.406 402.048C292.482 398.034 294.246 355.248 287.406 356.328C280.566 357.408 239.382 358.902 234.486 357.156C229.59 355.41 196.884 307.8 183.6 296.208C160.686 276.318 169.506 308.7 172.8 318.726Z" fill="#AD6359"/>
<path d="M277.074 355.608L276.408 408.87C276.408 408.87 228.51 408.996 215.748 402.282C202.986 395.568 175.986 334.026 169.236 310.482C162.486 286.938 173.286 283.302 190.44 300.582C207.594 317.862 233.388 354.078 236.448 354.816C239.508 355.554 277.074 355.608 277.074 355.608Z" fill="#FFD952"/>
<path d="M213.157 326.898C203.301 328.551 193.758 331.708 184.86 336.258L183.241 337.104C182.827 337.302 182.431 337.518 182.035 337.752C181.243 338.166 180.469 338.598 179.695 339.066L179.353 338.202L180.991 337.248L182.179 336.618C182.917 336.204 183.673 335.79 184.429 335.412C188.997 333.042 193.761 331.066 198.667 329.508C203.207 328.038 207.852 326.912 212.562 326.142L213.157 326.898ZM223.849 340.344C222.999 340.79 222.128 341.192 221.239 341.55C218.939 342.519 216.516 343.161 214.039 343.458C212.779 343.602 211.519 343.818 210.258 343.89L206.46 343.998C201.379 343.861 196.366 342.799 191.665 340.866C188.839 339.768 186.085 338.436 183.331 337.104C182.971 336.96 182.629 336.78 182.269 336.618C181.405 336.222 180.469 335.808 179.659 335.43L178.812 335.07L178.021 334.728L178.327 335.484C178.327 335.7 178.507 335.916 178.579 336.132H178.741L181.062 337.176L182.107 337.68C185.095 339.102 188.101 340.614 191.233 341.838C196.059 343.824 201.207 344.915 206.425 345.06L210.312 344.97C211.608 344.97 212.904 344.664 214.182 344.52C216.781 344.22 219.326 343.56 221.743 342.558C222.745 342.163 223.725 341.713 224.677 341.208L223.849 340.344ZM205.417 317.412C202.048 318.975 198.773 320.729 195.607 322.668C189.649 326.334 184.002 330.482 178.723 335.07L178.236 335.484C178.236 335.7 178.417 335.916 178.489 336.132V336.276C178.489 336.276 178.489 336.276 178.597 336.276C178.903 336.006 179.191 335.736 179.497 335.502C184.683 331.084 190.215 327.087 196.039 323.55C199.265 321.62 202.588 319.854 205.993 318.258L205.417 317.412Z" fill="white"/>
<path d="M263.124 381.906C263.124 377.676 263.43 360.81 263.808 356.706H263.934C264.348 360.774 264.564 377.424 264.546 381.654C264.685 390.065 264.366 398.478 263.592 406.854C263.582 406.882 263.563 406.905 263.539 406.922C263.515 406.939 263.486 406.948 263.457 406.948C263.427 406.948 263.399 406.939 263.375 406.922C263.35 406.905 263.332 406.882 263.322 406.854C262.692 398.556 263.034 390.222 263.124 381.906Z" fill="#2E2E2E"/>
<path opacity="0.1" d="M169.2 310.464C175.95 334.026 202.95 395.55 215.712 402.264C221.832 405.486 236.016 407.142 249.138 407.97L173.97 289.8C167.544 289.116 165.114 296.082 169.2 310.464Z" fill="#2E2E2E"/>
<path d="M108.684 440.046C108.972 440.334 225.828 432.342 226.8 431.046C228.168 429.246 191.178 310.446 181.908 293.076C177.966 285.642 159.066 284.562 151.596 291.6C132.894 309.186 119.88 366.048 117.144 383.094C112.608 411.21 107.64 439.02 108.684 440.046Z" fill="#FFD952"/>
<path d="M220.554 407.412L217.278 405.486C212.862 402.914 208.314 400.577 203.652 398.484L201.096 397.368L199.854 396.864C196.411 395.442 192.882 394.24 189.288 393.264C184.375 391.894 179.342 391.002 174.258 390.6C164.055 390.158 153.846 391.312 144 394.02L142.2 394.524C141.75 394.632 141.318 394.758 140.886 394.902C134.025 397 127.358 399.686 120.96 402.93C119.16 403.776 117.36 404.73 115.704 405.612L115.164 405.9L113.184 406.962L113.346 406.044L115.38 405C117.396 403.902 119.43 402.84 121.482 401.85C123.174 400.986 124.902 400.176 126.63 399.402C130.976 397.409 135.436 395.672 139.986 394.2L141.3 393.822C142.11 393.552 142.92 393.318 143.748 393.102C148.706 391.707 153.778 390.75 158.904 390.24C164.02 389.685 169.173 389.552 174.312 389.844C183.349 390.616 192.204 392.835 200.538 396.414L201.762 396.954L203.904 397.908C208.573 400.06 213.121 402.463 217.53 405.108L220.338 406.764L220.554 407.412ZM214.506 387.612C211.518 389.412 208.602 391.212 205.704 393.12C203.904 394.236 202.266 395.37 200.538 396.468L199.854 396.918C197.496 398.43 195.102 399.888 192.654 401.256C188.271 403.818 183.498 405.642 178.524 406.656C176.039 407.133 173.501 407.26 170.982 407.034C169.722 406.908 168.444 406.872 167.202 406.692L163.458 406.026C158.514 404.842 153.825 402.775 149.616 399.924C147.078 398.268 144.666 396.324 142.218 394.524L141.282 393.822C140.526 393.246 139.752 392.67 138.978 392.13L138.24 391.59L137.16 390.852C132.872 387.799 127.785 386.066 122.526 385.866C120.45 385.905 118.4 386.326 116.478 387.108L116.316 388.08C118.28 387.262 120.38 386.822 122.508 386.784C127.576 387.028 132.463 388.748 136.566 391.734L137.196 392.166L137.934 392.688C138.618 393.174 139.302 393.678 139.968 394.2L140.904 394.902C143.55 396.918 146.178 399.006 149.004 400.842C153.314 403.771 158.12 405.894 163.188 407.106L167.04 407.808C168.318 407.988 169.614 408.042 170.91 408.168C173.519 408.393 176.146 408.266 178.722 407.79C183.798 406.74 188.664 404.855 193.122 402.21C195.804 400.698 198.414 399.06 200.988 397.368L201.654 396.954L206.19 393.984C208.998 392.184 211.842 390.384 214.722 388.584L214.506 387.612ZM212.526 381.24C209.399 380.23 206.221 379.389 203.004 378.72C197.94 377.696 192.779 377.225 187.614 377.316C182.447 377.413 177.298 377.955 172.224 378.936C167.153 379.893 162.164 381.241 157.302 382.968C150.726 385.331 144.356 388.233 138.258 391.644C137.898 391.824 137.556 392.022 137.214 392.22C134.658 393.642 132.156 395.118 129.672 396.648C126.918 398.34 124.182 400.086 121.482 401.85C119.376 403.2 117.288 404.586 115.2 405.954L113.184 407.268C113.184 407.556 113.094 407.826 113.058 408.096C115.722 406.404 118.35 404.676 120.996 402.984C122.796 401.778 124.74 400.572 126.63 399.384C127.764 398.664 128.898 397.962 130.05 397.278C132.642 395.712 135.288 394.182 137.952 392.724L138.996 392.166C144.97 388.895 151.201 386.114 157.626 383.85C167.269 380.416 177.383 378.485 187.614 378.126C192.727 378.008 197.839 378.443 202.86 379.422C206.212 380.098 209.523 380.963 212.778 382.014C212.688 381.708 212.598 381.438 212.526 381.186V381.24Z" fill="white"/>
<path d="M135.9 305.1C104.886 339.3 69.9119 397.098 84.8699 409.5C98.5499 420.768 148.446 410.04 179.82 397.782C185.796 395.442 161.568 342.63 155.484 345.762C149.078 349.172 142.465 352.178 135.684 354.762C133.884 355.23 143.388 343.71 153.9 316.026C164.52 287.748 153.63 285.534 135.9 305.1Z" fill="#AD6359"/>
<path d="M231.714 341.766C231.714 347.904 216.612 346.698 216.612 346.698C218.813 348.132 220.444 350.29 221.22 352.8C222.354 357.318 215.82 361.098 215.82 361.098C217.782 363.066 219.116 365.572 219.654 368.298C220.302 372.726 214.254 377.496 214.254 377.496C215.054 380.324 214.812 383.346 213.57 386.01C209.97 393.012 197.874 393.21 190.404 394.722C182.034 396.657 173.835 399.27 165.888 402.534L151.992 347.364C151.992 347.364 184.392 328.122 193.392 328.554C200.988 329.076 231.678 332.37 231.714 341.766Z" fill="#AD6359"/>
<path d="M216.486 346.518C208.458 344.178 199.89 343.782 191.628 343.476C191.448 343.476 191.43 343.746 191.628 343.764C199.872 343.962 208.242 346.374 216.432 346.914C216.485 346.921 216.538 346.907 216.58 346.875C216.622 346.843 216.65 346.796 216.657 346.743C216.664 346.691 216.65 346.637 216.618 346.595C216.586 346.553 216.539 346.525 216.486 346.518Z" fill="#2E2E2E"/>
<path d="M215.55 360.54C213.676 360.187 211.763 360.084 209.862 360.234C207.846 360.234 205.83 360.324 203.814 360.414C199.77 360.594 195.738 360.882 191.718 361.278C191.538 361.278 191.52 361.566 191.718 361.566C195.75 361.386 199.782 361.26 203.796 361.242H209.844C211.747 361.398 213.661 361.338 215.55 361.062C215.6 361.039 215.642 361.002 215.671 360.956C215.701 360.909 215.716 360.856 215.716 360.801C215.716 360.746 215.701 360.692 215.671 360.646C215.642 360.6 215.6 360.563 215.55 360.54Z" fill="#2E2E2E"/>
<path d="M213.966 377.658C212.269 377.361 210.533 377.361 208.836 377.658L203.4 378C199.8 378.198 196.038 378.414 192.348 378.486C192.31 378.486 192.273 378.501 192.246 378.528C192.219 378.555 192.204 378.592 192.204 378.63C192.204 378.668 192.219 378.705 192.246 378.732C192.273 378.759 192.31 378.774 192.348 378.774C196.092 378.774 199.836 378.774 203.58 378.612L209.088 378.45C210.766 378.552 212.449 378.351 214.056 377.856C214.082 377.844 214.103 377.822 214.113 377.795C214.123 377.768 214.122 377.738 214.11 377.712C214.098 377.686 214.076 377.665 214.049 377.655C214.022 377.645 213.992 377.646 213.966 377.658Z" fill="#2E2E2E"/>
<path d="M150.426 346.914L162.378 406.314C162.378 406.314 88.092 425.7 80.388 406.908C72.684 388.116 116.388 318.33 141.588 298.422C166.788 278.514 157.32 309.87 156.546 312.39C153.144 323.532 137.304 352.584 137.304 352.584L150.426 346.914Z" fill="#FFD952"/>
<path d="M162.378 406.242C162.378 406.242 88.0917 425.628 80.3877 406.836C76.2477 396.72 86.9757 371.862 101.682 347.94L101.916 347.562L102.222 347.076C102.312 346.914 102.42 346.752 102.528 346.59C107.839 338.029 113.582 329.744 119.736 321.768L120.366 320.958C126.564 312.657 133.67 305.074 141.552 298.35C166.752 278.442 157.284 309.798 156.51 312.318C156.276 313.11 155.97 313.992 155.61 314.946C155.466 315.306 155.322 315.702 155.16 316.098C153.09 321.39 149.76 328.518 146.394 335.07L145.998 335.862C145.998 335.862 145.998 336.042 145.872 336.114L145.656 336.528C141.39 344.934 137.52 352.062 137.286 352.494L150.426 346.914L162.378 406.242Z" fill="#FFD952"/>
<path d="M146.394 335.07L145.998 335.862C145.998 335.862 145.998 336.042 145.872 336.114L144.972 336.69L137.646 341.46C133.347 344.292 128.854 346.818 124.2 349.02C121.845 350.107 119.375 350.928 116.838 351.468C114.27 352.067 111.59 351.986 109.062 351.234C108.432 351.054 107.784 350.91 107.262 350.712L105.462 349.938C104.266 349.428 103.111 348.826 102.006 348.138L101.736 347.976L101.97 347.598L102.276 347.112C102.357 347.19 102.448 347.256 102.546 347.31L102.798 347.454C103.769 348.094 104.792 348.648 105.858 349.11L107.658 349.866L109.458 350.388C111.853 351.118 114.397 351.211 116.838 350.658C119.317 350.143 121.731 349.359 124.038 348.318C128.66 346.167 133.129 343.702 137.412 340.938L143.262 337.194L144.792 336.204L146.394 335.07ZM144.594 336.168C135.36 338.418 126.306 341.28 117.09 343.53C112.266 344.736 107.37 345.798 102.456 346.59C102.348 346.752 102.24 346.914 102.15 347.076L101.844 347.562L102.672 347.418C107.586 346.59 112.464 345.492 117.288 344.268C125.946 342.09 134.442 339.39 143.064 337.158L144.864 336.69C145.08 336.69 145.314 336.564 145.548 336.528L145.764 336.114C145.764 336.114 145.764 335.952 145.89 335.862L144.594 336.168ZM145.188 321.21C142.948 322.418 140.605 323.424 138.186 324.216C135.815 325.025 133.304 325.343 130.806 325.152C127.016 324.619 123.41 323.181 120.294 320.958L119.664 321.768C122.942 324.07 126.727 325.546 130.698 326.07C133.329 326.261 135.97 325.905 138.456 325.026C140.949 324.217 143.359 323.174 145.656 321.912C148.927 320.138 152.105 318.197 155.178 316.098C155.34 315.702 155.484 315.306 155.628 314.946C152.284 317.213 148.823 319.304 145.26 321.21H145.188Z" fill="white"/>
<path d="M149.148 346.968C140.616 349.956 118.26 361.116 113.346 365.688C113.325 365.715 113.313 365.749 113.313 365.784C113.312 365.818 113.323 365.852 113.343 365.88C113.363 365.909 113.391 365.93 113.424 365.94C113.457 365.951 113.493 365.951 113.526 365.94C118.35 362.538 145.926 349.02 150.3 347.364C150.3 347.364 150.516 347.886 150.606 348.03C150.696 348.174 150.858 348.12 150.858 347.922C150.781 347.435 150.673 346.954 150.534 346.482L149.148 346.968Z" fill="#2E2E2E"/>
<path d="M142.794 380.16C141.984 376.02 138.888 359.424 138.438 355.248C138.438 355.248 138.438 355.158 138.546 355.248C139.77 359.136 143.298 375.426 144.126 379.566C145.958 387.8 147.334 396.129 148.248 404.514C148.248 404.658 148.032 404.748 147.978 404.514C145.8 396.558 144.378 388.314 142.794 380.16Z" fill="#2E2E2E"/>
<path d="M136.692 352.8C139.014 347.742 141.858 342.936 144.414 338.004C146.97 333.072 149.616 328.176 151.992 323.19H152.1C150.66 326.592 149.22 329.994 147.672 333.342C148.14 332.82 148.572 332.262 149.004 331.704C149.796 330.696 150.516 329.634 151.236 328.572C151.236 328.572 151.362 328.572 151.344 328.572C150.784 329.763 150.089 330.886 149.274 331.92C148.672 332.696 148.01 333.424 147.294 334.098C146.664 335.466 145.998 336.834 145.314 338.184C143.098 343.209 140.505 348.059 137.556 352.692C137.448 353.034 136.602 353.034 136.692 352.8Z" fill="#2E2E2E"/>
<path d="M112.032 414.612C120.798 414.504 153.9 408.006 162.09 406.314C161.982 405.45 162.09 405.144 161.874 403.92C161.874 403.758 162.108 403.686 162.144 403.92C162.36 405.09 163.152 407.412 162.828 407.52C158.886 409.068 120.636 415.746 112.032 415.026C112.005 415.026 111.978 415.021 111.953 415.01C111.928 415 111.905 414.985 111.886 414.966C111.867 414.946 111.851 414.924 111.841 414.898C111.831 414.873 111.825 414.846 111.825 414.819C111.825 414.792 111.831 414.765 111.841 414.74C111.851 414.715 111.867 414.692 111.886 414.673C111.905 414.654 111.928 414.638 111.953 414.628C111.978 414.618 112.005 414.612 112.032 414.612Z" fill="#2E2E2E"/>
<path d="M201.168 408.618L262.8 416.916L286.182 331.254L224.55 322.974L201.168 408.618Z" fill="#2E2E2E"/>
<path d="M204.21 409.014L265.824 417.312L289.206 331.668L227.592 323.37L204.21 409.014Z" fill="#2E2E2E"/>
<path d="M255.312 367.614C254.927 369.214 253.969 370.618 252.619 371.56C251.269 372.502 249.621 372.917 247.986 372.726C247.215 372.645 246.47 372.398 245.803 372.003C245.136 371.607 244.561 371.073 244.119 370.436C243.676 369.799 243.376 369.074 243.239 368.311C243.102 367.547 243.131 366.763 243.324 366.012C243.709 364.41 244.666 363.005 246.016 362.06C247.365 361.115 249.013 360.696 250.65 360.882C251.423 360.963 252.17 361.21 252.839 361.607C253.508 362.003 254.083 362.539 254.526 363.178C254.969 363.817 255.268 364.545 255.404 365.31C255.539 366.076 255.508 366.862 255.312 367.614Z" fill="white"/>
<path d="M288.594 349.326C291.168 356.526 298.512 365.904 298.62 371.592C298.693 372.993 298.314 374.381 297.54 375.55C296.765 376.72 295.636 377.61 294.318 378.09C294.318 378.09 299.718 381.456 298.872 386.622C298.494 389.286 293.886 391.014 293.886 391.014C295.051 391.839 295.965 392.97 296.527 394.282C297.089 395.594 297.278 397.036 297.072 398.448C296.316 402.048 291.816 403.254 291.816 403.254C291.816 403.254 294.516 407.88 292.554 411.336C288.558 418.338 256.86 415.116 253.152 402.93C251.352 397.26 259.11 398.466 259.11 398.466C259.11 398.466 248.454 394.056 248.958 387.504C249.462 380.952 259.362 383.112 259.362 383.112C259.362 383.112 249.084 378.756 250.362 372.006C251.64 365.256 261.162 368.856 261.162 368.856C261.162 368.856 254.592 363.456 256.698 358.416C260.172 350.226 272.448 362.214 279.576 361.26L284.598 350.154L288.594 349.326Z" fill="#AD6359"/>
<path d="M293.94 360C292.14 352.962 301.356 345.438 300.564 338.4C299.502 328.95 288.18 336.96 284.508 350.136L283.446 360.936L293.94 360Z" fill="#AD6359"/>
<path d="M291.15 403.542C291.174 403.542 291.197 403.552 291.213 403.569C291.23 403.585 291.24 403.608 291.24 403.632C291.24 403.656 291.23 403.679 291.213 403.696C291.197 403.713 291.174 403.722 291.15 403.722C280.065 405.281 268.768 403.442 258.75 398.448C258.426 398.286 258.57 397.692 258.948 397.818C269.347 401.279 280.195 403.207 291.15 403.542Z" fill="#2E2E2E"/>
<path d="M294.03 391.086C294.156 391.086 294.156 391.302 294.03 391.32C281.771 392.947 269.335 390.138 258.966 383.4C258.606 383.148 258.534 382.572 258.966 382.824C266.22 387 283.734 390.924 294.03 391.086Z" fill="#2E2E2E"/>
<path d="M260.479 368.1C270.685 374.598 281.935 377.1 293.869 378.162C294.013 378.162 293.995 378.396 293.869 378.414C287.893 379.53 280.351 378.108 274.591 376.506C269.197 375.126 264.262 372.351 260.281 368.46C260.101 368.298 260.263 367.956 260.479 368.1Z" fill="#2E2E2E"/>
<path d="M184.086 297.648C184.302 303.048 184.464 315.306 176.148 314.388C172.805 313.724 169.724 312.112 167.274 309.744C164.65 307.566 162.278 305.103 160.2 302.4C157.816 299.463 155.673 296.339 153.792 293.058C153.792 292.932 153.504 293.058 153.594 293.202C155.502 296.496 157.086 299.898 159.318 303.012C161.425 306.03 163.932 308.749 166.77 311.094C169.435 313.57 172.797 315.166 176.4 315.666C177.945 315.775 179.48 315.345 180.744 314.449C182.007 313.553 182.921 312.246 183.33 310.752C184.559 306.496 184.817 302.018 184.086 297.648Z" fill="#2E2E2E"/>
<path d="M175.896 308.97C169.884 309.492 160.056 298.17 157.176 290.484C157.931 286.479 158.886 282.514 160.038 278.604C160.956 274.806 161.838 270.54 162.486 266.598L186.354 276.228C184.223 280.961 182.676 285.936 181.746 291.042C181.693 291.587 181.693 292.135 181.746 292.68C181.746 292.68 181.746 292.86 181.746 292.95C181.8 296.1 181.692 308.466 175.896 308.97Z" fill="#AD6359"/>
<path d="M181.674 292.68C181.683 292.77 181.683 292.86 181.674 292.95C180.817 292.945 179.963 292.872 179.118 292.734C164.826 290.304 164.016 272.286 164.088 267.264L170.064 269.658L186.264 276.228C184.134 280.96 182.592 285.935 181.674 291.042C181.621 291.587 181.621 292.135 181.674 292.68Z" fill="#2E2E2E"/>
<path d="M159.75 239.598C157.266 248.598 162.594 274.032 169.038 279.576C178.398 287.64 193.374 288.054 200.142 276.876C206.694 266.076 199.17 232.938 191.988 227.934C181.422 220.536 163.404 226.386 159.75 239.598Z" fill="#AD6359"/>
<path d="M184.896 255.69C184.896 255.69 184.788 255.798 184.896 255.87C185.292 257.58 185.472 259.614 184.032 260.496C184.032 260.496 184.032 260.604 184.032 260.586C185.814 259.938 185.562 257.256 184.896 255.69Z" fill="#2E2E2E"/>
<path d="M183.006 254.214C180.198 254.574 181.206 260.154 183.708 259.83C186.21 259.506 185.4 253.926 183.006 254.214Z" fill="#2E2E2E"/>
<path d="M194.67 253.8C194.67 253.8 194.832 253.8 194.832 253.944C195.066 255.744 195.624 257.634 197.28 257.958V258.048C195.318 258.048 194.616 255.456 194.67 253.8Z" fill="#2E2E2E"/>
<path d="M195.93 251.712C198.684 251.046 199.818 256.59 197.262 257.112C194.706 257.634 193.626 252.27 195.93 251.712Z" fill="#2E2E2E"/>
<path d="M180.378 252C181.081 251.674 181.76 251.302 182.412 250.884C183.167 250.591 183.802 250.052 184.212 249.354C184.305 249.105 184.313 248.833 184.235 248.579C184.157 248.325 183.997 248.104 183.78 247.95C183.309 247.709 182.781 247.599 182.253 247.631C181.724 247.662 181.214 247.835 180.774 248.13C179.798 248.592 179.028 249.4 178.614 250.398C178.522 250.639 178.504 250.901 178.564 251.152C178.623 251.403 178.757 251.63 178.948 251.803C179.139 251.976 179.378 252.088 179.633 252.123C179.888 252.158 180.148 252.115 180.378 252Z" fill="#2E2E2E"/>
<path d="M197.73 250.002C196.938 250.002 196.2 249.858 195.408 249.786C194.582 249.824 193.766 249.59 193.086 249.12C192.905 248.927 192.792 248.681 192.762 248.418C192.733 248.155 192.79 247.89 192.924 247.662C193.261 247.255 193.701 246.946 194.198 246.765C194.694 246.585 195.23 246.54 195.75 246.636C196.835 246.665 197.87 247.102 198.648 247.86C198.814 248.042 198.925 248.267 198.966 248.51C199.008 248.752 198.978 249.002 198.881 249.228C198.784 249.454 198.624 249.647 198.42 249.785C198.216 249.922 197.976 249.998 197.73 250.002Z" fill="#2E2E2E"/>
<path d="M185.148 271.89C185.588 272.332 186.166 272.611 186.786 272.682C187.432 272.558 188.045 272.301 188.586 271.926C188.586 271.926 188.712 271.926 188.586 272.016C188.39 272.396 188.097 272.716 187.736 272.944C187.375 273.171 186.96 273.299 186.534 273.312C186.168 273.273 185.821 273.128 185.537 272.894C185.252 272.661 185.042 272.35 184.932 271.998C184.968 271.908 185.094 271.8 185.148 271.89Z" fill="#2E2E2E"/>
<path d="M186.12 266.004C186.675 266.616 187.349 267.108 188.102 267.448C188.854 267.789 189.669 267.971 190.494 267.984C191.217 267.998 191.937 267.913 192.636 267.732L193.032 267.624L193.392 267.498C193.484 267.466 193.562 267.405 193.614 267.323C193.667 267.241 193.69 267.145 193.68 267.048C193.691 266.989 193.691 266.928 193.68 266.868V266.724C193.5 265.374 193.032 263.376 193.032 263.376C193.554 263.538 196.236 264.258 196.074 263.556C194.941 257.574 193.198 251.723 190.872 246.096C190.861 246.064 190.841 246.037 190.813 246.017C190.786 245.998 190.753 245.987 190.719 245.987C190.686 245.987 190.653 245.998 190.626 246.017C190.598 246.037 190.578 246.064 190.566 246.096C191.574 251.64 193.572 256.896 194.688 262.494C193.734 262.227 192.746 262.1 191.754 262.116C191.574 262.116 192.726 265.968 192.744 266.58C191.671 266.867 190.55 266.935 189.449 266.78C188.348 266.626 187.29 266.252 186.336 265.68C186.12 265.734 185.994 265.878 186.12 266.004Z" fill="#2E2E2E"/>
<path d="M191.844 267.408C191.269 268.456 190.44 269.341 189.432 269.982C188.887 270.299 188.26 270.444 187.632 270.396C186.21 270.27 185.976 269.028 186.048 267.912C186.086 267.3 186.2 266.696 186.39 266.112C188.026 267.107 189.935 267.56 191.844 267.408Z" fill="#2E2E2E"/>
<path d="M189.432 270C188.887 270.317 188.26 270.461 187.632 270.414C186.21 270.288 185.976 269.046 186.048 267.93C186.761 267.851 187.481 268.012 188.093 268.387C188.706 268.761 189.177 269.329 189.432 270Z" fill="#FF9ABB"/>
<path d="M196.884 235.368C195.444 233.37 193.86 231.372 192.42 231.21C190.98 231.048 190.818 234.504 187.83 235.368C183.78 236.52 180.99 233.19 175.23 234.018C166.86 235.224 164.718 242.892 167.04 254.61C169.11 265.086 163.026 267.426 163.026 267.426C163.026 267.426 154.242 245.232 159.084 236.214C163.926 227.196 178.092 220.626 189.684 225.756C193.806 227.61 196.884 235.368 196.884 235.368Z" fill="#2E2E2E"/>
<path d="M167.256 261.612C167.256 261.612 161.082 253.602 157.428 255.834C153.774 258.066 158.652 269.874 163.152 271.314C163.713 271.54 164.314 271.65 164.919 271.636C165.524 271.622 166.119 271.486 166.67 271.235C167.22 270.984 167.714 270.624 168.121 270.177C168.528 269.729 168.84 269.204 169.038 268.632L167.256 261.612Z" fill="#AD6359"/>
<path d="M158.904 259.2C158.904 259.2 158.904 259.2 158.904 259.326C160.352 259.97 161.65 260.909 162.713 262.084C163.776 263.259 164.582 264.643 165.078 266.148C164.884 265.846 164.626 265.591 164.323 265.398C164.02 265.206 163.678 265.081 163.322 265.033C162.967 264.985 162.605 265.015 162.261 265.121C161.918 265.226 161.602 265.405 161.334 265.644C161.334 265.644 161.334 265.824 161.424 265.806C161.961 265.605 162.547 265.574 163.101 265.719C163.655 265.864 164.151 266.178 164.52 266.616C165.116 267.363 165.641 268.165 166.086 269.01C166.23 269.28 166.734 269.118 166.608 268.794C166.482 264.762 163.17 259.38 158.904 259.2Z" fill="#2E2E2E"/>
<path d="M181.278 222.588C177.767 221.587 174.13 221.096 170.478 221.13C166.356 221.256 153.81 224.226 151.164 227.25C148.518 230.274 149.598 242.37 149.796 244.134C149.994 245.898 152.424 256.356 156.672 258.318C160.92 260.28 158.472 242.226 163.566 235.314C168.66 228.402 181.278 222.588 181.278 222.588Z" fill="#FFD952"/>
<path opacity="0.1" d="M181.278 222.606C181.278 222.606 168.678 228.402 163.476 235.314C158.274 242.226 160.812 260.262 156.6 258.318C155.618 257.777 154.753 257.046 154.055 256.169C153.357 255.292 152.839 254.285 152.532 253.206C152.532 247.806 153.342 239.346 156.834 233.01C160.11 227.088 166.752 223.29 174.168 221.256C176.573 221.499 178.952 221.951 181.278 222.606Z" fill="#2E2E2E"/>
<path d="M159.3 268.83C158.886 263.988 161.748 250.38 165.708 242.226C169.668 234.072 184.014 227.43 186.12 227.214C191.268 226.71 192.78 229.014 193.518 228.384C194.256 227.754 188.244 222.804 186.66 222.174C184.298 221.413 181.794 221.191 179.334 221.526C177.12 221.922 163.674 225.432 159.624 232.038C155.574 238.644 151.2 256.086 153 260.064C153.468 261.018 154.8 261.45 155.538 262.818C156.402 264.618 157.122 266.688 157.896 267.912C158.67 269.136 159.336 269.244 159.3 268.83Z" fill="#FFD952"/>
<path d="M166.356 238.752C165.108 238.213 163.904 237.575 162.756 236.844C161.55 236.119 160.438 235.249 159.444 234.252C159.444 234.252 159.246 234.252 159.318 234.36C160.191 235.515 161.242 236.524 162.432 237.348C163.628 238.148 164.966 238.71 166.374 239.004C166.408 239.002 166.439 238.986 166.461 238.961C166.483 238.935 166.494 238.902 166.491 238.869C166.489 238.836 166.474 238.804 166.448 238.782C166.423 238.761 166.39 238.75 166.356 238.752Z" fill="#2E2E2E"/>
<path d="M158.508 264.042C158.31 263.718 158.04 263.448 157.824 263.142C157.569 262.797 157.357 262.423 157.194 262.026C156.971 261.251 156.663 260.502 156.276 259.794C155.876 259.269 155.417 258.792 154.908 258.372C154.297 257.931 153.853 257.297 153.648 256.572H153.504C153.72 258.03 154.854 258.912 155.682 260.028C156.103 260.792 156.452 261.594 156.726 262.422C157.045 263.178 157.601 263.81 158.31 264.222C158.4 264.276 158.562 264.168 158.508 264.042Z" fill="#2E2E2E"/>
<path d="M159.336 258.606C158.796 258.138 158.238 257.724 157.734 257.202C157.23 256.68 156.834 256.122 156.42 255.564C156.006 255.006 155.682 254.412 155.286 253.764C154.89 253.116 154.296 252.486 153.864 251.784C153.864 251.784 153.684 251.784 153.738 251.892C154.188 252.594 154.494 253.404 154.908 254.124C155.279 254.749 155.687 255.35 156.132 255.924C156.552 256.482 157.022 257 157.536 257.472C158.05 257.967 158.664 258.347 159.336 258.588C159.336 258.588 159.372 258.642 159.336 258.606Z" fill="#2E2E2E"/>
<path d="M160.344 253.656C159.203 252.968 158.172 252.112 157.284 251.118C156.42 250.146 155.592 249.12 154.8 248.094C154.8 248.094 154.62 248.094 154.674 248.094C155.263 249.313 156.007 250.451 156.888 251.478C157.316 251.982 157.806 252.429 158.346 252.81C158.931 253.199 159.552 253.53 160.2 253.8C160.2 253.8 160.434 253.8 160.344 253.656Z" fill="#2E2E2E"/>
<path d="M161.532 248.868C160.98 248.605 160.485 248.239 160.074 247.788C159.57 247.32 159.084 246.834 158.616 246.33C158.148 245.844 157.68 245.394 157.23 244.908C156.743 244.453 156.357 243.901 156.096 243.288C156.096 243.288 155.934 243.288 155.952 243.288C156.093 243.945 156.382 244.56 156.798 245.088C157.199 245.728 157.657 246.33 158.166 246.888C158.669 247.407 159.204 247.894 159.768 248.346C160.244 248.781 160.839 249.063 161.478 249.156C161.497 249.16 161.516 249.159 161.535 249.155C161.554 249.151 161.571 249.144 161.587 249.133C161.603 249.122 161.617 249.108 161.627 249.092C161.638 249.076 161.645 249.058 161.649 249.039C161.652 249.02 161.652 249.001 161.648 248.982C161.644 248.963 161.636 248.945 161.626 248.929C161.615 248.913 161.601 248.9 161.585 248.889C161.569 248.879 161.55 248.872 161.532 248.868Z" fill="#2E2E2E"/>
<path d="M162 243C161.472 242.64 160.968 242.262 160.488 241.866C160.02 241.452 159.552 241.038 159.102 240.606C158.652 240.174 158.13 239.706 157.68 239.22C157.68 239.22 157.5 239.22 157.554 239.31C157.897 239.877 158.288 240.413 158.724 240.912C159.154 241.399 159.617 241.857 160.11 242.28C160.598 242.706 161.116 243.097 161.658 243.45C162.191 243.857 162.805 244.146 163.458 244.296C163.473 244.286 163.485 244.273 163.494 244.257C163.502 244.242 163.506 244.224 163.506 244.206C163.506 244.188 163.502 244.171 163.494 244.155C163.485 244.139 163.473 244.126 163.458 244.116C163.008 243.7 162.519 243.326 162 243Z" fill="#2E2E2E"/>
<path d="M169.614 235.44C169.038 234.936 168.48 234.432 167.814 233.964C167.148 233.496 166.536 233.082 165.852 232.686C164.56 231.893 163.183 231.247 161.748 230.76C161.748 230.76 161.586 230.85 161.748 230.904C164.304 232.488 166.95 233.964 169.506 235.584C169.525 235.599 169.549 235.605 169.573 235.601C169.596 235.598 169.617 235.585 169.632 235.566C169.646 235.547 169.652 235.523 169.649 235.5C169.645 235.476 169.633 235.455 169.614 235.44Z" fill="#2E2E2E"/>
<path d="M171.864 230.886C171.308 230.401 170.705 229.973 170.064 229.608C168.644 228.893 167.146 228.343 165.6 227.97C165.492 227.97 165.438 228.078 165.6 228.114C166.986 228.744 168.372 229.356 169.704 230.058C170.352 230.418 171.018 230.778 171.63 231.192C172.242 231.606 172.764 232.164 173.43 232.614C173.032 231.937 172.499 231.349 171.864 230.886Z" fill="#2E2E2E"/>
<path d="M175.554 228.384C175.003 227.888 174.399 227.454 173.754 227.088C172.576 226.373 171.286 225.862 169.938 225.576C169.938 225.576 169.812 225.702 169.938 225.738C171.19 226.228 172.395 226.83 173.538 227.538C174.114 227.898 174.69 228.294 175.338 228.69C175.986 229.086 176.436 229.59 177.03 229.914C176.588 229.358 176.093 228.846 175.554 228.384Z" fill="#2E2E2E"/>
<path d="M178.056 225.54C177.498 225.216 176.904 224.91 176.256 224.622C175.693 224.306 175.087 224.076 174.456 223.938V224.1L177.732 226.026C178.697 226.694 179.589 227.46 180.396 228.312C180.396 228.312 180.504 228.312 180.396 228.312C179.914 227.173 179.098 226.206 178.056 225.54Z" fill="#2E2E2E"/>
<path d="M181.53 224.208C180.465 223.493 179.274 222.986 178.02 222.714C177.93 222.714 177.894 222.84 178.02 222.876C179.193 223.304 180.292 223.911 181.278 224.676C182.278 225.402 183.195 226.235 184.014 227.16C184.014 227.16 184.14 227.16 184.104 227.16C183.499 225.981 182.616 224.968 181.53 224.208Z" fill="#2E2E2E"/>
<path d="M189.504 225.414C189.173 225.083 188.825 224.771 188.46 224.478C188.095 224.188 187.71 223.923 187.308 223.686C186.894 223.434 186.48 223.2 186.084 222.93C186.084 222.93 185.904 223.02 186.084 223.074C186.505 223.319 186.903 223.602 187.272 223.92L188.316 224.784L189.378 225.648C189.711 225.972 190.066 226.272 190.44 226.548C190.172 226.136 189.858 225.755 189.504 225.414Z" fill="#2E2E2E"/>
<path d="M299.574 191.358C298.824 198.571 296.084 205.433 291.66 211.179C287.235 216.924 281.3 221.326 274.519 223.894C267.737 226.461 260.375 227.093 253.255 225.718C246.134 224.343 239.537 221.016 234.198 216.108L214.614 218.988L224.406 202.068C222.163 196.563 221.203 190.62 221.599 184.688C221.996 178.757 223.739 172.994 226.695 167.837C229.652 162.679 233.744 158.264 238.662 154.924C243.58 151.585 249.195 149.41 255.079 148.565C260.963 147.719 266.962 148.226 272.622 150.045C278.281 151.865 283.451 154.95 287.74 159.066C292.029 163.182 295.324 168.221 297.374 173.801C299.425 179.381 300.177 185.354 299.574 191.268V191.358Z" fill="white"/>
<path d="M299.574 191.358C298.811 198.559 296.077 205.411 291.672 211.158C289.518 214.062 286.932 216.617 284.004 218.736C281.121 220.93 277.938 222.7 274.554 223.992C271.177 225.314 267.633 226.162 264.024 226.512C262.228 226.664 260.424 226.7 258.624 226.62C256.812 226.562 255.007 226.369 253.224 226.044C246.01 224.721 239.309 221.411 233.874 216.486L234.324 216.63L214.722 219.6L213.3 219.816L214.02 218.574L223.758 201.6V202.284C221.455 196.677 220.47 190.616 220.878 184.568C221.287 178.52 223.079 172.646 226.116 167.4C229.166 162.182 233.357 157.721 238.374 154.35C244.619 150.235 251.901 147.972 259.378 147.824C266.856 147.676 274.222 149.648 280.625 153.513C287.028 157.377 292.206 162.976 295.56 169.66C298.913 176.345 300.305 183.843 299.574 191.286V191.358ZM299.574 191.358C300.199 185.465 299.463 179.508 297.423 173.944C295.382 168.381 292.092 163.36 287.806 159.268C283.519 155.177 278.351 152.123 272.699 150.344C267.046 148.564 261.061 148.106 255.204 149.004C249.388 149.873 243.847 152.059 239.004 155.394C234.219 158.756 230.221 163.116 227.286 168.174C224.408 173.245 222.71 178.899 222.318 184.716C221.964 190.538 222.904 196.365 225.072 201.78L225.216 202.122L225.036 202.446L215.172 219.33L214.488 218.304L234.072 215.55H234.342L234.54 215.73C239.767 220.626 246.256 223.968 253.278 225.378C255.057 225.743 256.863 225.959 258.678 226.026C260.476 226.155 262.28 226.155 264.078 226.026C267.654 225.748 271.174 224.973 274.536 223.722C277.915 222.501 281.094 220.784 283.968 218.628C285.42 217.572 286.803 216.424 288.108 215.19C289.388 213.914 290.591 212.562 291.708 211.14C296.098 205.395 298.82 198.55 299.574 191.358Z" fill="#2E2E2E"/>
<path d="M256.068 209.61L239.364 192.69L244.98 187.146L254.736 197.028L275.022 165.222L281.682 169.47L256.068 209.61Z" fill="#664EFE"/>
</svg>
