<svg width="23" height="23" viewBox="0 0 23 23" fill="none" xmlns="http://www.w3.org/2000/svg">
<path d="M11.8805 0.816406C5.8003 0.816406 0.863281 5.75487 0.863281 11.835C0.863281 17.915 5.80034 22.8535 11.8803 22.8535C17.9603 22.8535 22.8989 17.915 22.8989 11.835C22.8989 5.75487 17.9604 0.816406 11.8805 0.816406ZM17.2431 3.22316C20.114 5.01331 22.023 8.19847 22.023 11.835C22.023 12.6386 21.9296 13.4205 21.7535 14.1699L20.148 13.3233L21.1792 15.8955C20.7361 16.9102 20.131 17.8377 19.398 18.6465L17.375 17.1964L14.3457 19.4332L11.4555 19.7598L10.8037 17.8014L8.47306 19.0597L5.2812 18.172L5.71044 19.8873C4.37872 18.8658 3.30903 17.5217 2.61669 15.9703L3.80764 14.2725L5.31936 15.0752L8.0953 14.6123L8.22856 12.6948L6.47806 12.6142L6.70798 11.7778L8.1508 10.5912L6.97456 9.85883L10.1255 8.04978L7.99995 6.65961L4.87691 8.54338L2.55955 7.82712C3.20698 6.32056 4.21002 5.00431 5.46139 3.98038L5.28561 6.06045L7.31886 4.46089L10.6939 5.50245L9.63917 4.21775L10.9209 3.54247L12.1778 4.87691L15.5059 5.33839L15.3418 3.72261L17.2857 4.31591L17.2432 3.22316H17.2431ZM17.2973 8.84956L13.0303 9.35066L14.3853 11.3765L14.5332 14.3984L15.9014 15.0474L16.4375 13.7173L19.3745 15.998L18.5512 13.7817L18.8516 11.5156L16.8008 10.4506L17.2974 8.84961L17.2973 8.84956ZM10.3584 9.02103L8.87745 10.0142L10.587 10.707L11.3691 10.0142L10.3584 9.02103ZM11.3985 15.8033L12.2744 18.2686L13.2016 16.2734L11.3985 15.8033Z" fill="#2E2E2E"/>
</svg>
