<svg width="53" height="50" viewBox="0 0 53 50" fill="none" xmlns="http://www.w3.org/2000/svg">
<path d="M8.59392 16.9527C8.59392 17.4214 8.50277 17.8642 8.32047 18.2808C8.1512 18.6975 7.91031 19.0621 7.5978 19.3746C7.2853 19.6871 6.92071 19.9345 6.50403 20.1168C6.08736 20.2991 5.63813 20.3902 5.15635 20.3902C4.67457 20.3902 4.21883 20.2991 3.78914 20.1168C3.37246 19.9345 3.00787 19.6871 2.69536 19.3746C2.38286 19.0621 2.13546 18.6975 1.95316 18.2808C1.77087 17.8642 1.67972 17.4214 1.67972 16.9527C1.67972 16.4709 1.77087 16.0217 1.95316 15.605C2.13546 15.1753 2.38286 14.8042 2.69536 14.4917C3.00787 14.1792 3.37246 13.9318 3.78914 13.7495C4.21883 13.5672 4.67457 13.476 5.15635 13.476C5.63813 13.476 6.08736 13.5672 6.50403 13.7495C6.92071 13.9318 7.2853 14.1792 7.5978 14.4917C7.91031 14.8042 8.1512 15.1753 8.32047 15.605C8.50277 16.0217 8.59392 16.4709 8.59392 16.9527ZM7.92984 22.3629L6.44544 41.1524L2.67583 40.7617L2.44145 22.07L7.92984 22.3629ZM20.9965 40.6055C19.8767 40.6055 18.7569 40.4622 17.6371 40.1758C16.5303 39.8893 15.5146 39.4531 14.5901 38.8672C13.6656 38.2682 12.8844 37.5195 12.2463 36.621C11.6213 35.7096 11.2372 34.6353 11.094 33.3983L16.5628 33.5546C16.5368 33.6327 16.5238 33.7173 16.5238 33.8085C16.5238 33.8866 16.5238 33.9647 16.5238 34.0429C16.5238 34.8111 16.6344 35.5012 16.8558 36.1132C17.0902 36.7252 17.4222 37.246 17.8519 37.6757C18.2816 38.0924 18.7959 38.4114 19.3949 38.6328C19.9939 38.8541 20.6645 38.9648 21.4067 38.9648C21.8494 38.9648 22.2791 38.9192 22.6958 38.8281C23.1254 38.737 23.5031 38.5872 23.8286 38.3789C24.1671 38.1575 24.4406 37.8711 24.6489 37.5195C24.8573 37.1679 24.9614 36.7252 24.9614 36.1913C24.9614 35.5924 24.7726 35.078 24.395 34.6483C24.0174 34.2186 23.5551 33.8606 23.0083 33.5741C22.4744 33.2746 21.908 33.0337 21.309 32.8514C20.7231 32.6561 20.2087 32.5064 19.766 32.4022C19.3103 32.285 18.7829 32.1548 18.1839 32.0116C17.598 31.8553 16.9925 31.6795 16.3675 31.4842C15.7425 31.2759 15.1305 31.035 14.5315 30.7615C13.9326 30.4881 13.3987 30.1626 12.9299 29.785C12.4612 29.4073 12.0836 28.9777 11.7971 28.4959C11.5106 28.0011 11.3674 27.4347 11.3674 26.7966C11.3674 26.0805 11.5041 25.4294 11.7776 24.8435C12.051 24.2575 12.4156 23.7367 12.8713 23.2809C13.3401 22.8252 13.874 22.4346 14.4729 22.109C15.0849 21.7705 15.7165 21.497 16.3675 21.2887C17.0186 21.0673 17.6761 20.9046 18.3402 20.8004C19.0043 20.6962 19.6293 20.6442 20.2152 20.6442C21.2048 20.6442 22.2075 20.7613 23.2231 20.9957C24.2518 21.2171 25.1828 21.5817 26.0161 22.0895C26.8625 22.5973 27.5656 23.2549 28.1255 24.0622C28.6985 24.8695 29.0305 25.8461 29.1217 26.9919L23.8091 27.4021V27.2068C23.8221 26.4385 23.7309 25.7419 23.5356 25.1169C23.3533 24.4919 23.0669 23.958 22.6762 23.5153C22.2986 23.0726 21.8168 22.734 21.2309 22.4997C20.658 22.2523 19.9809 22.1286 19.1996 22.1286C18.848 22.1286 18.4639 22.1806 18.0472 22.2848C17.6306 22.389 17.2399 22.5517 16.8753 22.7731C16.5238 22.9814 16.2243 23.2484 15.9769 23.5739C15.7295 23.8994 15.6058 24.2835 15.6058 24.7263C15.6058 25.4034 15.8141 25.9502 16.2308 26.3669C16.6605 26.7706 17.1813 27.0961 17.7933 27.3435C18.4053 27.5779 19.0433 27.7602 19.7074 27.8904C20.3715 28.0076 20.9509 28.1248 21.4457 28.242C21.9796 28.3591 22.546 28.5089 23.145 28.6912C23.757 28.8605 24.3559 29.0753 24.9419 29.3357C25.5409 29.5831 26.1073 29.8826 26.6411 30.2342C27.188 30.5727 27.6698 30.9699 28.0865 31.4256C28.5032 31.8683 28.8352 32.3762 29.0826 32.9491C29.33 33.509 29.4537 34.1405 29.4537 34.8436C29.4537 35.8984 29.1803 36.7968 28.6334 37.539C28.0865 38.2682 27.3899 38.8607 26.5435 39.3164C25.7101 39.7721 24.7987 40.0977 23.8091 40.293C22.8195 40.5013 21.8819 40.6055 20.9965 40.6055ZM43.0672 34.5116C42.0386 34.5116 41.0164 34.3814 40.0008 34.121C38.9982 33.8475 38.0867 33.4178 37.2664 32.8319C37.2794 33.3397 37.3119 33.8606 37.364 34.3944C37.4161 34.9283 37.5007 35.4491 37.6179 35.957C37.7481 36.4518 37.9109 36.9205 38.1062 37.3632C38.3145 37.8059 38.575 38.1966 38.8875 38.5351C39.213 38.8607 39.5971 39.1211 40.0398 39.3164C40.4956 39.5117 41.036 39.6094 41.661 39.6094C42.2469 39.6094 42.7938 39.5052 43.3016 39.2969C43.8094 39.0755 44.2522 38.7825 44.6298 38.4179C45.0204 38.0533 45.3394 37.6237 45.5868 37.1289C45.8342 36.634 46.0035 36.1002 46.0946 35.5273L50.8994 36.6015C50.5218 37.4088 49.988 38.0924 49.2978 38.6523C48.6207 39.2122 47.8655 39.6615 47.0322 40C46.1988 40.3516 45.3264 40.6055 44.4149 40.7617C43.5165 40.918 42.6506 40.9961 41.8172 40.9961C40.3198 40.9961 38.9851 40.7748 37.8132 40.332C36.6413 39.8893 35.6517 39.2513 34.8444 38.4179C34.0501 37.5846 33.4382 36.5755 33.0085 35.3905C32.5918 34.1926 32.3834 32.8514 32.3834 31.367C32.3834 29.9217 32.6308 28.561 33.1256 27.2849C33.6204 25.9958 34.3106 24.876 35.196 23.9255C36.0814 22.9749 37.1427 22.2262 38.3797 21.6793C39.6297 21.1194 41.0034 20.8395 42.5008 20.8395C43.5946 20.8395 44.6819 20.9762 45.7626 21.2496C46.8434 21.5101 47.8134 21.9267 48.6728 22.4997C49.5322 23.0596 50.2223 23.7822 50.7432 24.6677C51.277 25.5531 51.544 26.6208 51.544 27.8709C51.544 29.0948 51.2966 30.13 50.8018 30.9764C50.32 31.8097 49.682 32.4933 48.8877 33.0272C48.0934 33.5481 47.1884 33.9257 46.1728 34.16C45.1571 34.3944 44.122 34.5116 43.0672 34.5116ZM42.2274 22.2848C41.6284 22.2848 41.0946 22.4085 40.6258 22.6559C40.1701 22.8903 39.7599 23.2158 39.3953 23.6325C39.0437 24.0492 38.7442 24.5244 38.4968 25.0583C38.2494 25.5922 38.0411 26.1521 37.8718 26.738C37.7026 27.324 37.5723 27.9164 37.4812 28.5154C37.3901 29.1144 37.3315 29.6743 37.3054 30.1951C37.8002 31.0415 38.4578 31.7381 39.2781 32.285C40.0984 32.8189 41.049 33.0858 42.1297 33.0858C42.8198 33.0858 43.4383 32.9295 43.9852 32.617C44.5321 32.2915 44.9944 31.8748 45.372 31.367C45.7496 30.8592 46.0361 30.2928 46.2314 29.6678C46.4397 29.0428 46.5439 28.4177 46.5439 27.7927C46.5439 27.1677 46.4527 26.5297 46.2704 25.8786C46.0881 25.2146 45.8147 24.6221 45.4501 24.1013C45.0985 23.5674 44.6493 23.1312 44.1024 22.7926C43.5686 22.4541 42.9435 22.2848 42.2274 22.2848Z" fill="#2E2E2E"/>
<path d="M44.0153 18L48.4138 11.6577L44.486 11.3333L43.0002 17.7051L44.0153 18Z" fill="#2E2E2E"/>
<circle cx="18.5003" cy="44.1673" r="1.50003" fill="#2E2E2E"/>
<circle cx="42.834" cy="44.1673" r="1.50003" fill="#2E2E2E"/>
</svg>
