<svg width="64" height="64" viewBox="0 0 64 64" fill="none" xmlns="http://www.w3.org/2000/svg">
<circle cx="32" cy="32" r="32" fill="#EEEBFE"/>
<path d="M20.3307 27.704C20.3307 27.9948 20.2742 28.2694 20.1611 28.5279C20.0561 28.7863 19.9067 29.0125 19.7128 29.2063C19.519 29.4002 19.2928 29.5536 19.0344 29.6667C18.7759 29.7798 18.4973 29.8363 18.1984 29.8363C17.8996 29.8363 17.6169 29.7798 17.3504 29.6667C17.0919 29.5536 16.8657 29.4002 16.6719 29.2063C16.4781 29.0125 16.3246 28.7863 16.2115 28.5279C16.0984 28.2694 16.0419 27.9948 16.0419 27.704C16.0419 27.4052 16.0984 27.1265 16.2115 26.8681C16.3246 26.6016 16.4781 26.3714 16.6719 26.1775C16.8657 25.9837 17.0919 25.8302 17.3504 25.7171C17.6169 25.6041 17.8996 25.5475 18.1984 25.5475C18.4973 25.5475 18.7759 25.6041 19.0344 25.7171C19.2928 25.8302 19.519 25.9837 19.7128 26.1775C19.9067 26.3714 20.0561 26.6016 20.1611 26.8681C20.2742 27.1265 20.3307 27.4052 20.3307 27.704ZM19.9188 31.06L18.998 42.7148L16.6598 42.4725L16.5144 30.8782L19.9188 31.06ZM28.0239 42.3756C27.3293 42.3756 26.6346 42.2867 25.94 42.109C25.2535 41.9313 24.6235 41.6608 24.0501 41.2973C23.4766 40.9258 22.992 40.4614 22.5962 39.9041C22.2086 39.3387 21.9703 38.6724 21.8814 37.9051L25.2737 38.002C25.2576 38.0504 25.2495 38.1029 25.2495 38.1595C25.2495 38.2079 25.2495 38.2564 25.2495 38.3049C25.2495 38.7814 25.3181 39.2095 25.4554 39.5891C25.6008 39.9687 25.8068 40.2918 26.0733 40.5583C26.3398 40.8167 26.6589 41.0146 27.0304 41.1519C27.4019 41.2892 27.8179 41.3579 28.2783 41.3579C28.5529 41.3579 28.8194 41.3296 29.0779 41.2731C29.3444 41.2165 29.5786 41.1237 29.7806 40.9944C29.9906 40.8571 30.1602 40.6794 30.2894 40.4614C30.4186 40.2433 30.4833 39.9687 30.4833 39.6375C30.4833 39.266 30.3661 38.947 30.1319 38.6804C29.8977 38.4139 29.611 38.1918 29.2717 38.0141C28.9406 37.8283 28.5892 37.6789 28.2177 37.5658C27.8542 37.4447 27.5352 37.3518 27.2606 37.2872C26.9779 37.2145 26.6508 37.1337 26.2793 37.0449C25.9158 36.948 25.5402 36.8389 25.1526 36.7178C24.7649 36.5885 24.3853 36.4391 24.0137 36.2695C23.6422 36.0999 23.311 35.898 23.0203 35.6637C22.7295 35.4295 22.4953 35.163 22.3176 34.8641C22.1399 34.5572 22.0511 34.2059 22.0511 33.8101C22.0511 33.3659 22.1359 32.962 22.3055 32.5986C22.4751 32.2351 22.7012 31.9121 22.9839 31.6294C23.2747 31.3467 23.6058 31.1044 23.9774 30.9025C24.357 30.6925 24.7487 30.5228 25.1526 30.3936C25.5564 30.2563 25.9643 30.1554 26.3762 30.0907C26.7881 30.0261 27.1758 29.9938 27.5393 29.9938C28.1531 29.9938 28.775 30.0665 29.405 30.2119C30.0431 30.3492 30.6206 30.5753 31.1375 30.8903C31.6625 31.2053 32.0986 31.6132 32.4459 32.114C32.8013 32.6147 33.0073 33.2205 33.0638 33.9313L29.7685 34.1857V34.0645C29.7765 33.588 29.72 33.1559 29.5988 32.7682C29.4858 32.3805 29.3081 32.0494 29.0658 31.7748C28.8315 31.5001 28.5327 31.2901 28.1692 31.1448C27.8139 30.9913 27.3939 30.9146 26.9093 30.9146C26.6912 30.9146 26.4529 30.9469 26.1945 31.0115C25.936 31.0761 25.6937 31.1771 25.4676 31.3144C25.2495 31.4436 25.0637 31.6092 24.9103 31.8111C24.7568 32.013 24.6801 32.2513 24.6801 32.5259C24.6801 32.9459 24.8093 33.2851 25.0677 33.5436C25.3343 33.794 25.6574 33.9959 26.037 34.1493C26.4166 34.2947 26.8123 34.4078 27.2243 34.4886C27.6362 34.5613 27.9956 34.6339 28.3025 34.7066C28.6337 34.7793 28.985 34.8722 29.3565 34.9853C29.7361 35.0903 30.1077 35.2236 30.4711 35.3851C30.8427 35.5385 31.194 35.7243 31.5252 35.9424C31.8644 36.1524 32.1632 36.3987 32.4217 36.6814C32.6801 36.956 32.8861 37.271 33.0396 37.6264C33.193 37.9737 33.2698 38.3654 33.2698 38.8016C33.2698 39.4558 33.1001 40.0131 32.7609 40.4735C32.4217 40.9258 31.9896 41.2933 31.4646 41.576C30.9477 41.8587 30.3823 42.0606 29.7685 42.1817C29.1546 42.311 28.5731 42.3756 28.0239 42.3756ZM41.7141 38.5956C41.076 38.5956 40.442 38.5149 39.812 38.3533C39.1901 38.1837 38.6247 37.9172 38.1158 37.5537C38.1239 37.8687 38.1441 38.1918 38.1764 38.5229C38.2087 38.8541 38.2612 39.1772 38.3339 39.4921C38.4147 39.7991 38.5156 40.0898 38.6368 40.3644C38.766 40.6391 38.9276 40.8814 39.1214 41.0914C39.3233 41.2933 39.5616 41.4548 39.8362 41.576C40.1189 41.6971 40.4541 41.7577 40.8418 41.7577C41.2052 41.7577 41.5444 41.6931 41.8594 41.5639C42.1744 41.4265 42.4491 41.2448 42.6833 41.0187C42.9256 40.7925 43.1235 40.526 43.2769 40.2191C43.4304 39.9121 43.5354 39.581 43.5919 39.2256L46.5723 39.892C46.338 40.3927 46.0069 40.8167 45.5788 41.164C45.1588 41.5114 44.6904 41.79 44.1735 42C43.6565 42.2181 43.1154 42.3756 42.55 42.4725C41.9927 42.5694 41.4556 42.6179 40.9387 42.6179C40.0099 42.6179 39.182 42.4806 38.4551 42.206C37.7282 41.9313 37.1143 41.5356 36.6136 41.0187C36.1209 40.5018 35.7413 39.8758 35.4747 39.1408C35.2163 38.3977 35.087 37.5658 35.087 36.6451C35.087 35.7485 35.2405 34.9045 35.5474 34.113C35.8543 33.3134 36.2824 32.6188 36.8316 32.0292C37.3809 31.4396 38.0391 30.9751 38.8064 30.6359C39.5818 30.2886 40.4339 30.115 41.3627 30.115C42.0412 30.115 42.7156 30.1998 43.386 30.3694C44.0563 30.5309 44.6581 30.7894 45.1911 31.1448C45.7242 31.4921 46.1523 31.9403 46.4753 32.4896C46.8065 33.0388 46.9721 33.7011 46.9721 34.4764C46.9721 35.2357 46.8186 35.8778 46.5117 36.4028C46.2128 36.9197 45.8171 37.3437 45.3244 37.6749C44.8317 37.9979 44.2704 38.2322 43.6404 38.3775C43.0104 38.5229 42.3683 38.5956 41.7141 38.5956ZM41.1931 31.0115C40.8216 31.0115 40.4904 31.0882 40.1997 31.2417C39.917 31.3871 39.6626 31.589 39.4364 31.8474C39.2183 32.1059 39.0326 32.4007 38.8791 32.7319C38.7256 33.063 38.5964 33.4103 38.4914 33.7738C38.3864 34.1372 38.3056 34.5047 38.2491 34.8763C38.1926 35.2478 38.1562 35.5951 38.1401 35.9182C38.447 36.4432 38.8549 36.8753 39.3637 37.2145C39.8725 37.5456 40.4622 37.7112 41.1325 37.7112C41.5606 37.7112 41.9443 37.6143 42.2835 37.4204C42.6227 37.2185 42.9094 36.9601 43.1437 36.6451C43.3779 36.3301 43.5556 35.9787 43.6767 35.591C43.806 35.2034 43.8706 34.8157 43.8706 34.428C43.8706 34.0403 43.814 33.6445 43.701 33.2407C43.5879 32.8288 43.4183 32.4613 43.1921 32.1382C42.974 31.8071 42.6954 31.5365 42.3562 31.3265C42.025 31.1165 41.6373 31.0115 41.1931 31.0115Z" fill="#011627"/>
<path d="M42.3034 28.1651L45.0318 24.2311L42.5954 24.0298L41.6738 27.9821L42.3034 28.1651Z" fill="#011627"/>
<circle cx="26.4754" cy="44.3963" r="0.930449" fill="#011627"/>
<circle cx="41.5691" cy="44.3963" r="0.930449" fill="#011627"/>
</svg>
