<svg width="280" height="280" viewBox="0 0 280 280" fill="none" xmlns="http://www.w3.org/2000/svg">
<path d="M31.2812 39.5977H123.614V160.278H31.2812V39.5977ZM121.178 42.0337H33.7172V157.842H121.178V42.0337Z" fill="#EBEBEB"/>
<path d="M79.6157 42.6719H77.1797V159.062H79.6157V42.6719Z" fill="#EBEBEB"/>
<path d="M29.0691 47.9141L125.82 47.9141V44.5261L29.0691 44.5261V47.9141Z" fill="#EBEBEB"/>
<path d="M29.0691 51.7305L125.82 51.7305V48.3425L29.0691 48.3425V51.7305Z" fill="#EBEBEB"/>
<path d="M29.0691 55.5352L125.82 55.5352V52.1472L29.0691 52.1472V55.5352Z" fill="#EBEBEB"/>
<path d="M29.0691 59.3555L125.82 59.3555V55.9675L29.0691 55.9675V59.3555Z" fill="#EBEBEB"/>
<path d="M29.0691 63.168L125.82 63.168V59.78L29.0691 59.78V63.168Z" fill="#EBEBEB"/>
<path d="M29.0691 66.9844L125.82 66.9844V63.5964L29.0691 63.5964V66.9844Z" fill="#EBEBEB"/>
<path d="M29.0691 70.7969L125.82 70.7969V67.4089L29.0691 67.4089V70.7969Z" fill="#EBEBEB"/>
<path d="M29.0691 74.6172L125.82 74.6172V71.2292L29.0691 71.2292V74.6172Z" fill="#EBEBEB"/>
<path d="M29.0691 78.4297L125.82 78.4297V75.0417L29.0691 75.0417V78.4297Z" fill="#EBEBEB"/>
<path d="M36.9151 43.832H36.3047V121.98H36.9151V43.832Z" fill="#011627"/>
<path d="M35.5254 124.821H37.687L37.1438 121.719H36.0686L35.5254 124.821Z" fill="#011627"/>
<path d="M34.7198 43.832H34.1094V156.885H34.7198V43.832Z" fill="#011627"/>
<path d="M33.3359 159.169H35.4919L34.9543 156.066H33.8735L33.3359 159.169Z" fill="#011627"/>
<path d="M25.294 46.2188L129.6 46.2188V39.1236L25.294 39.1236V46.2188Z" fill="#DBDBDB"/>
<path d="M232.288 187.941H247.117V181.675H232.288V187.941Z" fill="#EBEBEB"/>
<path d="M240.558 195.844H255.387V189.577H240.558V195.844Z" fill="#EBEBEB"/>
<path d="M224.011 195.844H238.84V189.577H224.011V195.844Z" fill="#EBEBEB"/>
<path d="M32.8821 195.844H47.7109V189.577H32.8821V195.844Z" fill="#EBEBEB"/>
<path d="M32.8821 26.7461L47.7109 26.7461V20.4797H32.8821V26.7461Z" fill="#EBEBEB"/>
<path d="M24.6107 34.6484H39.4395V28.382H24.6107V34.6484Z" fill="#EBEBEB"/>
<path d="M240.558 26.7539L255.387 26.7539V20.4875H240.558V26.7539Z" fill="#EBEBEB"/>
<path d="M160.278 68.7852H145.449V75.0516H160.278V68.7852Z" fill="#EBEBEB"/>
<path d="M152.007 60.8828H137.178V67.1492H152.007V60.8828Z" fill="#EBEBEB"/>
<path d="M20.5566 229.55L50.4158 229.415L80.275 229.365L139.999 229.27L199.717 229.365L229.582 229.415L259.441 229.55L229.582 229.684L199.717 229.734L139.999 229.83L80.275 229.734L50.4158 229.684L20.5566 229.55Z" fill="#011627"/>
<path d="M90.8142 264.091C129.616 264.091 161.072 259.204 161.072 253.176C161.072 247.148 129.616 242.262 90.8142 242.262C52.012 242.262 20.5566 247.148 20.5566 253.176C20.5566 259.204 52.012 264.091 90.8142 264.091Z" fill="#EBEBEB"/>
<path d="M229.974 260.197C245.19 260.197 257.526 257.053 257.526 253.175C257.526 249.296 245.19 246.152 229.974 246.152C214.757 246.152 202.422 249.296 202.422 253.175C202.422 257.053 214.757 260.197 229.974 260.197Z" fill="#EEEBFE"/>
<path d="M227.493 240.588H86.6309L99.7125 53.4805H240.58L227.493 240.588Z" fill="#FDC500"/>
<g opacity="0.1">
<path d="M227.493 240.588H86.6309L99.7125 53.4805H240.58L227.493 240.588Z" fill="#2E2E2E"/>
</g>
<path d="M224.044 240.588H83.1758L96.263 53.4805H237.125L224.044 240.588Z" fill="#FDC500"/>
<path d="M217.632 229.509L93.1777 231.094L102.815 62.534L227.275 60.9492L217.632 229.509Z" fill="#EBEBEB"/>
<path d="M214.581 231.632L90.4453 228.95L105.868 60.418L230.003 63.0948L214.581 231.632Z" fill="#DBDBDB"/>
<path d="M216.506 230.309H92.1523L103.94 61.7383H228.294L216.506 230.309Z" fill="white"/>
<path d="M129.874 114.907H117.459L118.327 102.492H130.742L129.874 114.907Z" fill="#EBEBEB"/>
<path d="M177.541 104.312H137.316L137.445 102.492H177.67L177.541 104.312Z" fill="#011627"/>
<path d="M207.838 107.84H137.07L137.199 106.02H207.961L207.838 107.84Z" fill="#EBEBEB"/>
<path d="M207.586 111.371H136.824L136.953 109.551H207.715L207.586 111.371Z" fill="#EBEBEB"/>
<path d="M207.34 114.906H136.578L136.707 113.086H207.469L207.34 114.906Z" fill="#EBEBEB"/>
<path d="M118.854 108.081C119.285 108.461 119.694 108.865 120.097 109.262C120.5 109.66 120.886 110.08 121.284 110.489C122.062 111.317 122.807 112.169 123.524 113.025L122.09 113.121C123.389 110.769 124.839 108.503 126.43 106.339C127.231 105.253 128.066 104.194 128.95 103.164C129.841 102.121 130.795 101.134 131.806 100.207C131.342 101.484 130.792 102.728 130.16 103.931C129.55 105.129 128.883 106.294 128.178 107.437C126.77 109.729 125.213 111.927 123.518 114.017L122.667 115.058L122.107 114.106C121.547 113.137 120.942 112.163 120.427 111.161C120.158 110.651 119.867 110.158 119.626 109.643C119.386 109.128 119.083 108.585 118.854 108.081Z" fill="#FDC500"/>
<path d="M128.251 138.118H115.836L116.704 125.703H129.119L128.251 138.118Z" fill="#EBEBEB"/>
<path d="M175.918 127.523H135.693L135.822 125.703H176.047L175.918 127.523Z" fill="#011627"/>
<path d="M206.213 131.058H135.445L135.574 129.238H206.336L206.213 131.058Z" fill="#EBEBEB"/>
<path d="M205.966 134.59H135.199L135.328 132.77H206.09L205.966 134.59Z" fill="#EBEBEB"/>
<path d="M205.72 138.119H134.953L135.082 136.305H205.844L205.72 138.119Z" fill="#EBEBEB"/>
<path d="M117.23 131.268C117.662 131.649 118.07 132.047 118.474 132.45C118.877 132.853 119.263 133.267 119.661 133.676C120.439 134.505 121.184 135.356 121.901 136.213L120.473 136.303C121.769 133.949 123.219 131.683 124.813 129.521C125.608 128.44 126.442 127.382 127.327 126.351C128.217 125.307 129.171 124.32 130.183 123.395C129.717 124.67 129.169 125.914 128.542 127.119C127.926 128.317 127.26 129.482 126.554 130.624C125.151 132.914 123.6 135.11 121.912 137.199L121.061 138.24L120.501 137.288C119.907 136.319 119.33 135.339 118.787 134.337C118.518 133.833 118.227 133.335 117.986 132.825C117.746 132.315 117.46 131.8 117.23 131.268Z" fill="#FDC500"/>
<path d="M126.626 161.337H114.211L115.079 148.922H127.494L126.626 161.337Z" fill="#EBEBEB"/>
<path d="M174.293 150.742H134.068L134.197 148.922H174.422L174.293 150.742Z" fill="#011627"/>
<path d="M204.589 154.273H133.822L133.951 152.453H204.718L204.589 154.273Z" fill="#EBEBEB"/>
<path d="M204.343 157.803H133.576L133.705 155.988H204.472L204.343 157.803Z" fill="#EBEBEB"/>
<path d="M204.097 161.336H133.33L133.459 159.516H204.22L204.097 161.336Z" fill="#EBEBEB"/>
<path d="M115.605 154.487C116.037 154.868 116.445 155.265 116.849 155.668C117.252 156.072 117.638 156.486 118.036 156.895C118.814 157.718 119.559 158.575 120.276 159.432L118.848 159.521C120.149 157.169 121.603 154.903 123.199 152.74C123.994 151.659 124.829 150.595 125.713 149.57C126.603 148.526 127.557 147.539 128.569 146.613C128.104 147.887 127.556 149.129 126.929 150.332C126.313 151.53 125.646 152.7 124.941 153.843C123.535 156.135 121.978 158.331 120.281 160.417L119.43 161.459L118.87 160.512C118.277 159.544 117.7 158.564 117.157 157.561C116.893 157.057 116.597 156.559 116.356 156.044C116.115 155.528 115.835 155.019 115.605 154.487Z" fill="#FDC500"/>
<path d="M125.003 184.552H112.588L113.456 172.137H125.871L125.003 184.552Z" fill="#EBEBEB"/>
<path d="M172.67 173.957H132.445L132.574 172.137H172.799L172.67 173.957Z" fill="#011627"/>
<path d="M202.964 177.484H132.197L132.326 175.664H203.093L202.964 177.484Z" fill="#EBEBEB"/>
<path d="M202.718 181.019H131.951L132.08 179.199H202.847L202.718 181.019Z" fill="#EBEBEB"/>
<path d="M202.472 184.554H131.705L131.834 182.734H202.601L202.472 184.554Z" fill="#EBEBEB"/>
<path d="M123.378 207.765H110.963L111.831 195.355H124.246L123.378 207.765Z" fill="#EBEBEB"/>
<path d="M171.045 197.17H130.826L130.949 195.355H171.174L171.045 197.17Z" fill="#011627"/>
<path d="M201.342 200.703H130.58L130.703 198.883H201.47L201.342 200.703Z" fill="#EBEBEB"/>
<path d="M201.095 204.238H130.328L130.457 202.418H201.224L201.095 204.238Z" fill="#EBEBEB"/>
<path d="M200.849 207.765H130.082L130.211 205.945H200.978L200.849 207.765Z" fill="#EBEBEB"/>
<path d="M196.173 68.6903H135.094L136.393 50.0703H197.472L196.173 68.6903Z" fill="#C7C7C7"/>
<path d="M186.323 39.8828H148.4L146.02 50.0636H187.846L186.323 39.8828ZM167.132 47.2076C166.843 47.2119 166.558 47.1556 166.293 47.0424C166.028 46.9291 165.79 46.7615 165.594 46.5502C165.398 46.339 165.249 46.089 165.156 45.8163C165.063 45.5437 165.028 45.2545 165.054 44.9676C165.103 44.3638 165.375 43.7997 165.817 43.3855C166.259 42.9714 166.839 42.7368 167.445 42.7276C167.733 42.7233 168.019 42.7796 168.284 42.8928C168.549 43.0061 168.787 43.1738 168.983 43.385C169.179 43.5962 169.328 43.8462 169.421 44.1189C169.514 44.3915 169.549 44.6807 169.523 44.9676C169.477 45.5724 169.205 46.1379 168.763 46.5526C168.32 46.9673 167.738 47.201 167.132 47.2076Z" fill="#C7C7C7"/>
<path d="M187.846 50.0644H146.02L146.557 47.7852H187.504L187.846 50.0644Z" fill="#A6A6A6"/>
<path d="M69.9657 105.458C70.7945 111.618 75.4033 126.324 78.8417 127.259C82.0449 128.127 96.1233 123.933 97.9377 121.138C98.9065 119.643 102.743 105.906 101.023 106.73C98.8505 107.766 82.9129 115.824 82.2577 115.662C80.8745 115.314 78.1753 109.86 75.8401 106.814C70.7553 100.161 69.5737 102.569 69.9657 105.458Z" fill="#774442"/>
<path d="M79.5816 111.596L72.3632 118.209C72.3632 118.209 69.8096 108.762 69.5184 104.389C69.2272 100.015 72.8 100.513 79.5816 111.596Z" fill="#011627"/>
<path d="M50.0134 174.284C50.0134 174.284 42.3806 186.363 34.5686 180.489C26.7566 174.614 36.2486 163.93 36.2486 163.93L50.0134 174.284Z" fill="#DD6A57"/>
<path d="M35.8915 164.372L49.6719 174.727L110.027 94.3992L96.2469 84.045L35.8915 164.372Z" fill="#FDC500"/>
<path opacity="0.1" d="M35.8915 164.372L49.6719 174.727L110.027 94.3992L96.2469 84.045L35.8915 164.372Z" fill="#3A3A3A"/>
<path d="M34.4075 163.937L50.498 176.027L52.8965 172.835L36.806 160.745L34.4075 163.937Z" fill="#37474F"/>
<path d="M37.0598 160.41L53.1504 172.5L55.5489 169.308L39.4583 157.218L37.0598 160.41Z" fill="#37474F"/>
<path d="M96.2422 84.0504L108.881 78.0304L113.037 76.0312L112.303 80.6064L110.063 94.4161L107.162 95.368C107.162 95.368 107.308 92.3944 107.302 92.344L104.401 93.2961C104.401 93.2961 104.553 90.3224 104.541 90.2664L101.674 91.2464C101.674 91.2464 101.792 88.2505 101.786 88.1945L98.9134 89.1745C98.9134 89.1745 99.031 86.1784 99.0254 86.1224L96.1582 87.0968C96.1582 87.0968 96.2534 84.1008 96.2422 84.0504Z" fill="#EBEBEB"/>
<path d="M108.881 78.0304L113.036 76.0312L112.302 80.6064L108.881 78.0304Z" fill="#37474F"/>
<g opacity="0.1">
<path d="M55.623 159.975C59.3582 154.806 63.1438 149.682 66.9406 144.558L78.3982 129.231L89.9342 113.982L95.719 106.4L101.571 98.8398L95.9374 106.568L90.259 114.24L78.8238 129.567L67.2822 144.816C63.4182 149.882 59.5318 154.935 55.623 159.975Z" fill="#3A3A3A"/>
<path d="M51.7988 157.558C55.534 152.395 59.3196 147.265 63.1108 142.141L74.5516 126.814L86.0876 111.565L91.8948 103.972L97.7468 96.4062L92.1132 104.162L86.4348 111.851L74.994 127.178L63.458 142.427C59.5884 147.467 55.7188 152.535 51.7988 157.558Z" fill="#3A3A3A"/>
<path d="M47.9688 155.121C51.7096 149.952 55.4952 144.828 59.2864 139.704L70.7216 124.377L82.2631 109.128L88.0704 101.529L93.9224 93.9688L88.2888 101.697L82.6047 109.386L71.1695 124.713L59.628 140.001C55.764 145.041 51.8944 150.114 47.9688 155.121Z" fill="#3A3A3A"/>
</g>
<path d="M102.396 106.232C102.597 108.372 103.952 111.429 103.594 112.986C103.518 113.373 103.319 113.724 103.028 113.99C102.737 114.255 102.368 114.419 101.976 114.459C101.976 114.459 103.191 115.741 102.631 117.096C102.34 117.796 100.951 117.948 100.951 117.948C101.209 118.253 101.378 118.623 101.441 119.018C101.503 119.413 101.455 119.818 101.304 120.188C100.85 121.123 99.5452 121.134 99.5452 121.134C99.5452 121.134 99.9596 122.579 99.1868 123.374C97.6244 125.004 89.2076 121.952 89.034 118.379C88.9556 116.699 90.9716 117.572 90.9716 117.572C90.9716 117.572 88.3676 115.64 88.9556 113.888C89.5436 112.135 92.0916 113.412 92.0916 113.412C92.0916 113.412 89.5884 111.513 90.378 109.76C91.1676 108.008 93.5364 109.648 93.5364 109.648C93.5364 109.648 92.1252 107.7 93.038 106.496C94.5444 104.508 97.0644 108.607 99.0692 108.842L101.197 106.165L102.396 106.232Z" fill="#774442"/>
<path d="M103.119 109.498C103.119 107.454 106.137 106.042 106.4 104.088C106.764 101.445 103.13 102.845 101.22 106.182L100.195 109.033L103.119 109.498Z" fill="#774442"/>
<path d="M99.3596 121.172C99.3596 121.172 99.3596 121.222 99.3596 121.216C96.2268 120.886 93.2691 119.609 90.8812 117.554C90.8084 117.487 90.8812 117.336 90.9764 117.397C93.5736 119.054 96.3974 120.325 99.3596 121.172Z" fill="#011627"/>
<path d="M101.007 117.981C101.041 117.981 101.007 118.042 101.007 118.042C97.5557 117.64 94.3617 116.018 92.0022 113.467C91.9238 113.377 91.9462 113.215 92.047 113.31C93.7102 114.968 98.2126 117.225 101.007 117.981Z" fill="#011627"/>
<path d="M93.447 109.411C95.7766 111.88 98.6662 113.359 101.847 114.451C101.886 114.451 101.847 114.523 101.847 114.523C100.167 114.411 98.1902 113.51 96.7286 112.675C95.3515 111.927 94.1934 110.833 93.3686 109.5C93.3294 109.439 93.4022 109.36 93.447 109.411Z" fill="#011627"/>
<path d="M101.757 252.326C100.682 252.684 69.9658 252.595 68.7954 251.85C68.353 251.575 68.1066 247.095 67.9554 241.68C67.9554 240.51 67.8994 239.306 67.8826 238.079C67.8826 236.623 67.8434 235.156 67.8322 233.728C67.793 227.311 67.8826 221.66 67.8826 221.66H87.8802V233.728V238.079L87.7794 241.68C87.7794 241.68 99.5394 246.978 100.715 247.93C101.891 248.882 102.827 252.001 101.757 252.326Z" fill="#774442"/>
<path d="M101.757 252.324C100.682 252.683 69.9656 252.593 68.7952 251.848C68.3528 251.574 68.1064 247.094 67.9552 241.679C67.9552 240.508 67.8992 239.304 67.8824 238.078C67.8824 236.622 67.8432 235.155 67.832 233.727H87.8688V238.078L87.768 241.679C87.768 241.679 99.528 246.976 100.704 247.928C101.88 248.88 102.826 251.999 101.757 252.324Z" fill="white"/>
<path d="M101.854 252.368C101.148 252.597 88.0664 252.648 78.5408 252.452C76.34 252.401 74.324 252.34 72.6944 252.273C70.4544 252.166 68.948 252.043 68.7072 251.892C68.1472 251.545 67.9064 244.97 67.7832 238.043H87.8816L87.7752 241.666C87.7752 241.666 99.5856 246.986 100.79 247.949C101.994 248.913 102.929 251.998 101.854 252.368Z" fill="#FDC500"/>
<path d="M101.41 251.13C96.2303 250.99 75.3367 250.906 70.2071 251.158C70.1679 251.158 70.1679 251.191 70.2071 251.191C75.3367 251.443 96.2303 251.359 101.41 251.219C101.517 251.214 101.517 251.135 101.41 251.13Z" fill="#011627"/>
<path d="M88.5067 240.517C86.4739 240.131 83.9819 240.433 82.4195 241.883C82.3579 241.939 82.4195 242.023 82.5035 242.001C84.4462 241.386 86.4495 240.983 88.4787 240.797C88.5158 240.801 88.5529 240.789 88.5818 240.766C88.6107 240.742 88.629 240.708 88.6327 240.671C88.6364 240.634 88.6252 240.597 88.6016 240.568C88.578 240.539 88.5438 240.521 88.5067 240.517Z" fill="#011627"/>
<path d="M89.9755 241.411C87.9427 241.025 85.4507 241.327 83.8883 242.778C83.8267 242.834 83.8883 242.918 83.9723 242.895C85.9222 242.275 87.9328 241.864 89.9699 241.669C90.004 241.67 90.0371 241.657 90.0618 241.633C90.0864 241.61 90.1007 241.577 90.1015 241.543C90.1022 241.509 90.0894 241.476 90.0657 241.451C90.0421 241.426 90.0096 241.412 89.9755 241.411Z" fill="#011627"/>
<path d="M91.4477 242.298C89.4093 241.912 86.9173 242.214 85.3549 243.665C85.2933 243.721 85.3549 243.805 85.4445 243.782C87.3924 243.161 89.4012 242.75 91.4365 242.556C91.4707 242.557 91.504 242.545 91.5292 242.522C91.5545 242.499 91.5695 242.467 91.5709 242.433C91.5724 242.398 91.5603 242.365 91.5372 242.34C91.5141 242.315 91.4819 242.3 91.4477 242.298Z" fill="#011627"/>
<path d="M92.9145 243.189C90.8761 242.802 88.3841 243.105 86.8217 244.555C86.7601 244.611 86.8217 244.695 86.9113 244.673C88.8592 244.052 90.868 243.64 92.9033 243.446C92.9375 243.448 92.9708 243.436 92.9961 243.413C93.0213 243.39 93.0363 243.357 93.0377 243.323C93.0392 243.289 93.0271 243.256 93.004 243.23C92.9809 243.205 92.9487 243.19 92.9145 243.189Z" fill="#011627"/>
<path d="M92.2879 235.815C91.4871 234.695 89.9975 235.204 89.1463 235.916C87.7039 237.164 86.6164 238.771 85.9935 240.575C85.9897 240.582 85.9879 240.591 85.9883 240.599C85.9887 240.608 85.9913 240.616 85.9958 240.624C86.0002 240.631 86.0065 240.637 86.0139 240.641C86.0214 240.645 86.0298 240.648 86.0383 240.648C86.0369 240.687 86.0448 240.727 86.0614 240.762C86.0781 240.798 86.1029 240.83 86.134 240.855C86.1651 240.879 86.2015 240.896 86.2404 240.904C86.2792 240.912 86.3194 240.91 86.3575 240.9C88.0375 240.284 89.9191 239.83 91.3639 238.716C92.2095 238.066 93.0383 236.879 92.2879 235.815ZM88.7207 239.444C87.8975 239.768 87.0407 240.048 86.2623 240.401C86.8485 239.477 87.4821 238.583 88.1607 237.724C88.4945 237.312 88.8556 236.923 89.2415 236.56C89.8519 236 92.2543 234.84 91.8903 237.075C91.6887 238.307 89.7007 239.057 88.7207 239.444Z" fill="#011627"/>
<path d="M80.8141 240.025C82.4941 240.748 84.4261 240.714 86.2069 240.893C86.2467 240.894 86.2861 240.885 86.3219 240.868C86.3577 240.851 86.3888 240.825 86.4129 240.794C86.4369 240.762 86.4531 240.725 86.4601 240.686C86.4672 240.647 86.4648 240.607 86.4533 240.568C86.4614 240.566 86.4687 240.561 86.4747 240.555C86.4807 240.549 86.4852 240.541 86.4879 240.533C86.4906 240.525 86.4915 240.517 86.4903 240.508C86.4892 240.5 86.4861 240.492 86.4813 240.484C85.429 238.895 83.9766 237.61 82.2701 236.76C81.2621 236.284 79.6941 236.2 79.2013 237.449C78.7085 238.698 79.8397 239.605 80.8141 240.025ZM79.9013 238.569C78.9885 236.497 81.5813 237.029 82.3317 237.41C82.799 237.661 83.2464 237.948 83.6701 238.267C84.5428 238.928 85.3803 239.635 86.1789 240.384C85.3109 240.244 84.4318 240.176 83.5582 240.07C82.5166 239.941 80.4053 239.712 79.9013 238.558V238.569Z" fill="#011627"/>
<path d="M61.2129 136.441C61.2129 136.441 66.6169 189.893 66.7457 190.571C66.7457 190.661 66.8017 191.691 66.8521 193.371C67.1433 202.572 67.8657 231.261 67.8657 231.261H89.9129C89.9129 231.261 88.4737 197.28 87.6729 189.35C86.6201 179.237 79.9393 136.441 79.9393 136.441H61.2129Z" fill="#011627"/>
<path d="M69.3716 192.46C68.6959 180.887 67.6748 169.332 66.3084 157.796C65.53 151.3 64.6284 144.832 63.6764 138.358C63.6764 138.302 63.5756 138.302 63.5868 138.358C65.2668 149.883 66.4988 161.492 67.5404 173.078C68.582 184.665 69.31 196.274 69.7804 207.899C70.0548 214.485 70.2564 220.438 70.4692 227.029C70.4752 227.056 70.4904 227.081 70.5123 227.099C70.5342 227.116 70.5615 227.126 70.5896 227.126C70.6177 227.126 70.645 227.116 70.6669 227.099C70.6888 227.081 70.704 227.056 70.71 227.029C70.402 215.291 70.0604 204.181 69.3716 192.46Z" fill="#3A3A3A"/>
<path d="M88.4013 227.607C78.3213 227.288 69.6525 227.518 68.9021 227.574C68.2805 227.624 68.6277 227.686 68.9357 227.708C77.4701 228.218 88.0653 227.736 88.4013 227.708C88.4797 227.686 88.4797 227.607 88.4013 227.607Z" fill="#3A3A3A"/>
<path d="M61.2129 136.441C61.2129 136.441 66.6169 189.893 66.7457 190.571C66.7457 190.661 66.8017 191.691 66.8521 193.371L77.2457 136.441H61.2129Z" fill="#3A3A3A"/>
<path d="M68.2075 256.691C67.0875 256.965 36.489 254.591 35.3746 253.756C34.9546 253.448 35.0386 248.963 35.3018 243.559C35.3522 242.388 35.3634 241.173 35.4922 239.958C35.649 238.423 35.8226 236.895 36.013 235.416C36.8082 229.01 37.7322 223.656 37.7322 223.656L57.1195 225.118L55.9155 236.704L55.4395 241.442L55.0698 245.026C55.0698 245.026 66.3875 251.186 67.5075 252.222C68.6275 253.258 69.3051 256.411 68.2075 256.691Z" fill="#774442"/>
<path d="M68.2075 256.692C67.0875 256.967 36.489 254.592 35.3746 253.758C34.9546 253.45 35.0386 248.964 35.3018 243.56C35.3522 242.39 35.3634 241.175 35.4922 239.96C35.649 238.425 35.8226 236.896 36.013 235.418C41.9826 235.838 50.573 236.37 55.9098 236.695L55.4395 241.444L55.0698 245.028C55.0698 245.028 66.3875 251.188 67.5075 252.224C68.6275 253.26 69.3051 256.412 68.2075 256.692Z" fill="white"/>
<path d="M68.3196 256.736C67.1996 257.016 36.3996 254.625 35.3076 253.796C34.7924 253.41 35.022 246.841 35.4196 239.914L55.4396 241.409L55.07 245.016C55.07 245.016 66.4492 251.204 67.5748 252.251C68.7004 253.298 69.4004 256.479 68.3196 256.736Z" fill="#FDC500"/>
<path d="M67.9554 255.472C62.8034 254.945 41.9714 253.305 36.8362 253.176C36.797 253.176 36.7914 253.176 36.8362 253.209C41.9322 253.842 62.7754 255.315 67.9442 255.556C68.0562 255.561 68.0618 255.483 67.9554 255.472Z" fill="#011627"/>
<path d="M55.8771 243.925C53.8779 243.393 51.3971 243.51 49.7171 244.838C49.6499 244.888 49.7172 244.978 49.79 244.961C51.7756 244.48 53.8067 244.211 55.8492 244.16C55.8734 244.153 55.8949 244.139 55.9112 244.12C55.9275 244.1 55.9378 244.077 55.9408 244.052C55.9438 244.027 55.9393 244.001 55.928 243.979C55.9167 243.956 55.899 243.937 55.8771 243.925Z" fill="#011627"/>
<path d="M57.2769 244.921C55.2721 244.389 52.7969 244.507 51.1169 245.834C51.0553 245.884 51.1169 245.974 51.1953 245.957C53.1853 245.482 55.2203 245.221 57.2657 245.179C57.2826 245.179 57.2995 245.177 57.3154 245.171C57.3313 245.165 57.3459 245.156 57.3584 245.145C57.3709 245.133 57.381 245.12 57.3882 245.104C57.3953 245.089 57.3994 245.072 57.4001 245.055C57.4008 245.038 57.3982 245.022 57.3924 245.006C57.3867 244.99 57.3778 244.975 57.3663 244.963C57.3549 244.95 57.3411 244.94 57.3258 244.933C57.3104 244.926 57.2938 244.922 57.2769 244.921Z" fill="#011627"/>
<path d="M58.6758 245.923C56.671 245.363 54.1622 245.503 52.5158 246.83C52.4486 246.881 52.5158 246.97 52.5942 246.959C54.584 246.482 56.619 246.219 58.6646 246.175C58.6939 246.171 58.7206 246.156 58.7403 246.134C58.76 246.112 58.7715 246.083 58.7728 246.054C58.7741 246.024 58.7652 245.995 58.7475 245.971C58.7299 245.947 58.7046 245.931 58.6758 245.923Z" fill="#011627"/>
<path d="M60.0705 246.919C58.0713 246.359 55.5905 246.499 53.9105 247.827C53.8433 247.877 53.9105 247.967 53.9833 247.955C55.9732 247.479 58.0081 247.216 60.0537 247.171C60.0832 247.167 60.1104 247.153 60.1308 247.132C60.1511 247.11 60.1633 247.082 60.1653 247.052C60.1673 247.023 60.1589 246.993 60.1417 246.969C60.1244 246.945 60.0992 246.927 60.0705 246.919Z" fill="#011627"/>
<path d="M59.9917 239.516C59.2805 238.357 57.7517 238.738 56.8501 239.382C55.3221 240.523 54.1194 242.044 53.3613 243.794C53.3613 243.834 53.3613 243.862 53.4061 243.873C53.4061 244.024 53.5237 244.198 53.7029 244.147C55.4277 243.66 57.3373 243.346 58.8605 242.338C59.7509 241.756 60.6693 240.619 59.9917 239.516ZM56.1669 242.876C55.3269 243.139 54.4869 243.358 53.6413 243.649C54.3245 242.792 54.9685 241.907 55.7357 241.118C56.1013 240.732 56.4923 240.371 56.9061 240.037C57.5501 239.538 60.0365 238.553 59.5045 240.754C59.2077 241.958 57.1749 242.557 56.1669 242.87V242.876Z" fill="#011627"/>
<path d="M48.2445 242.866C49.8629 243.706 51.7893 243.818 53.5589 244.132C53.7381 244.165 53.8501 243.975 53.8277 243.824C53.8355 243.821 53.8426 243.817 53.8486 243.812C53.8546 243.806 53.8594 243.8 53.8626 243.792C53.8658 243.785 53.8673 243.777 53.8671 243.769C53.8669 243.76 53.8649 243.752 53.8613 243.745C52.9303 242.081 51.5785 240.691 49.9413 239.713C48.9725 239.153 47.4213 238.946 46.8277 240.172C46.2341 241.399 47.2981 242.373 48.2445 242.866ZM47.4381 241.36C46.6821 239.226 49.2581 239.948 49.9525 240.385C50.3963 240.675 50.8209 240.993 51.2237 241.337C52.0414 242.052 52.8226 242.807 53.5645 243.6C52.7077 243.392 51.8397 243.264 50.9717 243.09C49.9413 242.905 47.8525 242.524 47.4381 241.36Z" fill="#011627"/>
<path d="M79.918 136.441C79.918 136.441 79.2684 141.885 76.1436 145.81C75.3932 146.751 73.1028 147.625 71.9156 148.487C71.9156 148.487 67.4804 189.244 66.1308 193.847C64.63 198.988 58.8004 234.077 58.8004 234.077L35.7676 232.465C35.7676 232.465 42.6836 198.047 44.3244 189.524C44.694 187.62 49.622 151.752 49.5156 150.923C48.1884 141.045 52.9932 136.469 52.9932 136.469L79.918 136.441Z" fill="#011627"/>
<path d="M62.1096 137.043C61.6608 138.596 60.712 139.958 59.4104 140.918C57.974 141.94 56.2718 142.524 54.5104 142.598C54.2136 142.598 54.1912 143.068 54.5104 143.074C58.1056 143.074 61.74 140.795 62.2664 137.065C62.2664 136.981 62.16 136.964 62.1096 137.043Z" fill="#3A3A3A"/>
<path d="M76.5681 145.648C75.2636 146.171 74.0189 146.832 72.8553 147.619C71.6233 148.381 70.4809 149.299 69.2881 150.1C69.2433 150.134 69.2881 150.207 69.3329 150.179C70.5817 149.462 71.8809 148.835 73.1185 148.095C74.3552 147.418 75.5284 146.631 76.6241 145.743C76.6633 145.71 76.6241 145.626 76.5681 145.648Z" fill="#3A3A3A"/>
<path d="M77.0774 138.151C76.8814 138.974 76.6462 139.792 76.4278 140.609C76.2094 141.427 76.0638 142.161 75.823 142.917C75.6243 143.652 75.2157 144.314 74.647 144.821C74.3334 145.089 73.9862 145.319 73.6502 145.565L73.0902 145.957C73.1182 145.845 73.1462 145.733 73.1686 145.621C73.2414 145.313 73.3086 145 73.3758 144.686C73.5214 143.992 73.667 143.297 73.807 142.597C74.0814 141.231 74.367 139.848 74.6862 138.498C74.683 138.49 74.6773 138.482 74.6698 138.477C74.6622 138.472 74.6533 138.469 74.6442 138.469C74.635 138.469 74.6261 138.472 74.6186 138.477C74.6111 138.482 74.6054 138.49 74.6022 138.498C74.199 139.837 73.7566 141.158 73.3982 142.508C73.219 143.169 72.547 146.428 72.5134 146.68C72.4798 146.932 72.4462 147.161 72.4238 147.402C72.3819 147.646 72.3706 147.895 72.3902 148.141C72.3951 148.152 72.403 148.161 72.4129 148.168C72.4228 148.174 72.4344 148.177 72.4462 148.177C72.458 148.177 72.4695 148.174 72.4794 148.168C72.4894 148.161 72.4973 148.152 72.5022 148.141C72.6139 147.918 72.6949 147.681 72.743 147.436C72.8158 147.201 72.8774 146.965 72.9334 146.73L72.9838 146.467C73.3198 146.282 73.6334 146.036 73.947 145.829C74.2606 145.621 74.6302 145.392 74.9494 145.145C75.5454 144.689 75.9886 144.062 76.2206 143.348C76.4562 142.578 76.623 141.789 76.719 140.99C76.8646 140.061 76.9878 139.12 77.1614 138.19C77.1726 138.123 77.0886 138.095 77.0774 138.151Z" fill="#3A3A3A"/>
<path d="M57.6803 230.069C47.6899 228.949 39.0043 228.478 38.2539 228.473C37.6267 228.473 37.9683 228.562 38.2539 228.607C46.7155 229.8 57.2939 230.169 57.6579 230.158C57.6638 230.16 57.6699 230.16 57.6759 230.159C57.6819 230.158 57.6877 230.156 57.6929 230.153C57.6981 230.15 57.7026 230.146 57.7063 230.141C57.7099 230.136 57.7125 230.131 57.7139 230.125C57.7154 230.119 57.7157 230.113 57.7148 230.107C57.7139 230.101 57.7119 230.095 57.7087 230.09C57.7056 230.084 57.7015 230.08 57.6966 230.076C57.6918 230.073 57.6862 230.07 57.6803 230.069Z" fill="#3A3A3A"/>
<path d="M79.3629 125.286L81.2389 140.765C81.2389 140.765 56.1005 140.541 49.8789 139.953C49.8789 139.953 55.6469 111.242 62.5293 104.113C65.9677 100.551 69.8989 100.915 72.3517 103.525C72.9733 104.18 80.3149 114.378 81.0205 118.225C81.6309 121.624 79.3629 125.286 79.3629 125.286Z" fill="#FDC500"/>
<path d="M68.5215 112.649C68.7327 112.578 68.9593 112.567 69.1767 112.616C69.2923 112.658 69.3928 112.734 69.4655 112.834C69.5382 112.934 69.5799 113.052 69.5855 113.176C69.5827 113.259 69.6019 113.342 69.6412 113.416C69.6805 113.489 69.7386 113.551 69.8095 113.596C69.8841 113.651 69.9744 113.68 70.0671 113.68C70.1735 113.68 70.2743 113.713 70.3807 113.741C70.1672 113.806 69.939 113.806 69.7255 113.741C69.6132 113.696 69.5167 113.619 69.448 113.519C69.3792 113.42 69.3414 113.302 69.3391 113.181C69.336 113.098 69.3124 113.016 69.2704 112.944C69.2285 112.872 69.1693 112.811 69.0983 112.767C69.0179 112.721 68.9275 112.696 68.8351 112.694C68.7287 112.688 68.6279 112.677 68.5215 112.649Z" fill="white"/>
<path d="M74.2617 133.173C74.473 133.102 74.6995 133.09 74.9169 133.139C75.0319 133.182 75.1316 133.258 75.2034 133.358C75.2751 133.458 75.3157 133.576 75.3201 133.699C75.3189 133.782 75.3389 133.864 75.378 133.938C75.4172 134.011 75.4743 134.074 75.5441 134.119C75.6235 134.169 75.7139 134.197 75.8073 134.203C75.9081 134.203 76.0145 134.237 76.1153 134.265C75.9018 134.33 75.6736 134.33 75.4601 134.265C75.3452 134.215 75.2473 134.133 75.1786 134.029C75.1099 133.924 75.0734 133.802 75.0737 133.677C75.0734 133.594 75.0515 133.513 75.0103 133.441C74.9691 133.369 74.9099 133.31 74.8385 133.268C74.757 133.219 74.6645 133.192 74.5697 133.189C74.4668 133.189 74.364 133.184 74.2617 133.173Z" fill="white"/>
<path d="M64.9991 104.426C64.789 104.504 64.5599 104.513 64.3439 104.454C64.2294 104.404 64.1319 104.322 64.0633 104.218C63.9947 104.113 63.958 103.991 63.9575 103.866C63.9572 103.784 63.9354 103.702 63.8941 103.631C63.8529 103.559 63.7937 103.499 63.7223 103.458C63.6408 103.409 63.5483 103.382 63.4535 103.379H63.3359L63.4591 103.278C63.5736 103.26 63.6907 103.27 63.8007 103.306C63.9153 103.35 64.0146 103.426 64.0863 103.526C64.1579 103.625 64.1988 103.744 64.2039 103.866C64.2029 103.95 64.2228 104.033 64.2619 104.108C64.301 104.182 64.3581 104.245 64.4279 104.292C64.5073 104.342 64.5978 104.37 64.6911 104.376C64.7946 104.387 64.8974 104.404 64.9991 104.426Z" fill="white"/>
<path d="M60.3848 121.233C60.5966 121.165 60.8223 121.154 61.04 121.199C61.1552 121.243 61.2553 121.319 61.3279 121.418C61.4005 121.518 61.4425 121.636 61.4488 121.759C61.4466 121.844 61.4661 121.927 61.5053 122.001C61.5445 122.076 61.6022 122.139 61.6728 122.185C61.7497 122.235 61.8386 122.264 61.9304 122.269L62.244 122.325C62.0337 122.402 61.8048 122.412 61.5888 122.353C61.4725 122.305 61.3733 122.224 61.3044 122.119C61.2354 122.014 61.1998 121.891 61.2024 121.765C61.1999 121.682 61.1765 121.601 61.1344 121.53C61.0923 121.458 61.0329 121.399 60.9616 121.356C60.8817 121.309 60.7912 121.282 60.6984 121.278C60.592 121.272 60.48 121.261 60.3848 121.233Z" fill="white"/>
<path d="M73.6458 140.672H73.3602C73.3224 140.587 73.3033 140.496 73.3042 140.403C73.3027 140.32 73.2798 140.239 73.2376 140.167C73.1954 140.095 73.1354 140.036 73.0634 139.994C72.9843 139.945 72.8934 139.918 72.8002 139.916C72.6966 139.903 72.5938 139.884 72.4922 139.86C72.7015 139.789 72.9263 139.778 73.1418 139.826C73.2574 139.869 73.3579 139.945 73.4306 140.045C73.5033 140.144 73.545 140.263 73.5506 140.386C73.547 140.49 73.5808 140.591 73.6458 140.672Z" fill="white"/>
<path d="M66.6055 129.919C66.8167 129.848 67.0433 129.836 67.2607 129.885C67.3761 129.928 67.4762 130.004 67.548 130.103C67.6199 130.203 67.6602 130.322 67.6639 130.445C67.6638 130.529 67.6848 130.611 67.7249 130.684C67.7651 130.758 67.823 130.82 67.8935 130.865C67.9692 130.918 68.0588 130.947 68.1511 130.949C68.2519 130.949 68.3583 130.983 68.4591 131.011C68.2473 131.075 68.0212 131.075 67.8095 131.011C67.6976 130.965 67.6015 130.888 67.5328 130.788C67.4642 130.689 67.4261 130.572 67.4231 130.451C67.42 130.367 67.3964 130.286 67.3544 130.213C67.3124 130.141 67.2533 130.08 67.1823 130.036C67.1019 129.991 67.0115 129.966 66.9191 129.964C66.8127 129.975 66.7119 129.964 66.6055 129.919Z" fill="white"/>
<path d="M53.083 128.53C52.9123 128.58 52.734 128.599 52.5566 128.586C52.5566 128.536 52.5846 128.486 52.6014 128.43C52.6567 128.453 52.7154 128.466 52.775 128.469C52.8758 128.491 52.9822 128.502 53.083 128.53Z" fill="white"/>
<path d="M55.4395 131.774C55.6507 131.703 55.8773 131.692 56.0947 131.741C56.2097 131.784 56.3093 131.86 56.3811 131.959C56.4529 132.059 56.4935 132.178 56.4979 132.301C56.4967 132.384 56.5166 132.466 56.5558 132.539C56.5949 132.613 56.6521 132.675 56.7219 132.721C56.8001 132.773 56.8912 132.802 56.9851 132.805C57.0859 132.805 57.1923 132.838 57.2931 132.866C57.0795 132.931 56.8514 132.931 56.6379 132.866C56.5229 132.817 56.425 132.735 56.3563 132.63C56.2876 132.526 56.2512 132.403 56.2515 132.278C56.2511 132.195 56.2293 132.114 56.188 132.043C56.1468 131.971 56.0876 131.911 56.0163 131.869C55.9353 131.82 55.8421 131.795 55.7475 131.797C55.6523 131.813 55.5459 131.802 55.4395 131.774Z" fill="white"/>
<path d="M71.7461 121.487C71.9568 121.414 72.1842 121.402 72.4013 121.453C72.5163 121.497 72.616 121.573 72.6877 121.672C72.7595 121.772 72.8001 121.891 72.8045 122.013C72.8034 122.097 72.8233 122.18 72.8625 122.255C72.9016 122.329 72.9587 122.392 73.0285 122.439C73.1078 122.489 73.1983 122.517 73.2917 122.523C73.3925 122.523 73.4989 122.557 73.5997 122.585C73.3862 122.65 73.158 122.65 72.9445 122.585C72.8296 122.535 72.7317 122.453 72.663 122.349C72.5943 122.244 72.5578 122.122 72.5581 121.997C72.5578 121.914 72.5359 121.833 72.4947 121.761C72.4534 121.689 72.3942 121.63 72.3229 121.588C72.2414 121.539 72.1489 121.512 72.0541 121.509C71.9511 121.507 71.8483 121.5 71.7461 121.487Z" fill="white"/>
<path d="M64.7975 109.423C64.6999 109.622 64.5487 109.791 64.3607 109.91C64.2458 109.96 64.1184 109.976 63.9948 109.954C63.8711 109.932 63.7568 109.874 63.6663 109.787C63.6072 109.727 63.5343 109.684 63.4542 109.659C63.3741 109.635 63.2893 109.63 63.2071 109.647C63.1174 109.666 63.0343 109.708 62.9663 109.77C62.8767 109.831 62.7983 109.893 62.7031 109.949C62.8263 109.781 62.9103 109.574 63.1511 109.467C63.2674 109.421 63.395 109.41 63.5176 109.436C63.6403 109.461 63.7524 109.523 63.8399 109.613C63.9007 109.669 63.9745 109.709 64.0546 109.73C64.1348 109.75 64.2188 109.751 64.2991 109.731C64.3888 109.708 64.4715 109.664 64.5399 109.602C64.6222 109.537 64.7082 109.477 64.7975 109.423Z" fill="white"/>
<path d="M80.8796 121.223C80.7564 121.391 80.6724 121.592 80.4428 121.704C80.3289 121.758 80.2012 121.776 80.0771 121.754C79.9529 121.733 79.8382 121.675 79.7484 121.587C79.6544 121.496 79.5289 121.445 79.3984 121.445C79.2678 121.445 79.1423 121.496 79.0484 121.587L78.7852 121.766C78.8814 121.565 79.0355 121.397 79.2276 121.284C79.3435 121.238 79.4705 121.226 79.593 121.251C79.7154 121.276 79.8278 121.336 79.9164 121.424C79.976 121.482 80.0495 121.524 80.1299 121.546C80.2103 121.567 80.2949 121.568 80.3756 121.547C80.4658 121.523 80.5486 121.477 80.6164 121.413C80.706 121.34 80.7844 121.273 80.8796 121.223Z" fill="white"/>
<path d="M70.0004 105.277C70.0711 105.489 70.0827 105.715 70.034 105.933C69.9915 106.048 69.9155 106.148 69.8157 106.22C69.7159 106.292 69.5969 106.332 69.474 106.336C69.3903 106.336 69.308 106.357 69.2346 106.397C69.1612 106.437 69.0991 106.495 69.054 106.565C69.0013 106.641 68.9721 106.731 68.97 106.823C68.97 106.924 68.9364 107.03 68.9084 107.131C68.843 106.917 68.843 106.689 68.9084 106.476C68.9549 106.365 69.0326 106.27 69.1319 106.202C69.2313 106.135 69.3482 106.097 69.4684 106.095C69.552 106.092 69.6337 106.069 69.706 106.027C69.7784 105.985 69.8391 105.926 69.8828 105.854C69.9284 105.774 69.9534 105.683 69.9556 105.591C69.9668 105.473 70.0004 105.373 70.0004 105.277Z" fill="white"/>
<path d="M67.535 123.508C67.6055 123.717 67.6172 123.942 67.5686 124.157C67.5257 124.273 67.4498 124.374 67.3502 124.446C67.2506 124.519 67.1318 124.561 67.0086 124.566C66.9252 124.565 66.8429 124.584 66.7693 124.623C66.6958 124.663 66.6336 124.72 66.5886 124.79C66.5343 124.865 66.5049 124.955 66.5046 125.048C66.5046 125.154 66.471 125.255 66.443 125.361C66.3685 125.151 66.3587 124.923 66.415 124.706C66.4643 124.591 66.5464 124.493 66.6509 124.425C66.7555 124.356 66.8779 124.32 67.003 124.32C67.0863 124.319 67.1681 124.297 67.2399 124.255C67.3118 124.212 67.3711 124.152 67.4118 124.079C67.461 124 67.488 123.909 67.4902 123.816C67.4958 123.715 67.507 123.609 67.535 123.508Z" fill="white"/>
<path d="M80.3868 137.074C80.4576 137.285 80.4692 137.512 80.4204 137.729C80.3774 137.844 80.3012 137.944 80.2015 138.016C80.1018 138.088 79.9832 138.128 79.8604 138.133C79.7771 138.131 79.6947 138.151 79.6212 138.19C79.5477 138.229 79.4854 138.286 79.4404 138.357C79.3861 138.434 79.3567 138.526 79.3564 138.62C79.3564 138.721 79.3228 138.827 79.2948 138.928C79.2325 138.714 79.2325 138.487 79.2948 138.273C79.3428 138.162 79.4207 138.068 79.5196 137.999C79.6186 137.931 79.7347 137.892 79.8548 137.886C79.9382 137.885 80.0199 137.863 80.0923 137.822C80.1648 137.781 80.2257 137.722 80.2692 137.651C80.3157 137.569 80.3408 137.477 80.342 137.382C80.3476 137.281 80.3588 137.197 80.3868 137.074Z" fill="white"/>
<path d="M57.4827 124.156C57.5505 124.368 57.5621 124.594 57.5163 124.811C57.4732 124.926 57.397 125.026 57.2974 125.098C57.1977 125.17 57.079 125.21 56.9563 125.215C56.8719 125.215 56.7888 125.236 56.7145 125.276C56.6402 125.316 56.5771 125.374 56.5307 125.444C56.4805 125.521 56.4515 125.61 56.4467 125.702C56.4467 125.803 56.4467 125.909 56.3907 126.015C56.3229 125.802 56.3229 125.573 56.3907 125.36C56.437 125.249 56.5144 125.153 56.6137 125.085C56.7131 125.016 56.8301 124.978 56.9507 124.974C57.0336 124.971 57.1145 124.948 57.186 124.906C57.2574 124.864 57.3171 124.804 57.3595 124.733C57.4071 124.653 57.434 124.563 57.4379 124.47C57.4435 124.363 57.4547 124.263 57.4827 124.156Z" fill="white"/>
<path d="M62.4007 113.602C62.4734 113.812 62.4869 114.039 62.4399 114.257C62.3959 114.372 62.3196 114.471 62.2203 114.544C62.1209 114.616 62.0028 114.659 61.8799 114.666C61.7958 114.663 61.7125 114.683 61.638 114.722C61.5635 114.761 61.5002 114.819 61.4543 114.89C61.4041 114.967 61.3751 115.055 61.3703 115.147C61.3703 115.254 61.3367 115.354 61.3087 115.461C61.2434 115.247 61.2434 115.019 61.3087 114.806C61.3544 114.694 61.4317 114.598 61.5312 114.529C61.6306 114.46 61.7479 114.422 61.8687 114.419C61.9516 114.417 62.0326 114.393 62.104 114.351C62.1755 114.309 62.2352 114.25 62.2775 114.178C62.3251 114.098 62.3521 114.008 62.3559 113.915C62.3655 113.81 62.3804 113.705 62.4007 113.602Z" fill="white"/>
<path d="M76.7933 115.812C76.8641 116.024 76.8757 116.25 76.8269 116.468C76.7845 116.583 76.7085 116.683 76.6087 116.755C76.5089 116.827 76.3899 116.867 76.2669 116.871C76.1832 116.87 76.1007 116.891 76.0272 116.931C75.9537 116.971 75.8917 117.03 75.8469 117.101C75.7943 117.176 75.7651 117.266 75.7629 117.358C75.7629 117.459 75.7293 117.565 75.7013 117.666C75.636 117.453 75.636 117.224 75.7013 117.011C75.7479 116.9 75.8255 116.805 75.9249 116.738C76.0243 116.67 76.1412 116.633 76.2613 116.63C76.3449 116.627 76.4263 116.603 76.4986 116.561C76.5709 116.519 76.6317 116.46 76.6757 116.389C76.7213 116.309 76.7464 116.218 76.7485 116.126C76.7541 116.02 76.7653 115.919 76.7933 115.812Z" fill="white"/>
<path d="M63.4925 134.281C63.5633 134.492 63.5749 134.719 63.5261 134.936C63.4831 135.051 63.4069 135.151 63.3072 135.223C63.2076 135.295 63.0889 135.335 62.9661 135.34C62.8829 135.338 62.8008 135.358 62.7273 135.398C62.6539 135.437 62.5915 135.494 62.5461 135.564C62.4942 135.642 62.4651 135.733 62.4621 135.827C62.4621 135.928 62.4285 136.034 62.4005 136.135C62.3352 135.921 62.3352 135.693 62.4005 135.48C62.448 135.369 62.5257 135.274 62.6248 135.206C62.7239 135.137 62.8403 135.098 62.9605 135.093C63.0441 135.093 63.1262 135.072 63.1989 135.03C63.2715 134.989 63.3322 134.93 63.3749 134.858C63.4215 134.776 63.4465 134.684 63.4477 134.589C63.4533 134.488 63.4645 134.399 63.4925 134.281Z" fill="white"/>
<path d="M58.7998 137.074C58.8648 137.297 58.8648 137.534 58.7998 137.757C58.7561 137.872 58.6797 137.971 58.5802 138.043C58.4807 138.115 58.3623 138.156 58.2398 138.161C58.1558 138.16 58.0729 138.179 57.9985 138.219C57.9242 138.258 57.8608 138.315 57.8142 138.385C57.7646 138.464 57.7357 138.554 57.7302 138.648C57.7169 138.751 57.6982 138.854 57.6742 138.956C57.606 138.743 57.606 138.514 57.6742 138.301C57.7221 138.19 57.8 138.096 57.899 138.027C57.9979 137.959 58.1141 137.92 58.2342 137.914C58.3169 137.914 58.3981 137.892 58.4697 137.851C58.5414 137.81 58.6011 137.75 58.643 137.679C58.6914 137.598 58.7184 137.505 58.7214 137.41C58.7438 137.281 58.755 137.197 58.7998 137.074Z" fill="white"/>
<path d="M74.1445 109.943C74.2384 109.741 74.3905 109.571 74.5813 109.456C74.6954 109.403 74.8228 109.386 74.9468 109.407C75.0708 109.428 75.1855 109.486 75.2757 109.574C75.3697 109.664 75.4952 109.715 75.6257 109.715C75.7563 109.715 75.8818 109.664 75.9757 109.574C76.0653 109.518 76.1437 109.451 76.2389 109.395C76.1412 109.596 75.9851 109.764 75.7909 109.876C75.6761 109.924 75.5496 109.936 75.4279 109.911C75.3061 109.886 75.1946 109.825 75.1077 109.736C75.0469 109.678 74.9724 109.636 74.8912 109.615C74.8099 109.593 74.7245 109.593 74.6429 109.613C74.5527 109.637 74.4699 109.683 74.4021 109.747C74.3181 109.82 74.2341 109.887 74.1445 109.943Z" fill="white"/>
<path d="M65.9336 118.197C66.0275 117.995 66.1795 117.825 66.3704 117.71C66.4845 117.657 66.6119 117.64 66.7359 117.661C66.8598 117.682 66.9745 117.74 67.0648 117.828C67.1587 117.918 67.2842 117.969 67.4148 117.969C67.5454 117.969 67.6708 117.918 67.7648 117.828C67.8544 117.772 67.9328 117.704 68.028 117.648C67.932 117.851 67.7755 118.02 67.58 118.13C67.4652 118.178 67.3387 118.19 67.2169 118.165C67.0951 118.14 66.9836 118.079 66.8968 117.99C66.8371 117.932 66.7636 117.89 66.6832 117.869C66.6029 117.847 66.5183 117.846 66.4376 117.867C66.3454 117.89 66.2606 117.936 66.1912 118.001C66.1072 118.074 66.0232 118.158 65.9336 118.197Z" fill="white"/>
<path d="M60.2441 129.399C60.3436 129.201 60.4944 129.033 60.6809 128.912C60.7952 128.86 60.9224 128.843 61.0462 128.864C61.17 128.885 61.2847 128.943 61.3753 129.03C61.4333 129.091 61.506 129.136 61.5865 129.16C61.667 129.185 61.7524 129.188 61.8345 129.17C61.9256 129.15 62.0103 129.107 62.0809 129.047C62.1649 128.991 62.2489 128.923 62.3385 128.873C62.2209 129.041 62.1369 129.248 61.8961 129.349C61.7803 129.396 61.6531 129.408 61.5305 129.383C61.4079 129.358 61.2955 129.298 61.2073 129.209C61.1477 129.151 61.0742 129.109 60.9938 129.088C60.9134 129.066 60.8288 129.065 60.7481 129.086C60.6579 129.11 60.5751 129.156 60.5073 129.22C60.4177 129.282 60.3393 129.36 60.2441 129.399Z" fill="white"/>
<path d="M73.707 128.237C73.8081 128.04 73.9586 127.872 74.1438 127.75C74.2586 127.699 74.3862 127.683 74.51 127.705C74.6338 127.727 74.7482 127.786 74.8382 127.873C74.8977 127.932 74.9705 127.976 75.0505 128C75.1305 128.025 75.2153 128.029 75.2974 128.013C75.3885 127.993 75.4732 127.951 75.5438 127.89C75.6261 127.825 75.7121 127.766 75.8014 127.711C75.7052 127.912 75.5511 128.08 75.359 128.193C75.2427 128.239 75.1151 128.25 74.9925 128.224C74.8699 128.199 74.7577 128.137 74.6702 128.047C74.6103 127.989 74.5366 127.948 74.4561 127.928C74.3756 127.907 74.2912 127.908 74.211 127.929C74.1214 127.952 74.0386 127.996 73.9702 128.058C73.8861 128.123 73.7982 128.183 73.707 128.237Z" fill="white"/>
<path d="M68.543 136.397C68.6406 136.197 68.7918 136.028 68.9798 135.909C69.0947 135.859 69.2221 135.843 69.3457 135.865C69.4694 135.887 69.5837 135.945 69.6742 136.033C69.7324 136.093 69.8052 136.138 69.8856 136.162C69.9659 136.187 70.0512 136.19 70.1334 136.173C70.2231 136.153 70.3062 136.111 70.3742 136.049C70.4638 135.988 70.5422 135.926 70.6374 135.87C70.5396 136.072 70.3835 136.24 70.1894 136.352C70.073 136.398 69.9455 136.409 69.8228 136.384C69.7002 136.358 69.5881 136.296 69.5006 136.206C69.4398 136.15 69.366 136.11 69.2858 136.089C69.2057 136.069 69.1217 136.068 69.0414 136.089C68.9506 136.111 68.8675 136.157 68.8006 136.223C68.7166 136.279 68.6326 136.346 68.543 136.397Z" fill="white"/>
<path d="M52.275 134.785C52.1574 134.959 52.0678 135.166 51.827 135.267C51.7122 135.314 51.5857 135.327 51.4639 135.302C51.3421 135.277 51.2306 135.216 51.1438 135.127C51.0927 135.076 51.0289 135.039 50.959 135.02C50.959 134.948 50.9982 134.869 51.015 134.791C51.1258 134.817 51.228 134.871 51.3118 134.948C51.3694 135.009 51.4421 135.054 51.5227 135.079C51.6033 135.103 51.6889 135.106 51.771 135.088C51.8611 135.069 51.9444 135.027 52.0118 134.964C52.079 134.908 52.1798 134.841 52.275 134.785Z" fill="white"/>
<path d="M55.877 118.462C55.977 118.262 56.1301 118.093 56.3194 117.975C56.4336 117.922 56.5608 117.906 56.6846 117.927C56.8084 117.948 56.9231 118.005 57.0138 118.092C57.0714 118.154 57.1441 118.199 57.2247 118.224C57.3052 118.248 57.3909 118.251 57.473 118.232C57.5627 118.213 57.6457 118.171 57.7138 118.109C57.8034 118.053 57.8818 117.986 57.977 117.93C57.8538 118.103 57.7698 118.311 57.529 118.411C57.4132 118.459 57.2859 118.471 57.1633 118.446C57.0407 118.421 56.9283 118.36 56.8402 118.271C56.7805 118.213 56.707 118.172 56.6266 118.15C56.5462 118.128 56.4616 118.128 56.381 118.148C56.2907 118.172 56.208 118.218 56.1402 118.283C56.0556 118.347 55.9677 118.407 55.877 118.462Z" fill="white"/>
<path d="M80.3438 133.53C80.0974 132.113 79.9182 131.004 79.711 129.61C79.5038 128.216 79.291 126.771 79.1062 125.348V125.253L79.1678 125.164C79.879 124.082 80.3893 122.881 80.6742 121.619C80.8232 120.993 80.8947 120.352 80.887 119.709C80.8942 119.067 80.8074 118.428 80.6294 117.811C80.2406 116.554 79.7422 115.334 79.1398 114.165C78.5462 112.984 78.059 111.992 77.3982 110.839C77.2862 110.66 77.359 110.62 77.4598 110.76C78.1262 111.707 78.8542 113 79.4254 114.014C80.1056 115.174 80.6683 116.399 81.1054 117.671C81.3174 118.328 81.427 119.013 81.4302 119.704C81.4435 120.389 81.372 121.074 81.2174 121.742C80.9176 123.079 80.3623 124.345 79.5822 125.472L79.627 125.287C79.7894 126.715 79.9238 128.143 80.0582 129.571C80.187 130.853 80.3326 132.242 80.4222 133.53C80.4222 133.648 80.4278 134.051 80.3438 133.53Z" fill="#011627"/>
<path d="M78.6016 111.902C78.8745 112.321 79.0981 112.77 79.268 113.241C79.3558 113.474 79.4269 113.714 79.4808 113.958C79.5452 114.203 79.5791 114.455 79.5816 114.708C79.3688 114.249 79.1728 113.801 79.0216 113.336C78.8384 112.872 78.6978 112.392 78.6016 111.902Z" fill="#011627"/>
<path d="M63.7339 107.347C61.6899 110.432 52.0299 122.579 51.6715 123.743C51.3131 124.908 53.5027 127.327 53.4803 127.803C53.3963 129.735 48.5299 141.372 46.8051 140.123C44.5651 138.505 36.4395 128.296 37.5203 122.915C38.6011 117.533 59.3603 104.115 62.7763 102.855C66.1923 101.595 65.7499 104.306 63.7339 107.347Z" fill="#774442"/>
<path d="M55.8882 144.31C57.1986 143.072 54.9866 142.238 54.9866 142.238C54.9866 142.238 58.4586 142.675 59.3154 140.877C60.1722 139.08 57.4282 138.228 57.2378 138.156C57.4226 138.156 60.5978 138.497 61.2922 136.599C61.9866 134.7 59.1194 134.18 58.9346 134.152C59.1138 134.112 61.4826 133.62 61.6674 132.063C61.981 129.392 55.0818 130.22 53.3458 128.904C53.3458 128.904 53.4578 125.421 53.4914 125.32C53.1709 126.149 52.5786 126.844 51.8114 127.292C50.3946 127.958 49.101 128.412 48.6138 129.229C48.3852 129.586 48.2775 130.007 48.3067 130.429C48.336 130.852 48.5006 131.254 48.7762 131.576C48.7762 131.576 46.8666 131.671 46.2898 133.144C45.993 133.905 46.945 135.048 46.945 135.048C46.5142 135.091 46.1038 135.253 45.759 135.514C45.4141 135.776 45.1482 136.128 44.9906 136.532C44.6434 137.601 45.6514 138.581 45.6514 138.581C45.6514 138.581 44.2402 139.393 44.2402 140.603C44.2402 143.044 53.0826 146.959 55.8882 144.31Z" fill="#774442"/>
<path d="M45.7905 138.766C45.7905 138.766 45.7345 138.766 45.7905 138.805C48.4698 140.884 51.7174 142.101 55.1033 142.294C55.2097 142.294 55.2601 142.126 55.1425 142.098C51.88 141.447 48.7296 140.324 45.7905 138.766Z" fill="#011627"/>
<path d="M46.9005 135.051C46.8669 135.051 46.8389 135.084 46.8669 135.112C49.8529 137.38 53.551 138.506 57.2941 138.288C57.4285 138.288 57.5349 138.131 57.3837 138.136C54.8357 138.164 49.6389 136.552 46.9005 135.051Z" fill="#011627"/>
<path d="M59.1915 134.035C55.5291 134.214 52.1803 133.206 48.8875 131.672C48.8427 131.672 48.8203 131.711 48.8483 131.739C50.2539 132.932 52.4547 133.688 54.2187 134.136C55.8473 134.579 57.5635 134.589 59.1971 134.164C59.2587 134.147 59.2699 134.029 59.1915 134.035Z" fill="#011627"/>
<path d="M45.5559 138.591C45.2128 138.338 44.9461 137.995 44.7851 137.6C44.6241 137.204 44.575 136.773 44.6431 136.351C44.7484 135.937 45.0038 135.575 45.3599 135.338C45.7859 135.11 46.2601 134.987 46.7431 134.979C46.4204 134.652 46.2043 134.234 46.1234 133.781C46.0424 133.329 46.1003 132.862 46.2895 132.443C46.5096 132.071 46.8646 131.798 47.2807 131.681C47.7618 131.558 48.2569 131.498 48.7535 131.502C48.5123 131.297 48.3223 131.038 48.1989 130.746C48.0754 130.454 48.0218 130.138 48.0423 129.822C48.0764 129.476 48.1928 129.142 48.3818 128.85C48.5708 128.558 48.8269 128.315 49.1287 128.142C49.8363 127.747 50.5882 127.436 51.3687 127.218C51.761 127.088 52.1369 126.914 52.4887 126.697C52.8632 126.438 53.1549 126.076 53.3287 125.655C53.3623 125.583 53.3679 125.655 53.3287 125.717C53.2182 126.004 53.0611 126.271 52.8639 126.507C52.6553 126.754 52.4142 126.973 52.1471 127.156C51.4741 127.546 50.7721 127.883 50.0471 128.164C49.4178 128.448 48.8986 128.93 48.5687 129.536C48.4265 129.853 48.3754 130.203 48.4208 130.547C48.4663 130.891 48.6067 131.216 48.8263 131.485C48.8313 131.492 48.8342 131.501 48.8347 131.51C48.8353 131.519 48.8335 131.528 48.8295 131.536C48.8255 131.544 48.8195 131.55 48.8121 131.555C48.8046 131.56 48.796 131.563 48.7871 131.563C48.3454 131.627 47.9142 131.75 47.5047 131.927C47.164 132.077 46.8769 132.327 46.6815 132.644C46.5149 133.029 46.4526 133.451 46.5007 133.868C46.5489 134.285 46.7059 134.682 46.9559 135.019C46.4896 135.127 46.0461 135.317 45.6455 135.579C45.382 135.792 45.1872 136.078 45.0855 136.402C44.9744 136.768 44.9679 137.159 45.0669 137.529C45.1658 137.899 45.3662 138.234 45.6455 138.496C45.6469 138.506 45.6469 138.515 45.6455 138.524C45.6455 138.524 45.6455 138.524 45.6455 138.552C45.6455 138.552 45.2031 138.827 45.1751 138.832C45.2958 138.742 45.4231 138.662 45.5559 138.591Z" fill="#011627"/>
<path d="M58.4921 114.84L49.9297 110.097C49.9297 110.097 58.6545 104.306 62.7089 102.643C66.7633 100.98 66.8529 104.906 58.4921 114.84Z" fill="#011627"/>
<path d="M66.9814 100.766C65.6206 101.326 65.2398 102.301 65.6654 103.443C66.1358 104.726 70.0726 107.218 71.7078 106.378C73.119 105.65 71.8982 102.273 71.1478 101.511C70.5809 101.03 69.8968 100.708 69.165 100.577C68.4332 100.447 67.6798 100.512 66.9814 100.766Z" fill="#011627"/>
<path d="M66.0794 103.146C66.2866 103.611 69.2154 106.305 71.4106 105.767C72.1274 105.588 71.3378 101.646 71.3378 101.646V101.338L71.4498 97.076L66.0794 94.9368L65.3066 94.668C65.3066 94.668 65.3514 95.8328 65.4242 97.2888C65.4242 97.356 65.4242 97.4232 65.4242 97.496C65.4242 97.5688 65.4242 97.6528 65.4242 97.7312C65.4242 97.9496 65.4242 98.1736 65.4522 98.392C65.4802 98.6104 65.4522 98.7224 65.4914 98.9016C65.5306 99.0808 65.4914 99.2488 65.5306 99.428C65.6264 100.679 65.8098 101.921 66.0794 103.146Z" fill="#774442"/>
<path d="M65.4018 97.2888C66.0362 98.3589 66.8965 99.2777 67.9228 99.9809C68.949 100.684 70.1164 101.155 71.3434 101.36L71.4554 97.0984L66.0794 94.9368L65.3066 94.668C65.3066 94.668 65.329 95.8328 65.4018 97.2888Z" fill="#011627"/>
<path d="M76.4461 90.4895C77.5157 97.8983 73.2037 99.3711 71.6021 99.6007C70.1517 99.8079 65.1901 100.334 63.3589 93.0767C61.5277 85.8191 64.6357 82.9967 67.9285 82.3303C71.2213 81.6639 75.3765 83.0807 76.4461 90.4895Z" fill="#774442"/>
<path d="M74.4803 88.7071C74.308 88.7072 74.1359 88.696 73.9651 88.6735C73.7812 88.6901 73.5972 88.6426 73.4443 88.5391C73.4016 88.4989 73.3739 88.4454 73.3658 88.3874C73.3576 88.3293 73.3695 88.2702 73.3995 88.2199C73.471 88.1263 73.5666 88.054 73.6761 88.0106C73.7856 87.9672 73.9049 87.9543 74.0211 87.9735C74.2615 87.9735 74.4932 88.0634 74.6707 88.2255C74.7081 88.265 74.7335 88.3143 74.7438 88.3677C74.7542 88.4211 74.749 88.4764 74.729 88.527C74.709 88.5776 74.675 88.6214 74.6309 88.6533C74.5869 88.6852 74.5346 88.7039 74.4803 88.7071Z" fill="#011627"/>
<path d="M69.5064 89.6258C69.6699 89.5744 69.8307 89.5146 69.988 89.4466C70.1688 89.4084 70.332 89.312 70.4528 89.1722C70.4806 89.1199 70.4907 89.06 70.4816 89.0014C70.4726 88.9429 70.4448 88.8889 70.4024 88.8474C70.3064 88.7796 70.194 88.7387 70.0768 88.7289C69.9597 88.719 69.8421 88.7406 69.736 88.7914C69.5031 88.8591 69.3036 89.0107 69.176 89.217C69.1497 89.2665 69.1385 89.3226 69.1439 89.3783C69.1492 89.4341 69.1708 89.4871 69.2061 89.5307C69.2413 89.5742 69.2885 89.6065 69.3419 89.6234C69.3953 89.6403 69.4526 89.6412 69.5064 89.6258Z" fill="#011627"/>
<path d="M71.0182 91.2773C71.0182 91.2773 70.979 91.3109 70.9846 91.3277C71.0854 91.8317 71.119 92.4197 70.6934 92.6605C70.6934 92.6605 70.6934 92.6941 70.6934 92.6885C71.2422 92.5205 71.1918 91.7365 71.0182 91.2773Z" fill="#011627"/>
<path d="M70.4812 90.8298C69.6636 90.9082 69.8708 92.5378 70.6324 92.465C71.394 92.3922 71.1644 90.7682 70.4812 90.8298Z" fill="#011627"/>
<path d="M70.1732 90.9587C70.0388 91.0707 69.9212 91.2499 69.7532 91.2891C69.5852 91.3283 69.3836 91.1827 69.2324 91.0371C69.2716 91.3507 69.434 91.6531 69.7924 91.6587C70.1508 91.6643 70.2852 91.3563 70.3524 91.0315C70.2852 90.9923 70.2236 90.9139 70.1732 90.9587Z" fill="#011627"/>
<path d="M73.7846 90.7188C73.7846 90.7188 73.8294 90.7188 73.8294 90.758C73.8742 91.2676 74.0142 91.8388 74.4902 91.9564V91.9843C73.919 91.9507 73.7454 91.1836 73.7846 90.7188Z" fill="#011627"/>
<path d="M74.1717 90.113C74.9781 89.9506 75.2413 91.5746 74.4965 91.7258C73.7517 91.877 73.4997 90.2474 74.1717 90.113Z" fill="#011627"/>
<path d="M74.531 90.1581C74.671 90.2253 74.8278 90.3597 74.979 90.3485C75.1302 90.3373 75.2646 90.1301 75.3486 89.9453C75.4102 90.2533 75.3486 90.5893 75.0686 90.7013C74.7886 90.8133 74.5646 90.5613 74.4414 90.2645C74.4414 90.2309 74.4806 90.1581 74.531 90.1581Z" fill="#011627"/>
<path d="M71.455 95.3828C71.5838 95.4892 71.7238 95.646 71.9086 95.646C72.1055 95.6288 72.2964 95.5696 72.4686 95.4724C72.4042 95.5783 72.3126 95.6649 72.2032 95.723C72.0938 95.7812 71.9707 95.8087 71.847 95.8028C71.7422 95.7825 71.6455 95.7327 71.5681 95.6593C71.4907 95.5859 71.4359 95.4919 71.4102 95.3884L71.455 95.3828Z" fill="#011627"/>
<path d="M73.309 93.2617C73.309 93.2617 73.5161 94.0009 73.5665 94.3817C73.5665 94.4153 73.4882 94.4433 73.3706 94.4713C73.0732 94.5688 72.755 94.5833 72.45 94.5132C72.1451 94.4431 71.8651 94.2912 71.6401 94.0737C71.6345 94.067 71.6312 94.0586 71.6309 94.0498C71.6306 94.0411 71.6332 94.0324 71.6384 94.0253C71.6435 94.0182 71.6509 94.0131 71.6594 94.0107C71.6678 94.0083 71.6768 94.0088 71.6849 94.0121C72.1822 94.2591 72.7457 94.3396 73.2922 94.2417C73.2922 94.1353 72.8889 92.9873 72.9449 92.9761C73.2248 92.9612 73.5055 92.9838 73.7793 93.0433C73.3873 91.4921 72.7433 90.0137 72.3793 88.4625C72.3789 88.4519 72.3819 88.4415 72.3877 88.4327C72.3936 88.4238 72.4021 88.4171 72.412 88.4134C72.4219 88.4096 72.4328 88.4091 72.443 88.4119C72.4532 88.4147 72.4623 88.4207 72.469 88.4289C73.2024 89.9899 73.7783 91.6201 74.1881 93.2953C74.2273 93.4633 73.4602 93.3009 73.309 93.2617Z" fill="#011627"/>
<path d="M63.3517 92.4712C65.1101 92.348 64.8805 89.5816 64.8805 89.5816C64.8805 89.5816 66.8629 89.2456 66.7565 86.02C67.1946 86.6355 67.7696 87.141 68.4362 87.4966C69.1028 87.8523 69.8429 88.0484 70.5981 88.0696C71.1581 88.1088 69.1477 86.776 69.1477 86.776C69.1477 86.776 71.6061 88.68 75.8061 87.56C76.1029 87.4816 75.4085 82.5704 71.9421 81.2992C68.4757 80.028 65.2221 81.5904 63.3349 83.8584C63.3349 83.8584 60.9717 85.1744 60.8765 87.5208C60.7813 89.8672 62.6685 92.516 63.3517 92.4712Z" fill="#011627"/>
<path d="M69.9992 94.1636C69.5494 94.1894 69.1014 94.0886 68.7061 93.8725C68.3108 93.6564 67.9841 93.3338 67.763 92.9413C67.5419 92.5487 67.4354 92.1021 67.4555 91.652C67.4756 91.202 67.6216 90.7666 67.8768 90.3954C68.1321 90.0241 68.4863 89.7319 68.8993 89.552C69.3123 89.3721 69.7675 89.3116 70.2131 89.3774C70.6588 89.4433 71.0771 89.6328 71.4204 89.9245C71.7637 90.2163 72.0182 90.5984 72.1552 91.0276C72.268 91.3775 72.299 91.7486 72.2458 92.1124C72.1926 92.4761 72.0566 92.8228 71.8483 93.1258C71.6401 93.4287 71.3651 93.6798 71.0445 93.8597C70.7239 94.0397 70.3663 94.1436 69.9992 94.1636ZM69.736 89.6836C69.3017 89.7096 68.8864 89.8706 68.5481 90.144C68.2097 90.4175 67.9652 90.7897 67.8486 91.2088C67.732 91.628 67.7492 92.073 67.8977 92.4819C68.0463 92.8908 68.3188 93.2431 68.6772 93.4897C69.0356 93.7362 69.4621 93.8647 69.8971 93.8571C70.332 93.8496 70.7538 93.7065 71.1035 93.4477C71.4532 93.1889 71.7134 92.8274 71.8477 92.4136C71.982 91.9998 71.9838 91.5544 71.8528 91.1396C71.7156 90.6976 71.4354 90.3136 71.0563 90.048C70.6773 89.7825 70.2207 89.6504 69.7584 89.6724L69.736 89.6836Z" fill="#FDC500"/>
<path d="M75.4647 93.1733C74.5463 93.2293 73.6559 92.3333 73.4319 91.0957C73.3194 90.5053 73.3938 89.8946 73.6447 89.3485C73.7376 89.1071 73.8913 88.8938 74.0909 88.7294C74.2905 88.5649 74.5291 88.4548 74.7838 88.4097C75.0385 88.3646 75.3005 88.3861 75.5444 88.4721C75.7883 88.5581 76.0058 88.7057 76.1759 88.9005C76.598 89.3274 76.8761 89.8757 76.9711 90.4685C77.2007 91.7789 76.5959 92.9829 75.6215 93.1565C75.57 93.1676 75.5174 93.1732 75.4647 93.1733ZM74.9607 88.6933H74.8375C74.6308 88.74 74.4389 88.8371 74.2787 88.9758C74.1185 89.1145 73.995 89.2906 73.9191 89.4885C73.7018 89.9749 73.6392 90.5165 73.7399 91.0397C73.9415 92.1597 74.7535 92.9829 75.5543 92.8373C76.3551 92.6917 76.8423 91.6613 76.6407 90.5245C76.5564 89.9987 76.312 89.5118 75.9407 89.1301C75.8147 88.9969 75.6627 88.891 75.4942 88.8187C75.3256 88.7465 75.1441 88.7095 74.9607 88.7101V88.6933Z" fill="#FDC500"/>
<path d="M72.1507 91.3166L71.9043 91.1094C72.2067 90.7398 72.9683 90.191 73.6571 90.7062L73.4667 90.9638C72.8507 90.499 72.1787 91.2774 72.1507 91.3166Z" fill="#FDC500"/>
<path d="M61.6791 93.7922L61.3711 93.697C61.4159 93.557 61.8303 92.2914 62.4911 92.0506C63.1519 91.8098 67.4583 91.4906 67.6431 91.457V91.7818C66.3999 91.8826 63.0679 92.1794 62.5695 92.3418C62.0711 92.5042 61.7911 93.445 61.6791 93.7922Z" fill="#FDC500"/>
<path d="M64.6171 93.474C64.6171 93.474 62.8531 91.234 61.8171 91.878C60.7811 92.522 62.2091 95.8316 63.4971 96.2236C63.6579 96.2891 63.8306 96.3208 64.0042 96.3167C64.1778 96.3126 64.3488 96.2728 64.5064 96.1998C64.6639 96.1268 64.8048 96.0221 64.9202 95.8923C65.0356 95.7625 65.123 95.6103 65.1771 95.4452L64.6171 93.474Z" fill="#774442"/>
<path d="M63.4919 84.8611C64.5503 84.0211 66.8071 78.1019 61.7055 75.4979C56.6039 72.8939 50.9591 79.5187 54.7447 84.0771C57.2927 87.1347 61.2519 86.6419 63.4919 84.8611Z" fill="#011627"/>
<path d="M233.475 204.194C237.495 195.929 244.529 191.69 252.453 194.03C260.377 196.371 261.609 207.431 255.69 210.22C249.771 213.009 243.857 204.861 240.732 203.186C237.607 201.512 233.475 204.194 233.475 204.194Z" fill="#80DF12"/>
<path d="M229.6 226.185C229.6 225.188 229.662 224.192 229.696 223.195C229.768 221.207 229.836 219.219 229.908 217.231C230.043 213.596 230.435 210.024 231.941 206.669C233.272 203.629 235.497 201.066 238.32 199.322C239.37 198.692 240.5 198.206 241.68 197.877C242.75 196.795 244.112 196.048 245.6 195.727C247.444 195.353 249.339 195.306 251.2 195.587C251.267 195.587 251.267 195.704 251.2 195.693C249.434 195.47 247.641 195.597 245.924 196.068C245.189 196.272 244.476 196.549 243.796 196.897C243.37 197.128 242.961 197.388 242.57 197.676C244.169 197.343 245.821 197.359 247.414 197.72C247.988 197.862 248.55 198.049 249.094 198.28C249.528 198.188 249.972 198.15 250.416 198.168C250.994 198.189 251.569 198.271 252.129 198.415C253.277 198.74 254.375 199.218 255.394 199.837C255.45 199.871 255.394 199.96 255.338 199.927C254.337 199.381 253.264 198.978 252.152 198.728C251.614 198.606 251.067 198.525 250.516 198.488C250.214 198.471 249.911 198.471 249.609 198.488C251.869 199.529 253.685 201.339 254.733 203.595C254.761 203.656 254.666 203.707 254.644 203.645C254.019 202.337 253.107 201.186 251.975 200.279C250.844 199.373 249.522 198.733 248.108 198.409C247.935 198.364 247.756 198.342 247.582 198.303C247.644 198.56 247.632 198.863 247.666 199.104C247.716 199.507 247.784 199.904 247.868 200.302C248.029 201.122 248.244 201.93 248.512 202.721C248.78 203.523 249.1 204.307 249.469 205.068C249.83 205.863 250.281 206.615 250.813 207.308C250.858 207.364 250.768 207.431 250.729 207.369C250.253 206.624 249.699 205.936 249.262 205.129C248.845 204.391 248.486 203.621 248.187 202.828C247.885 202.021 247.649 201.192 247.481 200.347C247.392 199.904 247.324 199.456 247.274 199.003C247.218 198.734 247.201 198.459 247.224 198.185C246.297 198.045 245.355 198.026 244.424 198.129C244.776 200.1 245.157 202.15 246.26 203.864C246.294 203.92 246.199 203.976 246.165 203.914C245.649 203.013 245.194 202.077 244.804 201.114C244.421 200.196 244.167 199.229 244.048 198.241C242.413 198.461 240.833 198.989 239.395 199.798C236.686 201.375 234.524 203.741 233.196 206.58C231.8 209.636 231.02 212.938 230.9 216.296C230.636 220.518 230.58 224.763 230.16 228.974C230.132 229.248 229.696 229.344 229.645 229.03C229.539 228.085 229.524 227.133 229.6 226.185Z" fill="#011627"/>
<path d="M238.873 198.659C239.138 198.338 239.445 198.054 239.786 197.814C240.116 197.545 240.452 197.282 240.805 197.041C241.503 196.564 242.275 196.207 243.09 195.982C243.103 195.979 243.117 195.98 243.129 195.987C243.141 195.994 243.15 196.005 243.154 196.019C243.158 196.032 243.156 196.046 243.149 196.059C243.142 196.071 243.131 196.079 243.118 196.083C242.301 196.296 241.538 196.677 240.878 197.203C240.542 197.45 240.222 197.713 239.909 197.987C239.628 198.278 239.318 198.541 238.985 198.771C238.977 198.779 238.969 198.784 238.959 198.788C238.949 198.792 238.939 198.794 238.929 198.794C238.918 198.794 238.908 198.792 238.898 198.788C238.889 198.784 238.88 198.779 238.873 198.771C238.865 198.764 238.86 198.755 238.856 198.745C238.852 198.736 238.85 198.726 238.85 198.715C238.85 198.705 238.852 198.694 238.856 198.685C238.86 198.675 238.865 198.667 238.873 198.659Z" fill="#011627"/>
<path d="M251.703 201.657C252.368 202.43 252.983 203.243 253.546 204.093C254.094 204.951 254.554 205.863 254.918 206.815C254.918 206.843 254.884 206.86 254.867 206.815C253.947 205.017 252.862 203.309 251.625 201.713C251.58 201.674 251.658 201.601 251.703 201.657Z" fill="#011627"/>
<path d="M243.04 200.841C243.124 201.358 243.276 201.861 243.494 202.337C243.713 202.796 243.968 203.238 244.255 203.658C244.255 203.686 244.255 203.714 244.21 203.692C243.518 202.894 243.074 201.911 242.934 200.864C242.945 200.797 243.04 200.774 243.04 200.841Z" fill="#011627"/>
<path d="M230.16 204.401C230.16 204.401 224.47 197.249 213.489 199.781C203.045 202.194 198.229 221.335 208.779 223.625C219.33 225.916 217.47 208.203 221.312 205.196C224.118 202.984 228.172 203.46 230.16 204.401Z" fill="#80DF12"/>
<path opacity="0.1" d="M230.16 204.401C230.16 204.401 224.47 197.249 213.489 199.781C203.045 202.194 198.229 221.335 208.779 223.625C219.33 225.916 217.47 208.203 221.312 205.196C224.118 202.984 228.172 203.46 230.16 204.401Z" fill="#2E2E2E"/>
<path d="M204.987 210.23C205.696 209.606 206.444 209.028 207.227 208.5C207.972 207.989 208.784 207.583 209.641 207.296C210.847 205.448 212.475 203.913 214.39 202.816C214.281 202.811 214.173 202.811 214.065 202.816C213.483 202.785 212.9 202.785 212.318 202.816C211.146 202.888 209.998 203.175 208.93 203.662C208.868 203.662 208.823 203.589 208.885 203.566C209.962 203.096 211.089 202.752 212.245 202.542C212.811 202.443 213.384 202.394 213.958 202.396C214.266 202.396 214.58 202.396 214.882 202.452H215.062C216.069 201.946 217.131 201.555 218.226 201.287L217.923 201.209C217.386 201.086 216.842 200.996 216.294 200.94C215.2 200.814 214.095 200.831 213.006 200.99C212.995 200.987 212.986 200.98 212.979 200.97C212.972 200.961 212.968 200.949 212.968 200.937C212.968 200.925 212.972 200.914 212.979 200.904C212.986 200.895 212.995 200.888 213.006 200.884C214.108 200.752 215.219 200.708 216.327 200.75C217.257 200.78 218.181 200.9 219.088 201.108C219.751 200.989 220.42 200.913 221.093 200.878C224.923 200.722 229.095 202.15 231.453 205.297C233.81 208.444 234.253 212.655 234.69 216.452C235.333 221.749 235.474 227.094 235.11 232.418C235.11 232.731 234.645 232.675 234.634 232.378C234.494 227.865 234.331 223.351 233.9 218.849C233.698 216.766 233.48 214.677 233.133 212.61C232.881 210.834 232.372 209.104 231.621 207.475C230.802 205.812 229.513 204.426 227.914 203.488C226.304 202.568 224.51 202.017 222.661 201.875C221.004 201.738 219.336 201.893 217.733 202.334C217.79 202.656 217.799 202.984 217.761 203.309C217.726 203.716 217.645 204.118 217.52 204.507C217.399 204.875 217.246 205.231 217.061 205.571C216.854 205.952 216.602 206.288 216.372 206.646C216.338 206.708 216.243 206.646 216.288 206.59C216.753 205.942 217.054 205.191 217.167 204.401C217.234 204.031 217.279 203.657 217.302 203.281C217.302 202.995 217.302 202.721 217.302 202.43C215.559 202.965 213.933 203.824 212.508 204.961C212.239 205.179 211.982 205.403 211.73 205.638C212.091 205.966 212.404 206.343 212.659 206.758C213.036 207.308 213.363 207.889 213.639 208.494C214.147 209.718 214.488 211.005 214.653 212.319C214.653 212.386 214.558 212.403 214.552 212.319C214.349 211.05 213.926 209.826 213.303 208.702C213.012 208.144 212.687 207.606 212.329 207.089C212.144 206.826 211.948 206.562 211.769 206.31C211.662 206.176 211.539 206.036 211.438 205.89C210.142 207.175 209.086 208.681 208.319 210.337C208.836 210.886 209.269 211.509 209.602 212.185C209.997 212.893 210.341 213.629 210.632 214.386C211.164 215.849 211.602 217.346 211.942 218.866C211.942 218.927 211.853 218.95 211.842 218.866C211.508 217.336 210.985 215.853 210.285 214.453C209.956 213.762 209.609 213.085 209.243 212.42C208.864 211.8 208.52 211.159 208.213 210.499C207.478 212.102 207.052 213.829 206.958 215.59C206.958 215.657 206.846 215.646 206.852 215.59C207.053 212.831 207.897 210.158 209.316 207.783C208.65 208.069 207.972 208.343 207.328 208.69C206.502 209.129 205.735 209.669 205.043 210.298C205.004 210.359 204.959 210.275 204.987 210.23Z" fill="#011627"/>
<path d="M213.042 210.639C213.372 211.719 213.787 212.772 214.084 213.87C214.388 214.921 214.552 216.007 214.571 217.101C214.571 217.129 214.52 217.129 214.52 217.101C214.221 214.907 213.693 212.751 212.947 210.667C212.943 210.66 212.942 210.653 212.941 210.645C212.941 210.638 212.943 210.631 212.946 210.624C212.949 210.617 212.953 210.611 212.958 210.606C212.964 210.601 212.971 210.598 212.978 210.596C212.985 210.594 212.992 210.593 212.999 210.594C213.007 210.595 213.014 210.598 213.02 210.602C213.026 210.606 213.031 210.612 213.035 210.618C213.039 210.624 213.041 210.631 213.042 210.639Z" fill="#011627"/>
<path d="M206.081 207.948C206.513 207.533 207.003 207.184 207.537 206.912C208.079 206.664 208.641 206.463 209.217 206.312C209.284 206.313 209.307 206.402 209.217 206.419C208.648 206.567 208.102 206.791 207.593 207.085C207.075 207.355 206.577 207.662 206.103 208.004C206.097 208.003 206.091 208.001 206.086 207.997C206.081 207.994 206.077 207.989 206.075 207.983C206.072 207.977 206.072 207.97 206.073 207.964C206.074 207.958 206.077 207.952 206.081 207.948Z" fill="#011627"/>
<path d="M224.74 194.843C224.74 194.843 223.687 181.997 214.133 177.831C206.159 174.353 201.589 183.313 207.229 188.801C211.793 193.242 219.106 191.237 224.74 194.843Z" fill="#80DF12"/>
<path opacity="0.1" d="M224.74 194.843C224.74 194.843 223.687 181.997 214.133 177.831C206.159 174.353 201.589 183.313 207.229 188.801C211.793 193.242 219.106 191.237 224.74 194.843Z" fill="#2E2E2E"/>
<path d="M208.998 180.321C210.45 180.909 211.867 181.58 213.242 182.331C214.386 182.992 215.488 183.723 216.541 184.521C216.384 184.196 216.244 183.86 216.087 183.541C215.835 183.043 215.572 182.561 215.275 182.091C214.687 181.118 213.98 180.223 213.17 179.425C213.119 179.38 213.17 179.302 213.248 179.352C214.053 180.15 214.793 181.011 215.46 181.928C215.791 182.395 216.093 182.882 216.367 183.384C216.65 183.845 216.867 184.342 217.011 184.863L217.118 184.941C218.785 186.277 220.314 187.778 221.682 189.421C221.654 189.298 221.626 189.169 221.592 189.051C221.413 188.424 221.222 187.808 221.032 187.187C220.62 185.869 220.04 184.61 219.307 183.44C219.268 183.384 219.363 183.328 219.397 183.39C220.147 184.559 220.815 185.779 221.396 187.041C221.661 187.659 221.882 188.296 222.057 188.945C222.195 189.365 222.298 189.796 222.365 190.233C222.785 190.759 223.194 191.291 223.58 191.84C227.679 197.681 229.74 204.72 230.233 211.804C230.377 213.912 230.413 216.026 230.339 218.138C230.324 220.266 230.136 222.39 229.779 224.488C229.751 224.623 229.544 224.583 229.55 224.455C229.594 222.595 229.79 220.747 229.824 218.888C229.858 217.029 229.796 215.164 229.645 213.288C229.342 209.581 228.643 205.916 227.562 202.357C226.446 198.712 224.803 195.25 222.684 192.081C222.286 192.003 221.883 191.891 221.491 191.79L220.08 191.409C219.164 191.17 218.273 190.841 217.42 190.429C217.358 190.401 217.42 190.306 217.476 190.339C218.318 190.798 219.23 191.114 220.175 191.275C220.92 191.42 221.698 191.521 222.449 191.689C221.754 190.681 221.008 189.709 220.209 188.771C218.388 188.938 216.553 188.801 214.777 188.368C213.826 188.139 212.891 187.849 211.977 187.5C211.019 187.131 210.112 186.655 209.177 186.263C209.104 186.235 209.177 186.128 209.216 186.167C210.927 187.101 212.795 187.712 214.726 187.971C216.432 188.244 218.156 188.386 219.884 188.396C219.201 187.618 218.501 186.862 217.756 186.156C215.247 183.771 212.262 181.57 208.958 180.427C208.88 180.394 208.936 180.321 208.998 180.321Z" fill="#011627"/>
<path d="M216.77 180.354C217.2 180.897 217.591 181.47 217.941 182.068C218.298 182.697 218.58 183.366 218.781 184.061C218.781 184.061 218.753 184.095 218.747 184.061C218.428 183.429 218.159 182.773 217.834 182.146C217.526 181.528 217.15 180.946 216.714 180.41C216.653 180.377 216.72 180.321 216.77 180.354Z" fill="#011627"/>
<path d="M207.889 184.632C208.509 184.974 209.164 185.248 209.843 185.45C210.498 185.676 211.166 185.863 211.843 186.01V186.066C211.139 185.991 210.446 185.838 209.776 185.612C209.114 185.364 208.469 185.074 207.844 184.744C207.76 184.694 207.827 184.598 207.889 184.632Z" fill="#011627"/>
<path d="M232.164 192.529C232.22 193.089 233.609 187.864 241.684 183.228C249.02 179.022 257.773 168.074 250.583 161.158C244.775 155.575 229.482 167.744 232.164 192.529Z" fill="#80DF12"/>
<path d="M226.605 222.462C226.721 217.028 227.149 211.606 227.887 206.222C228.518 201.272 229.656 196.401 231.281 191.684C231.88 190.004 232.569 188.324 233.313 186.644C233.271 186.004 233.282 185.361 233.347 184.723C233.386 183.9 233.459 183.077 233.537 182.259C233.616 181.442 233.694 180.618 233.795 179.801C233.896 178.983 234.064 178.166 234.097 177.348C234.097 177.275 234.221 177.292 234.198 177.348C234.039 178.208 233.943 179.078 233.913 179.952C233.851 180.742 233.806 181.537 233.778 182.332C233.75 183.127 233.778 183.922 233.778 184.718C233.778 185.003 233.778 185.306 233.806 185.614C234.568 184.006 235.38 182.427 236.265 180.887C235.705 177.527 236.427 174.038 237.11 170.762C237.11 170.701 237.222 170.729 237.211 170.796C236.874 172.506 236.696 174.244 236.679 175.987C236.645 177.359 236.713 178.737 236.718 180.109C236.909 179.778 237.105 179.448 237.278 179.123C238.327 177.417 239.447 175.746 240.638 174.111C240.544 173.317 240.57 172.512 240.717 171.726C240.851 170.843 241.047 169.971 241.305 169.116C241.562 168.259 241.865 167.436 242.201 166.596C242.537 165.756 243.013 164.944 243.354 164.093C243.355 164.085 243.358 164.078 243.363 164.072C243.367 164.066 243.373 164.06 243.38 164.057C243.387 164.053 243.394 164.051 243.402 164.051C243.409 164.051 243.417 164.052 243.424 164.055C243.431 164.058 243.437 164.063 243.442 164.069C243.447 164.074 243.451 164.081 243.453 164.089C243.455 164.096 243.455 164.104 243.453 164.111C243.452 164.119 243.448 164.126 243.444 164.132C243.018 164.939 242.68 165.79 242.436 166.669C242.168 167.494 241.947 168.333 241.775 169.183C241.601 170.029 241.461 170.863 241.344 171.742C241.265 172.302 241.215 172.902 241.12 173.473C242.848 171.151 244.736 168.952 246.77 166.893C246.821 166.842 246.888 166.921 246.843 166.966C243.765 170.426 241.017 174.167 238.633 178.138C238.544 178.289 238.46 178.44 238.376 178.591C238.818 178.311 239.328 178.087 239.748 177.858C240.532 177.421 241.318 176.99 242.105 176.564L244.39 175.31C244.782 175.091 245.169 174.867 245.566 174.666C246.044 174.449 246.502 174.195 246.938 173.904C247 173.859 247.061 173.954 247 173.988C246.221 174.414 245.533 175.052 244.76 175.528C243.987 176.004 243.27 176.514 242.481 176.962C241.047 177.762 239.485 178.339 238.073 179.168C237.095 180.885 236.19 182.642 235.357 184.438C236.212 183.889 237.086 183.366 237.978 182.87C238.538 182.55 239.098 182.231 239.709 181.929C240.285 181.662 240.83 181.331 241.333 180.943C241.343 180.938 241.356 180.936 241.367 180.939C241.379 180.941 241.39 180.947 241.398 180.956C241.406 180.964 241.411 180.975 241.413 180.987C241.414 180.999 241.411 181.011 241.405 181.022C240.466 181.868 239.423 182.592 238.303 183.178C237.267 183.788 236.214 184.37 235.139 184.902C234.271 186.79 233.493 188.722 232.798 190.682C229.399 200.308 228.15 210.528 227.551 220.675C227.377 223.705 227.282 226.723 227.249 229.758C227.215 232.794 227.366 235.806 227.361 238.83C227.361 238.92 227.215 238.942 227.204 238.83C226.84 236.148 226.773 233.421 226.644 230.716C226.515 228.011 226.543 225.211 226.605 222.462Z" fill="#011627"/>
<path d="M241.276 178.878C242.753 178.221 244.188 177.473 245.571 176.638C246.974 175.846 248.335 174.983 249.648 174.051C249.648 174.051 249.693 174.051 249.676 174.09C248.433 175.089 247.124 176.002 245.756 176.823C244.324 177.624 242.842 178.335 241.321 178.951C241.265 178.996 241.215 178.906 241.276 178.878Z" fill="#011627"/>
<path d="M238.935 167.999C239.058 167.529 239.204 167.07 239.366 166.61C239.362 166.607 239.359 166.602 239.357 166.598C239.355 166.593 239.354 166.588 239.354 166.582C239.354 166.577 239.355 166.572 239.357 166.567C239.359 166.562 239.362 166.558 239.366 166.554C239.467 166.297 239.573 166.039 239.68 165.782L239.719 165.686L239.781 165.535C239.753 165.625 239.73 165.714 239.702 165.804C239.692 165.853 239.679 165.902 239.663 165.95C239.127 167.746 238.726 169.581 238.465 171.438C238.465 171.494 238.364 171.494 238.369 171.438C238.449 170.276 238.638 169.125 238.935 167.999Z" fill="#011627"/>
<path d="M218.07 224.41L218.647 231.242L220.411 252.08H239.311L241.075 231.242L241.652 224.41H218.07Z" fill="#664EFE"/>
<path d="M218.07 224.41L218.647 231.242H241.075L241.652 224.41H218.07Z" fill="#011627"/>
<path d="M216.16 228.312H243.449V221.76H216.16V228.312Z" fill="#664EFE"/>
<path d="M138.384 89.5597C137.856 89.5597 137.363 89.5149 136.906 89.4253C136.449 89.3357 136.046 89.2013 135.696 89.0221C135.356 88.834 135.092 88.5965 134.903 88.3098C134.715 88.0141 134.621 87.6647 134.621 87.2615C134.621 87.136 134.63 87.0016 134.648 86.8583C134.666 86.706 134.693 86.5716 134.729 86.4551H136.221C136.203 86.5357 136.18 86.6298 136.153 86.7373C136.135 86.8448 136.126 86.9389 136.126 87.0196C136.126 87.3063 136.216 87.5437 136.395 87.7319C136.574 87.92 136.825 88.0589 137.148 88.1485C137.47 88.2292 137.847 88.2695 138.277 88.2695C138.698 88.2695 139.065 88.2381 139.379 88.1754C139.693 88.1037 139.957 88.0052 140.172 87.8797C140.387 87.7453 140.548 87.5885 140.656 87.4093C140.763 87.2212 140.817 87.0151 140.817 86.7911C140.817 86.5671 140.75 86.3789 140.615 86.2266C140.49 86.0653 140.32 85.9264 140.105 85.81C139.89 85.6935 139.643 85.5904 139.365 85.5008C139.097 85.4112 138.814 85.3261 138.519 85.2455C138.178 85.138 137.838 85.026 137.497 84.9095C137.157 84.784 136.843 84.6272 136.557 84.4391C136.279 84.2509 136.055 84.0224 135.885 83.7536C135.723 83.4848 135.643 83.1533 135.643 82.7591C135.643 82.2842 135.741 81.8765 135.938 81.536C136.144 81.1956 136.422 80.9133 136.772 80.6893C137.121 80.4653 137.524 80.2996 137.981 80.192C138.438 80.0756 138.922 80.0173 139.433 80.0173C139.934 80.0173 140.391 80.0621 140.804 80.1517C141.225 80.2413 141.592 80.3757 141.906 80.5549C142.219 80.7252 142.461 80.9492 142.631 81.2269C142.802 81.4957 142.887 81.8138 142.887 82.1812C142.887 82.2618 142.882 82.3559 142.873 82.4634C142.864 82.5709 142.846 82.6964 142.82 82.8397H141.328C141.355 82.7412 141.373 82.6605 141.381 82.5978C141.39 82.5351 141.395 82.4813 141.395 82.4365C141.395 82.0692 141.225 81.7869 140.884 81.5898C140.553 81.3927 140.082 81.2941 139.473 81.2941C139.034 81.2941 138.64 81.3434 138.29 81.442C137.941 81.5405 137.668 81.6839 137.47 81.872C137.273 82.0512 137.175 82.2797 137.175 82.5575C137.175 82.7456 137.224 82.9069 137.323 83.0413C137.43 83.1757 137.573 83.2922 137.753 83.3908C137.941 83.4893 138.151 83.5834 138.384 83.673C138.617 83.7536 138.864 83.8298 139.124 83.9015C139.491 84.018 139.863 84.1389 140.239 84.2644C140.624 84.3898 140.978 84.5466 141.301 84.7348C141.623 84.9229 141.883 85.1648 142.08 85.4605C142.277 85.7472 142.376 86.1012 142.376 86.5223C142.376 87.0688 142.264 87.5348 142.04 87.92C141.825 88.3053 141.529 88.6189 141.153 88.8608C140.777 89.1028 140.347 89.282 139.863 89.3984C139.388 89.506 138.895 89.5597 138.384 89.5597ZM147.67 89.5597C146.568 89.5597 145.713 89.3312 145.103 88.8743C144.503 88.4084 144.203 87.705 144.203 86.7642C144.203 86.6298 144.212 86.482 144.23 86.3207C144.248 86.1594 144.27 85.9981 144.297 85.8368L145.291 80.1786H146.783L145.775 85.9309C145.757 86.0116 145.739 86.1191 145.722 86.2535C145.704 86.3789 145.695 86.4909 145.695 86.5895C145.695 87.154 145.865 87.5796 146.205 87.8663C146.546 88.144 147.039 88.2829 147.684 88.2829C148.427 88.2829 149.041 88.0903 149.525 87.705C150.009 87.3197 150.318 86.7463 150.452 85.9847L151.474 80.1786H152.979L151.958 85.9444C151.814 86.7687 151.555 87.4496 151.178 87.9872C150.811 88.5248 150.331 88.9236 149.74 89.1834C149.158 89.4343 148.468 89.5597 147.67 89.5597ZM153.484 89.3984L155.11 80.1786H159.733C160.352 80.1786 160.862 80.2727 161.265 80.4608C161.669 80.64 161.969 80.8954 162.166 81.2269C162.363 81.5495 162.462 81.9392 162.462 82.3962C162.462 82.9517 162.372 83.44 162.193 83.8612C162.023 84.2823 161.776 84.6362 161.454 84.9229C161.14 85.2096 160.764 85.4336 160.325 85.5949L161.588 89.3984H160.002L158.86 85.8503H155.621L154.989 89.3984H153.484ZM155.849 84.5735H159.008C159.366 84.5735 159.688 84.4928 159.975 84.3316C160.262 84.1703 160.49 83.9418 160.661 83.6461C160.831 83.3504 160.916 82.9965 160.916 82.5844C160.916 82.226 160.808 81.9527 160.593 81.7645C160.378 81.5674 160.051 81.4688 159.612 81.4688H156.4L155.849 84.5735ZM165.511 89.3984L163.751 80.1786H165.283L166.318 85.81C166.363 86.0608 166.403 86.3117 166.439 86.5626C166.483 86.8135 166.524 87.042 166.56 87.248C166.595 87.4541 166.618 87.6244 166.627 87.7588H166.721C166.811 87.5616 166.918 87.3376 167.043 87.0868C167.178 86.8269 167.308 86.576 167.433 86.3341C167.559 86.0832 167.666 85.8816 167.756 85.7293L170.672 80.1786H172.272L167.272 89.3984H165.511ZM171.925 89.3984L173.537 80.1786H180.688L180.459 81.4688H174.828L174.371 84.0359H179.424L179.209 85.3261H174.129L173.645 88.1082H179.384L179.155 89.3984H171.925ZM183.615 89.3984L184.287 85.6084L181.639 80.1786H183.185L185.188 84.2778H185.268L188.669 80.1786H190.322L185.779 85.6084L185.12 89.3984H183.615Z" fill="#2E2E2E"/>
</svg>
