<svg width="185" height="185" viewBox="0 0 185 185" fill="none" xmlns="http://www.w3.org/2000/svg">
<g opacity="0.4">
<path d="M167.607 80.8434C167.063 79.6076 166.467 78.3792 165.872 77.1434C164.684 74.6644 163.5 72.141 162.483 69.5103C161.43 66.852 160.564 64.1234 159.893 61.3444C159.722 60.6414 159.574 59.931 159.43 59.2206C159.286 58.5102 159.167 57.7406 159.042 57.156C158.79 55.8943 158.479 54.6622 158.124 53.456C157.773 52.2816 157.359 51.1268 156.884 49.9965C156.44 48.9035 155.924 47.8406 155.342 46.8145C154.254 44.8484 152.922 43.0272 151.379 41.394C148.389 38.1824 144.46 35.9069 140.094 34.4676C139.006 34.0976 137.874 33.809 136.764 33.5611C136.201 33.439 135.654 33.3317 135.091 33.2355L134.089 33.0764C133.719 33.0135 133.349 32.9617 132.979 32.884C129.961 32.3247 127.005 31.4759 124.151 30.3495C121.405 29.217 118.746 27.8851 116.196 26.3646C113.768 24.9549 111.582 23.6303 109.391 22.5832C108.306 22.0579 107.194 21.5874 106.061 21.1735C105.499 20.9626 104.929 20.7739 104.356 20.5926L103.53 20.3484C103.286 20.2781 103.046 20.2078 102.79 20.1486C101.853 19.9112 100.89 19.787 99.9229 19.7786C99.0186 19.7827 98.1203 19.925 97.2589 20.2004C96.4161 20.4643 95.6367 20.8992 94.9696 21.4779C94.3024 22.0566 93.7617 22.7666 93.3813 23.5637C92.9511 24.4639 92.6998 25.439 92.6413 26.4349C92.5876 27.5453 92.6985 28.6575 92.9706 29.7353C93.6173 32.1145 94.747 34.335 96.2895 36.2584C97.862 38.2868 99.7629 40.0377 101.914 41.4384C104.125 42.8644 106.491 44.035 108.966 44.9275C111.463 45.8636 114.068 46.5962 116.736 47.3547C119.403 48.1132 122.156 48.905 124.924 50.3147C126.385 51.0419 127.738 51.9697 128.942 53.0712C129.253 53.3635 129.556 53.6706 129.849 53.9888C130.141 54.307 130.411 54.6548 130.663 54.9878C131.166 55.6538 131.602 56.3161 132.009 56.9784C133.495 59.4893 134.787 62.1104 135.872 64.8187C136.409 66.1174 136.927 67.4087 137.404 68.7037C137.881 69.9987 138.366 71.2937 138.814 72.5591C140.619 77.6799 142.229 82.7415 144.053 87.4849C144.909 89.7748 145.928 92.0005 147.102 94.1449C147.633 95.1158 148.252 96.036 148.952 96.894C149.275 97.2911 149.629 97.6623 150.01 98.004C150.191 98.1779 150.38 98.3259 150.569 98.4813L150.857 98.6959C150.964 98.7736 151.105 98.855 151.227 98.9327C153.177 100.215 155.417 100.986 157.743 101.175C159.504 101.273 161.257 100.868 162.797 100.009C163.321 99.7038 163.816 99.3522 164.277 98.9586C166.183 97.375 167.526 95.0218 168.251 92.4984C168.953 89.9211 169.147 87.2317 168.821 84.5804C168.586 83.2857 168.178 82.0287 167.607 80.8434ZM169.579 92.8166C169.067 95.6881 167.852 98.3881 166.042 100.675C165.559 101.264 165.025 101.809 164.447 102.303C163.863 102.817 163.232 103.275 162.564 103.672C161.192 104.485 159.69 105.054 158.124 105.352C156.552 105.654 154.944 105.727 153.351 105.567C151.783 105.41 150.236 105.085 148.737 104.597C148.548 104.535 148.367 104.483 148.171 104.409L147.546 104.165C147.139 103.994 146.741 103.802 146.354 103.591C145.594 103.184 144.867 102.716 144.182 102.192C143.516 101.695 142.886 101.153 142.295 100.568C141.707 100.002 141.167 99.4137 140.649 98.818C138.72 96.483 137.073 93.9283 135.743 91.2071C133.134 85.9753 131.436 80.6103 129.974 75.3267C129.604 74.0058 129.271 72.6849 128.938 71.3714L127.954 67.4716C127.617 66.1877 127.303 64.9075 126.944 63.6717C126.585 62.4359 126.237 61.2149 125.816 60.1012C125.605 59.5425 125.383 59.0097 125.15 58.5287C125.035 58.2882 124.916 58.0662 124.798 57.8479C124.68 57.6296 124.535 57.4113 124.391 57.1967C123.751 56.2832 122.98 55.468 122.104 54.7769C120.254 53.2969 117.868 52.087 115.407 51.0288C110.464 48.8754 105.073 47.1771 100.156 44.206C98.9211 43.4586 97.7302 42.6408 96.5892 41.7566C95.4407 40.8552 94.3553 39.8761 93.3406 38.8262C91.2144 36.6829 89.4767 34.1865 88.205 31.4484C87.5416 29.9587 87.0967 28.381 86.8841 26.7642C86.6509 25.0266 86.7463 23.2607 87.1653 21.5583C87.6105 19.7599 88.4342 18.0772 89.5814 16.6225C90.7451 15.1465 92.1948 13.9207 93.8438 13.0187C95.4573 12.1447 97.2098 11.5563 99.0238 11.2797C100.773 11.0101 102.553 10.9914 104.307 11.2242C104.74 11.276 105.162 11.3463 105.588 11.4203L106.698 11.6497C107.438 11.8162 108.178 11.9938 108.918 12.201C110.39 12.6087 111.84 13.0928 113.261 13.6514C116.088 14.7614 118.678 16.0823 121.068 17.233C123.293 18.3525 125.593 19.3168 127.95 20.119C130.222 20.8684 132.552 21.4241 134.918 21.7803L136.842 22.0615C137.637 22.1799 138.418 22.3168 139.191 22.4907C140.736 22.8189 142.259 23.2465 143.749 23.7709C146.778 24.8146 149.651 26.262 152.293 28.074C154.986 29.9203 157.375 32.1747 159.375 34.7562C161.345 37.3229 162.861 40.2089 163.855 43.2884C164.789 46.2375 165.296 49.305 165.361 52.3978C165.4 53.8791 165.355 55.3615 165.228 56.8378C165.169 57.6074 165.098 58.1957 165.039 58.858C164.98 59.5203 164.939 60.1604 164.917 60.8116C164.795 63.4536 164.938 66.1011 165.343 68.7148C165.561 70.032 165.816 71.3492 166.157 72.6516C166.497 73.954 166.897 75.2416 167.337 76.5292C167.777 77.8168 168.269 79.0859 168.743 80.3809C168.976 81.0284 169.217 81.6759 169.42 82.3493C169.643 83.0345 169.801 83.7395 169.89 84.4546C170.203 87.2413 170.104 90.059 169.594 92.8166H169.579Z" fill="#EBEBEB"/>
<path d="M52.704 160.151L50.3323 159.807C49.5405 159.688 48.7487 159.577 47.9569 159.437C47.1651 159.296 46.3733 159.17 45.5778 159.041C44.7823 158.911 43.9942 158.76 43.1987 158.619C39.9769 158.051 36.7936 157.282 33.6675 156.318C32.0599 155.809 30.4824 155.21 28.9426 154.523C27.3467 153.801 25.8144 152.946 24.362 151.966C23.6137 151.455 22.8913 150.907 22.1975 150.324C21.846 150.02 21.513 149.691 21.1726 149.373C21.0024 149.21 20.8285 149.051 20.662 148.881L20.1884 148.348C18.8553 146.892 17.7523 145.241 16.9176 143.453C16.7067 142.99 16.4995 142.528 16.3071 142.058C16.1147 141.588 15.9926 141.088 15.8372 140.6C15.7632 140.356 15.6818 140.112 15.6189 139.86L15.4598 139.12C15.3562 138.617 15.2415 138.114 15.1638 137.61L15.0121 136.093C14.9899 135.838 14.9566 135.583 14.9492 135.331V133.063C14.9825 132.571 15.0306 132.079 15.075 131.583C15.1619 130.607 15.3065 129.637 15.5079 128.679L15.6411 127.961L15.8187 127.265L16.1887 125.878C16.3071 125.408 16.4514 124.975 16.592 124.538C16.7326 124.102 16.8658 123.665 17.0212 123.221C17.3468 122.337 17.6539 121.456 18.0609 120.565C18.8419 118.696 19.8205 116.916 20.9802 115.255C22.1956 113.513 23.6293 111.934 25.2463 110.556C26.7691 109.282 28.4079 108.153 30.1414 107.185C31.7731 106.271 33.353 105.494 34.8922 104.806C37.9743 103.415 40.8862 102.187 43.7722 100.906C49.5165 98.3714 55.1004 95.4874 60.4925 92.2706L61.51 91.6638L62.5201 91.0385C63.1898 90.6167 63.8669 90.2097 64.5329 89.7768L68.6436 87.1202C69.354 86.654 70.0903 86.2211 70.8155 85.7697C71.5407 85.3183 72.2955 84.9187 73.0355 84.4932C73.7755 84.0677 74.534 83.6755 75.2888 83.2759C76.0436 82.8763 76.8169 82.51 77.5865 82.1363C79.1331 81.3963 80.7044 80.718 82.3003 80.1013L83.4991 79.6462L84.7164 79.2244C85.5193 78.9321 86.3481 78.6953 87.1621 78.4363C88.8123 77.959 90.4699 77.5187 92.1608 77.2042C93.8461 76.8664 95.5498 76.6279 97.2631 76.4901C100.688 76.17 104.141 76.362 107.508 77.0599C108.348 77.2264 109.173 77.4632 109.999 77.6963L111.212 78.107C111.615 78.2439 112.004 78.4252 112.404 78.5806C113.976 79.2369 115.48 80.0449 116.895 80.993C118.288 81.9538 119.589 83.04 120.784 84.2379C121.073 84.545 121.369 84.8373 121.657 85.1592L122.493 86.173C123.039 86.8864 123.516 87.6495 123.918 88.4522C124.741 90.1254 125.172 91.9638 125.18 93.8283C125.163 95.6558 124.857 97.469 124.273 99.2007C123.722 100.864 123.043 102.482 122.242 104.04C121.872 104.817 121.461 105.568 121.054 106.32L119.804 108.54C118.12 111.455 116.392 114.275 114.868 117.105C114.109 118.515 113.388 119.921 112.788 121.316C112.187 122.64 111.703 124.014 111.342 125.423C111.025 126.762 110.824 128.126 110.739 129.5C110.643 130.956 110.622 132.415 110.676 133.873L110.72 134.983L110.787 136.123C110.838 136.889 110.879 137.655 110.946 138.436L111.316 143.212C111.626 146.632 111.689 150.069 111.504 153.498C111.381 155.368 111.103 157.224 110.672 159.048C110.214 160.992 109.517 162.871 108.596 164.643C107.655 166.45 106.455 168.111 105.033 169.571C104.648 169.943 104.26 170.313 103.868 170.681C103.442 171.021 103.006 171.354 102.573 171.673C102.14 171.991 101.629 172.25 101.152 172.512C100.675 172.775 100.157 172.982 99.6459 173.167C97.712 173.854 95.647 174.092 93.6075 173.863C91.8346 173.656 90.0945 173.228 88.4275 172.59C86.8728 172.005 85.3533 171.331 83.8765 170.57C82.4224 169.849 81.0164 169.09 79.6067 168.332C76.8058 166.818 74.0308 165.338 71.1448 164.106C68.2852 162.83 65.2695 161.936 62.176 161.45L52.704 160.151ZM71.6591 162.8C74.6931 163.799 77.6753 164.916 80.6834 165.897C82.1634 166.4 83.6878 166.852 85.1863 167.258C86.6589 167.645 88.1525 167.946 89.6596 168.161C91.0521 168.373 92.4661 168.405 93.8665 168.254C95.0481 168.129 96.1865 167.74 97.1965 167.114C98.1234 166.496 98.9121 165.692 99.5127 164.754C100.223 163.702 100.797 162.564 101.222 161.368C102.069 158.993 102.388 156.31 102.447 153.402C102.58 147.575 101.677 141.07 102.136 134.003C102.395 130.462 102.987 126.784 104.523 123.143C105.263 121.447 106.148 119.818 107.168 118.274C108.134 116.794 109.155 115.377 110.195 114.03C112.274 111.344 114.402 108.824 116.34 106.26C117.317 104.973 118.235 103.67 119.064 102.324C119.884 101.016 120.586 99.6376 121.161 98.2054C121.711 96.8578 122.016 95.4234 122.064 93.9689C122.091 92.5904 121.773 91.227 121.139 90.0025C120.824 89.386 120.453 88.8001 120.029 88.2524L119.323 87.4532C119.075 87.1905 118.793 86.9389 118.531 86.6799C117.457 85.6717 116.276 84.7846 115.008 84.0344C112.467 82.5687 109.633 81.6841 106.709 81.4444C105.242 81.3057 103.766 81.3057 102.299 81.4444C100.814 81.5717 99.3402 81.8041 97.8884 82.14C94.9468 82.8635 92.082 83.8697 89.334 85.1444C88.6421 85.4811 87.9465 85.7845 87.2657 86.1434L86.2408 86.6688L85.227 87.2201C83.8691 87.9379 82.5445 88.7445 81.2199 89.5363C80.5613 89.9433 79.9101 90.3651 79.2552 90.7795L77.3275 92.0745C76.0436 92.9551 74.7671 93.8505 73.5054 94.7755L69.5575 97.68C68.8804 98.1795 68.1885 98.6531 67.504 99.16L66.4717 99.9L65.4246 100.61C59.8608 104.427 54.0335 107.845 47.9865 110.837C46.488 111.577 44.9932 112.317 43.5058 112.987C42.0184 113.657 40.5458 114.341 39.1546 115.011C36.3278 116.343 33.8192 117.642 31.9951 119.122C31.0909 119.851 30.2773 120.685 29.5716 121.608C28.81 122.625 28.1507 123.714 27.6032 124.86C27.2924 125.456 27.026 126.118 26.7374 126.758C26.6005 127.088 26.4747 127.432 26.3415 127.768C26.2083 128.105 26.0714 128.449 25.9715 128.771C25.5199 130.036 25.1601 131.332 24.8948 132.649L24.7098 133.603L24.6099 134.536L24.5507 135.006C24.5507 135.165 24.5507 135.313 24.5507 135.464L24.5211 136.382C24.5211 136.685 24.5507 136.981 24.5618 137.281V137.736C24.5618 137.884 24.6062 138.029 24.6247 138.177L24.7579 139.065C24.8393 139.349 24.9059 139.638 24.9725 139.934C25.2927 141.13 25.7745 142.276 26.4044 143.342L26.6375 143.745C26.7226 143.882 26.8225 144.015 26.915 144.148L27.4774 144.966C27.9103 145.48 28.2988 146.039 28.7983 146.527C29.7713 147.577 30.8281 148.546 31.9581 149.425C33.1406 150.334 34.3761 151.173 35.6581 151.937C38.3221 153.513 41.1233 154.844 44.0275 155.914C45.5075 156.462 46.9875 156.976 48.4675 157.42C49.2075 157.646 49.9734 157.879 50.7393 158.071L51.8789 158.375L53.0296 158.652C56.1006 159.392 59.216 159.955 62.3536 160.41C65.5178 160.94 68.6309 161.74 71.6591 162.8Z" fill="#EBEBEB"/>
<path d="M76.6877 35.6133C75.6752 35.3591 74.6467 35.1737 73.6093 35.0583C73.1135 34.9917 72.6362 34.9547 72.1515 34.914C71.6668 34.8733 71.1932 34.8585 70.7233 34.8511C69.7835 34.8141 68.8733 34.8511 67.9483 34.8511C64.3112 34.9954 60.8369 35.5504 57.407 36.0795L56.1934 36.2645L55.6532 36.3422L55.1056 36.3866C54.7356 36.4199 54.3656 36.4088 53.9734 36.4199C53.5812 36.431 53.2001 36.3866 52.8042 36.357C52.4083 36.3274 52.0198 36.2867 51.6165 36.2201C51.2132 36.1535 50.821 36.1017 50.4177 36.024C49.6185 35.8575 48.7971 35.6836 47.9905 35.4579C44.7271 34.5995 41.5044 33.323 37.9043 32.4979C36.0012 32.0505 34.0393 31.9082 32.0916 32.0761C31.0413 32.1808 30.0069 32.4081 29.0095 32.7532C28.5054 32.9309 28.0113 33.136 27.5295 33.3674C27.2853 33.4858 27.0411 33.6005 26.7895 33.7374L26.105 34.1444C25.2108 34.6936 24.3665 35.3201 23.5816 36.0166C23.182 36.3644 22.8046 36.7825 22.4161 37.1747C22.0276 37.5669 21.7242 38.0183 21.3764 38.4512C21.0286 38.8841 20.7733 39.3392 20.4773 39.798C20.3256 40.0274 20.2072 40.2605 20.0851 40.4899L19.7151 41.1966L19.5338 41.5666L19.3821 41.9366L19.0824 42.6766C18.8794 43.152 18.704 43.6387 18.557 44.1344C17.954 46.0548 17.5972 48.044 17.4951 50.0544C17.4018 51.9965 17.5084 53.9431 17.8133 55.8634C18.1159 57.7494 18.6119 59.5993 19.2933 61.3838C19.4635 61.8278 19.6633 62.2681 19.8298 62.701C19.9963 63.1339 20.2405 63.5631 20.4477 63.9886C20.6549 64.4141 20.8769 64.8359 21.11 65.2466C21.3431 65.6573 21.5725 66.068 21.85 66.4713C22.8485 68.0679 23.9745 69.5812 25.217 70.9964C26.4302 72.3968 27.7555 73.6961 29.1797 74.8814C30.5595 76.0504 32.046 77.0872 33.6197 77.9783C35.1764 78.855 36.853 79.4994 38.5962 79.8912C40.3839 80.2637 42.2334 80.2206 44.0019 79.7654C45.7805 79.2817 47.4847 78.5572 49.0672 77.612C52.2236 75.7241 55.177 73.5158 57.8806 71.0223C59.2348 69.805 60.5039 68.5359 61.7101 67.2335C61.8217 67.1057 61.9456 66.9892 62.0801 66.8857L62.3983 66.6082C62.6388 66.4454 62.8275 66.2382 63.0791 66.1013L63.4269 65.8571C63.5527 65.7831 63.6822 65.7128 63.7969 65.6277C64.03 65.4649 64.3223 65.3317 64.5665 65.1726C65.7697 64.5157 67.0128 63.9349 68.2887 63.4336L70.5087 62.5567L71.7038 62.0905L72.947 61.5762C73.7869 61.2358 74.6749 60.8103 75.5777 60.3626C76.5397 59.8667 77.4702 59.3119 78.3638 58.7013C79.3732 58.0051 80.3081 57.2066 81.1536 56.3185C82.0713 55.351 82.853 54.2631 83.4772 53.0847L83.7214 52.637L83.9286 52.1782C84.0618 51.8711 84.1987 51.564 84.3208 51.2495C84.5423 50.6375 84.7252 50.0122 84.8684 49.3773L85.0645 48.4412L85.1829 47.5347C85.2533 46.9439 85.2916 46.3498 85.2976 45.755C85.2976 45.5996 85.2976 45.4812 85.2976 45.2999C85.2976 45.0631 85.2976 44.8263 85.268 44.5932C85.2416 44.1004 85.1697 43.6112 85.0534 43.1317C85.0275 43.0133 85.0016 42.8875 84.9683 42.7617L84.8499 42.3917C84.7685 42.1438 84.6797 41.9033 84.5872 41.6517C84.3823 41.1822 84.141 40.7294 83.8657 40.2975C83.7251 40.094 83.5845 39.8905 83.4365 39.6944C83.3625 39.5945 83.2885 39.4946 83.2145 39.4058L82.9814 39.1468C82.826 38.9803 82.6669 38.8175 82.5041 38.651C82.3413 38.4845 82.1859 38.3698 82.0231 38.2255C81.8603 38.0812 81.6938 37.9591 81.531 37.8555L81.0537 37.5299C80.8946 37.4263 80.7281 37.3079 80.5727 37.2228L80.1102 36.9675C79.026 36.3842 77.8774 35.9297 76.6877 35.6133Z" fill="#EBEBEB"/>
<path d="M126.256 125.31C126.06 126.438 125.979 127.582 126.015 128.725C126.1 130.809 126.457 132.873 127.077 134.864C127.613 136.809 128.299 138.711 129.127 140.551C129.97 142.398 131.032 144.137 132.29 145.731C133.603 147.386 135.13 148.861 136.83 150.115C138.738 151.452 140.931 152.325 143.235 152.664C144.46 152.849 145.704 152.875 146.935 152.742C149.188 152.495 151.319 151.595 153.066 150.152C153.801 149.543 154.497 148.889 155.153 148.195C155.491 147.824 155.796 147.424 156.063 147C156.313 146.557 156.527 146.096 156.703 145.62C157.036 144.636 157.266 143.62 157.391 142.589C157.683 140.446 157.707 138.275 157.462 136.125C157.23 134.062 156.559 132.073 155.493 130.291C154.46 128.601 153.096 127.137 151.482 125.987C149.884 124.818 148.004 123.982 146.162 123.224C144.319 122.465 142.488 121.784 140.767 120.974C139.047 120.164 137.385 119.257 135.295 118.61C134.735 118.434 134.161 118.31 133.578 118.24C132.901 118.15 132.214 118.161 131.539 118.273C130.632 118.452 129.786 118.864 129.086 119.468C128.911 119.619 128.746 119.781 128.59 119.953C128.446 120.116 128.298 120.286 128.161 120.463C127.92 120.792 127.703 121.137 127.51 121.496C127.334 121.826 127.176 122.166 127.036 122.513C126.918 122.828 126.785 123.175 126.703 123.479L126.537 123.949L126.426 124.411C126.359 124.718 126.311 125.007 126.256 125.31Z" fill="#EBEBEB"/>
</g>
<path d="M38.3052 132.198L39.7371 132.464L40.059 133.974L40.3772 132.464L41.8091 132.198L40.3846 131.85L40.059 130.426L39.7297 131.85L38.3052 132.198Z" fill="#DCD7FE"/>
<path d="M105.238 18.7254L106.67 18.9918L106.992 20.5014L107.31 18.9918L108.742 18.7254L107.317 18.3776L106.992 16.9531L106.662 18.3776L105.238 18.7254Z" fill="#DCD7FE"/>
<path d="M111.065 166.272L112.497 166.535L112.819 168.044L113.137 166.535L114.569 166.272L113.145 165.921L112.819 164.496L112.494 165.921L111.065 166.272Z" fill="#DCD7FE"/>
<path d="M159.576 134.968L160.375 135.116L160.556 135.96L160.734 135.116L161.533 134.968L160.737 134.772L160.556 133.977L160.375 134.772L159.576 134.968Z" fill="#DCD7FE"/>
<path d="M148.625 37.0387L149.424 37.1904L149.601 38.0303L149.779 37.1904L150.582 37.0387L149.783 36.8463L149.601 36.0508L149.42 36.8463L148.625 37.0387Z" fill="#DCD7FE"/>
<path d="M163.791 64.7103L164.59 64.8584L164.767 65.702L164.949 64.8584L165.748 64.7103L164.949 64.5142L164.767 63.7188L164.586 64.5142L163.791 64.7103Z" fill="#DCD7FE"/>
<path d="M21.8101 139.14L22.6093 139.288L22.7869 140.132L22.9682 139.288L23.7674 139.14L22.9719 138.944L22.7869 138.148L22.6056 138.944L21.8101 139.14Z" fill="#DCD7FE"/>
<path d="M154.533 118.367L155.332 118.515L155.514 119.358L155.691 118.515L156.491 118.367L155.695 118.17L155.514 117.375L155.329 118.17L154.533 118.367Z" fill="#DCD7FE"/>
<path d="M45.4277 144.007L46.2306 144.159L46.4082 144.999L46.5858 144.159L47.3887 144.007L46.5895 143.815L46.4082 143.02L46.2269 143.815L45.4277 144.007Z" fill="#DCD7FE"/>
<path d="M29.7018 156.984C29.7637 156.984 29.823 157.009 29.8667 157.053C29.9104 157.096 29.935 157.156 29.935 157.217C29.935 157.279 29.9104 157.339 29.8667 157.382C29.823 157.426 29.7637 157.451 29.7018 157.451C29.64 157.451 29.5807 157.426 29.537 157.382C29.4933 157.339 29.4688 157.279 29.4688 157.217C29.4688 157.156 29.4933 157.096 29.537 157.053C29.5807 157.009 29.64 156.984 29.7018 156.984Z" fill="#DCD7FE"/>
<path d="M138.342 125.383C138.403 125.383 138.463 125.407 138.506 125.451C138.55 125.495 138.575 125.554 138.575 125.616C138.575 125.678 138.55 125.737 138.506 125.781C138.463 125.824 138.403 125.849 138.342 125.849C138.28 125.849 138.22 125.824 138.177 125.781C138.133 125.737 138.108 125.678 138.108 125.616C138.108 125.554 138.133 125.495 138.177 125.451C138.22 125.407 138.28 125.383 138.342 125.383Z" fill="#DCD7FE"/>
<path d="M140.532 92.2227C140.589 92.2298 140.64 92.2572 140.678 92.2998C140.715 92.3424 140.736 92.3972 140.736 92.4539C140.736 92.5107 140.715 92.5655 140.678 92.608C140.64 92.6506 140.589 92.678 140.532 92.6852C140.476 92.678 140.424 92.6506 140.387 92.608C140.349 92.5655 140.329 92.5107 140.329 92.4539C140.329 92.3972 140.349 92.3424 140.387 92.2998C140.424 92.2572 140.476 92.2298 140.532 92.2227Z" fill="#DCD7FE"/>
<path d="M52.7092 156.758C52.7655 156.765 52.8172 156.792 52.8547 156.835C52.8923 156.878 52.913 156.932 52.913 156.989C52.913 157.046 52.8923 157.101 52.8547 157.143C52.8172 157.186 52.7655 157.213 52.7092 157.22C52.6529 157.213 52.6011 157.186 52.5636 157.143C52.5261 157.101 52.5054 157.046 52.5054 156.989C52.5054 156.932 52.5261 156.878 52.5636 156.835C52.6011 156.792 52.6529 156.765 52.7092 156.758Z" fill="#DCD7FE"/>
<path d="M43.1965 143.312C43.2528 143.32 43.3045 143.347 43.342 143.39C43.3796 143.432 43.4003 143.487 43.4003 143.544C43.4003 143.6 43.3796 143.655 43.342 143.698C43.3045 143.74 43.2528 143.768 43.1965 143.775C43.1402 143.768 43.0884 143.74 43.0509 143.698C43.0134 143.655 42.9927 143.6 42.9927 143.544C42.9927 143.487 43.0134 143.432 43.0509 143.39C43.0884 143.347 43.1402 143.32 43.1965 143.312Z" fill="#DCD7FE"/>
<path d="M149.379 128.426C149.435 128.433 149.487 128.46 149.525 128.503C149.562 128.545 149.583 128.6 149.583 128.657C149.583 128.714 149.562 128.769 149.525 128.811C149.487 128.854 149.435 128.881 149.379 128.888C149.323 128.881 149.271 128.854 149.234 128.811C149.196 128.769 149.175 128.714 149.175 128.657C149.175 128.6 149.196 128.545 149.234 128.503C149.271 128.46 149.323 128.433 149.379 128.426Z" fill="#DCD7FE"/>
<path d="M139.674 102.77C139.736 102.77 139.795 102.794 139.839 102.838C139.883 102.882 139.907 102.941 139.907 103.003C139.907 103.064 139.883 103.124 139.839 103.167C139.795 103.211 139.736 103.236 139.674 103.236C139.612 103.236 139.553 103.211 139.509 103.167C139.465 103.124 139.441 103.064 139.441 103.003C139.441 102.941 139.465 102.882 139.509 102.838C139.553 102.794 139.612 102.77 139.674 102.77Z" fill="#DCD7FE"/>
<path d="M136.158 142.688C136.202 142.688 136.243 142.705 136.274 142.735C136.304 142.766 136.321 142.807 136.321 142.85C136.321 142.893 136.304 142.935 136.274 142.965C136.243 142.996 136.202 143.013 136.158 143.013C136.115 143.013 136.074 142.996 136.043 142.965C136.013 142.935 135.996 142.893 135.996 142.85C135.996 142.807 136.013 142.766 136.043 142.735C136.074 142.705 136.115 142.688 136.158 142.688Z" fill="#DCD7FE"/>
<path d="M49.5978 41.0938C49.6372 41.0997 49.6732 41.1196 49.6992 41.1498C49.7252 41.18 49.7396 41.2185 49.7396 41.2584C49.7396 41.2983 49.7252 41.3368 49.6992 41.367C49.6732 41.3972 49.6372 41.4171 49.5978 41.423C49.5584 41.4171 49.5224 41.3972 49.4964 41.367C49.4704 41.3368 49.4561 41.2983 49.4561 41.2584C49.4561 41.2185 49.4704 41.18 49.4964 41.1498C49.5224 41.1196 49.5584 41.0997 49.5978 41.0938Z" fill="#DCD7FE"/>
<path d="M50.0109 144.836C50.0503 144.842 50.0863 144.862 50.1123 144.892C50.1383 144.922 50.1526 144.961 50.1526 145.001C50.1526 145.04 50.1383 145.079 50.1123 145.109C50.0863 145.139 50.0503 145.159 50.0109 145.165C49.9715 145.159 49.9355 145.139 49.9095 145.109C49.8834 145.079 49.8691 145.04 49.8691 145.001C49.8691 144.961 49.8834 144.922 49.9095 144.892C49.9355 144.862 49.9715 144.842 50.0109 144.836Z" fill="#DCD7FE"/>
<path d="M21.0366 94.151L22.4685 94.4137L22.7867 95.9233L23.1086 94.4137L24.5405 94.1473L23.116 93.7995L22.7867 92.375L22.4611 93.7995L21.0366 94.151Z" fill="#DCD7FE"/>
<path d="M157.197 57.276L158.629 57.5387L158.947 59.0483L159.265 57.5387L160.697 57.276L159.272 56.9245L158.947 55.5L158.621 56.9245L157.197 57.276Z" fill="#DCD7FE"/>
<path d="M96.3911 25.6752L97.194 25.8232L97.3716 26.6668L97.5492 25.8232L98.3521 25.6752L97.5529 25.4828L97.3716 24.6836L97.1903 25.4828L96.3911 25.6752Z" fill="#DCD7FE"/>
<path d="M22.7871 53.851L23.59 53.999L23.7676 54.8426L23.9452 53.999L24.7481 53.851L23.9489 53.6549L23.7676 52.8594L23.5863 53.6549L22.7871 53.851Z" fill="#DCD7FE"/>
<path d="M37.4831 52.4531C37.5394 52.4603 37.5911 52.4877 37.6287 52.5303C37.6662 52.5728 37.6869 52.6276 37.6869 52.6844C37.6869 52.7411 37.6662 52.7959 37.6287 52.8385C37.5911 52.8811 37.5394 52.9085 37.4831 52.9156C37.4268 52.9085 37.375 52.8811 37.3375 52.8385C37.3 52.7959 37.2793 52.7411 37.2793 52.6844C37.2793 52.6276 37.3 52.5728 37.3375 52.5303C37.375 52.4877 37.4268 52.4603 37.4831 52.4531Z" fill="#DCD7FE"/>
<path d="M19.8488 135.531C19.9051 135.538 19.9569 135.566 19.9944 135.608C20.0319 135.651 20.0526 135.706 20.0526 135.763C20.0526 135.819 20.0319 135.874 19.9944 135.917C19.9569 135.959 19.9051 135.987 19.8488 135.994C19.7925 135.987 19.7408 135.959 19.7032 135.917C19.6657 135.874 19.645 135.819 19.645 135.763C19.645 135.706 19.6657 135.651 19.7032 135.608C19.7408 135.566 19.7925 135.538 19.8488 135.531Z" fill="#DCD7FE"/>
<path d="M38.8752 127.531C38.937 127.531 38.9963 127.556 39.04 127.6C39.0837 127.643 39.1083 127.703 39.1083 127.764C39.1083 127.826 39.0837 127.885 39.04 127.929C38.9963 127.973 38.937 127.997 38.8752 127.997C38.8134 127.997 38.7541 127.973 38.7104 127.929C38.6666 127.885 38.6421 127.826 38.6421 127.764C38.6421 127.703 38.6666 127.643 38.7104 127.6C38.7541 127.556 38.8134 127.531 38.8752 127.531Z" fill="#DCD7FE"/>
<path d="M20.0715 68.8203C20.1278 68.8274 20.1795 68.8549 20.217 68.8974C20.2546 68.94 20.2753 68.9948 20.2753 69.0516C20.2753 69.1083 20.2546 69.1631 20.217 69.2057C20.1795 69.2483 20.1278 69.2757 20.0715 69.2828C20.0152 69.2757 19.9634 69.2483 19.9259 69.2057C19.8884 69.1631 19.8677 69.1083 19.8677 69.0516C19.8677 68.9948 19.8884 68.94 19.9259 68.8974C19.9634 68.8549 20.0152 68.8274 20.0715 68.8203Z" fill="#DCD7FE"/>
<path d="M69.2443 22.0391C69.3061 22.0391 69.3654 22.0636 69.4092 22.1073C69.4529 22.1511 69.4774 22.2103 69.4774 22.2722C69.4774 22.334 69.4529 22.3933 69.4092 22.437C69.3654 22.4807 69.3061 22.5053 69.2443 22.5053C69.1825 22.5053 69.1232 22.4807 69.0795 22.437C69.0358 22.3933 69.0112 22.334 69.0112 22.2722C69.0112 22.2103 69.0358 22.1511 69.0795 22.1073C69.1232 22.0636 69.1825 22.0391 69.2443 22.0391Z" fill="#DCD7FE"/>
<path d="M59.7692 147.23C59.8124 147.23 59.8538 147.248 59.8844 147.278C59.9149 147.309 59.932 147.35 59.932 147.393C59.932 147.436 59.9149 147.478 59.8844 147.508C59.8538 147.539 59.8124 147.556 59.7692 147.556C59.7261 147.556 59.6847 147.539 59.6541 147.508C59.6236 147.478 59.6064 147.436 59.6064 147.393C59.6064 147.35 59.6236 147.309 59.6541 147.278C59.6847 147.248 59.7261 147.23 59.7692 147.23Z" fill="#DCD7FE"/>
<path d="M161.485 92.6908L162.288 92.8388L162.465 93.6824L162.643 92.8388L163.442 92.6908L162.647 92.4984L162.465 91.6992L162.284 92.4984L161.485 92.6908Z" fill="#DCD7FE"/>
<path d="M117.658 28.4297C117.702 28.4297 117.743 28.4468 117.774 28.4774C117.804 28.5079 117.821 28.5493 117.821 28.5925C117.821 28.6357 117.804 28.6771 117.774 28.7076C117.743 28.7381 117.702 28.7553 117.658 28.7553C117.615 28.7553 117.574 28.7381 117.543 28.7076C117.513 28.6771 117.496 28.6357 117.496 28.5925C117.496 28.5493 117.513 28.5079 117.543 28.4774C117.574 28.4468 117.615 28.4297 117.658 28.4297Z" fill="#DCD7FE"/>
<path d="M82.7648 162.457C82.8042 162.463 82.8402 162.483 82.8662 162.513C82.8922 162.543 82.9065 162.582 82.9065 162.622C82.9065 162.662 82.8922 162.7 82.8662 162.73C82.8402 162.761 82.8042 162.78 82.7648 162.786C82.7254 162.78 82.6894 162.761 82.6634 162.73C82.6374 162.7 82.623 162.662 82.623 162.622C82.623 162.582 82.6374 162.543 82.6634 162.513C82.6894 162.483 82.7254 162.463 82.7648 162.457Z" fill="#DCD7FE"/>
<path d="M152.298 63.7344C152.341 63.7344 152.383 63.7515 152.413 63.7821C152.444 63.8126 152.461 63.854 152.461 63.8972C152.461 63.9404 152.444 63.9818 152.413 64.0123C152.383 64.0428 152.341 64.06 152.298 64.06C152.255 64.06 152.213 64.0428 152.183 64.0123C152.152 63.9818 152.135 63.9404 152.135 63.8972C152.135 63.854 152.152 63.8126 152.183 63.7821C152.213 63.7515 152.255 63.7344 152.298 63.7344Z" fill="#DCD7FE"/>
<path d="M125.384 22.3398C125.423 22.3458 125.459 22.3656 125.485 22.3959C125.511 22.4261 125.526 22.4646 125.526 22.5045C125.526 22.5444 125.511 22.5829 125.485 22.6131C125.459 22.6433 125.423 22.6632 125.384 22.6691C125.345 22.6632 125.309 22.6433 125.283 22.6131C125.256 22.5829 125.242 22.5444 125.242 22.5045C125.242 22.4646 125.256 22.4261 125.283 22.3959C125.309 22.3656 125.345 22.3458 125.384 22.3398Z" fill="#DCD7FE"/>
<path d="M112.819 31.1016C112.93 31.1117 113.034 31.1631 113.109 31.2456C113.184 31.328 113.226 31.4357 113.226 31.5474C113.226 31.6591 113.184 31.7668 113.109 31.8493C113.034 31.9318 112.93 31.9831 112.819 31.9933C112.708 31.9831 112.604 31.9318 112.529 31.8493C112.454 31.7668 112.412 31.6591 112.412 31.5474C112.412 31.4357 112.454 31.328 112.529 31.2456C112.604 31.1631 112.708 31.1117 112.819 31.1016Z" fill="#DCD7FE"/>
<path d="M152.458 76.2422C152.575 76.2422 152.688 76.289 152.772 76.3722C152.855 76.4555 152.902 76.5684 152.902 76.6862C152.902 76.8039 152.855 76.9169 152.772 77.0001C152.688 77.0834 152.575 77.1302 152.458 77.1302C152.34 77.1302 152.227 77.0834 152.144 77.0001C152.06 76.9169 152.014 76.8039 152.014 76.6862C152.014 76.5684 152.06 76.4555 152.144 76.3722C152.227 76.289 152.34 76.2422 152.458 76.2422Z" fill="#DCD7FE"/>
<path d="M33.4323 120.219C33.55 120.219 33.663 120.266 33.7462 120.349C33.8295 120.432 33.8763 120.545 33.8763 120.663C33.8763 120.78 33.8295 120.893 33.7462 120.977C33.663 121.06 33.55 121.107 33.4323 121.107C33.3145 121.107 33.2016 121.06 33.1183 120.977C33.0351 120.893 32.9883 120.78 32.9883 120.663C32.9883 120.545 33.0351 120.432 33.1183 120.349C33.2016 120.266 33.3145 120.219 33.4323 120.219Z" fill="#DCD7FE"/>
<path d="M55.8574 33.4057L56.6566 33.5537L56.8342 34.3973L57.0118 33.5537L57.8147 33.4057L57.0155 33.2133L56.8342 32.4141L56.6529 33.2133L55.8574 33.4057Z" fill="#DCD7FE"/>
<path d="M125.31 155.805C125.367 155.812 125.418 155.839 125.456 155.882C125.493 155.924 125.514 155.979 125.514 156.036C125.514 156.093 125.493 156.147 125.456 156.19C125.418 156.233 125.367 156.26 125.31 156.267C125.254 156.26 125.202 156.233 125.165 156.19C125.127 156.147 125.106 156.093 125.106 156.036C125.106 155.979 125.127 155.924 125.165 155.882C125.202 155.839 125.254 155.812 125.31 155.805Z" fill="#DCD7FE"/>
<path d="M109.937 153.617C109.993 153.624 110.045 153.652 110.082 153.694C110.12 153.737 110.14 153.792 110.14 153.848C110.14 153.905 110.12 153.96 110.082 154.003C110.045 154.045 109.993 154.073 109.937 154.08C109.88 154.073 109.829 154.045 109.791 154.003C109.754 153.96 109.733 153.905 109.733 153.848C109.733 153.792 109.754 153.737 109.791 153.694C109.829 153.652 109.88 153.624 109.937 153.617Z" fill="#DCD7FE"/>
<path d="M142.304 139.722L143.103 139.87L143.281 140.714L143.462 139.87L144.262 139.722L143.466 139.526L143.281 138.73L143.1 139.526L142.304 139.722Z" fill="#DCD7FE"/>
<path d="M149.602 159.933L150.401 160.081L150.582 160.925L150.76 160.081L151.559 159.929L150.763 159.737L150.582 158.941L150.397 159.737L149.602 159.933Z" fill="#DCD7FE"/>
<path d="M144.262 150.371C144.306 150.371 144.347 150.388 144.378 150.419C144.408 150.449 144.425 150.491 144.425 150.534C144.425 150.577 144.408 150.618 144.378 150.649C144.347 150.68 144.306 150.697 144.262 150.697C144.219 150.697 144.178 150.68 144.147 150.649C144.117 150.618 144.1 150.577 144.1 150.534C144.1 150.491 144.117 150.449 144.147 150.419C144.178 150.388 144.219 150.371 144.262 150.371Z" fill="#DCD7FE"/>
<path d="M28.7261 99.1439L29.5253 99.2919L29.7029 100.136L29.8805 99.2919L30.6834 99.1439L29.8842 98.9478L29.7029 98.1523L29.5216 98.9478L28.7261 99.1439Z" fill="#DCD7FE"/>
<path d="M19.4758 116.312C19.5321 116.32 19.5838 116.347 19.6213 116.39C19.6589 116.432 19.6796 116.487 19.6796 116.544C19.6796 116.6 19.6589 116.655 19.6213 116.698C19.5838 116.74 19.5321 116.768 19.4758 116.775C19.4195 116.768 19.3677 116.74 19.3302 116.698C19.2927 116.655 19.272 116.6 19.272 116.544C19.272 116.487 19.2927 116.432 19.3302 116.39C19.3677 116.347 19.4195 116.32 19.4758 116.312Z" fill="#DCD7FE"/>
<path d="M33.4318 72.8867C33.4712 72.8926 33.5072 72.9125 33.5332 72.9427C33.5592 72.973 33.5735 73.0115 33.5735 73.0514C33.5735 73.0912 33.5592 73.1298 33.5332 73.16C33.5072 73.1902 33.4712 73.2101 33.4318 73.216C33.3924 73.2101 33.3564 73.1902 33.3304 73.16C33.3043 73.1298 33.29 73.0912 33.29 73.0514C33.29 73.0115 33.3043 72.973 33.3304 72.9427C33.3564 72.9125 33.3924 72.8926 33.4318 72.8867Z" fill="#DCD7FE"/>
<path d="M44.1771 27.9805C44.2883 27.9906 44.3917 28.042 44.467 28.1245C44.5423 28.207 44.5841 28.3146 44.5841 28.4263C44.5841 28.538 44.5423 28.6457 44.467 28.7282C44.3917 28.8107 44.2883 28.862 44.1771 28.8722C44.0658 28.862 43.9624 28.8107 43.8871 28.7282C43.8118 28.6457 43.77 28.538 43.77 28.4263C43.77 28.3146 43.8118 28.207 43.8871 28.1245C43.9624 28.042 44.0658 27.9906 44.1771 27.9805Z" fill="#DCD7FE"/>
<path d="M149.189 92.5C149.214 104.475 145.427 116.146 138.378 125.826C132.677 133.676 125.057 139.931 116.248 143.994C107.438 148.057 97.7332 149.792 88.0615 149.032C78.3899 148.272 69.075 145.044 61.0078 139.655C52.9407 134.266 46.3911 126.898 41.9857 118.254C37.5803 109.611 35.4664 99.9815 35.8462 90.2875C36.226 80.5936 39.0869 71.1592 44.1551 62.8869C49.2233 54.6146 56.3293 47.7811 64.7933 43.0401C73.2574 38.2991 82.7964 35.8092 92.4978 35.8086C94.0518 35.8086 95.5922 35.8703 97.1191 35.9936C105.897 36.6988 114.388 39.4525 121.909 44.0337C127.718 47.5677 132.847 52.1141 137.053 57.4573C144.926 67.4399 149.202 79.7863 149.189 92.5Z" fill="#FDC500"/>
<g opacity="0.1">
<path d="M104.743 119.258C104.028 121.164 105.216 121.242 105.298 122.037C105.379 122.833 105.298 124.339 102.996 126.644C100.695 128.949 96.8801 128.468 96.0883 129.422C95.2965 130.377 93.9423 134.425 92.0368 135.772C90.1313 137.118 89.8168 136.33 87.1158 136.882C84.4148 137.433 82.3502 140.929 81.5658 142.598C80.7814 144.267 81.7249 147.038 79.8194 147.123C77.9139 147.208 77.0407 143.075 75.2943 140.852C73.5479 138.628 72.9929 136.645 72.4379 134.021C71.8829 131.398 72.7524 125.922 72.4379 123.78C72.1234 121.638 66.4032 117.827 64.3386 115.203C62.274 112.58 59.4139 107.344 59.573 105.583C59.8145 103.888 60.6608 102.337 61.9558 101.217C62.9067 100.499 62.5108 100.107 62.6699 99.4672C62.829 98.8271 63.6245 98.6754 63.7799 97.8799C63.9353 97.0844 63.3063 94.7053 62.5108 94.3094C61.7153 93.9135 61.1603 95.2603 60.6867 95.0235C60.2131 94.7867 58.7812 93.118 58.2225 92.9589C57.6638 92.7998 57.8266 93.9912 57.0311 92.4816C56.2356 90.972 55.8434 87.161 55.207 86.5283C54.5706 85.8956 54.097 87.6383 52.5874 86.5283C51.0778 85.4183 50.4414 83.2723 49.8087 82.9541C49.176 82.6359 48.2991 83.0318 47.6442 81.7627C46.9893 80.4936 48.2177 78.1885 47.6442 78.4327C47.0707 78.6769 45.8386 80.4973 45.5204 78.7472C45.2022 76.9971 47.1077 71.1252 46.7895 67.9506C46.4713 64.776 47.585 61.4386 49.8087 58.7413C49.8087 58.7413 50.1232 56.9949 50.4414 55.8812C50.7596 54.7675 57.5898 50.3312 58.3816 49.0547C58.7146 48.5219 58.8256 47.6894 58.944 46.794C68.666 39.6371 80.427 35.7868 92.4993 35.8087C94.0533 35.8087 95.5937 35.8704 97.1206 35.9937C97.1724 36.0677 97.2242 36.138 97.276 36.2046C97.9642 37.0778 98.7079 37.6328 100.721 38.3765C102.733 39.1202 103.207 40.0674 102.782 40.8629C102.356 41.6584 101.672 41.8138 100.876 41.8693C100.081 41.9248 99.3406 41.4993 98.497 42.0284C97.6534 42.5575 96.8024 45.4139 95.6887 45.573C94.575 45.7321 92.6214 43.0348 92.1959 42.243C91.7704 41.4512 93.1505 39.7566 92.4993 38.9611C91.8481 38.1656 90.7159 38.3247 88.914 38.1656C87.1121 38.0065 82.9348 38.6984 83.0902 39.3866C83.2456 40.0748 89.2322 39.2793 89.3802 40.6557C89.5282 42.0321 84.9883 44.3557 84.2002 44.1485C83.4121 43.9413 82.3502 42.5612 81.181 42.4021C80.0118 42.243 79.0646 43.1976 78.332 43.3012C77.5994 43.4048 76.7373 42.5094 75.6236 42.7203C74.5099 42.9312 74.2472 43.8821 73.6663 44.2558C73.0854 44.6295 71.7053 44.6258 71.5499 45.4731C71.3945 46.3204 73.2963 46.7977 73.7699 47.3231C74.2435 47.8485 73.189 49.6504 73.6663 50.0204C74.1436 50.3904 77.1073 47.8004 77.8473 47.164C78.5873 46.5276 79.2237 43.7748 80.8073 43.834C82.3909 43.8932 82.9274 46.5868 83.4528 46.8532C83.9782 47.1196 85.1474 46.2168 86.8975 46.5868C88.6476 46.9568 89.8575 50.7715 90.1757 51.9333C90.4939 53.0951 91.2376 54.2643 90.6012 54.7416C89.9648 55.2189 87.1084 54.4234 86.7384 53.6797C86.3684 52.936 88.6439 51.8297 88.4848 51.5633C88.3257 51.2969 87.0048 50.9269 86.3129 51.3413C85.621 51.7557 85.3065 52.6215 84.5665 52.8213C83.8265 53.0211 81.8655 50.8085 81.3364 51.4412C80.8073 52.0739 81.8655 54.0904 82.3946 54.5677C82.9237 55.045 84.8847 55.3077 85.0438 55.8368C85.2029 56.3659 83.7192 57.5277 81.9173 57.4241C80.1154 57.3205 78.6391 55.9441 77.9472 56.525C77.2553 57.1059 77.6327 58.6414 77.1554 59.1705C76.6781 59.6996 74.0844 59.3296 72.8153 60.706C71.5462 62.0824 70.9653 64.147 69.6925 65.3125C68.4197 66.478 67.8425 64.9943 66.1442 66.6334C64.4459 68.2725 64.1869 71.9281 64.1351 73.1972C64.0833 74.4663 64.1351 75.4727 63.7096 75.3136C63.2841 75.1545 62.7032 74.0445 62.5441 73.3563C62.385 72.6681 62.9141 71.5063 62.9141 71.0808C62.9141 70.6553 60.4758 68.4908 59.0476 68.2762C57.6194 68.0616 56.3466 69.2271 55.2921 70.0744C54.2376 70.9217 52.3321 70.7626 51.6402 71.4508C50.9483 72.139 50.4192 78.2292 50.9483 79.6574C51.4774 81.0856 52.1656 81.0856 53.8602 80.3456C55.5548 79.6056 54.6002 78.1737 55.6066 78.4956C56.0585 78.6647 56.4478 78.9681 56.7223 79.3649C56.9967 79.7618 57.1432 80.2331 57.1421 80.7156C57.1421 81.5629 55.133 83.572 55.3957 84.1566C55.6584 84.7412 57.4085 84.0493 58.2558 84.3157C59.1031 84.5821 59.5249 85.1075 59.2622 87.2757C58.9995 89.4439 59.1549 91.1385 60.424 91.8526C61.6931 92.5667 62.4109 90.8203 62.9659 91.0608C63.5209 91.3013 64.3164 92.5667 65.1082 92.489C65.9 92.4113 65.5078 91.6935 67.0137 91.2199C68.5196 90.7463 67.9683 90.4244 68.2865 89.4735C68.6047 88.5226 69.5556 87.7234 70.5879 88.2007C71.6202 88.678 70.9061 89.3921 70.9838 90.1876C71.0615 90.9831 72.8893 91.0608 74.3138 91.5344C75.7383 92.008 76.5338 91.5344 79.3939 92.489C82.254 93.4436 82.4094 96.3 83.6008 96.7773C84.7922 97.2546 88.7623 96.4591 91.6224 98.5237C94.4825 100.588 93.687 104.399 95.1152 105.509C96.5434 106.619 101.864 108.133 103.929 108.528C105.993 108.924 106.311 107.496 107.976 107.892C109.641 108.288 110.6 108.765 111.155 111.07C111.662 113.105 105.449 117.353 104.743 119.258Z" fill="#011627"/>
<path d="M62.0777 78.6582C62.1295 79.1059 63.4541 79.2946 65.0377 80.1937C66.6213 81.0928 67.2059 83.7383 68.0532 83.6865C68.9005 83.6347 68.6378 82.4174 68.956 82.0992C69.2742 81.781 69.7996 81.0928 68.956 80.4046C68.1124 79.7164 67.2836 78.2327 65.737 78.0218C64.1904 77.8109 63.924 77.1745 63.2358 77.23C63.0602 77.232 62.8873 77.2727 62.7293 77.3492C62.5713 77.4256 62.4321 77.5359 62.3215 77.6723C62.211 77.8086 62.1318 77.9676 62.0896 78.138C62.0475 78.3084 62.0434 78.486 62.0777 78.6582Z" fill="#011627"/>
<path d="M70.8099 83.1048C70.5768 83.7523 70.8099 84.2148 72.5045 84.6403C74.1991 85.0658 75.7864 84.2148 75.2573 83.8707C74.7282 83.5266 73.9327 83.6857 74.2509 83.1048C74.5691 82.5239 74.4618 81.6729 73.0854 81.832C71.709 81.9911 71.0393 82.5091 70.8099 83.1048Z" fill="#011627"/>
<path d="M76.7409 83.2836C76.16 83.3687 75.8381 84.3751 76.4227 85.0115C77.0073 85.6479 77.0036 85.5406 77.6918 85.0115C78.38 84.4824 79.4382 84.216 79.1718 83.6869C78.9054 83.1578 77.3292 83.2022 76.7409 83.2836Z" fill="#011627"/>
<path d="M81.3439 85.4497C81.6029 84.6542 82.9312 85.4497 83.5158 86.2822C84.1004 87.1147 83.834 88.3468 83.5158 89.2422C83.1976 90.1376 82.9867 91.1995 82.243 90.7777C81.4993 90.3559 82.2985 89.0831 82.1912 88.3431C82.0839 87.6031 81.133 86.0972 81.3439 85.4497Z" fill="#011627"/>
<path d="M104.158 41.2886C103.88 41.9509 105.164 42.1877 105.904 42.6095C106.644 43.0313 107.229 43.2977 107.651 42.6095C108.072 41.9213 107.495 41.1295 106.911 40.9704C106.326 40.8113 104.424 40.6522 104.158 41.2886Z" fill="#011627"/>
<path d="M114.163 47.4786C114.651 47.9966 115.487 47.9041 116.068 48.6441C116.649 49.3841 116.438 50.6569 117.178 51.0269C117.918 51.3969 118.447 51.0269 118.499 50.4978C118.551 49.9687 117.441 48.6478 117.548 48.3814C117.655 48.115 119.084 48.7514 119.398 49.5432C119.713 50.335 119.08 51.4487 119.82 51.6633C120.56 51.8779 120.401 50.9233 120.719 50.7087C121.037 50.4941 121.725 50.6051 121.674 49.9687C121.622 49.3323 120.771 47.9559 120.086 47.4786C119.402 47.0013 118.865 46.4759 117.704 46.2095C116.542 45.9431 115.428 46.1577 114.843 46.635C114.259 47.1123 113.863 47.1641 114.163 47.4786Z" fill="#011627"/>
<path d="M137.065 57.459C137.032 57.6729 136.926 57.8688 136.765 58.014C135.655 58.8095 134.331 56.0567 132.795 55.5276C131.26 54.9985 130.575 53.0412 130.253 53.463C129.932 53.8848 130.043 54.4694 129.565 55.1576C129.088 55.8458 128.403 55.6867 128.085 57.0076C127.767 58.3285 129.565 60.7631 129.143 61.5586C128.722 62.3541 128.193 62.0877 127.342 62.0359C126.491 61.9841 126.653 62.7241 125.543 62.4059C124.433 62.0877 125.384 60.7113 123.638 59.0759C121.891 57.4405 121.307 57.1149 121.681 56.3749C122.054 55.6349 121.521 54.5767 122.313 54.4694C123.105 54.3621 123.745 55.5276 124.274 55.8458C124.803 56.164 125.492 55.2094 125.543 54.3658C125.595 53.5222 123.693 52.3567 123.001 51.6981C122.31 51.0395 122.261 48.6493 122.528 48.172C122.794 47.6947 123.586 47.8538 123.797 46.692C123.919 46.0075 122.839 44.8642 121.921 44.0391C127.73 47.572 132.859 52.1171 137.065 57.459Z" fill="#011627"/>
<path d="M144.969 104.912C145.128 103.217 144.285 103.11 145.128 99.987C145.972 96.8642 144.229 93.5305 143.596 92.8423C142.964 92.1541 141.584 92.365 140.47 93.0532C139.356 93.7414 140.155 94.2705 139.412 94.5332C138.668 94.7959 137.932 94.3741 137.243 94.4259C136.555 94.4777 135.919 96.2278 134.439 96.1723C132.959 96.1168 132.004 94.0041 130.891 92.4945C129.777 90.9849 127.501 90.034 126.761 88.1803C126.021 86.3266 127.45 83.4702 127.131 81.2983C126.813 79.1264 125.385 79.6037 125.119 78.3864C124.852 77.1691 125.333 77.7537 125.703 76.5882C126.073 75.4227 125.278 74.79 126.021 72.7772C126.765 70.7644 128.086 69.758 127.768 68.8589C127.45 67.9598 126.443 66.4798 126.391 65.4216C126.34 64.3634 127.398 64.4152 129.407 62.9315C131.416 61.4478 131.949 61.5551 133.477 62.0842C134.578 62.4927 135.71 62.8107 136.862 63.0351C137.765 63.1942 138.982 65.5252 139.352 65.4179C139.722 65.3106 139.778 64.6261 139.937 63.6197C140.036 63.182 140.266 62.7847 140.596 62.4801C146.573 72.06 149.555 83.2058 149.16 94.4905C148.765 105.775 145.011 116.685 138.379 125.824C143.763 117.584 144.81 106.606 144.969 104.912Z" fill="#011627"/>
</g>
<path opacity="0.1" d="M136.417 128.349C130.369 135.761 122.544 141.521 113.671 145.095C104.797 148.668 95.1636 149.938 85.6671 148.787C76.1707 147.635 67.12 144.099 59.3577 138.509C51.5954 132.918 45.3739 125.454 41.2725 116.812C37.171 108.17 35.3229 98.6305 35.9002 89.0819C36.4776 79.5334 39.4616 70.2861 44.5745 62.2011C49.6873 54.1161 56.7628 47.4563 65.1421 42.8416C73.5215 38.227 82.9322 35.8075 92.4982 35.8086C94.0522 35.8086 95.5927 35.8703 97.1195 35.9936C97.5413 36.0269 97.9631 36.0639 98.3812 36.112C90.3687 36.9842 82.669 39.7089 75.8913 44.0704C69.1135 48.432 63.4436 54.3109 59.3301 61.242C55.2165 68.173 52.7722 75.9662 52.1904 84.0051C51.6086 92.0439 52.9053 100.108 55.9779 107.559C59.0506 115.01 63.8149 121.644 69.894 126.936C75.9731 132.228 83.2002 136.033 91.0036 138.05C98.807 140.067 106.973 140.241 114.855 138.557C122.737 136.873 130.119 133.378 136.417 128.349Z" fill="#011627"/>
<path opacity="0.3" d="M149.19 92.5C149.215 104.475 145.428 116.146 138.379 125.826C133.063 133.127 126.088 139.059 118.029 143.134C125.054 139.118 131.149 133.659 135.911 127.117C142.585 117.928 146.364 106.957 146.764 95.6074C147.165 84.258 144.169 73.0472 138.161 63.4106C137.068 61.6591 135.88 59.9693 134.601 58.349C130.372 52.9763 125.216 48.4038 119.376 44.8477C111.805 40.239 103.258 37.4701 94.4229 36.7632C92.8948 36.6374 91.3408 36.5745 89.7794 36.5745C85.1658 36.5711 80.5688 37.1277 76.0894 38.2321C81.4105 36.6229 86.9397 35.8063 92.4989 35.8086C94.0529 35.8086 95.5933 35.8703 97.1202 35.9936C111.311 37.1499 124.546 43.6049 134.194 54.0749C143.842 64.5448 149.195 78.2626 149.19 92.5Z" fill="white"/>
<path d="M67.6945 80.9951C68.1149 79.0455 65.4697 76.8211 61.7863 76.0267C58.1028 75.2323 54.776 76.1688 54.3555 78.1184C53.9351 80.068 56.5803 82.2924 60.2637 83.0868C63.9472 83.8811 67.274 82.9447 67.6945 80.9951Z" fill="#CAC2FE"/>
<path d="M124.728 83.0944C128.412 82.3 131.057 80.0756 130.636 78.126C130.216 76.1764 126.889 75.24 123.206 76.0343C119.522 76.8287 116.877 79.0531 117.297 81.0027C117.718 82.9523 121.045 83.8888 124.728 83.0944Z" fill="#CAC2FE"/>
<path d="M84.1138 74.3477C86.7038 78.8247 92.6238 79.8126 97.1304 77.9256C98.664 77.2366 99.9666 76.1203 100.882 74.7103C100.512 76.453 99.2468 77.97 97.678 78.9542C93.0456 81.7625 85.3237 80.1604 84.1138 74.3477Z" fill="#263238"/>
<path d="M77.3287 60.2806C73.7196 59.7495 70.0448 60.6338 67.0723 62.7485C66.0603 63.4622 65.1374 64.2944 64.3232 65.2275C64.4819 64.5908 64.7417 63.9837 65.0928 63.4293C67.4793 59.4703 73.3623 57.624 77.3287 60.2806Z" fill="#263238"/>
<path d="M107.668 60.2806C111.634 57.624 117.517 59.4703 119.904 63.4293C120.255 63.9837 120.515 64.5908 120.673 65.2275C119.859 64.2944 118.936 63.4622 117.924 62.7485C114.952 60.6338 111.277 59.7495 107.668 60.2806Z" fill="#263238"/>
<path d="M105.319 73.7072C108.187 75.3759 111.939 75.8199 114.802 74.0106C115.932 73.268 116.903 72.3084 117.659 71.1875C118.854 72.7711 121.022 73.0375 122.88 72.7674C122.143 73.1941 121.316 73.4403 120.465 73.4859C119.615 73.5316 118.766 73.3754 117.988 73.0301C117.74 72.9149 117.505 72.7722 117.289 72.6046L118.229 72.4714C117.251 74.1606 115.703 75.4462 113.863 76.0974C110.884 77.0594 107.303 76.1566 105.323 73.7072H105.319Z" fill="#263238"/>
<path d="M79.6781 73.7072C77.6986 76.1566 74.1281 77.0594 71.1385 76.0974C69.299 75.445 67.7515 74.1598 66.7725 72.4714L67.7123 72.6046C67.4959 72.7722 67.2613 72.9149 67.013 73.0301C66.2348 73.3754 65.3859 73.5316 64.5358 73.4859C63.6856 73.4403 62.8583 73.1941 62.1216 72.7674C63.9716 73.0301 66.1472 72.7674 67.3423 71.1875L67.8233 71.8313C70.6686 75.6867 75.6895 76.0493 79.6633 73.7072H79.6781Z" fill="#263238"/>
<path d="M132.28 52.1743L133.364 51.9375V51.9449L132.28 52.1743Z" fill="#263238"/>
<path d="M135.532 51.4966L137.711 51.0859L137.715 51.1192L135.535 51.5151L135.532 51.4966Z" fill="#263238"/>
<path d="M139.896 50.7166L142.086 50.3984L142.093 50.4539L139.903 50.761L139.896 50.7166Z" fill="#263238"/>
<path d="M144.286 50.1289L146.491 49.918L146.499 49.9994L144.294 50.1992L144.286 50.1289Z" fill="#263238"/>
<path d="M148.705 49.778L150.917 49.7188L150.921 49.8261L148.708 49.8741L148.705 49.778Z" fill="#263238"/>
<path d="M153.137 49.7539L155.35 49.9093L155.335 50.0425L153.13 49.8723L153.137 49.7539Z" fill="#263238"/>
<path d="M157.547 50.2148C158.277 50.3461 159 50.5165 159.711 50.7254L159.667 50.8734C158.961 50.6646 158.245 50.493 157.521 50.3591L157.547 50.2148Z" fill="#263238"/>
<path d="M161.795 51.5078C162.473 51.821 163.114 52.2095 163.704 52.6659L163.59 52.8102C163.018 52.36 162.397 51.9753 161.74 51.6632L161.795 51.5078Z" fill="#263238"/>
<path d="M165.229 54.3008L165.506 54.7892C165.604 54.9491 165.689 55.116 165.762 55.2887C165.912 55.6321 166.03 55.9889 166.113 56.3543L165.928 56.3987C165.845 56.0441 165.731 55.6975 165.588 55.3627C165.516 55.1957 165.434 55.0337 165.34 54.878L165.07 54.4044L165.229 54.3008Z" fill="#263238"/>
<path d="M166.283 58.5812C166.227 59.3243 166.094 60.0596 165.887 60.7753L165.694 60.7198C165.899 60.0177 166.029 59.2959 166.083 58.5664L166.283 58.5812Z" fill="#263238"/>
<path d="M165.124 62.8666L164.122 64.8498L163.937 64.7462L164.936 62.7852L165.124 62.8666Z" fill="#263238"/>
<path d="M162.949 66.7393L161.661 68.5449L161.484 68.4117L162.771 66.6172L162.949 66.7393Z" fill="#263238"/>
<path d="M160.282 70.281L158.828 71.9571L158.661 71.8054L160.108 70.1367L160.282 70.281Z" fill="#263238"/>
<path d="M157.321 73.5808L155.764 75.157L155.597 74.9905L157.155 73.418L157.321 73.5808Z" fill="#263238"/>
<path d="M154.169 76.6971L152.538 78.1956L152.371 78.0106L154.003 76.5195L154.169 76.6971Z" fill="#263238"/>
<path d="M150.876 79.6574L149.185 81.0894L149.022 80.897L150.71 79.4688L150.876 79.6574Z" fill="#263238"/>
<path d="M147.473 82.4967L145.737 83.8768L145.578 83.6696L147.31 82.2969L147.473 82.4967Z" fill="#263238"/>
<path d="M143.983 85.2265L142.215 86.5585L142.052 86.3365L143.824 85.0156L143.983 85.2265Z" fill="#263238"/>
<path d="M140.423 87.8663L138.621 89.1502L138.458 88.9208L140.264 87.6406L140.423 87.8663Z" fill="#263238"/>
<path d="M136.802 90.4165L134.97 91.6597L134.808 91.4192L136.643 90.1797L136.802 90.4165Z" fill="#263238"/>
<path d="M133.128 92.8848L131.271 94.0947L131.108 93.8431L132.965 92.6406L133.128 92.8848Z" fill="#263238"/>
<path d="M129.401 95.2787L127.522 96.4516L127.363 96.1926L129.242 95.0234L129.401 95.2787Z" fill="#263238"/>
<path d="M125.634 97.6064L123.732 98.7461L123.573 98.4759L125.471 97.3438L125.634 97.6064Z" fill="#263238"/>
<path d="M121.824 99.8715L119.907 100.981L119.745 100.697L121.665 99.5977L121.824 99.8715Z" fill="#263238"/>
<path d="M117.98 102.074L116.045 103.151L115.886 102.858L117.821 101.789L117.98 102.074Z" fill="#263238"/>
<path d="M114.102 104.214L112.152 105.261L111.989 104.961L113.943 103.918L114.102 104.214Z" fill="#263238"/>
<path d="M110.191 106.291L108.227 107.309L108.064 106.998L110.032 105.984L110.191 106.291Z" fill="#263238"/>
<path d="M106.251 108.314L104.268 109.302L104.112 108.984L106.092 107.996L106.251 108.314Z" fill="#263238"/>
<path d="M102.281 110.279L100.287 111.241L100.127 110.908L102.122 109.953L102.281 110.279Z" fill="#263238"/>
<path d="M98.2804 112.188L96.2713 113.117L96.1196 112.788L98.125 111.855L98.2804 112.188Z" fill="#263238"/>
<path d="M94.2519 114.033L92.228 114.935L92.0874 114.61L94.1076 113.707L94.2519 114.033Z" fill="#263238"/>
<path d="M90.1992 115.818L88.1605 116.691L88.0273 116.369L90.0586 115.496L90.1992 115.818Z" fill="#263238"/>
<path d="M86.1192 117.549L84.0694 118.389L83.9399 118.078L85.986 117.234L86.1192 117.549Z" fill="#263238"/>
<path d="M82.0126 119.213L79.948 120.02L79.8296 119.713L81.8905 118.902L82.0126 119.213Z" fill="#263238"/>
<path d="M77.8781 120.811L75.8024 121.588L75.6914 121.289L77.7634 120.508L77.8781 120.811Z" fill="#263238"/>
<path d="M73.7234 122.343L71.6329 123.083L71.5293 122.791L73.6161 122.047L73.7234 122.343Z" fill="#263238"/>
<path d="M69.5401 123.804L67.4385 124.507L67.3423 124.218L69.4402 123.512L69.5401 123.804Z" fill="#263238"/>
<path d="M65.3289 125.187L63.2162 125.846L63.1274 125.565L65.2401 124.902L65.3289 125.187Z" fill="#263238"/>
<path d="M61.0924 126.485L58.9649 127.099L58.8872 126.825L61.011 126.207L61.0924 126.485Z" fill="#263238"/>
<path d="M56.8303 127.692L54.688 128.258L54.6177 127.992L56.7563 127.422L56.8303 127.692Z" fill="#263238"/>
<path d="M52.5386 128.798L50.3815 129.308L50.3223 129.046L52.472 128.531L52.5386 128.798Z" fill="#263238"/>
<path d="M48.2161 129.787L46.0442 130.234L45.9961 129.979L48.1606 129.531L48.2161 129.787Z" fill="#263238"/>
<path d="M43.869 130.642L41.6823 131.009L41.6416 130.761L43.8209 130.391L43.869 130.642Z" fill="#263238"/>
<path d="M39.4881 131.33L37.2866 131.604L37.2607 131.364L39.4548 131.09L39.4881 131.33Z" fill="#263238"/>
<path d="M35.0814 131.819L32.8651 131.971L32.854 131.737L35.0592 131.582L35.0814 131.819Z" fill="#263238"/>
<path d="M30.6487 132.041L28.4287 132.019L28.4361 131.793L30.645 131.811L30.6487 132.041Z" fill="#263238"/>
<path d="M26.2081 131.883L24.0029 131.605L24.0399 131.391L26.2303 131.664L26.2081 131.883Z" fill="#263238"/>
<path d="M21.8307 131.132C21.1116 130.934 20.4069 130.686 19.7217 130.392L19.8031 130.203C20.4795 130.486 21.1742 130.724 21.8825 130.914L21.8307 131.132Z" fill="#263238"/>
<path d="M17.7613 129.333C17.1462 128.904 16.5976 128.387 16.1333 127.798L16.2887 127.676C16.7427 128.245 17.2789 128.744 17.8797 129.156L17.7613 129.333Z" fill="#263238"/>
<path d="M15.1011 125.802C14.8813 125.083 14.7764 124.334 14.7903 123.582H14.9827C14.9682 124.311 15.0706 125.038 15.2861 125.735L15.1011 125.802Z" fill="#263238"/>
<path d="M15.0869 121.386C15.2683 120.666 15.5046 119.961 15.7936 119.277L15.9527 119.34C15.6715 120.019 15.4427 120.717 15.2682 121.431L15.0869 121.386Z" fill="#263238"/>
<path d="M16.7588 117.277L17.9058 115.379L18.0279 115.457L16.8994 117.355L16.7588 117.277Z" fill="#263238"/>
<path d="M19.1787 113.563L20.5477 111.82L20.6402 111.894L19.286 113.641L19.1787 113.563Z" fill="#263238"/>
<path d="M21.9868 110.136L23.4927 108.508L23.5593 108.574L22.0682 110.21L21.9868 110.136Z" fill="#263238"/>
<path d="M25.0435 106.93L26.6382 105.395L26.6863 105.446L25.1027 106.989L25.0435 106.93Z" fill="#263238"/>
<path d="M28.2651 103.895L29.9264 102.426L29.9523 102.463L28.3021 103.935L28.2651 103.895Z" fill="#263238"/>
<path d="M31.6138 100.992L33.3232 99.5898L33.3343 99.6046L31.6323 101.018L31.6138 100.992Z" fill="#263238"/>
<path d="M35.084 98.1964L35.9609 97.5156L35.0877 98.2001L35.084 98.1964Z" fill="#263238"/>
<path d="M141.947 48.1298L142.417 45.5028C142.482 45.1433 142.401 44.7727 142.193 44.4724C141.985 44.172 141.667 43.9665 141.307 43.9007C140.948 43.836 140.577 43.9165 140.277 44.1246C139.976 44.3327 139.771 44.6513 139.705 45.0107L139.235 47.6377C139.17 47.9973 139.251 48.3679 139.459 48.6682C139.667 48.9686 139.986 49.1741 140.345 49.2398C140.705 49.3046 141.075 49.2241 141.376 49.016C141.676 48.8079 141.882 48.4892 141.947 48.1298Z" fill="#DCD7FE"/>
<path d="M173.767 48.7351L173.397 46.0933C173.343 45.7307 173.148 45.4042 172.854 45.1851C172.56 44.9661 172.192 44.8722 171.829 44.9241C171.649 44.95 171.476 45.011 171.32 45.1036C171.164 45.1963 171.028 45.3188 170.919 45.4642C170.811 45.6096 170.732 45.7749 170.687 45.9508C170.643 46.1267 170.633 46.3097 170.659 46.4892L171.029 49.131C171.055 49.3106 171.116 49.4834 171.209 49.6394C171.302 49.7954 171.424 49.9316 171.57 50.0402C171.715 50.1488 171.88 50.2277 172.056 50.2723C172.232 50.3169 172.415 50.3264 172.595 50.3002C172.958 50.248 173.285 50.0539 173.505 49.7604C173.725 49.4669 173.819 49.0982 173.767 48.7351Z" fill="#DCD7FE"/>
<path d="M146.49 38.4794L147.537 37.5026C147.67 37.3788 147.777 37.23 147.853 37.0648C147.928 36.8995 147.97 36.7211 147.976 36.5396C147.982 36.3581 147.953 36.1772 147.889 36.0072C147.825 35.8372 147.728 35.6815 147.604 35.549C147.48 35.4161 147.331 35.3089 147.166 35.2336C147.001 35.1583 146.822 35.1164 146.641 35.1102C146.459 35.104 146.278 35.1337 146.108 35.1975C145.938 35.2614 145.783 35.3582 145.65 35.4824L144.603 36.4592C144.47 36.5829 144.363 36.7317 144.288 36.8969C144.212 37.0622 144.171 37.2406 144.164 37.4221C144.158 37.6036 144.188 37.7845 144.252 37.9545C144.316 38.1245 144.412 38.2802 144.537 38.4128C144.66 38.5456 144.809 38.6528 144.974 38.7281C145.14 38.8034 145.318 38.8453 145.5 38.8515C145.681 38.8577 145.862 38.828 146.032 38.7642C146.202 38.7003 146.358 38.6035 146.49 38.4794Z" fill="#DCD7FE"/>
<path d="M147.956 60.2556L146.979 59.1974C146.855 59.0645 146.707 58.9573 146.541 58.882C146.376 58.8067 146.198 58.7648 146.016 58.7586C145.835 58.7524 145.654 58.7821 145.484 58.846C145.314 58.9098 145.158 59.0066 145.026 59.1308C144.893 59.2545 144.785 59.4033 144.71 59.5686C144.635 59.7338 144.593 59.9123 144.587 60.0938C144.581 60.2753 144.61 60.4562 144.674 60.6262C144.738 60.7962 144.835 60.9519 144.959 61.0844L145.936 62.1315C146.059 62.2644 146.208 62.3715 146.373 62.4468C146.539 62.5221 146.717 62.5641 146.899 62.5703C147.08 62.5765 147.261 62.5468 147.431 62.4829C147.601 62.419 147.757 62.3222 147.889 62.1981C148.154 61.9485 148.31 61.6044 148.323 61.2406C148.335 60.8767 148.203 60.5227 147.956 60.2556Z" fill="#DCD7FE"/>
<path d="M161.954 65.1495L163.304 64.6648C163.647 64.5396 163.927 64.2837 164.082 63.9531C164.238 63.6225 164.256 63.2439 164.133 62.8999C164.008 62.555 163.751 62.274 163.419 62.1186C163.086 61.9632 162.706 61.9461 162.361 62.0711L161.014 62.5595C160.843 62.6211 160.687 62.7157 160.553 62.838C160.419 62.9602 160.31 63.1077 160.233 63.272C160.156 63.4362 160.112 63.6141 160.104 63.7953C160.096 63.9765 160.123 64.1576 160.185 64.3281C160.247 64.4984 160.342 64.6547 160.465 64.7882C160.587 64.9217 160.735 65.0297 160.899 65.106C161.063 65.1823 161.241 65.2255 161.422 65.2329C161.603 65.2404 161.784 65.212 161.954 65.1495Z" fill="#DCD7FE"/>
<path d="M162.45 63.8445C170.635 60.5873 174.63 51.3115 171.373 43.1264C168.116 34.9414 158.84 30.9466 150.655 34.2038C142.47 37.4611 138.475 46.7368 141.732 54.9219C144.989 63.1069 154.265 67.1017 162.45 63.8445Z" fill="#DCD7FE"/>
<path opacity="0.2" d="M168.861 50.3672C169.329 50.9734 169.588 51.7143 169.601 52.4799C169.626 53.2656 169.437 54.0433 169.053 54.7295C168.666 55.4431 168.02 55.9809 167.248 56.2317C166.509 56.4623 165.713 56.4256 164.998 56.1281C165.704 56.1473 166.405 56.0096 167.052 55.7248C167.35 55.5873 167.622 55.3982 167.854 55.1661C168.091 54.9396 168.291 54.6774 168.446 54.3891C168.528 54.2411 168.606 54.0894 168.676 53.9377C168.746 53.786 168.805 53.6232 168.85 53.4604C168.955 53.1384 169.026 52.8059 169.061 52.4688C169.133 51.7619 169.065 51.0478 168.861 50.3672Z" fill="#011627"/>
<path opacity="0.2" d="M164.684 54.3898C164.322 53.9949 164.11 53.4856 164.085 52.9505C164.052 52.3979 164.181 51.8478 164.455 51.3669C164.593 51.1145 164.779 50.892 165.003 50.7122C165.227 50.5325 165.485 50.3991 165.761 50.3198C166.282 50.1665 166.841 50.2209 167.323 50.4715C166.847 50.5015 166.383 50.6274 165.957 50.8415C165.581 51.0404 165.273 51.347 165.073 51.7221C164.618 52.5326 164.479 53.4831 164.684 54.3898Z" fill="#011627"/>
<path opacity="0.2" d="M161.735 58.1094C161.933 58.4362 162.007 58.824 161.942 59.2009C161.881 59.5929 161.701 59.9569 161.428 60.2443C161.289 60.3942 161.121 60.5146 160.935 60.5985C160.749 60.6824 160.548 60.728 160.344 60.7327C159.958 60.744 159.583 60.6122 159.289 60.3627C159.624 60.4153 159.966 60.4078 160.299 60.3405C160.59 60.2704 160.854 60.1159 161.058 59.8965C161.274 59.669 161.444 59.4012 161.557 59.1084C161.674 58.7882 161.734 58.4502 161.735 58.1094Z" fill="#011627"/>
<path opacity="0.2" d="M159.564 59.8048C159.4 59.5949 159.326 59.3291 159.356 59.0648C159.397 58.7849 159.527 58.5255 159.726 58.3248C159.827 58.216 159.948 58.1295 160.084 58.0708C160.22 58.0122 160.367 57.9827 160.514 57.9844C160.653 57.9834 160.79 58.0112 160.918 58.066C161.045 58.1207 161.16 58.2013 161.254 58.3026C161.026 58.2951 160.798 58.3212 160.577 58.3803C160.398 58.4353 160.237 58.5376 160.111 58.6763C159.81 58.9824 159.618 59.3789 159.564 59.8048Z" fill="#011627"/>
<path opacity="0.2" d="M146.891 40.8008C147.033 41.0334 147.085 41.3094 147.039 41.5778C146.995 41.8566 146.866 42.1149 146.669 42.3178C146.571 42.4246 146.452 42.5105 146.32 42.5703C146.188 42.6301 146.045 42.6625 145.9 42.6656C145.629 42.6711 145.366 42.5777 145.16 42.4029C145.396 42.446 145.638 42.446 145.874 42.4029C146.081 42.3544 146.269 42.2449 146.414 42.0884C146.575 41.9297 146.701 41.7395 146.784 41.5297C146.863 41.2952 146.9 41.0482 146.891 40.8008Z" fill="#011627"/>
<path opacity="0.2" d="M145.355 42.0089C145.295 41.9333 145.252 41.8465 145.227 41.7536C145.202 41.6608 145.197 41.5638 145.21 41.4687C145.234 41.2684 145.322 41.0812 145.462 40.9359C145.533 40.8585 145.619 40.7971 145.716 40.7556C145.812 40.7141 145.916 40.6936 146.021 40.6954C146.117 40.6954 146.213 40.7155 146.302 40.7544C146.39 40.7932 146.47 40.85 146.535 40.9211C146.373 40.9147 146.211 40.9335 146.054 40.9766C145.927 41.0161 145.814 41.089 145.725 41.1875C145.513 41.4124 145.383 41.7015 145.355 42.0089Z" fill="#011627"/>
<path opacity="0.2" d="M147.49 54.8945C147.681 54.922 147.864 54.9875 148.029 55.0873C148.193 55.1872 148.336 55.3192 148.449 55.4754C148.571 55.6447 148.658 55.8365 148.705 56.0398C148.752 56.2431 148.758 56.4538 148.723 56.6594C148.684 56.8711 148.597 57.071 148.469 57.2436C148.341 57.4162 148.174 57.5569 147.983 57.6547C147.644 57.8398 147.252 57.9037 146.873 57.836C147.15 57.6518 147.41 57.4425 147.65 57.2107C147.841 57.0329 147.971 56.7981 148.02 56.541C148.066 56.2736 148.045 55.9986 147.957 55.7418C147.849 55.4355 147.692 55.1492 147.49 54.8945Z" fill="#011627"/>
<path opacity="0.2" d="M146.753 57.2988C146.61 57.2996 146.468 57.2666 146.339 57.2023C146.211 57.138 146.099 57.0443 146.013 56.9288C145.918 56.8081 145.849 56.6685 145.811 56.5193C145.774 56.37 145.768 56.2145 145.795 56.063C145.82 55.904 145.883 55.7534 145.979 55.6243C146.075 55.4953 146.201 55.3919 146.346 55.323C146.47 55.2619 146.604 55.2259 146.741 55.217C146.878 55.2081 147.016 55.2265 147.146 55.2712C146.977 55.4244 146.819 55.5888 146.672 55.7633C146.573 55.8795 146.507 56.0199 146.48 56.1703C146.448 56.3291 146.448 56.4924 146.48 56.6513C146.537 56.8799 146.629 57.0984 146.753 57.2988Z" fill="#011627"/>
<path opacity="0.2" d="M164.089 36.3711C164.213 36.5179 164.306 36.6883 164.363 36.8721C164.419 37.0558 164.438 37.2492 164.418 37.4404C164.397 37.6479 164.335 37.8492 164.236 38.0322C164.136 38.2153 164 38.3764 163.837 38.506C163.669 38.6394 163.474 38.7325 163.264 38.778C163.055 38.8236 162.838 38.8204 162.631 38.7687C162.258 38.6838 161.927 38.4735 161.691 38.173C162.019 38.2225 162.351 38.2386 162.683 38.2211C162.944 38.2139 163.197 38.1232 163.404 37.9621C163.616 37.7931 163.782 37.5728 163.885 37.322C164.005 37.0186 164.074 36.6972 164.089 36.3711Z" fill="#011627"/>
<path opacity="0.2" d="M161.943 37.6778C161.838 37.5866 161.755 37.4724 161.701 37.3441C161.647 37.2157 161.624 37.0767 161.632 36.9378C161.643 36.7812 161.687 36.6287 161.761 36.4903C161.835 36.3519 161.937 36.2308 162.061 36.1349C162.186 36.0357 162.333 35.9678 162.489 35.9369C162.646 35.906 162.807 35.913 162.96 35.9573C163.228 36.0317 163.455 36.2085 163.593 36.4494C163.364 36.4535 163.135 36.472 162.909 36.5049C162.758 36.5246 162.615 36.5861 162.498 36.6825C162.37 36.7838 162.263 36.9096 162.183 37.0525C162.074 37.2485 161.993 37.459 161.943 37.6778Z" fill="#011627"/>
<path d="M146.52 52.8751C146.561 53.53 145.584 54.1257 144.341 54.1997C143.098 54.2737 142.058 53.8038 142.017 53.1452C141.977 52.4866 142.953 51.8946 144.197 51.8169C145.44 51.7392 146.465 52.2165 146.52 52.8751Z" fill="#CAC2FE"/>
<path d="M162.294 48.4681C162.601 49.0527 163.741 49.0527 164.843 48.4681C165.946 47.8835 166.59 46.9437 166.283 46.3628C165.976 45.7819 164.832 45.7782 163.73 46.3628C162.627 46.9474 161.987 47.8724 162.294 48.4681Z" fill="#CAC2FE"/>
<path d="M151.139 49.2952C152.356 50.5014 154.339 50.2868 155.605 49.2952C156.031 48.9382 156.344 48.4652 156.507 47.9336C156.515 48.5406 156.283 49.126 155.86 49.5616C154.635 50.8603 152.056 51.0416 151.139 49.31V49.2952Z" fill="#263238"/>
<path d="M147.724 45.4236C146.525 45.5677 145.43 46.1761 144.675 47.1182C144.418 47.4368 144.199 47.7846 144.024 48.1542C144.022 47.9376 144.052 47.722 144.112 47.5141C144.527 46.0341 146.225 44.9426 147.724 45.4236Z" fill="#263238"/>
<path d="M157.384 42.7199C158.413 41.5322 160.441 41.6099 161.554 42.6348C161.717 42.7785 161.856 42.9471 161.965 43.1343C161.619 42.9066 161.246 42.7215 160.855 42.583C159.72 42.1736 158.469 42.2227 157.37 42.7199H157.384Z" fill="#263238"/>
<path d="M157.832 47.2035C158.363 47.3605 158.925 47.3748 159.463 47.2449C160.001 47.115 160.495 46.8454 160.896 46.4635C161.168 46.1974 161.415 45.9076 161.636 45.5977C161.591 47.4477 159.201 48.1877 157.836 47.1961L157.832 47.2035Z" fill="#263238"/>
<path d="M149.669 49.4883C149.007 51.0349 146.583 51.6454 145.599 50.0951C145.947 50.2482 146.307 50.3719 146.676 50.4651C147.217 50.58 147.779 50.551 148.306 50.3809C148.832 50.2108 149.305 49.9056 149.677 49.4957L149.669 49.4883Z" fill="#263238"/>
<path opacity="0.1" d="M167.921 60.2141C166.817 61.3336 165.554 62.2848 164.173 63.0372C164.217 63.2101 164.225 63.3903 164.196 63.5663C164.162 63.8155 164.061 64.0507 163.903 64.2463C163.745 64.442 163.537 64.5907 163.3 64.6763L161.953 65.1647C161.803 65.2186 161.644 65.2462 161.483 65.2461C161.348 65.2454 161.213 65.2242 161.084 65.1832C160.745 65.0829 160.458 64.8547 160.285 64.5468C158.154 65.0539 155.943 65.1186 153.787 64.7367C151.63 64.3549 149.576 63.5347 147.749 62.3268C147.476 62.5212 147.142 62.61 146.809 62.5767C146.475 62.5433 146.165 62.3901 145.936 62.1455L144.956 61.0984C144.78 60.9102 144.661 60.6768 144.611 60.4244C144.562 60.1721 144.583 59.9108 144.674 59.6702C142.105 56.8091 140.66 53.1144 140.604 49.2695H140.601C140.52 49.2697 140.439 49.2622 140.36 49.2473C140.002 49.1798 139.684 48.9738 139.476 48.674C139.269 48.3742 139.187 48.0046 139.25 47.6452L139.724 45.0182C139.78 44.6981 139.948 44.408 140.197 44.199C140.446 43.9899 140.76 43.8752 141.085 43.8749C141.166 43.8768 141.246 43.8842 141.326 43.8971L141.463 43.9304C142.133 41.9237 143.198 40.0708 144.593 38.4803C144.573 38.4637 144.554 38.4451 144.537 38.4248C144.413 38.2923 144.317 38.1366 144.253 37.9666C144.189 37.7966 144.159 37.6157 144.165 37.4342C144.171 37.2527 144.213 37.0742 144.289 36.909C144.364 36.7437 144.471 36.595 144.604 36.4712L145.651 35.4944C145.907 35.2556 146.245 35.1233 146.595 35.1244H146.757C147.082 35.1634 147.382 35.3153 147.605 35.5536C147.658 35.6096 147.706 35.6703 147.749 35.7349C150.289 34.0472 153.261 33.1263 156.311 33.082C146.454 36.153 142.521 44.552 145.211 53.3876C147.083 59.5555 154.128 63.3147 160.836 62.6376C161.726 62.549 162.607 62.3806 163.467 62.1344C165.485 61.5604 167.345 60.5299 168.902 59.1226C168.594 59.503 168.267 59.8673 167.921 60.2141Z" fill="#011627"/>
<path opacity="0.3" d="M173.779 48.9337C173.779 49.2658 173.66 49.5869 173.442 49.8378C173.224 50.0888 172.923 50.2525 172.595 50.299C172.547 50.3026 172.498 50.3026 172.45 50.299C172.41 50.8022 172.343 51.3054 172.254 51.8123C171.778 54.4973 170.62 57.0149 168.891 59.1235C176.239 44.5455 164.98 34.9218 157.491 33.0977C158.111 33.1399 158.729 33.214 159.341 33.3197C162.328 33.8527 165.101 35.227 167.334 37.281C169.566 39.335 171.167 41.9835 171.947 44.9155C172.288 44.9018 172.622 45.0149 172.884 45.2329C173.146 45.4508 173.319 45.7582 173.368 46.0958L173.738 48.7376C173.755 48.8021 173.769 48.8676 173.779 48.9337Z" fill="white"/>
</svg>
