<svg width="280" height="280" viewBox="0 0 280 280" fill="none" xmlns="http://www.w3.org/2000/svg">
<path d="M280 214.144H0V214.284H280V214.144Z" fill="#F7F5FF"/>
<path d="M220.18 218.399H210.738V218.539H220.18V218.399Z" fill="#F7F5FF"/>
<path d="M251.194 218.333H226.24V218.473H251.194V218.333Z" fill="#F7F5FF"/>
<path d="M179.608 219.273H148.545V219.413H179.608V219.273Z" fill="#F7F5FF"/>
<path d="M145.32 219.273H133.717V219.413H145.32V219.273Z" fill="#F7F5FF"/>
<path d="M84.8733 218.192H79.7773V218.332H84.8733V218.192Z" fill="#F7F5FF"/>
<path d="M96.4048 218.192H87.9824V218.332H96.4048V218.192Z" fill="#F7F5FF"/>
<path d="M74.7326 220.718H37.459V220.858H74.7326V220.718Z" fill="#F7F5FF"/>
<path d="M132.721 189.168H24.5904C23.7434 189.166 22.9315 188.829 22.333 188.229C21.7346 187.63 21.3984 186.817 21.3984 185.97V33.9694C21.4058 33.1272 21.7452 32.3219 22.3428 31.7284C22.9405 31.1349 23.7482 30.8012 24.5904 30.7998H132.721C133.569 30.7998 134.382 31.1367 134.982 31.7364C135.582 32.336 135.918 33.1493 135.918 33.9974V185.97C135.918 186.818 135.582 187.632 134.982 188.231C134.382 188.831 133.569 189.168 132.721 189.168ZM24.5904 30.9118C23.7805 30.9133 23.0042 31.2361 22.432 31.8093C21.8598 32.3826 21.5384 33.1594 21.5384 33.9694V185.97C21.5384 186.78 21.8598 187.557 22.432 188.13C23.0042 188.704 23.7805 189.026 24.5904 189.028H132.721C133.531 189.026 134.308 188.704 134.881 188.131C135.454 187.558 135.777 186.781 135.778 185.97V33.9694C135.777 33.1589 135.454 32.3821 134.881 31.809C134.308 31.2359 133.531 30.9133 132.721 30.9118H24.5904Z" fill="#F7F5FF"/>
<path d="M253.853 189.168H145.717C144.87 189.166 144.057 188.829 143.458 188.23C142.858 187.63 142.521 186.818 142.52 185.97V33.9694C142.528 33.1267 142.869 32.3214 143.468 31.7281C144.066 31.1347 144.874 30.8012 145.717 30.7998H253.853C254.694 30.8027 255.501 31.1371 256.097 31.7304C256.694 32.3237 257.032 33.1281 257.04 33.9694V185.97C257.04 186.816 256.704 187.628 256.107 188.227C255.51 188.827 254.699 189.165 253.853 189.168ZM145.717 30.9118C144.907 30.9133 144.13 31.2359 143.557 31.809C142.984 32.3821 142.661 33.1589 142.66 33.9694V185.97C142.661 186.781 142.984 187.558 143.557 188.131C144.13 188.704 144.907 189.026 145.717 189.028H253.853C254.664 189.026 255.44 188.704 256.014 188.131C256.587 187.558 256.909 186.781 256.911 185.97V33.9694C256.909 33.1589 256.587 32.3821 256.014 31.809C255.44 31.2359 254.664 30.9133 253.853 30.9118H145.717Z" fill="#F7F5FF"/>
<path d="M177.963 145.902H151.441V214.144H177.963V145.902Z" fill="#F7F5FF"/>
<path d="M172.921 214.144H177.961V199.813H167.641L172.921 214.144Z" fill="#EEEBFE"/>
<path d="M78.8419 145.902H52.3203V214.144H78.8419V145.902Z" fill="#F7F5FF"/>
<path d="M177.958 145.902H74.4473V205.352H177.958V145.902Z" fill="#EEEBFE"/>
<path d="M127.893 150.22V187.438H174.053V150.22H127.893Z" fill="#F7F5FF"/>
<path d="M78.3555 150.226V187.443H124.516V150.226H78.3555Z" fill="#F7F5FF"/>
<path d="M174.053 199.814V197.075H127.892V199.814H174.053Z" fill="#F7F5FF"/>
<path d="M124.516 199.814V197.075H78.3548V199.814H124.516Z" fill="#F7F5FF"/>
<path d="M174.049 194.522V191.783H127.888V194.522H174.049Z" fill="#F7F5FF"/>
<path d="M124.51 194.527V191.789H78.349V194.527H124.51Z" fill="#F7F5FF"/>
<path d="M106.002 154.23H96.8794C94.9166 154.23 92.9744 153.83 91.1711 153.055C89.3678 152.28 87.7412 151.146 86.3906 149.722H116.479C115.131 151.145 113.506 152.279 111.705 153.054C109.903 153.829 107.963 154.229 106.002 154.23Z" fill="#EEEBFE"/>
<path d="M156.005 154.23H146.877C144.915 154.23 142.972 153.831 141.169 153.056C139.365 152.281 137.739 151.146 136.389 149.722H166.494C165.144 151.146 163.518 152.281 161.714 153.056C159.911 153.831 157.968 154.23 156.005 154.23Z" fill="#EEEBFE"/>
<path d="M79.4873 214.144H74.4473V199.813H84.7681L79.4873 214.144Z" fill="#EEEBFE"/>
<path d="M177.391 41.4346H38.2754V120.899H177.391V41.4346Z" fill="#F7F5FF"/>
<path d="M185.086 38.9814H33.5999C33.4113 38.9814 33.2304 39.0564 33.097 39.1897C32.9636 39.3231 32.8887 39.504 32.8887 39.6926C32.888 39.7865 32.9058 39.8796 32.9412 39.9665C32.9766 40.0535 33.0289 40.1325 33.095 40.1992C33.1611 40.2658 33.2398 40.3187 33.3264 40.3548C33.4131 40.3909 33.506 40.4094 33.5999 40.4094H185.086C185.179 40.4094 185.272 40.3909 185.359 40.3548C185.446 40.3187 185.524 40.2658 185.59 40.1992C185.657 40.1325 185.709 40.0535 185.744 39.9665C185.78 39.8796 185.797 39.7865 185.797 39.6926C185.797 39.504 185.722 39.3231 185.588 39.1897C185.455 39.0564 185.274 38.9814 185.086 38.9814Z" fill="#F7F5FF"/>
<path d="M180.438 41.4346H39.6992V120.899H180.438V41.4346Z" fill="#E6E6E6"/>
<path d="M177.391 120.898H38.2754V126.56H177.391V120.898Z" fill="#F7F5FF"/>
<path d="M185.511 120.898H44.7715V126.56H185.511V120.898Z" fill="#E6E6E6"/>
<path d="M176.164 116.631V45.7012L43.9593 45.7012V116.631L176.164 116.631Z" fill="#F5F5F5"/>
<path d="M109.391 116.631L134.428 45.7012H146.244L121.207 116.631H109.391Z" fill="#FFEDAD"/>
<path d="M123.748 116.631L148.786 45.7012H153.389L128.357 116.631H123.748Z" fill="#FFEDAD"/>
<path d="M176.164 116.631V45.7012H175.621V116.631H176.164Z" fill="#F7F5FF"/>
<path d="M44.0096 37.7051H36.668V106.148H44.0096V37.7051Z" fill="#EBEBEB"/>
<path d="M46.8719 37.7051H41.1543V106.148H46.8719V37.7051Z" fill="#F7F5FF"/>
<path d="M51.3514 37.7051H44.0098V106.148H51.3514V37.7051Z" fill="#EBEBEB"/>
<path d="M54.2137 37.7051H48.4961V106.148H54.2137V37.7051Z" fill="#F7F5FF"/>
<path d="M58.6932 37.7051H51.3516V106.148H58.6932V37.7051Z" fill="#EBEBEB"/>
<path d="M173.431 37.7051H169.203V106.148H173.431V37.7051Z" fill="#EBEBEB"/>
<path d="M175.089 37.7051H171.791V106.148H175.089V37.7051Z" fill="#F7F5FF"/>
<path d="M177.666 37.7051H173.438V106.148H177.666V37.7051Z" fill="#EBEBEB"/>
<path d="M179.318 37.7051H176.02V106.148H179.318V37.7051Z" fill="#F7F5FF"/>
<path d="M181.894 37.7051H177.666V106.148H181.894V37.7051Z" fill="#EBEBEB"/>
<path d="M220.378 67.3955H210.992V93.0043H220.378V67.3955Z" fill="#E6E6E6"/>
<path d="M207.425 97.2773L205.252 103.197H207.425L220.714 97.2773H207.425Z" fill="#EEEBFE"/>
<path d="M205.252 97.2773V103.197L218.546 97.2773H205.252Z" fill="#F7F5FF"/>
<path d="M230.155 97.2773L227.982 103.197H230.155L243.444 97.2773H230.155Z" fill="#EEEBFE"/>
<path d="M227.982 97.2773V103.197L241.277 97.2773H227.982Z" fill="#F7F5FF"/>
<path d="M195.501 97.5518H209.955V93.0438H195.501V97.5518Z" fill="#F7F5FF"/>
<path d="M251.193 93.0439H209.949V97.5519H251.193V93.0439Z" fill="#EEEBFE"/>
<path d="M236.012 93.0042H213.17L210.342 61.9746H233.184L236.012 93.0042Z" fill="#F7F5FF"/>
<path d="M237.194 93.0042H214.352L211.529 61.9746H234.372L237.194 93.0042Z" fill="#EEEBFE"/>
<path d="M217.476 89.5722L215.275 65.4082H231.247L233.447 89.5722H217.476Z" fill="#FFEDAD"/>
<path d="M88.1492 135.94C88.1492 135.94 78.2988 118.966 91.9628 105.453C91.9628 105.453 95.53 107.777 95.474 110.902C95.418 114.027 91.6548 114.822 92.4668 117.42C93.2788 120.019 96.8292 122.589 94.494 124.745C92.1588 126.901 94.8692 128.816 94.7124 131.465C94.5556 134.114 88.1492 135.94 88.1492 135.94Z" fill="#F7F5FF"/>
<path d="M88.8945 137.491C88.8945 137.491 92.8873 118.277 75.6617 109.76C75.6617 109.76 73.0129 113.092 74.0489 116.037C75.0849 118.983 78.9041 118.552 78.9601 121.279C79.0161 124.006 76.4513 127.557 79.3409 128.867C82.2305 130.177 80.2705 132.854 81.2561 135.307C82.2417 137.76 88.8945 137.491 88.8945 137.491Z" fill="#F7F5FF"/>
<path d="M73.8086 133.235C73.8086 133.235 74.1334 145.903 86.6886 145.903C99.2438 145.903 99.5686 133.235 99.5686 133.235H73.8086Z" fill="#EEEBFE"/>
<path d="M140 239.433C199.966 239.433 248.579 236.595 248.579 233.094C248.579 229.593 199.966 226.755 140 226.755C80.0341 226.755 31.4219 229.593 31.4219 233.094C31.4219 236.595 80.0341 239.433 140 239.433Z" fill="#F7F5FF"/>
<path d="M104.468 71.8361C104.47 70.793 104.386 69.7516 104.216 68.7225C103.465 64.1738 101.136 60.0353 97.6359 57.0344C94.1362 54.0335 89.6907 52.3623 85.0808 52.3145H84.9128C81.8201 52.3163 78.7721 53.0536 76.0205 54.4655C73.2688 55.8773 70.8924 57.9232 69.0872 60.4345C68.7904 60.8433 68.5272 61.2633 68.2584 61.6833C68.2365 61.711 68.2177 61.741 68.2024 61.7729C66.3641 64.8133 65.3955 68.2999 65.4024 71.8529V71.8921C65.4139 76.0214 66.7338 80.0409 69.1726 83.3732C71.6113 86.7055 75.0434 89.1792 78.9759 90.4391C82.9084 91.6989 87.139 91.68 91.0601 90.3851C94.9812 89.0902 98.3911 86.586 100.8 83.2321C101.091 82.8233 101.36 82.4089 101.623 81.9833C101.645 81.9555 101.664 81.9255 101.679 81.8937C103.515 78.861 104.48 75.3811 104.468 71.8361ZM66.2368 71.3937C66.3015 68.1962 67.1949 65.0704 68.8296 62.3217H74.9392C74.0055 65.2563 73.5167 68.3142 73.4888 71.3937H66.2368ZM75.796 62.3217H84.5096V71.3937H74.3288C74.3473 68.3121 74.8422 65.252 75.796 62.3217ZM85.3496 61.4817V53.1265C86.5608 53.2362 87.7207 53.6674 88.7096 54.3753C90.7872 55.7977 92.5288 58.2953 93.7496 61.4817H85.3496ZM94.052 62.3217C94.7448 64.4195 95.1957 66.5895 95.396 68.7897C95.48 69.6633 95.5192 70.5313 95.5304 71.3937H85.3496V62.3217H94.052ZM83.2776 53.3617C83.6796 53.2474 84.0926 53.1761 84.5096 53.1489V61.4985H76.1096C77.6776 57.2761 80.22 54.2073 83.2776 53.3449V53.3617ZM84.5096 72.2505V81.3225H75.8128C75.1199 79.2195 74.6726 77.0434 74.48 74.8377C74.4016 73.9641 74.3568 73.0961 74.3456 72.2337L84.5096 72.2505ZM84.5096 82.1625V90.5177C83.2986 90.4071 82.1389 89.976 81.1496 89.2689C79.0776 87.8465 77.336 85.3489 76.1096 82.1625H84.5096ZM86.5816 90.2993C86.1797 90.414 85.7667 90.4853 85.3496 90.5121V82.1457H93.7496C92.1816 86.3513 89.6392 89.4257 86.5816 90.2825V90.2993ZM85.3496 81.3393V72.2393H95.5304C95.5146 75.321 95.0196 78.3816 94.0632 81.3113L85.3496 81.3393ZM96.3704 72.2393H103.65C103.583 75.4362 102.689 78.5613 101.058 81.3113H94.92C95.8536 78.3766 96.3425 75.3187 96.3704 72.2393ZM103.65 71.3993H96.3704C96.3704 70.5145 96.3144 69.6185 96.2304 68.7169C96.0392 66.5463 95.6092 64.4035 94.948 62.3273H101.046C102.225 64.3282 103.021 66.5311 103.393 68.8233C103.526 69.6741 103.605 70.5327 103.628 71.3937L103.65 71.3993ZM95.8832 56.6545C97.7135 57.9729 99.2917 59.6099 100.542 61.4873H94.64C93.3856 58.0209 91.4984 55.2769 89.1856 53.6865L89.0064 53.5689C91.4758 54.1218 93.8076 55.1696 95.8608 56.6489L95.8832 56.6545ZM80.836 53.5801C78.4784 55.1313 76.5408 57.9537 75.236 61.4873H69.356L69.7648 60.8881C72.4242 57.1756 76.3572 54.5722 80.8136 53.5745L80.836 53.5801ZM66.276 72.2393H73.528C73.528 73.1241 73.584 74.0201 73.668 74.9216C73.8618 77.0918 74.2918 79.2344 74.9504 81.3113H68.8184C67.6375 79.3114 66.8416 77.1081 66.472 74.8153C66.3326 73.9633 66.254 73.1024 66.2368 72.2393H66.276ZM69.3784 82.1513H75.236C76.4904 85.6177 78.3776 88.3617 80.6904 89.9521L80.8752 90.0697C76.1698 89.001 72.0544 86.1665 69.3784 82.1513ZM89.04 90.0529C91.392 88.5073 93.3296 85.6793 94.64 82.1457H100.509C100.374 82.3473 100.24 82.5489 100.1 82.7449C97.4384 86.459 93.5004 89.061 89.04 90.0529Z" fill="#664EFE"/>
<path opacity="0.8" d="M104.468 71.8361C104.47 70.793 104.386 69.7516 104.216 68.7225C103.465 64.1738 101.136 60.0353 97.6359 57.0344C94.1362 54.0335 89.6907 52.3623 85.0808 52.3145H84.9128C81.8201 52.3163 78.7721 53.0536 76.0205 54.4655C73.2688 55.8773 70.8924 57.9232 69.0872 60.4345C68.7904 60.8433 68.5272 61.2633 68.2584 61.6833C68.2365 61.711 68.2177 61.741 68.2024 61.7729C66.3641 64.8133 65.3955 68.2999 65.4024 71.8529V71.8921C65.4139 76.0214 66.7338 80.0409 69.1726 83.3732C71.6113 86.7055 75.0434 89.1792 78.9759 90.4391C82.9084 91.6989 87.139 91.68 91.0601 90.3851C94.9812 89.0902 98.3911 86.586 100.8 83.2321C101.091 82.8233 101.36 82.4089 101.623 81.9833C101.645 81.9555 101.664 81.9255 101.679 81.8937C103.515 78.861 104.48 75.3811 104.468 71.8361ZM66.2368 71.3937C66.3015 68.1962 67.1949 65.0704 68.8296 62.3217H74.9392C74.0055 65.2563 73.5167 68.3142 73.4888 71.3937H66.2368ZM75.796 62.3217H84.5096V71.3937H74.3288C74.3473 68.3121 74.8422 65.252 75.796 62.3217ZM85.3496 61.4817V53.1265C86.5608 53.2362 87.7207 53.6674 88.7096 54.3753C90.7872 55.7977 92.5288 58.2953 93.7496 61.4817H85.3496ZM94.052 62.3217C94.7448 64.4195 95.1957 66.5895 95.396 68.7897C95.48 69.6633 95.5192 70.5313 95.5304 71.3937H85.3496V62.3217H94.052ZM83.2776 53.3617C83.6796 53.2474 84.0926 53.1761 84.5096 53.1489V61.4985H76.1096C77.6776 57.2761 80.22 54.2073 83.2776 53.3449V53.3617ZM84.5096 72.2505V81.3225H75.8128C75.1199 79.2195 74.6726 77.0434 74.48 74.8377C74.4016 73.9641 74.3568 73.0961 74.3456 72.2337L84.5096 72.2505ZM84.5096 82.1625V90.5177C83.2986 90.4071 82.1389 89.976 81.1496 89.2689C79.0776 87.8465 77.336 85.3489 76.1096 82.1625H84.5096ZM86.5816 90.2993C86.1797 90.414 85.7667 90.4853 85.3496 90.5121V82.1457H93.7496C92.1816 86.3513 89.6392 89.4257 86.5816 90.2825V90.2993ZM85.3496 81.3393V72.2393H95.5304C95.5146 75.321 95.0196 78.3816 94.0632 81.3113L85.3496 81.3393ZM96.3704 72.2393H103.65C103.583 75.4362 102.689 78.5613 101.058 81.3113H94.92C95.8536 78.3766 96.3425 75.3187 96.3704 72.2393ZM103.65 71.3993H96.3704C96.3704 70.5145 96.3144 69.6185 96.2304 68.7169C96.0392 66.5463 95.6092 64.4035 94.948 62.3273H101.046C102.225 64.3282 103.021 66.5311 103.393 68.8233C103.526 69.6741 103.605 70.5327 103.628 71.3937L103.65 71.3993ZM95.8832 56.6545C97.7135 57.9729 99.2917 59.6099 100.542 61.4873H94.64C93.3856 58.0209 91.4984 55.2769 89.1856 53.6865L89.0064 53.5689C91.4758 54.1218 93.8076 55.1696 95.8608 56.6489L95.8832 56.6545ZM80.836 53.5801C78.4784 55.1313 76.5408 57.9537 75.236 61.4873H69.356L69.7648 60.8881C72.4242 57.1756 76.3572 54.5722 80.8136 53.5745L80.836 53.5801ZM66.276 72.2393H73.528C73.528 73.1241 73.584 74.0201 73.668 74.9216C73.8618 77.0918 74.2918 79.2344 74.9504 81.3113H68.8184C67.6375 79.3114 66.8416 77.1081 66.472 74.8153C66.3326 73.9633 66.254 73.1024 66.2368 72.2393H66.276ZM69.3784 82.1513H75.236C76.4904 85.6177 78.3776 88.3617 80.6904 89.9521L80.8752 90.0697C76.1698 89.001 72.0544 86.1665 69.3784 82.1513ZM89.04 90.0529C91.392 88.5073 93.3296 85.6793 94.64 82.1457H100.509C100.374 82.3473 100.24 82.5489 100.1 82.7449C97.4384 86.459 93.5004 89.061 89.04 90.0529Z" fill="#FFEDAD"/>
<path d="M232.002 81.1436H55.9375V123.804H232.002V81.1436Z" fill="#664EFE"/>
<path opacity="0.6" d="M232.002 81.1436H55.9375V123.804H232.002V81.1436Z" fill="#FFEDAD"/>
<path d="M228.031 85.1143H51.9668V127.775H228.031V85.1143Z" fill="#664EFE"/>
<path opacity="0.3" d="M228.031 85.1143H51.9668V127.775H228.031V85.1143Z" fill="black"/>
<path d="M224.06 89.084H47.9961V131.745H224.06V89.084Z" fill="#664EFE"/>
<path opacity="0.1" d="M224.06 89.084H47.9961V131.745H224.06V89.084Z" fill="#FFEDAD"/>
<path d="M215.66 123.345V97.4844L56.3962 97.4844V123.345L215.66 123.345Z" fill="#664EFE"/>
<path opacity="0.9" d="M215.66 123.345V97.4844L56.3962 97.4844V123.345L215.66 123.345Z" fill="#FFEDAD"/>
<path d="M188.871 97.4839V123.345H189.806V97.4839H188.871Z" fill="#664EFE"/>
<path opacity="0.6" d="M188.871 97.4839V123.345H189.806V97.4839H188.871Z" fill="#FFEDAD"/>
<path d="M60.3672 101.052V119.778H61.3024V101.052H60.3672Z" fill="#664EFE"/>
<path opacity="0.6" d="M60.3672 101.052V119.778H61.3024V101.052H60.3672Z" fill="#FFEDAD"/>
<path d="M201.84 113.68C201.161 113.679 200.492 113.512 199.892 113.191C199.293 112.871 198.782 112.407 198.405 111.842C198.028 111.277 197.795 110.628 197.729 109.951C197.662 109.275 197.764 108.593 198.024 107.965C198.284 107.337 198.695 106.783 199.22 106.352C199.745 105.921 200.369 105.626 201.035 105.494C201.701 105.361 202.39 105.395 203.041 105.592C203.691 105.789 204.283 106.143 204.763 106.624C205.342 107.202 205.735 107.938 205.895 108.74C206.055 109.542 205.973 110.373 205.66 111.129C205.347 111.884 204.817 112.53 204.137 112.984C203.457 113.438 202.658 113.68 201.84 113.68ZM201.84 106.54C201.143 106.54 200.467 106.782 199.929 107.224C199.39 107.667 199.021 108.283 198.886 108.966C198.75 109.65 198.856 110.36 199.185 110.975C199.514 111.589 200.046 112.071 200.69 112.337C201.335 112.603 202.052 112.638 202.719 112.435C203.385 112.232 203.961 111.803 204.348 111.223C204.735 110.643 204.908 109.947 204.839 109.253C204.77 108.559 204.462 107.911 203.968 107.419C203.692 107.134 203.361 106.907 202.996 106.751C202.63 106.595 202.237 106.514 201.84 106.512V106.54Z" fill="#664EFE"/>
<path d="M207.199 115.438C207.125 115.438 207.051 115.423 206.983 115.394C206.915 115.365 206.853 115.323 206.801 115.27L203.973 112.442C203.914 112.392 203.867 112.33 203.833 112.261C203.8 112.191 203.781 112.116 203.778 112.039C203.775 111.962 203.788 111.885 203.816 111.813C203.844 111.741 203.887 111.676 203.941 111.621C203.996 111.566 204.061 111.524 204.133 111.496C204.205 111.467 204.282 111.454 204.359 111.457C204.436 111.46 204.512 111.479 204.581 111.513C204.651 111.547 204.712 111.594 204.763 111.653L207.591 114.481C207.695 114.586 207.754 114.728 207.754 114.876C207.754 115.024 207.695 115.165 207.591 115.27C207.487 115.376 207.346 115.436 207.199 115.438Z" fill="#664EFE"/>
<g opacity="0.6">
<path d="M201.84 113.68C201.161 113.679 200.492 113.512 199.892 113.191C199.293 112.871 198.782 112.407 198.405 111.842C198.028 111.277 197.795 110.628 197.729 109.951C197.662 109.275 197.764 108.593 198.024 107.965C198.284 107.337 198.695 106.783 199.22 106.352C199.745 105.921 200.369 105.626 201.035 105.494C201.701 105.361 202.39 105.395 203.041 105.592C203.691 105.789 204.283 106.143 204.763 106.624C205.342 107.202 205.735 107.938 205.895 108.74C206.055 109.542 205.973 110.373 205.66 111.129C205.347 111.884 204.817 112.53 204.137 112.984C203.457 113.438 202.658 113.68 201.84 113.68ZM201.84 106.54C201.143 106.54 200.467 106.782 199.929 107.224C199.39 107.667 199.021 108.283 198.886 108.966C198.75 109.65 198.856 110.36 199.185 110.975C199.514 111.589 200.046 112.071 200.69 112.337C201.335 112.603 202.052 112.638 202.719 112.435C203.385 112.232 203.961 111.803 204.348 111.223C204.735 110.643 204.908 109.947 204.839 109.253C204.77 108.559 204.462 107.911 203.968 107.419C203.692 107.134 203.361 106.907 202.996 106.751C202.63 106.595 202.237 106.514 201.84 106.512V106.54Z" fill="#FFEDAD"/>
<path d="M207.199 115.438C207.125 115.438 207.051 115.423 206.983 115.394C206.915 115.365 206.853 115.323 206.801 115.27L203.973 112.442C203.914 112.392 203.867 112.33 203.833 112.261C203.8 112.191 203.781 112.116 203.778 112.039C203.775 111.962 203.788 111.885 203.816 111.813C203.844 111.741 203.887 111.676 203.941 111.621C203.996 111.566 204.061 111.524 204.133 111.496C204.205 111.467 204.282 111.454 204.359 111.457C204.436 111.46 204.512 111.479 204.581 111.513C204.651 111.547 204.712 111.594 204.763 111.653L207.591 114.481C207.695 114.586 207.754 114.728 207.754 114.876C207.754 115.024 207.695 115.165 207.591 115.27C207.487 115.376 207.346 115.436 207.199 115.438Z" fill="#FFEDAD"/>
</g>
<path d="M163.851 55.3555H146.244V55.7923H163.851V55.3555Z" fill="#664EFE"/>
<path d="M163.851 57.209H146.244V57.6458H163.851V57.209Z" fill="#664EFE"/>
<path d="M163.851 59.0684H146.244V59.5052H163.851V59.0684Z" fill="#664EFE"/>
<path d="M163.851 60.9219H146.244V61.3587H163.851V60.9219Z" fill="#664EFE"/>
<path d="M163.851 62.7754H146.244V63.2122H163.851V62.7754Z" fill="#664EFE"/>
<path d="M157.724 64.6348H146.244V65.0716H157.724V64.6348Z" fill="#664EFE"/>
<g opacity="0.5">
<path d="M163.851 55.3555H146.244V55.7923H163.851V55.3555Z" fill="#FFEDAD"/>
<path d="M163.851 57.209H146.244V57.6458H163.851V57.209Z" fill="#FFEDAD"/>
<path d="M163.851 59.0684H146.244V59.5052H163.851V59.0684Z" fill="#FFEDAD"/>
<path d="M163.851 60.9219H146.244V61.3587H163.851V60.9219Z" fill="#FFEDAD"/>
<path d="M163.851 62.7754H146.244V63.2122H163.851V62.7754Z" fill="#FFEDAD"/>
<path d="M157.724 64.6348H146.244V65.0716H157.724V64.6348Z" fill="#FFEDAD"/>
</g>
<path d="M57.8752 135.43H39.1152V135.71H57.8752V135.43Z" fill="#664EFE"/>
<path d="M57.8752 136.617H39.1152V136.897H57.8752V136.617Z" fill="#664EFE"/>
<path d="M57.8752 137.805H39.1152V138.085H57.8752V137.805Z" fill="#664EFE"/>
<path d="M57.8752 138.991H39.1152V139.271H57.8752V138.991Z" fill="#664EFE"/>
<path d="M57.8752 140.179H39.1152V140.459H57.8752V140.179Z" fill="#664EFE"/>
<path d="M50.9088 141.372H39.1152V141.652H50.9088V141.372Z" fill="#664EFE"/>
<g opacity="0.4">
<path d="M57.8752 135.43H39.1152V135.71H57.8752V135.43Z" fill="#FFEDAD"/>
<path d="M57.8752 136.617H39.1152V136.897H57.8752V136.617Z" fill="#FFEDAD"/>
<path d="M57.8752 137.804H39.1152V138.084H57.8752V137.804Z" fill="#FFEDAD"/>
<path d="M57.8752 138.991H39.1152V139.271H57.8752V138.991Z" fill="#FFEDAD"/>
<path d="M57.8752 140.179H39.1152V140.459H57.8752V140.179Z" fill="#FFEDAD"/>
<path d="M50.9088 141.371H39.1152V141.651H50.9088V141.371Z" fill="#FFEDAD"/>
</g>
<path d="M119.531 58.1055C118.593 58.1055 117.693 58.4783 117.029 59.1421C116.365 59.8058 115.992 60.706 115.992 61.6447V73.3207C115.992 74.2593 116.365 75.1595 117.029 75.8233C117.693 76.487 118.593 76.8599 119.531 76.8599C120.47 76.8599 121.37 76.487 122.034 75.8233C122.698 75.1595 123.071 74.2593 123.071 73.3207V61.6447C123.071 60.706 122.698 59.8058 122.034 59.1421C121.37 58.4783 120.47 58.1055 119.531 58.1055Z" fill="#664EFE"/>
<path opacity="0.2" d="M119.531 58.1055C118.593 58.1055 117.693 58.4783 117.029 59.1421C116.365 59.8058 115.992 60.706 115.992 61.6447V73.3207C115.992 74.2593 116.365 75.1595 117.029 75.8233C117.693 76.487 118.593 76.8599 119.531 76.8599C120.47 76.8599 121.37 76.487 122.034 75.8233C122.698 75.1595 123.071 74.2593 123.071 73.3207V61.6447C123.071 60.706 122.698 59.8058 122.034 59.1421C121.37 58.4783 120.47 58.1055 119.531 58.1055Z" fill="#FFEDAD"/>
<path d="M128.401 51.1446C127.466 51.149 126.57 51.5239 125.91 52.1871C125.249 52.8503 124.879 53.748 124.879 54.6838V73.3206C124.879 74.2592 125.252 75.1594 125.916 75.8232C126.579 76.4869 127.479 76.8598 128.418 76.8598C129.357 76.8598 130.257 76.4869 130.921 75.8232C131.584 75.1594 131.957 74.2592 131.957 73.3206V54.6838C131.957 54.2176 131.865 53.756 131.686 53.3255C131.507 52.895 131.245 52.5041 130.915 52.1752C130.584 51.8464 130.192 51.586 129.761 51.4091C129.33 51.2323 128.867 51.1424 128.401 51.1446Z" fill="#664EFE"/>
<path opacity="0.3" d="M128.401 51.1446C127.466 51.149 126.57 51.5239 125.91 52.1871C125.249 52.8503 124.879 53.748 124.879 54.6838V73.3206C124.879 74.2592 125.252 75.1594 125.916 75.8232C126.579 76.4869 127.479 76.8598 128.418 76.8598C129.357 76.8598 130.257 76.4869 130.921 75.8232C131.584 75.1594 131.957 74.2592 131.957 73.3206V54.6838C131.957 54.2176 131.865 53.756 131.686 53.3255C131.507 52.895 131.245 52.5041 130.915 52.1752C130.584 51.8464 130.192 51.586 129.761 51.4091C129.33 51.2323 128.867 51.1424 128.401 51.1446Z" fill="black"/>
<path d="M137.266 65.0664C136.327 65.0664 135.427 65.4393 134.763 66.103C134.099 66.7667 133.727 67.667 133.727 68.6056V73.3208C133.727 74.2595 134.099 75.1597 134.763 75.8234C135.427 76.4871 136.327 76.86 137.266 76.86C137.731 76.8607 138.192 76.7697 138.622 76.5922C139.052 76.4147 139.443 76.1541 139.772 75.8254C140.101 75.4967 140.362 75.1063 140.541 74.6765C140.719 74.2467 140.811 73.7861 140.811 73.3208V68.6056C140.811 68.1404 140.719 67.6797 140.541 67.2499C140.362 66.8202 140.101 66.4298 139.772 66.101C139.443 65.7723 139.052 65.5117 138.622 65.3342C138.192 65.1567 137.731 65.0657 137.266 65.0664Z" fill="#664EFE"/>
<path opacity="0.6" d="M137.266 65.0664C136.327 65.0664 135.427 65.4393 134.763 66.103C134.099 66.7667 133.727 67.667 133.727 68.6056V73.3208C133.727 74.2595 134.099 75.1597 134.763 75.8234C135.427 76.4871 136.327 76.86 137.266 76.86C137.731 76.8607 138.192 76.7697 138.622 76.5922C139.052 76.4147 139.443 76.1541 139.772 75.8254C140.101 75.4967 140.362 75.1063 140.541 74.6765C140.719 74.2467 140.811 73.7861 140.811 73.3208V68.6056C140.811 68.1404 140.719 67.6797 140.541 67.2499C140.362 66.8202 140.101 66.4298 139.772 66.101C139.443 65.7723 139.052 65.5117 138.622 65.3342C138.192 65.1567 137.731 65.0657 137.266 65.0664Z" fill="#FFEDAD"/>
<path d="M212.022 145.113H226.33L201.902 119.778L212.022 145.113Z" fill="#664EFE"/>
<g opacity="0.1">
<path d="M212.022 145.113H226.33L201.902 119.778L212.022 145.113Z" fill="black"/>
</g>
<g style="mix-blend-mode:multiply">
<path d="M198.268 131.74L201.902 119.778L203.963 131.74H198.268Z" fill="#664EFE"/>
</g>
<path d="M201.902 119.778V155.226L204.434 152.701L212.022 145.113L201.902 119.778Z" fill="#664EFE"/>
<path opacity="0.3" d="M201.902 119.778V155.226L204.434 152.701L212.022 145.113L201.902 119.778Z" fill="#FFEDAD"/>
<path d="M227.203 43.7412H195.843C194.254 43.7471 192.731 44.3807 191.607 45.504C190.482 46.6274 189.847 48.1495 189.84 49.7388V65.934C189.847 67.5224 190.481 69.0436 191.605 70.1668C192.728 71.29 194.249 71.9242 195.837 71.9316H218.848L218.68 77.5932L224.487 71.9316H227.192C228.781 71.9257 230.304 71.2921 231.428 70.1688C232.553 69.0454 233.188 67.5234 233.195 65.934V49.7388C233.188 48.1514 232.554 46.631 231.432 45.508C230.31 44.3849 228.79 43.75 227.203 43.7412ZM195.137 50.6404C195.137 50.1948 195.314 49.7675 195.63 49.4525C195.945 49.1374 196.372 48.9604 196.817 48.9604H204.036C204.481 48.9604 204.909 49.1374 205.224 49.4525C205.539 49.7675 205.716 50.1948 205.716 50.6404C205.716 51.086 205.539 51.5133 205.224 51.8284C204.909 52.1434 204.481 52.3204 204.036 52.3204H196.812C196.367 52.3189 195.941 52.1413 195.628 51.8264C195.314 51.5115 195.137 51.085 195.137 50.6404ZM225.422 66.3204H212.945C212.704 66.3627 212.456 66.3517 212.219 66.288C211.983 66.2244 211.763 66.1097 211.575 65.952C211.387 65.7943 211.236 65.5974 211.133 65.3752C211.029 65.153 210.976 64.9108 210.976 64.6656C210.976 64.4204 211.029 64.1783 211.133 63.956C211.236 63.7338 211.387 63.5369 211.575 63.3793C211.763 63.2216 211.983 63.1069 212.219 63.0432C212.456 62.9796 212.704 62.9685 212.945 63.0108H225.422C225.664 62.9685 225.912 62.9796 226.148 63.0432C226.385 63.1069 226.605 63.2216 226.793 63.3793C226.98 63.5369 227.131 63.7338 227.235 63.956C227.338 64.1783 227.392 64.4204 227.392 64.6656C227.392 64.9108 227.338 65.153 227.235 65.3752C227.131 65.5974 226.98 65.7943 226.793 65.952C226.605 66.1097 226.385 66.2244 226.148 66.288C225.912 66.3517 225.664 66.3627 225.422 66.3204ZM225.422 59.3148H198.492C198.25 59.3571 198.003 59.3461 197.766 59.2824C197.529 59.2188 197.309 59.1041 197.121 58.9464C196.934 58.7887 196.783 58.5918 196.679 58.3696C196.576 58.1474 196.522 57.9052 196.522 57.66C196.522 57.4148 196.576 57.1727 196.679 56.9504C196.783 56.7282 196.934 56.5313 197.121 56.3737C197.309 56.216 197.529 56.1013 197.766 56.0376C198.003 55.974 198.25 55.9629 198.492 56.0052H225.422C225.664 55.9629 225.912 55.974 226.148 56.0376C226.385 56.1013 226.605 56.216 226.793 56.3737C226.98 56.5313 227.131 56.7282 227.235 56.9504C227.338 57.1727 227.392 57.4148 227.392 57.66C227.392 57.9052 227.338 58.1474 227.235 58.3696C227.131 58.5918 226.98 58.7887 226.793 58.9464C226.605 59.1041 226.385 59.2188 226.148 59.2824C225.912 59.3461 225.664 59.3571 225.422 59.3148ZM225.422 52.3092H209.479C209.033 52.3092 208.606 52.1322 208.291 51.8171C207.976 51.5021 207.799 51.0748 207.799 50.6292C207.799 50.1836 207.976 49.7563 208.291 49.4413C208.606 49.1262 209.033 48.9492 209.479 48.9492H225.422C225.868 48.9492 226.295 49.1262 226.61 49.4413C226.925 49.7563 227.102 50.1836 227.102 50.6292C227.102 51.0748 226.925 51.5021 226.61 51.8171C226.295 52.1322 225.868 52.3092 225.422 52.3092Z" fill="#664EFE"/>
<path d="M178.159 95.0769C176.82 91.3977 174.775 88.0155 172.139 85.1201H127.614C124.978 88.0155 122.933 91.3977 121.594 95.0769L127.754 125.743C132.466 130.851 138.802 134.171 145.685 135.137C152.567 136.104 159.572 134.658 165.51 131.046C171.447 127.433 175.951 121.876 178.256 115.32C180.561 108.763 180.525 101.61 178.154 95.0769H178.159Z" fill="#664EFE"/>
<path opacity="0.1" d="M178.159 95.0769C176.82 91.3977 174.775 88.0155 172.139 85.1201H127.614C124.978 88.0155 122.933 91.3977 121.594 95.0769L127.754 125.743C132.466 130.851 138.802 134.171 145.685 135.137C152.567 136.104 159.572 134.658 165.51 131.046C171.447 127.433 175.951 121.876 178.256 115.32C180.561 108.763 180.525 101.61 178.154 95.0769H178.159Z" fill="#FFEDAD"/>
<path d="M179.935 106.742C179.617 113.813 176.808 120.543 172.005 125.743H127.765C124.03 121.684 121.481 116.679 120.395 111.272C119.309 105.865 119.727 100.263 121.605 95.0771H178.165C179.524 98.8094 180.125 102.775 179.935 106.742Z" fill="#664EFE"/>
<path opacity="0.9" d="M179.935 106.742C179.617 113.813 176.808 120.543 172.005 125.743H127.765C124.03 121.684 121.481 116.679 120.395 111.272C119.309 105.865 119.727 100.263 121.605 95.0771H178.165C179.524 98.8094 180.125 102.775 179.935 106.742Z" fill="#FFEDAD"/>
<path opacity="0.3" d="M179.934 106.742C179.586 114.183 176.484 121.228 171.231 126.51C165.978 131.791 158.949 134.931 151.51 135.319C144.071 135.707 136.753 133.316 130.979 128.61C125.205 123.904 121.386 117.219 120.266 109.855C119.145 102.491 120.802 94.9727 124.915 88.7621C129.028 82.5514 135.303 78.0916 142.52 76.2492C149.738 74.4068 157.383 75.3135 163.969 78.793C170.555 82.2726 175.613 88.0765 178.159 95.0769C179.517 98.8092 180.121 102.774 179.934 106.742Z" fill="white"/>
<path opacity="0.4" d="M166.836 80.5061L123.571 119.964C123.354 119.564 123.141 119.161 122.932 118.754C121.609 116.106 120.69 113.274 120.205 110.354L157.574 76.2725C160.881 77.1439 164.013 78.5758 166.836 80.5061Z" fill="white"/>
<path opacity="0.4" d="M178.411 95.8L137.76 132.894C133.544 131.034 129.811 128.229 126.852 124.696L171.271 84.1855C174.508 87.46 176.95 91.4333 178.411 95.8Z" fill="white"/>
<path d="M179.922 88.0043C176.49 82.0539 171.37 77.2551 165.211 74.2152C159.051 71.1752 152.128 70.0307 145.318 70.9263C138.507 71.822 132.116 74.7177 126.951 79.2469C121.787 83.7762 118.083 89.7355 116.306 96.3708C114.53 103.006 114.761 110.019 116.972 116.523C119.182 123.027 123.272 128.728 128.724 132.907C134.176 137.085 140.745 139.553 147.599 139.997C154.454 140.441 161.286 138.843 167.232 135.403C175.195 130.795 181.005 123.216 183.384 114.329C185.763 105.442 184.518 95.9739 179.922 88.0043ZM126.162 119.051C123.454 114.361 122.198 108.975 122.552 103.571C122.906 98.1681 124.854 92.9911 128.15 88.695C131.446 84.399 135.942 81.1767 141.069 79.4358C146.196 77.6949 151.725 77.5135 156.955 78.9144C162.186 80.3154 166.883 83.236 170.454 87.3067C174.025 91.3774 176.308 96.4155 177.015 101.784C177.723 107.152 176.822 112.61 174.428 117.467C172.034 122.323 168.253 126.361 163.564 129.069C160.451 130.867 157.014 132.034 153.45 132.504C149.885 132.974 146.263 132.737 142.79 131.806C139.318 130.876 136.062 129.271 133.21 127.082C130.358 124.893 127.965 122.164 126.167 119.051H126.162Z" fill="#664EFE"/>
<path opacity="0.1" d="M179.922 88.0043C176.49 82.0539 171.37 77.2551 165.211 74.2152C159.051 71.1752 152.128 70.0307 145.318 70.9263C138.507 71.822 132.116 74.7177 126.951 79.2469C121.787 83.7762 118.083 89.7355 116.306 96.3708C114.53 103.006 114.761 110.019 116.972 116.523C119.182 123.027 123.272 128.728 128.724 132.907C134.176 137.085 140.745 139.553 147.599 139.997C154.454 140.441 161.286 138.843 167.232 135.403C175.195 130.795 181.005 123.216 183.384 114.329C185.763 105.442 184.518 95.9739 179.922 88.0043ZM126.162 119.051C123.454 114.361 122.198 108.975 122.552 103.571C122.906 98.1681 124.854 92.9911 128.15 88.695C131.446 84.399 135.942 81.1767 141.069 79.4358C146.196 77.6949 151.725 77.5135 156.955 78.9144C162.186 80.3154 166.883 83.236 170.454 87.3067C174.025 91.3774 176.308 96.4155 177.015 101.784C177.723 107.152 176.822 112.61 174.428 117.467C172.034 122.323 168.253 126.361 163.564 129.069C160.451 130.867 157.014 132.034 153.45 132.504C149.885 132.974 146.263 132.737 142.79 131.806C139.318 130.876 136.062 129.271 133.21 127.082C130.358 124.893 127.965 122.164 126.167 119.051H126.162Z" fill="black"/>
<path d="M70.0336 141.059L74.3232 142.055L70.7672 144.71C70.7672 144.71 68.2192 143.556 68.1016 141.747L70.0336 141.059Z" fill="#E4897B"/>
<path d="M76.6196 144.912L73.5284 146.973L70.7676 144.71L74.3236 142.062L76.6196 144.912Z" fill="#E4897B"/>
<path d="M125.143 123.637C120.585 126.997 115.909 130.189 111.211 133.309C106.512 136.428 101.752 139.469 96.9699 142.453C92.1875 145.438 87.3603 148.361 82.5163 151.201C80.0971 152.645 77.6555 154.045 75.2363 155.468C74.0345 156.233 72.7243 156.812 71.3499 157.187C70.6165 157.382 69.8666 157.507 69.1099 157.562C68.2697 157.631 67.4242 157.588 66.5954 157.433C66.0032 157.316 65.4399 157.084 64.9377 156.748C64.4355 156.413 64.0043 155.982 63.6688 155.48C63.3333 154.979 63.1001 154.415 62.9825 153.823C62.8649 153.231 62.8652 152.622 62.9835 152.029C63.0218 151.839 63.0742 151.652 63.1402 151.469C63.4106 150.676 63.7873 149.922 64.2602 149.229C64.6821 148.607 65.1621 148.025 65.6938 147.493C66.7066 146.491 67.8637 145.645 69.1267 144.985C71.5739 143.59 74.0043 142.185 76.4683 140.801C81.3739 138.029 86.3242 135.33 91.2858 132.665C96.2474 129.999 101.271 127.417 106.322 124.897C111.373 122.377 116.463 119.925 121.66 117.662C122.445 117.315 123.329 117.271 124.144 117.537C124.96 117.802 125.648 118.36 126.077 119.102C126.506 119.845 126.646 120.719 126.47 121.559C126.293 122.398 125.813 123.142 125.121 123.649L125.143 123.637Z" fill="#664EFE"/>
<path opacity="0.1" d="M125.143 123.637C120.585 126.997 115.909 130.189 111.211 133.309C106.512 136.428 101.752 139.469 96.9699 142.453C92.1875 145.438 87.3603 148.361 82.5163 151.201C80.0971 152.645 77.6555 154.045 75.2363 155.468C74.0345 156.233 72.7243 156.812 71.3499 157.187C70.6165 157.382 69.8666 157.507 69.1099 157.562C68.2697 157.631 67.4242 157.588 66.5954 157.433C66.0032 157.316 65.4399 157.084 64.9377 156.748C64.4355 156.413 64.0043 155.982 63.6688 155.48C63.3333 154.979 63.1001 154.415 62.9825 153.823C62.8649 153.231 62.8652 152.622 62.9835 152.029C63.0218 151.839 63.0742 151.652 63.1402 151.469C63.4106 150.676 63.7873 149.922 64.2602 149.229C64.6821 148.607 65.1621 148.025 65.6938 147.493C66.7066 146.491 67.8637 145.645 69.1267 144.985C71.5739 143.59 74.0043 142.185 76.4683 140.801C81.3739 138.029 86.3242 135.33 91.2858 132.665C96.2474 129.999 101.271 127.417 106.322 124.897C111.373 122.377 116.463 119.925 121.66 117.662C122.445 117.315 123.329 117.271 124.144 117.537C124.96 117.802 125.648 118.36 126.077 119.102C126.506 119.845 126.646 120.719 126.47 121.559C126.293 122.398 125.813 123.142 125.121 123.649L125.143 123.637Z" fill="black"/>
<path d="M76.2503 114.532C75.9703 114.985 75.6511 115.534 75.3487 116.049C75.0463 116.564 74.7495 117.102 74.4695 117.645C73.9095 118.715 73.3495 119.801 72.7895 120.904C72.2295 122.008 71.7759 123.144 71.3167 124.264C71.0927 124.824 70.8575 125.384 70.6503 125.944L70.3367 126.801C70.2751 126.964 70.2639 127.031 70.2247 127.148C70.1855 127.266 70.1687 127.378 70.1351 127.49C69.9165 128.597 69.8059 129.722 69.8047 130.85C69.7767 132.054 69.8047 133.28 69.8719 134.518C69.9391 135.756 70.0063 136.999 70.1183 138.242C70.2303 139.485 70.3423 140.751 70.4599 141.983L68.2983 142.425C67.9175 141.176 67.6207 139.933 67.3239 138.673C67.0271 137.413 66.8031 136.148 66.5847 134.86C66.3663 133.572 66.2207 132.278 66.1255 130.94C66.009 129.538 66.0447 128.128 66.2319 126.734C66.2655 126.538 66.2935 126.353 66.3439 126.174C66.3943 125.995 66.4447 125.743 66.4895 125.614L66.7639 124.662C66.9431 124.029 67.1503 123.402 67.3631 122.78C67.7943 121.532 68.2647 120.305 68.7911 119.096C69.3175 117.886 69.8775 116.704 70.4711 115.54C70.7791 114.98 71.1039 114.38 71.4343 113.804C71.7647 113.227 72.0951 112.684 72.5095 112.073L76.2503 114.532Z" fill="#E4897B"/>
<path d="M73.8582 230.16C73.4803 230.148 73.1048 230.095 72.7382 230.003C72.7186 230 72.7005 229.99 72.6864 229.976C72.6724 229.962 72.6631 229.944 72.6598 229.925C72.6563 229.904 72.6586 229.884 72.6665 229.865C72.6745 229.846 72.6877 229.83 72.7046 229.818C72.8558 229.717 74.1774 228.866 74.687 229.096C74.7437 229.122 74.7923 229.162 74.8277 229.214C74.8632 229.265 74.8842 229.325 74.8886 229.387C74.9149 229.487 74.9132 229.592 74.8835 229.691C74.8539 229.789 74.7975 229.878 74.7206 229.947C74.4683 230.12 74.162 230.195 73.8582 230.16ZM73.0014 229.857C73.763 230.009 74.3342 229.981 74.5526 229.779C74.6006 229.733 74.6357 229.675 74.6544 229.611C74.673 229.547 74.6746 229.48 74.659 229.415C74.6583 229.386 74.6495 229.359 74.6337 229.335C74.6178 229.311 74.5955 229.292 74.5694 229.281C74.3062 229.163 73.539 229.533 73.0014 229.857Z" fill="#664EFE"/>
<path d="M72.7338 230.009C72.7173 230.014 72.6998 230.014 72.6834 230.009C72.6673 230 72.654 229.987 72.645 229.971C72.6361 229.955 72.6319 229.937 72.633 229.919C72.633 229.869 72.633 228.614 73.109 228.194C73.1678 228.141 73.2371 228.102 73.3124 228.078C73.3877 228.053 73.4672 228.045 73.5458 228.054C73.6283 228.055 73.708 228.085 73.7712 228.138C73.8345 228.191 73.8775 228.264 73.893 228.345C73.9938 228.833 73.1986 229.773 72.773 230.025C72.7587 230.023 72.7453 230.017 72.7338 230.009ZM73.4786 228.239C73.3937 228.24 73.312 228.272 73.249 228.329C72.9736 228.734 72.8326 229.216 72.8458 229.706C73.2602 229.37 73.753 228.665 73.6914 228.368C73.6914 228.317 73.6522 228.261 73.5234 228.245L73.4786 228.239Z" fill="#664EFE"/>
<path d="M93.693 230.161C93.2317 230.154 92.7721 230.101 92.321 230.004C92.2996 230.001 92.2796 229.992 92.2643 229.977C92.2491 229.961 92.2394 229.941 92.237 229.92C92.2346 229.899 92.2386 229.877 92.2486 229.858C92.2586 229.839 92.2741 229.823 92.293 229.813C92.489 229.713 94.225 228.828 94.757 229.119C94.8082 229.145 94.8516 229.184 94.8831 229.232C94.9145 229.281 94.9328 229.336 94.9362 229.393C94.9485 229.486 94.9375 229.58 94.9042 229.667C94.871 229.754 94.8165 229.831 94.7458 229.892C94.4362 230.1 94.0644 230.195 93.693 230.161ZM92.6626 229.858C93.6314 230.021 94.3426 229.976 94.6114 229.741C94.6561 229.699 94.6901 229.647 94.7105 229.59C94.731 229.532 94.7374 229.471 94.729 229.41C94.7288 229.387 94.7225 229.365 94.7107 229.345C94.6989 229.325 94.682 229.309 94.6618 229.298C94.3706 229.141 93.3738 229.517 92.6626 229.858Z" fill="#664EFE"/>
<path d="M92.3384 230.009C92.3295 230.012 92.32 230.014 92.3104 230.014C92.3008 230.014 92.2913 230.012 92.2824 230.009C92.2663 230.001 92.2533 229.988 92.2452 229.971C92.2371 229.955 92.2345 229.937 92.2376 229.919C92.2376 229.869 92.344 228.693 92.8872 228.239C93.0433 228.109 93.2443 228.044 93.4472 228.06C93.7328 228.088 93.8112 228.234 93.8336 228.351C93.912 228.844 92.8872 229.785 92.3664 230.031L92.3384 230.009ZM93.38 228.239C93.2485 228.24 93.1216 228.288 93.0216 228.374C92.7004 228.753 92.5048 229.222 92.4616 229.718C92.988 229.398 93.688 228.659 93.6376 228.362C93.6376 228.362 93.6376 228.262 93.436 228.245L93.38 228.239Z" fill="#664EFE"/>
<path d="M82.8802 97.7148C83.2218 100.33 84.0002 105.633 82.1074 107.235C82.1074 107.235 82.6674 109.9 87.4386 110.208C92.7138 110.55 90.1266 107.756 90.1266 107.756C87.293 106.882 87.5058 104.748 88.1386 102.777L82.8802 97.7148Z" fill="#E4897B"/>
<path d="M92.6628 92.4007C92.6292 92.3999 92.5963 92.3902 92.5676 92.3727C92.5432 92.3603 92.5216 92.3431 92.504 92.3222C92.4865 92.3012 92.4734 92.2769 92.4655 92.2507C92.4577 92.2245 92.4552 92.197 92.4583 92.1698C92.4615 92.1426 92.4701 92.1164 92.4836 92.0927C92.6291 91.7964 92.8442 91.5398 93.1104 91.3448C93.3766 91.1497 93.6861 91.0221 94.0124 90.9727C94.0626 90.9746 94.1103 90.9946 94.1467 91.0291C94.1832 91.0635 94.2059 91.11 94.2107 91.1599C94.2155 91.2098 94.202 91.2598 94.1728 91.3006C94.1435 91.3413 94.1005 91.37 94.0516 91.3815C93.7963 91.4261 93.5547 91.5291 93.3459 91.6826C93.137 91.8361 92.9665 92.0359 92.8476 92.2663C92.8317 92.3032 92.8062 92.3351 92.7737 92.3588C92.7412 92.3824 92.7029 92.3969 92.6628 92.4007Z" fill="#263238"/>
<path d="M94.1699 94.6963C94.5557 95.4654 95.0457 96.1777 95.6259 96.8131C95.4596 96.9577 95.2636 97.0643 95.0518 97.1252C94.8399 97.1862 94.6173 97.2 94.3995 97.1659L94.1699 94.6963Z" fill="#DE5753"/>
<path d="M93.7995 94.1255C93.8331 94.4783 94.0459 94.7415 94.2699 94.7191C94.4939 94.6967 94.6619 94.3999 94.6283 94.0471C94.5947 93.6943 94.3819 93.4311 94.1523 93.4535C93.9227 93.4759 93.7659 93.7783 93.7995 94.1255Z" fill="#263238"/>
<path d="M94.0801 93.4813L94.8977 93.1621C94.8977 93.1621 94.5057 93.8565 94.0801 93.4813Z" fill="#263238"/>
<path d="M87.5449 229.903H91.9073L92.1985 219.812H87.8361L87.5449 229.903Z" fill="#E4897B"/>
<path d="M67.7383 229.903H72.1007L73.5007 219.812H69.1439L67.7383 229.903Z" fill="#E4897B"/>
<path d="M72.3682 229.398H67.4682C67.3843 229.398 67.3028 229.427 67.239 229.482C67.1751 229.536 67.1332 229.612 67.121 229.695L66.561 233.57C66.55 233.668 66.5598 233.767 66.5896 233.861C66.6195 233.955 66.6688 234.041 66.7343 234.115C66.7998 234.188 66.8801 234.247 66.9699 234.287C67.0597 234.328 67.157 234.349 67.2554 234.349C68.9354 234.321 69.7866 234.22 71.9426 234.22C73.2642 234.22 75.2018 234.354 77.033 234.354C78.8642 234.354 78.9594 232.546 78.1978 232.383C74.7818 231.65 74.2442 230.636 73.0906 229.667C72.8892 229.495 72.6333 229.4 72.3682 229.398Z" fill="#263238"/>
<path d="M92.0534 229.399H87.159C87.0747 229.396 86.9926 229.426 86.9285 229.48C86.8644 229.535 86.8228 229.612 86.8118 229.695L86.2518 233.571C86.2416 233.669 86.2521 233.768 86.2827 233.862C86.3132 233.955 86.363 234.042 86.429 234.115C86.495 234.189 86.5756 234.247 86.6656 234.287C86.7557 234.328 86.8532 234.349 86.9518 234.349C88.6318 234.321 89.483 234.22 91.6334 234.22C92.9606 234.22 95.699 234.355 97.5302 234.355C99.3614 234.355 99.4566 232.546 98.695 232.383C95.279 231.65 93.935 230.636 92.7814 229.667C92.5785 229.494 92.3204 229.399 92.0534 229.399Z" fill="#263238"/>
<path d="M92.1935 219.812L92.0479 225.014H87.6855L87.8367 219.812H92.1935Z" fill="#CE6F64"/>
<path d="M69.1384 219.812H73.5008L72.7784 225.014H68.416L69.1384 219.812Z" fill="#CE6F64"/>
<path d="M78.1082 115.204C77.2802 116.497 76.3213 117.702 75.2466 118.799L74.7482 118.468L69.2266 114.8C69.2266 114.8 72.2394 108.08 74.5074 107.739C76.6746 107.392 78.2538 109.632 78.9874 112.028C79.2674 112.896 78.8026 114.072 78.1082 115.204Z" fill="#664EFE"/>
<path opacity="0.6" d="M78.1082 115.204C77.2802 116.497 76.3213 117.702 75.2466 118.799L74.7482 118.468L69.2266 114.8C69.2266 114.8 72.2394 108.08 74.5074 107.739C76.6746 107.392 78.2538 109.632 78.9874 112.028C79.2674 112.896 78.8026 114.072 78.1082 115.204Z" fill="#FFEDAD"/>
<path d="M78.11 115.204C77.2821 116.497 76.3232 117.702 75.2484 118.799L74.75 118.468C74.9964 116.452 75.7804 114.453 76.6764 113.82C77.2252 113.876 77.7124 114.459 78.11 115.204Z" fill="#664EFE"/>
<path opacity="0.4" d="M78.11 115.204C77.2821 116.497 76.3232 117.702 75.2484 118.799L74.75 118.468C74.9964 116.452 75.7804 114.453 76.6764 113.82C77.2252 113.876 77.7124 114.459 78.11 115.204Z" fill="#FFEDAD"/>
<path d="M96.9974 118.558C96.7342 120.238 96.3926 122.215 95.9334 124.562C95.3734 127.563 94.5894 131.164 93.5982 135.47L75.9302 134.35C76.6918 127.177 76.9886 122.742 74.5078 107.762C77.016 107.411 79.5465 107.245 82.079 107.263C84.7611 107.246 87.441 107.42 90.0982 107.784C93.5254 108.344 97.3782 109.374 97.3782 109.374C97.3782 109.374 98.3638 109.761 96.9974 118.558Z" fill="#664EFE"/>
<path opacity="0.6" d="M96.9974 118.558C96.7342 120.238 96.3926 122.215 95.9334 124.562C95.3734 127.563 94.5894 131.164 93.5982 135.47L75.9302 134.35C76.6918 127.177 76.9886 122.742 74.5078 107.762C77.016 107.411 79.5465 107.245 82.079 107.263C84.7611 107.246 87.441 107.42 90.0982 107.784C93.5254 108.344 97.3782 109.374 97.3782 109.374C97.3782 109.374 98.3638 109.761 96.9974 118.558Z" fill="#FFEDAD"/>
<path d="M96.9971 118.558C96.7339 120.238 96.3923 122.215 95.9331 124.561C94.9614 122.494 94.1544 120.354 93.5195 118.16H96.8011L96.9971 118.558Z" fill="#664EFE"/>
<path opacity="0.4" d="M96.9971 118.558C96.7339 120.238 96.3923 122.215 95.9331 124.561C94.9614 122.494 94.1544 120.354 93.5195 118.16H96.8011L96.9971 118.558Z" fill="#FFEDAD"/>
<path d="M81.9172 94.0355C82.5836 98.3083 82.7796 100.134 85.1596 102.133C88.738 105.146 93.8396 103.388 94.4612 98.9971C95.0212 95.0491 93.834 88.7211 89.4604 87.4107C88.4984 87.1156 87.4769 87.0715 86.493 87.2827C85.5091 87.494 84.5957 87.9535 83.8396 88.6175C83.0835 89.2816 82.5099 90.128 82.1734 91.0764C81.8369 92.0248 81.7487 93.0435 81.9172 94.0355Z" fill="#E4897B"/>
<path d="M88.9276 135.168C88.9276 135.168 88.6476 142.946 87.9756 152.757C87.4156 160.989 86.57 170.644 85.3884 178.338L85.3548 178.551C83.2324 192.17 73.83 224.001 73.83 224.001H67.8828C67.8828 224.001 72.7828 193.257 73.858 179.761C76.5852 145.673 69.7532 141.815 75.93 134.3L88.9276 135.168Z" fill="#664EFE"/>
<path d="M88.9276 135.168C88.9276 135.168 88.6476 142.946 87.9756 152.757C87.4156 160.989 86.57 170.644 85.3884 178.338L85.3548 178.551C83.2324 192.17 73.83 224.001 73.83 224.001H67.8828C67.8828 224.001 72.7828 193.257 73.858 179.761C76.5852 145.673 69.7532 141.815 75.93 134.3L88.9276 135.168Z" fill="#121212"/>
<path d="M87.9757 152.757C87.4157 160.989 86.5701 170.643 85.3885 178.338C83.3781 168.342 80.0741 153.743 84.5093 144.178C85.5677 146.894 86.7997 149.963 87.9757 152.757Z" fill="#664EFE"/>
<path d="M87.9757 152.757C87.4157 160.989 86.5701 170.643 85.3885 178.338C83.3781 168.342 80.0741 153.743 84.5093 144.178C85.5677 146.894 86.7997 149.963 87.9757 152.757Z" fill="black"/>
<path d="M93.5979 135.475C93.5979 135.475 98.6379 165.346 98.3355 178.64C98.0387 192.472 92.9707 224 92.9707 224H87.0795C87.0795 224 88.009 193.273 87.4882 179.693C86.9282 164.887 80.6562 134.63 80.6562 134.63L93.5979 135.475Z" fill="#664EFE"/>
<path d="M93.5979 135.475C93.5979 135.475 98.6379 165.346 98.3355 178.64C98.0387 192.472 92.9707 224 92.9707 224H87.0795C87.0795 224 88.009 193.273 87.4882 179.693C86.9282 164.887 80.6562 134.63 80.6562 134.63L93.5979 135.475Z" fill="#121212"/>
<path d="M86.073 224.281H93.9746L94.5906 221.632L85.793 221.693L86.073 224.281Z" fill="#263238"/>
<path d="M67.0215 224.281H74.9231L75.5391 221.632L67.0775 221.693L67.0215 224.281Z" fill="#263238"/>
<path d="M75.73 133.28L74.834 134.815C74.7612 134.932 74.9012 135.067 75.1028 135.078L93.6332 136.282C93.79 136.282 93.93 136.226 93.9468 136.125L94.21 134.552C94.21 134.445 94.0924 134.344 93.9188 134.333L75.9988 133.168C75.9485 133.166 75.8983 133.175 75.8518 133.194C75.8054 133.214 75.7637 133.243 75.73 133.28Z" fill="#263238"/>
<path d="M78.0031 135.431L77.5271 135.397C77.4319 135.397 77.3591 135.335 77.3703 135.279L77.7287 133.235C77.7287 133.179 77.8239 133.135 77.9191 133.14L78.4007 133.168C78.4959 133.168 78.5631 133.23 78.5575 133.291L78.1991 135.33C78.1879 135.391 78.0983 135.436 78.0031 135.431Z" fill="#664EFE"/>
<path opacity="0.3" d="M78.0031 135.431L77.5271 135.397C77.4319 135.397 77.3591 135.335 77.3703 135.279L77.7287 133.235C77.7287 133.179 77.8239 133.135 77.9191 133.14L78.4007 133.168C78.4959 133.168 78.5631 133.23 78.5575 133.291L78.1991 135.33C78.1879 135.391 78.0983 135.436 78.0031 135.431Z" fill="black"/>
<path d="M89.6007 136.181L89.1247 136.153C89.0295 136.153 88.9567 136.091 88.9679 136.03L89.3263 133.991C89.3263 133.93 89.4215 133.89 89.5223 133.896L89.9983 133.924C90.0935 133.924 90.1663 133.986 90.1551 134.047L89.7967 136.086C89.8023 136.147 89.7127 136.186 89.6007 136.181Z" fill="#664EFE"/>
<path opacity="0.3" d="M89.6007 136.181L89.1247 136.153C89.0295 136.153 88.9567 136.091 88.9679 136.03L89.3263 133.991C89.3263 133.93 89.4215 133.89 89.5223 133.896L89.9983 133.924C90.0935 133.924 90.1663 133.986 90.1551 134.047L89.7967 136.086C89.8023 136.147 89.7127 136.186 89.6007 136.181Z" fill="black"/>
<path d="M98.3818 113.854C99.0538 116.094 99.6922 118.362 100.314 120.624L102.19 127.394L102.425 128.234L102.487 128.442L102.515 128.548V128.604C102.535 128.678 102.559 128.751 102.587 128.822C102.725 129.163 102.914 129.48 103.147 129.763C103.816 130.469 104.591 131.066 105.443 131.533C107.397 132.59 109.463 133.424 111.603 134.019L111.279 136.203C108.767 136.074 106.294 135.539 103.954 134.618C102.659 134.111 101.466 133.375 100.431 132.446C99.8388 131.896 99.3462 131.248 98.9754 130.53C98.8753 130.336 98.7874 130.136 98.7122 129.931L98.6506 129.78L98.6114 129.674L98.5386 129.466L98.2418 128.621C97.4578 126.381 96.7298 124.141 96.041 121.867C95.3522 119.594 94.6746 117.354 94.0586 115.069L98.3818 113.854Z" fill="#E4897B"/>
<path d="M97.3785 109.351C99.6185 110.085 101.971 117.41 101.971 117.41L93.8841 120.893C93.8841 120.893 90.5241 112.672 92.0137 110.813C93.5033 108.954 94.8081 108.511 97.3785 109.351Z" fill="#664EFE"/>
<path opacity="0.6" d="M97.3785 109.351C99.6185 110.085 101.971 117.41 101.971 117.41L93.8841 120.893C93.8841 120.893 90.5241 112.672 92.0137 110.813C93.5033 108.954 94.8081 108.511 97.3785 109.351Z" fill="#FFEDAD"/>
<path d="M93.0561 87.1647C91.6281 85.4007 80.5961 84.1407 80.0081 88.9455C76.0881 91.6895 79.8065 98.7791 80.3665 100.582C77.6617 101.333 68.9481 104.312 75.3265 110.102C81.7049 115.893 91.2697 114.907 93.1401 108.915C94.4505 104.726 90.2897 97.7151 90.3793 95.2623C90.4689 92.8095 95.5033 90.1607 93.0561 87.1647Z" fill="#263238"/>
<path d="M81.1391 101.466C81.1187 101.467 81.0983 101.463 81.0798 101.454C81.0613 101.445 81.0452 101.432 81.0327 101.416C80.0191 100.184 76.4911 93.7103 77.7287 90.6303C77.9206 90.1525 78.2461 89.7399 78.6661 89.442C79.0862 89.1441 79.5831 88.9734 80.0975 88.9503C80.1156 88.948 80.134 88.9494 80.1516 88.9544C80.1691 88.9594 80.1855 88.9679 80.1996 88.9794C80.2137 88.991 80.2254 89.0052 80.2338 89.0214C80.2423 89.0376 80.2474 89.0553 80.2487 89.0735C80.2535 89.1098 80.2439 89.1466 80.2219 89.1759C80.1999 89.2052 80.1673 89.2248 80.1311 89.2303C79.6686 89.2474 79.2206 89.3968 78.8405 89.6609C78.4603 89.9249 78.1639 90.2925 77.9863 90.7199C76.7935 93.6991 80.2543 100.022 81.2455 101.231C81.2632 101.251 81.2747 101.275 81.2785 101.302C81.2823 101.328 81.2783 101.355 81.2669 101.379C81.2555 101.402 81.2373 101.423 81.2146 101.436C81.1919 101.45 81.1656 101.456 81.1391 101.455V101.466Z" fill="#263238"/>
<path d="M89.505 94.999C89.63 95.8168 90.0241 96.5696 90.625 97.1382C91.4202 97.8998 92.1706 97.379 92.2434 96.4102C92.3106 95.5422 91.9746 94.103 91.0338 93.6998C90.093 93.2966 89.3874 94.0302 89.505 94.999Z" fill="#E4897B"/>
<path d="M108.859 133.415L112.039 132.334L111.541 136.159C111.541 136.159 110.287 136.719 108.663 135.308L107.111 134.316L108.332 133.65C108.5 133.555 108.676 133.476 108.859 133.415Z" fill="#E4897B"/>
<path d="M114.263 132.322L113.288 135.665L111.541 136.153L112.039 132.333L114.263 132.322Z" fill="#E4897B"/>
</svg>
