<svg width="280" height="280" viewBox="0 0 280 280" fill="none" xmlns="http://www.w3.org/2000/svg">
<path d="M280 214.145H0V214.285H280V214.145Z" fill="#F7F5FF"/>
<path d="M220.181 218.4H210.739V218.54H220.181V218.4Z" fill="#F7F5FF"/>
<path d="M251.194 218.334H226.24V218.474H251.194V218.334Z" fill="#F7F5FF"/>
<path d="M179.609 219.273H148.546V219.413H179.609V219.273Z" fill="#F7F5FF"/>
<path d="M145.32 219.273H133.717V219.413H145.32V219.273Z" fill="#F7F5FF"/>
<path d="M84.8736 218.193H79.7776V218.333H84.8736V218.193Z" fill="#F7F5FF"/>
<path d="M96.404 218.193H87.9816V218.333H96.404V218.193Z" fill="#F7F5FF"/>
<path d="M74.732 220.719H37.4584V220.859H74.732V220.719Z" fill="#F7F5FF"/>
<path d="M132.72 189.169H24.5896C23.7425 189.167 22.9306 188.83 22.3322 188.23C21.7337 187.631 21.3976 186.818 21.3976 185.971V33.9704C21.405 33.1282 21.7443 32.3228 22.342 31.7294C22.9397 31.1359 23.7473 30.8022 24.5896 30.8008H132.72C133.568 30.8008 134.381 31.1377 134.981 31.7373C135.581 32.337 135.918 33.1503 135.918 33.9984V185.971C135.918 186.819 135.581 187.633 134.981 188.232C134.381 188.832 133.568 189.169 132.72 189.169ZM24.5896 30.9128C23.7796 30.9143 23.0034 31.2371 22.4312 31.8103C21.859 32.3836 21.5376 33.1604 21.5376 33.9704V185.971C21.5376 186.781 21.859 187.558 22.4312 188.131C23.0034 188.704 23.7796 189.027 24.5896 189.029H132.72C133.53 189.027 134.307 188.705 134.88 188.132C135.453 187.559 135.776 186.782 135.778 185.971V33.9704C135.776 33.1599 135.453 32.3831 134.88 31.81C134.307 31.2369 133.53 30.9143 132.72 30.9128H24.5896Z" fill="#F7F5FF"/>
<path d="M253.854 189.169H145.718C144.87 189.167 144.058 188.83 143.458 188.231C142.859 187.631 142.522 186.819 142.52 185.971V33.9704C142.529 33.1276 142.869 32.3223 143.468 31.729C144.067 31.1357 144.875 30.8022 145.718 30.8008H253.854C254.695 30.8037 255.501 31.138 256.098 31.7313C256.694 32.3247 257.033 33.1291 257.04 33.9704V185.971C257.04 186.817 256.705 187.629 256.107 188.228C255.51 188.828 254.7 189.166 253.854 189.169ZM145.718 30.9128C144.907 30.9143 144.13 31.2369 143.557 31.81C142.984 32.3831 142.661 33.1599 142.66 33.9704V185.971C142.661 186.782 142.984 187.559 143.557 188.132C144.13 188.705 144.907 189.027 145.718 189.029H253.854C254.664 189.027 255.441 188.705 256.014 188.132C256.587 187.559 256.91 186.782 256.911 185.971V33.9704C256.91 33.1599 256.587 32.3831 256.014 31.81C255.441 31.2369 254.664 30.9143 253.854 30.9128H145.718Z" fill="#F7F5FF"/>
<path d="M177.962 145.902H151.441V214.144H177.962V145.902Z" fill="#F7F5FF"/>
<path d="M172.922 214.145H177.962V199.814H167.642L172.922 214.145Z" fill="#EEEBFE"/>
<path d="M78.8424 145.902H52.3208V214.144H78.8424V145.902Z" fill="#F7F5FF"/>
<path d="M177.957 145.902H74.4464V205.352H177.957V145.902Z" fill="#EEEBFE"/>
<path d="M127.893 150.22V187.438H174.054V150.22H127.893Z" fill="#F7F5FF"/>
<path d="M78.3552 150.226V187.443H124.516V150.226H78.3552Z" fill="#F7F5FF"/>
<path d="M174.054 199.815V197.076H127.893V199.815H174.054Z" fill="#F7F5FF"/>
<path d="M124.516 199.815V197.076H78.3552V199.815H124.516Z" fill="#F7F5FF"/>
<path d="M174.048 194.522V191.783H127.887V194.522H174.048Z" fill="#F7F5FF"/>
<path d="M124.51 194.527V191.789H78.3496V194.527H124.51Z" fill="#F7F5FF"/>
<path d="M106.002 154.231H96.88C94.9172 154.231 92.975 153.831 91.1717 153.056C89.3684 152.281 87.7418 151.147 86.3912 149.723H116.48C115.131 151.146 113.506 152.28 111.705 153.055C109.904 153.83 107.963 154.23 106.002 154.231Z" fill="#EEEBFE"/>
<path d="M156.005 154.231H146.877C144.914 154.231 142.971 153.832 141.168 153.057C139.365 152.282 137.738 151.147 136.388 149.723H166.494C165.143 151.147 163.517 152.282 161.713 153.057C159.91 153.832 157.968 154.231 156.005 154.231Z" fill="#EEEBFE"/>
<path d="M79.4864 214.145H74.4464V199.814H84.7672L79.4864 214.145Z" fill="#EEEBFE"/>
<path d="M177.391 41.4355H38.276V120.9H177.391V41.4355Z" fill="#F7F5FF"/>
<path d="M185.086 38.9824H33.6C33.4114 38.9824 33.2305 39.0573 33.0971 39.1907C32.9637 39.3241 32.8888 39.505 32.8888 39.6936C32.8881 39.7875 32.9059 39.8806 32.9413 39.9675C32.9767 40.0544 33.029 40.1335 33.0951 40.2001C33.1612 40.2668 33.2399 40.3197 33.3266 40.3558C33.4132 40.3918 33.5061 40.4104 33.6 40.4104H185.086C185.18 40.4104 185.272 40.3918 185.359 40.3558C185.446 40.3197 185.524 40.2668 185.591 40.2001C185.657 40.1335 185.709 40.0544 185.744 39.9675C185.78 39.8806 185.798 39.7875 185.797 39.6936C185.797 39.505 185.722 39.3241 185.589 39.1907C185.455 39.0573 185.274 38.9824 185.086 38.9824Z" fill="#F7F5FF"/>
<path d="M180.438 41.4355H39.6984V120.9H180.438V41.4355Z" fill="#E6E6E6"/>
<path d="M177.391 120.898H38.276V126.56H177.391V120.898Z" fill="#F7F5FF"/>
<path d="M185.511 120.898H44.772V126.56H185.511V120.898Z" fill="#E6E6E6"/>
<path d="M176.165 116.633V45.7031L43.96 45.7031V116.633L176.165 116.633Z" fill="#F5F5F5"/>
<path d="M109.39 116.633L134.428 45.7031H146.244L121.206 116.633H109.39Z" fill="#FFEDAD"/>
<path d="M123.749 116.633L148.786 45.7031H153.39L128.358 116.633H123.749Z" fill="#FFEDAD"/>
<path d="M176.165 116.633V45.7031H175.622V116.633H176.165Z" fill="#F7F5FF"/>
<path d="M44.0104 37.7051H36.6688V106.148H44.0104V37.7051Z" fill="#EBEBEB"/>
<path d="M46.872 37.7051H41.1544V106.148H46.872V37.7051Z" fill="#F7F5FF"/>
<path d="M51.352 37.7051H44.0104V106.148H51.352V37.7051Z" fill="#EBEBEB"/>
<path d="M54.2136 37.7051H48.496V106.148H54.2136V37.7051Z" fill="#F7F5FF"/>
<path d="M58.6937 37.7051H51.3521V106.148H58.6937V37.7051Z" fill="#EBEBEB"/>
<path d="M173.432 37.7051H169.204V106.148H173.432V37.7051Z" fill="#EBEBEB"/>
<path d="M175.09 37.7051H171.791V106.148H175.09V37.7051Z" fill="#F7F5FF"/>
<path d="M177.666 37.7051H173.438V106.148H177.666V37.7051Z" fill="#EBEBEB"/>
<path d="M179.318 37.7051H176.019V106.148H179.318V37.7051Z" fill="#F7F5FF"/>
<path d="M181.894 37.7051H177.666V106.148H181.894V37.7051Z" fill="#EBEBEB"/>
<path d="M220.377 67.3965H210.991V93.0053H220.377V67.3965Z" fill="#E6E6E6"/>
<path d="M207.424 97.2793L205.251 103.198H207.424L220.713 97.2793H207.424Z" fill="#EEEBFE"/>
<path d="M205.251 97.2793V103.198L218.546 97.2793H205.251Z" fill="#F7F5FF"/>
<path d="M230.154 97.2793L227.982 103.198H230.154L243.443 97.2793H230.154Z" fill="#EEEBFE"/>
<path d="M227.982 97.2793V103.198L241.276 97.2793H227.982Z" fill="#F7F5FF"/>
<path d="M195.502 97.5527H209.955V93.0447H195.502V97.5527Z" fill="#F7F5FF"/>
<path d="M251.194 93.0449H209.95V97.5529H251.194V93.0449Z" fill="#EEEBFE"/>
<path d="M236.012 93.0062H213.17L210.342 61.9766H233.184L236.012 93.0062Z" fill="#F7F5FF"/>
<path d="M237.194 93.0062H214.351L211.529 61.9766H234.371L237.194 93.0062Z" fill="#EEEBFE"/>
<path d="M217.476 89.5722L215.275 65.4082H231.246L233.447 89.5722H217.476Z" fill="#FFEDAD"/>
<path d="M88.1496 135.941C88.1496 135.941 78.2992 118.968 91.9632 105.455C91.9632 105.455 95.5304 107.779 95.4744 110.904C95.4184 114.029 91.6552 114.824 92.4672 117.422C93.2792 120.021 96.8296 122.591 94.4944 124.747C92.1592 126.903 94.8696 128.818 94.7128 131.467C94.556 134.116 88.1496 135.941 88.1496 135.941Z" fill="#F7F5FF"/>
<path d="M88.8944 137.493C88.8944 137.493 92.8872 118.279 75.6616 109.762C75.6616 109.762 73.0128 113.094 74.0488 116.039C75.0848 118.985 78.904 118.554 78.96 121.281C79.016 124.008 76.4512 127.559 79.3408 128.869C82.2304 130.179 80.2704 132.856 81.256 135.309C82.2416 137.762 88.8944 137.493 88.8944 137.493Z" fill="#F7F5FF"/>
<path d="M73.808 133.236C73.808 133.236 74.1328 145.904 86.688 145.904C99.2432 145.904 99.568 133.236 99.568 133.236H73.808Z" fill="#EEEBFE"/>
<path d="M140 239.434C199.966 239.434 248.578 236.596 248.578 233.095C248.578 229.594 199.966 226.756 140 226.756C80.0338 226.756 31.4216 229.594 31.4216 233.095C31.4216 236.596 80.0338 239.434 140 239.434Z" fill="#F7F5FF"/>
<path d="M104.468 71.838C104.47 70.795 104.386 69.7535 104.216 68.7244C103.465 64.1758 101.136 60.0373 97.6359 57.0364C94.1362 54.0355 89.6907 52.3642 85.0808 52.3164H84.9128C81.8201 52.3183 78.7721 53.0556 76.0205 54.4674C73.2688 55.8793 70.8924 57.9252 69.0872 60.4364C68.7904 60.8452 68.5272 61.2652 68.2584 61.6852C68.2365 61.7129 68.2177 61.743 68.2024 61.7748C66.3641 64.8152 65.3955 68.3019 65.4024 71.8548V71.894C65.4139 76.0234 66.7338 80.0428 69.1726 83.3752C71.6113 86.7075 75.0434 89.1812 78.9759 90.441C82.9084 91.7008 87.139 91.6819 91.0601 90.3871C94.9812 89.0922 98.3911 86.588 100.8 83.234C101.091 82.8252 101.36 82.4108 101.623 81.9852C101.645 81.9575 101.664 81.9274 101.679 81.8956C103.515 78.863 104.48 75.3831 104.468 71.838ZM66.2368 71.3956C66.3015 68.1982 67.1949 65.0723 68.8296 62.3236H74.9392C74.0055 65.2582 73.5167 68.3162 73.4888 71.3956H66.2368ZM75.796 62.3236H84.5096V71.3956H74.3288C74.3473 68.3141 74.8422 65.2539 75.796 62.3236ZM85.3496 61.4836V53.1284C86.5608 53.2382 87.7207 53.6693 88.7096 54.3772C90.7872 55.7996 92.5288 58.2972 93.7496 61.4836H85.3496ZM94.052 62.3236C94.7448 64.4214 95.1957 66.5915 95.396 68.7916C95.48 69.6652 95.5192 70.5332 95.5304 71.3956H85.3496V62.3236H94.052ZM83.2776 53.3636C83.6796 53.2494 84.0926 53.1781 84.5096 53.1508V61.5004H76.1096C77.6776 57.278 80.22 54.2092 83.2776 53.3468V53.3636ZM84.5096 72.2524V81.3244H75.8128C75.1199 79.2215 74.6726 77.0454 74.48 74.8396C74.4016 73.966 74.3568 73.098 74.3456 72.2356L84.5096 72.2524ZM84.5096 82.1644V90.5196C83.2986 90.409 82.1389 89.978 81.1496 89.2708C79.0776 87.8484 77.336 85.3508 76.1096 82.1644H84.5096ZM86.5816 90.3012C86.1797 90.4159 85.7667 90.4873 85.3496 90.514V82.1476H93.7496C92.1816 86.3532 89.6392 89.4276 86.5816 90.2844V90.3012ZM85.3496 81.3412V72.2412H95.5304C95.5146 75.323 95.0196 78.3835 94.0632 81.3132L85.3496 81.3412ZM96.3704 72.2412H103.65C103.583 75.4382 102.689 78.5633 101.058 81.3132H94.92C95.8536 78.3786 96.3425 75.3207 96.3704 72.2412ZM103.65 71.4012H96.3704C96.3704 70.5164 96.3144 69.6204 96.2304 68.7188C96.0392 66.5483 95.6092 64.4054 94.948 62.3292H101.046C102.225 64.3302 103.021 66.533 103.393 68.8252C103.526 69.6761 103.605 70.5347 103.628 71.3956L103.65 71.4012ZM95.8832 56.6564C97.7135 57.9748 99.2917 59.6119 100.542 61.4892H94.64C93.3856 58.0228 91.4984 55.2788 89.1856 53.6884L89.0064 53.5708C91.4758 54.1238 93.8076 55.1716 95.8608 56.6508L95.8832 56.6564ZM80.836 53.582C78.4784 55.1332 76.5408 57.9556 75.236 61.4892H69.356L69.7648 60.89C72.4242 57.1776 76.3572 54.5741 80.8136 53.5764L80.836 53.582ZM66.276 72.2412H73.528C73.528 73.126 73.584 74.022 73.668 74.9236C73.8618 77.0938 74.2918 79.2363 74.9504 81.3132H68.8184C67.6375 79.3134 66.8416 77.1101 66.472 74.8172C66.3326 73.9652 66.254 73.1044 66.2368 72.2412H66.276ZM69.3784 82.1532H75.236C76.4904 85.6196 78.3776 88.3636 80.6904 89.954L80.8752 90.0716C76.1698 89.0029 72.0544 86.1684 69.3784 82.1532ZM89.04 90.0548C91.392 88.5092 93.3296 85.6812 94.64 82.1476H100.509C100.374 82.3492 100.24 82.5508 100.1 82.7468C97.4384 86.4609 93.5004 89.063 89.04 90.0548Z" fill="#664EFE"/>
<path opacity="0.8" d="M104.468 71.838C104.47 70.795 104.386 69.7535 104.216 68.7244C103.465 64.1758 101.136 60.0373 97.6359 57.0364C94.1362 54.0355 89.6907 52.3642 85.0808 52.3164H84.9128C81.8201 52.3183 78.7721 53.0556 76.0205 54.4674C73.2688 55.8793 70.8924 57.9252 69.0872 60.4364C68.7904 60.8452 68.5272 61.2652 68.2584 61.6852C68.2365 61.7129 68.2177 61.743 68.2024 61.7748C66.3641 64.8152 65.3955 68.3019 65.4024 71.8548V71.894C65.4139 76.0234 66.7338 80.0428 69.1726 83.3752C71.6113 86.7075 75.0434 89.1812 78.9759 90.441C82.9084 91.7008 87.139 91.6819 91.0601 90.3871C94.9812 89.0922 98.3911 86.588 100.8 83.234C101.091 82.8252 101.36 82.4108 101.623 81.9852C101.645 81.9575 101.664 81.9274 101.679 81.8956C103.515 78.863 104.48 75.3831 104.468 71.838ZM66.2368 71.3956C66.3015 68.1982 67.1949 65.0723 68.8296 62.3236H74.9392C74.0055 65.2582 73.5167 68.3162 73.4888 71.3956H66.2368ZM75.796 62.3236H84.5096V71.3956H74.3288C74.3473 68.3141 74.8422 65.2539 75.796 62.3236ZM85.3496 61.4836V53.1284C86.5608 53.2382 87.7207 53.6693 88.7096 54.3772C90.7872 55.7996 92.5288 58.2972 93.7496 61.4836H85.3496ZM94.052 62.3236C94.7448 64.4214 95.1957 66.5915 95.396 68.7916C95.48 69.6652 95.5192 70.5332 95.5304 71.3956H85.3496V62.3236H94.052ZM83.2776 53.3636C83.6796 53.2494 84.0926 53.1781 84.5096 53.1508V61.5004H76.1096C77.6776 57.278 80.22 54.2092 83.2776 53.3468V53.3636ZM84.5096 72.2524V81.3244H75.8128C75.1199 79.2215 74.6726 77.0454 74.48 74.8396C74.4016 73.966 74.3568 73.098 74.3456 72.2356L84.5096 72.2524ZM84.5096 82.1644V90.5196C83.2986 90.409 82.1389 89.978 81.1496 89.2708C79.0776 87.8484 77.336 85.3508 76.1096 82.1644H84.5096ZM86.5816 90.3012C86.1797 90.4159 85.7667 90.4873 85.3496 90.514V82.1476H93.7496C92.1816 86.3532 89.6392 89.4276 86.5816 90.2844V90.3012ZM85.3496 81.3412V72.2412H95.5304C95.5146 75.323 95.0196 78.3835 94.0632 81.3132L85.3496 81.3412ZM96.3704 72.2412H103.65C103.583 75.4382 102.689 78.5633 101.058 81.3132H94.92C95.8536 78.3786 96.3425 75.3207 96.3704 72.2412ZM103.65 71.4012H96.3704C96.3704 70.5164 96.3144 69.6204 96.2304 68.7188C96.0392 66.5483 95.6092 64.4054 94.948 62.3292H101.046C102.225 64.3302 103.021 66.533 103.393 68.8252C103.526 69.6761 103.605 70.5347 103.628 71.3956L103.65 71.4012ZM95.8832 56.6564C97.7135 57.9748 99.2917 59.6119 100.542 61.4892H94.64C93.3856 58.0228 91.4984 55.2788 89.1856 53.6884L89.0064 53.5708C91.4758 54.1238 93.8076 55.1716 95.8608 56.6508L95.8832 56.6564ZM80.836 53.582C78.4784 55.1332 76.5408 57.9556 75.236 61.4892H69.356L69.7648 60.89C72.4242 57.1776 76.3572 54.5741 80.8136 53.5764L80.836 53.582ZM66.276 72.2412H73.528C73.528 73.126 73.584 74.022 73.668 74.9236C73.8618 77.0938 74.2918 79.2363 74.9504 81.3132H68.8184C67.6375 79.3134 66.8416 77.1101 66.472 74.8172C66.3326 73.9652 66.254 73.1044 66.2368 72.2412H66.276ZM69.3784 82.1532H75.236C76.4904 85.6196 78.3776 88.3636 80.6904 89.954L80.8752 90.0716C76.1698 89.0029 72.0544 86.1684 69.3784 82.1532ZM89.04 90.0548C91.392 88.5092 93.3296 85.6812 94.64 82.1476H100.509C100.374 82.3492 100.24 82.5508 100.1 82.7468C97.4384 86.4609 93.5004 89.063 89.04 90.0548Z" fill="#FFEDAD"/>
<path d="M232.002 81.1445H55.9384V123.805H232.002V81.1445Z" fill="#664EFE"/>
<path opacity="0.6" d="M232.002 81.1445H55.9384V123.805H232.002V81.1445Z" fill="#FFEDAD"/>
<path d="M228.032 85.1152H51.968V127.776H228.032V85.1152Z" fill="#664EFE"/>
<path opacity="0.3" d="M228.032 85.1152H51.968V127.776H228.032V85.1152Z" fill="black"/>
<path d="M224.062 89.0859H47.9976V131.747H224.062V89.0859Z" fill="#664EFE"/>
<path opacity="0.1" d="M224.062 89.0859H47.9976V131.747H224.062V89.0859Z" fill="#FFEDAD"/>
<path d="M215.661 123.347V97.4863L56.3975 97.4863V123.347L215.661 123.347Z" fill="#664EFE"/>
<path opacity="0.9" d="M215.661 123.347V97.4863L56.3975 97.4863V123.347L215.661 123.347Z" fill="#FFEDAD"/>
<path d="M188.871 97.4849V123.346H189.806V97.4849H188.871Z" fill="#664EFE"/>
<path opacity="0.6" d="M188.871 97.4849V123.346H189.806V97.4849H188.871Z" fill="#FFEDAD"/>
<path d="M60.3679 101.053V119.779H61.3031V101.053H60.3679Z" fill="#664EFE"/>
<path opacity="0.6" d="M60.3679 101.053V119.779H61.3031V101.053H60.3679Z" fill="#FFEDAD"/>
<path d="M201.841 113.68C201.161 113.679 200.492 113.512 199.893 113.191C199.294 112.871 198.783 112.407 198.406 111.842C198.028 111.277 197.796 110.628 197.73 109.951C197.663 109.275 197.764 108.593 198.024 107.965C198.284 107.337 198.695 106.783 199.221 106.352C199.746 105.921 200.369 105.626 201.036 105.494C201.702 105.361 202.391 105.395 203.041 105.592C203.692 105.789 204.283 106.143 204.764 106.624C205.342 107.202 205.736 107.938 205.896 108.74C206.055 109.542 205.974 110.373 205.661 111.129C205.348 111.884 204.818 112.53 204.138 112.984C203.458 113.438 202.658 113.68 201.841 113.68ZM201.841 106.54C201.144 106.54 200.468 106.782 199.929 107.224C199.391 107.667 199.022 108.283 198.886 108.966C198.751 109.65 198.857 110.36 199.186 110.975C199.515 111.589 200.047 112.071 200.691 112.337C201.336 112.603 202.052 112.638 202.719 112.435C203.386 112.232 203.962 111.803 204.349 111.223C204.735 110.643 204.909 109.947 204.84 109.253C204.77 108.559 204.463 107.911 203.969 107.419C203.692 107.134 203.362 106.907 202.996 106.751C202.631 106.595 202.238 106.514 201.841 106.512V106.54Z" fill="#664EFE"/>
<path d="M207.2 115.438C207.126 115.438 207.053 115.423 206.984 115.394C206.916 115.365 206.854 115.323 206.802 115.27L203.974 112.442C203.916 112.392 203.868 112.33 203.834 112.261C203.801 112.191 203.782 112.116 203.779 112.039C203.776 111.962 203.789 111.885 203.817 111.813C203.845 111.741 203.888 111.676 203.943 111.621C203.997 111.566 204.062 111.524 204.134 111.496C204.206 111.467 204.283 111.454 204.36 111.457C204.437 111.46 204.513 111.479 204.582 111.513C204.652 111.547 204.714 111.594 204.764 111.653L207.592 114.481C207.696 114.586 207.755 114.728 207.755 114.876C207.755 115.024 207.696 115.165 207.592 115.27C207.489 115.376 207.348 115.436 207.2 115.438Z" fill="#664EFE"/>
<g opacity="0.6">
<path d="M201.841 113.68C201.161 113.679 200.492 113.512 199.893 113.191C199.294 112.871 198.783 112.407 198.406 111.842C198.028 111.277 197.796 110.628 197.73 109.951C197.663 109.275 197.764 108.593 198.024 107.965C198.284 107.337 198.695 106.783 199.221 106.352C199.746 105.921 200.369 105.626 201.036 105.494C201.702 105.361 202.391 105.395 203.041 105.592C203.692 105.789 204.283 106.143 204.764 106.624C205.342 107.202 205.736 107.938 205.896 108.74C206.055 109.542 205.974 110.373 205.661 111.129C205.348 111.884 204.818 112.53 204.138 112.984C203.458 113.438 202.658 113.68 201.841 113.68ZM201.841 106.54C201.144 106.54 200.468 106.782 199.929 107.224C199.391 107.667 199.022 108.283 198.886 108.966C198.751 109.65 198.857 110.36 199.186 110.975C199.515 111.589 200.047 112.071 200.691 112.337C201.336 112.603 202.052 112.638 202.719 112.435C203.386 112.232 203.962 111.803 204.349 111.223C204.735 110.643 204.909 109.947 204.84 109.253C204.77 108.559 204.463 107.911 203.969 107.419C203.692 107.134 203.362 106.907 202.996 106.751C202.631 106.595 202.238 106.514 201.841 106.512V106.54Z" fill="#FFEDAD"/>
<path d="M207.2 115.438C207.126 115.438 207.053 115.423 206.984 115.394C206.916 115.365 206.854 115.323 206.802 115.27L203.974 112.442C203.916 112.392 203.868 112.33 203.835 112.261C203.801 112.191 203.782 112.116 203.779 112.039C203.776 111.962 203.789 111.885 203.817 111.813C203.845 111.741 203.888 111.676 203.943 111.621C203.997 111.566 204.063 111.524 204.134 111.496C204.206 111.467 204.283 111.454 204.36 111.457C204.437 111.46 204.513 111.479 204.583 111.513C204.652 111.547 204.714 111.594 204.764 111.653L207.592 114.481C207.696 114.586 207.755 114.728 207.755 114.876C207.755 115.024 207.696 115.165 207.592 115.27C207.489 115.376 207.348 115.436 207.2 115.438Z" fill="#FFEDAD"/>
</g>
<path d="M163.85 55.3574H146.244V55.7942H163.85V55.3574Z" fill="#664EFE"/>
<path d="M163.85 57.2109H146.244V57.6477H163.85V57.2109Z" fill="#664EFE"/>
<path d="M163.85 59.0703H146.244V59.5071H163.85V59.0703Z" fill="#664EFE"/>
<path d="M163.85 60.9238H146.244V61.3606H163.85V60.9238Z" fill="#664EFE"/>
<path d="M163.85 62.7773H146.244V63.2141H163.85V62.7773Z" fill="#664EFE"/>
<path d="M157.724 64.6367H146.244V65.0735H157.724V64.6367Z" fill="#664EFE"/>
<g opacity="0.5">
<path d="M163.85 55.3574H146.244V55.7942H163.85V55.3574Z" fill="#FFEDAD"/>
<path d="M163.85 57.2109H146.244V57.6477H163.85V57.2109Z" fill="#FFEDAD"/>
<path d="M163.85 59.0703H146.244V59.5071H163.85V59.0703Z" fill="#FFEDAD"/>
<path d="M163.85 60.9238H146.244V61.3606H163.85V60.9238Z" fill="#FFEDAD"/>
<path d="M163.85 62.7773H146.244V63.2141H163.85V62.7773Z" fill="#FFEDAD"/>
<path d="M157.724 64.6367H146.244V65.0735H157.724V64.6367Z" fill="#FFEDAD"/>
</g>
<path d="M57.876 135.432H39.116V135.712H57.876V135.432Z" fill="#664EFE"/>
<path d="M57.876 136.619H39.116V136.899H57.876V136.619Z" fill="#664EFE"/>
<path d="M57.876 137.805H39.116V138.085H57.876V137.805Z" fill="#664EFE"/>
<path d="M57.876 138.992H39.116V139.272H57.876V138.992Z" fill="#664EFE"/>
<path d="M57.876 140.18H39.116V140.46H57.876V140.18Z" fill="#664EFE"/>
<path d="M50.9096 141.373H39.116V141.653H50.9096V141.373Z" fill="#664EFE"/>
<g opacity="0.4">
<path d="M57.876 135.432H39.116V135.712H57.876V135.432Z" fill="#FFEDAD"/>
<path d="M57.876 136.619H39.116V136.899H57.876V136.619Z" fill="#FFEDAD"/>
<path d="M57.876 137.807H39.116V138.087H57.876V137.807Z" fill="#FFEDAD"/>
<path d="M57.876 138.994H39.116V139.274H57.876V138.994Z" fill="#FFEDAD"/>
<path d="M57.876 140.18H39.116V140.46H57.876V140.18Z" fill="#FFEDAD"/>
<path d="M50.9096 141.373H39.116V141.653H50.9096V141.373Z" fill="#FFEDAD"/>
</g>
<path d="M119.532 58.1055C118.593 58.1055 117.693 58.4783 117.029 59.1421C116.366 59.8058 115.993 60.706 115.993 61.6447V73.3207C115.993 74.2593 116.366 75.1595 117.029 75.8233C117.693 76.487 118.593 76.8599 119.532 76.8599C120.471 76.8599 121.371 76.487 122.035 75.8233C122.698 75.1595 123.071 74.2593 123.071 73.3207V61.6447C123.071 60.706 122.698 59.8058 122.035 59.1421C121.371 58.4783 120.471 58.1055 119.532 58.1055Z" fill="#664EFE"/>
<path opacity="0.2" d="M119.532 58.1055C118.593 58.1055 117.693 58.4783 117.029 59.1421C116.366 59.8058 115.993 60.706 115.993 61.6447V73.3207C115.993 74.2593 116.366 75.1595 117.029 75.8233C117.693 76.487 118.593 76.8599 119.532 76.8599C120.471 76.8599 121.371 76.487 122.035 75.8233C122.698 75.1595 123.071 74.2593 123.071 73.3207V61.6447C123.071 60.706 122.698 59.8058 122.035 59.1421C121.371 58.4783 120.471 58.1055 119.532 58.1055Z" fill="#FFEDAD"/>
<path d="M128.402 51.1446C127.467 51.149 126.571 51.5239 125.911 52.1871C125.251 52.8503 124.88 53.748 124.88 54.6838V73.3206C124.88 74.2592 125.253 75.1594 125.917 75.8232C126.58 76.4869 127.481 76.8598 128.419 76.8598C129.358 76.8598 130.258 76.4869 130.922 75.8232C131.586 75.1594 131.958 74.2592 131.958 73.3206V54.6838C131.958 54.2176 131.866 53.756 131.687 53.3255C131.508 52.895 131.246 52.5041 130.916 52.1752C130.585 51.8464 130.193 51.586 129.762 51.4091C129.331 51.2323 128.869 51.1424 128.402 51.1446Z" fill="#664EFE"/>
<path opacity="0.3" d="M128.402 51.1446C127.467 51.149 126.571 51.5239 125.911 52.1871C125.251 52.8503 124.88 53.748 124.88 54.6838V73.3206C124.88 74.2592 125.253 75.1594 125.917 75.8232C126.58 76.4869 127.481 76.8598 128.419 76.8598C129.358 76.8598 130.258 76.4869 130.922 75.8232C131.586 75.1594 131.958 74.2592 131.958 73.3206V54.6838C131.958 54.2176 131.866 53.756 131.687 53.3255C131.508 52.895 131.246 52.5041 130.916 52.1752C130.585 51.8464 130.193 51.586 129.762 51.4091C129.331 51.2323 128.869 51.1424 128.402 51.1446Z" fill="black"/>
<path d="M137.267 65.0664C136.329 65.0664 135.428 65.4393 134.765 66.103C134.101 66.7667 133.728 67.667 133.728 68.6056V73.3208C133.728 74.2595 134.101 75.1597 134.765 75.8234C135.428 76.4871 136.329 76.86 137.267 76.86C137.732 76.8607 138.193 76.7697 138.623 76.5922C139.053 76.4147 139.444 76.1541 139.773 75.8254C140.103 75.4967 140.364 75.1063 140.542 74.6765C140.72 74.2467 140.812 73.7861 140.812 73.3208V68.6056C140.812 68.1404 140.72 67.6797 140.542 67.2499C140.364 66.8202 140.103 66.4298 139.773 66.101C139.444 65.7723 139.053 65.5117 138.623 65.3342C138.193 65.1567 137.732 65.0657 137.267 65.0664Z" fill="#664EFE"/>
<path opacity="0.6" d="M137.267 65.0664C136.329 65.0664 135.428 65.4393 134.765 66.103C134.101 66.7667 133.728 67.667 133.728 68.6056V73.3208C133.728 74.2595 134.101 75.1597 134.765 75.8234C135.428 76.4871 136.329 76.86 137.267 76.86C137.732 76.8607 138.193 76.7697 138.623 76.5922C139.053 76.4147 139.444 76.1541 139.773 75.8254C140.103 75.4967 140.364 75.1063 140.542 74.6765C140.72 74.2467 140.812 73.7861 140.812 73.3208V68.6056C140.812 68.1404 140.72 67.6797 140.542 67.2499C140.364 66.8202 140.103 66.4298 139.773 66.101C139.444 65.7723 139.053 65.5117 138.623 65.3342C138.193 65.1567 137.732 65.0657 137.267 65.0664Z" fill="#FFEDAD"/>
<path d="M212.022 145.114H226.33L201.902 119.779L212.022 145.114Z" fill="#664EFE"/>
<g opacity="0.1">
<path d="M212.022 145.114H226.33L201.902 119.779L212.022 145.114Z" fill="black"/>
</g>
<g style="mix-blend-mode:multiply">
<path d="M198.268 131.741L201.902 119.779L203.963 131.741H198.268Z" fill="#664EFE"/>
</g>
<path d="M201.902 119.779V155.227L204.434 152.702L212.022 145.114L201.902 119.779Z" fill="#664EFE"/>
<path opacity="0.3" d="M201.902 119.779V155.227L204.434 152.702L212.022 145.114L201.902 119.779Z" fill="#FFEDAD"/>
<path d="M227.203 43.7422H195.843C194.254 43.7481 192.731 44.3817 191.607 45.505C190.482 46.6283 189.847 48.1504 189.84 49.7398V65.935C189.847 67.5234 190.482 69.0446 191.605 70.1678C192.728 71.291 194.249 71.9252 195.838 71.9326H218.848L218.68 77.5942L224.487 71.9326H227.192C228.781 71.9267 230.304 71.2931 231.428 70.1698C232.553 69.0464 233.188 67.5243 233.195 65.935V49.7398C233.188 48.1524 232.554 46.632 231.432 45.5089C230.31 44.3859 228.791 43.751 227.203 43.7422ZM195.138 50.6414C195.138 50.1958 195.315 49.7685 195.63 49.4534C195.945 49.1384 196.372 48.9614 196.818 48.9614H204.036C204.482 48.9614 204.909 49.1384 205.224 49.4534C205.539 49.7685 205.716 50.1958 205.716 50.6414C205.716 51.087 205.539 51.5143 205.224 51.8293C204.909 52.1444 204.482 52.3214 204.036 52.3214H196.812C196.367 52.3199 195.941 52.1423 195.628 51.8273C195.314 51.5124 195.138 51.086 195.138 50.6414ZM225.422 66.3214H212.946C212.704 66.3637 212.456 66.3526 212.22 66.289C211.983 66.2253 211.763 66.1106 211.575 65.9529C211.387 65.7953 211.236 65.5984 211.133 65.3762C211.029 65.1539 210.976 64.9117 210.976 64.6666C210.976 64.4214 211.029 64.1792 211.133 63.957C211.236 63.7348 211.387 63.5379 211.575 63.3802C211.763 63.2225 211.983 63.1078 212.22 63.0442C212.456 62.9805 212.704 62.9695 212.946 63.0118H225.422C225.664 62.9695 225.912 62.9805 226.148 63.0442C226.385 63.1078 226.605 63.2225 226.793 63.3802C226.981 63.5379 227.132 63.7348 227.235 63.957C227.339 64.1792 227.392 64.4214 227.392 64.6666C227.392 64.9117 227.339 65.1539 227.235 65.3762C227.132 65.5984 226.981 65.7953 226.793 65.9529C226.605 66.1106 226.385 66.2253 226.148 66.289C225.912 66.3526 225.664 66.3637 225.422 66.3214ZM225.422 59.3158H198.492C198.25 59.3581 198.003 59.347 197.766 59.2834C197.529 59.2197 197.309 59.105 197.121 58.9473C196.934 58.7896 196.783 58.5928 196.679 58.3706C196.576 58.1483 196.522 57.9061 196.522 57.661C196.522 57.4158 196.576 57.1736 196.679 56.9514C196.783 56.7292 196.934 56.5323 197.121 56.3746C197.309 56.2169 197.529 56.1022 197.766 56.0386C198.003 55.9749 198.25 55.9639 198.492 56.0062H225.422C225.664 55.9639 225.912 55.9749 226.148 56.0386C226.385 56.1022 226.605 56.2169 226.793 56.3746C226.981 56.5323 227.132 56.7292 227.235 56.9514C227.339 57.1736 227.392 57.4158 227.392 57.661C227.392 57.9061 227.339 58.1483 227.235 58.3706C227.132 58.5928 226.981 58.7896 226.793 58.9473C226.605 59.105 226.385 59.2197 226.148 59.2834C225.912 59.347 225.664 59.3581 225.422 59.3158ZM225.422 52.3102H209.479C209.034 52.3102 208.606 52.1332 208.291 51.8181C207.976 51.5031 207.799 51.0758 207.799 50.6302C207.799 50.1846 207.976 49.7573 208.291 49.4422C208.606 49.1272 209.034 48.9502 209.479 48.9502H225.422C225.868 48.9502 226.295 49.1272 226.61 49.4422C226.925 49.7573 227.102 50.1846 227.102 50.6302C227.102 51.0758 226.925 51.5031 226.61 51.8181C226.295 52.1332 225.868 52.3102 225.422 52.3102Z" fill="#664EFE"/>
<path d="M178.158 95.0759C176.819 91.3968 174.774 88.0145 172.138 85.1191H127.613C124.977 88.0145 122.932 91.3968 121.593 95.0759L127.753 125.742C132.465 130.85 138.801 134.17 145.684 135.136C152.566 136.103 159.571 134.657 165.509 131.045C171.446 127.432 175.95 121.875 178.255 115.319C180.56 108.762 180.524 101.609 178.153 95.0759H178.158Z" fill="#664EFE"/>
<path opacity="0.1" d="M178.158 95.0759C176.819 91.3968 174.774 88.0145 172.138 85.1191H127.613C124.977 88.0145 122.932 91.3968 121.593 95.0759L127.753 125.742C132.465 130.85 138.801 134.17 145.684 135.136C152.566 136.103 159.571 134.657 165.509 131.045C171.446 127.432 175.95 121.875 178.255 115.319C180.56 108.762 180.524 101.609 178.153 95.0759H178.158Z" fill="#FFEDAD"/>
<path d="M179.934 106.741C179.616 113.812 176.807 120.542 172.004 125.742H127.764C124.029 121.683 121.48 116.678 120.394 111.271C119.307 105.864 119.726 100.262 121.604 95.0762H178.164C179.522 98.8084 180.124 102.774 179.934 106.741Z" fill="#664EFE"/>
<path opacity="0.9" d="M179.934 106.741C179.616 113.812 176.807 120.542 172.004 125.742H127.764C124.029 121.683 121.48 116.678 120.394 111.271C119.307 105.864 119.726 100.262 121.604 95.0762H178.164C179.522 98.8084 180.124 102.774 179.934 106.741Z" fill="#FFEDAD"/>
<path opacity="0.3" d="M179.934 106.742C179.585 114.183 176.483 121.228 171.23 126.51C165.977 131.791 158.948 134.931 151.509 135.319C144.07 135.707 136.753 133.316 130.978 128.61C125.204 123.904 121.386 117.219 120.265 109.855C119.144 102.491 120.801 94.9727 124.914 88.7621C129.027 82.5514 135.302 78.0916 142.52 76.2492C149.737 74.4068 157.382 75.3135 163.968 78.793C170.555 82.2726 175.612 88.0765 178.158 95.0769C179.517 98.8092 180.12 102.774 179.934 106.742Z" fill="white"/>
<path opacity="0.4" d="M166.835 80.5051L123.57 119.963C123.353 119.563 123.14 119.16 122.931 118.753C121.608 116.105 120.689 113.273 120.204 110.353L157.573 76.2715C160.88 77.1429 164.012 78.5749 166.835 80.5051Z" fill="white"/>
<path opacity="0.4" d="M178.41 95.798L137.76 132.892C133.543 131.032 129.811 128.227 126.851 124.694L171.27 84.1836C174.507 87.458 176.95 91.4314 178.41 95.798Z" fill="white"/>
<path d="M179.922 88.0033C176.491 82.0529 171.371 77.2542 165.211 74.2142C159.052 71.1742 152.129 70.0297 145.318 70.9254C138.508 71.821 132.116 74.7167 126.952 79.246C121.788 83.7752 118.083 89.7345 116.307 96.3698C114.53 103.005 114.762 110.018 116.973 116.522C119.183 123.026 123.273 128.727 128.725 132.906C134.177 137.084 140.746 139.552 147.6 139.996C154.455 140.44 161.287 138.842 167.233 135.402C175.196 130.794 181.005 123.215 183.385 114.328C185.764 105.441 184.519 95.9729 179.922 88.0033ZM126.162 119.05C123.455 114.36 122.199 108.974 122.552 103.57C122.906 98.1671 124.854 92.9901 128.151 88.694C131.447 84.398 135.943 81.1758 141.07 79.4348C146.197 77.6939 151.726 77.5125 156.956 78.9135C162.186 80.3145 166.884 83.235 170.455 87.3057C174.025 91.3764 176.309 96.4145 177.016 101.783C177.723 107.151 176.823 112.609 174.429 117.466C172.034 122.322 168.254 126.36 163.565 129.068C160.452 130.866 157.015 132.033 153.45 132.503C149.886 132.973 146.264 132.736 142.791 131.805C139.318 130.875 136.063 129.27 133.211 127.081C130.359 124.892 127.965 122.163 126.168 119.05H126.162Z" fill="#664EFE"/>
<path opacity="0.1" d="M179.922 88.0033C176.491 82.0529 171.371 77.2542 165.211 74.2142C159.052 71.1742 152.129 70.0297 145.318 70.9254C138.508 71.821 132.116 74.7167 126.952 79.246C121.788 83.7752 118.083 89.7345 116.307 96.3698C114.53 103.005 114.762 110.018 116.973 116.522C119.183 123.026 123.273 128.727 128.725 132.906C134.177 137.084 140.746 139.552 147.6 139.996C154.455 140.44 161.287 138.842 167.233 135.402C175.196 130.794 181.005 123.215 183.385 114.328C185.764 105.441 184.519 95.9729 179.922 88.0033ZM126.162 119.05C123.455 114.36 122.199 108.974 122.552 103.57C122.906 98.1671 124.854 92.9901 128.151 88.694C131.447 84.398 135.943 81.1758 141.07 79.4348C146.197 77.6939 151.726 77.5125 156.956 78.9135C162.186 80.3145 166.884 83.235 170.455 87.3057C174.025 91.3764 176.309 96.4145 177.016 101.783C177.723 107.151 176.823 112.609 174.429 117.466C172.034 122.322 168.254 126.36 163.565 129.068C160.452 130.866 157.015 132.033 153.45 132.503C149.886 132.973 146.264 132.736 142.791 131.805C139.318 130.875 136.063 129.27 133.211 127.081C130.359 124.892 127.965 122.163 126.168 119.05H126.162Z" fill="black"/>
<path d="M70.0336 141.059L74.3232 142.055L70.7672 144.71C70.7672 144.71 68.2192 143.556 68.1016 141.747L70.0336 141.059Z" fill="#E4897B"/>
<path d="M76.6192 144.911L73.528 146.972L70.7672 144.709L74.3232 142.061L76.6192 144.911Z" fill="#E4897B"/>
<path d="M125.143 123.635C120.585 126.995 115.909 130.188 111.21 133.307C106.512 136.426 101.752 139.467 96.9696 142.452C92.1872 145.436 87.36 148.36 82.516 151.199C80.0968 152.644 77.6552 154.043 75.236 155.466C74.0343 156.231 72.7241 156.811 71.3496 157.185C70.6163 157.38 69.8663 157.505 69.1096 157.56C68.2695 157.629 67.4239 157.586 66.5952 157.431C66.0029 157.314 65.4396 157.082 64.9374 156.746C64.4352 156.411 64.0041 155.98 63.6686 155.479C63.3331 154.977 63.0998 154.413 62.9822 153.821C62.8646 153.229 62.865 152.62 62.9832 152.028C63.0215 151.837 63.0739 151.65 63.14 151.468C63.4103 150.674 63.7871 149.92 64.26 149.228C64.6819 148.605 65.1619 148.023 65.6936 147.492C66.7064 146.489 67.8634 145.643 69.1264 144.983C71.5736 143.588 74.004 142.183 76.468 140.799C81.3736 138.027 86.324 135.328 91.2856 132.663C96.2472 129.997 101.27 127.415 106.322 124.895C111.373 122.375 116.463 119.923 121.66 117.66C122.444 117.314 123.329 117.269 124.144 117.535C124.959 117.8 125.648 118.358 126.077 119.1C126.506 119.843 126.646 120.717 126.469 121.557C126.293 122.396 125.813 123.14 125.121 123.647L125.143 123.635Z" fill="#664EFE"/>
<path opacity="0.1" d="M125.143 123.635C120.585 126.995 115.909 130.188 111.21 133.307C106.512 136.426 101.752 139.467 96.9696 142.452C92.1872 145.436 87.36 148.36 82.516 151.199C80.0968 152.644 77.6552 154.043 75.236 155.466C74.0343 156.231 72.7241 156.811 71.3496 157.185C70.6163 157.38 69.8663 157.505 69.1096 157.56C68.2695 157.629 67.4239 157.586 66.5952 157.431C66.0029 157.314 65.4396 157.082 64.9374 156.746C64.4352 156.411 64.0041 155.98 63.6686 155.479C63.3331 154.977 63.0998 154.413 62.9822 153.821C62.8646 153.229 62.865 152.62 62.9832 152.028C63.0215 151.837 63.0739 151.65 63.14 151.468C63.4103 150.674 63.7871 149.92 64.26 149.228C64.6819 148.605 65.1619 148.023 65.6936 147.492C66.7064 146.489 67.8634 145.643 69.1264 144.983C71.5736 143.588 74.004 142.183 76.468 140.799C81.3736 138.027 86.324 135.328 91.2856 132.663C96.2472 129.997 101.27 127.415 106.322 124.895C111.373 122.375 116.463 119.923 121.66 117.66C122.444 117.314 123.329 117.269 124.144 117.535C124.959 117.8 125.648 118.358 126.077 119.1C126.506 119.843 126.646 120.717 126.469 121.557C126.293 122.396 125.813 123.14 125.121 123.647L125.143 123.635Z" fill="black"/>
<path d="M76.2496 114.531C75.9696 114.984 75.6504 115.533 75.348 116.048C75.0456 116.563 74.7488 117.101 74.4688 117.644C73.9088 118.714 73.3488 119.8 72.7888 120.903C72.2288 122.007 71.7752 123.143 71.316 124.263C71.092 124.823 70.8568 125.383 70.6496 125.943L70.336 126.8C70.2744 126.963 70.2632 127.03 70.224 127.147C70.1848 127.265 70.168 127.377 70.1344 127.489C69.9158 128.596 69.8051 129.721 69.804 130.849C69.776 132.053 69.804 133.279 69.8712 134.517C69.9384 135.755 70.0056 136.998 70.1176 138.241C70.2296 139.484 70.3416 140.75 70.4592 141.982L68.2976 142.424C67.9168 141.175 67.62 139.932 67.3232 138.672C67.0264 137.412 66.8024 136.147 66.584 134.859C66.3656 133.571 66.22 132.277 66.1248 130.939C66.0083 129.537 66.044 128.127 66.2312 126.733C66.2648 126.537 66.2928 126.352 66.3432 126.173C66.3936 125.994 66.444 125.742 66.4888 125.613L66.7632 124.661C66.9424 124.028 67.1496 123.401 67.3624 122.779C67.7936 121.531 68.264 120.304 68.7904 119.095C69.3168 117.885 69.8768 116.703 70.4704 115.539C70.7784 114.979 71.1032 114.379 71.4336 113.803C71.764 113.226 72.0944 112.683 72.5088 112.072L76.2496 114.531Z" fill="#E4897B"/>
<path d="M73.8583 230.16C73.4805 230.148 73.105 230.095 72.7383 230.003C72.7187 230 72.7006 229.99 72.6866 229.976C72.6725 229.962 72.6632 229.944 72.6599 229.925C72.6564 229.904 72.6587 229.884 72.6667 229.865C72.6746 229.846 72.6878 229.83 72.7047 229.818C72.8559 229.717 74.1775 228.866 74.6871 229.096C74.7438 229.122 74.7924 229.162 74.8279 229.214C74.8633 229.265 74.8844 229.325 74.8887 229.387C74.915 229.487 74.9133 229.592 74.8836 229.691C74.854 229.789 74.7976 229.878 74.7207 229.947C74.4684 230.12 74.1621 230.195 73.8583 230.16ZM73.0015 229.857C73.7631 230.009 74.3344 229.981 74.5528 229.779C74.6007 229.733 74.6358 229.675 74.6545 229.611C74.6732 229.547 74.6748 229.48 74.6592 229.415C74.6585 229.386 74.6497 229.359 74.6338 229.335C74.6179 229.311 74.5957 229.292 74.5696 229.281C74.3064 229.163 73.5391 229.533 73.0015 229.857Z" fill="#664EFE"/>
<path d="M72.7328 230.009C72.7163 230.014 72.6988 230.014 72.6824 230.009C72.6663 230 72.653 229.987 72.6441 229.971C72.6351 229.955 72.6309 229.937 72.632 229.919C72.632 229.869 72.632 228.614 73.108 228.194C73.1668 228.141 73.2361 228.102 73.3114 228.078C73.3867 228.053 73.4662 228.045 73.5448 228.054C73.6274 228.055 73.707 228.085 73.7703 228.138C73.8335 228.191 73.8765 228.264 73.892 228.345C73.9928 228.833 73.1976 229.773 72.772 230.025C72.7578 230.023 72.7443 230.017 72.7328 230.009ZM73.4776 228.239C73.3927 228.24 73.311 228.272 73.248 228.329C72.9726 228.734 72.8316 229.216 72.8448 229.706C73.2592 229.37 73.752 228.665 73.6904 228.368C73.6904 228.317 73.6512 228.261 73.5224 228.245L73.4776 228.239Z" fill="#664EFE"/>
<path d="M93.6936 230.159C93.2323 230.152 92.7727 230.099 92.3217 230.002C92.3002 230 92.2802 229.99 92.2649 229.975C92.2497 229.959 92.2401 229.939 92.2377 229.918C92.2352 229.897 92.2392 229.875 92.2492 229.856C92.2592 229.837 92.2747 229.822 92.2936 229.812C92.4896 229.711 94.2257 228.826 94.7577 229.117C94.8088 229.143 94.8522 229.182 94.8837 229.231C94.9151 229.279 94.9334 229.334 94.9368 229.392C94.9491 229.484 94.9381 229.578 94.9048 229.665C94.8716 229.752 94.8171 229.829 94.7465 229.89C94.4368 230.098 94.065 230.193 93.6936 230.159ZM92.6633 229.856C93.6321 230.019 94.3432 229.974 94.612 229.739C94.6567 229.697 94.6907 229.645 94.7112 229.588C94.7316 229.53 94.738 229.469 94.7297 229.408C94.7295 229.385 94.7231 229.363 94.7113 229.343C94.6995 229.323 94.6826 229.307 94.6624 229.296C94.3712 229.14 93.3745 229.515 92.6633 229.856Z" fill="#664EFE"/>
<path d="M92.3384 230.008C92.3295 230.011 92.32 230.013 92.3104 230.013C92.3008 230.013 92.2913 230.011 92.2824 230.008C92.2663 230 92.2533 229.987 92.2452 229.97C92.2371 229.954 92.2345 229.936 92.2376 229.918C92.2376 229.868 92.344 228.692 92.8872 228.238C93.0433 228.108 93.2443 228.043 93.4472 228.059C93.7328 228.087 93.8112 228.233 93.8336 228.35C93.912 228.843 92.8872 229.784 92.3664 230.03L92.3384 230.008ZM93.38 228.238C93.2485 228.24 93.1216 228.287 93.0216 228.373C92.7004 228.752 92.5048 229.221 92.4616 229.717C92.988 229.397 93.688 228.658 93.6376 228.361C93.6376 228.361 93.6376 228.261 93.436 228.244L93.38 228.238Z" fill="#664EFE"/>
<path d="M82.88 97.7129C83.2216 100.328 84 105.631 82.1072 107.233C82.1072 107.233 82.6672 109.898 87.4384 110.206C92.7136 110.548 90.1264 107.754 90.1264 107.754C87.2928 106.88 87.5056 104.746 88.1384 102.775L82.88 97.7129Z" fill="#E4897B"/>
<path d="M92.6632 92.3987C92.6296 92.398 92.5967 92.3883 92.568 92.3707C92.5436 92.3584 92.522 92.3412 92.5044 92.3202C92.4869 92.2993 92.4738 92.2749 92.4659 92.2487C92.458 92.2225 92.4556 92.195 92.4587 92.1679C92.4618 92.1407 92.4704 92.1144 92.484 92.0907C92.6295 91.7945 92.8445 91.5379 93.1108 91.3428C93.377 91.1478 93.6865 91.0201 94.0128 90.9707C94.0629 90.9726 94.1106 90.9927 94.1471 91.0271C94.1836 91.0616 94.2063 91.1081 94.2111 91.158C94.2159 91.2079 94.2024 91.2579 94.1731 91.2986C94.1439 91.3393 94.1008 91.3681 94.052 91.3795C93.7967 91.4241 93.5551 91.5272 93.3462 91.6807C93.1374 91.8342 92.9668 92.0339 92.848 92.2643C92.8321 92.3012 92.8065 92.3332 92.774 92.3568C92.7415 92.3805 92.7032 92.3949 92.6632 92.3987Z" fill="#263238"/>
<path d="M94.1696 94.6953C94.5554 95.4644 95.0453 96.1767 95.6256 96.8121C95.4592 96.9568 95.2633 97.0633 95.0514 97.1242C94.8396 97.1852 94.6169 97.1991 94.3992 97.1649L94.1696 94.6953Z" fill="#DE5753"/>
<path d="M93.8001 94.1245C93.8337 94.4773 94.0465 94.7405 94.2705 94.7181C94.4945 94.6957 94.6625 94.3989 94.6289 94.0461C94.5953 93.6933 94.3825 93.4301 94.1529 93.4525C93.9233 93.4749 93.7665 93.7773 93.8001 94.1245Z" fill="#263238"/>
<path d="M94.08 93.4794L94.8976 93.1602C94.8976 93.1602 94.5056 93.8546 94.08 93.4794Z" fill="#263238"/>
<path d="M87.5448 229.902H91.9072L92.1984 219.811H87.836L87.5448 229.902Z" fill="#E4897B"/>
<path d="M67.7375 229.902H72.0999L73.4999 219.811H69.1431L67.7375 229.902Z" fill="#E4897B"/>
<path d="M72.3689 229.398H67.4689C67.3849 229.398 67.3034 229.427 67.2396 229.482C67.1757 229.536 67.1338 229.612 67.1217 229.695L66.5617 233.57C66.5506 233.668 66.5604 233.767 66.5902 233.861C66.6201 233.955 66.6694 234.041 66.7349 234.115C66.8004 234.188 66.8807 234.247 66.9705 234.287C67.0603 234.328 67.1576 234.349 67.2561 234.349C68.9361 234.321 69.7873 234.22 71.9433 234.22C73.2649 234.22 75.2025 234.354 77.0337 234.354C78.8649 234.354 78.9601 232.546 78.1985 232.383C74.7825 231.65 74.2449 230.636 73.0913 229.667C72.8898 229.495 72.6339 229.4 72.3689 229.398Z" fill="#263238"/>
<path d="M92.0528 229.399H87.1584C87.0741 229.396 86.992 229.426 86.9279 229.48C86.8638 229.535 86.8222 229.612 86.8112 229.695L86.2512 233.571C86.241 233.669 86.2515 233.768 86.282 233.862C86.3126 233.955 86.3624 234.042 86.4284 234.115C86.4943 234.189 86.575 234.247 86.665 234.287C86.7551 234.328 86.8526 234.349 86.9512 234.349C88.6312 234.321 89.4824 234.22 91.6328 234.22C92.96 234.22 95.6984 234.355 97.5296 234.355C99.3608 234.355 99.456 232.546 98.6944 232.383C95.2784 231.65 93.9344 230.636 92.7808 229.667C92.5779 229.494 92.3197 229.399 92.0528 229.399Z" fill="#263238"/>
<path d="M92.1928 219.811L92.0472 225.013H87.6848L87.836 219.811H92.1928Z" fill="#CE6F64"/>
<path d="M69.1376 219.811H73.5L72.7776 225.013H68.4152L69.1376 219.811Z" fill="#CE6F64"/>
<path d="M78.1088 115.202C77.2809 116.495 76.3219 117.7 75.2472 118.797L74.7488 118.466L69.2272 114.798C69.2272 114.798 72.24 108.078 74.508 107.737C76.6752 107.39 78.2544 109.63 78.988 112.026C79.268 112.894 78.8032 114.07 78.1088 115.202Z" fill="#664EFE"/>
<path opacity="0.6" d="M78.1088 115.202C77.2809 116.495 76.3219 117.7 75.2472 118.797L74.7488 118.466L69.2272 114.798C69.2272 114.798 72.24 108.078 74.508 107.737C76.6752 107.39 78.2544 109.63 78.988 112.026C79.268 112.894 78.8032 114.07 78.1088 115.202Z" fill="#FFEDAD"/>
<path d="M78.1088 115.202C77.2809 116.495 76.3219 117.7 75.2472 118.797L74.7488 118.466C74.9952 116.45 75.7792 114.451 76.6752 113.818C77.224 113.874 77.7112 114.457 78.1088 115.202Z" fill="#664EFE"/>
<path opacity="0.4" d="M78.1088 115.202C77.2809 116.495 76.3219 117.7 75.2472 118.797L74.7488 118.466C74.9952 116.45 75.7792 114.451 76.6752 113.818C77.224 113.874 77.7112 114.457 78.1088 115.202Z" fill="#FFEDAD"/>
<path d="M96.9977 118.556C96.7345 120.236 96.3929 122.213 95.9337 124.56C95.3737 127.561 94.5897 131.162 93.5985 135.468L75.9305 134.348C76.6921 127.175 76.9889 122.74 74.5081 107.76C77.0163 107.409 79.5468 107.243 82.0793 107.261C84.7613 107.244 87.4412 107.418 90.0985 107.782C93.5257 108.342 97.3785 109.372 97.3785 109.372C97.3785 109.372 98.3641 109.759 96.9977 118.556Z" fill="#664EFE"/>
<path opacity="0.6" d="M96.9977 118.556C96.7345 120.236 96.3929 122.213 95.9337 124.56C95.3737 127.561 94.5897 131.162 93.5985 135.468L75.9305 134.348C76.6921 127.175 76.9889 122.74 74.5081 107.76C77.0163 107.409 79.5468 107.243 82.0793 107.261C84.7613 107.244 87.4412 107.418 90.0985 107.782C93.5257 108.342 97.3785 109.372 97.3785 109.372C97.3785 109.372 98.3641 109.759 96.9977 118.556Z" fill="#FFEDAD"/>
<path d="M96.9976 118.558C96.7344 120.238 96.3928 122.215 95.9336 124.561C94.9619 122.494 94.1548 120.354 93.52 118.16H96.8016L96.9976 118.558Z" fill="#664EFE"/>
<path opacity="0.4" d="M96.9976 118.558C96.7344 120.238 96.3928 122.215 95.9336 124.561C94.9619 122.494 94.1548 120.354 93.52 118.16H96.8016L96.9976 118.558Z" fill="#FFEDAD"/>
<path d="M81.9167 94.0346C82.5831 98.3074 82.7792 100.133 85.1592 102.132C88.7376 105.145 93.8391 103.387 94.4607 98.9962C95.0207 95.0482 93.8335 88.7202 89.4599 87.4098C88.4979 87.1146 87.4764 87.0705 86.4925 87.2818C85.5086 87.493 84.5952 87.9525 83.8391 88.6165C83.083 89.2806 82.5094 90.127 82.1729 91.0754C81.8364 92.0238 81.7483 93.0425 81.9167 94.0346Z" fill="#E4897B"/>
<path d="M88.928 135.167C88.928 135.167 88.648 142.945 87.976 152.756C87.416 160.988 86.5704 170.643 85.3888 178.337L85.3552 178.55C83.2328 192.169 73.8304 224 73.8304 224H67.8832C67.8832 224 72.7832 193.256 73.8584 179.76C76.5856 145.672 69.7536 141.814 75.9304 134.299L88.928 135.167Z" fill="#664EFE"/>
<path d="M88.928 135.167C88.928 135.167 88.648 142.945 87.976 152.756C87.416 160.988 86.5704 170.643 85.3888 178.337L85.3552 178.55C83.2328 192.169 73.8304 224 73.8304 224H67.8832C67.8832 224 72.7832 193.256 73.8584 179.76C76.5856 145.672 69.7536 141.814 75.9304 134.299L88.928 135.167Z" fill="#121212"/>
<path d="M87.976 152.757C87.416 160.989 86.5704 170.643 85.3888 178.338C83.3784 168.342 80.0744 153.743 84.5096 144.178C85.568 146.894 86.8 149.963 87.976 152.757Z" fill="#664EFE"/>
<path d="M87.976 152.757C87.416 160.989 86.5704 170.643 85.3888 178.338C83.3784 168.342 80.0744 153.743 84.5096 144.178C85.568 146.894 86.8 149.963 87.976 152.757Z" fill="black"/>
<path d="M93.5985 135.475C93.5985 135.475 98.6385 165.345 98.3361 178.639C98.0393 192.471 92.9713 223.999 92.9713 223.999H87.0801C87.0801 223.999 88.0097 193.272 87.4889 179.692C86.9289 164.886 80.6569 134.629 80.6569 134.629L93.5985 135.475Z" fill="#664EFE"/>
<path d="M93.5985 135.475C93.5985 135.475 98.6385 165.345 98.3361 178.639C98.0393 192.471 92.9713 223.999 92.9713 223.999H87.0801C87.0801 223.999 88.0097 193.272 87.4889 179.692C86.9289 164.886 80.6569 134.629 80.6569 134.629L93.5985 135.475Z" fill="#121212"/>
<path d="M86.072 224.28H93.9736L94.5896 221.631L85.792 221.692L86.072 224.28Z" fill="#263238"/>
<path d="M67.0208 224.28H74.9223L75.5384 221.631L67.0768 221.692L67.0208 224.28Z" fill="#263238"/>
<path d="M75.7287 133.278L74.8327 134.813C74.7599 134.93 74.8999 135.065 75.1015 135.076L93.6319 136.28C93.7887 136.28 93.9287 136.224 93.9455 136.123L94.2087 134.55C94.2087 134.443 94.0911 134.342 93.9175 134.331L75.9975 133.166C75.9473 133.164 75.8971 133.173 75.8506 133.192C75.8041 133.212 75.7625 133.241 75.7287 133.278Z" fill="#263238"/>
<path d="M78.0023 135.43L77.5263 135.396C77.4311 135.396 77.3583 135.334 77.3695 135.278L77.7279 133.234C77.7279 133.178 77.8231 133.134 77.9183 133.139L78.3999 133.167C78.4951 133.167 78.5623 133.229 78.5567 133.29L78.1983 135.329C78.1871 135.39 78.0975 135.435 78.0023 135.43Z" fill="#664EFE"/>
<path opacity="0.3" d="M78.0023 135.43L77.5263 135.396C77.4311 135.396 77.3583 135.334 77.3695 135.278L77.7279 133.234C77.7279 133.178 77.8231 133.134 77.9183 133.139L78.3999 133.167C78.4951 133.167 78.5623 133.229 78.5567 133.29L78.1983 135.329C78.1871 135.39 78.0975 135.435 78.0023 135.43Z" fill="black"/>
<path d="M89.6 136.18L89.124 136.152C89.0288 136.152 88.956 136.09 88.9672 136.029L89.3256 133.99C89.3256 133.929 89.4208 133.889 89.5216 133.895L89.9976 133.923C90.0928 133.923 90.1656 133.985 90.1544 134.046L89.796 136.085C89.8016 136.146 89.712 136.185 89.6 136.18Z" fill="#664EFE"/>
<path opacity="0.3" d="M89.6 136.18L89.124 136.152C89.0288 136.152 88.956 136.09 88.9672 136.029L89.3256 133.99C89.3256 133.929 89.4208 133.889 89.5216 133.895L89.9976 133.923C90.0928 133.923 90.1656 133.985 90.1544 134.046L89.796 136.085C89.8016 136.146 89.712 136.185 89.6 136.18Z" fill="black"/>
<path d="M98.3808 113.854C99.0528 116.094 99.6912 118.362 100.313 120.624L102.189 127.394L102.424 128.234L102.486 128.442L102.514 128.548V128.604C102.534 128.678 102.558 128.751 102.586 128.822C102.724 129.163 102.913 129.48 103.146 129.763C103.815 130.469 104.59 131.066 105.442 131.533C107.396 132.59 109.462 133.424 111.602 134.019L111.278 136.203C108.766 136.074 106.293 135.539 103.953 134.618C102.658 134.111 101.465 133.375 100.43 132.446C99.8379 131.896 99.3452 131.248 98.9744 130.53C98.8743 130.336 98.7864 130.136 98.7112 129.931L98.6496 129.78L98.6104 129.674L98.5376 129.466L98.2408 128.621C97.4568 126.381 96.7288 124.141 96.04 121.867C95.3512 119.594 94.6736 117.354 94.0576 115.069L98.3808 113.854Z" fill="#E4897B"/>
<path d="M97.3784 109.351C99.6184 110.085 101.97 117.41 101.97 117.41L93.884 120.893C93.884 120.893 90.524 112.672 92.0136 110.813C93.5032 108.954 94.808 108.511 97.3784 109.351Z" fill="#664EFE"/>
<path opacity="0.6" d="M97.3784 109.351C99.6184 110.085 101.97 117.41 101.97 117.41L93.884 120.893C93.884 120.893 90.524 112.672 92.0136 110.813C93.5032 108.954 94.808 108.511 97.3784 109.351Z" fill="#FFEDAD"/>
<path d="M93.0551 87.1628C91.6271 85.3988 80.5951 84.1388 80.0071 88.9436C76.0871 91.6876 79.8055 98.7772 80.3655 100.58C77.6607 101.331 68.9471 104.31 75.3255 110.1C81.7039 115.891 91.2688 114.905 93.1392 108.913C94.4496 104.724 90.2887 97.7132 90.3783 95.2604C90.4679 92.8076 95.5023 90.1588 93.0551 87.1628Z" fill="#263238"/>
<path d="M81.1384 101.466C81.1179 101.467 81.0976 101.463 81.0791 101.454C81.0606 101.445 81.0444 101.432 81.032 101.416C80.0184 100.184 76.4904 93.7103 77.728 90.6303C77.9199 90.1525 78.2453 89.7399 78.6654 89.442C79.0854 89.1441 79.5823 88.9734 80.0968 88.9503C80.1149 88.948 80.1333 88.9494 80.1508 88.9544C80.1684 88.9594 80.1847 88.9679 80.1989 88.9794C80.213 88.991 80.2247 89.0052 80.2331 89.0214C80.2416 89.0376 80.2466 89.0553 80.248 89.0735C80.2528 89.1098 80.2432 89.1466 80.2212 89.1759C80.1992 89.2052 80.1666 89.2248 80.1304 89.2303C79.6678 89.2474 79.2199 89.3968 78.8397 89.6609C78.4596 89.9249 78.1631 90.2925 77.9856 90.7199C76.7928 93.6991 80.2536 100.022 81.2448 101.231C81.2625 101.251 81.274 101.275 81.2778 101.302C81.2816 101.328 81.2775 101.355 81.2662 101.379C81.2548 101.402 81.2366 101.423 81.2139 101.436C81.1911 101.45 81.1649 101.456 81.1384 101.455V101.466Z" fill="#263238"/>
<path d="M89.5048 94.998C89.6297 95.8158 90.0239 96.5686 90.6248 97.1372C91.42 97.8988 92.1704 97.378 92.2432 96.4092C92.3104 95.5412 91.9744 94.102 91.0336 93.6988C90.0928 93.2956 89.3872 94.0292 89.5048 94.998Z" fill="#E4897B"/>
<path d="M108.858 133.413L112.039 132.332L111.541 136.157C111.541 136.157 110.286 136.717 108.662 135.306L107.111 134.314L108.332 133.648C108.499 133.553 108.676 133.474 108.858 133.413Z" fill="#E4897B"/>
<path d="M114.262 132.322L113.288 135.665L111.541 136.153L112.039 132.333L114.262 132.322Z" fill="#E4897B"/>
</svg>
