<svg width="334" height="334" viewBox="0 0 334 334" fill="none" xmlns="http://www.w3.org/2000/svg">
<path d="M84.3514 105.679C90.954 103.084 94.2024 95.6273 91.6069 89.0247C89.0113 82.422 81.5548 79.1736 74.9522 81.7692C68.3495 84.3647 65.1012 91.8212 67.6967 98.4238C70.2922 105.026 77.7487 108.275 84.3514 105.679Z" fill="#EBEBEB"/>
<path d="M91.9435 97.4747C90.7486 96.4326 89.3958 95.5871 87.9355 94.9697C85.3904 93.8475 78.4633 92.625 75.2435 91.0018C70.7345 88.7306 70.1734 86.279 70.2001 84.9898C71.3229 83.7772 72.6676 82.7909 74.1613 82.084C74.482 83.42 75.6911 87.428 83.1793 90.1C87.0471 91.436 90.7478 90.5542 92.0036 90.247C92.6796 92.6118 92.6587 95.1214 91.9435 97.4747Z" fill="#DBDBDB"/>
<path d="M86.6992 104.482C84.2357 106.097 81.2929 106.818 78.3618 106.525C75.4308 106.232 72.6889 104.943 70.5938 102.872C71.3236 102.48 72.0972 102.175 72.8983 101.964C76.3519 101.122 80.1528 102.772 81.5423 103.553C83.0965 104.465 84.9245 104.795 86.6992 104.482Z" fill="#DBDBDB"/>
<path d="M91.1814 99.3968L91.021 99.7108L90.8741 99.9914C90.7538 100.205 90.6336 100.406 90.5067 100.606C90.3798 100.806 90.2729 100.967 90.1527 101.14L90.0124 101.334L89.852 101.548L89.6917 101.762L89.4847 102.002L89.2843 102.243L89.1039 102.443C88.9703 102.59 88.83 102.73 88.6897 102.87C87.8881 103.118 86.8193 103.011 85.2495 102.389C82.9182 101.474 80.3998 99.2699 75.8975 97.6534C73.1237 96.6802 70.1358 96.4884 67.2603 97.0989C66.5637 94.5373 66.6804 91.8225 67.5943 89.3301C68.4159 89.3301 71.0545 89.6774 76.6858 94.3267C78.4374 95.8124 80.338 97.113 82.3571 98.2078C87.1667 100.726 89.9456 99.978 91.1079 99.3968H91.1947H91.1814Z" fill="#DBDBDB"/>
<path d="M78.971 104.208C79.1982 103.687 79.9998 103.54 80.7613 103.86C81.5228 104.181 81.957 104.889 81.7232 105.41C81.4894 105.931 80.6945 106.078 79.933 105.757C79.1714 105.437 78.7439 104.762 78.971 104.208Z" fill="#C7C7C7"/>
<path d="M82.6043 103.318C82.7379 103.025 83.2122 102.951 83.6664 103.145C84.1207 103.339 84.3879 103.746 84.261 104.04C84.134 104.334 83.6598 104.414 83.1988 104.214C82.7379 104.013 82.4774 103.612 82.6043 103.318Z" fill="#C7C7C7"/>
<path d="M72.6443 87.5406C72.838 87.0931 73.5327 86.9662 74.2007 87.2601C74.8687 87.554 75.2495 88.1485 75.0557 88.5961C74.862 89.0436 74.1606 89.1706 73.4926 88.8766C72.8246 88.5827 72.4439 87.9882 72.6443 87.5406Z" fill="#C7C7C7"/>
<path d="M75.009 87.0998C75.0863 86.9772 75.2081 86.8892 75.3488 86.8544C75.4895 86.8195 75.6382 86.8404 75.7639 86.9128C75.8995 86.9561 76.014 87.0488 76.0845 87.1726C76.155 87.2963 76.1765 87.442 76.1446 87.5808C76.0496 87.674 75.929 87.7367 75.7981 87.7609C75.6673 87.785 75.5322 87.7696 75.4102 87.7165C75.2882 87.6634 75.1848 87.575 75.1133 87.4628C75.0419 87.3505 75.0055 87.2195 75.009 87.0865V87.0998Z" fill="#C7C7C7"/>
<path d="M75.3897 88.2884C75.4412 88.2145 75.5189 88.163 75.607 88.1444C75.6951 88.1258 75.787 88.1414 75.864 88.1882C76.0644 88.275 76.178 88.462 76.1112 88.6023C76.0444 88.7426 75.8373 88.7894 75.6369 88.7025C75.4365 88.6157 75.3296 88.4353 75.3897 88.2884Z" fill="#C7C7C7"/>
<path d="M83.4057 88.3226C83.433 88.0947 83.5312 87.8812 83.6864 87.7122C83.8415 87.5431 84.0459 87.427 84.2705 87.3803C84.4952 87.3336 84.7289 87.3587 84.9385 87.4519C85.1482 87.5451 85.3233 87.7018 85.4392 87.8999C85.555 88.098 85.6057 88.3274 85.5842 88.5559C85.5626 88.7844 85.4698 89.0003 85.319 89.1732C85.1681 89.3461 84.9668 89.4673 84.7433 89.5196C84.5199 89.5719 84.2857 89.5528 84.0737 89.4649C83.8355 89.399 83.6324 89.2428 83.5077 89.0294C83.3829 88.8161 83.3463 88.5625 83.4057 88.3226Z" fill="#C7C7C7"/>
<path d="M83.0987 90.0726C83.1291 89.9743 83.1886 89.8876 83.2694 89.8239C83.3502 89.7602 83.4485 89.7225 83.5511 89.7159C83.6538 89.7093 83.7561 89.734 83.8444 89.7869C83.9327 89.8397 84.0029 89.9181 84.0456 90.0117C84.0883 90.1053 84.1016 90.2097 84.0837 90.311C84.0657 90.4123 84.0175 90.5058 83.9452 90.579C83.8729 90.6523 83.7801 90.7019 83.6791 90.7212C83.578 90.7405 83.4734 90.7286 83.3793 90.6872C83.2622 90.6408 83.1676 90.5509 83.1153 90.4364C83.063 90.3218 83.0571 90.1915 83.0987 90.0726Z" fill="#C7C7C7"/>
<path d="M277.54 238.001C282.31 238.001 286.177 234.134 286.177 229.364C286.177 224.594 282.31 220.727 277.54 220.727C272.769 220.727 268.902 224.594 268.902 229.364C268.902 234.134 272.769 238.001 277.54 238.001Z" fill="#EBEBEB"/>
<path d="M280.687 224.24C280.707 224.654 280.595 225.064 280.366 225.409C280.135 225.767 279.809 226.054 279.424 226.238C279.032 226.437 278.577 226.478 278.155 226.351C277.758 226.221 277.417 225.956 277.193 225.603C277.498 225.835 277.853 225.992 278.229 226.064C278.403 226.094 278.582 226.094 278.756 226.064C278.933 226.036 279.104 225.982 279.264 225.904L279.505 225.77C279.578 225.717 279.658 225.67 279.725 225.616C279.874 225.507 280.009 225.379 280.126 225.236C280.374 224.942 280.565 224.605 280.687 224.24Z" fill="#C7C7C7"/>
<path d="M277.58 224.734C277.54 224.446 277.604 224.152 277.76 223.906C277.918 223.647 278.151 223.441 278.428 223.318C278.567 223.248 278.718 223.206 278.873 223.195C279.027 223.183 279.183 223.202 279.33 223.251C279.617 223.34 279.858 223.54 279.998 223.806C279.779 223.668 279.533 223.577 279.277 223.539C279.047 223.509 278.814 223.551 278.609 223.659C278.143 223.875 277.776 224.259 277.58 224.734Z" fill="#C7C7C7"/>
<path d="M277.54 233.426C277.637 233.691 277.637 233.982 277.54 234.247C277.449 234.527 277.274 234.772 277.039 234.949C276.806 235.128 276.513 235.211 276.22 235.18C275.928 235.149 275.659 235.006 275.469 234.782C275.706 234.856 275.955 234.89 276.204 234.882C276.425 234.868 276.638 234.787 276.811 234.648C276.997 234.508 277.154 234.334 277.272 234.134C277.4 233.914 277.491 233.675 277.54 233.426Z" fill="#C7C7C7"/>
<path d="M275.75 234.408C275.702 234.32 275.673 234.223 275.662 234.124C275.652 234.024 275.661 233.923 275.69 233.827C275.749 233.625 275.871 233.448 276.038 233.319C276.125 233.252 276.225 233.204 276.332 233.178C276.439 233.151 276.55 233.147 276.659 233.166C276.758 233.183 276.852 233.22 276.936 233.275C277.02 233.331 277.091 233.402 277.146 233.486C276.98 233.461 276.811 233.461 276.645 233.486C276.509 233.506 276.38 233.561 276.271 233.647C276.02 233.837 275.837 234.104 275.75 234.408Z" fill="#C7C7C7"/>
<path d="M274.428 225.65C274.504 225.721 274.566 225.807 274.608 225.902C274.651 225.998 274.673 226.1 274.675 226.205C274.677 226.434 274.588 226.655 274.428 226.819C274.345 226.901 274.245 226.962 274.135 226.999C274.025 227.036 273.908 227.048 273.793 227.033C273.588 227.011 273.397 226.919 273.252 226.773C273.431 226.78 273.61 226.769 273.786 226.739C273.927 226.716 274.057 226.651 274.16 226.552C274.263 226.447 274.338 226.319 274.381 226.178C274.425 226.006 274.441 225.828 274.428 225.65Z" fill="#C7C7C7"/>
<path d="M273.358 226.492C273.294 226.45 273.241 226.393 273.203 226.327C273.165 226.261 273.142 226.187 273.137 226.111C273.133 226.027 273.147 225.944 273.177 225.866C273.207 225.787 273.252 225.716 273.311 225.657C273.372 225.595 273.447 225.549 273.53 225.523C273.612 225.496 273.7 225.489 273.785 225.503C273.859 225.514 273.929 225.539 273.993 225.578C274.056 225.617 274.11 225.669 274.153 225.73C274.031 225.744 273.911 225.767 273.792 225.797C273.711 225.821 273.638 225.864 273.578 225.924C273.517 225.986 273.468 226.058 273.431 226.138C273.392 226.252 273.367 226.371 273.358 226.492Z" fill="#C7C7C7"/>
<path d="M280.433 234.761C280.383 234.853 280.314 234.934 280.231 234.998C280.149 235.063 280.053 235.109 279.952 235.135C279.84 235.166 279.723 235.174 279.608 235.158C279.493 235.142 279.383 235.102 279.284 235.042C279.186 234.982 279.103 234.902 279.04 234.806C278.978 234.71 278.938 234.601 278.923 234.487C278.894 234.281 278.936 234.071 279.043 233.893C279.08 234.07 279.136 234.242 279.21 234.407C279.264 234.537 279.358 234.647 279.478 234.721C279.605 234.796 279.75 234.837 279.898 234.841C280.08 234.842 280.26 234.815 280.433 234.761Z" fill="#C7C7C7"/>
<path d="M279.357 233.926C279.384 233.855 279.426 233.791 279.48 233.739C279.534 233.687 279.6 233.648 279.671 233.625C279.751 233.599 279.835 233.59 279.918 233.599C280.001 233.608 280.081 233.635 280.152 233.678C280.227 233.722 280.29 233.784 280.337 233.857C280.383 233.93 280.411 234.013 280.42 234.099C280.43 234.248 280.385 234.396 280.293 234.513C280.246 234.399 280.192 234.288 280.132 234.179C280.095 234.106 280.037 234.046 279.965 234.006C279.89 233.959 279.806 233.93 279.718 233.919C279.598 233.901 279.476 233.904 279.357 233.926Z" fill="#C7C7C7"/>
<path d="M283.393 228.682C283.402 228.785 283.39 228.889 283.358 228.988C283.325 229.087 283.274 229.178 283.206 229.256C283.132 229.342 283.042 229.412 282.941 229.462C282.84 229.513 282.73 229.543 282.618 229.55C282.502 229.557 282.387 229.537 282.28 229.491C282.174 229.446 282.079 229.377 282.003 229.29C281.861 229.139 281.778 228.942 281.77 228.735C281.898 228.861 282.039 228.973 282.19 229.069C282.311 229.143 282.45 229.18 282.591 229.176C282.739 229.165 282.881 229.117 283.005 229.036C283.153 228.94 283.284 228.821 283.393 228.682Z" fill="#C7C7C7"/>
<path d="M282.03 228.595C282.012 228.522 282.011 228.445 282.027 228.371C282.043 228.297 282.076 228.227 282.123 228.168C282.176 228.102 282.242 228.049 282.317 228.01C282.392 227.971 282.473 227.947 282.557 227.941C282.644 227.935 282.73 227.95 282.809 227.985C282.888 228.02 282.958 228.073 283.012 228.141C283.105 228.258 283.15 228.406 283.138 228.555C283.036 228.485 282.929 228.423 282.818 228.368C282.743 228.33 282.661 228.312 282.577 228.315C282.489 228.322 282.404 228.345 282.324 228.382C282.218 228.441 282.119 228.513 282.03 228.595Z" fill="#C7C7C7"/>
<path d="M271.942 230.633C271.954 230.737 271.944 230.842 271.913 230.942C271.882 231.042 271.83 231.135 271.761 231.214C271.688 231.3 271.598 231.37 271.497 231.42C271.396 231.471 271.286 231.5 271.173 231.508C271.057 231.514 270.941 231.494 270.833 231.449C270.725 231.404 270.629 231.335 270.552 231.247C270.415 231.093 270.333 230.898 270.318 230.693C270.45 230.817 270.593 230.929 270.746 231.027C270.866 231.101 271.005 231.139 271.147 231.134C271.294 231.122 271.436 231.074 271.561 230.994C271.71 230.9 271.84 230.777 271.942 230.633Z" fill="#C7C7C7"/>
<path d="M270.586 230.553C270.568 230.479 270.568 230.402 270.584 230.328C270.6 230.254 270.633 230.185 270.68 230.125C270.731 230.059 270.796 230.005 270.869 229.966C270.943 229.927 271.024 229.904 271.107 229.898C271.194 229.892 271.28 229.906 271.359 229.941C271.439 229.976 271.508 230.03 271.561 230.098C271.61 230.155 271.647 230.221 271.67 230.292C271.692 230.363 271.701 230.438 271.695 230.512C271.593 230.442 271.486 230.38 271.374 230.325C271.301 230.285 271.218 230.267 271.134 230.272C271.046 230.279 270.96 230.302 270.88 230.339C270.774 230.399 270.676 230.47 270.586 230.553Z" fill="#C7C7C7"/>
<path d="M247.233 40.1804L249.531 37.8891C249.846 37.5735 250.023 37.1459 250.023 36.7001C250.023 36.2542 249.846 35.8266 249.531 35.511C249.376 35.3535 249.191 35.2284 248.986 35.143C248.782 35.0576 248.563 35.0137 248.342 35.0137C248.121 35.0137 247.902 35.0576 247.698 35.143C247.493 35.2284 247.308 35.3535 247.153 35.511L244.855 37.8023C244.54 38.1179 244.363 38.5455 244.363 38.9913C244.363 39.4371 244.54 39.8648 244.855 40.1804C245.171 40.4953 245.598 40.6721 246.044 40.6721C246.49 40.6721 246.918 40.4953 247.233 40.1804Z" fill="#EBEBEB"/>
<path d="M278.555 62.9177L280.011 60.0186C280.112 59.8216 280.173 59.6064 280.19 59.3858C280.206 59.1651 280.179 58.9433 280.11 58.7332C280.04 58.5231 279.929 58.3289 279.784 58.162C279.639 57.9951 279.462 57.8587 279.263 57.7608C279.066 57.6609 278.851 57.6011 278.631 57.5847C278.41 57.5683 278.189 57.5956 277.979 57.6652C277.769 57.7347 277.575 57.8451 277.408 57.9899C277.241 58.1347 277.104 58.3111 277.005 58.5089L275.549 61.4081C275.351 61.807 275.319 62.2681 275.459 62.6909C275.599 63.1137 275.9 63.4641 276.297 63.6659C276.696 63.8657 277.158 63.8991 277.581 63.7589C278.004 63.6186 278.355 63.3161 278.555 62.9177Z" fill="#EBEBEB"/>
<path d="M258.514 33.7L260.238 33.4595C260.457 33.4284 260.667 33.3544 260.858 33.2419C261.048 33.1294 261.214 32.9805 261.347 32.8037C261.48 32.6269 261.576 32.4257 261.631 32.2116C261.686 31.9974 261.698 31.7746 261.667 31.5557C261.636 31.3368 261.562 31.1262 261.45 30.9359C261.337 30.7456 261.188 30.5794 261.011 30.4466C260.835 30.3139 260.634 30.2172 260.419 30.1623C260.205 30.1073 259.982 30.095 259.764 30.1262L258.04 30.3733C257.821 30.4045 257.611 30.4784 257.42 30.5909C257.23 30.7035 257.064 30.8524 256.931 31.0291C256.798 31.2059 256.702 31.4071 256.647 31.6213C256.592 31.8354 256.579 32.0583 256.611 32.2771C256.642 32.4958 256.716 32.7061 256.828 32.8961C256.941 33.0861 257.09 33.2519 257.267 33.3842C257.444 33.5164 257.645 33.6123 257.859 33.6665C258.073 33.7207 258.296 33.7321 258.514 33.7Z" fill="#EBEBEB"/>
<path d="M244.795 56.4648L244.547 54.7347C244.483 54.2939 244.246 53.8966 243.889 53.6299C243.533 53.3632 243.085 53.2488 242.644 53.3119C242.425 53.343 242.214 53.4169 242.024 53.5295C241.834 53.642 241.667 53.7909 241.535 53.9677C241.402 54.1445 241.305 54.3457 241.25 54.5598C241.195 54.7739 241.183 54.9968 241.214 55.2157L241.461 56.9391C241.526 57.3804 241.762 57.7782 242.119 58.046C242.475 58.3137 242.923 58.4297 243.365 58.3686C243.584 58.3375 243.794 58.2636 243.985 58.151C244.175 58.0385 244.341 57.8896 244.474 57.7128C244.607 57.536 244.703 57.3348 244.758 57.1207C244.813 56.9066 244.826 56.6837 244.795 56.4648Z" fill="#EBEBEB"/>
<path d="M281.781 53.0649V50.8472C281.781 50.0503 281.135 49.4043 280.338 49.4043H279.864C279.067 49.4043 278.421 50.0503 278.421 50.8472V53.0649C278.421 53.8618 279.067 54.5078 279.864 54.5078H280.338C281.135 54.5078 281.781 53.8618 281.781 53.0649Z" fill="#EBEBEB"/>
<path d="M255.362 71.0817L257.046 71.5359C257.476 71.6503 257.934 71.5893 258.32 71.3665C258.705 71.1436 258.987 70.777 259.103 70.3469C259.161 70.1333 259.175 69.9104 259.147 69.6911C259.118 69.4717 259.047 69.2601 258.936 69.0684C258.826 68.8767 258.679 68.7086 258.503 68.5738C258.328 68.439 258.128 68.3401 257.914 68.2828L256.231 67.8352C256.017 67.7777 255.795 67.7629 255.576 67.7915C255.357 67.8202 255.146 67.8919 254.955 68.0023C254.764 68.1128 254.596 68.26 254.462 68.4353C254.328 68.6107 254.23 68.8109 254.173 69.0243C254.116 69.2374 254.101 69.4599 254.129 69.6788C254.158 69.8977 254.23 70.1088 254.34 70.3C254.451 70.4912 254.598 70.6586 254.773 70.7928C254.949 70.9269 255.149 71.0251 255.362 71.0817Z" fill="#EBEBEB"/>
<path d="M261.187 70.6331C271.904 70.6331 280.592 61.945 280.592 51.2277C280.592 40.5104 271.904 31.8223 261.187 31.8223C250.469 31.8223 241.781 40.5104 241.781 51.2277C241.781 61.945 250.469 70.6331 261.187 70.6331Z" fill="#EBEBEB"/>
<path d="M268.247 39.7188C268.296 40.6507 268.043 41.5735 267.526 42.3507C267.009 43.1529 266.281 43.7977 265.422 44.2144C264.537 44.6584 263.516 44.7445 262.569 44.4549C261.673 44.1721 260.905 43.5834 260.398 42.7915C261.091 43.3001 261.887 43.6492 262.73 43.8136C263.123 43.8837 263.526 43.8837 263.919 43.8136C264.312 43.7567 264.694 43.6348 265.048 43.4529C265.233 43.3641 265.414 43.266 265.589 43.159C265.762 43.0454 265.936 42.9385 266.096 42.8116C266.427 42.5624 266.729 42.2779 266.998 41.9632C267.557 41.3037 267.981 40.5412 268.247 39.7188Z" fill="#C7C7C7"/>
<path d="M261.275 40.8339C261.184 40.1869 261.326 39.5289 261.675 38.9768C262.022 38.3984 262.531 37.934 263.138 37.6408C263.446 37.4849 263.782 37.3916 264.126 37.3664C264.47 37.3411 264.815 37.3845 265.142 37.4939C265.776 37.7032 266.303 38.1513 266.612 38.743C266.12 38.44 265.573 38.2379 265.002 38.1485C264.488 38.0885 263.967 38.1814 263.506 38.4157C262.486 38.9151 261.691 39.7777 261.275 40.8339Z" fill="#C7C7C7"/>
<path d="M254.701 54.1602C254.94 54.7509 254.957 55.4084 254.748 56.0105C254.543 56.6362 254.151 57.1841 253.626 57.5803C253.358 57.7902 253.051 57.944 252.723 58.0324C252.394 58.1208 252.052 58.142 251.715 58.0947C251.081 58.0091 250.502 57.6898 250.092 57.1996C250.625 57.3764 251.187 57.4557 251.748 57.4334C252.236 57.394 252.701 57.2103 253.084 56.9056C253.502 56.5915 253.853 56.199 254.12 55.75C254.403 55.2572 254.6 54.7194 254.701 54.1602Z" fill="#C7C7C7"/>
<path d="M250.679 56.3643C250.466 55.9639 250.421 55.4956 250.552 55.0617C250.678 54.6079 250.95 54.2086 251.327 53.9261C251.522 53.7746 251.746 53.6654 251.985 53.6056C252.224 53.5458 252.473 53.5366 252.716 53.5787C252.943 53.6122 253.16 53.6932 253.354 53.8164C253.547 53.9395 253.712 54.1021 253.839 54.2935C253.465 54.2177 253.082 54.1997 252.703 54.24C252.396 54.2856 252.106 54.4098 251.861 54.6007C251.284 55.0423 250.868 55.6622 250.679 56.3643Z" fill="#C7C7C7"/>
<path d="M247.74 49.8457C247.912 50.0041 248.05 50.196 248.146 50.4097C248.241 50.6233 248.292 50.8542 248.295 51.0882C248.295 51.5882 248.098 52.0681 247.747 52.4242C247.564 52.6102 247.34 52.7511 247.093 52.8358C246.846 52.9204 246.583 52.9464 246.324 52.9118C245.862 52.8626 245.431 52.6576 245.102 52.3307C245.506 52.3406 245.911 52.3138 246.311 52.2505C246.626 52.1991 246.917 52.0522 247.146 51.8297C247.378 51.5955 247.546 51.3057 247.633 50.988C247.733 50.6159 247.769 50.2298 247.74 49.8457Z" fill="#C7C7C7"/>
<path d="M245.336 51.7302C245.196 51.6327 245.08 51.5043 244.996 51.355C244.913 51.2056 244.865 51.0392 244.855 50.8684C244.845 50.6815 244.875 50.4945 244.941 50.3196C245.008 50.1447 245.111 49.9857 245.243 49.8531C245.378 49.7143 245.544 49.6107 245.728 49.5513C245.912 49.4919 246.108 49.4786 246.298 49.5124C246.464 49.5361 246.623 49.5926 246.766 49.6787C246.91 49.7647 247.035 49.8785 247.133 50.0134C246.857 50.0508 246.582 50.1044 246.312 50.1737C246.135 50.2233 245.974 50.3176 245.844 50.4476C245.704 50.5874 245.593 50.753 245.517 50.9352C245.421 51.191 245.361 51.4583 245.336 51.7302Z" fill="#C7C7C7"/>
<path d="M274.328 44.0879C274.35 44.3207 274.324 44.5554 274.253 44.7781C274.182 45.0008 274.066 45.2068 273.914 45.3838C273.748 45.5798 273.544 45.74 273.314 45.8548C273.084 45.9697 272.834 46.0367 272.578 46.0518C272.318 46.0659 272.059 46.0209 271.819 45.9202C271.58 45.8196 271.366 45.6658 271.195 45.4707C270.882 45.1273 270.697 44.6857 270.674 44.2215C270.967 44.5001 271.287 44.7485 271.629 44.963C271.894 45.1363 272.208 45.2205 272.524 45.2034C272.854 45.1813 273.173 45.078 273.453 44.9029C273.786 44.6802 274.082 44.405 274.328 44.0879Z" fill="#C7C7C7"/>
<path d="M271.28 43.9073C271.238 43.7419 271.235 43.569 271.271 43.4021C271.307 43.2353 271.381 43.079 271.487 42.9454C271.603 42.798 271.748 42.6767 271.914 42.5892C272.08 42.5018 272.262 42.4501 272.449 42.4377C272.643 42.4261 272.837 42.4613 273.015 42.5403C273.193 42.6194 273.349 42.74 273.471 42.892C273.578 43.0199 273.659 43.1679 273.708 43.3273C273.757 43.4867 273.774 43.6544 273.758 43.8205C273.527 43.6649 273.286 43.5243 273.037 43.3996C272.873 43.3127 272.688 43.2733 272.502 43.2861C272.306 43.2994 272.113 43.3493 271.935 43.433C271.697 43.5619 271.476 43.7213 271.28 43.9073Z" fill="#C7C7C7"/>
<path d="M269.09 55.0821C270.058 52.9121 269.094 50.3735 266.938 49.4121C264.781 48.4506 262.249 49.4302 261.281 51.6002C260.314 53.7702 261.277 56.3087 263.434 57.2702C265.59 58.2317 268.123 57.252 269.09 55.0821Z" fill="#DBDBDB"/>
<path d="M267.199 51.3286C267.757 51.5785 268.249 51.9569 268.633 52.4329C269.017 52.9088 269.284 53.4689 269.41 54.0674C269.528 53.3574 269.465 52.6293 269.227 51.9501C268.989 51.2709 268.584 50.6627 268.049 50.1816C267.514 49.7005 266.866 49.362 266.165 49.1974C265.465 49.0329 264.734 49.0475 264.041 49.2401C263.347 49.4326 262.713 49.7968 262.198 50.299C261.683 50.8013 261.302 51.4253 261.092 52.1135C260.881 52.8016 260.847 53.5317 260.994 54.2364C261.14 54.941 261.462 55.5974 261.929 56.1448C261.612 55.218 261.66 54.2055 262.062 53.3125C262.482 52.3696 263.258 51.6313 264.221 51.2595C265.184 50.8876 266.255 50.9124 267.199 51.3286Z" fill="#C7C7C7"/>
<path d="M271.128 54.1074C271.153 55.2479 270.824 56.3681 270.186 57.3138C269.539 58.2815 268.647 59.0605 267.601 59.5717C266.528 60.1064 265.293 60.2184 264.141 59.8856C263.05 59.5372 262.109 58.8311 261.469 57.8816C262.305 58.5435 263.284 59.001 264.328 59.2176C264.578 59.2557 264.83 59.2802 265.083 59.2911C265.331 59.2946 265.579 59.2745 265.824 59.231C266.303 59.1531 266.767 59.0021 267.2 58.7834C267.427 58.6699 267.661 58.5429 267.868 58.416C268.075 58.2891 268.302 58.1355 268.496 57.9685C268.906 57.6543 269.28 57.2958 269.612 56.8997C270.305 56.0838 270.821 55.133 271.128 54.1074Z" fill="#C7C7C7"/>
<path d="M275.823 55.7033C276.132 55.7773 276.456 55.7579 276.754 55.6474C277.052 55.5369 277.31 55.3404 277.496 55.0828C277.682 54.8252 277.787 54.5181 277.799 54.2005C277.81 53.883 277.726 53.5693 277.559 53.2992C277.391 53.0292 277.147 52.815 276.858 52.6839C276.568 52.5528 276.247 52.5106 275.933 52.5628C275.62 52.6149 275.329 52.7591 275.097 52.9769C274.866 53.1947 274.705 53.4764 274.634 53.7861C274.537 54.198 274.609 54.6312 274.832 54.9907C275.054 55.3501 275.411 55.6064 275.823 55.7033Z" fill="#DBDBDB"/>
<path d="M276.779 53.2599C277.002 53.3121 277.209 53.4161 277.385 53.5635C277.56 53.7109 277.698 53.8975 277.788 54.1083C277.777 53.7532 277.651 53.4113 277.428 53.135C277.204 52.8587 276.897 52.6632 276.552 52.5786C276.137 52.4848 275.702 52.5595 275.343 52.7862C274.983 53.0129 274.729 53.3731 274.635 53.7876C274.565 54.0816 274.581 54.3893 274.68 54.6746C274.779 54.9598 274.958 55.2107 275.196 55.3975C275.011 55.081 274.956 54.7051 275.042 54.3488C275.128 53.9741 275.359 53.6489 275.685 53.4447C276.011 53.2405 276.404 53.174 276.779 53.2599Z" fill="#C7C7C7"/>
<path d="M278.408 53.9863C278.522 54.4022 278.494 54.8441 278.328 55.2422C278.167 55.6542 277.894 56.0129 277.54 56.2776C277.177 56.5592 276.72 56.6886 276.264 56.6383C275.831 56.5873 275.431 56.3836 275.135 56.0638C275.493 56.2276 275.883 56.3119 276.277 56.311C276.643 56.2959 276.996 56.1675 277.286 55.9436C277.594 55.7084 277.851 55.4141 278.044 55.078C278.237 54.742 278.36 54.3708 278.408 53.9863Z" fill="#C7C7C7"/>
<path d="M264.821 66.0911C265.272 66.1169 265.719 66.0085 266.108 65.7798C266.496 65.551 266.808 65.2122 267.004 64.8061C267.199 64.4001 267.27 63.945 267.207 63.4987C267.144 63.0523 266.95 62.6347 266.65 62.2986C266.349 61.9626 265.956 61.7232 265.519 61.6109C265.083 61.4986 264.623 61.5183 264.197 61.6676C263.772 61.8169 263.4 62.0891 263.13 62.4496C262.859 62.8101 262.702 63.2429 262.677 63.693C262.644 64.2951 262.852 64.8857 263.254 65.3353C263.656 65.7848 264.219 66.0566 264.821 66.0911Z" fill="#DBDBDB"/>
<path d="M265.557 62.4306C265.88 62.4484 266.194 62.5424 266.474 62.7049C266.754 62.8675 266.991 63.0939 267.166 63.3658C267.09 62.9915 266.921 62.6426 266.674 62.3513C266.427 62.06 266.11 61.8356 265.753 61.699C265.397 61.5624 265.011 61.518 264.633 61.5698C264.254 61.6217 263.895 61.7681 263.588 61.9956C263.282 62.2231 263.037 62.5242 262.878 62.8712C262.718 63.2183 262.649 63.5999 262.676 63.9809C262.703 64.3619 262.825 64.7299 263.032 65.0509C263.239 65.3719 263.524 65.6355 263.86 65.8173C263.604 65.5079 263.444 65.1309 263.399 64.7321C263.354 64.3334 263.426 63.9302 263.605 63.5714C263.785 63.2126 264.065 62.9138 264.412 62.7113C264.758 62.5087 265.156 62.4112 265.557 62.4306Z" fill="#C7C7C7"/>
<path d="M268.014 63.0449C268.233 63.6066 268.277 64.2212 268.141 64.8084C268.008 65.4093 267.714 65.9631 267.293 66.4116C266.868 66.8804 266.28 67.1695 265.65 67.2199C265.044 67.262 264.442 67.0997 263.939 66.759C264.477 66.9383 265.05 66.9842 265.609 66.8926C266.138 66.7926 266.62 66.5257 266.986 66.1311C267.362 65.7282 267.649 65.2501 267.827 64.7283C268.005 64.1861 268.069 63.6129 268.014 63.0449Z" fill="#C7C7C7"/>
<path d="M254.668 44.0867C253.646 45.6565 251.375 45.9905 249.605 44.8282C247.835 43.6659 247.22 41.4548 248.269 39.885C249.318 38.3152 251.562 37.9879 253.339 39.1435C255.116 40.2991 255.697 42.5436 254.668 44.0867Z" fill="#DBDBDB"/>
<path d="M249.03 41.4149C248.763 41.8384 248.607 42.3228 248.578 42.8229C248.549 43.3229 248.647 43.8222 248.863 44.274C248.284 43.7282 247.908 43.0018 247.796 42.214C247.685 41.4262 247.844 40.6238 248.249 39.9386C249.271 38.3688 251.542 38.0348 253.319 39.1972C253.911 39.5599 254.396 40.0746 254.722 40.6877C255.049 41.3008 255.206 41.9901 255.176 42.6841C254.917 41.8574 254.375 41.1481 253.646 40.6801C252.023 39.6581 249.959 39.9587 249.03 41.4149Z" fill="#C7C7C7"/>
<path d="M255.924 41.5215C256.185 41.9269 256.364 42.3798 256.449 42.8543C256.535 43.3289 256.527 43.8157 256.425 44.287C256.313 44.7733 256.096 45.2293 255.79 45.623C255.484 46.0268 255.108 46.3729 254.681 46.645C254.236 46.8942 253.749 47.0595 253.245 47.1327C252.758 47.1931 252.265 47.1796 251.782 47.0926C250.852 46.9254 249.973 46.5435 249.217 45.977C250.077 46.2269 250.962 46.3792 251.855 46.4313C252.685 46.4922 253.515 46.3137 254.247 45.9169C254.597 45.714 254.911 45.4544 255.175 45.1487C255.447 44.8407 255.66 44.4852 255.803 44.1C256.076 43.2672 256.117 42.376 255.924 41.5215Z" fill="#C7C7C7"/>
<path d="M280.671 283.459C284.798 268.064 275.663 252.238 260.268 248.112C244.873 243.985 229.047 253.12 224.921 268.515C220.794 283.91 229.929 299.736 245.324 303.862C260.72 307.989 276.545 298.854 280.671 283.459Z" fill="#455A64"/>
<path d="M278.382 267.126C274.855 266.767 271.293 266.966 267.828 267.714C261.722 268.936 247.474 275.603 239.524 276.765C228.349 278.409 224.16 274.648 222.584 272.296C223.079 268.633 224.277 265.099 226.111 261.889C228.369 263.86 235.79 269.718 252.891 264.915C261.709 262.43 267.313 256.004 269.217 253.826C273.488 257.285 276.67 261.903 278.382 267.126Z" fill="#37474F"/>
<path d="M277.802 286.693C275.374 292.821 270.914 297.929 265.17 301.161C259.425 304.393 252.744 305.554 246.246 304.449C247.069 302.787 248.089 301.23 249.285 299.813C254.523 293.801 263.607 291.957 267.154 291.596C271.176 291.287 274.953 289.547 277.802 286.693Z" fill="#37474F"/>
<path d="M279.464 271.637C279.511 271.897 279.545 272.151 279.578 272.412C279.611 272.672 279.638 272.886 279.665 273.12C279.718 273.654 279.765 274.188 279.785 274.716C279.805 275.244 279.825 275.678 279.825 276.146C279.825 276.326 279.825 276.5 279.825 276.68C279.825 276.86 279.825 277.081 279.825 277.275C279.825 277.468 279.825 277.675 279.825 277.876C279.825 278.076 279.792 278.343 279.772 278.584C279.752 278.824 279.732 279.052 279.705 279.252C279.678 279.452 279.652 279.653 279.631 279.853C279.571 280.294 279.505 280.722 279.424 281.156C278.275 282.632 276.178 283.828 272.517 284.703C267.066 286.039 259.632 285.237 249.298 288.083C242.972 289.874 237.258 293.365 232.778 298.176C228.209 294.391 224.929 289.278 223.393 283.547C224.855 282.432 230.173 279.72 246.445 280.982C251.56 281.441 256.708 281.374 261.809 280.782C273.833 279.205 277.982 274.255 279.358 271.69C279.392 271.671 279.428 271.653 279.464 271.637Z" fill="#37474F"/>
<path d="M239.411 264.207C239.659 265.463 238.376 266.766 236.552 267.113C234.729 267.46 233.059 266.739 232.812 265.483C232.564 264.227 233.854 262.931 235.671 262.577C237.488 262.223 239.144 262.958 239.411 264.207Z" fill="#8471FE"/>
<path d="M233.875 270.501C234.008 271.209 233.207 271.95 232.138 272.164C231.069 272.378 230.047 271.977 229.914 271.269C229.78 270.561 230.548 269.82 231.644 269.606C232.739 269.392 233.734 269.8 233.875 270.501Z" fill="#8471FE"/>
<path d="M272.236 286.954C272.443 288.023 271.315 289.138 269.725 289.452C268.135 289.766 266.665 289.138 266.458 288.07C266.251 287.001 267.373 285.879 268.97 285.571C270.566 285.264 272.029 285.905 272.236 286.954Z" fill="#8471FE"/>
<path d="M268.435 290.767C268.549 291.335 268.028 291.916 267.273 292.063C266.965 292.162 266.63 292.137 266.34 291.993C266.049 291.85 265.826 291.6 265.717 291.295C265.603 290.727 266.124 290.146 266.879 289.999C267.187 289.9 267.522 289.925 267.812 290.068C268.103 290.212 268.326 290.462 268.435 290.767Z" fill="#8471FE"/>
<path d="M266.226 289.057C266.293 289.397 265.959 289.725 265.478 289.845C264.997 289.965 264.556 289.731 264.489 289.391C264.422 289.05 264.756 288.723 265.237 288.602C265.718 288.482 266.159 288.716 266.226 289.057Z" fill="#8471FE"/>
<path d="M251.401 299.158C251.588 300.12 250.733 301.095 249.397 301.343C248.061 301.59 246.939 301.009 246.725 300.053C246.512 299.098 247.393 298.123 248.696 297.876C249.998 297.629 251.221 298.203 251.401 299.158Z" fill="#8471FE"/>
<path d="M249.758 295.543C249.828 295.764 249.83 296.001 249.762 296.222C249.695 296.444 249.562 296.64 249.38 296.784C249.199 296.928 248.978 297.014 248.747 297.03C248.515 297.045 248.285 296.99 248.086 296.872C247.886 296.753 247.728 296.577 247.631 296.366C247.535 296.156 247.504 295.921 247.545 295.692C247.585 295.464 247.693 295.253 247.856 295.088C248.019 294.923 248.228 294.811 248.455 294.768C248.592 294.733 248.734 294.725 248.873 294.745C249.013 294.765 249.147 294.813 249.268 294.885C249.389 294.957 249.494 295.052 249.579 295.165C249.663 295.278 249.724 295.406 249.758 295.543Z" fill="#8471FE"/>
<path d="M279.785 274.715C271.852 278.935 263.679 282.689 255.31 285.958C246.761 289.376 238.015 292.276 229.117 294.642C215.35 298.222 205.537 298.844 204.274 295.644C203.012 292.444 210.413 286.232 222.551 279.558C222.631 280.226 222.738 280.894 222.865 281.562L223.025 282.324C216.866 286.238 213.446 289.625 214.214 291.576C214.982 293.526 219.946 293.673 227.3 292.244C234.501 290.854 244 287.995 254.174 283.981C264.348 279.966 273.259 275.537 279.464 271.616C285.784 267.641 289.304 264.181 288.522 262.204C287.741 260.226 282.958 260.126 275.83 261.462C275.338 260.618 274.798 259.802 274.214 259.017C287.915 255.47 297.948 254.929 299.21 258.122C300.473 261.315 292.637 267.788 279.785 274.715Z" fill="#8471FE"/>
<path d="M279.799 277.267C272.019 281.336 264.034 285.001 255.878 288.249C247.78 291.523 239.52 294.377 231.128 296.8C212.331 302.144 198.356 303.206 196.539 298.683C194.722 294.161 205.35 285.457 222.344 276.432C222.344 276.873 222.344 277.321 222.398 277.768C208.296 285.544 199.686 292.919 201.235 296.8C202.785 300.681 214.348 300.053 230.166 295.818C247.408 291.044 264.062 284.358 279.819 275.885C294.114 268.042 302.858 260.581 301.288 256.673C299.719 252.765 288.483 253.406 272.979 257.495C272.691 257.154 272.391 256.827 272.083 256.493C290.54 251.302 304.201 250.327 305.991 254.796C307.781 259.265 297.02 268.169 279.799 277.267Z" fill="#37474F"/>
<path d="M129.725 139.384C126.768 138.927 123.897 138.026 121.208 136.712C108.276 130.433 106.887 115.216 105.417 99.1036C104.081 84.2607 102.658 68.9167 92.2774 59.6516C70.6676 40.3864 36.5996 54.4345 36.2589 54.5814L33.46 47.9816C40.5418 45.197 47.9726 43.3989 55.544 42.6376C72.244 40.9542 86.6194 44.9756 97.0402 54.2742C109.538 65.4164 111.142 82.9514 112.551 98.4223C113.887 113.072 115.043 125.723 124.335 130.232C143.814 139.685 156.693 116.078 157.227 115.069L163.56 118.409C160.671 123.531 156.927 128.122 152.491 131.983C145.337 138.081 137.608 140.566 129.725 139.384Z" fill="#FDC500"/>
<path opacity="0.1" d="M129.725 139.384C126.768 138.927 123.897 138.026 121.208 136.712C108.276 130.433 106.887 115.216 105.417 99.1036C104.081 84.2607 102.658 68.9167 92.2774 59.6516C70.6676 40.3864 36.5996 54.4345 36.2589 54.5814L33.46 47.9816C40.5418 45.197 47.9726 43.3989 55.544 42.6376C72.244 40.9542 86.6194 44.9756 97.0402 54.2742C109.538 65.4164 111.142 82.9514 112.551 98.4223C113.887 113.072 115.043 125.723 124.335 130.232C143.814 139.685 156.693 116.078 157.227 115.069L163.56 118.409C160.671 123.531 156.927 128.122 152.491 131.983C145.337 138.081 137.608 140.566 129.725 139.384Z" fill="#CA0000"/>
<path opacity="0.1" d="M163.56 118.429C160.672 123.55 156.928 128.139 152.491 131.996C148.189 135.657 143.673 138.008 139.044 139.05L130.981 132.263C146.693 134.367 156.753 115.931 157.234 115.049L163.56 118.429Z" fill="#CA0000"/>
<path d="M186.152 153.305C185.517 153.679 147.695 141.074 146.072 139.905C145.994 139.85 145.925 139.785 145.864 139.712C144.014 137.888 137.02 125.016 136.512 124.007C135.283 121.435 173.393 89.3176 180.48 86.3383C182.257 85.5902 205.537 93.9134 209.024 97.2935C210.52 98.7431 213.332 104.608 213.179 105.41C212.932 106.559 186.793 152.931 186.152 153.305Z" fill="#FDC500"/>
<path opacity="0.1" d="M186.152 153.305C185.517 153.679 147.695 141.074 146.072 139.905C145.994 139.85 145.925 139.785 145.864 139.712C144.014 137.888 137.02 125.016 136.512 124.007C135.283 121.435 173.393 89.3176 180.48 86.3383C182.257 85.5902 205.537 93.9134 209.024 97.2935C210.52 98.7431 213.332 104.608 213.179 105.41C212.932 106.559 186.793 152.931 186.152 153.305Z" fill="#A60202"/>
<path opacity="0.1" d="M186.152 153.305C185.518 153.679 147.696 141.074 146.072 139.905C145.995 139.85 145.925 139.784 145.865 139.711C152.706 131.795 184.85 94.6744 185.424 94.5808C185.999 94.4873 208.029 103.031 213.186 105.416C212.932 106.558 186.794 152.931 186.152 153.305Z" fill="#CA0000"/>
<path d="M131.249 230.213L101.108 245.397C95.3369 248.262 90.3269 250.887 87.862 252.484C87.849 252.479 87.8349 252.479 87.8219 252.484C86.8867 253.085 86.3256 253.533 86.2454 253.82V253.873C85.9382 256.171 107.535 302.992 108.837 304.368C110.14 305.744 114.181 302.143 114.789 299.658C115.397 297.173 115.143 275.543 115.143 275.543L145.103 260.093L131.249 230.213Z" fill="#455A64"/>
<path d="M81.6631 255.844L82.7386 258.282C83.019 258.18 83.3152 258.128 83.6136 258.128C84.1941 258.13 84.7575 258.324 85.2145 258.682C85.6716 259.04 85.996 259.54 86.1365 260.103C86.2769 260.667 86.2252 261.261 85.9896 261.791C85.754 262.321 85.3481 262.758 84.8361 263.032L85.8047 265.249C86.0948 265.139 86.4027 265.082 86.7132 265.082C87.2962 265.082 87.8624 265.278 88.3208 265.638C88.7791 265.998 89.1029 266.503 89.2402 267.069C89.3774 267.636 89.3201 268.232 89.0774 268.762C88.8347 269.292 88.4208 269.726 87.9022 269.992L88.8775 272.217C89.1717 272.095 89.4875 272.033 89.806 272.036C90.4952 272.036 91.1561 272.31 91.6434 272.797C92.1308 273.285 92.4045 273.946 92.4045 274.635C92.4077 275.118 92.2747 275.592 92.0207 276.004C91.7667 276.415 91.402 276.746 90.9683 276.959L91.9436 279.17C92.2528 279.052 92.581 278.991 92.9122 278.99C93.5023 278.988 94.0755 279.187 94.5376 279.554C94.9996 279.921 95.3229 280.435 95.4543 281.01C95.5857 281.585 95.5173 282.188 95.2605 282.72C95.0036 283.251 94.5736 283.679 94.0411 283.933L95.0164 286.144C95.3294 286.013 95.6655 285.945 96.005 285.944C96.598 285.942 97.1739 286.142 97.6373 286.512C98.1006 286.882 98.4234 287.4 98.5521 287.978C98.6808 288.557 98.6077 289.163 98.3449 289.694C98.082 290.226 97.6453 290.651 97.1072 290.9L98.0825 293.112C98.4013 292.967 98.7479 292.894 99.0979 292.898C99.6907 292.9 100.265 293.105 100.726 293.478C101.186 293.851 101.506 294.37 101.632 294.949C101.759 295.528 101.683 296.133 101.419 296.663C101.155 297.194 100.718 297.619 100.18 297.868L101.155 300.085C101.483 299.93 101.841 299.85 102.204 299.852C102.799 299.855 103.375 300.062 103.836 300.439C104.298 300.815 104.616 301.338 104.738 301.92C104.861 302.503 104.78 303.11 104.51 303.64C104.24 304.17 103.796 304.592 103.253 304.835L104.168 306.919L108.844 304.387L86.2456 253.84L81.6631 255.844Z" fill="#37474F"/>
<path d="M96.5054 249.284C97.2824 250.587 97.7798 252.037 97.9661 253.543C98.1524 255.048 98.0235 256.576 97.5876 258.028C96.7993 260.406 95.2362 262.945 92.7245 264.241C92.651 264.281 92.5776 264.147 92.6444 264.1C96.9196 260.814 98.6564 254.288 96.3584 249.364C96.3541 249.346 96.356 249.326 96.3637 249.309C96.3715 249.292 96.3847 249.278 96.4014 249.268C96.4181 249.259 96.4373 249.256 96.4561 249.259C96.4749 249.262 96.4922 249.271 96.5054 249.284Z" fill="#37474F"/>
<path d="M102.685 246.985C104.609 250.171 106.272 253.518 107.896 256.865C109.519 260.212 111.089 263.505 112.658 266.838C113.553 268.749 114.449 270.666 115.237 272.623C115.249 272.649 115.251 272.678 115.242 272.705C115.232 272.732 115.212 272.754 115.187 272.767C115.161 272.779 115.131 272.781 115.105 272.771C115.078 272.762 115.056 272.742 115.043 272.716C113.166 269.503 111.523 266.143 109.839 262.83C108.156 259.517 106.499 256.25 104.936 252.924C104.021 251.013 103.166 249.089 102.398 247.119C102.387 247.082 102.39 247.043 102.406 247.008C102.422 246.973 102.45 246.945 102.484 246.929C102.519 246.913 102.558 246.91 102.595 246.92C102.632 246.93 102.664 246.953 102.685 246.985Z" fill="#37474F"/>
<path d="M105.463 246.044C107.394 249.23 109.051 252.577 110.674 255.93C112.297 259.283 113.867 262.57 115.437 265.903C116.332 267.814 117.227 269.731 118.015 271.682C118.021 271.694 118.025 271.708 118.026 271.722C118.026 271.736 118.024 271.75 118.02 271.764C118.015 271.777 118.008 271.789 117.999 271.8C117.989 271.81 117.978 271.819 117.965 271.825C117.952 271.831 117.939 271.835 117.924 271.836C117.91 271.837 117.896 271.835 117.883 271.83C117.87 271.825 117.857 271.818 117.847 271.809C117.836 271.799 117.828 271.788 117.821 271.775C115.944 268.562 114.301 265.202 112.618 261.889C110.934 258.575 109.278 255.309 107.715 251.982C106.806 250.072 105.944 248.148 105.176 246.177C105.166 246.141 105.169 246.101 105.184 246.066C105.2 246.032 105.228 246.004 105.263 245.988C105.297 245.971 105.337 245.968 105.373 245.979C105.41 245.989 105.442 246.012 105.463 246.044Z" fill="#37474F"/>
<path d="M110.093 240.866L125.677 270.098C125.677 270.098 130.353 271.107 136.151 268.421C148.984 262.496 170.467 248.709 181.208 238.121C192.31 227.172 203.205 150.432 203.205 150.432L177.02 135.322C177.02 135.322 163.419 207.687 158.423 212.91C153.914 217.627 127.768 227.947 115.443 234.4C112.878 235.767 110.956 238.091 110.093 240.866Z" fill="#FDC500"/>
<path d="M115.704 240.52C117.755 243.633 119.545 246.906 121.302 250.192C123.059 253.479 124.749 256.699 126.445 259.972C127.421 261.842 128.389 263.726 129.258 265.643C129.265 265.668 129.263 265.694 129.253 265.718C129.243 265.742 129.226 265.761 129.203 265.774C129.181 265.786 129.155 265.79 129.13 265.786C129.104 265.782 129.081 265.769 129.064 265.75C127.06 262.611 125.29 259.317 123.473 256.071C121.656 252.824 119.899 249.625 118.182 246.365C117.2 244.494 116.265 242.604 115.423 240.667C115.411 240.631 115.412 240.591 115.427 240.556C115.441 240.52 115.467 240.491 115.501 240.473C115.535 240.456 115.574 240.451 115.611 240.459C115.648 240.468 115.681 240.489 115.704 240.52Z" fill="#8471FE"/>
<path opacity="0.1" d="M168.096 179.13L203.206 150.406L177.02 135.322C177.02 135.322 172.745 158.181 168.096 179.13Z" fill="#CA0000"/>
<path opacity="0.1" d="M174.215 226.585C173.286 226.711 172.34 226.624 171.449 226.331C170.555 226.059 169.693 225.692 168.878 225.236C167.273 224.322 165.797 223.199 164.489 221.896C163.821 221.228 163.233 220.56 162.638 219.892C162.044 219.224 161.503 218.469 161.002 217.714C160.501 216.959 160.027 216.185 159.592 215.396C159.158 214.608 158.771 213.773 158.443 212.918C159.143 213.498 159.812 214.113 160.447 214.762C161.075 215.396 161.73 216.004 162.324 216.645C162.919 217.287 163.567 217.888 164.161 218.529L165.09 219.451C165.397 219.758 165.684 220.086 166.005 220.373C167.241 221.589 168.503 222.751 169.826 223.84C171.127 224.992 172.61 225.919 174.215 226.585Z" fill="#CA0000"/>
<path d="M187.517 234.071C190.424 227.945 189.258 221.307 184.912 219.244C180.566 217.182 174.686 220.476 171.778 226.601C168.871 232.727 170.037 239.366 174.383 241.428C178.729 243.491 184.609 240.197 187.517 234.071Z" fill="#FDC500"/>
<path opacity="0.1" d="M187.517 234.071C190.424 227.945 189.258 221.307 184.912 219.244C180.566 217.182 174.686 220.476 171.778 226.601C168.871 232.727 170.037 239.366 174.383 241.428C178.729 243.491 184.609 240.197 187.517 234.071Z" fill="#CA0000"/>
<path d="M125.43 164.267L117.467 131.475C115.978 125.203 114.562 119.725 113.566 116.966C113.566 116.966 113.566 116.966 113.566 116.919C113.402 116.247 113.087 115.621 112.644 115.089C112.644 115.089 112.644 115.089 112.598 115.089C110.433 114.267 59.9392 124.695 58.3026 125.657C56.666 126.619 59.2578 131.355 61.5424 132.517C63.8269 133.679 84.9224 138.322 84.9224 138.322L93.1922 171.007L125.43 164.267Z" fill="#455A64"/>
<path d="M111.71 110.172L109.091 110.666C109.131 110.962 109.117 111.263 109.051 111.555C108.919 112.121 108.601 112.628 108.148 112.993C107.695 113.358 107.133 113.561 106.551 113.569C105.97 113.578 105.402 113.391 104.938 113.04C104.475 112.688 104.142 112.191 103.994 111.628L101.616 112.076C101.657 112.383 101.641 112.696 101.569 112.998C101.437 113.565 101.118 114.071 100.664 114.436C100.209 114.8 99.6452 115.001 99.0627 115.006C98.4802 115.012 97.9128 114.821 97.4515 114.465C96.9903 114.11 96.662 113.609 96.5193 113.044L94.1345 113.485C94.1943 113.799 94.1943 114.12 94.1345 114.434C93.9772 115.106 93.5597 115.688 92.9735 116.052C92.3874 116.417 91.6806 116.534 91.0083 116.378C90.5379 116.271 90.1071 116.035 89.7655 115.694C89.4239 115.354 89.1855 114.924 89.0778 114.454L86.6997 114.901C86.7437 115.229 86.7279 115.561 86.6529 115.883C86.5206 116.456 86.1982 116.966 85.7385 117.332C85.2787 117.697 84.7086 117.896 84.1212 117.896C83.5338 117.896 82.9637 117.697 82.5039 117.332C82.0442 116.966 81.7218 116.456 81.5895 115.883L79.2114 116.331C79.2807 116.752 79.2451 117.184 79.1076 117.589C78.9702 117.993 78.7352 118.357 78.4235 118.649C78.1117 118.941 77.7328 119.152 77.3203 119.262C76.9078 119.373 76.4744 119.38 76.0584 119.283C75.5756 119.17 75.135 118.921 74.7884 118.566C74.4418 118.211 74.2034 117.765 74.1012 117.279L71.7298 117.734C71.8031 118.075 71.8031 118.428 71.7298 118.769C71.5947 119.348 71.2657 119.863 70.7974 120.229C70.329 120.596 69.7495 120.791 69.1551 120.782C68.5607 120.773 67.9871 120.562 67.5295 120.182C67.0719 119.803 66.7579 119.278 66.6396 118.696L64.2615 119.143C64.3416 119.497 64.3416 119.865 64.2615 120.219C64.1291 120.802 63.7992 121.323 63.3275 121.691C62.8558 122.06 62.2714 122.254 61.6729 122.242C61.0744 122.229 60.4986 122.01 60.0428 121.622C59.587 121.234 59.2792 120.701 59.1714 120.112L56.9336 120.533L58.3431 125.629L112.692 115.095L111.71 110.172Z" fill="#37474F"/>
<path d="M114.722 126.111C113.277 126.573 111.751 126.729 110.242 126.569C108.733 126.409 107.274 125.937 105.958 125.183C103.82 123.847 101.703 121.783 101.008 119.037C101.008 118.964 101.135 118.917 101.168 118.997C103.399 123.9 109.364 127.053 114.675 125.951C114.694 125.951 114.712 125.957 114.727 125.968C114.743 125.979 114.754 125.995 114.759 126.013C114.764 126.032 114.763 126.051 114.757 126.069C114.75 126.086 114.738 126.101 114.722 126.111Z" fill="#37474F"/>
<path d="M115.564 132.651C112.023 133.807 108.389 134.655 104.755 135.483C101.121 136.312 97.5676 137.093 93.9604 137.861C91.903 138.302 89.8322 138.743 87.748 139.071C87.7197 139.077 87.69 139.071 87.6656 139.056C87.6412 139.04 87.624 139.015 87.6178 138.987C87.6116 138.959 87.6169 138.929 87.6325 138.905C87.6482 138.88 87.6729 138.863 87.7013 138.857C91.255 137.755 94.8956 136.92 98.5095 136.024C102.123 135.129 105.67 134.281 109.271 133.493C111.335 133.038 113.399 132.638 115.497 132.344C115.534 132.343 115.57 132.355 115.599 132.378C115.628 132.401 115.648 132.434 115.656 132.47C115.664 132.506 115.659 132.544 115.642 132.577C115.625 132.61 115.598 132.636 115.564 132.651Z" fill="#37474F"/>
<path d="M115.851 135.602C112.304 136.758 108.67 137.606 105.043 138.435C101.416 139.263 97.8488 140.044 94.2483 140.813C92.1841 141.254 90.1133 141.694 88.0292 142.022C88.0008 142.027 87.9715 142.021 87.9477 142.005C87.9239 141.988 87.9076 141.963 87.9023 141.935C87.8969 141.907 87.9031 141.877 87.9194 141.853C87.9357 141.83 87.9608 141.813 87.9891 141.808C91.5429 140.706 95.1835 139.871 98.7907 138.982C102.398 138.094 105.958 137.239 109.552 136.444C111.623 135.996 113.687 135.596 115.785 135.295C115.822 135.294 115.858 135.307 115.887 135.33C115.916 135.353 115.936 135.385 115.944 135.421C115.952 135.457 115.947 135.495 115.93 135.528C115.913 135.561 115.885 135.587 115.851 135.602Z" fill="#37474F"/>
<path d="M203.245 150.453C203.245 150.453 195.991 158.402 189.832 164.648C185.336 169.217 181.181 173.105 180.079 173.125C178.83 173.125 173.145 172.523 171.261 172.276C171.261 172.276 143.245 203.098 128.863 210.553C123.94 213.104 108.476 210.486 104 202.924C96.7393 190.653 89.3712 172.109 86.6792 160.446C85.4768 155.242 86.7126 149.618 86.7126 149.618L119.839 140.466C119.839 140.466 123.419 146.431 124.515 150.179C126.131 155.837 127.581 173.165 127.581 173.165C136.539 166.765 145.263 154.942 145.263 154.942C145.263 154.942 147.841 141.208 163.967 127.721L203.245 150.453Z" fill="#FDC500"/>
<path d="M180.046 172.958C175.852 172.265 171.605 171.938 167.354 171.982C167.324 171.989 167.298 172.006 167.279 172.029C167.26 172.053 167.25 172.082 167.25 172.113C167.25 172.143 167.26 172.172 167.279 172.196C167.298 172.22 167.324 172.236 167.354 172.243C171.556 172.691 175.791 173.245 180.006 173.465C180.039 173.468 180.073 173.464 180.105 173.454C180.136 173.443 180.166 173.427 180.191 173.405C180.217 173.384 180.238 173.357 180.253 173.327C180.268 173.297 180.277 173.265 180.28 173.232C180.282 173.198 180.278 173.165 180.268 173.133C180.258 173.101 180.241 173.072 180.22 173.046C180.198 173.021 180.171 173 180.142 172.985C180.112 172.97 180.079 172.96 180.046 172.958Z" fill="#8471FE"/>
<path d="M194.187 150.346C194.24 150.219 194.047 150.079 193.98 150.206C191.852 153.983 189.536 157.651 187.039 161.195C185.904 162.851 179.077 171.689 176.452 169.291C176.011 168.883 176.037 168.242 176.385 167.434C176.806 166.465 177.781 165.537 178.449 164.708C179.918 162.878 181.328 161.008 182.644 159.07C185.133 155.484 187.244 151.649 188.943 147.627C188.951 147.602 188.95 147.574 188.939 147.549C188.928 147.525 188.909 147.504 188.885 147.492C188.861 147.48 188.834 147.477 188.808 147.484C188.782 147.49 188.759 147.506 188.743 147.527C185.876 152.837 182.612 157.922 178.977 162.738C177.186 165.029 173.8 168.082 176.204 169.952C178.609 171.822 183.933 166.498 185.236 164.955C188.839 160.493 191.848 155.583 194.187 150.346Z" fill="#8471FE"/>
<path d="M176.398 169.591C175.763 170.09 175.161 170.63 174.595 171.207C174.107 171.624 173.699 172.126 173.392 172.69C173.346 172.804 173.479 172.89 173.579 172.85C174.17 172.533 174.708 172.128 175.176 171.648C175.757 171.16 176.345 170.686 176.906 170.178C176.945 170.145 176.976 170.104 176.999 170.059C177.022 170.013 177.036 169.964 177.04 169.913C177.043 169.862 177.037 169.811 177.021 169.762C177.005 169.714 176.98 169.669 176.946 169.631C176.913 169.592 176.872 169.56 176.827 169.537C176.781 169.515 176.731 169.501 176.681 169.497C176.63 169.493 176.579 169.5 176.53 169.516C176.482 169.532 176.437 169.557 176.398 169.591Z" fill="#8471FE"/>
<path d="M91.3556 153.687C94.8158 152.491 98.3763 151.589 101.937 150.721C105.497 149.852 108.977 149.024 112.511 148.209C114.515 147.742 116.559 147.274 118.603 146.92C118.629 146.92 118.653 146.928 118.673 146.944C118.693 146.96 118.707 146.981 118.713 147.006C118.72 147.031 118.717 147.056 118.707 147.08C118.697 147.103 118.679 147.122 118.657 147.134C115.176 148.283 111.609 149.138 108.076 150.1C104.542 151.062 101.062 151.93 97.5279 152.772C95.5239 153.253 93.4799 153.68 91.4224 154.001C91.3808 154.01 91.3373 154.002 91.3016 153.978C91.2659 153.955 91.2409 153.919 91.232 153.877C91.2232 153.836 91.2312 153.792 91.2544 153.756C91.2776 153.721 91.314 153.696 91.3556 153.687Z" fill="#8471FE"/>
<path opacity="0.1" d="M122.337 198.528C121.745 197.55 121.401 196.443 121.335 195.302C121.268 194.74 121.268 194.179 121.235 193.612C121.202 193.044 121.235 192.489 121.288 191.928C121.453 189.704 121.829 187.501 122.411 185.348C122.976 183.21 123.691 181.114 124.548 179.076C125.385 177.025 126.39 175.048 127.554 173.164C127.214 175.368 126.673 177.493 126.145 179.604C125.617 181.714 125.049 183.805 124.488 185.889C123.927 187.974 123.393 190.058 122.945 192.155C122.738 193.197 122.518 194.253 122.391 195.308C122.192 196.371 122.174 197.459 122.337 198.528Z" fill="#CA0000"/>
<path d="M121.275 213.746C128.056 213.746 133.553 209.846 133.553 205.035C133.553 200.224 128.056 196.324 121.275 196.324C114.494 196.324 108.997 200.224 108.997 205.035C108.997 209.846 114.494 213.746 121.275 213.746Z" fill="#FDC500"/>
<path opacity="0.1" d="M121.275 213.746C128.056 213.746 133.553 209.846 133.553 205.035C133.553 200.224 128.056 196.324 121.275 196.324C114.494 196.324 108.997 200.224 108.997 205.035C108.997 209.846 114.494 213.746 121.275 213.746Z" fill="#CA0000"/>
<path d="M202.357 110.686C221.996 118.502 237.714 121.662 243.927 119.851C249.364 118.261 264.875 111.588 272.424 104.354C274.702 102.176 264.408 87.3063 261.255 88.4887C258.102 89.6711 242.297 98.5555 238.169 100.018C235.824 100.847 210.266 101.802 204.455 101.902C194.755 102.076 193.64 107.219 202.357 110.686Z" fill="#F7A9A0"/>
<path d="M282.624 94.4469C281.909 95.5424 282.477 95.9298 284.682 95.175C286.886 94.4201 294.949 89.5905 296.398 92.5497C297.848 95.509 286.378 102.162 282.604 103.131C278.83 104.099 272.424 104.353 272.424 104.353C274.401 102.61 278.79 97.9205 282.624 94.4469Z" fill="#455A64"/>
<path d="M261.254 88.4885C266.999 83.8125 273.859 77.5667 282.142 76.2708C283.054 76.1065 283.995 76.2523 284.814 76.6849C288.515 76.0169 289.931 77.5934 289.931 77.5934C293.565 78.0477 294.794 79.8379 294.794 79.8379C294.794 79.8379 299.143 79.1298 300.011 81.6883C300.993 84.5607 294.667 84.9949 291.361 87.3529C283.752 92.757 274.454 102.577 272.409 104.353L261.254 88.4885Z" fill="#455A64"/>
<path d="M279.425 87.413C281.633 85.8061 283.947 84.3509 286.352 83.0576C289.071 81.807 291.88 80.762 294.756 79.9314C294.771 79.9243 294.784 79.9121 294.791 79.8968C294.799 79.8815 294.801 79.864 294.797 79.8475C294.793 79.8309 294.783 79.8162 294.77 79.8059C294.756 79.7957 294.739 79.7904 294.722 79.7911C289.01 80.8461 283.695 83.4477 279.358 87.3128C279.225 87.3996 279.305 87.5065 279.425 87.413Z" fill="#8471FE"/>
<path d="M275.49 83.2994C277.781 81.9166 281.829 79.5118 289.965 77.6815V77.6348C284.697 78.0991 279.663 80.0238 275.429 83.1925C275.289 83.286 275.336 83.3929 275.49 83.2994Z" fill="#8471FE"/>
<path d="M273.418 81.047C277.426 78.8426 280.199 77.9608 284.814 76.7116V76.6582C279.417 77.5266 277.56 78.4551 273.331 80.92C273.211 81.0002 273.265 81.1338 273.418 81.047Z" fill="#8471FE"/>
<path d="M261.255 88.4883L272.424 104.353C271.917 106.478 270.814 108.413 269.244 109.931C266.625 112.463 246.211 120.92 239.892 121.013C233.573 121.107 208.883 114.894 200.039 110.419C191.195 105.943 195.931 102.069 202.41 101.628C208.89 101.187 236.004 99.6239 237.561 99.2431C239.117 98.8623 251.976 90.7461 254.701 89.33C257.427 87.9138 261.255 88.4883 261.255 88.4883Z" fill="#FDC500"/>
<path opacity="0.1" d="M200.039 110.42C206.446 113.66 221.155 117.808 231.182 119.826L201.676 101.689C195.591 102.371 191.536 106.118 200.039 110.42Z" fill="#CA0000"/>
<path opacity="0.1" d="M257.045 90.332C258.729 92.4896 260.299 94.7341 261.855 97.012C263.412 99.2899 264.921 101.474 266.444 103.692C267.313 104.968 268.188 106.257 269.009 107.566C269.069 107.653 269.009 107.7 268.929 107.62C267.266 105.455 265.703 103.198 264.12 100.94C262.536 98.682 261 96.511 259.444 94.2598C258.569 92.9773 257.713 91.688 256.899 90.3654C256.845 90.2852 256.959 90.2184 257.045 90.332Z" fill="#CA0000"/>
<path d="M203.206 150.432L163.928 127.72C163.473 125.408 163.94 123.011 165.23 121.04C170.22 112.884 182.171 99.4567 192.845 94.5135C200.541 90.9598 206.593 93.9725 208.877 99.6438C209.458 101.08 215.11 119.744 214.408 126.397C213.667 133.438 210.247 142.162 207.174 146.945C206.161 148.418 204.798 149.617 203.206 150.432Z" fill="#FDC500"/>
<path d="M202.891 152.825C203.473 152.912 205.209 149.705 205.049 149.238C204.889 148.77 164.081 125.404 163.78 125.35C163.479 125.297 161.495 129.238 161.856 129.525C162.217 129.812 202.117 152.705 202.891 152.825Z" fill="#FDC500"/>
<path opacity="0.1" d="M202.891 152.825C203.473 152.912 205.209 149.705 205.049 149.238C204.889 148.77 164.081 125.404 163.78 125.35C163.479 125.297 161.495 129.238 161.856 129.525C162.217 129.812 202.117 152.705 202.891 152.825Z" fill="#CA0000"/>
<path d="M194.949 126.485L214.729 130.647L215.17 113.119L195.39 108.957L194.949 126.485Z" fill="#FDC500"/>
<path opacity="0.2" d="M194.949 126.485L214.729 130.647L215.17 113.119L195.39 108.957L194.949 126.485Z" fill="#CA0000"/>
<path opacity="0.1" d="M194.949 126.485L197.454 127.013L197.895 109.485L195.39 108.957L194.949 126.485Z" fill="#CA0000"/>
<path opacity="0.1" d="M211.676 116.498C211.665 116.799 211.757 117.095 211.935 117.337C212.113 117.579 212.368 117.755 212.658 117.834C212.79 117.86 212.925 117.855 213.055 117.821C213.184 117.786 213.304 117.722 213.404 117.633C213.505 117.545 213.584 117.434 213.635 117.311C213.687 117.187 213.709 117.053 213.7 116.919C213.711 116.617 213.618 116.321 213.439 116.079C213.259 115.836 213.003 115.661 212.712 115.583C212.58 115.557 212.445 115.562 212.316 115.596C212.187 115.631 212.067 115.696 211.967 115.784C211.867 115.873 211.788 115.983 211.738 116.107C211.688 116.231 211.666 116.365 211.676 116.498Z" fill="#CA0000"/>
<path opacity="0.1" d="M211.582 120.24C211.572 120.541 211.663 120.836 211.841 121.079C212.019 121.321 212.274 121.496 212.564 121.576C212.696 121.603 212.832 121.599 212.962 121.565C213.092 121.531 213.213 121.467 213.314 121.378C213.415 121.289 213.494 121.178 213.545 121.054C213.595 120.929 213.617 120.795 213.607 120.661C213.617 120.36 213.526 120.064 213.348 119.822C213.17 119.579 212.915 119.404 212.625 119.325C212.493 119.297 212.357 119.301 212.227 119.335C212.097 119.37 211.976 119.434 211.875 119.523C211.774 119.611 211.695 119.722 211.645 119.847C211.594 119.971 211.572 120.106 211.582 120.24Z" fill="#CA0000"/>
<path opacity="0.1" d="M211.489 123.913C211.479 124.213 211.57 124.509 211.748 124.751C211.926 124.994 212.181 125.169 212.471 125.249C212.603 125.275 212.74 125.27 212.87 125.235C212.999 125.199 213.12 125.135 213.22 125.046C213.321 124.956 213.4 124.845 213.451 124.72C213.502 124.596 213.523 124.461 213.513 124.327C213.524 124.026 213.433 123.731 213.255 123.488C213.076 123.246 212.822 123.07 212.531 122.991C212.399 122.963 212.262 122.967 212.132 123.002C212.001 123.036 211.881 123.101 211.779 123.191C211.678 123.28 211.599 123.392 211.549 123.517C211.499 123.643 211.478 123.778 211.489 123.913Z" fill="#CA0000"/>
<path opacity="0.1" d="M208.523 115.838C208.513 116.139 208.604 116.434 208.782 116.677C208.96 116.919 209.215 117.094 209.505 117.174C209.637 117.201 209.773 117.197 209.903 117.163C210.033 117.129 210.153 117.065 210.254 116.976C210.355 116.887 210.434 116.776 210.485 116.652C210.536 116.527 210.557 116.393 210.547 116.259C210.558 115.958 210.467 115.662 210.289 115.42C210.11 115.177 209.856 115.002 209.565 114.923C209.434 114.897 209.298 114.902 209.169 114.936C209.039 114.971 208.92 115.035 208.819 115.124C208.718 115.212 208.639 115.323 208.588 115.446C208.537 115.57 208.515 115.704 208.523 115.838Z" fill="#CA0000"/>
<path opacity="0.1" d="M208.416 119.572C208.406 119.873 208.497 120.168 208.675 120.411C208.853 120.653 209.108 120.828 209.398 120.908C209.53 120.935 209.666 120.931 209.796 120.897C209.926 120.863 210.047 120.799 210.148 120.71C210.249 120.621 210.328 120.51 210.378 120.386C210.429 120.261 210.451 120.127 210.441 119.993C210.451 119.692 210.36 119.396 210.182 119.154C210.004 118.911 209.749 118.736 209.459 118.657C209.327 118.629 209.191 118.633 209.061 118.667C208.931 118.702 208.81 118.766 208.709 118.855C208.608 118.943 208.529 119.054 208.479 119.179C208.428 119.303 208.406 119.438 208.416 119.572Z" fill="#CA0000"/>
<path opacity="0.1" d="M208.336 123.252C208.325 123.554 208.418 123.85 208.597 124.092C208.777 124.335 209.033 124.51 209.324 124.588C209.456 124.615 209.592 124.612 209.722 124.578C209.851 124.543 209.971 124.479 210.072 124.39C210.172 124.301 210.251 124.19 210.301 124.066C210.351 123.941 210.371 123.807 210.36 123.673C210.371 123.372 210.279 123.076 210.101 122.834C209.923 122.592 209.668 122.416 209.378 122.337C209.246 122.311 209.111 122.316 208.981 122.35C208.852 122.385 208.732 122.449 208.632 122.538C208.531 122.626 208.452 122.737 208.401 122.86C208.349 122.984 208.327 123.118 208.336 123.252Z" fill="#CA0000"/>
<path opacity="0.1" d="M205.369 115.175C205.359 115.477 205.451 115.773 205.63 116.016C205.81 116.258 206.066 116.433 206.358 116.511C206.489 116.536 206.625 116.53 206.755 116.494C206.884 116.459 207.003 116.394 207.104 116.305C207.204 116.216 207.283 116.105 207.334 115.981C207.386 115.857 207.408 115.723 207.4 115.589C207.41 115.288 207.318 114.991 207.138 114.749C206.959 114.506 206.702 114.332 206.411 114.253C206.279 114.229 206.143 114.234 206.014 114.27C205.885 114.306 205.765 114.371 205.665 114.46C205.564 114.549 205.485 114.659 205.434 114.783C205.383 114.907 205.361 115.041 205.369 115.175Z" fill="#CA0000"/>
<path opacity="0.1" d="M205.284 118.903C205.273 119.203 205.364 119.499 205.542 119.741C205.72 119.984 205.975 120.159 206.266 120.239C206.397 120.264 206.533 120.26 206.662 120.225C206.791 120.19 206.911 120.126 207.012 120.037C207.112 119.949 207.192 119.839 207.243 119.715C207.294 119.591 207.316 119.457 207.308 119.323C207.318 119.022 207.226 118.726 207.046 118.483C206.867 118.24 206.61 118.066 206.319 117.987C206.188 117.961 206.052 117.966 205.923 118.001C205.794 118.036 205.675 118.1 205.575 118.188C205.474 118.277 205.396 118.388 205.345 118.511C205.295 118.635 205.274 118.769 205.284 118.903Z" fill="#CA0000"/>
<path opacity="0.1" d="M205.189 122.59C205.178 122.89 205.269 123.186 205.447 123.428C205.625 123.671 205.88 123.846 206.17 123.926C206.302 123.952 206.438 123.947 206.567 123.912C206.696 123.877 206.816 123.813 206.917 123.725C207.017 123.636 207.096 123.526 207.148 123.402C207.199 123.278 207.221 123.144 207.213 123.011C207.223 122.709 207.131 122.413 206.951 122.17C206.772 121.928 206.515 121.753 206.224 121.675C206.093 121.647 205.957 121.651 205.827 121.685C205.697 121.719 205.577 121.783 205.477 121.872C205.376 121.961 205.298 122.072 205.248 122.197C205.198 122.321 205.177 122.456 205.189 122.59Z" fill="#CA0000"/>
<path d="M211.976 64.0868C212.724 64.3073 216.124 64.4609 217.861 67.8543C219.511 71.0607 218.843 79.8783 218.99 81.8823C219.137 83.8863 221.582 84.5543 221.815 86.8456C222.016 88.8496 220.52 89.3038 220.152 90.6732C219.872 91.7353 220.693 93.5323 219.451 94.9751C218.322 96.3111 216.779 95.7233 215.77 96.0239C214.761 96.3245 213.766 98.4354 211.936 98.7493C210.105 99.0633 208.776 97.1996 207.834 97.0593C206.892 96.919 205.329 99.6111 202.317 98.8696C199.304 98.1281 198.836 95.4027 197.641 94.6879C196.445 93.9731 193.158 94.3472 191.963 92.5369C190.767 90.7267 190.86 88.5891 190.339 87.7073C189.818 86.8255 188.429 86.732 187.908 84.8149C187.387 82.8977 189.244 82.0226 189.725 80.5063C190.059 79.4441 189.257 78.2952 190.199 76.7521C191.495 74.6279 194.207 75.5631 195.637 73.4121C196.765 71.7154 199.765 64.0601 204.895 62.8377C208.449 62.0093 211.976 64.0868 211.976 64.0868Z" fill="#8471FE"/>
<path d="M218.97 81.4141C219.097 81.8469 219.326 82.2431 219.638 82.5697L220.5 83.5851C221.092 84.2207 221.584 84.9439 221.956 85.7293C222.125 86.1032 222.206 86.511 222.192 86.9211C222.178 87.3311 222.07 87.7325 221.876 88.0941C221.66 88.4542 221.387 88.7769 221.067 89.0493C220.706 89.3477 220.388 89.6964 220.125 90.0847C219.933 90.5458 219.896 91.0567 220.019 91.5409C220.092 91.9885 220.186 92.416 220.239 92.8769C220.323 93.2852 220.325 93.706 220.246 94.1152C220.167 94.5244 220.008 94.9139 219.778 95.2617C219.54 95.5871 219.198 95.8225 218.81 95.9297C218.397 96.0344 217.969 96.0593 217.547 96.0032C217.113 95.9631 216.679 95.8763 216.211 95.8161C215.768 95.7038 215.301 95.7318 214.875 95.8963C215.301 95.7949 215.747 95.811 216.164 95.9431C216.598 96.0433 217.026 96.1702 217.467 96.2437C217.921 96.3338 218.389 96.3338 218.843 96.2437C219.315 96.1298 219.736 95.8619 220.039 95.4821C220.321 95.1036 220.521 94.6707 220.627 94.2107C220.732 93.7507 220.741 93.2738 220.653 92.8101C220.606 92.3559 220.513 91.9217 220.453 91.4741C220.355 91.0952 220.381 90.6952 220.526 90.3319C220.9 89.6639 221.789 89.1829 222.23 88.3279C222.451 87.9043 222.567 87.4333 222.567 86.9551C222.567 86.477 222.451 86.006 222.23 85.5824C221.804 84.7835 221.254 84.0575 220.6 83.4314L219.658 82.4962C219.356 82.1869 219.122 81.8185 218.97 81.4141Z" fill="#8471FE"/>
<path d="M199.731 66.6055C198.763 67.8606 197.871 69.1722 197.059 70.5333C196.618 71.2013 196.197 71.8693 195.723 72.4705C195.493 72.7693 195.233 73.0446 194.948 73.2922C194.887 73.3501 194.817 73.3975 194.741 73.4324C194.669 73.4797 194.59 73.5158 194.507 73.5393C194.327 73.5994 194.14 73.6462 193.953 73.6929C193.171 73.8738 192.399 74.0968 191.642 74.3609C190.841 74.6246 190.142 75.1284 189.638 75.8038C189.393 76.1568 189.241 76.5657 189.197 76.9929C189.178 77.4076 189.237 77.8222 189.37 78.2153C189.672 78.9467 189.802 79.7372 189.751 80.5266C189.899 79.7365 189.851 78.9223 189.611 78.1552C189.511 77.7878 189.479 77.4051 189.517 77.0263C189.578 76.6627 189.73 76.3204 189.958 76.0309C190.439 75.4617 191.071 75.0402 191.782 74.8152C192.51 74.5547 193.278 74.4144 194.06 74.2207C194.253 74.1672 194.454 74.1071 194.648 74.0403C194.862 73.9664 195.06 73.8506 195.229 73.6996C195.54 73.4263 195.82 73.1193 196.064 72.7845C196.548 72.1434 196.994 71.4742 197.4 70.7805L198.562 68.703C198.913 67.9827 199.303 67.2825 199.731 66.6055Z" fill="#8471FE"/>
<path d="M189.711 87.0664C189.904 87.594 189.988 88.1553 189.958 88.7164C189.991 89.2842 190.018 89.852 190.078 90.4264C190.129 91.0062 190.238 91.5792 190.406 92.1365C190.572 92.7228 190.879 93.2595 191.301 93.6997C192.252 94.4308 193.447 94.7724 194.641 94.6549C195.215 94.6549 195.776 94.6014 196.338 94.5948C196.899 94.5543 197.463 94.6482 197.981 94.8687C197.493 94.5532 196.931 94.3734 196.351 94.3476C195.776 94.3009 195.209 94.3008 194.647 94.2674C193.545 94.2073 192.383 94.0403 191.621 93.3322C191.257 92.9549 190.987 92.4973 190.833 91.9962C190.657 91.471 190.523 90.9327 190.432 90.3864C190.332 89.8319 190.259 89.2708 190.179 88.7097C190.132 88.4225 190.085 88.1419 190.018 87.8613C189.986 87.5742 189.88 87.3003 189.711 87.0664Z" fill="#8471FE"/>
<path d="M199.104 96.5923C199.157 97.4473 202.163 103.459 205.951 103.94C207.18 104.094 208.309 97.3939 208.309 97.3939L208.502 96.9196L211.248 90.2396L204.013 83.6197L202.958 82.7246C202.958 82.7246 202.323 84.595 201.562 86.933L201.455 87.267C201.408 87.3939 201.361 87.5209 201.328 87.6411C201.208 87.9885 201.087 88.3492 200.981 88.7032C200.874 89.0572 200.807 89.2376 200.727 89.5249L200.473 90.3799C199.876 92.4173 199.419 94.4929 199.104 96.5923Z" fill="#F7A9A0"/>
<path d="M211.247 90.2455L208.615 96.6449C205.108 94.6914 202.5 91.4465 201.348 87.6002L201.561 86.9322C202.33 84.6009 202.958 82.7305 202.958 82.7305L204.013 83.6122L211.247 90.2455Z" fill="#8471FE"/>
<path d="M221.982 80.7345C221.201 93.3463 213.559 94.3016 210.84 94.0945C208.375 93.9408 199.985 93.0992 199.484 80.474C198.983 67.8488 205.075 64.2616 210.706 64.315C216.338 64.3685 222.764 68.136 221.982 80.7345Z" fill="#F7A9A0"/>
<path d="M199.945 80.1588C201.949 80.5996 203.031 76.3712 203.031 76.3712C203.031 76.3712 207.193 76.9524 209.391 71.1608C209.022 72.9322 208.145 74.5574 206.865 75.8368C206.865 75.8368 214.314 76.0706 218.221 70.3525C218.221 70.3525 216.558 73.3118 215.249 74.267C215.249 74.267 218.442 73.8328 220.286 71.5416C220.286 71.5416 221.087 75.2623 221.942 76.3779C221.942 76.3779 223.405 63.4922 211.321 63.225C211.321 63.225 203.806 62.6906 200.319 68.2216C196.832 73.7526 199.945 80.1588 199.945 80.1588Z" fill="#8471FE"/>
<path d="M201.409 81.5944C201.409 81.5944 199.264 77.2925 197.347 78.0006C195.43 78.7087 196.639 84.6806 198.596 85.7494C198.839 85.9053 199.111 86.0107 199.395 86.0591C199.679 86.1076 199.971 86.0982 200.251 86.0315C200.532 85.9647 200.796 85.842 201.028 85.6708C201.261 85.4995 201.456 85.2831 201.602 85.0346L201.409 81.5944Z" fill="#F7A9A0"/>
<path d="M197.729 79.6973V79.7507C199.065 80.559 199.666 82.0219 199.993 83.5049C199.93 83.3467 199.833 83.204 199.71 83.0867C199.587 82.9693 199.439 82.8799 199.278 82.8247C199.117 82.7696 198.946 82.7498 198.776 82.7669C198.607 82.784 198.443 82.8375 198.296 82.9237C198.288 82.9272 198.28 82.9332 198.275 82.9409C198.27 82.9486 198.267 82.9578 198.267 82.9671C198.267 82.9765 198.27 82.9856 198.275 82.9933C198.28 83.0011 198.288 83.0071 198.296 83.0105C198.56 82.9762 198.828 83.0214 199.066 83.1404C199.304 83.2594 199.501 83.4468 199.632 83.6785C199.845 84.0781 200.016 84.499 200.14 84.9344C200.193 85.0747 200.434 85.0413 200.407 84.8876V84.8342C200.755 82.9972 199.733 80.1582 197.729 79.6973Z" fill="#8471FE"/>
<path d="M200.119 85.3962C200.094 85.5596 200.006 85.7067 199.873 85.8055C199.741 85.9043 199.575 85.9469 199.411 85.9239C199.254 85.9007 199.113 85.8186 199.015 85.6945C198.917 85.5704 198.87 85.4135 198.883 85.2559C198.906 85.092 198.993 84.944 199.126 84.8444C199.258 84.7448 199.424 84.7018 199.588 84.7248C199.752 84.7479 199.9 84.835 199.999 84.9672C200.099 85.0994 200.142 85.2657 200.119 85.4296V85.3962Z" fill="white"/>
<path d="M219.833 77.8549C219.556 77.7807 219.283 77.6892 219.018 77.581C218.717 77.5291 218.442 77.3787 218.236 77.1535C218.185 77.0692 218.164 76.9706 218.175 76.8727C218.185 76.7749 218.228 76.6834 218.296 76.6124C218.452 76.4946 218.636 76.4202 218.829 76.3967C219.023 76.3732 219.219 76.4015 219.399 76.4788C219.786 76.5743 220.122 76.813 220.34 77.1468C220.388 77.2262 220.412 77.3179 220.408 77.4105C220.404 77.5031 220.374 77.5926 220.32 77.6679C220.266 77.7433 220.191 77.8011 220.104 77.8343C220.018 77.8676 219.923 77.8747 219.833 77.8549Z" fill="#8471FE"/>
<path d="M211.636 77.6213C211.923 77.5611 212.177 77.4543 212.458 77.3674C212.758 77.3191 213.035 77.1737 213.246 76.9533C213.299 76.8701 213.322 76.7716 213.312 76.6735C213.303 76.5754 213.26 76.4834 213.192 76.4122C213.04 76.2918 212.858 76.2137 212.666 76.1855C212.474 76.1574 212.278 76.1803 212.097 76.2519C211.703 76.3453 211.36 76.5839 211.135 76.9199C211.09 76.9986 211.068 77.0886 211.073 77.1793C211.077 77.2699 211.108 77.3573 211.161 77.4312C211.213 77.505 211.286 77.5622 211.37 77.5959C211.455 77.6295 211.547 77.6384 211.636 77.6213Z" fill="#8471FE"/>
<path d="M213.092 80.3066C213.092 80.3066 213.019 80.3066 213.019 80.3734C212.972 81.2218 212.778 82.177 211.99 82.3774V82.4309C212.945 82.3908 213.193 81.1149 213.092 80.3066Z" fill="#8471FE"/>
<path d="M212.424 79.3584C211.088 79.138 210.727 81.8501 211.976 82.0304C213.225 82.2108 213.559 79.5455 212.424 79.3584Z" fill="#8471FE"/>
<path d="M211.877 79.4305C211.623 79.5574 211.356 79.7979 211.068 79.7912C210.781 79.7845 210.521 79.4639 210.34 79.1633C210.34 79.1299 210.294 79.1633 210.287 79.1633C210.213 79.4061 210.235 79.6679 210.348 79.8952C210.461 80.1224 210.657 80.2978 210.895 80.3857C211.389 80.5193 211.817 80.1118 212.01 79.6042C212.05 79.5374 211.984 79.3837 211.877 79.4305Z" fill="#8471FE"/>
<path d="M217.914 80.5801C217.914 80.5801 217.974 80.6268 217.968 80.6602C217.827 81.4952 217.807 82.4772 218.529 82.858C218.529 82.858 218.529 82.9114 218.529 82.9047C217.607 82.6509 217.647 81.3483 217.914 80.5801Z" fill="#8471FE"/>
<path d="M218.777 79.8059C220.146 79.8861 219.886 82.6048 218.623 82.5313C217.361 82.4579 217.634 79.7391 218.777 79.8059Z" fill="#8471FE"/>
<path d="M219.33 80.0327C219.531 80.1997 219.718 80.4803 219.998 80.5271C220.279 80.5738 220.546 80.2999 220.76 80.0327H220.8C220.767 80.5538 220.539 81.0815 220.032 81.1349C219.524 81.1884 219.277 80.7007 219.203 80.173C219.163 80.1062 219.25 79.9726 219.33 80.0327Z" fill="#8471FE"/>
<path d="M212.343 87.1673C212.51 87.4011 212.664 87.7017 212.964 87.7819C213.274 87.8278 213.59 87.8096 213.893 87.7285C213.926 87.7285 213.946 87.7285 213.926 87.7752C213.777 87.9177 213.592 88.0176 213.392 88.0645C213.191 88.1115 212.981 88.1039 212.784 88.0424C212.622 87.9688 212.486 87.8489 212.392 87.698C212.298 87.5471 212.251 87.3717 212.256 87.1941C212.256 87.1836 212.259 87.1732 212.265 87.1646C212.271 87.156 212.279 87.1497 212.289 87.1466C212.299 87.1435 212.31 87.1439 212.32 87.1477C212.33 87.1514 212.338 87.1584 212.343 87.1673Z" fill="#8471FE"/>
<path d="M216.319 84.3673C216.319 84.3673 216.352 85.6432 216.286 86.2377C216.286 86.2911 216.132 86.3045 215.925 86.2911C215.405 86.3245 214.886 86.2145 214.424 85.973C213.962 85.7315 213.576 85.3679 213.306 84.9217C213.273 84.8616 213.36 84.8082 213.406 84.8483C214.1 85.4545 214.973 85.818 215.891 85.8837C215.952 85.7233 215.771 83.6993 215.891 83.706C216.357 83.7942 216.807 83.9495 217.227 84.1669C217.227 81.4949 216.84 78.863 216.893 76.211C216.893 76.1898 216.902 76.1694 216.917 76.1543C216.932 76.1393 216.952 76.1309 216.974 76.1309C216.995 76.1309 217.015 76.1393 217.03 76.1543C217.045 76.1694 217.054 76.1898 217.054 76.211C217.581 79.0297 217.825 81.8941 217.782 84.7614C217.715 85.0821 216.546 84.5009 216.319 84.3673Z" fill="#8471FE"/>
<path d="M215.684 86.171C215.293 86.5804 214.803 86.8818 214.261 87.0461C213.961 87.1227 213.645 87.1087 213.352 87.006C212.725 86.7656 212.771 86.1644 212.945 85.67C213.043 85.408 213.168 85.1572 213.319 84.9219C213.955 85.5785 214.783 86.016 215.684 86.171Z" fill="#8471FE"/>
<path d="M214.261 87.046C213.961 87.1226 213.645 87.1086 213.352 87.0059C212.725 86.7654 212.771 86.1642 212.945 85.6699C213.287 85.7191 213.602 85.8813 213.841 86.1308C214.079 86.3803 214.227 86.7025 214.261 87.046Z" fill="#FF98B9"/>
<path d="M193.721 95.877C193.735 97.0078 194.056 98.1136 194.649 99.0767C196.54 102.196 201.616 104.728 206.673 104.113C209.886 103.719 211.87 102.423 212.872 100.773C209.516 101.392 206.065 101.274 202.759 100.429C199.452 99.5835 196.368 98.0304 193.721 95.877Z" fill="#455A64"/>
<path d="M189.371 91.7016C195.103 101.488 211.776 105.816 222.277 96.9854C229.692 90.733 232.965 77.8472 227.38 67.1258C219.271 51.6216 202.878 53.2181 193.72 60.7865C184.094 68.7624 185.036 84.2734 189.371 91.7016ZM200.554 66.9254C207.948 61.4812 221.221 61.1539 227.674 72.1826C229.669 75.6523 230.336 79.7284 229.551 83.653C228.766 87.5776 226.582 91.0834 223.406 93.5185C214.896 99.8979 201.489 96.8986 196.913 89.9314C193.446 84.6475 192.731 72.6836 200.554 66.9254Z" fill="#FDC500"/>
<path opacity="0.1" d="M196.914 89.9256C201.489 96.8928 214.896 99.8921 223.407 93.5127C226.581 91.0779 228.764 87.5733 229.549 83.6503C230.334 79.7272 229.668 75.6525 227.675 72.1835C221.222 61.1548 207.949 61.4955 200.554 66.9263C192.732 72.6845 193.447 84.6484 196.914 89.9256Z" fill="#455A64"/>
<path opacity="0.1" d="M196.914 89.9256C201.489 96.8928 214.896 99.8921 223.407 93.5127C226.581 91.0779 228.764 87.5733 229.549 83.6503C230.334 79.7272 229.668 75.6525 227.675 72.1835C221.222 61.1548 207.949 61.4955 200.554 66.9263C192.732 72.6845 193.447 84.6484 196.914 89.9256Z" fill="#455A64"/>
<g opacity="0.2">
<path d="M212.818 63.252C219.099 69.6347 224.661 76.6863 229.405 84.2806C229.969 82.0334 230.04 79.6906 229.612 77.4136C226.536 72.9956 223.177 68.7806 219.558 64.795C217.432 63.8527 215.143 63.3288 212.818 63.252Z" fill="white"/>
<path d="M194.654 83.5C194.944 85.7817 195.714 87.9763 196.912 89.9395C198.434 92.1139 200.51 93.8415 202.924 94.9428C200.445 90.9356 197.681 87.1115 194.654 83.5Z" fill="white"/>
<path d="M209.131 63.4584C216.494 70.6934 222.886 78.8532 228.149 87.7336C228.276 87.4864 228.389 87.2392 228.496 86.9854C223.321 78.3654 217.09 70.4259 209.946 63.3516L209.131 63.4584Z" fill="white"/>
<path d="M195.01 75.5159C201.228 81.9575 206.594 89.1707 210.975 96.9787C211.229 96.9787 211.483 96.9787 211.743 96.9787C207.224 88.8951 201.658 81.4428 195.19 74.8145C195.123 75.0549 195.057 75.2821 195.01 75.5159Z" fill="white"/>
<path d="M194.428 80.2188C194.428 80.5394 194.428 80.8467 194.428 81.1606C198.419 85.7207 201.996 90.6277 205.116 95.8232C205.416 95.9301 205.717 96.0303 206.024 96.1172C202.682 90.455 198.798 85.1306 194.428 80.2188Z" fill="white"/>
<path d="M197.527 69.9724C205.506 77.6916 212.263 86.5797 217.567 96.3317C218.34 96.1244 219.096 95.8632 219.832 95.5501C214.331 85.4397 207.296 76.2435 198.977 68.2891C198.452 68.8133 197.968 69.376 197.527 69.9724Z" fill="white"/>
</g>
<path d="M183.426 83.2247C182.331 80.5527 182.311 75.0217 185.103 72.3898C187.775 69.9048 192.311 69.6576 194.328 75.2956C195.717 79.19 194.615 83.6723 192.464 85.7364C189.418 88.6556 184.869 86.7985 183.426 83.2247Z" fill="#FDC500"/>
<path opacity="0.1" d="M183.426 83.2247C182.331 80.5527 182.311 75.0217 185.103 72.3898C187.775 69.9048 192.311 69.6576 194.328 75.2956C195.717 79.19 194.615 83.6723 192.464 85.7364C189.418 88.6556 184.869 86.7985 183.426 83.2247Z" fill="#CA0000"/>
<path d="M182.585 82.2435C181.743 80.1593 181.73 75.9376 183.874 73.9135C185.878 72.003 189.412 71.816 190.961 76.1446C192.03 79.1373 191.182 82.5842 189.525 84.1606C187.194 86.4118 183.7 84.9823 182.585 82.2435Z" fill="#FDC500"/>
<path d="M187.949 105.463C190.741 122.07 203.981 143.539 208.39 148.376C215.103 155.77 245.918 147.841 252.198 146.639C254.87 146.131 246.62 122.758 243.747 123.259C241.242 123.686 217.695 130.607 216.994 129.778C216.426 129.11 205.043 113.746 196.88 103.626C189.84 94.8955 187.214 101.068 187.949 105.463Z" fill="#F7A9A0"/>
<path d="M238.201 124.667L242.51 123.525C243.894 123.119 245.211 122.512 246.418 121.721C251.247 118.936 264.794 115.248 277.025 125.061C281.701 128.809 281.127 133.745 275.569 130.706C271.648 128.568 269.116 126.751 267.647 126.411C267.647 126.411 270.319 132.703 268.221 136.07C266.398 139.013 264.369 141.823 262.149 144.48C261.571 144.182 261.011 143.85 260.472 143.485C259.532 144.74 258.256 145.704 256.792 146.266C255.328 146.827 253.734 146.963 252.196 146.658L245.255 148.141L238.201 124.667Z" fill="#455A64"/>
<path d="M251.449 119.805C254.315 120.366 260.374 121.668 264.956 124.481C270.046 127.574 279.024 134.915 276.7 138.649C274.996 141.388 271.322 138.883 271.322 138.883C271.322 138.883 274.388 142.697 272.311 144.835C270.414 146.785 267.688 144.681 267.688 144.681C267.688 144.681 269.151 147.313 266.967 148.836C264.335 150.673 261.696 144.828 257.428 144.4C256.466 144.287 251.449 119.805 251.449 119.805Z" fill="#455A64"/>
<path d="M260.786 129.29C263.398 130.265 268.756 133.966 271.328 138.742C271.381 138.849 271.328 138.949 271.261 138.862C268.157 135.275 264.631 132.077 260.76 129.336C260.76 129.336 260.76 129.283 260.786 129.29Z" fill="#8471FE"/>
<path d="M257.848 134.521C260.013 135.597 265.363 139.692 267.802 144.582C267.855 144.695 267.802 144.795 267.728 144.702C264.819 140.959 261.493 137.559 257.815 134.568C257.815 134.568 257.782 134.508 257.848 134.521Z" fill="#8471FE"/>
<path d="M238.201 124.668L245.255 148.122C245.255 148.122 243.846 150.794 237.533 152.009C231.221 153.225 212.817 153.553 208.576 149.665C204.334 145.777 192.597 125.617 188.502 110.7C184.407 95.7839 192.998 97.18 197.5 103.64C202.002 110.099 217.012 128.837 217.46 129.024C217.908 129.211 228.435 125.189 232.25 124.414C236.064 123.639 238.201 124.668 238.201 124.668Z" fill="#FDC500"/>
<path d="M214.849 125.957C213.793 124.881 212.805 123.759 211.823 122.617C210.841 121.474 209.892 120.325 208.95 119.163C208.008 118.001 207.093 116.818 206.205 115.603L204.869 113.786C204.441 113.164 204 112.556 203.6 111.922C204.127 112.456 204.622 113.017 205.136 113.565L206.619 115.255C207.608 116.384 208.549 117.546 209.491 118.709C210.433 119.871 211.355 121.06 212.237 122.276C213.119 123.492 214.027 124.701 214.849 125.957Z" fill="#8471FE"/>
<path d="M206.412 115.383C206.124 114.933 205.88 114.457 205.684 113.96C205.487 113.463 205.315 112.957 205.17 112.443C205.364 112.643 205.53 112.868 205.664 113.111C205.798 113.344 205.916 113.585 206.018 113.833C206.225 114.327 206.358 114.849 206.412 115.383Z" fill="#8471FE"/>
<path d="M206.725 147.56C205.817 146.478 204.982 145.329 204.14 144.186C203.298 143.044 202.53 141.848 201.755 140.659C200.212 138.281 198.796 135.823 197.44 133.311C196.084 130.8 194.861 128.255 193.753 125.636C192.63 123.031 191.647 120.369 190.807 117.66C191.394 118.956 191.889 120.279 192.497 121.555C193.105 122.83 193.639 124.146 194.26 125.409L196.104 129.223C196.772 130.479 197.38 131.742 198.068 132.971C199.364 135.482 200.787 137.921 202.223 140.319C203.659 142.717 205.162 145.202 206.725 147.56Z" fill="#8471FE"/>
<path d="M192.618 122.363C192.17 122.023 191.762 121.633 191.402 121.201C191.036 120.774 190.722 120.306 190.467 119.805C190.914 120.143 191.32 120.533 191.676 120.967C192.047 121.391 192.363 121.86 192.618 122.363Z" fill="#8471FE"/>
<path opacity="0.1" d="M234.769 127.253C235.718 129.811 236.533 132.43 237.328 135.048C238.122 137.667 238.904 140.232 239.672 142.824C240.113 144.313 240.554 145.803 240.941 147.299C240.941 147.399 240.881 147.42 240.848 147.299C239.919 144.727 239.118 142.102 238.283 139.504C237.448 136.905 236.653 134.333 235.871 131.742C235.424 130.252 235.003 128.769 234.629 127.259C234.589 127.146 234.716 127.112 234.769 127.253Z" fill="#CA0000"/>
<path d="M255.096 225.282L258.776 225.964L259.598 229.845L260.42 225.964L264.1 225.282L260.433 224.387L259.598 220.727L258.756 224.387L255.096 225.282Z" fill="#C7C7C7"/>
<path d="M76.3398 214.861L80.0138 215.543L80.8422 219.417L81.6638 215.543L85.3378 214.855L81.6772 213.959L80.8422 210.299L80.0005 213.959L76.3398 214.861Z" fill="#C7C7C7"/>
<path d="M217.508 162.872L221.188 163.554L222.01 167.435L222.832 163.554L226.512 162.872L222.852 161.977L222.01 158.316L221.175 161.977L217.508 162.872Z" fill="#C7C7C7"/>
<path d="M290.072 202.45L292.13 202.831L292.591 204.995L293.052 202.831L295.102 202.45L293.058 201.949L292.591 199.898L292.123 201.949L290.072 202.45Z" fill="#C7C7C7"/>
<path d="M134.001 284.948L136.058 285.329L136.513 287.493L136.974 285.329L139.031 284.948L136.98 284.447L136.513 282.396L136.045 284.447L134.001 284.948Z" fill="#C7C7C7"/>
<path d="M285.043 104.856L287.1 105.236L287.561 107.407L288.016 105.236L290.073 104.856L288.029 104.355L287.561 102.311L287.087 104.355L285.043 104.856Z" fill="#C7C7C7"/>
<path d="M42.4316 151.488L44.4891 151.869L44.95 154.04L45.4109 151.869L47.4684 151.488L45.4176 150.987L44.95 148.943L44.4824 150.987L42.4316 151.488Z" fill="#C7C7C7"/>
<path d="M53.4668 261.843L55.5242 262.224L55.9852 264.388L56.4461 262.224L58.4968 261.843L56.4528 261.342L55.9852 259.291L55.5176 261.342L53.4668 261.843Z" fill="#C7C7C7"/>
<path d="M277.107 159.778L279.165 160.152L279.626 162.323L280.08 160.152L282.137 159.772L280.093 159.277L279.626 157.227L279.152 159.277L277.107 159.778Z" fill="#C7C7C7"/>
<path d="M115.511 55.751L117.568 56.1317L118.029 58.2961L118.49 56.1317L120.547 55.7443L118.497 55.2433L118.029 53.1992L117.562 55.2433L115.511 55.751Z" fill="#C7C7C7"/>
<path d="M196.025 221.97L198.083 222.35L198.544 224.515L199.005 222.35L201.062 221.97L199.011 221.469L198.544 219.418L198.076 221.469L196.025 221.97Z" fill="#C7C7C7"/>
<path d="M129.132 289.639C129.289 289.639 129.441 289.701 129.552 289.813C129.664 289.924 129.726 290.076 129.726 290.233C129.726 290.391 129.664 290.542 129.552 290.654C129.441 290.765 129.289 290.828 129.132 290.828C128.974 290.828 128.823 290.765 128.711 290.654C128.6 290.542 128.537 290.391 128.537 290.233C128.537 290.076 128.6 289.924 128.711 289.813C128.823 289.701 128.974 289.639 129.132 289.639Z" fill="#C7C7C7"/>
<path d="M235.483 177.82C235.631 177.836 235.768 177.906 235.867 178.016C235.966 178.126 236.021 178.27 236.021 178.418C236.021 178.567 235.966 178.71 235.867 178.82C235.768 178.931 235.631 179 235.483 179.016C235.336 179 235.199 178.931 235.1 178.82C235 178.71 234.945 178.567 234.945 178.418C234.945 178.27 235 178.126 235.1 178.016C235.199 177.906 235.336 177.836 235.483 177.82Z" fill="#C7C7C7"/>
<path d="M96.1922 285.162C96.3399 285.178 96.4765 285.247 96.5759 285.358C96.6752 285.468 96.7301 285.611 96.7301 285.76C96.7301 285.908 96.6752 286.052 96.5759 286.162C96.4765 286.272 96.3399 286.342 96.1922 286.358C96.0445 286.342 95.9079 286.272 95.8086 286.162C95.7093 286.052 95.6543 285.908 95.6543 285.76C95.6543 285.611 95.7093 285.468 95.8086 285.358C95.9079 285.247 96.0445 285.178 96.1922 285.162Z" fill="#C7C7C7"/>
<path d="M263.86 185.631C264.008 185.646 264.145 185.716 264.244 185.827C264.343 185.937 264.398 186.08 264.398 186.229C264.398 186.377 264.343 186.52 264.244 186.631C264.145 186.741 264.008 186.811 263.86 186.827C263.713 186.811 263.576 186.741 263.477 186.631C263.377 186.52 263.322 186.377 263.322 186.229C263.322 186.08 263.377 185.937 263.477 185.827C263.576 185.716 263.713 185.646 263.86 185.631Z" fill="#C7C7C7"/>
<path d="M144.067 278.916C144.179 278.916 144.286 278.96 144.365 279.039C144.444 279.118 144.488 279.225 144.488 279.337C144.488 279.448 144.444 279.556 144.365 279.634C144.286 279.713 144.179 279.758 144.067 279.758C143.956 279.758 143.849 279.713 143.77 279.634C143.691 279.556 143.646 279.448 143.646 279.337C143.646 279.225 143.691 279.118 143.77 279.039C143.849 278.96 143.956 278.916 144.067 278.916Z" fill="#C7C7C7"/>
<path d="M59.8466 59.9258C59.9582 59.9258 60.0653 59.9701 60.1442 60.049C60.2231 60.128 60.2675 60.235 60.2675 60.3466C60.2675 60.4582 60.2231 60.5653 60.1442 60.6442C60.0653 60.7231 59.9582 60.7675 59.8466 60.7675C59.735 60.7675 59.628 60.7231 59.549 60.6442C59.4701 60.5653 59.4258 60.4582 59.4258 60.3466C59.4258 60.235 59.4701 60.128 59.549 60.049C59.628 59.9701 59.735 59.9258 59.8466 59.9258Z" fill="#C7C7C7"/>
<path d="M222.505 195.482C222.616 195.482 222.723 195.527 222.802 195.606C222.881 195.685 222.926 195.792 222.926 195.903C222.926 196.015 222.881 196.122 222.802 196.201C222.723 196.28 222.616 196.324 222.505 196.324C222.393 196.324 222.286 196.28 222.207 196.201C222.128 196.122 222.084 196.015 222.084 195.903C222.084 195.792 222.128 195.685 222.207 195.606C222.286 195.527 222.393 195.482 222.505 195.482Z" fill="#C7C7C7"/>
<path d="M208.21 187.814C208.499 187.837 208.768 187.967 208.965 188.179C209.162 188.392 209.271 188.671 209.271 188.96C209.271 189.25 209.162 189.529 208.965 189.741C208.768 189.953 208.499 190.084 208.21 190.106C207.921 190.084 207.651 189.953 207.455 189.741C207.258 189.529 207.148 189.25 207.148 188.96C207.148 188.671 207.258 188.392 207.455 188.179C207.651 187.967 207.921 187.837 208.21 187.814Z" fill="#C7C7C7"/>
<path d="M124.516 98.3691L128.196 99.0504L129.018 102.925L129.84 99.0504L133.52 98.3624L129.853 97.4673L129.018 93.8066L128.176 97.4673L124.516 98.3691Z" fill="#C7C7C7"/>
<path d="M163.734 38.797L165.792 39.1778L166.253 41.3488L166.714 39.1778L168.771 38.797L166.72 38.296L166.253 36.252L165.785 38.296L163.734 38.797Z" fill="#C7C7C7"/>
<path d="M39.0584 94.4473C39.2061 94.4629 39.3427 94.5326 39.4421 94.643C39.5414 94.7534 39.5963 94.8966 39.5963 95.0451C39.5963 95.1936 39.5414 95.3369 39.4421 95.4472C39.3427 95.5576 39.2061 95.6274 39.0584 95.643C38.9108 95.6274 38.7741 95.5576 38.6748 95.4472C38.5755 95.3369 38.5205 95.1936 38.5205 95.0451C38.5205 94.8966 38.5755 94.7534 38.6748 94.643C38.7741 94.5326 38.9108 94.4629 39.0584 94.4473Z" fill="#C7C7C7"/>
<path d="M48.4236 252.564C48.5813 252.564 48.7325 252.627 48.844 252.739C48.9555 252.85 49.0181 253.001 49.0181 253.159C49.0181 253.317 48.9555 253.468 48.844 253.579C48.7325 253.691 48.5813 253.753 48.4236 253.753C48.2659 253.753 48.1147 253.691 48.0032 253.579C47.8917 253.468 47.8291 253.317 47.8291 253.159C47.8291 253.001 47.8917 252.85 48.0032 252.739C48.1147 252.627 48.2659 252.564 48.4236 252.564Z" fill="#C7C7C7"/>
<path d="M62.7922 144.428C62.9508 144.428 63.1028 144.491 63.2149 144.603C63.3271 144.715 63.3901 144.867 63.3901 145.026C63.3901 145.184 63.3271 145.336 63.2149 145.448C63.1028 145.56 62.9508 145.623 62.7922 145.623C62.6336 145.623 62.4816 145.56 62.3694 145.448C62.2573 145.336 62.1943 145.184 62.1943 145.026C62.1943 144.867 62.2573 144.715 62.3694 144.603C62.4816 144.491 62.6336 144.428 62.7922 144.428Z" fill="#C7C7C7"/>
<path d="M86.3993 224.141C86.511 224.141 86.618 224.185 86.6969 224.264C86.7759 224.343 86.8202 224.45 86.8202 224.561C86.8202 224.673 86.7759 224.78 86.6969 224.859C86.618 224.938 86.511 224.982 86.3993 224.982C86.2877 224.982 86.1807 224.938 86.1018 224.859C86.0228 224.78 85.9785 224.673 85.9785 224.561C85.9785 224.45 86.0228 224.343 86.1018 224.264C86.1807 224.185 86.2877 224.141 86.3993 224.141Z" fill="#C7C7C7"/>
<path d="M175.364 278.201C175.476 278.201 175.583 278.246 175.662 278.324C175.741 278.403 175.785 278.51 175.785 278.622C175.785 278.734 175.741 278.841 175.662 278.92C175.583 278.999 175.476 279.043 175.364 279.043C175.253 279.043 175.146 278.999 175.067 278.92C174.988 278.841 174.943 278.734 174.943 278.622C174.943 278.51 174.988 278.403 175.067 278.324C175.146 278.246 175.253 278.201 175.364 278.201Z" fill="#C7C7C7"/>
<path d="M238.003 85.25C238.114 85.25 238.222 85.2943 238.3 85.3733C238.379 85.4522 238.424 85.5592 238.424 85.6708C238.424 85.7825 238.379 85.8895 238.3 85.9684C238.222 86.0473 238.114 86.0917 238.003 86.0917C237.891 86.0917 237.784 86.0473 237.705 85.9684C237.626 85.8895 237.582 85.7825 237.582 85.6708C237.582 85.5592 237.626 85.4522 237.705 85.3733C237.784 85.2943 237.891 85.25 238.003 85.25Z" fill="#C7C7C7"/>
<path d="M161.81 59.4512C161.921 59.4512 162.028 59.4955 162.107 59.5744C162.186 59.6534 162.23 59.7604 162.23 59.872C162.23 59.9836 162.186 60.0907 162.107 60.1696C162.028 60.2485 161.921 60.2929 161.81 60.2929C161.698 60.2929 161.591 60.2485 161.512 60.1696C161.433 60.0907 161.389 59.9836 161.389 59.872C161.389 59.7604 161.433 59.6534 161.512 59.5744C161.591 59.4955 161.698 59.4512 161.81 59.4512Z" fill="#C7C7C7"/>
<path d="M136.519 209.156C136.822 209.156 137.113 209.277 137.327 209.491C137.541 209.705 137.662 209.996 137.662 210.299C137.662 210.601 137.541 210.892 137.327 211.106C137.113 211.32 136.822 211.441 136.519 211.441C136.216 211.441 135.926 211.32 135.712 211.106C135.497 210.892 135.377 210.601 135.377 210.299C135.377 209.996 135.497 209.705 135.712 209.491C135.926 209.277 136.216 209.156 136.519 209.156Z" fill="#C7C7C7"/>
<path d="M287.054 122.805C287.357 122.805 287.648 122.925 287.862 123.139C288.076 123.353 288.197 123.644 288.197 123.947C288.197 124.25 288.076 124.54 287.862 124.755C287.648 124.969 287.357 125.089 287.054 125.089C286.751 125.089 286.461 124.969 286.247 124.755C286.032 124.54 285.912 124.25 285.912 123.947C285.912 123.644 286.032 123.353 286.247 123.139C286.461 122.925 286.751 122.805 287.054 122.805Z" fill="#C7C7C7"/>
<path d="M53.1735 222.998C53.4765 222.998 53.767 223.118 53.9812 223.333C54.1955 223.547 54.3158 223.837 54.3158 224.14C54.3158 224.443 54.1955 224.734 53.9812 224.948C53.767 225.162 53.4765 225.283 53.1735 225.283C52.8706 225.283 52.58 225.162 52.3658 224.948C52.1516 224.734 52.0312 224.443 52.0312 224.14C52.0312 223.837 52.1516 223.547 52.3658 223.333C52.58 223.118 52.8706 222.998 53.1735 222.998Z" fill="#C7C7C7"/>
<path d="M122.912 116.779L124.97 117.16L125.43 119.331L125.885 117.16L127.942 116.779L125.898 116.278L125.43 114.234L124.956 116.278L122.912 116.779Z" fill="#C7C7C7"/>
<path d="M192.873 282.731L194.93 283.111L195.391 285.282L195.846 283.111L197.903 282.731L195.859 282.23L195.391 280.186L194.924 282.23L192.873 282.731Z" fill="#C7C7C7"/>
<path d="M201.983 256.023C202.141 256.023 202.292 256.086 202.404 256.198C202.515 256.309 202.578 256.46 202.578 256.618C202.578 256.776 202.515 256.927 202.404 257.038C202.292 257.15 202.141 257.212 201.983 257.212C201.826 257.212 201.674 257.15 201.563 257.038C201.451 256.927 201.389 256.776 201.389 256.618C201.389 256.46 201.451 256.309 201.563 256.198C201.674 256.086 201.826 256.023 201.983 256.023Z" fill="#C7C7C7"/>
<path d="M225.218 240.166C225.375 240.166 225.526 240.229 225.638 240.34C225.749 240.452 225.812 240.603 225.812 240.761C225.812 240.918 225.749 241.069 225.638 241.181C225.526 241.292 225.375 241.355 225.218 241.355C225.06 241.355 224.909 241.292 224.797 241.181C224.686 241.069 224.623 240.918 224.623 240.761C224.623 240.603 224.686 240.452 224.797 240.34C224.909 240.229 225.06 240.166 225.218 240.166Z" fill="#C7C7C7"/>
<path d="M151.697 267.548L153.755 267.929L154.216 270.093L154.677 267.929L156.734 267.541L154.683 267.047L154.216 264.996L153.748 267.047L151.697 267.548Z" fill="#C7C7C7"/>
<path d="M236.358 75.5312C236.506 75.5469 236.643 75.6166 236.742 75.727C236.841 75.8374 236.896 75.9806 236.896 76.1291C236.896 76.2776 236.841 76.4208 236.742 76.5312C236.643 76.6416 236.506 76.7113 236.358 76.727C236.211 76.7113 236.074 76.6416 235.975 76.5312C235.875 76.4208 235.82 76.2776 235.82 76.1291C235.82 75.9806 235.875 75.8374 235.975 75.727C236.074 75.6166 236.211 75.5469 236.358 75.5312Z" fill="#C7C7C7"/>
<path d="M250.7 242.043C250.804 242.056 250.899 242.106 250.968 242.184C251.037 242.262 251.075 242.363 251.075 242.467C251.075 242.571 251.037 242.672 250.968 242.75C250.899 242.828 250.804 242.878 250.7 242.891C250.597 242.878 250.502 242.828 250.433 242.75C250.364 242.672 250.326 242.571 250.326 242.467C250.326 242.363 250.364 242.262 250.433 242.184C250.502 242.106 250.597 242.056 250.7 242.043Z" fill="#C7C7C7"/>
<path d="M71.2422 170.34L73.2996 170.721L73.7605 172.892L74.2148 170.721L76.2722 170.34L74.2281 169.839L73.7605 167.795L73.2929 169.839L71.2422 170.34Z" fill="#C7C7C7"/>
<path d="M47.4685 203.152C47.6262 203.152 47.7774 203.215 47.8889 203.326C48.0004 203.438 48.0631 203.589 48.0631 203.747C48.0631 203.905 48.0004 204.056 47.8889 204.167C47.7774 204.279 47.6262 204.341 47.4685 204.341C47.3109 204.341 47.1596 204.279 47.0482 204.167C46.9367 204.056 46.874 203.905 46.874 203.747C46.874 203.589 46.9367 203.438 47.0482 203.326C47.1596 203.215 47.3109 203.152 47.4685 203.152Z" fill="#C7C7C7"/>
<path d="M129.713 159.244C129.87 159.244 130.022 159.307 130.133 159.418C130.245 159.53 130.307 159.681 130.307 159.839C130.307 159.996 130.245 160.148 130.133 160.259C130.022 160.371 129.87 160.433 129.713 160.433C129.555 160.433 129.404 160.371 129.292 160.259C129.181 160.148 129.118 159.996 129.118 159.839C129.118 159.681 129.181 159.53 129.292 159.418C129.404 159.307 129.555 159.244 129.713 159.244Z" fill="#C7C7C7"/>
<path d="M59.8466 99.0098C59.9582 99.0098 60.0653 99.0541 60.1442 99.133C60.2231 99.212 60.2675 99.319 60.2675 99.4306C60.2675 99.5422 60.2231 99.6493 60.1442 99.7282C60.0653 99.8071 59.9582 99.8514 59.8466 99.8514C59.735 99.8514 59.628 99.8071 59.549 99.7282C59.4701 99.6493 59.4258 99.5422 59.4258 99.4306C59.4258 99.319 59.4701 99.212 59.549 99.133C59.628 99.0541 59.735 99.0098 59.8466 99.0098Z" fill="#C7C7C7"/>
<path d="M54.4491 95.1289C54.7378 95.151 55.0076 95.2812 55.2044 95.4936C55.4012 95.7061 55.5105 95.985 55.5105 96.2745C55.5105 96.5641 55.4012 96.843 55.2044 97.0554C55.0076 97.2678 54.7378 97.3981 54.4491 97.4201C54.1604 97.3981 53.8906 97.2678 53.6938 97.0554C53.497 96.843 53.3877 96.5641 53.3877 96.2745C53.3877 95.985 53.497 95.7061 53.6938 95.4936C53.8906 95.2812 54.1604 95.151 54.4491 95.1289Z" fill="#C7C7C7"/>
<path d="M249.097 148.295C249.4 148.295 249.691 148.415 249.905 148.629C250.119 148.844 250.24 149.134 250.24 149.437C250.24 149.74 250.119 150.031 249.905 150.245C249.691 150.459 249.4 150.579 249.097 150.579C248.794 150.579 248.504 150.459 248.29 150.245C248.075 150.031 247.955 149.74 247.955 149.437C247.955 149.134 248.075 148.844 248.29 148.629C248.504 148.415 248.794 148.295 249.097 148.295Z" fill="#C7C7C7"/>
</svg>
