<svg width="600" height="600" viewBox="0 0 600 600" fill="none" xmlns="http://www.w3.org/2000/svg">
<path d="M144.386 182.814C110.587 198.078 90.465 232.779 83.4258 267.25C77.9538 294.047 80.2566 322.823 93.8802 346.949C116.391 386.813 164.932 407.352 211.808 417.904C266.786 430.28 325.373 432.69 379.435 417.182C433.496 401.672 482.513 366.809 505.937 318.688C518.423 293.039 523.353 263.537 515.631 236.297C507.908 209.057 486.461 184.665 457.861 175.768C421.929 164.59 381.181 179.408 354.544 204.574C341.324 217.065 327.495 233.34 308.75 232.05C297.092 231.248 287.483 223.557 278.793 216.248C268.706 207.762 212.647 151.986 144.386 182.814Z" fill="#FBFAFF"/>
<g opacity="0.9">
<path d="M144.386 182.814C110.587 198.078 90.465 232.779 83.4258 267.25C77.9538 294.047 80.2566 322.823 93.8802 346.949C116.391 386.813 164.932 407.352 211.808 417.904C266.786 430.28 325.373 432.69 379.435 417.182C433.496 401.672 482.513 366.809 505.937 318.688C518.423 293.039 523.353 263.537 515.631 236.297C507.908 209.057 486.461 184.665 457.861 175.768C421.929 164.59 381.181 179.408 354.544 204.574C341.324 217.065 327.495 233.34 308.75 232.05C297.092 231.248 287.483 223.557 278.793 216.248C268.706 207.762 212.647 151.986 144.386 182.814Z" fill="#FBFAFF"/>
</g>
<path d="M300.001 512.419C428.499 512.419 532.668 506.336 532.668 498.832C532.668 491.328 428.499 485.244 300.001 485.244C171.502 485.244 67.334 491.328 67.334 498.832C67.334 506.336 171.502 512.419 300.001 512.419Z" fill="#F7F5FF"/>
<path d="M103.244 485.509C103.2 485.101 99.0021 444.207 108.379 409.422L109.538 409.734C100.22 444.299 104.394 484.975 104.438 485.382L103.244 485.509Z" fill="#4A820B"/>
<path d="M113.37 418.24C113.37 418.24 100.45 442.244 103.028 470.518C103.028 470.518 108.412 435.769 113.37 418.24Z" fill="#63AD0E"/>
<path d="M87.6875 406.354C87.6875 406.354 106.55 432.888 103.254 466.759C103.254 466.759 95.9243 424.195 87.6875 406.354Z" fill="#63AD0E"/>
<path d="M103.139 474.95C103.139 474.95 107.218 439.918 85.5469 429.799C85.5469 429.799 97.1017 438.35 103.139 474.95Z" fill="#63AD0E"/>
<path d="M105.418 409.957L105.025 410.029C104.416 410.141 104.036 410.751 104.204 411.346L104.694 413.091C104.908 413.856 105.862 414.114 106.434 413.562L107.08 412.937C107.628 412.409 108.537 412.619 108.796 413.333L109.672 415.739C109.898 416.358 110.631 416.62 111.198 416.281L113.205 415.084C113.785 414.738 113.893 413.943 113.425 413.455L113.105 413.123C112.474 412.464 112.925 411.37 113.837 411.347L115.581 411.304C116.205 411.288 116.678 410.735 116.596 410.116L116.4 408.636C116.305 407.927 115.545 407.518 114.901 407.83L114.778 407.889C113.9 408.313 112.968 407.415 113.36 406.522L113.936 405.211C114.217 404.571 113.805 403.84 113.113 403.749L111.25 403.501C110.635 403.42 110.083 403.888 110.062 404.508C110.029 405.57 108.621 405.916 108.099 404.992L107.853 404.556C107.518 403.965 106.718 403.841 106.221 404.305L104.84 405.598C104.395 406.014 104.397 406.72 104.844 407.134L105.945 408.155C106.575 408.742 106.268 409.8 105.418 409.957Z" fill="#63AD0E"/>
<path opacity="0.7" d="M105.418 409.957L105.025 410.029C104.416 410.141 104.036 410.751 104.204 411.346L104.694 413.091C104.908 413.856 105.862 414.114 106.434 413.562L107.08 412.937C107.628 412.409 108.537 412.619 108.796 413.333L109.672 415.739C109.898 416.358 110.631 416.62 111.198 416.281L113.205 415.084C113.785 414.738 113.893 413.943 113.425 413.455L113.105 413.123C112.474 412.464 112.925 411.37 113.837 411.347L115.581 411.304C116.205 411.288 116.678 410.735 116.596 410.116L116.4 408.636C116.305 407.927 115.545 407.518 114.901 407.83L114.778 407.889C113.9 408.313 112.968 407.415 113.36 406.522L113.936 405.211C114.217 404.571 113.805 403.84 113.113 403.749L111.25 403.501C110.635 403.42 110.083 403.888 110.062 404.508C110.029 405.57 108.621 405.916 108.099 404.992L107.853 404.556C107.518 403.965 106.718 403.841 106.221 404.305L104.84 405.598C104.395 406.014 104.397 406.72 104.844 407.134L105.945 408.155C106.575 408.742 106.268 409.8 105.418 409.957Z" fill="white"/>
<path d="M107.153 465.933L108.662 454.234H95.4094L96.9189 465.933C90.7869 468.056 86.377 473.865 86.377 480.72C86.377 483.896 87.3226 487.66 88.9486 491.154C90.4414 494.362 93.721 496.363 97.2598 496.363H106.811C110.351 496.363 113.629 494.362 115.122 491.154C116.747 487.662 117.693 483.896 117.693 480.72C117.693 473.865 113.283 468.055 107.153 465.933Z" fill="#664EFE"/>
<path opacity="0.7" d="M107.153 465.933L108.662 454.234H95.4094L96.9189 465.933C90.7869 468.056 86.377 473.865 86.377 480.72C86.377 483.896 87.3226 487.66 88.9486 491.154C90.4414 494.362 93.721 496.363 97.2598 496.363H106.811C110.351 496.363 113.629 494.362 115.122 491.154C116.747 487.662 117.693 483.896 117.693 480.72C117.693 473.865 113.283 468.055 107.153 465.933Z" fill="#2E2E2E"/>
<path d="M369.516 352.217V495.622H373.428L376.908 359.537H381.516V352.217H369.516Z" fill="#263238"/>
<path d="M372.986 495.617H376.715L381.515 352.221H376.586L372.986 495.617Z" fill="#263238"/>
<g opacity="0.3">
<path d="M373.707 495.618H376.715L381.177 359.707H376.969L373.707 495.618Z" fill="white"/>
</g>
<path opacity="0.5" d="M369.516 352.217V495.622H373.428L376.908 359.537H381.516V352.217H369.516Z" fill="white"/>
<path d="M134.59 495.618H138.318L143.118 352.42H138.19L134.59 495.618Z" fill="#263238"/>
<path opacity="0.3" d="M134.59 495.618H138.318L143.118 352.42H138.19L134.59 495.618Z" fill="white"/>
<path d="M194.719 352.42V495.618H190.772L186.13 359.368H138.509L135.026 495.618H131.119V352.42H194.719Z" fill="#263238"/>
<path opacity="0.5" d="M194.719 352.42V495.618H190.772L186.13 359.368H138.509L135.026 495.618H131.119V352.42H194.719Z" fill="white"/>
<path d="M194.719 495.618H198.447L199.647 352.42H194.719V495.618Z" fill="#263238"/>
<path opacity="0.3" d="M194.719 495.618H198.447L199.647 352.42H194.719V495.618Z" fill="white"/>
<path d="M381.52 352.416V359.372H424.528L429.172 495.622H433.12V352.416H381.52Z" fill="#263238"/>
<path opacity="0.5" d="M381.52 352.416V359.372H424.528L429.172 495.622H433.12V352.416H381.52Z" fill="white"/>
<path d="M433.121 495.618H436.848L438.048 352.42H433.121V495.618Z" fill="#263238"/>
<g opacity="0.3">
<path d="M433.121 495.618H436.848L438.048 352.42H433.121V495.618Z" fill="white"/>
</g>
<path d="M197.796 352.371L444.572 352.371V343.171L197.796 343.171V352.371Z" fill="#263238"/>
<path opacity="0.8" d="M197.796 352.371L444.572 352.371V343.171L197.796 343.171V352.371Z" fill="white"/>
<path d="M124.595 352.371H203.525V343.171H124.595V352.371Z" fill="#263238"/>
<path opacity="0.6" d="M124.595 352.371H203.525V343.171H124.595V352.371Z" fill="white"/>
<path d="M179.49 340.629V341.901C179.49 342.56 180.024 343.094 180.683 343.094H226.313C226.92 343.094 227.412 342.602 227.412 341.995V340.769C227.412 340.162 226.92 339.67 226.313 339.67H214.966C213.677 339.67 212.699 338.509 212.919 337.239L216.899 314.242H190.981L179.885 338.798C179.625 339.374 179.49 339.998 179.49 340.629Z" fill="#263238"/>
<path opacity="0.2" d="M227.411 340.768V341.998C227.411 342.607 226.923 343.095 226.315 343.095H180.686C180.027 343.095 179.488 342.556 179.488 341.904V340.629C179.488 340.293 179.527 339.957 179.602 339.627C179.672 339.342 179.761 339.063 179.881 338.797L190.981 314.246H216.902L212.92 337.238C212.895 337.377 212.882 337.51 212.889 337.644C212.908 338.607 213.605 339.438 214.537 339.627C214.676 339.658 214.815 339.672 214.967 339.672H226.315C226.923 339.672 227.411 340.166 227.411 340.768Z" fill="white"/>
<path d="M178.417 338.8L189.513 314.244H190.981L179.885 338.8C179.624 339.375 179.49 339.999 179.49 340.63V341.902C179.49 342.561 180.024 343.095 180.683 343.095H179.216C178.557 343.095 178.023 342.561 178.023 341.902V340.63C178.022 339.999 178.157 339.375 178.417 338.8Z" fill="#263238"/>
<path opacity="0.3" d="M190.98 314.244H216.897L215.881 320.112H188.328L190.98 314.244Z" fill="#2E2E2E"/>
<path d="M260.396 316.822H149.819C147.586 316.822 145.778 315.012 145.777 312.779L145.775 232.875C145.774 230.642 147.586 228.832 149.819 228.832H260.396C262.629 228.832 264.442 230.642 264.439 232.875L264.44 312.779C264.441 315.012 262.629 316.822 260.396 316.822Z" fill="#263238"/>
<g opacity="0.2">
<path d="M260.396 316.822H149.819C147.586 316.822 145.778 315.012 145.777 312.779L145.775 232.875C145.774 230.642 147.586 228.832 149.819 228.832H260.396C262.629 228.832 264.442 230.642 264.439 232.875L264.44 312.779C264.441 315.012 262.629 316.822 260.396 316.822Z" fill="white"/>
</g>
<path d="M149.892 301.697H260.324C261.535 301.697 262.516 300.715 262.516 299.505V233.464C262.516 232.253 261.535 231.271 260.324 231.271H149.892C148.681 231.271 147.699 232.253 147.699 233.464V299.505C147.699 300.715 148.681 301.697 149.892 301.697Z" fill="#664EFE"/>
<path opacity="0.6" d="M149.892 301.697H260.324C261.535 301.697 262.516 300.715 262.516 299.505V233.464C262.516 232.253 261.535 231.271 260.324 231.271H149.892C148.681 231.271 147.699 232.253 147.699 233.464V299.505C147.699 300.715 148.681 301.697 149.892 301.697Z" fill="white"/>
<path d="M147.373 228.832H149.817C147.585 228.832 145.774 230.642 145.774 232.875V312.779C145.774 315.012 147.584 316.822 149.817 316.822H147.373C145.14 316.822 143.33 315.012 143.33 312.779V232.875C143.33 230.642 145.141 228.832 147.373 228.832Z" fill="#664EFE"/>
<path opacity="0.3" d="M147.373 228.832H149.817C147.585 228.832 145.774 230.642 145.774 232.875V312.779C145.774 315.012 147.584 316.822 149.817 316.822H147.373C145.14 316.822 143.33 315.012 143.33 312.779V232.875C143.33 230.642 145.141 228.832 147.373 228.832Z" fill="white"/>
<g opacity="0.2">
<path d="M195.415 231.271H191.168L170.037 301.697H174.285L195.415 231.271Z" fill="white"/>
<path d="M165.744 301.697L186.875 231.271H170.916L149.785 301.697H165.744Z" fill="white"/>
</g>
<path opacity="0.2" d="M187.373 340.777V341.944C187.373 342.579 187.888 343.094 188.523 343.094H226.313C226.92 343.094 227.411 342.602 227.411 341.996V340.771C227.411 340.163 226.919 339.673 226.313 339.673H214.963C214.817 339.673 214.675 339.657 214.539 339.627H188.524C187.888 339.627 187.373 340.142 187.373 340.777Z" fill="white"/>
<path opacity="0.2" d="M179.604 339.627H214.538C213.602 339.44 212.908 338.61 212.888 337.643H180.494L179.604 339.627Z" fill="#2E2E2E"/>
<path d="M266.14 340.313H269.443C269.791 340.313 270.075 340.055 270.075 339.737V336.549C270.075 336.231 269.793 335.973 269.443 335.973H267.071C266.785 335.973 266.535 336.148 266.461 336.4L265.529 339.588C265.423 339.955 265.726 340.313 266.14 340.313Z" fill="#263238"/>
<path d="M261.575 340.313H264.878C265.226 340.313 265.509 340.055 265.509 339.737V336.549C265.509 336.231 265.227 335.973 264.878 335.973H262.506C262.22 335.973 261.969 336.148 261.896 336.4L260.965 339.588C260.858 339.955 261.161 340.313 261.575 340.313Z" fill="#263238"/>
<path d="M257.008 340.313H260.312C260.66 340.313 260.943 340.055 260.943 339.737V336.549C260.943 336.231 260.661 335.973 260.312 335.973H257.939C257.654 335.973 257.403 336.148 257.33 336.4L256.399 339.588C256.292 339.955 256.594 340.313 257.008 340.313Z" fill="#263238"/>
<path d="M252.443 340.313H255.746C256.094 340.313 256.377 340.055 256.377 339.737V336.549C256.377 336.231 256.095 335.973 255.746 335.973H253.374C253.088 335.973 252.837 336.148 252.764 336.4L251.832 339.588C251.726 339.955 252.027 340.313 252.443 340.313Z" fill="#263238"/>
<path d="M247.877 340.313H251.181C251.529 340.313 251.812 340.055 251.812 339.737V336.549C251.812 336.231 251.53 335.973 251.181 335.973H248.809C248.523 335.973 248.273 336.148 248.199 336.4L247.268 339.588C247.161 339.955 247.462 340.313 247.877 340.313Z" fill="#263238"/>
<path d="M243.31 340.313H246.613C246.963 340.313 247.245 340.055 247.245 339.737V336.549C247.245 336.231 246.963 335.973 246.613 335.973H244.241C243.955 335.973 243.705 336.148 243.631 336.4L242.699 339.588C242.593 339.955 242.895 340.313 243.31 340.313Z" fill="#263238"/>
<path d="M238.745 340.313H242.049C242.398 340.313 242.68 340.055 242.68 339.737V336.549C242.68 336.231 242.398 335.973 242.049 335.973H239.677C239.391 335.973 239.14 336.148 239.067 336.4L238.135 339.588C238.029 339.955 238.33 340.313 238.745 340.313Z" fill="#263238"/>
<path d="M234.178 340.313H237.481C237.829 340.313 238.113 340.055 238.113 339.737V336.549C238.113 336.231 237.831 335.973 237.481 335.973H235.109C234.823 335.973 234.573 336.148 234.499 336.4L233.568 339.588C233.463 339.955 233.764 340.313 234.178 340.313Z" fill="#263238"/>
<path d="M229.612 340.313H232.916C233.264 340.313 233.547 340.055 233.547 339.737V336.549C233.547 336.231 233.265 335.973 232.916 335.973H230.543C230.258 335.973 230.007 336.148 229.934 336.4L229.001 339.588C228.897 339.955 229.198 340.313 229.612 340.313Z" fill="#263238"/>
<path d="M225.046 340.313H228.35C228.698 340.313 228.981 340.055 228.981 339.737V336.549C228.981 336.231 228.699 335.973 228.35 335.973H225.977C225.692 335.973 225.442 336.148 225.368 336.4L224.435 339.588C224.33 339.955 224.632 340.313 225.046 340.313Z" fill="#263238"/>
<path d="M220.48 340.313H223.783C224.131 340.313 224.414 340.055 224.414 339.737V336.549C224.414 336.231 224.132 335.973 223.783 335.973H221.411C221.125 335.973 220.874 336.148 220.801 336.4L219.869 339.588C219.763 339.955 220.066 340.313 220.48 340.313Z" fill="#263238"/>
<path d="M215.912 340.313H219.216C219.564 340.313 219.847 340.055 219.847 339.737V336.549C219.847 336.231 219.565 335.973 219.216 335.973H216.844C216.558 335.973 216.307 336.148 216.234 336.4L215.303 339.588C215.196 339.955 215.498 340.313 215.912 340.313Z" fill="#263238"/>
<path d="M211.347 340.313H214.651C214.999 340.313 215.282 340.055 215.282 339.737V336.549C215.282 336.231 215 335.973 214.651 335.973H212.28C211.994 335.973 211.743 336.148 211.67 336.4L210.739 339.588C210.631 339.955 210.933 340.313 211.347 340.313Z" fill="#263238"/>
<path d="M206.781 340.313H210.086C210.434 340.313 210.717 340.055 210.717 339.737V336.549C210.717 336.231 210.435 335.973 210.086 335.973H207.713C207.428 335.973 207.177 336.148 207.104 336.4L206.172 339.588C206.064 339.955 206.367 340.313 206.781 340.313Z" fill="#263238"/>
<path d="M202.215 340.313H205.519C205.867 340.313 206.15 340.055 206.15 339.737V336.549C206.15 336.231 205.868 335.973 205.519 335.973H203.146C202.861 335.973 202.61 336.148 202.537 336.4L201.606 339.588C201.499 339.955 201.801 340.313 202.215 340.313Z" fill="#263238"/>
<path d="M198.891 340.66C198.891 342.048 200.133 343.169 201.641 343.169H270.007C271.529 343.169 272.758 342.048 272.758 340.66C272.758 339.965 272.451 339.331 271.956 338.881C271.475 338.443 270.808 338.162 270.073 338.15H201.64C201.373 338.15 201.119 338.188 200.879 338.248C199.731 338.551 198.891 339.514 198.891 340.66Z" fill="#263238"/>
<path opacity="0.2" d="M198.891 340.66C198.891 342.048 200.133 343.169 201.641 343.169H270.007C271.529 343.169 272.758 342.048 272.758 340.66C272.758 339.965 272.451 339.331 271.956 338.881C271.475 338.443 270.808 338.162 270.073 338.15H201.64C201.373 338.15 201.119 338.188 200.879 338.248C199.731 338.551 198.891 339.514 198.891 340.66Z" fill="white"/>
<path d="M198.891 340.66C198.891 342.048 200.133 343.169 201.641 343.169H224.79C225.898 342.84 226.699 341.89 226.699 340.769C226.699 340.611 226.686 340.464 226.66 340.318C226.553 339.807 226.287 339.344 225.886 338.991C225.712 338.832 225.513 338.698 225.299 338.577C225.192 338.528 225.085 338.48 224.979 338.43C224.645 338.308 224.297 338.248 223.924 338.248H200.883C199.731 338.552 198.891 339.514 198.891 340.66Z" fill="#263238"/>
<path d="M413.674 294.57C413.674 294.57 422.512 404.43 422.581 405.06L428.173 470.562H440.325C440.325 470.562 440.704 467.046 441.46 462.073C448.078 418.529 443.381 404.196 443.381 404.196C443.381 404.196 449.211 320.125 451.247 313.784C451.456 313.132 444.609 266.99 413.674 294.57Z" fill="#263238"/>
<g opacity="0.2">
<path d="M413.674 294.57C413.674 294.57 422.512 404.43 422.581 405.06L428.173 470.562H440.325C440.325 470.562 440.704 467.046 441.46 462.073C448.078 418.529 443.381 404.196 443.381 404.196C443.381 404.196 449.211 320.125 451.247 313.784C451.456 313.132 444.609 266.99 413.674 294.57Z" fill="#2E2E2E"/>
</g>
<path d="M413.742 293.056C416.316 302.54 422.352 310.714 430.659 315.965L439.054 321.273C439.054 321.273 482.769 279.142 444.403 269.908C436.98 268.121 413.742 293.056 413.742 293.056Z" fill="#263238"/>
<path d="M523.319 459.81L515.69 464.953L508.548 455.785L500.82 445.86L500.814 445.849L509.8 439.689L511.016 441.499L517.035 450.453L523.319 459.81Z" fill="#EB9481"/>
<path opacity="0.2" d="M517.035 450.455L508.548 455.786L500.82 445.861L510.012 440.094L511.015 441.5L517.035 450.455Z" fill="#2E2E2E"/>
<path d="M472.886 335.485C473.06 349.995 476.224 376.198 478.229 390.569C478.229 390.569 489.077 403.441 494.934 412.365L513.555 443.007L502.077 450.441L465.588 411.089C455.127 403.141 456.803 398.343 454.148 391.074C447.658 373.315 443.478 354.167 440.628 336.827C439.306 328.785 433.506 302.673 435.53 294.777C438.245 284.179 441.4 265.913 453.834 273.766C464.284 280.366 472.353 291.114 472.886 335.485Z" fill="#263238"/>
<path d="M517.875 446.028L503.685 454.965L497.922 449.04L513.871 438.84L517.875 446.028Z" fill="#664EFE"/>
<path d="M514.18 465.277L519.957 455.168C520.146 454.793 520.594 454.626 520.983 454.789L529.621 458.189C530.463 458.551 530.851 459.527 530.49 460.368C530.466 460.424 530.439 460.481 530.407 460.533C528.334 464.017 527.173 465.594 524.637 470.03C523.091 472.761 520.049 479.022 517.911 482.797C515.772 486.573 511.916 484.649 512.472 482.879C514.965 474.987 514.567 470.564 513.917 467.06C513.797 466.452 513.889 465.823 514.18 465.277Z" fill="#263238"/>
<path d="M512.555 470.685C513.806 470.275 514.66 467.995 515.025 466.686C515.05 466.592 515.019 466.494 514.947 466.43C514.874 466.364 514.766 466.352 514.68 466.4C514.298 466.593 510.991 468.323 510.869 469.628C510.842 469.931 510.977 470.223 511.224 470.4C511.331 470.481 511.446 470.551 511.567 470.61C511.874 470.765 512.229 470.792 512.555 470.685ZM514.386 467.115C513.795 468.857 513.08 470.001 512.406 470.221C512.095 470.309 511.76 470.226 511.525 470.004C511.407 469.941 511.341 469.812 511.359 469.68C511.425 468.986 513.08 467.849 514.386 467.115Z" fill="#664EFE"/>
<path d="M514.918 466.826C514.994 466.782 515.04 466.699 515.038 466.611C515.025 466.527 514.972 466.454 514.898 466.413C514.788 466.35 512.199 464.896 510.777 465.376C510.423 465.493 510.138 465.757 509.996 466.101C509.804 466.455 509.88 466.894 510.181 467.163C510.258 467.227 510.343 467.28 510.434 467.319C511.526 467.852 514.017 467.364 514.918 466.826ZM514.258 466.609C513.082 467.07 511.041 467.263 510.5 466.792C510.416 466.71 510.324 466.581 510.447 466.299C510.535 466.076 510.716 465.904 510.943 465.83C511.77 465.553 513.277 466.141 514.182 466.574L514.258 466.609Z" fill="#664EFE"/>
<path d="M389.593 337.621L381.529 337.106C381.529 337.106 375.873 296.47 375.333 294.85C374.589 291.898 370.067 269.245 368.279 263.461L369.143 263.329C368.183 260.353 368.999 257.137 372.131 256.165C375.275 255.193 379.559 256.813 380.507 259.801C382.523 265.837 386.361 288.574 386.937 291.334C386.949 291.394 386.961 291.466 386.961 291.526C388.738 303.346 389.593 337.621 389.593 337.621Z" fill="#EB9481"/>
<path d="M389.592 337.62C389.635 341.311 386.233 343.224 383.814 343.476H371.016L370.272 343.296C369.948 343.212 369.852 342.792 370.104 342.576L372.406 340.723C374.95 338.675 378.39 338.008 381.529 337.105L389.592 337.62Z" fill="#EB9481"/>
<path d="M373.909 243.74C360.813 250.044 369.961 276.289 369.961 276.289L386.055 274.761C386.055 274.761 387.652 255.733 385.821 249.794C383.892 243.609 380.166 239.647 373.909 243.74Z" fill="#664EFE"/>
<path opacity="0.2" d="M378.752 275.455C378.752 275.455 375.149 256.238 378.679 252.651C379.715 251.875 380.885 251.295 382.13 250.941C386.436 252.807 385.543 259.008 385.543 259.008L386.054 274.761C384.034 275.102 378.752 275.455 378.752 275.455Z" fill="#2E2E2E"/>
<path d="M376.372 260.478C380.572 267.766 389.571 277.528 413.548 292.539L443.134 269.738C433.191 257.842 426.989 249.923 414.842 224.254C413.654 221.745 411.437 219.791 408.73 219.176C406.409 218.648 404.076 219.047 402.154 220.169C399.962 221.456 397.575 222.935 395.247 224.561C389.945 228.07 384.9 231.952 380.15 236.177C376.83 239.242 373.52 242.747 371.164 245.32C371.164 245.32 371.195 245.728 371.352 246.666C372.166 251.538 373.906 256.199 376.372 260.478Z" fill="#664EFE"/>
<path opacity="0.2" d="M416.661 226.908C417.055 227.933 417.459 228.955 417.862 229.863C419.461 233.827 422.455 239.806 424.621 243.491C415.046 245.202 405.202 239.899 403.753 236.437C402.833 234.337 411.859 228.315 416.661 226.908Z" fill="#2E2E2E"/>
<path d="M442.134 267.408L445.925 269.225C446.221 269.366 446.159 269.802 445.746 270.107L413.675 294.571C413.371 294.808 413.009 294.841 412.852 294.677L410.258 291.931C410.078 291.742 410.203 291.372 410.532 291.114L441.402 267.569C441.599 267.388 441.878 267.328 442.134 267.408Z" fill="#664EFE"/>
<path opacity="0.6" d="M442.134 267.408L445.925 269.225C446.221 269.366 446.159 269.802 445.746 270.107L413.675 294.571C413.371 294.808 413.009 294.841 412.852 294.677L410.258 291.931C410.078 291.742 410.203 291.372 410.532 291.114L441.402 267.569C441.599 267.388 441.878 267.328 442.134 267.408Z" fill="white"/>
<path d="M410.529 291.114L441.399 267.568L410.529 291.114Z" fill="#664EFE"/>
<path d="M440.499 274.635L441.363 273.954C441.545 273.813 441.612 273.614 441.516 273.516L438.109 269.972C438.009 269.864 437.783 269.898 437.602 270.04L436.733 270.711C436.561 270.849 436.493 271.047 436.594 271.155L439.997 274.69C440.098 274.797 440.335 274.792 440.499 274.635Z" fill="#263238"/>
<path d="M416.503 292.965L417.367 292.284C417.553 292.152 417.62 291.954 417.52 291.846L414.117 288.311C414.016 288.203 413.787 288.228 413.606 288.37L412.742 289.05C412.561 289.192 412.492 289.391 412.588 289.488L415.995 293.033C416.091 293.13 416.322 293.106 416.503 292.965Z" fill="#263238"/>
<path d="M380.666 208.705C383.455 214.301 389.348 223.929 395.246 224.563C395.246 224.563 398.671 233.024 392.247 248.665C378.348 245.697 380.149 236.18 380.149 236.18C384.572 230.719 381.337 226.808 377.482 223.764L380.666 208.705Z" fill="#EB9481"/>
<path d="M393.21 250.491L393.713 249.267C400.307 233.214 396.918 223.895 396.768 223.525L393.414 224.088L393.774 225.149C393.806 225.227 396.66 232.872 391.283 246.805C380.549 243.961 381.171 234.952 381.226 234.636L378.871 237.285C378.851 237.395 376.68 246.961 391.917 250.216L393.21 250.491Z" fill="#664EFE"/>
<path opacity="0.6" d="M393.21 250.491L393.713 249.267C400.307 233.214 396.918 223.895 396.768 223.525L393.414 224.088L393.774 225.149C393.806 225.227 396.66 232.872 391.283 246.805C380.549 243.961 381.171 234.952 381.226 234.636L378.871 237.285C378.851 237.395 376.68 246.961 391.917 250.216L393.21 250.491Z" fill="white"/>
<path opacity="0.2" d="M380.317 210.352C382.475 213.295 383.976 216.668 384.72 220.242C385.217 222.708 383.767 227.762 381.08 227.414C380.077 226.004 378.861 224.758 377.477 223.721L380.317 210.352Z" fill="#2E2E2E"/>
<path d="M363.946 237.009C352.805 227.762 349.664 214.928 349.505 203.476C349.475 201.317 349.948 194.34 352.103 194.217C368.826 193.257 349.941 210.026 363.946 237.009Z" fill="#263238"/>
<path d="M377.691 198.144C383.135 206.462 385.618 209.865 384.639 216.947C383.17 227.597 371.77 232.467 363.965 225.934C356.922 220.055 349.204 207.432 354.634 198.46C358.491 192.039 366.822 189.96 373.243 193.817C375.04 194.896 376.563 196.378 377.691 198.144Z" fill="#EB9481"/>
<path d="M367.713 222.701C367.713 222.701 369.062 220.001 374.663 213.924C376.4 216.554 377.098 219.434 374.225 222.553C372.986 224.265 370.226 224.448 368.061 222.96C367.942 222.877 367.826 222.792 367.713 222.701Z" fill="#263238"/>
<path d="M373.643 219.58C372.455 220.709 371.769 222.226 371.684 223.916C372.707 223.734 373.582 223.254 374.188 222.541C375.378 221.418 376.064 219.902 376.142 218.213C375.116 218.382 374.241 218.861 373.643 219.58Z" fill="#FF5652"/>
<path d="M367.904 222.373C368.612 222.728 369.407 222.728 369.962 222.37C371.613 220.556 373.068 218.589 374.31 216.49C374.767 215.855 374.797 214.989 374.388 214.178C371.96 216.709 369.793 219.449 367.904 222.373Z" fill="white"/>
<path d="M362.674 214.477C363.04 216.49 363.129 218.545 362.938 220.582C363.993 220.649 365.023 220.249 365.757 219.487L362.674 214.477Z" fill="#FF5652"/>
<path d="M365.726 206.145C365.647 206.165 365.564 206.16 365.488 206.13C364.335 205.758 363.074 205.965 362.1 206.685C361.902 206.853 361.606 206.829 361.437 206.632C361.264 206.445 361.275 206.153 361.462 205.98C361.47 205.973 361.478 205.967 361.486 205.96C362.703 205.036 364.292 204.759 365.75 205.217C366.002 205.295 366.147 205.558 366.08 205.813C366.024 205.975 365.892 206.1 365.726 206.145Z" fill="#263238"/>
<path d="M354.631 214.535L354.556 214.567C354.294 214.579 354.071 214.379 354.054 214.118C353.932 212.588 354.565 211.094 355.75 210.116C355.958 209.961 356.254 210.005 356.408 210.214C356.558 210.427 356.518 210.719 356.314 210.883C355.391 211.665 354.905 212.846 355.01 214.051C355.013 214.281 354.856 214.483 354.631 214.535Z" fill="#263238"/>
<path d="M366.75 209.452C367.232 210.097 367.322 210.867 366.859 211.198C366.396 211.53 365.697 211.249 365.211 210.595C364.725 209.941 364.639 209.18 365.101 208.849C365.565 208.518 366.269 208.808 366.75 209.452Z" fill="#263238"/>
<path d="M359.21 214.837C359.693 215.481 359.783 216.252 359.321 216.583C358.857 216.914 358.164 216.62 357.683 215.975C357.2 215.33 357.11 214.56 357.573 214.229C358.034 213.897 358.724 214.182 359.21 214.837Z" fill="#263238"/>
<path d="M357.786 214.133L355.887 214.902C355.887 214.902 357.594 215.459 357.786 214.133Z" fill="#263238"/>
<path d="M365.331 208.789L363.432 209.558C363.432 209.558 365.137 210.084 365.331 208.789Z" fill="#263238"/>
<path d="M380.645 203.625C385.18 205.418 384.639 216.946 384.639 216.946C384.45 217.391 389.575 210.573 386.699 194.603C384.784 183.963 366.399 180.5 352.805 193.257C350.152 195.747 351.737 210.21 352.779 207.592C354.037 204.43 362.136 198.406 367.187 197.111C366.686 196.756 377.97 202.568 380.645 203.625Z" fill="#263238"/>
<path d="M379.72 194.361C381.209 193.516 382.261 191.942 382.47 190.242C382.68 188.542 382.042 186.758 380.802 185.577C379.591 184.423 377.933 183.884 376.321 183.432C374.711 182.979 373.041 182.558 371.692 181.568C370.343 180.578 369.959 179.331 369.825 177.234C368.406 178.596 368.453 180.039 368.397 180.523C367.188 179.631 366.99 178.316 366.531 175.418C365.596 177.22 365.353 178.942 365.919 180.418C365.028 180.073 364.456 179.436 364.056 176.613C362.573 180.26 363.515 183.372 364.267 183.902C362.279 183.793 360.477 185.511 360.139 187.474C359.803 189.436 360.727 191.47 362.183 192.83C363.639 194.19 365.559 194.952 367.498 195.403C371.413 196.315 375.595 196.05 379.365 194.652C379.373 194.395 379.72 194.361 379.72 194.361Z" fill="#263238"/>
<path d="M386.232 201.617C387.205 203.275 387.485 205.252 387.01 207.114C386.364 209.586 383.833 209.504 382.188 207.762C380.698 206.155 379.258 202.981 380.791 201.034C381.934 199.637 383.992 199.429 385.39 200.572C385.739 200.857 386.027 201.214 386.232 201.617Z" fill="#EB9481"/>
<path d="M372.448 247.814L362.014 249.194L362.162 258.383C362.162 258.383 369.263 256.831 372.156 253.097L372.448 247.814Z" fill="#EB9481"/>
<path d="M355.933 253.283L355.449 260.078L362.163 258.384L362.014 249.195L355.933 253.283Z" fill="#EB9481"/>
<g opacity="0.2">
<path d="M361.511 257.455C361.471 257.48 361.395 257.546 361.326 257.64L361.511 257.455Z" fill="#2E2E2E"/>
</g>
<path d="M415.878 230.26C417.491 237.051 417.144 249.802 416.927 254.88C416.825 257.263 415.957 259.588 414.302 261.307C412.312 263.374 408.943 264.944 403.506 262.615C397.973 260.245 371.996 254.485 372.059 253.132L372.325 247.882C372.325 247.882 388.131 248.388 405.08 250.264C405.841 242.326 404.311 232.276 405.017 229.586C406.159 225.216 413.844 221.653 415.878 230.26Z" fill="#EB9481"/>
<path d="M405.378 219.135C401.823 221.769 401.344 241.734 401.344 241.734L419.721 242.106C419.721 242.106 419.663 228.795 418.163 224.892C415.743 218.597 409.419 216.162 405.378 219.135Z" fill="#664EFE"/>
<path d="M439.44 487.004L430.075 486.117L428.811 466.945L440.253 466.359L439.44 487.004Z" fill="#EB9481"/>
<path opacity="0.2" d="M428.848 466.585L429.494 477.43L439.846 476.712L440.545 466.25L428.848 466.585Z" fill="#2E2E2E"/>
<path d="M428.191 483.367L440.419 482.541C440.87 482.528 441.279 482.802 441.439 483.224L444.749 492.722C445.035 493.506 444.633 494.373 443.85 494.66C443.703 494.714 443.549 494.744 443.393 494.751C439.107 494.967 437.046 494.863 431.628 495.228C428.318 495.451 419.791 496.367 415.217 496.675C410.641 496.985 409.505 492.529 411.331 491.993C419.493 489.599 424.107 486.745 426.506 484.159C426.944 483.684 427.549 483.399 428.191 483.367Z" fill="#263238"/>
<path d="M426.854 485.15C426.954 485.118 427.021 485.024 427.021 484.92C427.024 484.817 426.958 484.724 426.859 484.693C425.988 484.393 421.638 482.952 420.614 483.815C420.413 483.985 420.323 484.251 420.38 484.508C420.445 484.97 420.72 485.377 421.124 485.609C421.883 485.97 422.734 486.084 423.56 485.935C424.682 485.79 425.788 485.527 426.854 485.15ZM421.392 484.029C422.959 484.089 424.507 484.391 425.981 484.925C423.839 485.567 422.15 485.671 421.379 485.21C421.096 485.046 420.905 484.76 420.862 484.436C420.835 484.349 420.863 484.255 420.931 484.195C421.069 484.104 421.228 484.051 421.393 484.04L421.392 484.029Z" fill="#664EFE"/>
<path d="M426.956 485.109C427.016 485.045 427.035 484.953 427.005 484.87C426.943 484.685 425.436 480.393 423.06 480.932C422.437 481.072 422.271 481.408 422.298 481.66C422.263 482.832 425.272 484.766 426.708 485.177L426.802 485.168C426.859 485.165 426.913 485.145 426.956 485.109ZM423.328 481.36C424.82 481.202 425.913 483.488 426.345 484.461C424.86 483.875 422.761 482.322 422.785 481.65C422.782 481.523 422.907 481.403 423.17 481.376L423.328 481.36Z" fill="#664EFE"/>
<path d="M443.457 473.453L425.938 474.315L423.994 466.566L444.349 465.256L443.457 473.453Z" fill="#664EFE"/>
<path d="M220.896 486.28L212.07 484.26L216.423 464.627L228.195 468.699L220.896 486.28Z" fill="#AD6359"/>
<path opacity="0.2" d="M230.915 461.877L218.036 456.805L215.234 469.99L226.146 473.426L230.915 461.877Z" fill="#2E2E2E"/>
<path d="M257.515 486.281L248.549 485.017L252.236 461.822L264.311 464.88L257.515 486.281Z" fill="#AD6359"/>
<path opacity="0.2" d="M266.44 457.852L253.178 453.891L251.115 468.682L262.498 470.703L266.44 457.852Z" fill="#2E2E2E"/>
<path d="M310.926 354.33C310.926 354.33 259.865 360.266 257.582 381.373C255.299 408.89 256.626 401.104 250.398 464.689L265.532 465.524C265.532 465.524 280.926 413.514 278.85 392.85C295.806 392.85 334.626 394.338 340.266 379.038C343.067 371.269 344.429 363.055 344.286 354.798L310.926 354.33Z" fill="#664EFE"/>
<g opacity="0.2">
<path d="M310.926 354.33C310.926 354.33 259.865 360.266 257.582 381.373C255.299 408.89 256.626 401.104 250.398 464.689L265.532 465.524C265.532 465.524 280.926 413.514 278.85 392.85C295.806 392.85 334.626 394.338 340.266 379.038C343.067 371.269 344.429 363.055 344.286 354.798L310.926 354.33Z" fill="#2E2E2E"/>
</g>
<path d="M265.873 468.1L248.549 465.135L249.15 456.805L268.96 460.869L265.873 468.1Z" fill="#263238"/>
<path d="M248.779 480.561L258.883 482.559C259.239 482.611 259.494 482.989 259.459 483.41L258.619 492.963C258.466 493.993 257.646 494.69 256.771 494.537C253.267 493.771 251.611 493.205 247.171 492.326C244.435 491.787 238.183 490.47 234.379 490.045C230.575 489.62 231.031 485.169 232.675 484.943C240.067 483.965 244.267 482.774 247.135 480.918C247.635 480.585 248.213 480.461 248.779 480.561Z" fill="#263238"/>
<path d="M244.247 482.293C245.042 482.401 245.846 482.425 246.647 482.365C246.728 482.364 246.801 482.311 246.827 482.233C246.867 482.162 246.867 482.076 246.827 482.005C246.575 481.753 244.307 479.605 243.143 479.845C242.869 479.892 242.643 480.086 242.555 480.349C242.363 480.733 242.39 481.19 242.627 481.549C243.057 481.987 243.635 482.251 244.247 482.293ZM246.179 481.969C244.511 481.969 243.335 481.777 242.987 481.285C242.847 481.048 242.847 480.753 242.987 480.517C243.025 480.386 243.131 480.285 243.263 480.253C243.875 480.121 245.243 481.129 246.179 481.969Z" fill="#664EFE"/>
<path d="M246.658 482.364C246.658 482.364 246.718 482.364 246.754 482.364C246.824 482.338 246.876 482.28 246.898 482.208C246.898 482.1 247.558 479.544 246.79 478.524C246.6 478.247 246.286 478.08 245.95 478.08C245.579 478.028 245.222 478.236 245.086 478.584C244.714 479.532 245.746 481.632 246.55 482.316C246.579 482.345 246.617 482.363 246.658 482.364ZM246.034 478.512C246.204 478.54 246.356 478.635 246.454 478.776C246.806 479.723 246.844 480.759 246.562 481.728C245.835 480.906 245.448 479.837 245.482 478.74C245.482 478.62 245.614 478.488 245.926 478.5L246.034 478.512Z" fill="#664EFE"/>
<path d="M293.023 354.33C292.627 354.33 225.583 361.23 225.499 383.97C222.922 400.763 214.615 464.689 214.615 464.689L228.796 469.316C228.796 469.316 250.939 424.518 250.591 395.202C269.035 389.91 316.747 398.802 322.387 383.514C327.007 371.01 324.511 354.33 324.511 354.33H293.023Z" fill="#664EFE"/>
<path d="M229.625 470.961L212.844 465.458L214.273 458.186L232.999 464.573L229.625 470.961Z" fill="#263238"/>
<path d="M212.648 479.463L222.776 481.567C223.126 481.632 223.376 482.045 223.34 482.502L222.548 493.004C222.412 494.144 221.591 494.925 220.713 494.75C217.209 493.94 215.552 493.316 211.112 492.397C208.376 491.837 200.924 490.028 197.168 489.047C193.412 488.065 194.252 483.281 195.968 483.249C203.396 483.14 208.208 481.925 211.064 479.852C211.544 479.501 212.101 479.364 212.648 479.463Z" fill="#263238"/>
<path d="M208.489 481.731C209.195 481.348 209.856 480.891 210.465 480.368C210.533 480.313 210.561 480.223 210.536 480.139C210.511 480.062 210.441 480.007 210.361 479.999C210.009 479.944 206.911 479.541 206.108 480.436C205.928 480.644 205.867 480.929 205.946 481.192C206.016 481.616 206.307 481.97 206.711 482.12C207.33 482.218 207.966 482.079 208.489 481.731ZM209.844 480.329C208.539 481.352 207.447 481.85 206.874 481.673C206.617 481.562 206.442 481.321 206.415 481.042C206.37 480.916 206.399 480.775 206.49 480.676C206.919 480.245 208.599 480.211 209.844 480.329Z" fill="#664EFE"/>
<path d="M210.466 480.368L210.554 480.305C210.598 480.25 210.608 480.174 210.575 480.11C210.512 480.023 209.525 477.565 208.304 477.192C207.987 477.089 207.64 477.143 207.37 477.337C207.041 477.518 206.878 477.9 206.975 478.262C207.232 479.248 209.304 480.323 210.366 480.395C210.401 480.394 210.435 480.384 210.466 480.368ZM207.676 477.634C207.827 477.548 208.008 477.53 208.174 477.583C209.02 478.141 209.668 478.954 210.024 479.903C208.947 479.676 207.998 479.044 207.374 478.136C207.303 478.039 207.332 477.854 207.592 477.682L207.676 477.634Z" fill="#664EFE"/>
<path d="M327.745 290.461C330.423 304.639 330.754 313.915 330.334 323.238C330.157 327.174 327.64 330.656 323.914 331.935C311.085 336.339 277.857 338.001 267.107 336.644L271.467 332.048C271.467 332.048 317.12 323.147 315.968 319.583C315.968 319.583 313.813 296.799 312.397 293.451L327.745 290.461Z" fill="#AD6359"/>
<path d="M272.388 332.153L264.661 327.096L256.656 332.521C256.656 332.521 262.755 337.765 268.499 336.427L272.388 332.153Z" fill="#AD6359"/>
<path d="M257.612 328.864L253.409 332.116C253.076 332.373 253.231 332.904 253.649 332.944L258.612 333.409L264.662 327.094L257.612 328.864Z" fill="#AD6359"/>
<path d="M292.748 284.326C296.557 285.208 298.895 289.047 297.939 292.838C297.528 294.47 284.511 324.898 283.877 325.915C279.576 336.427 271.967 335.74 261.57 336.097C253.308 336.004 247.145 336.698 239.072 334.941L241.057 330.628C246.753 330.38 258.842 326.203 265.933 324.2C268.669 323.427 271.059 321.836 272.253 319.256C275.601 312.022 283.319 293.714 284.427 289.377C285.361 285.71 289.062 283.472 292.748 284.326Z" fill="#AD6359"/>
<path d="M241.481 330.632L234.857 327.732L229.295 334.188C229.295 334.188 238.183 337.023 239.73 334.311L241.481 330.632Z" fill="#AD6359"/>
<path d="M226.768 333.152L225.13 334.696C224.672 335.128 225.152 335.874 225.734 335.636L229.294 334.186L234.856 327.73L228.994 331.425C228.198 331.928 227.453 332.506 226.768 333.152Z" fill="#AD6359"/>
<path d="M299.793 246.951L306.721 251.259L316.994 256.873C316.958 257.318 317.21 263.01 317.624 264.631C318.459 267.904 319.616 270.531 325.376 271.132C325.376 271.132 332.876 276.433 319.598 278.452C306.319 280.472 302.359 274.489 302.359 274.489C306.73 268.738 302.542 254.206 299.793 246.951Z" fill="#AD6359"/>
<path d="M323.778 232.931C324.026 233.723 324.632 234.272 325.167 234.131C325.702 233.991 325.928 233.235 325.692 232.439C325.457 231.644 324.827 231.101 324.304 231.238C323.781 231.376 323.543 232.136 323.778 232.931Z" fill="#263238"/>
<path d="M320.138 231.126C320.299 231.094 320.432 230.98 320.489 230.826C320.927 229.637 321.892 228.718 323.102 228.339C323.362 228.274 323.525 228.016 323.474 227.753C323.415 227.489 323.152 227.322 322.888 227.381C321.357 227.826 320.127 228.971 319.574 230.467C319.481 230.721 319.604 231.001 319.853 231.105C319.945 231.138 320.043 231.144 320.138 231.126Z" fill="#263238"/>
<path d="M324.35 233.742C325.667 235.704 327.24 237.481 329.027 239.028C328.205 239.902 327.035 240.364 325.836 240.286L324.35 233.742Z" fill="#ED847E"/>
<path d="M296.075 237.691C299.598 247.339 301.192 253.215 307.674 256.876C310.613 258.599 313.932 259.085 317.021 258.475C318.881 258.109 320.668 257.35 322.23 256.234L322.241 256.231C323.719 255.166 324.991 253.802 325.968 252.14C327.338 249.802 327.968 247.105 327.781 244.409C327.284 235.036 321.589 220.837 310.765 219.422C303.398 218.249 296.48 223.271 295.307 230.639C294.929 233.007 295.2 235.449 296.075 237.691Z" fill="#AD6359"/>
<path opacity="0.2" d="M317.021 258.473C318.881 258.107 320.668 257.348 322.23 256.232C321.97 256.326 318.652 257.537 316.893 256.652L317.021 258.473Z" fill="#2E2E2E"/>
<path d="M291.43 245.702C296.712 253.73 303.548 259.585 303.548 259.585C306.941 258.57 309.893 257.992 313.343 257.192C314.692 253.303 314.98 241.123 316.256 239.056C317.531 236.99 320.163 234.267 321.287 232.114C322.828 229.162 322.407 225.396 320.568 222.619C318.73 219.842 315.62 218.091 312.368 217.377C304.896 215.734 299.018 219.394 296.26 221.798C294.006 223.761 292.725 226.186 292.612 227.835C287.949 230.944 286.632 238.41 291.43 245.702Z" fill="#263238"/>
<path d="M292.159 222.846C291.952 224.487 292.089 226.172 292.56 227.76C291.393 227.463 290.549 226.323 290.447 225.123C290.346 223.923 291.059 223.334 292.159 222.846Z" fill="#263238"/>
<path d="M313.217 239.834C314.32 242.144 316.13 244.044 318.384 245.256C321.204 246.655 322.406 244.002 321.446 240.837C320.555 237.98 318.076 233.787 315.281 233.737C312.486 233.688 311.78 236.871 313.217 239.834Z" fill="#AD6359"/>
<path d="M340.532 274.123C339.632 271.723 335.148 268.881 330.967 269.323H328.172C325.196 269.323 324.464 269.563 320.864 269.983C314.005 270.741 307.194 271.887 300.464 273.415C297.368 274.231 294.38 275.263 292.004 276.151C289.605 275.448 291.775 296.393 292.232 322.13C292.449 334.359 292.791 346.435 293.096 354.763H344.288C344.288 354.763 343.599 339.301 343.743 321.229C343.826 310.381 344.24 283.999 340.532 274.123Z" fill="#263238"/>
<path opacity="0.2" d="M291.125 309.883C291.509 314.479 291.905 319.303 292.325 324.127C297.607 306.806 301.001 289.402 301.001 289.402L291.125 309.883Z" fill="#2E2E2E"/>
<path d="M287.204 278.154C280.615 283.387 274.109 309 274.109 309L289.802 317.33C295.174 310.336 303.647 294.854 303.706 288.756C303.874 279.385 295.597 272.477 287.204 278.154Z" fill="#263238"/>
<path d="M274.624 493.601C274.624 496.483 272.286 498.821 269.404 498.821C266.521 498.821 264.184 496.483 264.184 493.601C264.184 490.718 266.521 488.381 269.404 488.381C272.286 488.381 274.624 490.717 274.624 493.601Z" fill="#263238"/>
<path d="M352.492 493.601C352.492 496.483 354.83 498.821 357.712 498.821C360.595 498.821 362.932 496.483 362.932 493.601C362.932 490.718 360.595 488.381 357.712 488.381C354.829 488.381 352.492 490.717 352.492 493.601Z" fill="#263238"/>
<path d="M308.477 491.931C308.477 494.813 310.814 497.151 313.697 497.151C316.579 497.151 318.917 494.813 318.917 491.931C318.917 489.049 316.579 486.711 313.697 486.711C310.813 486.711 308.477 489.049 308.477 491.931Z" fill="#263238"/>
<path d="M364.645 485.388C364.435 486.6 363.433 487.464 362.296 487.428L312.291 486.684L265.471 487.836C264.335 487.872 263.332 487.008 263.113 485.796C262.87 484.416 263.697 483.084 264.953 482.82L290.524 477.408C293.18 476.868 295.87 476.592 298.559 476.592H326.037C328.737 476.592 331.427 476.868 334.072 477.408L362.817 482.412C364.071 482.676 364.898 484.008 364.645 485.388Z" fill="#263238"/>
<path d="M322.768 430.396H304.252V476.608H322.768V430.396Z" fill="#263238"/>
<path d="M320.116 408.893H306.916V430.385H320.116V408.893Z" fill="#664EFE"/>
<path opacity="0.2" d="M320.116 408.893H306.916V430.385H320.116V408.893Z" fill="#2E2E2E"/>
<path opacity="0.5" d="M320.116 408.893H306.916V430.385H320.116V408.893Z" fill="#2E2E2E"/>
<path opacity="0.5" d="M306.916 415.205L320.116 418.529V408.893H306.916V415.205Z" fill="#2E2E2E"/>
<path d="M268.923 360.268H262.215V388.888H268.923V360.268Z" fill="#664EFE"/>
<path opacity="0.5" d="M268.923 360.268H262.215V388.888H268.923V360.268Z" fill="#2E2E2E"/>
<path d="M302.555 408.892V292.582C302.555 287.871 304.587 283.39 308.132 280.287L317 272.523C319.98 269.915 323.804 268.477 327.764 268.477H344.076L359.73 285.133V408.891H302.555V408.892Z" fill="#664EFE"/>
<path d="M254.86 384.82H327.94V408.892H242.956C238.183 408.896 234.313 405.031 234.309 400.26C234.307 398.708 234.724 397.184 235.516 395.848C239.56 389.011 246.915 384.817 254.86 384.82Z" fill="#664EFE"/>
<path opacity="0.7" d="M359.732 285.14V408.899H242.953C238.189 408.899 234.312 405.035 234.312 400.259C234.312 398.711 234.72 397.187 235.512 395.855C239.556 389.027 246.889 384.827 254.821 384.827H291.628C297.663 384.827 302.557 379.934 302.557 373.898V292.58C302.557 287.876 304.585 283.388 308.136 280.292L317.005 272.528C319.981 269.912 323.809 268.484 327.769 268.484H344.072L359.732 285.14Z" fill="white"/>
<path d="M313.217 408.892V292.582C313.217 287.871 315.25 283.39 318.794 280.287L327.662 272.523C330.642 269.915 334.466 268.477 338.426 268.477H347.67C352.18 268.477 356.489 270.34 359.578 273.627L365.958 280.415C368.806 283.445 370.392 287.449 370.392 291.607V396.433C370.392 403.312 364.814 408.89 357.935 408.89H313.217V408.892Z" fill="#664EFE"/>
<path opacity="0.5" d="M313.217 408.892V292.582C313.217 287.871 315.25 283.39 318.794 280.287L327.662 272.523C330.642 269.915 334.466 268.477 338.426 268.477H347.67C352.18 268.477 356.489 270.34 359.578 273.627L365.958 280.415C368.806 283.445 370.392 287.449 370.392 291.607V396.433C370.392 403.312 364.814 408.89 357.935 408.89H313.217V408.892Z" fill="white"/>
<path d="M288.351 368.764C273.588 363.61 257.515 363.61 242.751 368.764C239.687 369.92 236.241 368.607 234.723 365.704C233.355 362.812 235.191 359.068 238.911 357.76C256.152 351.736 274.927 351.736 292.167 357.76C295.887 359.056 297.723 362.812 296.355 365.704C294.835 368.59 291.409 369.899 288.351 368.764Z" fill="#664EFE"/>
<path opacity="0.7" d="M288.351 368.764C273.588 363.61 257.515 363.61 242.751 368.764C239.687 369.92 236.241 368.607 234.723 365.704C233.355 362.812 235.191 359.068 238.911 357.76C256.152 351.736 274.927 351.736 292.167 357.76C295.887 359.056 297.723 362.812 296.355 365.704C294.835 368.59 291.409 369.899 288.351 368.764Z" fill="white"/>
<path d="M373.247 146.289L406.254 145.958C408.753 145.899 410.648 144.03 410.722 141.547L410.777 107.702C410.782 107.491 410.769 107.278 410.738 107.066C410.429 104.928 408.454 103.261 406.324 103.345L332.766 103.783C330.269 103.848 328.378 105.72 328.305 108.202L328.257 142.041C328.252 142.252 328.265 142.465 328.296 142.677C328.605 144.816 330.58 146.482 332.71 146.398L362.564 146.356L368.483 164.883L373.247 146.289Z" fill="white" stroke="#38CCB3" stroke-miterlimit="10"/>
<path d="M377.158 111.184H343.967" stroke="#38CCB3" stroke-miterlimit="10"/>
<path d="M404.935 111.184H384.904" stroke="#38CCB3" stroke-miterlimit="10"/>
<path d="M353.34 120.039H335.16" stroke="#38CCB3" stroke-miterlimit="10"/>
<path d="M403.678 120.039H359.824" stroke="#38CCB3" stroke-miterlimit="10"/>
<path d="M381.269 128.893H335.066" stroke="#38CCB3" stroke-miterlimit="10"/>
<path d="M403.583 128.893H388.484" stroke="#38CCB3" stroke-miterlimit="10"/>
<path d="M347.249 137.748H335.254" stroke="#38CCB3" stroke-miterlimit="10"/>
<path d="M417.441 151.71L467.659 151.272C469.789 151.19 471.765 152.855 472.072 154.994C472.104 155.206 472.115 155.418 472.112 155.63L472.057 189.474C471.981 191.957 470.088 193.828 467.589 193.886L435.766 194.217C428.887 203.964 417.556 205.547 417.556 205.547C417.556 205.547 423.926 199.085 425.084 194.284L417.384 194.326C415.254 194.41 413.278 192.743 412.97 190.605C412.939 190.392 412.927 190.18 412.93 189.969L412.978 156.13C413.054 153.647 414.944 151.775 417.441 151.71Z" fill="white" stroke="#38CCB3" stroke-miterlimit="10"/>
<path d="M438.016 167.967H419.836" stroke="#38CCB3" stroke-miterlimit="10"/>
<path d="M458.685 159.111H425.494" stroke="#38CCB3" stroke-miterlimit="10"/>
<path d="M464.608 167.963H441.35" stroke="#38CCB3" stroke-miterlimit="10"/>
<path d="M462.795 176.822H416.592" stroke="#38CCB3" stroke-miterlimit="10"/>
<path d="M428.776 185.678H416.779" stroke="#38CCB3" stroke-miterlimit="10"/>
<path d="M311.84 189.042L308.945 198.405L305.128 188.875C296.333 187.112 289.715 179.34 289.715 170.023C289.715 159.407 298.321 150.793 308.945 150.793C319.568 150.793 328.175 159.407 328.175 170.023C328.175 179.659 321.085 187.649 311.84 189.042Z" fill="white" stroke="#664EFE" stroke-miterlimit="10"/>
<path d="M310.922 167.097C311.027 165.905 309.986 165.191 308.467 165.191C306.859 165.191 305.448 165.994 304.556 167.336L300.326 164.953C302.137 162.302 305.181 160.545 309.56 160.545C314.148 160.545 317.252 162.511 316.935 166.145C316.529 170.792 311.583 171.477 311.343 174.218H306.041C306.38 170.313 310.727 169.33 310.922 167.097ZM304.909 178.952C305.063 177.194 306.547 175.883 308.544 175.883C310.539 175.883 311.826 177.194 311.671 178.952C311.52 180.68 309.997 182.079 308.001 182.079C306.006 182.079 304.758 180.68 304.909 178.952Z" fill="#664EFE"/>
<path d="M281.536 217.053C282.62 217.053 283.498 216.174 283.498 215.091C283.498 214.007 282.62 213.129 281.536 213.129C280.453 213.129 279.574 214.007 279.574 215.091C279.574 216.174 280.453 217.053 281.536 217.053Z" fill="white" stroke="#664EFE" stroke-miterlimit="10"/>
<path d="M277.798 207.658C278.134 208.174 278.338 208.786 278.338 209.446C278.338 211.246 276.874 212.71 275.074 212.71C273.658 212.71 272.458 211.81 272.002 210.55C270.238 211.078 268.378 211.366 266.446 211.366C255.838 211.366 247.246 202.774 247.246 192.178C247.246 181.582 255.838 172.99 266.446 172.99C277.042 172.99 285.634 181.582 285.634 192.178C285.634 198.526 282.55 204.154 277.798 207.658Z" fill="white" stroke="#664EFE" stroke-miterlimit="10"/>
<path d="M268.45 188.925C268.554 187.733 267.514 187.019 265.994 187.019C264.386 187.019 262.975 187.822 262.084 189.164L257.854 186.781C259.664 184.131 262.708 182.373 267.088 182.373C271.675 182.373 274.78 184.339 274.463 187.973C274.056 192.62 269.111 193.305 268.871 196.046H263.568C263.909 192.141 268.255 191.158 268.45 188.925ZM262.438 200.78C262.592 199.022 264.076 197.711 266.072 197.711C268.068 197.711 269.354 199.022 269.2 200.78C269.048 202.508 267.526 203.907 265.53 203.907C263.534 203.907 262.286 202.508 262.438 200.78Z" fill="#664EFE"/>
</svg>
