<svg width="133" height="133" viewBox="0 0 133 133" fill="none" xmlns="http://www.w3.org/2000/svg">
<path d="M92.4959 27.1322C92.4959 27.1322 77.1663 18.559 59.5837 25.0707C42.0011 31.5824 30.7813 48.5372 21.3383 62.0447C11.8953 75.5522 13.329 91.161 24.3973 100.051C35.4655 108.94 45.4911 100.317 62.7279 102.745C79.9647 105.174 84.1595 108.408 100.045 101.149C115.931 93.8902 122.405 71.4425 114.063 52.607C105.721 33.7715 92.4959 27.1322 92.4959 27.1322Z" fill="#FFD029"/>
<path opacity="0.8" d="M92.4959 27.1322C92.4959 27.1322 77.1663 18.559 59.5837 25.0707C42.0011 31.5824 30.7813 48.5372 21.3383 62.0447C11.8953 75.5522 13.329 91.161 24.3973 100.051C35.4655 108.94 45.4911 100.317 62.7279 102.745C79.9647 105.174 84.1595 108.408 100.045 101.149C115.931 93.8902 122.405 71.4425 114.063 52.607C105.721 33.7715 92.4959 27.1322 92.4959 27.1322Z" fill="white"/>
<path d="M106.443 50.9951C105.132 50.2795 104.536 50.8754 104.049 50.2795C103.563 49.6837 105.361 48.1329 101.783 46.5821C101.783 46.5821 101.546 43.2438 96.6573 43.1241C91.7682 43.0044 93.0982 46.4651 91.7682 47.2977C90.4382 48.1302 90.0978 46.8215 88.7864 47.6568C87.475 48.492 88.0708 50.1598 86.9989 50.3992C85.9269 50.6386 84.4958 49.3352 83.1844 50.1598C81.873 50.9844 81.873 51.7106 81.2745 51.7106C80.676 51.7106 79.487 51.2345 78.7715 51.7106C78.0559 52.1867 77.2207 52.7746 77.2207 52.7746H107.398C107.398 52.7746 107.758 51.7106 106.443 50.9951Z" fill="#FFD029"/>
<path opacity="0.5" d="M106.443 50.9951C105.132 50.2795 104.536 50.8754 104.049 50.2795C103.563 49.6837 105.361 48.1329 101.783 46.5821C101.783 46.5821 101.546 43.2438 96.6573 43.1241C91.7682 43.0044 93.0982 46.4651 91.7682 47.2977C90.4382 48.1302 90.0978 46.8215 88.7864 47.6568C87.475 48.492 88.0708 50.1598 86.9989 50.3992C85.9269 50.6386 84.4958 49.3352 83.1844 50.1598C81.873 50.9844 81.873 51.7106 81.2745 51.7106C80.676 51.7106 79.487 51.2345 78.7715 51.7106C78.0559 52.1867 77.2207 52.7746 77.2207 52.7746H107.398C107.398 52.7746 107.758 51.7106 106.443 50.9951Z" fill="#FFD029"/>
<path d="M60.7721 35.7428C59.9953 35.3199 59.6416 35.6737 59.3596 35.3199C59.0776 34.9661 60.1363 34.0484 58.0296 33.128C58.0296 33.128 57.8886 31.149 54.9919 31.0798C52.0951 31.0107 52.8639 33.0589 52.0951 33.5536C51.3264 34.0484 51.1056 33.2717 50.3262 33.7638C49.5468 34.2559 49.9033 35.2481 49.2622 35.3917C48.6212 35.5353 47.7779 34.7533 47.0012 35.2481C46.2245 35.7428 46.2245 36.1684 45.8707 36.1684C45.5169 36.1684 44.8067 35.8838 44.3864 36.1684C43.9662 36.453 43.4688 36.8042 43.4688 36.8042H61.3386C61.3386 36.8042 61.5514 36.1764 60.7721 35.7428Z" fill="#FFD029"/>
<path opacity="0.5" d="M60.7721 35.7428C59.9953 35.3199 59.6416 35.6737 59.3596 35.3199C59.0776 34.9661 60.1363 34.0484 58.0296 33.128C58.0296 33.128 57.8886 31.149 54.9919 31.0798C52.0951 31.0107 52.8639 33.0589 52.0951 33.5536C51.3264 34.0484 51.1056 33.2717 50.3262 33.7638C49.5468 34.2559 49.9033 35.2481 49.2622 35.3917C48.6212 35.5353 47.7779 34.7533 47.0012 35.2481C46.2245 35.7428 46.2245 36.1684 45.8707 36.1684C45.5169 36.1684 44.8067 35.8838 44.3864 36.1684C43.9662 36.453 43.4688 36.8042 43.4688 36.8042H61.3386C61.3386 36.8042 61.5514 36.1764 60.7721 35.7428Z" fill="#FFD029"/>
<path d="M71.6702 94.67C69.4358 93.4491 68.4197 94.4652 67.6058 93.4491C66.7918 92.4329 69.8402 89.7942 63.7461 87.1528C63.7461 87.1528 63.3391 81.4631 55.0107 81.2609C46.6822 81.0588 48.9139 86.948 46.6795 88.3711C44.4451 89.7942 43.836 87.5572 41.6016 88.9803C39.3672 90.4034 40.3807 93.2363 38.5532 93.6539C36.7258 94.0715 34.2972 91.8238 32.0522 93.2469C29.8072 94.67 29.8178 95.8883 28.8017 95.8883C27.7856 95.8883 25.7533 95.0743 24.5457 95.8883C23.338 96.7022 21.9043 97.7157 21.9043 97.7157H73.2955C73.2955 97.7157 73.9046 95.8883 71.6702 94.67Z" fill="#FFD029"/>
<path opacity="0.5" d="M71.6702 94.67C69.4358 93.4491 68.4197 94.4652 67.6058 93.4491C66.7918 92.4329 69.8402 89.7942 63.7461 87.1528C63.7461 87.1528 63.3391 81.4631 55.0107 81.2609C46.6822 81.0588 48.9139 86.948 46.6795 88.3711C44.4451 89.7942 43.836 87.5572 41.6016 88.9803C39.3672 90.4034 40.3807 93.2363 38.5532 93.6539C36.7258 94.0715 34.2972 91.8238 32.0522 93.2469C29.8072 94.67 29.8178 95.8883 28.8017 95.8883C27.7856 95.8883 25.7533 95.0743 24.5457 95.8883C23.338 96.7022 21.9043 97.7157 21.9043 97.7157H73.2955C73.2955 97.7157 73.9046 95.8883 71.6702 94.67Z" fill="#FFD029"/>
<g opacity="0.5">
<path d="M106.443 50.9951C105.132 50.2795 104.536 50.8754 104.049 50.2795C103.563 49.6837 105.361 48.1329 101.783 46.5821C101.783 46.5821 101.546 43.2438 96.6573 43.1241C91.7682 43.0044 93.0982 46.4651 91.7682 47.2977C90.4382 48.1302 90.0978 46.8215 88.7864 47.6568C87.475 48.492 88.0708 50.1598 86.9989 50.3992C85.9269 50.6386 84.4958 49.3352 83.1844 50.1598C81.873 50.9844 81.873 51.7106 81.2745 51.7106C80.676 51.7106 79.487 51.2345 78.7715 51.7106C78.0559 52.1867 77.2207 52.7746 77.2207 52.7746H107.398C107.398 52.7746 107.758 51.7106 106.443 50.9951Z" fill="white"/>
<path opacity="0.5" d="M106.443 50.9951C105.132 50.2795 104.536 50.8754 104.049 50.2795C103.563 49.6837 105.361 48.1329 101.783 46.5821C101.783 46.5821 101.546 43.2438 96.6573 43.1241C91.7682 43.0044 93.0982 46.4651 91.7682 47.2977C90.4382 48.1302 90.0978 46.8215 88.7864 47.6568C87.475 48.492 88.0708 50.1598 86.9989 50.3992C85.9269 50.6386 84.4958 49.3352 83.1844 50.1598C81.873 50.9844 81.873 51.7106 81.2745 51.7106C80.676 51.7106 79.487 51.2345 78.7715 51.7106C78.0559 52.1867 77.2207 52.7746 77.2207 52.7746H107.398C107.398 52.7746 107.758 51.7106 106.443 50.9951Z" fill="white"/>
</g>
<g opacity="0.5">
<path d="M60.7721 35.7428C59.9953 35.3199 59.6416 35.6737 59.3596 35.3199C59.0776 34.9661 60.1363 34.0484 58.0296 33.128C58.0296 33.128 57.8886 31.149 54.9919 31.0798C52.0951 31.0107 52.8639 33.0589 52.0951 33.5536C51.3264 34.0484 51.1056 33.2717 50.3262 33.7638C49.5468 34.2559 49.9033 35.2481 49.2622 35.3917C48.6212 35.5353 47.7779 34.7533 47.0012 35.2481C46.2245 35.7428 46.2245 36.1684 45.8707 36.1684C45.5169 36.1684 44.8067 35.8838 44.3864 36.1684C43.9662 36.453 43.4688 36.8042 43.4688 36.8042H61.3386C61.3386 36.8042 61.5514 36.1764 60.7721 35.7428Z" fill="white"/>
<path opacity="0.5" d="M60.7721 35.7428C59.9953 35.3199 59.6416 35.6737 59.3596 35.3199C59.0776 34.9661 60.1363 34.0484 58.0296 33.128C58.0296 33.128 57.8886 31.149 54.9919 31.0798C52.0951 31.0107 52.8639 33.0589 52.0951 33.5536C51.3264 34.0484 51.1056 33.2717 50.3262 33.7638C49.5468 34.2559 49.9033 35.2481 49.2622 35.3917C48.6212 35.5353 47.7779 34.7533 47.0012 35.2481C46.2245 35.7428 46.2245 36.1684 45.8707 36.1684C45.5169 36.1684 44.8067 35.8838 44.3864 36.1684C43.9662 36.453 43.4688 36.8042 43.4688 36.8042H61.3386C61.3386 36.8042 61.5514 36.1764 60.7721 35.7428Z" fill="white"/>
</g>
<g opacity="0.5">
<path d="M71.6702 94.67C69.4358 93.4491 68.4197 94.4652 67.6058 93.4491C66.7918 92.4329 69.8402 89.7942 63.7461 87.1528C63.7461 87.1528 63.3391 81.4631 55.0107 81.2609C46.6822 81.0588 48.9139 86.948 46.6795 88.3711C44.4451 89.7942 43.836 87.5572 41.6016 88.9803C39.3672 90.4034 40.3807 93.2363 38.5532 93.6539C36.7258 94.0715 34.2972 91.8238 32.0522 93.2469C29.8072 94.67 29.8178 95.8883 28.8017 95.8883C27.7856 95.8883 25.7533 95.0743 24.5457 95.8883C23.338 96.7022 21.9043 97.7157 21.9043 97.7157H73.2955C73.2955 97.7157 73.9046 95.8883 71.6702 94.67Z" fill="white"/>
<path opacity="0.5" d="M71.6702 94.67C69.4358 93.4491 68.4197 94.4652 67.6058 93.4491C66.7918 92.4329 69.8402 89.7942 63.7461 87.1528C63.7461 87.1528 63.3391 81.4631 55.0107 81.2609C46.6822 81.0588 48.9139 86.948 46.6795 88.3711C44.4451 89.7942 43.836 87.5572 41.6016 88.9803C39.3672 90.4034 40.3807 93.2363 38.5532 93.6539C36.7258 94.0715 34.2972 91.8238 32.0522 93.2469C29.8072 94.67 29.8178 95.8883 28.8017 95.8883C27.7856 95.8883 25.7533 95.0743 24.5457 95.8883C23.338 96.7022 21.9043 97.7157 21.9043 97.7157H73.2955C73.2955 97.7157 73.9046 95.8883 71.6702 94.67Z" fill="white"/>
</g>
<path d="M34.1186 86.0056C34.1186 86.0056 32.8045 84.8539 31.4453 84.4602C30.086 84.0665 28.5193 84.0585 27.1653 83.6888C25.8114 83.319 25.0028 83.0078 25.0028 83.0078L24.9336 84.2314L34.0627 86.6972L40.3084 84.9682L40.9308 83.6994C40.2503 84.0162 39.5365 84.2562 38.8028 84.415C37.4436 84.7368 35.9221 84.7368 35.0788 85.0613C34.2356 85.3859 34.1186 86.0056 34.1186 86.0056Z" fill="white" stroke="#263238" stroke-linecap="round" stroke-linejoin="round"/>
<path d="M24.8063 83.2852C26.5908 83.8309 28.42 84.2182 30.2726 84.4423C31.666 84.6313 32.989 85.1693 34.119 86.0063C35.0381 85.4189 36.0961 85.0848 37.1859 85.0381C38.4967 84.9388 39.7899 84.6751 41.035 84.2534L40.6439 85.0514L33.9354 86.3654L24.668 83.9448L24.8063 83.2852Z" fill="white" stroke="#263238" stroke-linecap="round" stroke-linejoin="round"/>
<path d="M24.5537 83.5605C25.9716 84.1039 27.4573 84.4503 28.9693 84.59C31.4378 84.7762 34.0499 86.0051 34.0499 86.0051C35.0603 85.4955 36.1695 85.2123 37.3005 85.1752C38.5697 85.1642 39.8325 84.9935 41.059 84.6671C41.0208 84.7945 41.0113 84.9288 41.031 85.0603C41.0508 85.1918 41.0994 85.3173 41.1734 85.4279L34.026 86.9494L24.5059 84.183L24.5537 83.5605Z" fill="white" stroke="#263238" stroke-linecap="round" stroke-linejoin="round"/>
<path d="M24.4366 84.0684L33.7279 86.3959V86.7151L34.51 86.7363V86.3693L41.3808 85.284C41.3808 85.284 41.6813 85.2148 41.426 85.55C41.1706 85.8851 36.747 89.7475 36.747 89.7475L31.8367 90.2529L24.3887 88.617L24.4366 84.0684Z" fill="#FFD029"/>
<mask id="mask0_12435_52454" style="mask-type:luminance" maskUnits="userSpaceOnUse" x="24" y="84" width="18" height="7">
<path d="M24.4366 84.0684L33.7279 86.3959V86.7151L34.51 86.7363V86.3693L41.3808 85.284C41.3808 85.284 41.6813 85.2148 41.426 85.55C41.1706 85.8851 36.747 89.7475 36.747 89.7475L31.8367 90.2529L24.3887 88.617L24.4366 84.0684Z" fill="white"/>
</mask>
<g mask="url(#mask0_12435_52454)">
<path opacity="0.3" d="M33.7272 86.7204V86.3959L24.4358 84.0684L24.3906 88.6329L31.836 90.2688L31.969 90.2555L33.9347 86.7257L33.7272 86.7204Z" fill="#121212"/>
</g>
<path d="M24.4366 84.0684L33.7279 86.3959V86.7151L34.51 86.7363V86.3693L41.3808 85.284C41.3808 85.284 41.6813 85.2148 41.426 85.55C41.1706 85.8851 36.747 89.7475 36.747 89.7475L31.8367 90.2529L24.3887 88.617L24.4366 84.0684Z" stroke="#263238" stroke-linecap="round" stroke-linejoin="round"/>
<path d="M33.7273 86.7207L31.6738 90.2691L32.0675 90.2931L34.5094 86.742L33.7273 86.7207Z" fill="#FFD029" stroke="#263238" stroke-linecap="round" stroke-linejoin="round"/>
<path d="M33.3989 108.355C33.3989 108.355 32.952 109.291 32.3561 109.719C31.7603 110.148 30.9995 110.35 30.3984 110.762C30.0718 110.983 29.7591 111.224 29.4621 111.483L29.2227 110.669L33.2499 107.895L36.5882 108.299L37.1042 109.076C36.7313 108.949 36.3429 108.874 35.9498 108.852C35.2343 108.802 34.4921 108.988 34.0213 108.873C33.8856 108.838 33.7594 108.774 33.6518 108.684C33.5442 108.594 33.4578 108.482 33.3989 108.355Z" fill="white" stroke="#263238" stroke-linecap="round" stroke-linejoin="round"/>
<path d="M29.3149 111.321C30.08 110.745 30.9093 110.261 31.7861 109.877C32.4639 109.543 33.0256 109.012 33.398 108.355C33.908 108.621 34.4904 108.714 35.0579 108.621C35.7259 108.529 36.4046 108.549 37.0662 108.68L36.739 108.182L33.2491 108.129L29.1367 110.887L29.3149 111.321Z" fill="white" stroke="#263238" stroke-linecap="round" stroke-linejoin="round"/>
<path d="M29.1453 111.167C29.7274 110.642 30.3985 110.225 31.127 109.936C32.2974 109.51 33.3667 108.364 33.3667 108.364C33.9148 108.578 34.5119 108.634 35.0904 108.526C35.7185 108.379 36.3671 108.34 37.0082 108.411C36.9277 108.246 36.9025 108.06 36.9364 107.879L33.1964 107.73L29.0176 110.755L29.1453 111.167Z" fill="white" stroke="#263238" stroke-linecap="round" stroke-linejoin="round"/>
<path d="M28.9937 110.839L33.1326 108.136L33.0768 107.921L33.4572 107.809L33.5183 108.056L37.0508 107.95C37.0508 107.95 37.2078 107.95 37.0269 107.758C36.846 107.567 34.0477 105.5 34.0477 105.5L31.5659 105.766L28.209 107.774L28.9937 110.839Z" fill="#FFD029"/>
<mask id="mask1_12435_52454" style="mask-type:luminance" maskUnits="userSpaceOnUse" x="28" y="105" width="10" height="6">
<path d="M28.9937 110.839L33.1326 108.136L33.0768 107.921L33.4572 107.809L33.5183 108.056L37.0508 107.95C37.0508 107.95 37.2078 107.95 37.0269 107.758C36.846 107.567 34.0477 105.5 34.0477 105.5L31.5659 105.766L28.209 107.774L28.9937 110.839Z" fill="white"/>
</mask>
<g mask="url(#mask1_12435_52454)">
<path opacity="0.3" d="M33.0867 107.921L33.1426 108.136L29.0036 110.839L28.2109 107.766L31.5679 105.758L31.6344 105.75L33.1878 107.891L33.0867 107.921Z" fill="#121212"/>
</g>
<path d="M28.9937 110.839L33.1326 108.136L33.0768 107.921L33.4572 107.809L33.5183 108.056L37.0508 107.95C37.0508 107.95 37.2078 107.95 37.0269 107.758C36.846 107.567 34.0477 105.5 34.0477 105.5L31.5659 105.766L28.209 107.774L28.9937 110.839Z" stroke="#263238" stroke-linecap="round" stroke-linejoin="round"/>
<path d="M33.0862 107.921L31.4902 105.777L31.6764 105.713L33.4666 107.809L33.0862 107.921Z" fill="#FFD029" stroke="#263238" stroke-linecap="round" stroke-linejoin="round"/>
<path d="M95.2866 79.7227L102.798 87.3303L86.7586 91.8496L85.6973 84.2234L95.2866 79.7227Z" fill="#FFD029" stroke="#263238" stroke-linecap="round" stroke-linejoin="round"/>
<path d="M101.932 88.429L85.3418 93.3047L86.6798 84.5374L95.0508 80.8027L101.932 88.429Z" fill="white" stroke="#263238" stroke-linecap="round" stroke-linejoin="round"/>
<path d="M95.4459 81.2754L101.617 89.2554L86.0508 93.7747L87.8596 84.1828L95.4459 81.2754Z" fill="white"/>
<mask id="mask2_12435_52454" style="mask-type:luminance" maskUnits="userSpaceOnUse" x="86" y="81" width="16" height="13">
<path d="M95.4459 81.2754L101.617 89.2554L86.0508 93.7747L87.8596 84.1828L95.4459 81.2754Z" fill="white"/>
</mask>
<g mask="url(#mask2_12435_52454)">
<path opacity="0.17" d="M95.4459 81.2754L101.617 89.2554L86.0508 93.7747L87.8596 84.1828L95.4459 81.2754Z" fill="#121212"/>
</g>
<path d="M95.4459 81.2754L101.617 89.2554L86.0508 93.7747L87.8596 84.1828L95.4459 81.2754Z" stroke="#263238" stroke-linecap="round" stroke-linejoin="round"/>
<path d="M95.4456 81.2754L92.6153 91.1014L81.5684 94.4451L85.8137 85.4011L95.4456 81.2754Z" fill="white" stroke="#263238" stroke-linecap="round" stroke-linejoin="round"/>
<path d="M91.8312 90.3183L81.1779 93.896L80.8613 92.4011L90.7299 88.8633L91.8312 90.3183Z" fill="white" stroke="#263238" stroke-linecap="round" stroke-linejoin="round"/>
<path d="M95.1707 79.9375L102.246 87.2897L101.932 88.4282L95.4447 81.2755L91.8298 90.3168L90.7285 88.8618L95.1707 79.9375Z" fill="white" stroke="#263238" stroke-linecap="round" stroke-linejoin="round"/>
<path d="M95.2855 79.7227L90.7688 89.1391L80.3496 92.6769L85.6962 84.2234L95.2855 79.7227Z" fill="#FFD029"/>
<mask id="mask3_12435_52454" style="mask-type:luminance" maskUnits="userSpaceOnUse" x="80" y="79" width="16" height="14">
<path d="M95.2855 79.7227L90.7688 89.1391L80.3496 92.6769L85.6962 84.2234L95.2855 79.7227Z" fill="white"/>
</mask>
<g mask="url(#mask3_12435_52454)">
<path opacity="0.3" d="M95.2855 79.7227L90.7688 89.1391L80.3496 92.6769L85.6962 84.2234L95.2855 79.7227Z" fill="#121212"/>
</g>
<path d="M95.2855 79.7227L90.7688 89.1391L80.3496 92.6769L85.6962 84.2234L95.2855 79.7227Z" stroke="#263238" stroke-linecap="round" stroke-linejoin="round"/>
<path d="M85.2656 85.0907L93.6473 81.2656" stroke="#263238" stroke-linecap="round" stroke-linejoin="round"/>
<path d="M60.3857 107.059L68.0784 97.5944L52.2088 96.8496L50.9453 104.8L60.3857 107.059Z" fill="#FFD029" stroke="#263238" stroke-linecap="round" stroke-linejoin="round"/>
<path d="M67.2474 96.6916L50.8379 95.7207L51.9338 104.251L60.1825 106.028L67.2474 96.6916Z" fill="white" stroke="#263238" stroke-linecap="round" stroke-linejoin="round"/>
<path d="M60.5854 105.456L66.9534 95.9307L51.5547 95.0742L53.1001 104.326L60.5854 105.456Z" fill="white"/>
<mask id="mask4_12435_52454" style="mask-type:luminance" maskUnits="userSpaceOnUse" x="51" y="95" width="16" height="11">
<path d="M60.5854 105.456L66.9534 95.9307L51.5547 95.0742L53.1001 104.326L60.5854 105.456Z" fill="white"/>
</mask>
<g mask="url(#mask4_12435_52454)">
<path opacity="0.17" d="M60.5854 105.456L66.9534 95.9307L51.5547 95.0742L53.1001 104.326L60.5854 105.456Z" fill="#121212"/>
</g>
<path d="M60.5854 105.456L66.9534 95.9307L51.5547 95.0742L53.1001 104.326L60.5854 105.456Z" stroke="#263238" stroke-linecap="round" stroke-linejoin="round"/>
<path d="M60.5864 105.455L58.0301 96.2089L47.1055 95.4668L51.0955 103.582L60.5864 105.455Z" fill="white" stroke="#263238" stroke-linecap="round" stroke-linejoin="round"/>
<path d="M57.2232 97.1918L46.6975 96.1172L46.3438 97.6999L56.0873 98.9208L57.2232 97.1918Z" fill="white" stroke="#263238" stroke-linecap="round" stroke-linejoin="round"/>
<path d="M60.2747 106.871L67.5285 97.766L67.2466 96.6914L60.586 105.456L57.2237 97.1915L56.0879 98.9205L60.2747 106.871Z" fill="white" stroke="#263238" stroke-linecap="round" stroke-linejoin="round"/>
<path d="M60.3867 107.06L56.1333 98.6336L45.8418 97.543L50.9463 104.802L60.3867 107.06Z" fill="#FFD029"/>
<mask id="mask5_12435_52454" style="mask-type:luminance" maskUnits="userSpaceOnUse" x="45" y="97" width="16" height="11">
<path d="M60.3867 107.06L56.1333 98.6336L45.8418 97.543L50.9463 104.802L60.3867 107.06Z" fill="white"/>
</mask>
<g mask="url(#mask5_12435_52454)">
<path opacity="0.3" d="M60.3867 107.06L56.1333 98.6336L45.8418 97.543L50.9463 104.802L60.3867 107.06Z" fill="#121212"/>
</g>
<path d="M60.3867 107.06L56.1333 98.6336L45.8418 97.543L50.9463 104.802L60.3867 107.06Z" stroke="#263238" stroke-linecap="round" stroke-linejoin="round"/>
<path d="M50.1621 103.754L58.5438 105.517" stroke="#263238" stroke-linecap="round" stroke-linejoin="round"/>
<path d="M66.6247 43.4183C66.6247 43.4183 63.1401 45.1021 61.7463 47.1423C60.3525 49.1825 60.7594 52.9491 62.9061 54.1674C65.0527 55.3857 72.5459 59.8598 77.8313 59.2214C83.1167 58.583 82.3028 53.1805 79.6321 51.0312C76.9615 48.882 73.3599 46.9668 73.3599 46.9668C73.3599 46.9668 73.187 45.807 72.9529 45.4C72.7188 44.993 70.0508 42.3729 66.6247 43.4183Z" fill="#263238" stroke="#263238" stroke-linecap="round" stroke-linejoin="round"/>
<path d="M80.7706 52.3027C72.8598 49.8821 67.6489 54.2153 66.0156 55.8751C69.2874 57.5749 74.1073 59.663 77.8313 59.2134C82.2523 58.6788 82.4039 54.8085 80.7706 52.3027Z" fill="white" stroke="#263238" stroke-linecap="round" stroke-linejoin="round"/>
<path d="M75.3926 51.6641C75.3926 51.6641 80.0396 55.3881 78.4117 59.0961" stroke="#263238" stroke-linecap="round" stroke-linejoin="round"/>
<path d="M60.1393 41.7964L58.2773 50.4813H59.7749L63.467 43.6371C63.467 43.6371 62.7461 41.4426 60.1393 41.7964Z" fill="white" stroke="#263238" stroke-linecap="round" stroke-linejoin="round"/>
<path d="M83.5414 37.5838C82.0172 35.7218 80.0036 33.9954 76.3141 33.7002C76.3141 33.7002 73.17 33.6017 68.8927 35.4212C65.5491 36.8416 61.9767 39.9432 60.1387 41.8052C61.7826 42.2228 62.7614 42.8958 63.469 43.6459C64.1978 42.9516 64.8336 42.3478 65.3017 41.9674C66.8765 40.688 69.188 39.608 69.188 39.608C69.188 39.608 66.6796 43.0474 66.1875 43.9332C65.6954 44.819 66.0412 46.2447 68.6454 46.6384C71.2495 47.0321 71.8906 46.54 72.9226 45.9495C73.9547 45.3589 75.2342 44.819 75.7263 44.819C76.7097 44.8887 77.6857 44.6057 78.4794 44.021C79.7562 43.1352 80.2988 40.6295 80.7404 40.4326C81.0436 40.297 83.7276 43.7975 85.8183 46.4256L85.9992 46.3325C86.9089 45.8643 87.6191 44.9094 88.1059 44.0688C86.4142 41.5977 84.5282 38.7914 83.5414 37.5838Z" fill="#FFD029" stroke="#263238" stroke-linecap="round" stroke-linejoin="round"/>
<path d="M74.7291 35.3516C74.7291 35.3516 73.6864 37.8599 75.7745 38.8096" stroke="#263238" stroke-linecap="round" stroke-linejoin="round"/>
<path d="M69.1895 39.6L71.4558 38.9297" stroke="#263238" stroke-linecap="round" stroke-linejoin="round"/>
<path d="M69.1602 43.9755C69.1602 43.9755 70.5886 45.2363 73.9322 43.8105" stroke="#263238" stroke-linecap="round" stroke-linejoin="round"/>
<path d="M82.2059 39.4766C81.3813 39.5856 80.7402 40.4342 80.7402 40.4342C81.6918 40.2315 82.6593 40.1131 83.6317 40.0804" stroke="#263238" stroke-linecap="round" stroke-linejoin="round"/>
<path d="M69.2637 39.8059C69.2637 39.8059 70.7985 39.8059 72.2801 39.75" stroke="#263238" stroke-linecap="round" stroke-linejoin="round"/>
<path d="M70.0859 43.3145C70.0859 43.3145 70.2509 44.304 72.3895 44.1923" stroke="#263238" stroke-linecap="round" stroke-linejoin="round"/>
<path d="M75.7743 34.5344C75.7743 34.5344 75.4312 36.3033 75.6759 37.237C75.9206 38.1707 76.8064 39.2533 77.4475 38.1228C78.0885 36.9923 78.429 35.7288 78.429 35.125C78.429 34.5211 76.2159 33.4039 75.7743 34.5344Z" fill="white" stroke="#263238" stroke-linecap="round" stroke-linejoin="round"/>
<path d="M80.7408 32.3215C80.7408 32.3215 82.116 32.0262 83.297 30.502C84.4781 28.9779 82.9539 28.7837 82.4618 27.31C81.9697 25.8364 83.7013 26.3258 81.1956 23.7696C78.6899 21.2133 74.6068 22.0991 72.6836 22.9343C70.7604 23.7696 70.8216 26.5732 69.4411 26.7701C68.0605 26.9669 67.4727 25.6396 65.8022 25.6396C64.1317 25.6396 62.3602 27.4085 63.0491 28.8821C63.738 30.3557 65.0654 29.72 65.1638 29.4726C65.2622 29.2252 64.4749 29.5232 64.4243 28.7837C64.3738 28.0442 66.1932 28.4405 66.7359 29.4247C67.1748 30.2227 66.3688 31.3559 66.3954 32.1938C66.4512 33.8749 68.5101 34.9496 69.8321 35.181C71.617 35.4922 73.7875 35.3831 75.4048 34.4974C77.3918 33.4068 76.4688 31.1458 77.9318 30.5552C79.3948 29.9647 80.1449 30.8505 80.1449 30.8505L80.7408 32.3215Z" fill="#263238" stroke="#263238" stroke-linecap="round" stroke-linejoin="round"/>
<path d="M65.7148 26.5522C65.4615 26.4421 65.1828 26.404 64.9092 26.442C64.6356 26.48 64.3778 26.5927 64.1641 26.7677" stroke="white" stroke-linecap="round" stroke-linejoin="round"/>
<path d="M78.8338 27.9298C78.8338 27.9298 78.8338 25.0038 76.7803 24.4079C74.7268 23.8121 72.3807 26.4614 71.1943 28.1319C70.0079 29.8024 68.2683 29.4034 66.9888 27.6425C66.8685 27.4727 66.7351 27.3126 66.5898 27.1637" stroke="white" stroke-linecap="round" stroke-linejoin="round"/>
<path d="M67.1973 33.4165C68.2613 34.1002 69.0593 34.297 70.6207 33.8076C72.1821 33.3181 71.9906 30.7752 73.3578 29.4079C74.7251 28.0407 77.1723 28.5275 77.1723 28.5275C77.1723 28.5275 74.4351 27.0591 72.2832 28.6232C70.1312 30.1873 70.3254 32.8287 68.3703 33.3181" stroke="white" stroke-linecap="round" stroke-linejoin="round"/>
<path d="M80.2031 28.234C80.2031 28.234 82.0651 27.7445 81.9641 26.082" stroke="white" stroke-linecap="round" stroke-linejoin="round"/>
<path d="M64.8828 47.082C64.8828 47.082 69.9368 47.7204 72.4904 49.476" stroke="white" stroke-linecap="round" stroke-linejoin="round"/>
<path d="M79.1375 28.8654C78.8227 28.7751 78.4886 28.7773 78.175 28.8716C77.8613 28.9659 77.5814 29.1485 77.3686 29.3974C76.5334 30.2805 76.5706 30.7274 75.8737 31.278C75.6658 31.4597 75.4039 31.5679 75.1283 31.5857C74.8528 31.6035 74.5791 31.5299 74.3495 31.3765C74.0543 31.2302 73.7111 31.3286 73.6127 32.0149C73.5143 32.7011 74.448 33.2438 74.5969 33.2438C74.745 33.2518 74.8924 33.2687 75.0385 33.2943C75.0385 33.2943 75.0385 34.5232 75.8737 35.2601C76.709 35.9969 78.3821 37.1779 79.5126 36.9332C80.6431 36.6885 81.0847 34.0817 81.0847 32.7543C81.0433 31.4085 80.7781 30.0789 80.3 28.8202C79.9542 28.0435 79.1375 28.8654 79.1375 28.8654Z" fill="white" stroke="#263238" stroke-linecap="round" stroke-linejoin="round"/>
<path d="M78.2026 31.8534C78.2026 32.1194 78.1068 32.3482 77.9844 32.3482C77.8621 32.3482 77.7637 32.1274 77.7637 31.8534C77.7637 31.5794 77.8621 31.3613 77.9844 31.3613C78.1068 31.3613 78.2026 31.5821 78.2026 31.8534Z" fill="#263238"/>
<path d="M79.9565 31.6894C79.9565 31.9554 79.8581 32.1841 79.7384 32.1841C79.6187 32.1841 79.5176 31.9633 79.5176 31.6894C79.5176 31.4154 79.616 31.1973 79.7384 31.1973C79.8607 31.1973 79.9565 31.418 79.9565 31.6894Z" fill="#263238"/>
<path d="M77.1602 30.8567C77.1602 30.8567 77.4873 30.3646 78.3119 30.5907" stroke="#263238" stroke-linecap="round" stroke-linejoin="round"/>
<path d="M79.2441 30.5906C79.2441 30.5906 79.7921 29.9868 80.2869 30.5906" stroke="#263238" stroke-linecap="round" stroke-linejoin="round"/>
<path d="M79.1895 31.6875C79.1895 31.6875 79.2427 32.7861 79.5725 32.7861C79.9023 32.7861 79.7906 33.2782 79.3517 33.4431" stroke="#263238" stroke-linecap="round" stroke-linejoin="round"/>
<path d="M78.9129 34.5428C78.9129 34.5428 77.926 34.9817 77.543 33.9922" stroke="#263238" stroke-linecap="round" stroke-linejoin="round"/>
<path d="M79.1445 58.8234C79.1445 58.8234 73.5585 53.9237 67.7704 52.2559C61.9822 50.5881 55.3216 51.3728 49.5361 49.806C43.7506 48.2393 40.4203 46.082 40.4203 46.082L40.125 51.277L78.961 61.7681L105.529 54.4158L108.176 49.024C108.176 49.024 104.941 50.6892 99.1557 52.0617C93.3702 53.4343 86.8878 53.4316 83.2569 54.7962C79.626 56.1608 79.1445 58.8234 79.1445 58.8234Z" fill="white" stroke="#263238" stroke-linecap="round" stroke-linejoin="round"/>
<path d="M39.5371 47.2539C39.5371 47.2539 46.0168 51.1774 60.6149 52.55C70.2308 53.4517 79.1445 58.8222 79.1445 58.8222C83.0503 56.325 87.5469 54.9045 92.1785 54.7046C99.826 54.412 108.551 51.3716 108.551 51.3716L106.888 54.795L78.3598 60.381L38.9492 50.0868L39.5371 47.2539Z" fill="white" stroke="#263238" stroke-linecap="round" stroke-linejoin="round"/>
<path d="M38.4605 48.4336C43.9755 50.9245 49.8783 52.447 55.9101 52.9343C66.3985 53.719 78.8499 58.8156 78.8499 58.8156C78.8499 58.8156 85.4175 55.2884 92.6819 55.2884C98.0776 55.2424 103.446 54.5176 108.661 53.1312C108.498 53.673 108.458 54.244 108.543 54.8033C108.628 55.3625 108.835 55.8961 109.15 56.3657L78.7515 62.8428L38.2637 51.0723L38.4605 48.4336Z" fill="white" stroke="#263238" stroke-linecap="round" stroke-linejoin="round"/>
<path d="M38.6573 50.7615L77.4773 60.4918V61.8644L80.8103 61.9628V60.3828L110.025 55.7756C110.025 55.7756 111.299 55.4804 110.222 56.9514C109.145 58.4223 90.3198 74.7946 90.3198 74.7946L69.4388 76.9519L37.7715 70.0013L37.9603 51.2989C37.9609 51.2141 37.9808 51.1305 38.0185 51.0545C38.0562 50.9785 38.1107 50.9121 38.1779 50.8604C38.245 50.8086 38.3231 50.7728 38.4062 50.7556C38.4892 50.7385 38.5751 50.7405 38.6573 50.7615Z" fill="#FFD029"/>
<mask id="mask6_12435_52454" style="mask-type:luminance" maskUnits="userSpaceOnUse" x="37" y="50" width="74" height="27">
<path d="M38.6573 50.7615L77.4773 60.4918V61.8644L80.8103 61.9628V60.3828L110.025 55.7756C110.025 55.7756 111.299 55.4804 110.222 56.9514C109.145 58.4223 90.3198 74.7946 90.3198 74.7946L69.4388 76.9519L37.7715 70.0013L37.9603 51.2989C37.9609 51.2141 37.9808 51.1305 38.0185 51.0545C38.0562 50.9785 38.1107 50.9121 38.1779 50.8604C38.245 50.8086 38.3231 50.7728 38.4062 50.7556C38.4892 50.7385 38.5751 50.7405 38.6573 50.7615Z" fill="white"/>
</mask>
<g mask="url(#mask6_12435_52454)">
<path opacity="0.3" d="M77.4766 61.8649V60.4923L37.9676 50.5918L37.7734 70.0018L69.4381 76.963L70.0047 76.9045L78.3624 61.8915L77.4766 61.8649Z" fill="#121212"/>
</g>
<path d="M38.6573 50.7615L77.4773 60.4918V61.8644L80.8103 61.9628V60.3828L110.025 55.7756C110.025 55.7756 111.299 55.4804 110.222 56.9514C109.145 58.4223 90.3198 74.7946 90.3198 74.7946L69.4388 76.9519L37.7715 70.0013L37.9603 51.2989C37.9609 51.2141 37.9808 51.1305 38.0185 51.0545C38.0562 50.9785 38.1107 50.9121 38.1779 50.8604C38.245 50.8086 38.3231 50.7728 38.4062 50.7556C38.4892 50.7385 38.5751 50.7405 38.6573 50.7615Z" stroke="#263238" stroke-linecap="round" stroke-linejoin="round"/>
<path d="M77.4768 61.8633L68.752 76.9614L70.4198 77.0572L80.8097 61.9617L77.4768 61.8633Z" fill="#FFD029" stroke="#263238" stroke-linecap="round" stroke-linejoin="round"/>
<path d="M106.596 56.3918C106.596 56.3918 109.2 56.8785 108.657 58.6155L110.221 56.9557C110.221 56.9557 110.937 56.0646 110.61 55.8917C110.282 55.7188 106.596 56.3918 106.596 56.3918Z" fill="#263238"/>
<path d="M42.2567 51.7469C42.2567 51.7469 38.5726 52.7657 38.0007 55.5188L37.9688 51.2973C37.9688 51.2973 38.0805 50.6616 38.663 50.7653C39.2456 50.8691 42.2567 51.7469 42.2567 51.7469Z" fill="#263238"/>
<path d="M37.808 68.707L39.6594 70.4706L37.7734 69.9998L37.808 68.707Z" fill="#263238"/>
<path d="M88.9863 74.9178L91.4974 73.6836L90.1753 74.8301L88.9863 74.9178Z" fill="#263238"/>
<path d="M88.106 44.0703L95.1709 52.5398L93.3914 52.8217L85.8184 46.4377C85.8184 46.4377 87.7788 45.1529 88.106 44.0703Z" fill="white" stroke="#263238" stroke-linecap="round" stroke-linejoin="round"/>
<path d="M56.777 49.7045C56.777 49.7045 56.4232 49.2762 56.3327 49.6593C56.2423 50.0423 55.4416 51.3723 56.0667 51.4654C56.6918 51.5585 57.0456 50.0396 57.0456 50.0396L56.777 49.7045Z" fill="white" stroke="#263238" stroke-linecap="round" stroke-linejoin="round"/>
<path d="M57.6222 49.6546C57.6222 49.6546 57.2658 49.2263 57.178 49.6067C57.0902 49.9871 56.2869 51.3197 56.912 51.4155C57.5371 51.5113 57.8935 49.9871 57.8935 49.9871L57.6222 49.6546Z" fill="white" stroke="#263238" stroke-linecap="round" stroke-linejoin="round"/>
<path d="M58.4718 49.6228C58.4718 49.6228 58.0489 49.1467 57.9398 49.5696C57.8308 49.9926 56.8758 51.4715 57.6233 51.5779C58.3707 51.6843 58.7857 49.9819 58.7857 49.9819L58.4718 49.6228Z" fill="white" stroke="#263238" stroke-linecap="round" stroke-linejoin="round"/>
<path d="M59.2106 49.7812L60.6364 51.1538H58.9473L59.2106 49.7812Z" fill="white" stroke="#263238" stroke-linecap="round" stroke-linejoin="round"/>
<path d="M59.212 49.781C59.212 49.781 58.7891 49.3049 58.68 49.7278C58.571 50.1508 57.616 51.6297 58.3635 51.7335C59.111 51.8372 59.5259 50.1375 59.5259 50.1375L59.212 49.781Z" fill="white" stroke="#263238" stroke-linecap="round" stroke-linejoin="round"/>
<path d="M97.089 51.0139C97.089 51.0139 97.3737 50.5351 97.5226 50.8969C97.6716 51.2587 98.6691 52.4503 98.0706 52.6419C97.4721 52.8334 96.8789 51.3863 96.8789 51.3863L97.089 51.0139Z" fill="white" stroke="#263238" stroke-linecap="round" stroke-linejoin="round"/>
<path d="M96.2551 51.094C96.2551 51.094 96.5397 50.6152 96.6886 50.977C96.8376 51.3387 97.8378 52.5304 97.2366 52.7219C96.6354 52.9135 96.0449 51.4664 96.0449 51.4664L96.2551 51.094Z" fill="white" stroke="#263238" stroke-linecap="round" stroke-linejoin="round"/>
<path d="M95.4136 51.1965C95.4136 51.1965 95.7567 50.6645 95.9269 51.0608C96.0972 51.4572 97.2569 52.7739 96.5547 52.9946C95.8525 53.2154 95.1582 51.6114 95.1582 51.6114L95.4136 51.1965Z" fill="white" stroke="#263238" stroke-linecap="round" stroke-linejoin="round"/>
<path d="M94.708 51.4707L93.5137 53.0507L95.1842 52.7847L94.708 51.4707Z" fill="white" stroke="#263238" stroke-linecap="round" stroke-linejoin="round"/>
<path d="M94.7085 51.4699C94.7085 51.4699 95.049 50.9379 95.2219 51.3343C95.3948 51.7306 96.5519 53.0446 95.8496 53.2654C95.1474 53.4862 94.4531 51.8849 94.4531 51.8849L94.7085 51.4699Z" fill="white" stroke="#263238" stroke-linecap="round" stroke-linejoin="round"/>
<path d="M46.2503 65.6786L47.9527 65.4126L46.2503 65.1466C46.1004 65.1239 45.9617 65.0538 45.8545 64.9466C45.7473 64.8394 45.6772 64.7007 45.6545 64.5508L45.3885 62.8457L45.1225 64.5508C45.0999 64.7003 45.0302 64.8387 44.9235 64.9459C44.8168 65.0531 44.6787 65.1234 44.5293 65.1466L42.8242 65.4126L44.5293 65.6786C44.6782 65.703 44.8157 65.7737 44.9222 65.8807C45.0286 65.9876 45.0987 66.1254 45.1225 66.2744L45.3885 67.9795L45.6545 66.2744C45.6783 66.125 45.7488 65.987 45.8558 65.88C45.9628 65.773 46.1009 65.7025 46.2503 65.6786Z" fill="white"/>
<path d="M33.5323 77.2274L35.2373 76.9614L33.5323 76.6954C33.383 76.6712 33.2451 76.6006 33.1382 76.4936C33.0313 76.3867 32.9607 76.2489 32.9364 76.0996L32.6704 74.3945L32.4044 76.0996C32.3813 76.2493 32.3111 76.3878 32.204 76.495C32.0968 76.6021 31.9583 76.6723 31.8086 76.6954L30.1035 76.9614L31.8086 77.2274C31.9583 77.2505 32.0968 77.3208 32.204 77.4279C32.3111 77.535 32.3813 77.6735 32.4044 77.8233L32.6704 79.5283L32.9364 77.8233C32.9607 77.674 33.0313 77.5362 33.1382 77.4292C33.2451 77.3223 33.383 77.2517 33.5323 77.2274Z" fill="#FFD029"/>
<path opacity="0.5" d="M33.5323 77.2274L35.2373 76.9614L33.5323 76.6954C33.383 76.6712 33.2451 76.6006 33.1382 76.4936C33.0313 76.3867 32.9607 76.2489 32.9364 76.0996L32.6704 74.3945L32.4044 76.0996C32.3813 76.2493 32.3111 76.3878 32.204 76.495C32.0968 76.6021 31.9583 76.6723 31.8086 76.6954L30.1035 76.9614L31.8086 77.2274C31.9583 77.2505 32.0968 77.3208 32.204 77.4279C32.3111 77.535 32.3813 77.6735 32.4044 77.8233L32.6704 79.5283L32.9364 77.8233C32.9607 77.674 33.0313 77.5362 33.1382 77.4292C33.2451 77.3223 33.383 77.2517 33.5323 77.2274Z" fill="white"/>
<path d="M75.9854 84.338L77.6904 84.072L75.9854 83.806C75.836 83.7831 75.6978 83.7133 75.5907 83.6066C75.4836 83.5 75.4132 83.3621 75.3895 83.2129L75.1235 81.5078L74.8575 83.2129C74.8339 83.3621 74.7635 83.5 74.6564 83.6066C74.5493 83.7133 74.4111 83.7831 74.2617 83.806L72.5566 84.072L74.2617 84.338C74.4111 84.361 74.5493 84.4308 74.6564 84.5375C74.7635 84.6441 74.8339 84.782 74.8575 84.9312L75.1235 86.6363L75.3895 84.9312C75.4132 84.782 75.4836 84.6441 75.5907 84.5375C75.6978 84.4308 75.836 84.361 75.9854 84.338Z" fill="#FFD029"/>
<path opacity="0.5" d="M75.9854 84.338L77.6904 84.072L75.9854 83.806C75.836 83.7831 75.6978 83.7133 75.5907 83.6066C75.4836 83.5 75.4132 83.3621 75.3895 83.2129L75.1235 81.5078L74.8575 83.2129C74.8339 83.3621 74.7635 83.5 74.6564 83.6066C74.5493 83.7133 74.4111 83.7831 74.2617 83.806L72.5566 84.072L74.2617 84.338C74.4111 84.361 74.5493 84.4308 74.6564 84.5375C74.7635 84.6441 74.8339 84.782 74.8575 84.9312L75.1235 86.6363L75.3895 84.9312C75.4132 84.782 75.4836 84.6441 75.5907 84.5375C75.6978 84.4308 75.836 84.361 75.9854 84.338Z" fill="white"/>
<path d="M31.351 68.1585L32.4789 67.9803L31.351 67.8021C31.2521 67.7868 31.1605 67.7404 31.0897 67.6696C31.019 67.5989 30.9726 67.5073 30.9573 67.4084L30.7818 66.2832L30.6036 67.4084C30.5883 67.5073 30.5419 67.5989 30.4711 67.6696C30.4003 67.7404 30.3088 67.7868 30.2099 67.8021L29.082 67.9803L30.2099 68.1585C30.3088 68.1737 30.4003 68.2201 30.4711 68.2909C30.5419 68.3617 30.5883 68.4532 30.6036 68.5522L30.7818 69.6774L30.9573 68.5522C30.9726 68.4532 31.019 68.3617 31.0897 68.2909C31.1605 68.2201 31.2521 68.1737 31.351 68.1585Z" fill="#FFD029"/>
<path opacity="0.5" d="M31.351 68.1585L32.4789 67.9803L31.351 67.8021C31.2521 67.7868 31.1605 67.7404 31.0897 67.6696C31.019 67.5989 30.9726 67.5073 30.9573 67.4084L30.7818 66.2832L30.6036 67.4084C30.5883 67.5073 30.5419 67.5989 30.4711 67.6696C30.4003 67.7404 30.3088 67.7868 30.2099 67.8021L29.082 67.9803L30.2099 68.1585C30.3088 68.1737 30.4003 68.2201 30.4711 68.2909C30.5419 68.3617 30.5883 68.4532 30.6036 68.5522L30.7818 69.6774L30.9573 68.5522C30.9726 68.4532 31.019 68.3617 31.0897 68.2909C31.1605 68.2201 31.2521 68.1737 31.351 68.1585Z" fill="white"/>
<path d="M104.517 70.6468L105.645 70.4712L104.517 70.293C104.418 70.2774 104.327 70.2309 104.256 70.1601C104.185 70.0894 104.139 69.9981 104.123 69.8993L103.945 68.7715L103.77 69.8993C103.754 69.9981 103.707 70.0894 103.637 70.1601C103.566 70.2309 103.475 70.2774 103.376 70.293L102.248 70.4712L103.376 70.6468C103.475 70.6624 103.566 70.7089 103.637 70.7796C103.707 70.8504 103.754 70.9417 103.77 71.0405L103.945 72.1683L104.123 71.0405C104.139 70.9417 104.185 70.8504 104.256 70.7796C104.327 70.7089 104.418 70.6624 104.517 70.6468Z" fill="#FFD029"/>
<path opacity="0.5" d="M104.517 70.6468L105.645 70.4712L104.517 70.293C104.418 70.2774 104.327 70.2309 104.256 70.1601C104.185 70.0894 104.139 69.9981 104.123 69.8993L103.945 68.7715L103.77 69.8993C103.754 69.9981 103.707 70.0894 103.637 70.1601C103.566 70.2309 103.475 70.2774 103.376 70.293L102.248 70.4712L103.376 70.6468C103.475 70.6624 103.566 70.7089 103.637 70.7796C103.707 70.8504 103.754 70.9417 103.77 71.0405L103.945 72.1683L104.123 71.0405C104.139 70.9417 104.185 70.8504 104.256 70.7796C104.327 70.7089 104.418 70.6624 104.517 70.6468Z" fill="white"/>
<path d="M52.9745 61.2736L54.0784 61.1007L52.9745 60.9278C52.8776 60.9126 52.7881 60.8671 52.7188 60.7978C52.6494 60.7285 52.6039 60.639 52.5888 60.5421L52.4132 59.4355L52.2403 60.5421C52.2248 60.6388 52.1791 60.7281 52.1099 60.7974C52.0406 60.8666 51.9513 60.9123 51.8546 60.9278L50.748 61.1007L51.8546 61.2736C51.9513 61.2892 52.0406 61.3348 52.1099 61.404C52.1791 61.4733 52.2248 61.5626 52.2403 61.6593L52.4026 62.7765L52.5781 61.6699C52.5918 61.5696 52.6379 61.4765 52.7095 61.405C52.7811 61.3334 52.8741 61.2872 52.9745 61.2736Z" fill="white"/>
<path d="M89.546 72.1962L90.6526 72.0206L89.546 71.8477C89.4493 71.8322 89.36 71.7865 89.2908 71.7173C89.2215 71.648 89.1759 71.5587 89.1603 71.462L88.9874 70.3555L88.8145 71.462C88.799 71.5587 88.7533 71.648 88.6841 71.7173C88.6148 71.7865 88.5255 71.8322 88.4288 71.8477L87.3223 72.0206L88.4288 72.1962C88.5257 72.2114 88.6152 72.2569 88.6845 72.3262C88.7539 72.3955 88.7994 72.485 88.8145 72.5819L88.9874 73.6858L89.1603 72.5819C89.1755 72.485 89.221 72.3955 89.2903 72.3262C89.3596 72.2569 89.4492 72.2114 89.546 72.1962Z" fill="white"/>
</svg>
