<svg width="238" height="228" viewBox="0 0 238 228" fill="none" xmlns="http://www.w3.org/2000/svg">
<mask id="mask0_11138_10178" style="mask-type:luminance" maskUnits="userSpaceOnUse" x="32" y="89" width="168" height="139">
<path d="M199.103 89.4172H32.1443V227.405H199.103V89.4172Z" fill="white"/>
</mask>
<g mask="url(#mask0_11138_10178)">
<path d="M174.965 169.782C174.965 169.782 176.586 169.269 173.628 165.277C170.67 161.284 164.183 155.258 164.183 155.258C164.183 155.258 161.09 165.813 174.965 169.782Z" fill="#201626"/>
<path d="M162.933 160.35L172.758 145.611L178.697 148.34L170.151 166.936L162.933 160.35Z" fill="#A53D31"/>
<path d="M171.712 145.507C171.712 145.507 171.67 142.216 173.593 140.289C175.515 138.362 176.538 136.311 178.066 134.978C179.594 133.644 179.21 136.355 178.714 137.756C178.218 139.156 177.67 140.75 178.782 140.952C179.894 141.154 189.061 137.906 190.571 138.363C192.081 138.819 190.763 139.808 190.763 139.808C190.763 139.808 192.824 139.095 193.542 139.891C194.26 140.687 193.099 141.524 193.099 141.524C193.099 141.524 194.499 141.093 194.69 142.115C194.88 143.137 187.436 146.92 187.756 147.462C188.076 148.004 191.341 144.569 192.403 145.387C193.466 146.205 190.853 147.663 188.954 149.071C187.056 150.478 184.599 151.361 182.191 151.205C179.782 151.049 175.659 152.051 174.061 149.765C172.462 147.478 171.712 145.507 171.712 145.507Z" fill="#A53D31"/>
<path d="M193.094 141.244C190.654 142.107 188.253 143.052 185.9 144.073C185.622 144.193 185.932 144.613 186.207 144.494C188.523 143.49 190.887 142.561 193.289 141.71C193.575 141.609 193.382 141.142 193.094 141.244Z" fill="#6B2636"/>
<path d="M190.622 139.752C188.686 140.234 186.863 140.927 185.155 141.827C184.889 141.967 185.197 142.388 185.462 142.248C187.135 141.366 188.921 140.69 190.817 140.218C191.118 140.144 190.923 139.677 190.622 139.752Z" fill="#6B2636"/>
<path d="M186.933 146.285C186.461 144.28 185.538 142.384 184.18 140.666C183.971 140.402 183.569 140.634 183.778 140.898C185.079 142.544 185.98 144.358 186.433 146.281C186.505 146.586 187.006 146.594 186.933 146.285Z" fill="#6B2636"/>
<path d="M183.022 143.604C179.877 143.064 177.137 144.315 175.902 146.868C175.775 147.131 176.243 147.378 176.37 147.114C177.51 144.757 180.049 143.568 182.961 144.068C183.284 144.123 183.348 143.659 183.022 143.604Z" fill="#6B2636"/>
<path d="M174.966 169.782C174.966 169.782 169.334 174.407 163.029 184.808C161.844 186.76 160.57 188.496 159.243 189.98C154.26 195.562 148.564 197.625 144.35 194.569C143.716 194.11 143.114 193.535 142.556 192.837C140.887 190.758 138.977 186.962 137.145 182.747C133.199 173.653 129.616 162.606 129.616 162.606L134.699 150.61L142.081 146.156L142.681 147.806L145.334 156.794L151.186 173.58L164.184 155.257C164.196 155.308 164.207 155.358 164.219 155.413C164.856 158.493 166.149 161.358 167.98 163.815C169.809 166.274 172.177 168.327 174.966 169.782Z" fill="#EC8B1E"/>
<path d="M159.243 189.98C154.259 195.561 148.563 197.624 144.349 194.569C147.009 192.182 152.838 187.767 158.04 189.426C158.513 189.578 158.91 189.763 159.243 189.98Z" fill="#FFBC00"/>
<path d="M150.865 173.397C149.11 176.61 147.715 179.993 146.697 183.511C146.588 183.889 147.178 184.051 147.287 183.673C148.291 180.205 149.663 176.874 151.394 173.705C151.582 173.36 151.054 173.05 150.865 173.397Z" fill="#FFBC00"/>
<path d="M149.23 176.692C148.178 177.566 147.239 178.566 146.187 179.441C145.884 179.693 146.318 180.123 146.619 179.873C147.671 178.999 148.61 177.999 149.662 177.124C149.966 176.872 149.53 176.442 149.23 176.692Z" fill="#FFBC00"/>
<path d="M54.8003 171.515C54.8003 171.515 53.0632 170.966 56.2339 166.686C59.4046 162.407 66.3565 155.948 66.3565 155.948C66.3565 155.948 69.6722 167.262 54.8003 171.515Z" fill="#201626"/>
<path d="M67.6965 161.406L57.1662 145.609L50.8013 148.534L59.9606 168.466L67.6965 161.406Z" fill="#A53D31"/>
<path d="M57.4362 145.786C57.1898 144.277 56.52 142.796 55.092 142.062C54.5919 141.805 54.0319 141.693 53.4809 141.583C52.8867 141.465 52.213 141.363 51.723 141.719C51.4929 141.886 51.3366 142.134 51.1339 142.334C50.57 142.889 49.2142 142.767 48.4862 142.728C47.2716 142.662 46.0592 142.51 44.849 142.392C43.5734 142.267 42.2954 142.137 41.0142 142.085C40.336 142.057 39.3666 141.918 38.7322 142.239C37.4027 142.911 38.7904 143.614 38.7904 143.614C38.7904 143.614 36.7582 143.29 36.2211 144.147C35.6841 145.005 36.8998 145.592 36.8998 145.592C36.8998 145.592 35.5273 145.422 35.5183 146.403C35.5094 147.385 43.0503 149.68 42.8414 150.236C42.6326 150.792 39.034 148.134 38.1806 149.069C37.3271 150.004 39.9955 150.931 41.9914 151.928C43.9872 152.925 46.4159 153.342 48.629 152.801C50.8422 152.26 54.84 152.516 55.9505 150.129C57.0621 147.741 57.4362 145.786 57.4362 145.786Z" fill="#A53D31"/>
<path d="M36.8595 145.331C39.2692 145.734 41.657 146.218 44.0112 146.781C44.2896 146.847 44.07 147.289 43.7951 147.223C41.4772 146.669 39.1269 146.193 36.7548 145.796C36.472 145.749 36.575 145.283 36.8595 145.331Z" fill="#6B2636"/>
<path d="M38.9131 143.538C40.7919 143.669 42.5996 144.014 44.3356 144.57C44.6061 144.657 44.3882 145.098 44.1189 145.012C42.4187 144.466 40.6474 144.131 38.8078 144.003C38.5161 143.984 38.6208 143.518 38.9131 143.538Z" fill="#6B2636"/>
<path d="M43.4143 149.006C43.5246 147.064 44.0717 145.151 45.0517 143.331C45.2024 143.051 45.6145 143.2 45.4633 143.48C44.5248 145.224 43.9849 147.058 43.8791 148.92C43.8617 149.216 43.3969 149.306 43.4143 149.006Z" fill="#6B2636"/>
<path d="M46.6103 145.872C49.4456 144.854 52.198 145.567 53.7643 147.737C53.9261 147.961 53.5319 148.268 53.3695 148.044C51.9236 146.04 49.3683 145.351 46.743 146.293C46.4518 146.397 46.3163 145.977 46.6103 145.872Z" fill="#6B2636"/>
<path d="M54.8003 171.516C54.8003 171.516 60.8371 176.473 67.5946 187.621C68.8641 189.713 70.23 191.573 71.6524 193.165C76.9937 199.147 83.0982 201.358 87.6152 198.083C88.2945 197.59 88.939 196.974 89.5382 196.226C91.3269 193.997 93.3742 189.929 95.337 185.411C99.5673 175.665 103.407 163.824 103.407 163.824L97.9589 150.966L93.9555 141.517L92.4133 145.361L87.5172 157.565L80.2876 175.586L66.3565 155.947C66.3441 156.002 66.3318 156.056 66.3201 156.113C65.6369 159.414 64.2503 162.485 62.2886 165.119C60.3269 167.756 57.789 169.956 54.8003 171.516Z" fill="#EC8B1E"/>
<path d="M71.6523 193.164C76.9936 199.146 83.0982 201.357 87.6151 198.082C84.7647 195.524 78.5168 190.792 72.9415 192.57C72.4347 192.733 72.0085 192.932 71.6523 193.164Z" fill="#FFBC00"/>
<path d="M80.6314 175.39C82.5135 178.834 84.0076 182.46 85.099 186.23C85.2166 186.636 84.5838 186.81 84.4668 186.404C83.391 182.687 81.9205 179.116 80.0652 175.721C79.863 175.35 80.4286 175.019 80.6314 175.39Z" fill="#FFBC00"/>
<path d="M82.384 178.922C83.5113 179.859 84.5182 180.931 85.6455 181.868C85.9703 182.138 85.5044 182.6 85.1818 182.331C84.0545 181.394 83.0482 180.323 81.9204 179.386C81.5956 179.115 82.062 178.654 82.384 178.922Z" fill="#FFBC00"/>
<path d="M98.3257 186.336L98.4724 187.173L98.9736 190.034L99.9323 195.515C118.307 202.591 133.643 193.264 133.643 193.264C133.272 192.45 133.054 191.276 132.932 190.034C132.752 188.247 132.768 186.321 132.807 185.133C132.827 184.426 132.857 183.978 132.857 183.978L98.3257 186.336Z" fill="#A53D31"/>
<path d="M98.4724 187.173L98.9736 190.034C108.184 191.418 119.694 191.294 132.932 190.034C132.752 188.247 132.768 186.321 132.807 185.133L98.4724 187.173Z" fill="#6B2636"/>
<path d="M136.005 198.167C136.005 198.167 145.276 207.775 145.714 222.473C146.307 242.433 140.9 318.584 139.967 333.144C139.069 347.184 136.501 380.009 135.313 395.056C134.971 399.387 131.236 402.653 126.899 402.417L114.72 401.753C110.318 401.513 106.939 397.759 107.163 393.357C108.82 360.686 114.979 238.143 114.612 228.032C114.187 216.357 115.036 202.134 115.036 202.134L136.005 198.167Z" fill="#4F52A9"/>
<path d="M79.6795 249.637C82.564 238.579 82.9319 233.097 85.1826 224.949C87.086 224.182 91.3493 212.94 93.1475 211.942C95.6725 210.54 98.1309 209.015 100.66 207.618C102.558 206.569 104.437 205.486 106.269 204.327C109.988 201.976 113.858 199.226 116.391 195.517C118.341 198.471 119.552 203.772 119.494 212.537L85.6995 396.627C85.1876 399.414 82.7751 401.449 79.9415 401.479C74.9329 401.533 67.136 401.432 61.7427 400.489C58.5915 399.938 56.4484 396.986 56.9015 393.819C60.2413 370.466 75.1647 266.943 79.6795 249.637Z" fill="#4F52A9"/>
<path d="M139.291 204.358C139.291 204.358 135.838 198.911 133.644 191.605C133.644 191.605 120.524 197.724 99.1625 194.236C99.1625 194.236 91.654 206.532 85.1826 224.948C85.1826 224.948 134.545 213.21 139.291 204.358Z" fill="#4F52A9"/>
<path d="M104.172 200.811C103.396 211.222 95.4216 219.803 85.9352 223.403C85.5404 223.553 85.3696 222.919 85.7611 222.771C94.9557 219.281 102.763 210.908 103.516 200.811C103.547 200.393 104.203 200.389 104.172 200.811Z" fill="#6168BD"/>
<path d="M126.107 200.628C126.241 205.584 128.319 210.405 131.934 213.821C135.551 217.237 140.488 219.024 145.442 218.876C145.864 218.863 145.864 219.519 145.442 219.531C140.313 219.685 135.213 217.814 131.47 214.284C127.729 210.755 125.589 205.748 125.452 200.628C125.44 200.205 126.096 200.206 126.107 200.628Z" fill="#6168BD"/>
<path d="M117.173 215.506C116.521 223.445 115.665 231.365 115.013 239.305C114.979 239.722 114.323 239.726 114.358 239.305C115.01 231.365 115.866 223.445 116.517 215.506C116.552 215.088 117.208 215.084 117.173 215.506Z" fill="#6168BD"/>
<path d="M114.004 216.121C113.631 218.375 113.368 220.642 113.233 222.922C113.174 223.917 113.096 224.931 113.134 225.927C113.179 227.068 113.823 229.212 115.446 228.421C115.824 228.237 116.157 228.802 115.777 228.987C113.608 230.044 112.499 227.492 112.478 225.753C112.438 222.482 112.838 219.169 113.371 215.947C113.44 215.532 114.072 215.708 114.004 216.121Z" fill="#6168BD"/>
<path d="M134.796 197.777C132.784 199.79 129.426 200.076 126.771 200.559C123.376 201.176 119.951 201.657 116.504 201.865C109.906 202.263 103.108 201.663 96.9795 199.046C96.5925 198.881 96.9263 198.316 97.3104 198.48C103.197 200.994 109.747 201.575 116.084 201.234C119.406 201.055 122.707 200.615 125.981 200.037C128.645 199.566 132.313 199.334 134.333 197.313C134.631 197.015 135.094 197.479 134.796 197.777Z" fill="#6168BD"/>
<path d="M142.807 150.561C142.575 154.919 140.383 160.289 138.537 164.396C137.7 166.254 137.023 168.645 136.479 171.18C134.876 178.68 134.432 187.44 134.432 187.44C118.495 188.133 100.643 189.992 95.8621 188.306C95.8621 188.306 95.6493 187.128 95.3374 185.411C94.8289 182.616 94.0561 178.386 93.486 175.426C92.6679 171.177 91.7814 163.923 91.5966 156.55C91.5731 155.631 91.5591 154.706 91.5591 153.786C91.5591 150.805 91.8525 147.924 92.4148 145.361C93.4104 140.81 95.2618 137.244 97.8484 135.832C99.1796 135.104 102.225 134.964 105.715 135.099C109.501 135.246 113.809 135.722 117.013 136.133C119.837 136.497 121.804 136.811 121.804 136.811C121.804 136.811 122.194 136.989 122.885 137.287C123.214 137.431 123.611 137.601 124.065 137.795C127.228 139.145 133.192 141.593 138.538 143.248C140.203 143.764 141.304 144.7 141.974 145.922C142.674 147.204 142.901 148.8 142.807 150.561Z" fill="#EC8B1E"/>
<path d="M121.325 131.522C121.325 131.522 122.783 126.556 129.449 122.848C136.114 119.14 136.965 107.804 129.85 102.231C128.025 100.801 126.152 100.446 125.21 99.4782C119.155 93.2627 110.985 97.4134 107.098 100.62C102.507 104.407 105.15 108.711 105.715 112.654C106.281 116.598 121.325 131.522 121.325 131.522Z" fill="#343737"/>
<path d="M127.349 102L131.141 106.101C141.833 100.78 150.863 115.202 150.863 115.202C153.294 113.959 155.092 112.47 156.423 110.929L154.768 108.346L157.129 110.05C158.349 108.421 159.087 106.778 159.53 105.353L155.942 101.936L159.887 104.001C160.257 102.278 160.196 101.114 160.196 101.114C144.445 84.9591 127.349 102 127.349 102Z" fill="#343737"/>
<path d="M128.53 101.169C130.516 101.723 132.089 103.184 132.771 105.132C132.889 105.469 133.429 105.324 133.309 104.984C132.562 102.849 130.86 101.239 128.679 100.63C128.332 100.533 128.184 101.072 128.53 101.169Z" fill="#201626"/>
<path d="M123.271 121.385L123.177 123.242L123.108 124.636L123.039 126.02L122.351 139.436C119.427 142.497 106.519 144.466 107.817 136.968L109.383 132.849L110.81 129.09L111.094 128.351L112.289 125.203L123.271 121.385Z" fill="#A53D31"/>
<path d="M123.776 137.69C123.776 137.69 118.716 147.796 109.694 146.051C103.912 144.933 107.819 136.967 107.819 136.967C107.819 136.967 112.475 136.317 116.726 136.028C119.55 136.392 121.516 136.707 121.516 136.707C121.516 136.707 121.907 136.885 122.597 137.182C122.925 137.326 123.322 137.497 123.776 137.69Z" fill="#A53D31"/>
<path d="M120.101 126.312C114.383 133.57 109.778 135.652 108.483 135.218L111.095 128.351L120.101 126.312Z" fill="#201626"/>
<path d="M126.832 119.708C126.006 121.35 125.31 122.373 124.381 123.38C124.002 123.792 123.581 124.197 123.108 124.635C122.867 124.859 122.618 125.091 122.342 125.348C121.99 125.667 121.603 126.01 121.181 126.398C118.524 128.823 114.586 129.571 112.676 129.373C112.014 129.304 111.386 129.21 110.81 129.089C105.289 127.963 103.337 124.437 105.642 116.207C107.233 110.557 106.236 107.057 108.102 105.105H108.11C108.222 105.028 108.342 104.942 108.454 104.864C111.274 102.972 114.74 102.302 118.077 102.886C134.691 105.785 129.051 115.288 126.832 119.708Z" fill="#A53D31"/>
<path d="M124.381 123.38C124.002 123.793 123.581 124.197 123.108 124.636L123.039 126.02C122.764 125.831 122.532 125.599 122.342 125.35C121.646 124.438 121.474 123.294 121.474 123.294C121.612 123.14 122.368 123.166 123.177 123.243C123.59 123.276 124.02 123.328 124.381 123.38Z" fill="#201626"/>
<path d="M110.24 118.437C110.239 118.437 110.237 118.436 110.235 118.436C109.838 118.318 109.124 117.886 109.267 117.091C109.4 116.342 110.108 116.14 110.567 116.132L111.112 115.218C111.178 115.107 111.321 115.071 111.433 115.136C111.543 115.203 111.58 115.346 111.514 115.457L110.899 116.488C110.854 116.565 110.768 116.609 110.679 116.601C110.646 116.599 109.839 116.546 109.727 117.173C109.623 117.754 110.338 117.978 110.369 117.987C110.492 118.025 110.562 118.155 110.525 118.279C110.489 118.401 110.362 118.471 110.24 118.437Z" fill="#201626"/>
<path d="M109.741 102.279C109.741 102.279 104.773 104.922 106.28 106.271C107.786 107.619 115.97 100.915 120.807 110.788C122.012 113.246 120.204 115.604 124.206 117.247C128.208 118.891 129.106 118.561 130.497 115.067C131.888 111.573 128.871 102.939 120.29 101.409C111.711 99.8799 109.741 102.279 109.741 102.279Z" fill="#343737"/>
<path d="M114.562 104.473C114.562 104.473 114.016 112.957 122.789 114.621C131.562 116.284 126.497 102.971 114.562 104.473Z" fill="#343737"/>
<path d="M114.767 105.218C115.961 102.224 119.497 101.818 122.296 101.728C122.623 101.718 122.625 101.209 122.296 101.219C119.226 101.318 115.567 101.846 114.276 105.083C114.155 105.387 114.647 105.519 114.767 105.218Z" fill="#201626"/>
<path d="M127.232 108.961C126.227 108.923 124.287 109.249 123.361 109.87C122.796 112.343 119.913 118.649 122.609 119.756C126.611 121.4 126.09 124.341 129.285 117.618C130.498 115.067 130.903 111.432 129.965 109.165C129.062 109.066 128.154 108.995 127.232 108.961Z" fill="#343737"/>
<path d="M115.308 115.214C114.74 115 114.109 115.2 113.738 115.67C113.458 116.025 112.919 115.577 113.199 115.222C113.77 114.497 114.74 114.252 115.596 114.574C116.02 114.733 115.729 115.372 115.308 115.214Z" fill="#201626"/>
<path d="M109.404 115.326C109.12 114.745 108.615 114.445 107.972 114.456C107.523 114.464 107.454 113.766 107.906 113.758C108.891 113.74 109.631 114.202 110.063 115.085C110.26 115.49 109.6 115.728 109.404 115.326Z" fill="#201626"/>
<path d="M109.074 124.389C109.703 124.758 110.422 124.912 111.075 124.517C111.406 124.317 111.079 123.813 110.748 124.014C110.282 124.296 109.785 124.111 109.351 123.856C109.017 123.66 108.742 124.194 109.074 124.389Z" fill="#6B2636"/>
<path d="M118.169 119.018C118.064 119.509 117.215 119.743 116.274 119.542C115.332 119.341 114.653 118.78 114.758 118.29C114.862 117.799 115.711 117.565 116.653 117.765C117.595 117.967 118.273 118.527 118.169 119.018Z" fill="#6B2636"/>
<path d="M108.305 117.437C108.2 117.929 107.351 118.163 106.41 117.962C105.967 117.868 105.582 117.693 105.311 117.485C105.411 117.071 105.521 116.646 105.644 116.208C105.648 116.19 105.654 116.172 105.657 116.156C105.979 116.093 106.376 116.098 106.79 116.186C107.73 116.387 108.41 116.947 108.305 117.437Z" fill="#6B2636"/>
<path d="M115.048 112.749C115.769 112.637 116.632 112.941 116.762 113.749C116.884 114.504 118.085 114.444 117.961 113.679C117.732 112.254 116.41 111.327 114.978 111.55C114.222 111.668 114.283 112.869 115.048 112.749Z" fill="#201626"/>
<path d="M107.903 112.876C108.474 112.415 109.211 111.732 109.987 112.107C110.682 112.444 111.237 111.379 110.54 111.042C109.306 110.444 108.213 111.09 107.25 111.868C106.655 112.35 107.303 113.362 107.903 112.876Z" fill="#201626"/>
<path d="M107.744 119.575C107.744 119.575 109.898 120.444 114.095 120.249C114.095 120.249 112.982 123.876 109.986 123.218C107.444 122.659 107.744 119.575 107.744 119.575Z" fill="white"/>
<path d="M119.828 120.936C119.679 119.662 120.176 118.4 121.087 117.496C122.267 116.324 124.358 114.579 125.892 115.131C128.146 115.943 127.986 118.066 127.313 120.12C126.641 122.175 124.678 124.637 121.874 123.581C120.472 123.053 119.95 121.98 119.828 120.936Z" fill="#A53D31"/>
<path d="M122.604 122.044L119.865 125.669C119.719 125.862 119.839 126.14 120.078 126.167L124.204 126.64C124.431 126.666 124.609 126.447 124.535 126.229L123.148 122.132C123.069 121.895 122.755 121.844 122.604 122.044Z" fill="white"/>
<path d="M122.973 121.185C123.022 120.3 123.135 119.386 123.611 118.616C124.037 117.929 125.066 117.009 125.958 117.498C126.257 117.662 126.564 117.224 126.263 117.059C125.404 116.588 124.432 116.964 123.754 117.6C122.775 118.519 122.512 119.862 122.44 121.147C122.421 121.491 122.954 121.529 122.973 121.185Z" fill="#201626"/>
<path d="M116.975 110.455C116.975 110.455 117.349 112.17 119.059 115.291C120.666 118.225 119.808 120.213 118.382 122.592C116.956 124.971 120.916 127.675 120.916 127.675C120.916 127.675 119.484 123.783 121.375 120.665C123.266 117.547 123.476 112.859 121.647 111.971C119.819 111.082 116.975 110.455 116.975 110.455Z" fill="#343737"/>
<path d="M122.995 115.864C124.715 114.102 127.295 113.503 129.618 114.312C129.928 114.42 130.062 113.929 129.753 113.821C127.266 112.955 124.473 113.621 122.635 115.504C122.406 115.74 122.766 116.1 122.995 115.864Z" fill="#201626"/>
<path d="M127.809 139.35C127.846 144.471 132.023 148.626 137.152 148.626C139.111 148.626 140.927 148.023 142.429 146.989C142.359 146.773 142.278 146.563 142.186 146.36C140.768 147.374 139.028 147.971 137.153 147.971C132.473 147.971 128.646 144.253 128.472 139.615C128.246 139.525 128.025 139.437 127.809 139.35Z" fill="#FFBC00"/>
<path d="M91.3245 148.077C91.5149 148.156 91.7092 148.228 91.9057 148.291C92.8348 148.601 93.8249 148.77 94.8564 148.77C95.5693 148.77 96.262 148.689 96.9284 148.536C101.085 147.594 104.2 143.867 104.2 139.429C104.2 137.848 103.807 136.36 103.109 135.055C102.855 135.057 102.608 135.062 102.366 135.068C103.116 136.349 103.544 137.839 103.544 139.428C103.544 143.596 100.594 147.087 96.6708 147.924H96.6685C96.0828 148.049 95.4774 148.114 94.8564 148.114C93.8557 148.114 92.8936 147.944 91.9976 147.631C91.8514 147.58 91.7092 147.526 91.5669 147.467L91.3245 148.077Z" fill="#FFBC00"/>
<path d="M110.298 155.947C110.298 161.099 114.488 165.291 119.641 165.291C124.793 165.291 128.983 161.099 128.983 155.947C128.983 150.796 124.793 146.604 119.641 146.604C114.487 146.604 110.298 150.796 110.298 155.947ZM110.954 155.947C110.954 151.159 114.851 147.26 119.641 147.26C124.43 147.26 128.327 151.159 128.327 155.947C128.327 160.738 124.43 164.635 119.641 164.635C114.85 164.635 110.954 160.738 110.954 155.947Z" fill="#FFBC00"/>
<path d="M88.6174 163.068C89.1713 165.264 90.5612 167.131 92.4305 168.305C93.7655 169.145 95.3459 169.632 97.0376 169.632C98.8649 169.632 100.565 169.064 101.964 168.093C101.964 168.093 101.966 168.093 101.966 168.091C104.235 166.526 105.725 163.908 105.725 160.944C105.725 156.674 102.629 153.111 98.5614 152.39C98.0674 152.302 97.5578 152.256 97.0382 152.256C95.3313 152.256 93.7398 152.753 92.3952 153.608C92.1975 153.734 91.9338 153.62 91.899 153.388C91.899 153.386 91.8985 153.383 91.8979 153.381C91.8783 153.253 91.9321 153.122 92.0418 153.053C93.4866 152.133 95.2008 151.601 97.0382 151.601C97.4514 151.601 97.8597 151.627 98.2601 151.68C102.837 152.28 106.382 156.206 106.382 160.944C106.382 164.43 104.463 167.477 101.623 169.081C100.268 169.848 98.7036 170.287 97.0382 170.287C95.4035 170.287 93.8646 169.866 92.5268 169.122C90.4895 167.995 88.9204 166.126 88.175 163.884C88.3167 163.614 88.4651 163.342 88.6174 163.068Z" fill="#FFBC00"/>
<path d="M132.931 165.886C133.199 165.886 133.463 165.901 133.725 165.923C133.679 166.138 133.633 166.352 133.59 166.568C133.373 166.552 133.154 166.541 132.932 166.541C128.143 166.541 124.244 170.439 124.244 175.227C124.244 179.551 127.42 183.146 131.56 183.806C131.592 184.03 131.621 184.255 131.65 184.481C127.103 183.853 123.588 179.943 123.588 175.227C123.588 170.075 127.781 165.886 132.931 165.886Z" fill="#FFBC00"/>
<path d="M99.8506 182.413C99.8506 183.896 100.225 185.293 100.883 186.516C100.625 186.49 100.367 186.464 100.109 186.439C99.523 185.219 99.1948 183.853 99.1948 182.412C99.1948 177.259 103.387 173.069 108.538 173.069C113.69 173.069 117.882 177.259 117.882 182.412C117.882 183.613 117.653 184.759 117.238 185.814C116.998 185.819 116.759 185.828 116.52 185.84C116.974 184.787 117.226 183.629 117.226 182.412C117.226 177.622 113.329 173.725 108.538 173.725C103.748 173.725 99.8506 177.622 99.8506 182.413Z" fill="#FFBC00"/>
<path d="M95.5015 185.99C101.873 186.601 108.18 186.362 114.554 185.974C121.116 185.575 127.689 185.36 134.249 184.927C134.67 184.899 134.668 185.555 134.249 185.583C127.689 186.015 121.117 186.231 114.554 186.629C108.179 187.017 101.873 187.256 95.5015 186.646C95.0854 186.605 95.0809 185.949 95.5015 185.99Z" fill="#FFBC00"/>
<path d="M134.857 163.627C132.976 170.71 132.125 178.01 132.322 185.336C132.333 185.759 131.677 185.758 131.666 185.336C131.468 177.955 132.329 170.59 134.224 163.453C134.332 163.046 134.965 163.219 134.857 163.627Z" fill="#FFBC00"/>
<path d="M90.7801 157.267C90.9067 157.055 91.0332 156.842 91.1604 156.627C91.4712 156.52 91.792 156.442 92.1118 156.361C90.2403 159.593 88.1873 162.788 88.2629 166.618C88.343 170.66 90.5584 173.613 93.0145 176.604C93.9844 177.784 94.89 178.921 95.338 180.407C95.8117 181.976 95.8072 183.634 95.73 185.255C95.7098 185.675 95.054 185.678 95.0742 185.255C95.1571 183.524 95.1666 181.735 94.5428 180.09C93.8736 178.326 92.4092 176.932 91.25 175.48C89.1668 172.871 87.6749 170.026 87.6072 166.618C87.5394 163.165 89.0609 160.162 90.7801 157.267Z" fill="#FFBC00"/>
</g>
<path d="M39.9915 227.405H184.093" stroke="#343737" stroke-miterlimit="10"/>
<path d="M47.0133 132.666C47.6791 132.6 48.2721 133.086 48.3382 133.752L50.3363 154.102C50.4024 154.767 49.9163 155.36 49.2505 155.427L48.6479 155.486C47.9821 155.553 47.389 155.066 47.3229 154.401L45.3249 134.051C45.2588 133.385 45.7449 132.792 46.4107 132.726L47.0133 132.666Z" fill="#343737"/>
<path d="M49.2225 136.587C49.4095 136.568 49.5764 136.705 49.5949 136.892L49.9981 140.959C50.0166 141.146 49.8799 141.312 49.6929 141.331L45.6262 141.734C45.4391 141.753 45.2722 141.616 45.2538 141.429L44.8506 137.362C44.8321 137.175 44.9687 137.008 45.1558 136.99L49.2225 136.587Z" fill="#FFBC00"/>
<path d="M52.7007 121.412C57.1846 125.087 57.8404 131.701 54.1651 136.185C50.4898 140.669 43.8757 141.325 39.3918 137.649C34.9078 133.974 34.2521 127.36 37.9274 122.876C41.6026 118.392 48.2168 117.736 52.7007 121.412Z" fill="#343737"/>
<path d="M51.3353 123.077C54.8997 125.999 55.4205 131.256 52.4996 134.82C49.5781 138.384 44.3208 138.905 40.7564 135.984C37.192 133.063 36.6712 127.805 39.5927 124.241C42.5137 120.677 47.7715 120.156 51.3353 123.077Z" fill="#B4E7E9"/>
<path d="M39.5928 124.241C42.5143 120.678 47.7716 120.156 51.3354 123.078C54.8998 125.999 55.4206 131.257 52.4997 134.82C49.5781 138.385 44.3209 138.906 40.7565 135.985C37.1926 133.063 36.6713 127.805 39.5928 124.241ZM39.268 123.975C36.2042 127.712 36.753 133.246 40.4905 136.309C44.2279 139.372 49.7613 138.824 52.8245 135.086C55.8877 131.349 55.3394 125.816 51.6014 122.752C47.864 119.689 42.3312 120.238 39.268 123.975Z" fill="white"/>
<path opacity="0.5" d="M45.485 122.013C48.5057 122.638 50.3201 126.213 49.5372 129.998C48.7543 133.783 45.6709 136.345 42.6503 135.72C39.6297 135.095 37.8158 131.52 38.5981 127.735C39.381 123.95 42.4644 121.388 45.485 122.013Z" fill="white"/>
<path opacity="0.5" d="M42.0539 124.641C43.6897 124.979 44.6736 126.906 44.2525 128.945C43.8308 130.984 42.1631 132.362 40.5273 132.024C38.891 131.685 37.9071 129.758 38.3288 127.72C38.7505 125.681 40.4181 124.302 42.0539 124.641Z" fill="white"/>
<path d="M50.6913 145.062C51.2905 145.341 51.8791 145.645 52.5287 145.623C53.1419 145.603 53.736 145.264 54.0664 144.747C55.201 142.975 53.8105 141.391 51.9642 141.416C51.0391 141.428 50.1291 141.64 49.228 141.849C48.01 142.132 46.792 142.416 45.574 142.7C45.4072 142.738 45.2212 142.791 45.1367 142.94C45.0824 143.037 45.0829 143.154 45.1003 143.264C45.3534 144.854 47.1964 144.635 48.341 144.604C48.7761 144.592 49.2163 144.581 49.6419 144.673C50.0042 144.751 50.3492 144.903 50.6913 145.062Z" fill="#A53D31"/>
<path d="M21.0787 210.374C15.3163 210.374 10.6442 215.046 10.6442 220.809C10.6442 215.046 5.97212 210.374 0.209717 210.374C5.97212 210.374 10.6442 205.702 10.6442 199.94C10.6442 205.703 15.3163 210.374 21.0787 210.374Z" fill="#FFBC00"/>
<path d="M221.687 176.597C217.274 176.597 213.696 180.175 213.696 184.589C213.696 180.175 210.117 176.597 205.704 176.597C210.117 176.597 213.696 173.019 213.696 168.605C213.696 173.019 217.274 176.597 221.687 176.597Z" fill="#FFBC00"/>
<path d="M16.6127 22.8221C12.1993 22.8221 8.62091 26.4005 8.62091 30.8138C8.62091 26.4005 5.04251 22.8221 0.62915 22.8221C5.04251 22.8221 8.62091 19.2437 8.62091 14.8303C8.62147 19.2437 12.1993 22.8221 16.6127 22.8221Z" fill="#FFBC00"/>
<path d="M237.989 42.0048C232.226 42.0048 227.554 46.6769 227.554 52.4393C227.554 46.6769 222.882 42.0048 217.12 42.0048C222.882 42.0048 227.554 37.3327 227.554 31.5703C227.555 37.3327 232.226 42.0048 237.989 42.0048Z" fill="#FFBC00"/>
<path d="M30.3203 205.045C28.1144 205.045 26.3258 206.834 26.3258 209.039C26.3258 206.834 24.5371 205.045 22.3313 205.045C24.5371 205.045 26.3258 203.256 26.3258 201.051C26.3263 203.257 28.1144 205.045 30.3203 205.045Z" fill="#FFBC00"/>
<path d="M220.133 16.1715C217.927 16.1715 216.139 17.9601 216.139 20.166C216.139 17.9601 214.35 16.1715 212.144 16.1715C214.35 16.1715 216.139 14.3828 216.139 12.177C216.139 14.3834 217.927 16.1715 220.133 16.1715Z" fill="#FFBC00"/>
<path d="M26.3264 158.411C24.1205 158.411 22.3319 160.2 22.3319 162.405C22.3319 160.2 20.5432 158.411 18.3374 158.411C20.5432 158.411 22.3319 156.622 22.3319 154.417C22.3319 156.623 24.1205 158.411 26.3264 158.411Z" fill="#FFBC00"/>
<path d="M39.4511 4.85508C37.2453 4.85508 35.4566 6.64371 35.4566 8.84956C35.4566 6.64371 33.668 4.85508 31.4622 4.85508C33.668 4.85508 35.4566 3.06644 35.4566 0.860596C35.4566 3.067 37.2453 4.85508 39.4511 4.85508Z" fill="#FFBC00"/>
<path d="M235.543 131.628C233.337 131.628 231.548 133.416 231.548 135.622C231.548 133.416 229.76 131.628 227.554 131.628C229.76 131.628 231.548 129.839 231.548 127.633C231.548 129.84 233.337 131.628 235.543 131.628Z" fill="#FFBC00"/>
<path d="M223.146 210.375C220.94 210.375 219.151 212.163 219.151 214.369C219.151 212.163 217.363 210.375 215.157 210.375C217.363 210.375 219.151 208.586 219.151 206.38C219.152 208.587 220.94 210.375 223.146 210.375Z" fill="#FFBC00"/>
</svg>
