<svg width="280" height="280" viewBox="0 0 280 280" fill="none" xmlns="http://www.w3.org/2000/svg">
<path d="M33.8184 127.679C32.6976 124.668 32.495 121.393 33.2361 118.267C33.9773 115.141 35.6289 112.305 37.9821 110.118C40.3353 107.931 43.2842 106.491 46.456 105.98C49.6277 105.469 52.8797 105.911 55.8006 107.248C58.7214 108.586 61.1798 110.76 62.8649 113.495C64.5499 116.231 65.3858 119.404 65.2669 122.615C65.148 125.825 64.0795 128.928 62.1967 131.531C60.3139 134.134 57.7014 136.12 54.6896 137.238C50.6542 138.736 46.1891 138.571 42.2755 136.778C38.362 134.986 35.3201 131.713 33.8184 127.679Z" fill="#EBEBEB"/>
<path d="M57.5008 123.077C55.636 128.28 50.1816 131.869 50.1816 131.869C50.1816 131.869 44.0216 129.629 41.0424 125.004C38.5336 121.14 39.3008 116.565 42.392 115.221C46.816 113.294 48.9328 121.151 48.9328 121.151C48.9328 121.151 49.1736 113.02 53.9336 113.871C57.2488 114.465 59.052 118.721 57.5008 123.077Z" fill="white"/>
<path d="M234.282 172.542C232.764 173.314 231.132 173.838 229.449 174.093C225.41 174.719 221.284 173.799 217.894 171.517C214.504 169.234 212.099 165.758 211.159 161.781C210.218 157.804 210.812 153.618 212.822 150.059C214.831 146.501 218.108 143.831 222 142.582C225.891 141.333 230.11 141.597 233.815 143.321C237.52 145.046 240.439 148.103 241.989 151.885C243.54 155.666 243.607 159.893 242.178 163.722C240.75 167.551 237.93 170.7 234.282 172.542Z" fill="#EBEBEB"/>
<path d="M232.042 156.625C231.957 157.599 231.585 158.526 230.973 159.288C230.362 160.051 229.538 160.614 228.605 160.908C227.673 161.202 226.675 161.212 225.736 160.938C224.798 160.664 223.962 160.118 223.335 159.369C222.707 158.619 222.316 157.701 222.211 156.729C222.105 155.757 222.291 154.776 222.743 153.91C223.196 153.044 223.895 152.331 224.753 151.863C225.611 151.394 226.588 151.19 227.562 151.278C228.864 151.394 230.067 152.023 230.907 153.025C231.747 154.028 232.155 155.323 232.042 156.625Z" fill="white"/>
<path d="M234.455 170.508L234.282 172.541C232.764 173.313 231.132 173.837 229.449 174.092C227.322 174.426 225.149 174.332 223.059 173.813C220.969 173.295 219.004 172.363 217.28 171.074L217.454 169.046C217.55 167.93 217.865 166.843 218.381 165.848C218.897 164.853 219.604 163.969 220.461 163.247C221.319 162.526 222.31 161.98 223.378 161.641C224.447 161.302 225.571 161.178 226.688 161.274C227.805 161.37 228.892 161.684 229.887 162.201C230.882 162.717 231.765 163.423 232.487 164.281C233.209 165.138 233.755 166.13 234.093 167.198C234.432 168.267 234.557 169.391 234.461 170.508H234.455Z" fill="white"/>
<path d="M226.435 60.3262C235.497 56.4662 239.715 45.9902 235.855 36.9274C231.995 27.8647 221.519 23.647 212.456 27.507C203.394 31.367 199.176 41.8429 203.036 50.9057C206.896 59.9685 217.372 64.1862 226.435 60.3262Z" fill="#EBEBEB"/>
<path fill-rule="evenodd" clip-rule="evenodd" d="M217.006 51.0049C216.535 50.7081 216.126 50.2769 215.494 50.3385C215.253 50.3385 215.303 50.1593 215.303 50.0305C215.303 47.6505 215.303 45.2817 215.303 42.9017C215.303 42.7337 215.303 42.5881 215.505 42.4929C217.319 41.5801 218.103 39.7769 219.218 38.2425C219.787 37.4777 220.197 36.6062 220.423 35.6798C220.65 34.7533 220.687 33.7909 220.534 32.8497C220.455 32.3177 220.707 32.0769 221.189 31.9649C221.431 31.8836 221.693 31.8815 221.937 31.959C222.18 32.0365 222.393 32.1896 222.544 32.3961C223.066 33.3667 223.416 34.42 223.58 35.5097C223.686 36.4057 223.362 37.2849 223.25 38.1753C223.166 38.8305 223.014 39.4745 222.891 40.1353C223.048 40.2473 223.233 40.1913 223.406 40.1913H229.426C230.272 40.1913 230.686 40.4321 230.804 40.9921C230.868 41.3379 230.818 41.6953 230.66 42.0097C230.502 42.3241 230.246 42.5784 229.93 42.7337C229.779 42.8065 229.505 42.7337 229.488 42.9745C229.471 43.2153 229.751 43.1873 229.891 43.2881C230.614 43.7865 230.479 44.8113 229.639 45.4049C229.438 45.5505 229.046 45.4833 229.034 45.7801C229.023 46.0769 229.398 46.0153 229.566 46.1777C230.126 46.7377 229.858 47.8577 229.006 48.2777C228.886 48.3157 228.768 48.3606 228.654 48.4121C228.553 48.4793 228.458 48.5577 228.654 48.6921C229.522 49.3137 229.505 50.1761 228.654 50.8089L228.39 50.9937C228.073 51.1869 227.701 51.2696 227.332 51.2289C224.185 51.2289 221.038 51.2289 217.89 51.2289C217.735 51.2558 217.577 51.2497 217.424 51.2111C217.272 51.1725 217.129 51.1022 217.006 51.0049Z" fill="white"/>
<path fill-rule="evenodd" clip-rule="evenodd" d="M208.062 46.816C208.062 45.304 208.062 43.7976 208.062 42.2856C208.062 41.9832 208.09 41.832 208.466 41.832C210.308 41.832 212.145 41.832 213.987 41.832C214.351 41.832 214.407 41.9496 214.402 42.2688C214.402 45.3115 214.402 48.3504 214.402 51.3856C214.402 51.772 214.295 51.8784 213.909 51.8728C212.124 51.8504 210.34 51.8504 208.555 51.8728C208.107 51.8728 208.046 51.7216 208.051 51.3128C208.074 49.84 208.062 48.328 208.062 46.816Z" fill="white"/>
<path d="M63.4648 211.449C64.4 217.425 61.04 223.736 61.04 223.736C61.04 223.736 53.9616 224.789 48.6472 221.899C44.1896 219.519 42.56 214.681 44.8 211.774C48.0592 207.608 54.1968 214.07 54.1968 214.07C54.1968 214.07 50.1816 206.113 55.2104 204.449C58.7216 203.279 62.72 206.465 63.4648 211.449Z" fill="#EBEBEB"/>
<path d="M75.8184 196.74C73.1416 200.296 68.0848 201.78 68.0848 201.78C68.0848 201.78 63.896 198.593 62.6864 194.309C61.6784 190.736 63.364 187.393 66.0464 187.102C69.916 186.676 69.664 193.228 69.664 193.228C69.664 193.228 71.792 187.029 75.264 188.821C77.6832 190.048 78.0472 193.76 75.8184 196.74Z" fill="#EBEBEB"/>
<path d="M140 264.665C188.996 264.665 228.715 259.348 228.715 252.788C228.715 246.228 188.996 240.91 140 240.91C91.0039 240.91 51.2848 246.228 51.2848 252.788C51.2848 259.348 91.0039 264.665 140 264.665Z" fill="#EBEBEB"/>
<path d="M26.3088 242.569L54.7344 242.435L83.1544 242.384L140 242.289L196.846 242.384L225.266 242.435L253.686 242.569L225.266 242.703L196.846 242.754L140 242.849L83.1544 242.754L54.7344 242.703L26.3088 242.569Z" fill="#263238"/>
<path d="M187.326 34.6758H92.6856C91.4158 34.6868 90.1606 34.9478 88.9918 35.4441C87.8229 35.9404 86.7633 36.6621 85.8735 37.568C84.9837 38.474 84.2811 39.5464 83.8059 40.7239C83.3307 41.9015 83.0922 43.1612 83.104 44.431V239.311C83.0816 241.875 84.0784 244.343 85.8751 246.172C87.6719 248.002 90.1216 249.043 92.6856 249.066H187.326C189.891 249.044 192.343 248.004 194.142 246.175C195.941 244.345 196.939 241.876 196.918 239.311V44.431C196.929 43.1605 196.69 41.9002 196.214 40.7222C195.738 39.5443 195.034 38.4717 194.143 37.5657C193.252 36.6598 192.192 35.9383 191.022 35.4424C189.852 34.9465 188.596 34.686 187.326 34.6758ZM190.926 233.291C190.926 238.421 187.085 242.57 182.353 242.57H97.6584C92.904 242.57 89.068 238.421 89.068 233.291V51.8174C89.068 41.3678 92.904 40.8582 97.6584 40.8582H114.621C115.606 40.8582 116.413 41.9782 116.413 43.367V43.9662C116.413 47.2198 118.194 47.231 120.383 47.231H159.583C161.823 47.231 163.554 47.231 163.554 43.9662V43.367C163.554 41.9782 164.349 40.8582 165.357 40.8582H182.325C187.057 40.8582 190.898 42.247 190.898 51.8174L190.926 233.291Z" fill="#263238"/>
<path d="M145.348 43.1654H134.646C134.471 43.1654 134.303 43.0957 134.179 42.9718C134.055 42.8479 133.986 42.6798 133.986 42.5046C133.986 42.3293 134.055 42.1612 134.179 42.0373C134.303 41.9134 134.471 41.8438 134.646 41.8438H145.348C145.523 41.8438 145.691 41.9134 145.815 42.0373C145.939 42.1612 146.009 42.3293 146.009 42.5046C146.009 42.6798 145.939 42.8479 145.815 42.9718C145.691 43.0957 145.523 43.1654 145.348 43.1654Z" fill="white"/>
<path d="M190.926 51.8186V233.292C190.926 238.422 187.085 242.571 182.353 242.571H97.6584C92.904 242.571 89.068 238.422 89.068 233.292V51.8186C89.068 41.369 92.904 40.8594 97.6584 40.8594H114.621C115.606 40.8594 116.413 41.9794 116.413 43.3682V43.9674C116.413 47.221 118.194 47.2322 120.383 47.2322H159.583C161.823 47.2322 163.554 47.2322 163.554 43.9674V43.3682C163.554 41.9794 164.349 40.8594 165.357 40.8594H182.325C187.085 40.8818 190.926 42.2482 190.926 51.8186Z" fill="white"/>
<path d="M190.926 51.8186V65.3594H89.04V51.8186C89.04 41.369 92.904 40.8818 97.6528 40.8818H114.621C115.606 40.8818 116.413 42.0018 116.413 43.3906V43.9898C116.413 47.2434 118.194 47.2546 120.378 47.2546H159.6C161.806 47.2546 163.576 47.2546 163.576 43.9898V43.3682C163.576 41.9794 164.371 40.8594 165.374 40.8594H182.336C187.085 40.8818 190.926 42.2482 190.926 51.8186Z" fill="#FFD029"/>
<path d="M98.7168 58.7503L95.7096 55.9279L98.7168 53.1055L99.1816 53.6039L96.7064 55.9279L99.1816 58.2519L98.7168 58.7503Z" fill="white"/>
<path d="M181.686 58.947H179.67V58.2414C179.67 58.2099 179.661 58.1792 179.644 58.1526C179.627 58.1259 179.603 58.1044 179.575 58.0902C179.497 58.051 179.424 58.0062 179.351 57.9614C179.324 57.9451 179.293 57.9364 179.262 57.9364C179.23 57.9364 179.199 57.9451 179.172 57.9614L178.567 58.3086L177.559 56.567L178.17 56.2142C178.196 56.1983 178.218 56.175 178.232 56.1472C178.246 56.1194 178.251 56.0883 178.248 56.0574C178.245 56.0145 178.245 55.9714 178.248 55.9286C178.245 55.8857 178.245 55.8426 178.248 55.7998C178.251 55.7689 178.246 55.7377 178.232 55.7099C178.218 55.6821 178.196 55.6589 178.17 55.643L177.559 55.2902L178.567 53.5486L179.172 53.8958C179.199 53.9121 179.23 53.9207 179.262 53.9207C179.293 53.9207 179.324 53.9121 179.351 53.8958C179.424 53.851 179.497 53.8062 179.575 53.767C179.603 53.7527 179.627 53.7312 179.644 53.7045C179.661 53.6779 179.67 53.6472 179.67 53.6158V52.9102H181.686V53.6102C181.687 53.6416 181.696 53.6723 181.713 53.6989C181.73 53.7256 181.754 53.7471 181.782 53.7614L182.006 53.8902C182.033 53.9065 182.064 53.9151 182.095 53.9151C182.127 53.9151 182.158 53.9065 182.185 53.8902L182.79 53.543L183.792 55.2846L183.187 55.6374C183.16 55.653 183.138 55.676 183.123 55.7037C183.108 55.7314 183.101 55.7628 183.103 55.7942C183.106 55.837 183.106 55.8801 183.103 55.923V56.0462C183.098 56.078 183.103 56.1107 183.117 56.1398C183.131 56.1688 183.153 56.1928 183.182 56.2086L183.786 56.5614L182.784 58.303L182.174 57.9558C182.148 57.9393 182.118 57.9306 182.087 57.9306C182.056 57.9306 182.026 57.9393 182 57.9558L181.776 58.0846C181.748 58.0988 181.724 58.1203 181.707 58.147C181.691 58.1736 181.681 58.2043 181.681 58.2358L181.686 58.947ZM180.09 58.527H181.266V58.2414C181.266 58.1328 181.296 58.0264 181.352 57.9335C181.409 57.8407 181.489 57.7651 181.586 57.715C181.652 57.685 181.716 57.6494 181.776 57.6086C181.867 57.5483 181.975 57.5162 182.084 57.5162C182.193 57.5162 182.301 57.5483 182.392 57.6086L182.633 57.7486L183.221 56.7294L182.974 56.5894C182.876 56.5353 182.797 56.453 182.746 56.3532C182.695 56.2534 182.675 56.1406 182.689 56.0294V55.8166C182.675 55.7048 182.696 55.5915 182.748 55.4916C182.8 55.3917 182.881 55.3098 182.98 55.2566L183.221 55.1166L182.633 54.0974L182.392 54.2374C182.301 54.2976 182.193 54.3297 182.084 54.3297C181.975 54.3297 181.867 54.2976 181.776 54.2374C181.717 54.1977 181.655 54.1622 181.591 54.131C181.493 54.0821 181.411 54.0069 181.354 53.9139C181.297 53.8209 181.266 53.7138 181.266 53.6046V53.3246H180.09V53.6046C180.091 53.7138 180.06 53.8209 180.003 53.9139C179.945 54.0069 179.863 54.0821 179.766 54.131C179.701 54.1609 179.639 54.1965 179.581 54.2374C179.489 54.2976 179.382 54.3297 179.273 54.3297C179.163 54.3297 179.056 54.2976 178.965 54.2374L178.724 54.0974L178.164 55.1166L178.405 55.2566C178.504 55.3098 178.585 55.3917 178.637 55.4916C178.689 55.5915 178.709 55.7048 178.696 55.8166C178.689 55.8873 178.689 55.9586 178.696 56.0294C178.709 56.1412 178.689 56.2544 178.637 56.3543C178.585 56.4542 178.504 56.5361 178.405 56.5894L178.164 56.7294L178.724 57.7486L178.965 57.6086C179.056 57.5483 179.163 57.5162 179.273 57.5162C179.382 57.5162 179.489 57.5483 179.581 57.6086C179.64 57.6482 179.702 57.6837 179.766 57.715C179.863 57.7639 179.945 57.839 180.003 57.932C180.06 58.025 180.091 58.1321 180.09 58.2414V58.527ZM180.678 57.4406C180.378 57.4417 180.084 57.3535 179.833 57.1871C179.583 57.0208 179.387 56.7838 179.272 56.5063C179.156 56.2288 179.126 55.9232 179.184 55.6283C179.242 55.3334 179.387 55.0624 179.6 54.8499C179.812 54.6373 180.083 54.4926 180.378 54.4343C180.673 54.3759 180.979 54.4064 181.256 54.522C181.534 54.6375 181.771 54.8329 181.937 55.0833C182.103 55.3337 182.192 55.6279 182.19 55.9286C182.189 56.3291 182.029 56.7128 181.746 56.9961C181.463 57.2793 181.079 57.4391 180.678 57.4406ZM180.678 54.831C180.456 54.8254 180.237 54.8863 180.049 55.0059C179.861 55.1256 179.713 55.2985 179.624 55.5026C179.535 55.7067 179.509 55.9327 179.549 56.1518C179.589 56.3709 179.693 56.573 179.848 56.7325C180.004 56.8919 180.203 57.0014 180.421 57.0469C180.639 57.0925 180.866 57.072 181.072 56.9881C181.279 56.9042 181.455 56.7607 181.58 56.576C181.704 56.3913 181.77 56.1736 181.77 55.951C181.77 55.6587 181.656 55.378 181.452 55.1687C181.248 54.9595 180.971 54.8383 180.678 54.831Z" fill="white"/>
<path d="M111.692 44.9362L111.53 45.0986C111.496 45.0986 111.468 45.1602 111.434 45.1938C111.229 44.984 110.983 44.8178 110.712 44.7053C110.44 44.5927 110.149 44.536 109.855 44.5386C109.561 44.5347 109.27 44.5908 108.998 44.7034C108.727 44.8161 108.481 44.9829 108.276 45.1938L108.186 45.0986L108.024 44.9362L108.231 44.757C108.378 44.6345 108.54 44.531 108.713 44.449C108.912 44.3482 109.126 44.2765 109.346 44.2362C109.452 44.2362 109.558 44.2362 109.665 44.1914H109.945H110.158C110.349 44.2165 110.537 44.2635 110.718 44.3314C110.855 44.3815 110.988 44.4434 111.115 44.5162C111.248 44.5923 111.374 44.6804 111.49 44.7794L111.664 44.9362H111.692Z" fill="white"/>
<path d="M108.791 45.7087C108.707 45.6191 108.623 45.5351 108.534 45.4511C108.706 45.2772 108.912 45.1392 109.138 45.045C109.365 44.9508 109.607 44.9023 109.852 44.9023C110.098 44.9023 110.34 44.9508 110.567 45.045C110.793 45.1392 110.998 45.2772 111.171 45.4511L110.914 45.7087C110.632 45.4272 110.25 45.2691 109.852 45.2691C109.454 45.2691 109.073 45.4272 108.791 45.7087Z" fill="white"/>
<path d="M110.656 45.9678L110.398 46.2254C110.326 46.1505 110.239 46.0918 110.142 46.0532C110.046 46.0146 109.942 45.9969 109.838 46.0014C109.735 45.9983 109.631 46.0166 109.535 46.0552C109.439 46.0937 109.351 46.1517 109.278 46.2254L109.021 45.9678C109.126 45.8559 109.252 45.7667 109.393 45.7057C109.533 45.6447 109.685 45.6133 109.838 45.6133C109.992 45.6133 110.143 45.6447 110.284 45.7057C110.425 45.7667 110.551 45.8559 110.656 45.9678Z" fill="white"/>
<path d="M110.085 46.4802C110.085 46.5411 110.061 46.5995 110.018 46.6425C109.974 46.6856 109.916 46.7098 109.855 46.7098C109.822 46.715 109.787 46.7129 109.755 46.7036C109.722 46.6944 109.692 46.6781 109.666 46.656C109.64 46.634 109.62 46.6066 109.605 46.5757C109.591 46.5449 109.584 46.5113 109.584 46.4774C109.584 46.4434 109.591 46.4099 109.605 46.3791C109.62 46.3482 109.64 46.3208 109.666 46.2987C109.692 46.2767 109.722 46.2604 109.755 46.2511C109.787 46.2419 109.822 46.2398 109.855 46.245C109.886 46.245 109.916 46.2511 109.944 46.263C109.973 46.2749 109.998 46.2923 110.02 46.3142C110.041 46.3361 110.058 46.3621 110.069 46.3906C110.08 46.4191 110.086 46.4496 110.085 46.4802Z" fill="white"/>
<path d="M95.704 45.4276C95.704 45.2936 95.7438 45.1626 95.8182 45.0511C95.8927 44.9397 95.9985 44.8529 96.1223 44.8016C96.2461 44.7503 96.3824 44.7369 96.5138 44.763C96.6452 44.7892 96.766 44.8537 96.8608 44.9485C96.9555 45.0432 97.02 45.164 97.0462 45.2954C97.0723 45.4268 97.0589 45.5631 97.0076 45.6869C96.9563 45.8107 96.8695 45.9165 96.7581 45.991C96.6466 46.0655 96.5156 46.1052 96.3816 46.1052C96.2019 46.1052 96.0295 46.0338 95.9025 45.9067C95.7754 45.7797 95.704 45.6073 95.704 45.4276Z" fill="white"/>
<path d="M97.832 45.4276C97.832 45.2936 97.8717 45.1626 97.9462 45.0511C98.0207 44.9397 98.1265 44.8529 98.2503 44.8016C98.3741 44.7503 98.5104 44.7369 98.6418 44.763C98.7732 44.7892 98.894 44.8537 98.9887 44.9485C99.0835 45.0432 99.148 45.164 99.1742 45.2954C99.2003 45.4268 99.1869 45.5631 99.1356 45.6869C99.0843 45.8107 98.9975 45.9165 98.8861 45.991C98.7746 46.0655 98.6436 46.1052 98.5096 46.1052C98.4206 46.1052 98.3325 46.0877 98.2503 46.0536C98.1681 46.0196 98.0934 45.9697 98.0305 45.9067C97.9675 45.8438 97.9176 45.7691 97.8836 45.6869C97.8495 45.6047 97.832 45.5166 97.832 45.4276Z" fill="white"/>
<path d="M99.96 45.4276C99.96 45.2933 99.9999 45.1621 100.075 45.0505C100.149 44.939 100.255 44.8522 100.38 44.801C100.504 44.7499 100.64 44.7368 100.772 44.7634C100.903 44.79 101.024 44.8551 101.119 44.9505C101.213 45.0458 101.277 45.167 101.303 45.2988C101.328 45.4307 101.314 45.5671 101.262 45.6908C101.21 45.8145 101.122 45.9199 101.01 45.9937C100.898 46.0675 100.766 46.1063 100.632 46.1052C100.543 46.1052 100.455 46.0876 100.374 46.0535C100.292 46.0194 100.217 45.9694 100.155 45.9064C100.092 45.8434 100.043 45.7686 100.01 45.6865C99.9761 45.6043 99.9592 45.5163 99.96 45.4276Z" fill="white"/>
<path d="M102.088 45.4276C102.088 45.2933 102.128 45.1621 102.203 45.0505C102.277 44.939 102.383 44.8522 102.508 44.801C102.632 44.7499 102.768 44.7368 102.9 44.7634C103.031 44.79 103.152 44.8551 103.247 44.9505C103.341 45.0458 103.405 45.167 103.431 45.2988C103.456 45.4307 103.442 45.5671 103.39 45.6908C103.338 45.8145 103.25 45.9199 103.138 45.9937C103.026 46.0675 102.894 46.1063 102.76 46.1052C102.671 46.1052 102.583 46.0876 102.502 46.0535C102.42 46.0194 102.345 45.9694 102.283 45.9064C102.22 45.8434 102.171 45.7686 102.138 45.6865C102.104 45.6043 102.087 45.5163 102.088 45.4276Z" fill="white"/>
<path d="M104.21 45.4276C104.21 45.2936 104.25 45.1626 104.325 45.0511C104.399 44.9397 104.505 44.8529 104.629 44.8016C104.753 44.7503 104.889 44.7369 105.02 44.763C105.152 44.7892 105.272 44.8537 105.367 44.9485C105.462 45.0432 105.526 45.164 105.553 45.2954C105.579 45.4268 105.565 45.5631 105.514 45.6869C105.463 45.8107 105.376 45.9165 105.264 45.991C105.153 46.0655 105.022 46.1052 104.888 46.1052C104.708 46.1052 104.536 46.0338 104.409 45.9067C104.282 45.7797 104.21 45.6073 104.21 45.4276Z" fill="white"/>
<path d="M183.288 46.9018H177.789V44.3594H183.288V46.9018ZM178.069 46.6218H183.008V44.6394H178.08L178.069 46.6218Z" fill="white"/>
<path d="M181.793 44.7891H178.248V46.4691H181.793V44.7891Z" fill="white"/>
<path d="M183.775 44.9531H183.288V46.3139H183.775V44.9531Z" fill="white"/>
<path d="M104.541 231.477H103.768V235.033H102.323V233.219H99.7584V235.033H98.3136V231.477H97.5352L101.041 227.859L104.541 231.477Z" fill="#EBEBEB"/>
<path d="M182.465 227.859H174.02V229.063H182.465V227.859Z" fill="#EBEBEB"/>
<path d="M182.465 230.844H174.02V232.048H182.465V230.844Z" fill="#EBEBEB"/>
<path d="M182.465 233.828H174.02V235.032H182.465V233.828Z" fill="#EBEBEB"/>
<path d="M104.378 83.1704C103.872 83.4866 103.318 83.7192 102.738 83.8592C101.346 84.2007 99.8762 84.0048 98.6223 83.3107C97.3684 82.6165 96.4223 81.4751 95.9728 80.1142C95.5233 78.7533 95.6034 77.273 96.1972 75.9686C96.7909 74.6641 97.8547 73.6315 99.1762 73.0768C100.498 72.522 101.98 72.4859 103.327 72.9756C104.674 73.4653 105.786 74.4449 106.443 75.7189C107.1 76.9928 107.252 78.4675 106.869 79.8487C106.486 81.2299 105.597 82.416 104.378 83.1704Z" fill="#DBDBDB"/>
<path d="M103.118 77.6913C103.118 78.0336 103.017 78.3681 102.827 78.6527C102.637 78.9373 102.366 79.1591 102.05 79.29C101.734 79.421 101.386 79.4553 101.05 79.3885C100.715 79.3217 100.406 79.1569 100.164 78.9149C99.9224 78.6729 99.7576 78.3646 99.6908 78.0289C99.6241 77.6933 99.6583 77.3453 99.7893 77.0291C99.9203 76.7129 100.142 76.4427 100.427 76.2526C100.711 76.0624 101.046 75.9609 101.388 75.9609C101.847 75.9609 102.287 76.1432 102.612 76.4678C102.936 76.7923 103.118 77.2324 103.118 77.6913Z" fill="white"/>
<path d="M104.378 82.4596V83.1708C103.872 83.487 103.318 83.7196 102.738 83.8596C102.006 84.0391 101.245 84.0706 100.501 83.9523C99.7566 83.834 99.0435 83.5683 98.4032 83.1708V82.4596C98.3857 82.0564 98.4501 81.6538 98.5923 81.2761C98.7346 80.8984 98.9519 80.5535 99.231 80.262C99.5101 79.9705 99.8454 79.7385 100.217 79.58C100.588 79.4215 100.987 79.3398 101.391 79.3398C101.794 79.3398 102.194 79.4215 102.565 79.58C102.936 79.7385 103.271 79.9705 103.551 80.262C103.83 80.5535 104.047 80.8984 104.189 81.2761C104.332 81.6538 104.396 82.0564 104.378 82.4596Z" fill="white"/>
<path d="M150.326 72.9805H114.201V75.9597H150.326V72.9805Z" fill="#EBEBEB"/>
<path d="M145.734 77.9453H114.201V79.9165H145.734V77.9453Z" fill="#EBEBEB"/>
<path d="M166.342 81.75H114.201V83.7212H166.342V81.75Z" fill="#EBEBEB"/>
<path d="M89.0624 160.047H190.91V88.7253L89.0624 88.7253L89.0624 160.047Z" fill="#EBEBEB"/>
<path d="M100.968 109.006C100.968 110.675 101.463 112.306 102.39 113.694C103.318 115.082 104.636 116.164 106.178 116.802C107.72 117.441 109.417 117.608 111.054 117.283C112.691 116.957 114.194 116.153 115.375 114.973C116.555 113.793 117.359 112.289 117.684 110.652C118.01 109.015 117.843 107.318 117.204 105.776C116.565 104.234 115.484 102.916 114.096 101.989C112.708 101.061 111.076 100.566 109.407 100.566C107.169 100.566 105.022 101.456 103.44 103.038C101.857 104.621 100.968 106.767 100.968 109.006Z" fill="#DBDBDB"/>
<path d="M134.288 144.535H190.926L162.607 106.152L134.288 144.535Z" fill="#C7C7C7"/>
<path d="M112.09 144.721H158.85L135.47 119.723L112.09 144.721Z" fill="#DBDBDB"/>
<path d="M190.915 144.688H89.068V160.054H190.915V144.688Z" fill="#DBDBDB"/>
<path d="M104.378 197.682C103.871 197.994 103.317 198.224 102.738 198.365C101.647 198.629 100.502 198.565 99.4472 198.179C98.3929 197.793 97.4767 197.103 96.8142 196.197C96.1518 195.29 95.773 194.208 95.7256 193.086C95.6782 191.964 95.9644 190.854 96.548 189.895C97.1316 188.936 97.9864 188.171 99.0044 187.698C100.022 187.224 101.158 187.063 102.267 187.235C103.377 187.406 104.411 187.903 105.238 188.662C106.065 189.421 106.649 190.408 106.915 191.499C107.198 192.665 107.104 193.891 106.649 195.001C106.193 196.112 105.399 197.05 104.378 197.682Z" fill="#DBDBDB"/>
<path d="M103.118 192.176C103.118 192.518 103.017 192.853 102.827 193.137C102.637 193.422 102.366 193.643 102.05 193.774C101.734 193.905 101.386 193.94 101.05 193.873C100.715 193.806 100.406 193.641 100.164 193.399C99.9224 193.157 99.7576 192.849 99.6908 192.513C99.6241 192.178 99.6583 191.83 99.7893 191.514C99.9203 191.197 100.142 190.927 100.427 190.737C100.711 190.547 101.046 190.445 101.388 190.445C101.847 190.445 102.287 190.628 102.612 190.952C102.936 191.277 103.118 191.717 103.118 192.176Z" fill="white"/>
<path d="M104.378 196.947V197.68C103.87 197.992 103.317 198.223 102.738 198.364C102.006 198.544 101.245 198.576 100.501 198.458C99.7562 198.34 99.043 198.073 98.4032 197.675V196.964C98.3857 196.56 98.4501 196.158 98.5923 195.78C98.7346 195.402 98.9519 195.057 99.231 194.766C99.5101 194.474 99.8454 194.242 100.217 194.084C100.588 193.925 100.987 193.844 101.391 193.844C101.794 193.844 102.194 193.925 102.565 194.084C102.936 194.242 103.271 194.474 103.551 194.766C103.83 195.057 104.047 195.402 104.189 195.78C104.332 196.158 104.396 196.56 104.378 196.964V196.947Z" fill="white"/>
<path d="M160.664 187.465H114.201V190.444H160.664V187.465Z" fill="#EBEBEB"/>
<path d="M173.51 192.434H114.201V194.405H173.51V192.434Z" fill="#EBEBEB"/>
<path d="M134.406 196.234H114.201V198.206H134.406V196.234Z" fill="#EBEBEB"/>
<path d="M190.915 203.219H89.068V220.64H190.915V203.219Z" fill="#EBEBEB"/>
<path d="M117.348 220.641H101.466C102.055 219.006 103.133 217.593 104.554 216.594C105.975 215.595 107.67 215.059 109.407 215.059C111.144 215.059 112.839 215.595 114.26 216.594C115.682 217.593 116.76 219.006 117.348 220.641Z" fill="#DBDBDB"/>
<path d="M99.1816 170.981C101.043 170.981 102.553 169.471 102.553 167.609C102.553 165.748 101.043 164.238 99.1816 164.238C97.3197 164.238 95.8104 165.748 95.8104 167.609C95.8104 169.471 97.3197 170.981 99.1816 170.981Z" fill="#EBEBEB"/>
<path fill-rule="evenodd" clip-rule="evenodd" d="M98.7224 168.952C98.6328 168.896 98.5544 168.812 98.4368 168.823C98.3192 168.834 98.4032 168.795 98.4032 168.767C98.4032 168.319 98.4032 167.871 98.4032 167.423C98.4003 167.408 98.4026 167.392 98.4097 167.377C98.4167 167.363 98.4282 167.352 98.4424 167.345C98.784 167.171 98.9352 166.83 99.148 166.538C99.255 166.394 99.3319 166.229 99.3742 166.054C99.4165 165.879 99.4234 165.697 99.3944 165.519C99.3944 165.418 99.428 165.374 99.5176 165.351C99.5639 165.336 99.6138 165.336 99.6601 165.351C99.7064 165.366 99.7467 165.396 99.7752 165.435C99.8737 165.619 99.94 165.817 99.9712 166.023C99.9673 166.193 99.9466 166.362 99.9096 166.527C99.9096 166.65 99.8648 166.774 99.8424 166.897C99.8704 166.897 99.904 166.897 99.9376 166.897H101.058C101.22 166.897 101.298 166.942 101.321 167.048C101.333 167.114 101.324 167.182 101.293 167.242C101.263 167.302 101.213 167.35 101.153 167.378C101.125 167.378 101.074 167.378 101.069 167.423C101.063 167.468 101.119 167.462 101.147 167.485C101.282 167.574 101.259 167.77 101.097 167.882C101.063 167.91 100.985 167.882 100.985 167.955C100.985 168.028 101.052 168 101.086 168.028C101.11 168.06 101.127 168.097 101.134 168.136C101.142 168.176 101.14 168.216 101.129 168.255C101.118 168.294 101.099 168.329 101.072 168.359C101.045 168.388 101.011 168.411 100.974 168.426C100.95 168.433 100.928 168.442 100.906 168.454C100.906 168.454 100.873 168.454 100.906 168.504C100.944 168.522 100.976 168.551 100.999 168.587C101.021 168.622 101.033 168.664 101.033 168.706C101.033 168.748 101.021 168.789 100.999 168.825C100.976 168.86 100.944 168.889 100.906 168.907L100.862 168.941C100.801 168.977 100.73 168.993 100.66 168.986H98.8736C98.8208 168.993 98.7672 168.981 98.7224 168.952Z" fill="white"/>
<path fill-rule="evenodd" clip-rule="evenodd" d="M97.0312 168.161V167.304C97.0312 167.243 97.0312 167.215 97.1096 167.215H98.1512C98.2184 167.215 98.2296 167.215 98.2296 167.299V169.024C98.2296 169.096 98.2296 169.119 98.14 169.113H97.1264C97.0424 169.113 97.0312 169.085 97.0312 169.007C97.0368 168.727 97.0312 168.447 97.0312 168.161Z" fill="white"/>
<path d="M102.99 168.411C102.834 167.766 102.874 167.09 103.103 166.467C103.331 165.844 103.739 165.303 104.275 164.912C104.811 164.521 105.451 164.297 106.114 164.269C106.777 164.24 107.433 164.409 108 164.754C108.567 165.098 109.02 165.602 109.301 166.204C109.581 166.805 109.678 167.475 109.578 168.131C109.478 168.787 109.186 169.399 108.739 169.889C108.292 170.38 107.71 170.727 107.066 170.887C106.636 170.993 106.189 171.014 105.751 170.947C105.312 170.881 104.892 170.728 104.513 170.498C104.134 170.268 103.804 169.965 103.543 169.607C103.281 169.249 103.093 168.842 102.99 168.411Z" fill="#FFD029"/>
<path d="M107.985 168.035C107.575 168.729 106.98 169.296 106.266 169.67C105.549 169.297 104.952 168.73 104.541 168.035C104.121 167.178 104.39 166.248 105.056 166.047C106.019 165.756 106.266 167.43 106.266 167.43C106.266 167.43 106.512 165.75 107.47 166.047C108.142 166.248 108.41 167.178 107.985 168.035Z" fill="white"/>
<path d="M162.613 167.172H114.761V169.121H162.613V167.172Z" fill="#EBEBEB"/>
<path d="M89.0624 178.793L101.797 178.692L114.526 178.653L139.989 178.586L165.452 178.653L178.181 178.692L190.915 178.793L178.181 178.894L165.452 178.933L139.989 179.006L114.526 178.933L101.797 178.894L89.0624 178.793Z" fill="#EBEBEB"/>
<path d="M69.2353 143.584L34.8758 152.746L44.0374 187.106L78.397 177.944L69.2353 143.584Z" fill="#455A64"/>
<path d="M54.4096 169.832L49.8064 171.059C49.3248 169.261 48.8712 167.564 48.3952 165.772L52.9144 164.568C52.8248 164.16 52.7688 163.84 52.6904 163.527C52.3488 162.127 51.9232 160.727 51.6824 159.332C51.1616 156.219 52.4496 153.581 55.3448 152.366C57.148 151.604 59.1416 151.302 61.096 150.781C61.5384 152.422 61.936 153.917 62.384 155.592C61.684 155.776 60.984 155.95 60.2952 156.152C59.6699 156.3 59.0604 156.508 58.4752 156.773C58.0885 156.94 57.7736 157.239 57.5869 157.616C57.4002 157.994 57.3538 158.425 57.456 158.834C57.7584 160.2 58.1616 161.544 58.576 163.012L63.8288 161.606C64.064 163.398 64.3048 165.056 64.484 166.719C64.484 166.881 64.1536 167.184 63.924 167.279C62.664 167.654 61.3928 167.973 60.004 168.337C61.2136 172.89 62.4064 177.364 63.6216 181.912L58.0216 183.401C56.8288 178.888 55.6304 174.413 54.4096 169.832Z" fill="white"/>
<path d="M238.925 184.255L203.443 180.738L199.927 216.22L235.408 219.736L238.925 184.255Z" fill="#FFD029"/>
<path d="M233.206 194.322C233.542 190.771 231.526 188.251 228.032 187.87C223.179 187.336 218.307 186.853 213.416 186.42C209.966 186.118 207.508 188.178 207.116 191.611C206.842 194.042 206.629 196.478 206.388 198.891C206.147 201.305 205.901 203.651 205.682 206.031C205.352 209.666 207.362 212.191 210.93 212.6C215.746 213.126 220.565 213.604 225.389 214.034C228.917 214.342 231.409 212.247 231.773 208.742C232.277 203.937 232.755 199.13 233.206 194.322ZM229.438 208.568C229.191 210.808 227.858 211.928 225.613 211.726C220.789 211.278 215.97 210.8 211.154 210.293C208.914 210.057 207.794 208.697 208.006 206.462C208.466 201.609 208.947 196.746 209.451 191.874C209.681 189.634 211.053 188.514 213.282 188.699C218.105 189.143 222.925 189.619 227.741 190.127C229.981 190.368 231.101 191.762 230.882 193.985C230.67 196.416 230.412 198.846 230.171 201.266C229.93 203.685 229.706 206.126 229.438 208.557V208.568Z" fill="white"/>
<path d="M220.136 193.38C218.791 193.241 217.434 193.503 216.237 194.133C215.04 194.763 214.056 195.733 213.409 196.921C212.763 198.109 212.482 199.462 212.603 200.809C212.723 202.157 213.24 203.438 214.087 204.493C214.935 205.547 216.075 206.327 217.365 206.734C218.655 207.142 220.037 207.158 221.336 206.782C222.635 206.406 223.794 205.654 224.667 204.62C225.54 203.587 226.087 202.318 226.24 200.974C226.343 200.074 226.267 199.162 226.015 198.291C225.764 197.421 225.342 196.609 224.774 195.902C224.206 195.196 223.504 194.609 222.708 194.176C221.912 193.744 221.037 193.473 220.136 193.38ZM218.921 204.731C217.746 204.58 216.674 203.984 215.925 203.066C215.176 202.149 214.807 200.979 214.894 199.798C214.954 199.2 215.13 198.62 215.414 198.09C215.697 197.56 216.082 197.091 216.547 196.711C217.011 196.33 217.546 196.044 218.121 195.87C218.696 195.696 219.3 195.637 219.898 195.696C220.496 195.755 221.076 195.931 221.606 196.215C222.136 196.498 222.604 196.883 222.985 197.348C223.366 197.813 223.652 198.348 223.826 198.923C224 199.498 224.059 200.102 224 200.699C223.851 201.903 223.235 203 222.285 203.755C221.335 204.509 220.127 204.86 218.921 204.731Z" fill="white"/>
<path d="M229.001 194.091C228.982 194.297 228.919 194.495 228.816 194.674C228.713 194.852 228.573 195.007 228.405 195.126C228.236 195.245 228.045 195.326 227.842 195.364C227.639 195.402 227.431 195.396 227.231 195.346C227.013 195.336 226.799 195.277 226.607 195.172C226.415 195.068 226.249 194.921 226.122 194.743C225.996 194.565 225.911 194.36 225.875 194.144C225.839 193.928 225.853 193.707 225.915 193.498C226.083 192.551 226.75 192.171 227.707 192.21C228.659 192.467 229.174 193.078 229.001 194.091Z" fill="white"/>
<path d="M234.2 106.746L209.219 97.8555L200.328 122.837L225.309 131.727L234.2 106.746Z" fill="#455A64"/>
<path d="M205.559 117.601C207.52 118.401 209.697 118.494 211.719 117.865C209.67 116.353 209.003 115.322 209.132 113.9L210.7 114.37C209.138 113.032 208.505 111.436 209.07 109.397L210.51 110.377C209.591 107.695 209.832 105.953 211.361 104.777C211.944 106.337 212.842 107.76 213.998 108.958C215.154 110.156 216.543 111.105 218.081 111.744C218.159 111.481 218.21 111.279 218.271 111.083C218.471 110.283 218.914 109.565 219.539 109.028C220.164 108.49 220.94 108.16 221.76 108.081C222.579 107.958 223.416 108.089 224.157 108.458C224.899 108.827 225.508 109.415 225.904 110.142C225.973 110.296 226.088 110.425 226.231 110.513C226.375 110.601 226.542 110.643 226.71 110.635C227.416 110.635 228.116 110.635 228.883 110.635C228.318 111.324 227.546 111.815 226.682 112.035C226.685 112.078 226.685 112.121 226.682 112.164L228.76 112.349L228.81 112.455C228.144 112.774 227.483 113.121 226.8 113.401C226.634 113.454 226.483 113.545 226.359 113.667C226.235 113.788 226.14 113.937 226.083 114.101C225.108 116.902 223.116 119.233 220.502 120.634C217.888 122.034 214.843 122.401 211.971 121.661C209.598 121.081 207.459 119.789 205.839 117.96C205.75 117.831 205.654 117.708 205.559 117.601Z" fill="white"/>
<path d="M221.899 55.8008L200.038 63.0898L207.327 84.9507L229.188 77.6616L221.899 55.8008Z" fill="#FFD029"/>
<path d="M209.16 81.2015C209.087 79.8295 209.009 78.5583 208.97 77.2815C208.969 77.093 208.929 76.9067 208.853 76.7342C208.777 76.5617 208.666 76.4068 208.527 76.2791C207.644 75.3527 206.981 74.2394 206.587 73.0218C206.193 71.8042 206.079 70.5134 206.252 69.2454C206.425 67.9774 206.881 66.7646 207.587 65.6971C208.293 64.6296 209.23 63.7348 210.329 63.079C211.428 62.4232 212.661 62.0234 213.935 61.9091C215.21 61.7948 216.494 61.969 217.692 62.4188C218.89 62.8686 219.972 63.5824 220.856 64.5073C221.741 65.4323 222.406 66.5445 222.802 67.7615C223.388 69.8028 223.198 71.989 222.267 73.8981C221.336 75.8072 219.731 77.3038 217.762 78.0991C216.406 78.6219 214.945 78.8139 213.5 78.6591C213.223 78.6424 212.947 78.7107 212.71 78.8551C211.54 79.6223 210.403 80.3727 209.16 81.2015ZM210.487 78.6423C211.215 78.1719 211.826 77.7519 212.464 77.3767C212.692 77.2534 212.951 77.2026 213.209 77.2311C214.391 77.4336 215.603 77.353 216.748 76.9959C220.937 75.6799 222.998 70.6959 220.853 66.9159C220.237 65.6757 219.249 64.6588 218.027 64.0073C216.805 63.3557 215.411 63.102 214.038 63.2815C212.62 63.3559 211.261 63.8754 210.155 64.7661C209.049 65.6568 208.252 66.8735 207.878 68.2431C206.959 71.1159 207.743 73.6135 209.961 75.6687C210.163 75.8727 210.292 76.139 210.325 76.4247C210.431 77.1247 210.442 77.8415 210.487 78.6199V78.6423Z" fill="white"/>
<path d="M210 68.2253C210.302 67.3013 211.092 67.2005 211.747 67.8893C212.005 68.1581 212.078 68.2533 212.346 68.5725C212.536 68.7362 212.66 68.9624 212.697 69.21C212.734 69.4575 212.681 69.7102 212.548 69.9221C212.341 70.2749 212.447 70.4821 212.744 70.7229C213.649 71.4338 214.74 71.8693 215.886 71.9773C215.958 71.9965 216.034 72.0009 216.108 71.9904C216.182 71.9798 216.253 71.9545 216.318 71.9158C216.382 71.8772 216.438 71.826 216.482 71.7654C216.526 71.7048 216.557 71.6359 216.574 71.5629C217 70.4821 217.017 70.4877 218.176 70.6221L218.574 70.6725C218.76 70.668 218.943 70.7159 219.103 70.8108C219.263 70.9057 219.393 71.0436 219.479 71.209C219.564 71.3743 219.601 71.5603 219.585 71.7457C219.57 71.9311 219.503 72.1084 219.391 72.2573C219.196 72.6429 218.9 72.9682 218.533 73.198C218.167 73.4279 217.746 73.5538 217.314 73.5621C215.066 73.6914 212.857 72.9402 211.154 71.4677C210.583 71.07 210.154 70.5013 209.927 69.8437C209.796 69.3084 209.822 68.7467 210 68.2253Z" fill="white"/>
<path d="M133.504 157.277C133.504 157.277 129.545 169.821 124.544 186.151C118.989 204.301 112.146 227.115 108.035 242.565H145.443C146.07 240.079 146.754 237.391 147.476 234.535L150.634 222.215C153.625 210.573 156.918 197.844 159.79 186.773C164.097 170.18 167.457 157.294 167.457 157.294L133.504 157.277Z" fill="#455A64"/>
<path d="M160.205 166.382C159.398 169.255 158.385 172.077 157.494 174.917C156.604 177.756 155.686 180.735 154.79 183.647C153.013 189.415 151.25 195.185 149.503 200.957C145.998 212.496 142.503 224.044 139.02 235.598C138.32 237.922 137.586 240.241 136.864 242.565H137.984C139.324 238.115 140.665 233.661 142.005 229.203C145.522 217.477 149.025 205.745 152.516 194.007C154.263 188.112 156.001 182.212 157.73 176.305C158.598 173.321 159.41 170.33 160.278 167.345C160.72 165.856 160.53 165.201 160.205 166.382Z" fill="#263238"/>
<path d="M137.362 157.277C139.72 175.517 144.211 209.721 147.487 234.557C155.154 204.491 167.468 157.277 167.468 157.277H137.362Z" fill="#263238"/>
<path d="M150.64 222.198C150.825 229.064 151.01 236.249 151.155 242.565H185.528C184.828 226.953 183.624 204.917 182.616 187.153C181.664 170.281 180.88 157.277 180.88 157.277H134.602C134.602 157.277 135.386 173.517 139.082 186.397C139.378 187.461 139.703 188.509 140.056 189.511C143.465 190.89 146.742 192.577 149.845 194.551C149.845 194.551 150.259 207.616 150.64 222.198Z" fill="#455A64"/>
<path d="M180.102 242.564H180.662C180.434 238.427 180.225 234.293 180.034 230.16C179.038 207.816 178.254 185.455 177.514 163.106C177.514 162.926 177.234 162.91 177.24 163.106C177.615 175.745 177.946 188.39 178.36 201.029C178.842 214.85 179.422 228.695 180.102 242.564Z" fill="#263238"/>
<path d="M138.41 188.541C142.395 190.207 146.229 192.215 149.867 194.544C149.893 194.563 149.911 194.591 149.918 194.622C149.925 194.653 149.921 194.686 149.906 194.714C149.891 194.743 149.867 194.765 149.837 194.777C149.807 194.789 149.774 194.79 149.744 194.779C145.88 192.898 141.932 191.089 138.174 189.006C138.123 188.969 138.086 188.916 138.07 188.854C138.055 188.793 138.062 188.728 138.091 188.672C138.12 188.615 138.167 188.571 138.226 188.547C138.284 188.523 138.35 188.521 138.41 188.541Z" fill="#263238"/>
<path d="M136.013 170.565C136.332 172.284 136.746 173.987 137.133 175.695C137.48 177.296 137.732 178.931 138.158 180.511C138.5 182.046 139.278 183.449 140.398 184.554C141.025 185.114 141.719 185.674 142.391 186.189C142.75 186.475 143.142 186.749 143.511 187.046C143.461 186.822 143.422 186.587 143.382 186.357C143.265 185.702 143.158 185.052 143.046 184.403C142.806 182.952 142.57 181.502 142.352 180.051C141.915 177.201 141.512 174.323 140.918 171.5C140.918 171.479 140.926 171.458 140.939 171.442C140.952 171.425 140.97 171.413 140.991 171.408C141.011 171.403 141.033 171.404 141.052 171.413C141.072 171.422 141.088 171.437 141.098 171.455C141.809 174.255 142.593 177.022 143.209 179.855C143.511 181.239 144.598 188.071 144.642 188.552C144.687 189.034 144.732 189.549 144.754 190.053C144.819 190.562 144.819 191.078 144.754 191.587C144.726 191.711 144.575 191.688 144.519 191.587C144.313 191.112 144.166 190.614 144.082 190.103C143.959 189.616 143.847 189.123 143.763 188.625C143.73 188.446 143.707 188.267 143.679 188.065C143.007 187.656 142.38 187.119 141.753 186.659C141.126 186.2 140.386 185.691 139.742 185.153C138.559 184.151 137.705 182.816 137.29 181.323C136.877 179.712 136.609 178.069 136.489 176.411C136.27 174.474 136.114 172.519 135.839 170.587C135.817 170.498 135.99 170.447 136.013 170.565Z" fill="#263238"/>
<path d="M142.139 112.137C139.843 130.437 135.834 161.131 129.343 163.612C128.223 164.043 123.441 164.989 120.176 161.316C114.671 155.122 105.151 134.223 102.48 127.497C101.298 124.518 120.73 114.797 122.394 117.793C124.723 121.987 127.17 128.304 127.63 128.091C128.408 127.738 129.73 119.949 134.91 109.006C141.378 95.4094 142.996 105.333 142.139 112.137Z" fill="#AD6359"/>
<path d="M96.8464 120.272C98.7616 124.383 105.963 131.254 108.338 132.245C110.712 133.236 122.802 121.387 122.494 118.76C122.186 116.134 114.654 102.806 110.527 100.751C106.4 98.6955 94.8696 116.016 96.8464 120.272Z" fill="#AD6359"/>
<path d="M121.615 116.27C121.615 116.27 121.218 110.385 122.612 105.384C123.788 101.178 126.011 95.0631 123.771 94.3463C119.179 92.8735 113.646 108.122 113.646 108.122C113.646 108.122 112.28 115.24 116.704 117.082C117.518 117.413 118.407 117.512 119.274 117.369C120.141 117.225 120.951 116.845 121.615 116.27Z" fill="#AD6359"/>
<path d="M109.306 121.13L102.491 119.931L105.969 100.191L114.593 101.709L109.306 121.13Z" fill="#664EFE"/>
<path d="M114.593 101.709L112.577 109.118L109.306 121.135L102.486 119.931L105.969 100.191L114.593 101.709Z" fill="#664EFE"/>
<path opacity="0.1" d="M114.593 101.709L112.577 109.118L104.642 107.718L105.969 100.191L114.593 101.709Z" fill="black"/>
<path d="M116.31 96.6228L105.578 94.7305L104.141 102.882L114.873 104.774L116.31 96.6228Z" fill="#664EFE"/>
<path d="M124.034 94.8984L115.55 94.26L117.874 81.0664L126.062 83.3736L124.034 94.8984Z" fill="#664EFE"/>
<path d="M114.044 77.7011L110.617 97.1723L96.3312 96.3827L61.6952 102.615L69.9384 55.8555L100.352 73.5627L114.044 77.7011Z" fill="#664EFE"/>
<path d="M72.609 80.4463C74.8968 67.4711 73.3713 56.3567 69.2016 55.6215C65.0319 54.8862 59.797 64.8086 57.5091 77.7838C55.2212 90.7589 56.7468 101.873 60.9165 102.609C65.0862 103.344 70.3211 93.4214 72.609 80.4463Z" fill="#664EFE"/>
<path opacity="0.2" d="M70.9242 79.7329C72.9553 68.2137 71.834 58.3874 68.4197 57.7854C65.0053 57.1833 60.5909 66.0335 58.5597 77.5527C56.5286 89.072 57.6499 98.8982 61.0642 99.5003C64.4786 100.102 68.893 91.2521 70.9242 79.7329Z" fill="black"/>
<path d="M69.916 79.5221C69.6416 81.0565 69.356 82.5405 68.9808 83.9629C68.1985 84.3974 67.3091 84.6014 66.4156 84.5514C65.5221 84.5013 64.661 84.1993 63.9321 83.6801C63.2032 83.161 62.6362 82.446 62.2968 81.6179C61.9574 80.7899 61.8595 79.8827 62.0144 79.0013L62.4008 76.7949C62.5539 75.9159 62.9525 75.0981 63.5504 74.4358C64.1484 73.7736 64.9214 73.2939 65.7802 73.0521C66.6391 72.8103 67.5488 72.8162 68.4045 73.0693C69.2601 73.3223 70.0268 73.8121 70.616 74.4821C70.4536 76.1285 70.2184 77.8421 69.916 79.5221Z" fill="#664EFE"/>
<path d="M117.97 99.5815L101.562 98.3495L106.058 72.8359L121.901 77.2879L117.97 99.5815Z" fill="#664EFE"/>
<path opacity="0.2" d="M117.97 99.5815L101.562 98.3495L106.058 72.8359L121.901 77.2879L117.97 99.5815Z" fill="black"/>
<path opacity="0.2" d="M71.5624 59.4453C72.4239 61.0213 72.9931 62.7402 73.2424 64.5189C73.525 66.2894 73.6654 68.0796 73.6624 69.8725C73.6624 70.7685 73.6344 71.6645 73.6064 72.5549C73.5784 73.4453 73.4888 74.3413 73.3936 75.2317C73.2984 76.1221 73.2032 77.0125 73.0688 77.8973C72.9344 78.7821 72.8056 79.6669 72.6488 80.5461C72.0337 84.0759 71.0964 87.5418 69.8488 90.9005C69.2171 92.5791 68.4375 94.1983 67.5192 95.7389C66.6276 97.3002 65.4157 98.6552 63.9632 99.7149C65.3516 98.5925 66.4952 97.1974 67.3232 95.6157C68.1908 94.0665 68.9198 92.4437 69.5016 90.7661C70.6751 87.4108 71.5612 83.9619 72.1504 80.4565C72.8167 76.9657 73.1913 73.4255 73.2704 69.8725C73.3191 68.0966 73.2274 66.3196 72.996 64.5581C72.817 62.7838 72.3319 61.054 71.5624 59.4453Z" fill="black"/>
<path d="M54.5048 55.3867C55.4736 56.1539 56.4088 56.9715 57.3048 57.7891C58.2008 58.6067 59.1304 59.4691 60.0264 60.2979C60.9224 61.1267 61.8016 62.0115 62.664 62.9019L63.9464 64.2347C64.3608 64.6939 64.792 65.1419 65.1952 65.6123C64.7024 65.2315 64.2376 64.8283 63.756 64.4363L62.3616 63.2099C61.4376 62.3979 60.536 61.5299 59.64 60.7011C58.744 59.8723 57.8648 58.9875 57.008 58.0971C56.1512 57.2067 55.3168 56.3219 54.5048 55.3867Z" fill="#263238"/>
<path d="M61.3928 91.5156C60.0432 91.8684 58.6768 92.1596 57.316 92.4396C55.9552 92.7196 54.5832 92.9996 53.2112 93.218C51.8392 93.4364 50.4672 93.6828 49.084 93.8732L47.012 94.1532C46.3232 94.226 45.6288 94.3156 44.9344 94.3716C45.6064 94.1924 46.2896 94.0468 46.9672 93.8788L49.0112 93.4476C50.372 93.1564 51.744 92.8876 53.116 92.6692C54.488 92.4508 55.86 92.2044 57.2432 92.0196C58.6264 91.8348 60.004 91.6388 61.3928 91.5156Z" fill="#263238"/>
<path d="M35.7448 86.6614C37.7888 86.5046 39.8328 86.4038 41.9048 86.3142C43.9768 86.2246 45.9928 86.163 48.0368 86.1126C50.0808 86.0622 52.1304 86.0342 54.1968 86.0398H57.2656C58.2904 86.0398 59.3152 86.0398 60.34 86.1126C59.3152 86.1966 58.296 86.247 57.2712 86.3142L54.2024 86.4654C52.1584 86.5606 50.1144 86.611 48.0424 86.667C45.9704 86.723 43.9488 86.7398 41.8824 86.7342C39.816 86.7286 37.7944 86.7342 35.7448 86.6614Z" fill="#263238"/>
<path d="M43.0752 55.793C44.8224 56.913 46.536 58.089 48.244 59.2706C49.952 60.4522 51.6432 61.6562 53.3288 62.8658C55.0144 64.0754 56.6888 65.3074 58.3352 66.5674L60.8104 68.4546C61.6224 69.1042 62.4456 69.7314 63.252 70.3922C62.3728 69.8322 61.516 69.2722 60.648 68.6786L58.0832 66.9146C56.3696 65.7386 54.684 64.529 52.9984 63.3194C51.3128 62.1098 49.6384 60.8722 47.992 59.6178C46.3456 58.3634 44.688 57.1202 43.0752 55.793Z" fill="#263238"/>
<path d="M61.1184 78.2234C58.744 77.8986 56.3752 77.5122 54.012 77.1034C51.6488 76.6946 49.2912 76.2634 46.9336 75.849C44.576 75.4346 42.224 74.9474 39.8776 74.4602L36.3552 73.7266C35.1904 73.4578 34.0144 73.2114 32.8496 72.9258C34.0368 73.0882 35.224 73.2786 36.4056 73.4522L39.956 74.0122C42.3192 74.4042 44.6768 74.8522 47.0344 75.2666C49.392 75.681 51.744 76.1682 54.0904 76.6554C56.4368 77.1426 58.8 77.669 61.1184 78.2234Z" fill="#263238"/>
<path d="M116.273 105.191C116.01 107.577 113.344 105.908 113.344 105.908C113.344 105.908 116.603 109.234 115.382 111.598C114.201 113.866 111.054 111.732 110.824 111.598C110.998 111.777 113.91 114.913 112.442 117.158C110.975 119.404 108.119 116.806 107.962 116.632C108.069 116.85 109.458 119.762 107.962 121.213C105.375 123.705 101.629 116.352 98.8288 115.574C98.8288 115.574 96.964 120.166 96.88 120.289C96.88 120.289 93.1728 113.373 94.4384 109.649C94.6131 109.105 94.968 108.637 95.4446 108.323C95.9211 108.008 96.4906 107.865 97.0592 107.918C97.0592 107.918 95.62 105.824 96.7176 103.998C97.2776 103.074 99.2712 103.158 99.2712 103.158C99.2712 103.158 98.1848 101.428 99.2712 99.888C100.128 98.656 101.982 98.9304 101.982 98.9304C101.982 98.9304 101.707 96.7912 102.995 95.8112C105.543 93.8512 116.822 100.078 116.273 105.191Z" fill="#AD6359"/>
<path d="M102.245 98.9405C102.239 98.9379 102.234 98.9336 102.23 98.9281C102.227 98.9226 102.225 98.9162 102.225 98.9097C102.225 98.9032 102.227 98.8968 102.23 98.8913C102.234 98.8858 102.239 98.8815 102.245 98.8789C106.456 99.9989 110.729 102.564 113.484 105.98C113.574 106.092 113.428 106.288 113.305 106.181C109.987 103.247 106.261 100.808 102.245 98.9405Z" fill="#263238"/>
<path d="M99.1928 103.116C99.148 103.116 99.1928 103.02 99.232 103.037C103.561 104.236 108.293 107.237 110.992 111.544C111.082 111.695 111.02 111.919 110.897 111.756C108.898 109.029 102.995 104.812 99.1928 103.116Z" fill="#263238"/>
<path d="M108.024 116.98C105.263 112.948 101.489 110.204 97.2104 107.947C97.1544 107.947 97.2104 107.84 97.2552 107.857C99.6464 108.417 102.228 110.097 104.121 111.626C105.906 112.994 107.301 114.807 108.164 116.884C108.198 116.968 108.08 117.041 108.024 116.98Z" fill="#263238"/>
<path d="M113.428 105.902C113.534 106.037 113.221 106.048 113.322 106.182C113.764 106.742 116.094 110.483 115.074 111.67C114.257 112.622 112.409 112.18 111.77 111.732L110.152 110.612L111.272 112.23C111.772 112.946 112.15 113.738 112.392 114.577C112.531 114.958 112.587 115.364 112.557 115.769C112.527 116.173 112.412 116.567 112.218 116.923C112.036 117.253 111.746 117.511 111.396 117.652C111.046 117.794 110.659 117.812 110.298 117.702C109.496 117.436 108.774 116.974 108.198 116.358L106.557 114.678L107.559 116.772C107.841 117.354 108.048 117.969 108.175 118.603C108.318 119.199 108.284 119.823 108.08 120.401C107.972 120.655 107.795 120.875 107.57 121.035C107.345 121.195 107.079 121.29 106.803 121.308C106.183 121.256 105.591 121.029 105.095 120.653C104.007 119.851 102.983 118.965 102.032 118.004C101.539 117.534 101.041 117.063 100.52 116.615C100.022 116.138 99.4281 115.772 98.7784 115.54C99.3895 115.837 99.9372 116.25 100.391 116.755C100.873 117.237 101.326 117.741 101.786 118.245C102.688 119.292 103.687 120.252 104.77 121.112C105.349 121.591 106.056 121.889 106.803 121.969C107.213 121.966 107.613 121.844 107.955 121.619C108.297 121.393 108.566 121.073 108.73 120.698C109.016 119.987 109.083 119.206 108.92 118.458C108.793 117.749 108.575 117.06 108.27 116.408L107.632 116.845C108.3 117.589 109.152 118.145 110.102 118.458C110.633 118.615 111.203 118.584 111.714 118.368C112.207 118.139 112.62 117.769 112.902 117.304C113.146 116.852 113.292 116.353 113.33 115.841C113.367 115.328 113.296 114.813 113.12 114.33C112.834 113.411 112.397 112.547 111.826 111.771L111.334 112.264C112.174 112.824 114.178 113.524 115.634 112.208C117.298 110.248 114.066 106.535 113.428 105.902Z" fill="#263238"/>
<path d="M113.344 105.91C113.807 106.086 114.294 106.19 114.789 106.218C114.987 106.234 115.185 106.198 115.364 106.112C115.543 106.027 115.697 105.895 115.808 105.731C115.998 105.336 116.07 104.894 116.015 104.46C115.982 103.978 115.92 103.474 115.836 102.953C116.169 103.374 116.408 103.861 116.536 104.381C116.622 104.663 116.653 104.958 116.625 105.251C116.597 105.544 116.512 105.829 116.374 106.089C116.194 106.362 115.934 106.572 115.629 106.688C115.338 106.787 115.027 106.805 114.727 106.739C114.19 106.617 113.705 106.326 113.344 105.91Z" fill="#263238"/>
<path d="M100.968 134.095L122.209 117.043C122.209 117.043 127.355 127.683 127.658 127.638C127.96 127.593 131.331 113.475 136.92 104.678C142.509 95.8801 143.853 105.428 142.666 112.686C141.478 119.943 135.89 160.168 130.866 163.853C125.843 167.538 121.122 162.923 119.106 160.969C116.29 158.242 100.968 134.095 100.968 134.095Z" fill="#664EFE"/>
<path d="M105.056 136.016C105.722 135.332 112.398 130.124 113.87 129.027L118.306 125.734C119.829 124.614 121.335 123.376 122.948 122.374C122.955 122.368 122.963 122.364 122.972 122.362C122.98 122.36 122.989 122.359 122.998 122.36C123.007 122.361 123.015 122.364 123.023 122.368C123.031 122.372 123.038 122.378 123.043 122.385C123.049 122.392 123.053 122.4 123.055 122.409C123.058 122.417 123.058 122.426 123.057 122.435C123.056 122.444 123.054 122.452 123.049 122.46C123.045 122.468 123.039 122.475 123.032 122.48C121.632 123.768 120.053 124.888 118.552 126.059C117.051 127.229 115.601 128.377 114.122 129.525C112.644 130.673 105.924 135.685 105.118 136.128C105.05 136.161 105.011 136.083 105.056 136.016Z" fill="#263238"/>
<path d="M127.68 127.609C128.24 128.864 128.8 130.152 129.27 131.44C129.741 132.728 130.211 134.044 130.631 135.36C131.051 136.676 131.432 138.009 131.751 139.358C132.085 140.703 132.342 142.066 132.518 143.441C132.311 142.774 132.143 142.108 131.958 141.453C131.774 140.797 131.566 140.131 131.359 139.47L130.127 135.55L128.895 131.63L128.24 129.603C128.05 128.937 127.842 128.276 127.68 127.609Z" fill="#263238"/>
<path d="M127.758 171.423C128.677 172.336 185.153 169.346 185.438 168.982C186.183 167.985 165.984 107.88 152.746 98.3715C149.901 96.3275 142.251 99.0658 140.286 101.037C139.054 102.275 136.366 110.087 134.618 116.543C131.09 129.479 126.958 170.623 127.758 171.423Z" fill="white"/>
<path d="M141.434 98.5011C139.194 100.181 137.48 108.755 142.598 109.914C147.717 111.073 152.466 102.992 153.166 100.394C153.866 97.7955 146.278 94.9059 141.434 98.5011Z" fill="#664EFE"/>
<path d="M142.968 108.736C146.143 109.145 150.965 103.853 152.662 99.7765C152.779 99.4965 152.102 96.7693 151.396 93.4093C150.987 91.3709 150.584 89.0917 150.36 86.9805L137.48 91.5781C137.48 91.5781 139.244 95.8621 139.608 99.5413C139.636 99.8318 139.636 100.124 139.608 100.415C139.608 100.454 139.608 100.504 139.608 100.56C139.502 102.246 139.899 108.344 142.968 108.736Z" fill="#AD6359"/>
<path d="M149.75 87.2148C149.615 89.8916 148.602 99.5348 140.963 100.509C140.51 100.566 140.053 100.589 139.597 100.576C139.588 100.528 139.588 100.479 139.597 100.431C139.619 100.14 139.619 99.848 139.597 99.5572C139.227 95.8836 137.463 91.5996 137.463 91.5996L149.75 87.2148Z" fill="#263238"/>
<path d="M150.578 71.1998C152.454 75.7582 151.267 89.5454 148.221 92.8886C143.797 97.7326 135.901 98.903 131.639 93.4486C127.495 88.1566 129.36 70.2086 132.826 67.1286C137.928 62.531 147.801 64.4686 150.578 71.1998Z" fill="#AD6359"/>
<path d="M138.398 80.7265C138.398 80.6929 138.471 80.7769 138.466 80.8161C138.359 81.7457 138.398 82.8209 139.21 83.1961C139.21 83.1961 139.21 83.2577 139.21 83.2521C138.186 83.0225 138.152 81.5889 138.398 80.7265Z" fill="#263238"/>
<path d="M139.311 79.8242C140.812 79.8242 140.689 82.837 139.311 82.8314C137.934 82.8258 138.051 79.8186 139.311 79.8242Z" fill="#263238"/>
<path d="M133.185 80.5355C133.185 80.5019 133.112 80.5803 133.112 80.6139C133.112 81.5491 132.933 82.6131 132.076 82.8875V82.9435C133.118 82.8427 133.325 81.4203 133.185 80.5355Z" fill="#263238"/>
<path d="M132.395 79.5229C130.9 79.3493 130.659 82.3229 132.042 82.5133C133.426 82.7037 133.644 79.6797 132.395 79.5229Z" fill="#263238"/>
<path d="M140.56 78.495C140.169 78.3643 139.785 78.211 139.412 78.0358C138.986 77.931 138.606 77.689 138.331 77.347C138.266 77.2222 138.244 77.0793 138.268 76.9405C138.292 76.8018 138.362 76.6749 138.466 76.5798C138.699 76.4233 138.97 76.332 139.251 76.3153C139.531 76.2986 139.811 76.357 140.062 76.4846C140.609 76.6652 141.07 77.0423 141.355 77.543C141.414 77.6608 141.437 77.7931 141.421 77.9237C141.406 78.0542 141.352 78.1775 141.268 78.2784C141.184 78.3794 141.072 78.4536 140.946 78.492C140.821 78.5305 140.686 78.5315 140.56 78.495Z" fill="#263238"/>
<path d="M131.298 77.9629C131.712 77.9125 132.093 77.7949 132.502 77.7053C132.941 77.6744 133.357 77.4969 133.683 77.2013C133.769 77.0906 133.815 76.9548 133.815 76.8149C133.815 76.6751 133.769 76.5393 133.683 76.4285C133.479 76.2338 133.226 76.0974 132.952 76.0334C132.677 75.9694 132.39 75.9801 132.121 76.0645C131.552 76.1506 131.036 76.4438 130.67 76.8877C130.594 76.9948 130.551 77.1216 130.545 77.2528C130.539 77.384 130.571 77.5142 130.637 77.6276C130.703 77.7411 130.801 77.833 130.918 77.8925C131.035 77.952 131.167 77.9764 131.298 77.9629Z" fill="#263238"/>
<path d="M139.591 89.4492C139.362 89.6564 139.126 89.9476 138.785 89.9588C138.438 89.9403 138.1 89.8467 137.794 89.6844C137.788 89.683 137.781 89.6832 137.776 89.685C137.77 89.6869 137.764 89.6903 137.76 89.6949C137.756 89.6996 137.754 89.7052 137.753 89.7112C137.752 89.7173 137.752 89.7235 137.754 89.7292C137.877 89.9204 138.05 90.0738 138.255 90.1727C138.46 90.2715 138.688 90.3118 138.914 90.2892C139.106 90.2489 139.281 90.1522 139.418 90.0115C139.554 89.8708 139.646 89.6926 139.681 89.4996C139.698 89.438 139.625 89.4156 139.591 89.4492Z" fill="#263238"/>
<path d="M138.729 86.6174C138.479 86.9767 138.156 87.2799 137.782 87.5075C137.408 87.735 136.99 87.882 136.556 87.939C136.185 87.9926 135.807 87.9926 135.436 87.939C135.362 87.9341 135.289 87.9229 135.218 87.9054L135.016 87.8662C134.966 87.855 134.921 87.8274 134.889 87.7878C134.856 87.7483 134.838 87.699 134.837 87.6478C134.834 87.6161 134.834 87.5843 134.837 87.5526V87.4686C134.837 86.7518 134.966 85.6654 134.966 85.6654C134.697 85.783 133.336 86.3318 133.37 85.9566C133.689 82.8598 134.036 79.4214 135.005 76.4366C135.033 76.3358 135.19 76.3638 135.173 76.4366C134.988 79.427 134.277 82.3558 134.053 85.3518C134.536 85.1514 135.045 85.0213 135.565 84.9654C135.666 84.999 135.307 87.0598 135.33 87.3846C135.328 87.3958 135.328 87.407 135.33 87.4182C136.528 87.6254 137.452 87.295 138.65 86.539C138.718 86.483 138.79 86.5446 138.729 86.6174Z" fill="#263238"/>
<path d="M135.946 87.7639C136.358 88.2551 136.89 88.6313 137.491 88.8559C137.824 88.9626 138.183 88.9626 138.516 88.8559C139.244 88.6263 139.227 87.9487 139.076 87.3775C138.985 87.0729 138.859 86.7798 138.701 86.5039C137.941 87.2087 136.975 87.6505 135.946 87.7639Z" fill="#263238"/>
<path d="M137.491 88.8573C137.824 88.964 138.183 88.964 138.516 88.8573C139.244 88.6277 139.227 87.9501 139.076 87.3789C138.683 87.409 138.313 87.5718 138.025 87.8404C137.737 88.1091 137.548 88.4677 137.491 88.8573Z" fill="#F392B9"/>
<path d="M150.875 82.6341C151.211 81.4301 154.319 68.4493 153.978 67.0325C153.664 65.7445 152.253 66.2709 152.236 66.1981C152.219 66.1253 152.169 64.9493 151.441 64.5181C151.193 64.4103 150.925 64.3547 150.654 64.3547C150.383 64.3547 150.116 64.4103 149.867 64.5181C149.867 64.5181 149.649 63.2805 148.87 62.9445C148.61 62.8619 148.332 62.849 148.065 62.907C147.798 62.9649 147.55 63.0918 147.347 63.2749C147.276 62.946 147.125 62.6395 146.908 62.3819C146.692 62.1243 146.416 61.9234 146.104 61.7965C145.826 61.716 145.53 61.727 145.258 61.8278C144.987 61.9286 144.755 62.1139 144.598 62.3565C144.598 62.3565 144.267 61.1749 143.478 60.9453C142.688 60.7157 141.966 61.5949 141.966 61.5949C141.849 61.2969 141.654 61.0357 141.402 60.8387C141.15 60.6417 140.849 60.516 140.532 60.4749C140.224 60.4959 139.928 60.6083 139.684 60.7978C139.44 60.9873 139.257 61.2453 139.16 61.5389C139.16 61.5389 138.6 60.4973 137.648 60.4693C136.696 60.4413 136.405 61.5893 136.405 61.5893C136.405 61.5893 136.024 60.5589 135.15 60.6261C134.277 60.6933 134.075 61.9141 134.075 61.9141C134.075 61.9141 133.588 60.7941 132.558 61.1133C130.984 61.6229 130.788 69.1493 130.43 72.4197C130.43 72.4197 130.866 70.8573 131.55 70.8013C132.233 70.7453 132.714 71.8037 133.963 72.0837C135.738 72.4757 138.695 70.4037 141.142 70.9133C143.59 71.4229 145.281 73.9205 146.138 77.6333C147.073 81.9397 150.08 85.4901 150.875 82.6341Z" fill="#263238"/>
<path d="M138.981 85.3356C137.976 85.1517 137.086 84.5766 136.505 83.7365C135.924 82.8965 135.701 81.8603 135.884 80.8556C136.013 80.1496 136.337 79.4939 136.819 78.9629C137.302 78.4318 137.924 78.0469 138.614 77.8517C139.305 77.6565 140.036 77.6589 140.726 77.8586C141.415 78.0584 142.034 78.4474 142.513 78.9816C142.993 79.5157 143.312 80.1736 143.436 80.8804C143.56 81.5872 143.483 82.3146 143.215 82.9799C142.946 83.6453 142.496 84.2219 141.916 84.6442C141.336 85.0666 140.649 85.3177 139.933 85.3692C139.615 85.3967 139.296 85.3854 138.981 85.3356ZM136.388 80.9676C136.271 81.615 136.349 82.2826 136.611 82.8859C136.874 83.4892 137.309 84.0011 137.863 84.3569C138.416 84.7126 139.063 84.8963 139.72 84.8846C140.378 84.8729 141.018 84.6664 141.558 84.2912C142.099 83.9161 142.516 83.389 142.757 82.7768C142.998 82.1646 143.052 81.4946 142.912 80.8517C142.772 80.2088 142.445 79.6219 141.971 79.165C141.498 78.7082 140.899 78.402 140.252 78.2852C139.981 78.2343 139.704 78.2193 139.429 78.2404C138.691 78.2912 137.99 78.5871 137.44 79.0812C136.889 79.5752 136.519 80.2392 136.388 80.9676Z" fill="#664EFE"/>
<path d="M130.883 84.9298C129.31 84.857 128.111 83.0762 128.206 80.965C128.235 80.0079 128.562 79.0836 129.142 78.3218C129.371 77.9799 129.684 77.7029 130.052 77.5177C130.419 77.3324 130.828 77.2452 131.239 77.2643C131.65 77.2835 132.05 77.4084 132.398 77.627C132.747 77.8456 133.033 78.1505 133.23 78.5122C133.736 79.3237 133.975 80.2737 133.913 81.2282C133.823 83.233 132.597 84.8234 131.113 84.9298H130.883ZM129.539 78.641C129.028 79.3184 128.742 80.139 128.722 80.9874C128.638 82.8186 129.618 84.3474 130.906 84.4202C132.194 84.493 133.319 83.037 133.403 81.2058C133.456 80.3588 133.247 79.516 132.804 78.7922C132.639 78.5082 132.409 78.268 132.132 78.0916C131.856 77.9152 131.54 77.8079 131.214 77.7786H131.04C130.744 77.8098 130.457 77.9027 130.198 78.0512C129.94 78.1997 129.715 78.4006 129.539 78.641Z" fill="#664EFE"/>
<path d="M135.99 81.3252L136.338 80.9444C135.778 80.4292 134.467 79.7124 133.482 80.67L133.84 81.034C134.719 80.1772 135.94 81.2748 135.99 81.3252Z" fill="#664EFE"/>
<path d="M153.026 83.0985L153.496 82.8857C153.395 82.6673 152.482 80.7521 151.351 80.5169C150.22 80.2817 143.388 80.6177 143.091 80.6345V81.1441C145.068 81.0489 150.371 80.8473 151.217 81.0153C152.062 81.1833 152.785 82.5721 153.026 83.0985Z" fill="#664EFE"/>
<path d="M147.84 82.1569C147.84 82.1569 150.584 77.5369 152.656 78.4833C154.728 79.4297 152.897 85.9649 150.623 87.0121C150.341 87.1667 150.03 87.2625 149.71 87.2937C149.39 87.3248 149.066 87.2907 148.76 87.1933C148.453 87.0959 148.169 86.9374 147.925 86.7272C147.682 86.517 147.483 86.2596 147.342 85.9705L147.84 82.1569Z" fill="#AD6359"/>
<path d="M152.062 80.3438C152.068 80.3464 152.074 80.3507 152.077 80.3561C152.081 80.3616 152.083 80.368 152.083 80.3745C152.083 80.3811 152.081 80.3875 152.077 80.393C152.074 80.3984 152.068 80.4027 152.062 80.4054C150.472 81.195 149.722 82.7797 149.234 84.4037C149.677 83.7597 150.315 83.3733 151.172 83.8941C151.18 83.9008 151.186 83.9099 151.189 83.9201C151.192 83.9303 151.191 83.9412 151.188 83.9511C151.184 83.961 151.177 83.9695 151.168 83.9754C151.159 83.9812 151.149 83.9842 151.138 83.9837C150.843 83.915 150.533 83.9388 150.252 84.052C149.97 84.1653 149.73 84.3623 149.565 84.6166C149.292 85.0444 149.067 85.5007 148.893 85.9773C148.826 86.1285 148.557 86.0725 148.596 85.8989C148.598 85.886 148.598 85.8727 148.596 85.8598C148.428 83.771 149.834 80.7245 152.062 80.3438Z" fill="#263238"/>
<path d="M160.72 102.302C178.993 114.868 192.181 134.569 193.452 138.702C196.526 148.782 201.113 166.534 201.818 174.508C202.082 177.459 179.357 176.91 178.976 173.769C177.794 163.924 173.561 142.51 173.454 142.146C172.698 139.553 166.247 128.336 159.617 116.134C152.986 103.931 153.014 97.0096 160.72 102.302Z" fill="#AD6359"/>
<path d="M180.779 204.87C183.098 205.665 184.604 203.616 184.604 203.616C185.377 204.563 186.457 205.209 187.656 205.441C189.79 205.755 191.212 202.546 191.212 202.546C192.22 203.359 193.449 203.851 194.74 203.957C196.812 204.047 198.705 201.017 198.705 201.017C200.044 201.247 201.422 200.993 202.591 200.301C204.557 199.035 205.526 192.769 205.492 189.241C205.458 185.713 202.059 175.745 201.606 173.773H178.965C178.965 173.773 174.614 189.627 175.246 193.771C175.773 197.282 178.175 203.98 180.779 204.87Z" fill="#AD6359"/>
<path d="M184.24 203.466C182.79 199.887 182.47 196.079 181.938 192.294C181.938 192.276 181.945 192.259 181.958 192.246C181.971 192.234 181.988 192.227 182.006 192.227C182.023 192.227 182.041 192.234 182.053 192.246C182.066 192.259 182.073 192.276 182.073 192.294C182.554 196.063 183.781 199.691 184.419 203.432C184.417 203.452 184.408 203.472 184.394 203.487C184.381 203.502 184.362 203.512 184.342 203.516C184.322 203.519 184.301 203.517 184.283 203.508C184.264 203.499 184.249 203.484 184.24 203.466Z" fill="#263238"/>
<path d="M190.915 202.476C190.665 201.632 190.526 200.758 190.501 199.878C190.415 198.948 190.348 198.015 190.299 197.078C190.193 195.213 190.126 193.348 190.12 191.478C190.12 191.394 190.243 191.371 190.249 191.478C190.361 193.337 190.495 195.191 190.68 197.039C190.775 197.968 190.876 198.892 190.982 199.839C191.142 200.705 191.204 201.585 191.167 202.465C191.159 202.491 191.143 202.514 191.121 202.531C191.099 202.548 191.073 202.557 191.045 202.559C191.018 202.56 190.99 202.553 190.967 202.538C190.944 202.523 190.926 202.502 190.915 202.476Z" fill="#263238"/>
<path d="M198.699 200.94C198.482 200.172 198.399 199.373 198.453 198.577C198.419 197.731 198.386 196.897 198.346 196.029C198.268 194.349 198.184 192.635 198.044 190.938C198.044 190.92 198.051 190.903 198.064 190.891C198.076 190.878 198.093 190.871 198.111 190.871C198.129 190.871 198.146 190.878 198.159 190.891C198.171 190.903 198.178 190.92 198.178 190.938C198.324 192.657 198.498 194.377 198.638 196.101L198.822 198.638C198.947 199.405 198.934 200.189 198.783 200.951C198.779 200.959 198.772 200.966 198.764 200.971C198.756 200.975 198.746 200.977 198.737 200.975C198.728 200.974 198.719 200.97 198.713 200.964C198.706 200.957 198.701 200.949 198.699 200.94Z" fill="#263238"/>
<path d="M177.884 174.042L202.72 172.037C202.72 172.037 197.249 145.286 194.281 138.056C191.313 130.827 176.534 112.991 161.123 102.418C150.64 95.2332 151.29 101.36 156.134 110.88C160.978 120.4 172.374 142.189 172.934 143.92C173.494 145.65 177.884 174.042 177.884 174.042Z" fill="#664EFE"/>
<path d="M178.321 168.918C179.25 168.7 187.678 167.927 189.521 167.798L195.026 167.417C196.924 167.289 198.85 167.07 200.754 167.093C200.764 167.09 200.775 167.089 200.785 167.091C200.796 167.093 200.805 167.097 200.814 167.103C200.822 167.109 200.829 167.118 200.834 167.127C200.838 167.136 200.841 167.147 200.841 167.157C200.841 167.168 200.838 167.178 200.834 167.187C200.829 167.197 200.822 167.205 200.814 167.211C200.805 167.217 200.796 167.221 200.785 167.223C200.775 167.225 200.764 167.224 200.754 167.221C198.884 167.552 196.946 167.647 195.059 167.826L189.459 168.353C187.589 168.521 179.239 169.103 178.315 169.041C178.242 169.036 178.259 168.935 178.321 168.918Z" fill="#263238"/>
</svg>
