<svg width="160" height="161" viewBox="0 0 160 161" fill="none" xmlns="http://www.w3.org/2000/svg">
<path d="M19.3253 73.4609C18.6848 71.7405 18.569 69.8687 18.9925 68.0825C19.416 66.2962 20.3598 64.6757 21.7045 63.4259C23.0492 62.1762 24.7343 61.3533 26.5467 61.0614C28.3592 60.7695 30.2174 61.0218 31.8865 61.7862C33.5555 62.5506 34.9604 63.7929 35.9232 65.3559C36.8861 66.9189 37.3638 68.7324 37.2958 70.5669C37.2279 72.4014 36.6173 74.1746 35.5414 75.662C34.4656 77.1495 32.9727 78.2845 31.2517 78.9233C28.9457 79.7793 26.3942 79.6848 24.1579 78.6605C21.9216 77.6363 20.1834 75.7661 19.3253 73.4609Z" fill="#EBEBEB"/>
<path d="M32.8573 70.8297C31.7917 73.8025 28.6749 75.8537 28.6749 75.8537C28.6749 75.8537 25.1549 74.5737 23.4525 71.9305C22.0189 69.7225 22.4573 67.1081 24.2237 66.3401C26.7517 65.2393 27.9613 69.7289 27.9613 69.7289C27.9613 69.7289 28.0989 65.0825 30.8189 65.5689C32.7133 65.9081 33.7437 68.3401 32.8573 70.8297Z" fill="white"/>
<path d="M133.876 99.0955C133.009 99.5367 132.077 99.836 131.115 99.9819C128.807 100.339 126.449 99.8136 124.512 98.5095C122.575 97.2054 121.2 95.2188 120.663 92.9461C120.126 90.6735 120.465 88.2818 121.613 86.2483C122.762 84.2148 124.634 82.689 126.858 81.9753C129.082 81.2616 131.492 81.4124 133.61 82.3978C135.727 83.3831 137.395 85.1305 138.281 87.2913C139.166 89.4521 139.205 91.8674 138.389 94.0554C137.572 96.2434 135.961 98.0431 133.876 99.0955Z" fill="#EBEBEB"/>
<path d="M132.595 90.0008C132.547 90.5573 132.334 91.0868 131.985 91.5224C131.635 91.958 131.164 92.2801 130.631 92.4479C130.099 92.6158 129.528 92.6218 128.992 92.4652C128.456 92.3087 127.978 91.9966 127.62 91.5684C127.261 91.1403 127.038 90.6153 126.977 90.0601C126.917 89.5048 127.023 88.9442 127.282 88.4492C127.54 87.9541 127.94 87.5469 128.43 87.2792C128.92 87.0114 129.479 86.895 130.035 86.9448C130.779 87.0115 131.467 87.3707 131.947 87.9436C132.427 88.5165 132.66 89.2563 132.595 90.0008Z" fill="white"/>
<path d="M133.975 97.9334L133.875 99.095C133.008 99.5362 132.076 99.8354 131.114 99.9814C129.898 100.172 128.657 100.118 127.463 99.8221C126.268 99.5258 125.145 98.9936 124.16 98.2566L124.259 97.0982C124.314 96.4601 124.494 95.839 124.789 95.2704C125.084 94.7019 125.488 94.197 125.978 93.7845C126.468 93.3721 127.034 93.0602 127.645 92.8667C128.255 92.6731 128.898 92.6017 129.536 92.6566C130.174 92.7114 130.795 92.8914 131.364 93.1863C131.932 93.4811 132.437 93.8851 132.85 94.3751C133.262 94.8651 133.574 95.4315 133.768 96.0421C133.961 96.6526 134.033 97.2953 133.978 97.9334H133.975Z" fill="white"/>
<path d="M129.392 34.9749C134.571 32.7692 136.981 26.7829 134.775 21.6042C132.569 16.4255 126.583 14.0153 121.404 16.2211C116.226 18.4268 113.815 24.413 116.021 29.5918C118.227 34.7705 124.213 37.1806 129.392 34.9749Z" fill="#EBEBEB"/>
<path fill-rule="evenodd" clip-rule="evenodd" d="M124.005 29.6462C123.736 29.4766 123.502 29.2302 123.141 29.2654C123.003 29.2654 123.032 29.163 123.032 29.0894C123.032 27.7294 123.032 26.3758 123.032 25.0158C123.032 24.9198 123.032 24.8366 123.147 24.7822C124.184 24.2606 124.632 23.2302 125.269 22.3534C125.594 21.9164 125.828 21.4184 125.958 20.889C126.087 20.3596 126.108 19.8096 126.021 19.2718C125.976 18.9678 126.12 18.8302 126.395 18.7662C126.534 18.7197 126.683 18.7186 126.822 18.7629C126.962 18.8072 127.083 18.8946 127.169 19.0126C127.468 19.5672 127.668 20.1691 127.761 20.7918C127.822 21.3038 127.637 21.8062 127.573 22.315C127.525 22.6894 127.438 23.0574 127.368 23.435C127.457 23.499 127.563 23.467 127.662 23.467H131.102C131.585 23.467 131.822 23.6046 131.889 23.9246C131.926 24.1222 131.897 24.3264 131.807 24.5061C131.717 24.6858 131.571 24.8311 131.39 24.9198C131.304 24.9614 131.147 24.9198 131.137 25.0574C131.128 25.195 131.288 25.179 131.368 25.2366C131.781 25.5214 131.704 26.107 131.224 26.4462C131.109 26.5294 130.885 26.491 130.878 26.6606C130.872 26.8302 131.086 26.795 131.182 26.8878C131.502 27.2078 131.349 27.8478 130.862 28.0878C130.794 28.1095 130.726 28.1352 130.661 28.1646C130.603 28.203 130.549 28.2478 130.661 28.3246C131.157 28.6798 131.147 29.1726 130.661 29.5342L130.51 29.6398C130.329 29.7502 130.116 29.7975 129.905 29.7742C128.107 29.7742 126.309 29.7742 124.51 29.7742C124.422 29.7896 124.331 29.7861 124.244 29.764C124.157 29.742 124.075 29.7018 124.005 29.6462Z" fill="white"/>
<path fill-rule="evenodd" clip-rule="evenodd" d="M118.893 27.2523C118.893 26.3883 118.893 25.5275 118.893 24.6635C118.893 24.4907 118.909 24.4043 119.124 24.4043C120.177 24.4043 121.226 24.4043 122.279 24.4043C122.487 24.4043 122.519 24.4715 122.516 24.6539C122.516 26.3926 122.516 28.1291 122.516 29.8635C122.516 30.0843 122.455 30.1451 122.234 30.1419C121.214 30.1291 120.195 30.1291 119.175 30.1419C118.919 30.1419 118.884 30.0555 118.887 29.8219C118.9 28.9803 118.893 28.1163 118.893 27.2523Z" fill="white"/>
<path d="M36.266 121.33C36.8004 124.744 34.8804 128.351 34.8804 128.351C34.8804 128.351 30.8356 128.952 27.7988 127.301C25.2516 125.941 24.3204 123.176 25.6004 121.516C27.4628 119.135 30.97 122.828 30.97 122.828C30.97 122.828 28.6756 118.28 31.5492 117.33C33.5556 116.661 35.8404 118.482 36.266 121.33Z" fill="#EBEBEB"/>
<path d="M43.325 112.923C41.7954 114.955 38.9058 115.803 38.9058 115.803C38.9058 115.803 36.5122 113.982 35.821 111.534C35.245 109.492 36.2082 107.582 37.741 107.416C39.9522 107.172 39.8082 110.916 39.8082 110.916C39.8082 110.916 41.0242 107.374 43.0082 108.398C44.3906 109.099 44.5986 111.22 43.325 112.923Z" fill="#EBEBEB"/>
<path d="M79.9991 151.738C107.997 151.738 130.693 148.7 130.693 144.951C130.693 141.203 107.997 138.164 79.9991 138.164C52.0013 138.164 29.3047 141.203 29.3047 144.951C29.3047 148.7 52.0013 151.738 79.9991 151.738Z" fill="#EBEBEB"/>
<path d="M15.0332 139.111L31.2764 139.034L47.5164 139.006L79.9996 138.951L112.483 139.006L128.723 139.034L144.963 139.111L128.723 139.188L112.483 139.217L79.9996 139.271L47.5164 139.217L31.2764 139.188L15.0332 139.111Z" fill="#263238"/>
<path d="M107.044 20.3145H52.9637C52.2381 20.3207 51.5209 20.4699 50.853 20.7535C50.185 21.0371 49.5796 21.4495 49.0711 21.9672C48.5626 22.4849 48.1611 23.0976 47.8896 23.7705C47.6181 24.4434 47.4818 25.1633 47.4885 25.8889V137.249C47.4757 138.714 48.0453 140.124 49.072 141.17C50.0988 142.215 51.4986 142.81 52.9637 142.823H107.044C108.51 142.811 109.911 142.216 110.939 141.171C111.967 140.126 112.537 138.715 112.525 137.249V25.8889C112.532 25.1628 112.395 24.4427 112.123 23.7696C111.851 23.0964 111.449 22.4835 110.94 21.9659C110.43 21.4482 109.824 21.0359 109.156 20.7525C108.487 20.4692 107.77 20.3203 107.044 20.3145ZM109.101 133.809C109.101 136.74 106.906 139.111 104.202 139.111H55.8053C53.0885 139.111 50.8965 136.74 50.8965 133.809V30.1097C50.8965 24.1385 53.0885 23.8473 55.8053 23.8473H65.4981C66.0613 23.8473 66.5221 24.4873 66.5221 25.2809V25.6233C66.5221 27.4825 67.5397 27.4889 68.7909 27.4889H91.1909C92.4709 27.4889 93.4597 27.4889 93.4597 25.6233V25.2809C93.4597 24.4873 93.9141 23.8473 94.4901 23.8473H104.186C106.89 23.8473 109.085 24.6409 109.085 30.1097L109.101 133.809Z" fill="#263238"/>
<path d="M83.0573 25.1654H76.9421C76.8419 25.1654 76.7459 25.1256 76.6751 25.0548C76.6042 24.9839 76.5645 24.8879 76.5645 24.7878C76.5645 24.6876 76.6042 24.5916 76.6751 24.5208C76.7459 24.4499 76.8419 24.4102 76.9421 24.4102H83.0573C83.1574 24.4102 83.2534 24.4499 83.3243 24.5208C83.3951 24.5916 83.4349 24.6876 83.4349 24.7878C83.4349 24.8879 83.3951 24.9839 83.3243 25.0548C83.2534 25.1256 83.1574 25.1654 83.0573 25.1654Z" fill="white"/>
<path d="M109.101 30.1101V133.809C109.101 136.74 106.906 139.112 104.202 139.112H55.8053C53.0885 139.112 50.8965 136.74 50.8965 133.809V30.1101C50.8965 24.1389 53.0885 23.8477 55.8053 23.8477H65.4981C66.0613 23.8477 66.5221 24.4877 66.5221 25.2813V25.6237C66.5221 27.4829 67.5397 27.4893 68.7909 27.4893H91.1909C92.4709 27.4893 93.4597 27.4893 93.4597 25.6237V25.2813C93.4597 24.4877 93.9141 23.8477 94.4901 23.8477H104.186C106.906 23.8605 109.101 24.6413 109.101 30.1101Z" fill="white"/>
<path d="M109.102 30.1101V37.8477H50.8809V30.1101C50.8809 24.1389 53.0889 23.8605 55.8025 23.8605H65.4985C66.0617 23.8605 66.5225 24.5005 66.5225 25.2941V25.6365C66.5225 27.4957 67.5401 27.5021 68.7881 27.5021H91.2009C92.4617 27.5021 93.4729 27.5021 93.4729 25.6365V25.2813C93.4729 24.4877 93.9273 23.8477 94.5001 23.8477H104.193C106.906 23.8605 109.102 24.6413 109.102 30.1101Z" fill="#FFD029"/>
<path d="M56.4098 34.0713L54.6914 32.4585L56.4098 30.8457L56.6754 31.1305L55.261 32.4585L56.6754 33.7865L56.4098 34.0713Z" fill="white"/>
<path d="M103.821 34.184H102.669V33.7808C102.669 33.7628 102.664 33.7453 102.654 33.73C102.644 33.7148 102.631 33.7025 102.615 33.6944C102.57 33.672 102.528 33.6464 102.487 33.6208C102.471 33.6115 102.454 33.6065 102.436 33.6065C102.418 33.6065 102.4 33.6115 102.384 33.6208L102.039 33.8192L101.463 32.824L101.812 32.6224C101.827 32.6133 101.839 32.6 101.847 32.5841C101.855 32.5683 101.858 32.5504 101.856 32.5328C101.855 32.5083 101.855 32.4837 101.856 32.4592C101.855 32.4347 101.855 32.4101 101.856 32.3856C101.858 32.3679 101.855 32.3501 101.847 32.3342C101.839 32.3183 101.827 32.3051 101.812 32.296L101.463 32.0944L102.039 31.0992L102.384 31.2976C102.4 31.3069 102.418 31.3118 102.436 31.3118C102.454 31.3118 102.471 31.3069 102.487 31.2976C102.528 31.272 102.57 31.2464 102.615 31.224C102.631 31.2159 102.644 31.2035 102.654 31.1883C102.664 31.1731 102.669 31.1556 102.669 31.1376V30.7344H103.821V31.1344C103.822 31.1524 103.827 31.1699 103.837 31.1851C103.846 31.2003 103.86 31.2127 103.876 31.2208L104.004 31.2944C104.019 31.3037 104.037 31.3086 104.055 31.3086C104.073 31.3086 104.091 31.3037 104.106 31.2944L104.452 31.096L105.024 32.0912L104.679 32.2928C104.663 32.3017 104.651 32.3149 104.642 32.3307C104.634 32.3465 104.63 32.3644 104.631 32.3824C104.632 32.4069 104.632 32.4315 104.631 32.456V32.5264C104.628 32.5446 104.631 32.5633 104.639 32.5799C104.647 32.5965 104.66 32.6102 104.676 32.6192L105.021 32.8208L104.448 33.816L104.1 33.6176C104.085 33.6082 104.068 33.6032 104.05 33.6032C104.033 33.6032 104.015 33.6082 104 33.6176L103.872 33.6912C103.856 33.6993 103.843 33.7116 103.833 33.7268C103.824 33.7421 103.818 33.7596 103.818 33.7776L103.821 34.184ZM102.909 33.944H103.581V33.7808C103.581 33.7188 103.598 33.6579 103.63 33.6049C103.663 33.5518 103.709 33.5086 103.764 33.48C103.802 33.4629 103.838 33.4425 103.872 33.4192C103.925 33.3848 103.986 33.3664 104.048 33.3664C104.111 33.3664 104.172 33.3848 104.224 33.4192L104.362 33.4992L104.698 32.9168L104.557 32.8368C104.501 32.8059 104.456 32.7589 104.427 32.7018C104.397 32.6448 104.386 32.5803 104.394 32.5168V32.3952C104.386 32.3313 104.398 32.2666 104.428 32.2095C104.458 32.1524 104.504 32.1056 104.56 32.0752L104.698 31.9952L104.362 31.4128L104.224 31.4928C104.172 31.5272 104.111 31.5455 104.048 31.5455C103.986 31.5455 103.925 31.5272 103.872 31.4928C103.839 31.4701 103.803 31.4498 103.767 31.432C103.711 31.404 103.664 31.3611 103.631 31.308C103.599 31.2548 103.581 31.1936 103.581 31.1312V30.9712H102.909V31.1312C102.909 31.1936 102.892 31.2548 102.859 31.308C102.826 31.3611 102.78 31.404 102.724 31.432C102.687 31.4491 102.651 31.4695 102.618 31.4928C102.566 31.5272 102.505 31.5455 102.442 31.5455C102.38 31.5455 102.318 31.5272 102.266 31.4928L102.128 31.4128L101.808 31.9952L101.946 32.0752C102.003 32.1056 102.049 32.1524 102.079 32.2095C102.108 32.2666 102.12 32.3313 102.112 32.3952C102.108 32.4356 102.108 32.4764 102.112 32.5168C102.12 32.5807 102.108 32.6454 102.079 32.7025C102.049 32.7595 102.003 32.8063 101.946 32.8368L101.808 32.9168L102.128 33.4992L102.266 33.4192C102.318 33.3848 102.38 33.3664 102.442 33.3664C102.505 33.3664 102.566 33.3848 102.618 33.4192C102.652 33.4418 102.687 33.4621 102.724 33.48C102.78 33.5079 102.826 33.5509 102.859 33.604C102.892 33.6571 102.909 33.7183 102.909 33.7808V33.944ZM103.245 33.3232C103.074 33.3238 102.905 33.2734 102.762 33.1784C102.619 33.0833 102.508 32.9479 102.442 32.7893C102.375 32.6307 102.358 32.4561 102.391 32.2876C102.425 32.1191 102.507 31.9642 102.629 31.8428C102.75 31.7213 102.905 31.6386 103.074 31.6053C103.242 31.5719 103.417 31.5894 103.575 31.6554C103.734 31.7214 103.869 31.8331 103.964 31.9762C104.06 32.1193 104.11 32.2874 104.109 32.4592C104.108 32.6881 104.017 32.9073 103.855 33.0692C103.693 33.231 103.474 33.3223 103.245 33.3232ZM103.245 31.832C103.118 31.8288 102.993 31.8636 102.885 31.932C102.778 32.0003 102.694 32.0991 102.643 32.2158C102.592 32.3324 102.577 32.4616 102.6 32.5867C102.623 32.7119 102.682 32.8274 102.771 32.9186C102.86 33.0097 102.974 33.0722 103.098 33.0983C103.223 33.1243 103.352 33.1126 103.47 33.0646C103.588 33.0167 103.689 32.9347 103.76 32.8291C103.831 32.7236 103.869 32.5992 103.869 32.472C103.869 32.305 103.804 32.1446 103.688 32.025C103.571 31.9054 103.412 31.8362 103.245 31.832Z" fill="white"/>
<path d="M63.8245 26.1776L63.7317 26.2704C63.7125 26.2704 63.6965 26.3056 63.6773 26.3248C63.5598 26.2049 63.4193 26.1099 63.2643 26.0456C63.1092 25.9812 62.9428 25.9489 62.7749 25.9504C62.6069 25.9481 62.4403 25.9802 62.2851 26.0445C62.13 26.1089 61.9896 26.2043 61.8725 26.3248L61.8213 26.2704L61.7285 26.1776L61.8469 26.0752C61.9309 26.0051 62.0233 25.946 62.1221 25.8992C62.2362 25.8416 62.358 25.8006 62.4837 25.7776C62.5445 25.7776 62.6053 25.7776 62.6661 25.752H62.8261H62.9477C63.0571 25.7663 63.1645 25.7931 63.2677 25.832C63.3463 25.8606 63.4223 25.8959 63.4949 25.9376C63.5708 25.981 63.6426 26.0314 63.7093 26.088L63.8085 26.1776H63.8245Z" fill="white"/>
<path d="M62.1667 26.619C62.1187 26.5678 62.0707 26.5198 62.0195 26.4718C62.1183 26.3724 62.2357 26.2935 62.365 26.2397C62.4944 26.1859 62.633 26.1582 62.7731 26.1582C62.9132 26.1582 63.0519 26.1859 63.1812 26.2397C63.3106 26.2935 63.428 26.3724 63.5267 26.4718L63.3795 26.619C63.2187 26.4581 63.0006 26.3678 62.7731 26.3678C62.5457 26.3678 62.3276 26.4581 62.1667 26.619Z" fill="white"/>
<path d="M63.2332 26.767L63.086 26.9142C63.0448 26.8715 62.995 26.8379 62.9398 26.8158C62.8846 26.7938 62.8254 26.7837 62.766 26.7862C62.7068 26.7845 62.6478 26.7949 62.5927 26.817C62.5377 26.839 62.4877 26.8721 62.446 26.9142L62.2988 26.767C62.3587 26.7031 62.431 26.6521 62.5114 26.6173C62.5918 26.5824 62.6784 26.5645 62.766 26.5645C62.8536 26.5645 62.9403 26.5824 63.0206 26.6173C63.101 26.6521 63.1734 26.7031 63.2332 26.767Z" fill="white"/>
<path d="M62.9054 27.0598C62.9054 27.0946 62.8916 27.128 62.867 27.1526C62.8424 27.1772 62.809 27.191 62.7742 27.191C62.7551 27.194 62.7355 27.1928 62.7168 27.1875C62.6981 27.1822 62.6809 27.1729 62.6661 27.1603C62.6514 27.1477 62.6396 27.132 62.6315 27.1144C62.6233 27.0968 62.6191 27.0776 62.6191 27.0582C62.6191 27.0388 62.6233 27.0197 62.6315 27.002C62.6396 26.9844 62.6514 26.9688 62.6661 26.9561C62.6809 26.9435 62.6981 26.9342 62.7168 26.9289C62.7355 26.9236 62.7551 26.9224 62.7742 26.9254C62.7917 26.9254 62.809 26.9289 62.8252 26.9357C62.8413 26.9425 62.8559 26.9525 62.8681 26.965C62.8804 26.9775 62.89 26.9923 62.8964 27.0086C62.9028 27.0249 62.9058 27.0423 62.9054 27.0598Z" fill="white"/>
<path d="M54.6895 26.4575C54.6895 26.3809 54.7122 26.3061 54.7547 26.2424C54.7973 26.1787 54.8577 26.1291 54.9285 26.0998C54.9992 26.0705 55.0771 26.0628 55.1522 26.0778C55.2273 26.0927 55.2963 26.1296 55.3504 26.1837C55.4046 26.2379 55.4415 26.3069 55.4564 26.382C55.4714 26.4571 55.4637 26.5349 55.4344 26.6057C55.4051 26.6764 55.3554 26.7369 55.2918 26.7795C55.2281 26.822 55.1532 26.8447 55.0767 26.8447C54.974 26.8447 54.8755 26.8039 54.8029 26.7313C54.7302 26.6587 54.6895 26.5602 54.6895 26.4575Z" fill="white"/>
<path d="M55.9043 26.4575C55.9043 26.3809 55.927 26.3061 55.9696 26.2424C56.0121 26.1787 56.0726 26.1291 56.1433 26.0998C56.2141 26.0705 56.2919 26.0628 56.367 26.0778C56.4421 26.0927 56.5111 26.1296 56.5653 26.1837C56.6194 26.2379 56.6563 26.3069 56.6713 26.382C56.6862 26.4571 56.6785 26.5349 56.6492 26.6057C56.6199 26.6764 56.5703 26.7369 56.5066 26.7795C56.4429 26.822 56.3681 26.8447 56.2915 26.8447C56.2407 26.8447 56.1903 26.8347 56.1433 26.8152C56.0963 26.7958 56.0537 26.7673 56.0177 26.7313C55.9818 26.6954 55.9532 26.6527 55.9338 26.6057C55.9143 26.5587 55.9043 26.5084 55.9043 26.4575Z" fill="white"/>
<path d="M57.1211 26.4575C57.1211 26.3808 57.1439 26.3058 57.1866 26.2421C57.2293 26.1783 57.2899 26.1287 57.3609 26.0995C57.4318 26.0703 57.5098 26.0628 57.585 26.078C57.6602 26.0932 57.7292 26.1304 57.7832 26.1849C57.8373 26.2393 57.8739 26.3086 57.8885 26.3839C57.903 26.4593 57.8949 26.5372 57.8651 26.6079C57.8353 26.6786 57.7852 26.7388 57.7211 26.781C57.657 26.8232 57.5818 26.8453 57.5051 26.8447C57.4544 26.8447 57.4042 26.8347 57.3574 26.8152C57.3106 26.7957 57.2681 26.7671 57.2324 26.7311C57.1967 26.6951 57.1685 26.6524 57.1494 26.6054C57.1303 26.5585 57.1207 26.5082 57.1211 26.4575Z" fill="white"/>
<path d="M58.336 26.4575C58.336 26.3808 58.3587 26.3058 58.4014 26.2421C58.4441 26.1783 58.5048 26.1287 58.5757 26.0995C58.6467 26.0703 58.7247 26.0628 58.7999 26.078C58.8751 26.0932 58.9441 26.1304 58.9981 26.1849C59.0521 26.2393 59.0887 26.3086 59.1033 26.3839C59.1179 26.4593 59.1097 26.5372 59.0799 26.6079C59.0502 26.6786 59 26.7388 58.9359 26.781C58.8718 26.8232 58.7967 26.8453 58.7199 26.8447C58.6693 26.8447 58.6191 26.8347 58.5723 26.8152C58.5255 26.7957 58.483 26.7671 58.4473 26.7311C58.4116 26.6951 58.3834 26.6524 58.3643 26.6054C58.3451 26.5585 58.3355 26.5082 58.336 26.4575Z" fill="white"/>
<path d="M59.5488 26.4575C59.5488 26.3809 59.5715 26.3061 59.6141 26.2424C59.6566 26.1787 59.7171 26.1291 59.7879 26.0998C59.8586 26.0705 59.9365 26.0628 60.0116 26.0778C60.0867 26.0927 60.1557 26.1296 60.2098 26.1837C60.264 26.2379 60.3009 26.3069 60.3158 26.382C60.3307 26.4571 60.3231 26.5349 60.2938 26.6057C60.2644 26.6764 60.2148 26.7369 60.1511 26.7795C60.0875 26.822 60.0126 26.8447 59.936 26.8447C59.8333 26.8447 59.7349 26.8039 59.6622 26.7313C59.5896 26.6587 59.5488 26.5602 59.5488 26.4575Z" fill="white"/>
<path d="M104.736 27.3005H101.594V25.8477H104.736V27.3005ZM101.754 27.1405H104.576V26.0077H101.76L101.754 27.1405Z" fill="white"/>
<path d="M103.883 26.0938H101.857V27.0537H103.883V26.0938Z" fill="white"/>
<path d="M105.015 26.1855H104.736V26.9631H105.015V26.1855Z" fill="white"/>
<path d="M59.7376 132.772H59.296V134.804H58.4704V133.767H57.0048V134.804H56.1792V132.772H55.7344L57.7376 130.705L59.7376 132.772Z" fill="#EBEBEB"/>
<path d="M104.267 130.705H99.4414V131.393H104.267V130.705Z" fill="#EBEBEB"/>
<path d="M104.267 132.41H99.4414V133.098H104.267V132.41Z" fill="#EBEBEB"/>
<path d="M104.267 134.115H99.4414V134.803H104.267V134.115Z" fill="#EBEBEB"/>
<path d="M59.6452 48.0273C59.3558 48.208 59.0392 48.3409 58.7076 48.4209C57.9122 48.6161 57.0724 48.5041 56.3559 48.1075C55.6394 47.7108 55.0988 47.0586 54.8419 46.281C54.5851 45.5033 54.6309 44.6574 54.9702 43.912C55.3095 43.1666 55.9173 42.5765 56.6724 42.2595C57.4276 41.9425 58.2745 41.9219 59.0442 42.2017C59.8139 42.4816 60.4497 43.0413 60.8249 43.7693C61.2001 44.4973 61.2871 45.34 61.0684 46.1292C60.8497 46.9185 60.3415 47.5962 59.6452 48.0273Z" fill="#DBDBDB"/>
<path d="M58.9249 44.8931C58.9249 45.0887 58.8669 45.2798 58.7582 45.4424C58.6496 45.6051 58.4951 45.7318 58.3145 45.8066C58.1338 45.8815 57.935 45.901 57.7432 45.8629C57.5514 45.8247 57.3752 45.7306 57.2369 45.5923C57.0986 45.454 57.0044 45.2778 56.9663 45.086C56.9281 44.8942 56.9477 44.6954 57.0225 44.5147C57.0974 44.334 57.2241 44.1796 57.3867 44.0709C57.5493 43.9623 57.7405 43.9043 57.9361 43.9043C58.1983 43.9043 58.4498 44.0085 58.6353 44.1939C58.8207 44.3793 58.9249 44.6308 58.9249 44.8931Z" fill="white"/>
<path d="M59.6445 47.6206V48.027C59.3551 48.2077 59.0386 48.3406 58.7069 48.4206C58.2887 48.5232 57.8541 48.5412 57.4288 48.4736C57.0035 48.406 56.596 48.2542 56.2301 48.027V47.6206C56.2201 47.3902 56.2569 47.1602 56.3382 46.9443C56.4195 46.7285 56.5436 46.5314 56.7031 46.3648C56.8627 46.1982 57.0542 46.0657 57.2663 45.9751C57.4784 45.8846 57.7067 45.8379 57.9373 45.8379C58.1679 45.8379 58.3962 45.8846 58.6083 45.9751C58.8204 46.0657 59.012 46.1982 59.1715 46.3648C59.331 46.5314 59.4551 46.7285 59.5364 46.9443C59.6177 47.1602 59.6545 47.3902 59.6445 47.6206Z" fill="white"/>
<path d="M85.901 42.2031H65.2578V43.9055H85.901V42.2031Z" fill="#EBEBEB"/>
<path d="M83.277 45.041H65.2578V46.1674H83.277V45.041Z" fill="#EBEBEB"/>
<path d="M95.053 47.2129H65.2578V48.3393H95.053V47.2129Z" fill="#EBEBEB"/>
<path d="M50.8934 91.957L109.092 91.957V51.2018L50.8934 51.2018L50.8934 91.957Z" fill="#EBEBEB"/>
<path d="M57.6973 62.7872C57.6973 63.741 57.9801 64.6734 58.51 65.4664C59.0399 66.2595 59.793 66.8776 60.6742 67.2426C61.5554 67.6076 62.525 67.7031 63.4605 67.517C64.3959 67.3309 65.2552 66.8716 65.9296 66.1972C66.604 65.5228 67.0633 64.6635 67.2494 63.728C67.4355 62.7926 67.34 61.823 66.975 60.9418C66.61 60.0606 65.9919 59.3075 65.1988 58.7776C64.4058 58.2477 63.4734 57.9648 62.5197 57.9648C61.2407 57.9648 60.0141 58.4729 59.1097 59.3773C58.2053 60.2817 57.6973 61.5083 57.6973 62.7872Z" fill="#DBDBDB"/>
<path d="M76.7363 83.093H109.101L92.9187 61.1602L76.7363 83.093Z" fill="#C7C7C7"/>
<path d="M64.0508 83.1969H90.7708L77.4108 68.9121L64.0508 83.1969Z" fill="#DBDBDB"/>
<path d="M109.095 83.1777H50.8965V91.9585H109.095V83.1777Z" fill="#DBDBDB"/>
<path d="M59.6446 113.461C59.3544 113.639 59.038 113.771 58.707 113.851C58.0836 114.003 57.4292 113.966 56.8268 113.745C56.2243 113.525 55.7008 113.13 55.3222 112.612C54.9437 112.094 54.7272 111.476 54.7002 110.835C54.6731 110.194 54.8366 109.559 55.1701 109.011C55.5036 108.463 55.9921 108.026 56.5738 107.756C57.1555 107.485 57.8043 107.393 58.4383 107.491C59.0723 107.589 59.663 107.873 60.1357 108.307C60.6085 108.741 60.942 109.305 61.0942 109.928C61.2556 110.595 61.2024 111.295 60.942 111.929C60.6817 112.564 60.2276 113.1 59.6446 113.461Z" fill="#DBDBDB"/>
<path d="M58.9249 110.315C58.9249 110.511 58.8669 110.702 58.7582 110.864C58.6496 111.027 58.4951 111.154 58.3145 111.229C58.1338 111.303 57.935 111.323 57.7432 111.285C57.5514 111.247 57.3752 111.152 57.2369 111.014C57.0986 110.876 57.0044 110.7 56.9663 110.508C56.9281 110.316 56.9477 110.117 57.0225 109.937C57.0974 109.756 57.2241 109.601 57.3867 109.493C57.5493 109.384 57.7405 109.326 57.9361 109.326C58.1983 109.326 58.4498 109.43 58.6353 109.616C58.8207 109.801 58.9249 110.053 58.9249 110.315Z" fill="white"/>
<path d="M59.6445 113.041V113.46C59.3543 113.638 59.0379 113.77 58.7069 113.85C58.2887 113.954 57.8541 113.972 57.4287 113.904C57.0032 113.837 56.5957 113.685 56.2301 113.457V113.05C56.2201 112.82 56.2569 112.59 56.3382 112.374C56.4195 112.158 56.5436 111.961 56.7031 111.795C56.8627 111.628 57.0542 111.495 57.2663 111.405C57.4784 111.314 57.7067 111.268 57.9373 111.268C58.1679 111.268 58.3962 111.314 58.6083 111.405C58.8204 111.495 59.012 111.628 59.1715 111.795C59.331 111.961 59.4551 112.158 59.5364 112.374C59.6177 112.59 59.6545 112.82 59.6445 113.05V113.041Z" fill="white"/>
<path d="M91.8082 107.623H65.2578V109.325H91.8082V107.623Z" fill="#EBEBEB"/>
<path d="M99.149 110.461H65.2578V111.587H99.149V110.461Z" fill="#EBEBEB"/>
<path d="M76.8034 112.635H65.2578V113.761H76.8034V112.635Z" fill="#EBEBEB"/>
<path d="M109.095 116.625H50.8965V126.58H109.095V116.625Z" fill="#EBEBEB"/>
<path d="M67.0557 126.58H57.9805C58.3166 125.646 58.9327 124.839 59.7448 124.268C60.5569 123.697 61.5254 123.391 62.5181 123.391C63.5107 123.391 64.4792 123.697 65.2913 124.268C66.1034 124.839 66.7196 125.646 67.0557 126.58Z" fill="#DBDBDB"/>
<path d="M56.6764 98.2024C57.7403 98.2024 58.6028 97.3399 58.6028 96.276C58.6028 95.2121 57.7403 94.3496 56.6764 94.3496C55.6125 94.3496 54.75 95.2121 54.75 96.276C54.75 97.3399 55.6125 98.2024 56.6764 98.2024Z" fill="#EBEBEB"/>
<path fill-rule="evenodd" clip-rule="evenodd" d="M56.4139 97.0446C56.3627 97.0126 56.3179 96.9646 56.2507 96.971C56.1835 96.9774 56.2315 96.955 56.2315 96.939C56.2315 96.683 56.2315 96.427 56.2315 96.171C56.2298 96.1621 56.2311 96.1529 56.2352 96.1448C56.2392 96.1367 56.2458 96.1302 56.2539 96.1262C56.4491 96.027 56.5355 95.8318 56.6571 95.6654C56.7182 95.5826 56.7621 95.4884 56.7863 95.3884C56.8105 95.2884 56.8144 95.1845 56.7979 95.083C56.7979 95.0254 56.8171 94.9998 56.8683 94.987C56.8947 94.9783 56.9232 94.9783 56.9497 94.9869C56.9761 94.9956 56.9992 95.0124 57.0155 95.035C57.0717 95.1397 57.1096 95.2534 57.1275 95.371C57.1252 95.4679 57.1134 95.5644 57.0923 95.659C57.0923 95.7294 57.0667 95.7998 57.0539 95.8702C57.0699 95.8702 57.0891 95.8702 57.1083 95.8702H57.7483C57.8411 95.8702 57.8859 95.8958 57.8987 95.9566C57.9059 95.9942 57.9004 96.0332 57.883 96.0674C57.8656 96.1016 57.8373 96.129 57.8027 96.1454C57.7867 96.1454 57.7579 96.1454 57.7547 96.171C57.7515 96.1966 57.7835 96.1934 57.7995 96.2062C57.8763 96.2574 57.8635 96.3694 57.7707 96.4334C57.7515 96.4494 57.7067 96.4334 57.7067 96.475C57.7067 96.5166 57.7451 96.5006 57.7643 96.5166C57.7782 96.5347 57.7878 96.5559 57.7921 96.5784C57.7965 96.6009 57.7955 96.6242 57.7893 96.6462C57.783 96.6683 57.7718 96.6886 57.7563 96.7055C57.7409 96.7225 57.7217 96.7356 57.7003 96.7438C57.6869 96.7477 57.674 96.7531 57.6619 96.7598C57.6619 96.7598 57.6427 96.7598 57.6619 96.7886C57.6835 96.799 57.7017 96.8154 57.7145 96.8358C57.7273 96.8562 57.7341 96.8797 57.7341 96.9038C57.7341 96.9278 57.7273 96.9514 57.7145 96.9717C57.7017 96.9921 57.6835 97.0085 57.6619 97.019L57.6363 97.0382C57.6017 97.059 57.5612 97.068 57.5211 97.0638H56.5003C56.4701 97.0678 56.4395 97.061 56.4139 97.0446Z" fill="white"/>
<path fill-rule="evenodd" clip-rule="evenodd" d="M55.4473 96.5935V96.1039C55.4473 96.0687 55.4473 96.0527 55.4921 96.0527H56.0873C56.1257 96.0527 56.1321 96.0527 56.1321 96.1007V97.0863C56.1321 97.1279 56.1321 97.1407 56.0809 97.1375H55.5017C55.4537 97.1375 55.4473 97.1215 55.4473 97.0767C55.4505 96.9167 55.4473 96.7567 55.4473 96.5935Z" fill="white"/>
<path d="M58.8521 96.7342C58.7634 96.3656 58.7859 95.979 58.9166 95.6231C59.0474 95.2672 59.2805 94.958 59.5868 94.7345C59.893 94.5109 60.2585 94.3831 60.6373 94.367C61.0161 94.3509 61.3912 94.4473 61.7153 94.644C62.0393 94.8408 62.2979 95.1291 62.4584 95.4726C62.6188 95.8161 62.674 96.1994 62.617 96.5742C62.5599 96.9491 62.3931 97.2986 62.1377 97.5788C61.8823 97.8589 61.5496 98.0572 61.1817 98.1486C60.9358 98.2097 60.6803 98.2215 60.4298 98.1834C60.1794 98.1452 59.9389 98.0579 59.7224 97.9264C59.5058 97.795 59.3175 97.6219 59.1681 97.4173C59.0187 97.2127 58.9113 96.9805 58.8521 96.7342Z" fill="#FFD029"/>
<path d="M61.706 96.5194C61.4719 96.9161 61.1316 97.2397 60.7236 97.4538C60.3144 97.2404 59.973 96.9167 59.738 96.5194C59.498 96.0298 59.6516 95.4986 60.0324 95.3834C60.5828 95.217 60.7236 96.1738 60.7236 96.1738C60.7236 96.1738 60.8644 95.2138 61.4116 95.3834C61.7956 95.4986 61.9492 96.0298 61.706 96.5194Z" fill="white"/>
<path d="M92.9221 96.0273H65.5781V97.1409H92.9221V96.0273Z" fill="#EBEBEB"/>
<path d="M50.8926 102.667L58.1694 102.61L65.443 102.587L79.9934 102.549L94.5438 102.587L101.817 102.61L109.094 102.667L101.817 102.725L94.5438 102.747L79.9934 102.789L65.443 102.747L58.1694 102.725L50.8926 102.667Z" fill="#EBEBEB"/>
<path d="M39.5637 82.548L19.9297 87.7832L25.1649 107.417L44.7989 102.182L39.5637 82.548Z" fill="#455A64"/>
<path d="M31.0911 97.5466L28.4607 98.2474C28.1855 97.2202 27.9263 96.2506 27.6543 95.2266L30.2367 94.5386C30.1855 94.305 30.1535 94.1226 30.1087 93.9434C29.9135 93.1434 29.6703 92.3434 29.5327 91.5466C29.2351 89.7674 29.9711 88.2602 31.6255 87.5658C32.6559 87.1306 33.7951 86.9578 34.9119 86.6602C35.1647 87.5978 35.3919 88.4522 35.6479 89.409C35.2479 89.5146 34.8479 89.6138 34.4543 89.729C34.097 89.8135 33.7487 89.9325 33.4143 90.0842C33.1933 90.1795 33.0134 90.3502 32.9067 90.5659C32.8 90.7817 32.7735 91.0283 32.8319 91.2618C33.0047 92.0426 33.2351 92.8106 33.4719 93.649L36.4735 92.8458C36.6079 93.8698 36.7455 94.817 36.8479 95.7674C36.8479 95.8602 36.6591 96.033 36.5279 96.0874C35.8079 96.3018 35.0815 96.4842 34.2879 96.6922C34.9791 99.2938 35.6607 101.851 36.3551 104.449L33.1551 105.3C32.4735 102.721 31.7887 100.164 31.0911 97.5466Z" fill="white"/>
<path d="M136.529 105.789L116.254 103.779L114.244 124.054L134.52 126.064L136.529 105.789Z" fill="#FFD029"/>
<path d="M133.262 111.54C133.454 109.511 132.302 108.071 130.305 107.853C127.532 107.548 124.748 107.272 121.953 107.025C119.982 106.852 118.577 108.029 118.353 109.991C118.196 111.38 118.075 112.772 117.937 114.151C117.799 115.53 117.659 116.871 117.534 118.231C117.345 120.308 118.494 121.751 120.532 121.985C123.284 122.285 126.038 122.558 128.795 122.804C130.811 122.98 132.235 121.783 132.443 119.78C132.731 117.034 133.004 114.287 133.262 111.54ZM131.108 119.681C130.967 120.961 130.206 121.601 128.923 121.485C126.166 121.229 123.412 120.956 120.66 120.666C119.38 120.532 118.74 119.754 118.862 118.477C119.124 115.704 119.399 112.925 119.687 110.141C119.819 108.861 120.603 108.221 121.876 108.327C124.632 108.581 127.387 108.853 130.139 109.143C131.419 109.281 132.059 110.077 131.934 111.348C131.812 112.737 131.665 114.125 131.527 115.508C131.39 116.89 131.262 118.285 131.108 119.674V119.681Z" fill="white"/>
<path d="M125.793 111.003C125.024 110.924 124.249 111.073 123.565 111.433C122.881 111.793 122.319 112.348 121.949 113.027C121.58 113.706 121.419 114.479 121.488 115.249C121.557 116.018 121.852 116.751 122.337 117.353C122.821 117.956 123.473 118.401 124.21 118.634C124.947 118.867 125.736 118.876 126.479 118.661C127.221 118.447 127.884 118.017 128.382 117.426C128.881 116.835 129.194 116.11 129.281 115.342C129.34 114.828 129.296 114.307 129.153 113.809C129.009 113.312 128.768 112.848 128.443 112.444C128.119 112.041 127.718 111.706 127.263 111.458C126.808 111.211 126.308 111.056 125.793 111.003ZM125.099 117.49C124.427 117.403 123.815 117.063 123.387 116.538C122.959 116.014 122.748 115.345 122.798 114.67C122.832 114.329 122.933 113.997 123.095 113.694C123.257 113.392 123.477 113.124 123.742 112.906C124.008 112.689 124.313 112.525 124.642 112.426C124.97 112.326 125.315 112.293 125.657 112.326C125.999 112.36 126.33 112.461 126.633 112.623C126.936 112.785 127.204 113.005 127.421 113.271C127.639 113.536 127.802 113.842 127.902 114.17C128.001 114.499 128.035 114.844 128.001 115.186C127.916 115.874 127.564 116.501 127.021 116.931C126.478 117.362 125.788 117.563 125.099 117.49Z" fill="white"/>
<path d="M130.858 111.409C130.847 111.526 130.811 111.64 130.752 111.742C130.693 111.844 130.613 111.932 130.517 112C130.421 112.068 130.311 112.114 130.196 112.136C130.08 112.158 129.961 112.154 129.847 112.126C129.722 112.12 129.6 112.086 129.49 112.026C129.38 111.967 129.286 111.883 129.213 111.781C129.141 111.679 129.092 111.562 129.072 111.439C129.051 111.316 129.059 111.189 129.095 111.07C129.191 110.529 129.571 110.311 130.119 110.334C130.663 110.481 130.957 110.83 130.858 111.409Z" fill="white"/>
<path d="M133.83 61.4982L119.555 56.418L114.474 70.6929L128.749 75.7732L133.83 61.4982Z" fill="#455A64"/>
<path d="M117.463 67.701C118.583 68.1579 119.828 68.2111 120.983 67.8514C119.812 66.9874 119.431 66.3986 119.504 65.5858L120.4 65.8546C119.508 65.0898 119.146 64.1778 119.469 63.013L120.292 63.573C119.767 62.0402 119.904 61.045 120.778 60.373C121.111 61.2642 121.624 62.0773 122.285 62.7621C122.945 63.4468 123.74 63.9886 124.618 64.3538C124.663 64.2034 124.692 64.0882 124.727 63.9762C124.841 63.5194 125.094 63.1091 125.451 62.802C125.808 62.4948 126.252 62.3058 126.72 62.261C127.188 62.1904 127.667 62.2656 128.09 62.4763C128.514 62.6869 128.862 63.023 129.088 63.4386C129.128 63.5264 129.193 63.6002 129.276 63.6504C129.358 63.7006 129.453 63.725 129.549 63.7202C129.952 63.7202 130.352 63.7202 130.791 63.7202C130.468 64.1141 130.027 64.3944 129.533 64.5202C129.535 64.5447 129.535 64.5693 129.533 64.5938L130.72 64.6994L130.749 64.7602C130.368 64.9426 129.991 65.141 129.6 65.301C129.506 65.3313 129.42 65.3833 129.348 65.4527C129.277 65.5221 129.223 65.6071 129.191 65.701C128.634 67.3013 127.495 68.6337 126.001 69.4338C124.508 70.234 122.768 70.4436 121.127 70.021C119.771 69.6893 118.548 68.9513 117.623 67.9058C117.572 67.8322 117.517 67.7618 117.463 67.701Z" fill="white"/>
<path d="M126.8 32.3875L114.309 36.5527L118.474 49.0446L130.966 44.8794L126.8 32.3875Z" fill="#FFD029"/>
<path d="M119.521 46.9011C119.48 46.1171 119.435 45.3907 119.412 44.6611C119.412 44.5534 119.389 44.4469 119.346 44.3484C119.302 44.2498 119.239 44.1613 119.16 44.0883C118.655 43.559 118.276 42.9228 118.051 42.227C117.826 41.5312 117.76 40.7937 117.859 40.0691C117.958 39.3445 118.219 38.6515 118.622 38.0415C119.026 37.4315 119.561 36.9202 120.189 36.5454C120.817 36.1707 121.522 35.9422 122.25 35.8769C122.978 35.8116 123.712 35.9111 124.397 36.1682C125.081 36.4252 125.699 36.8331 126.205 37.3616C126.71 37.8901 127.09 38.5257 127.316 39.2211C127.651 40.3876 127.543 41.6369 127.011 42.7278C126.479 43.8187 125.562 44.6739 124.436 45.1283C123.662 45.4271 122.827 45.5368 122.001 45.4483C121.843 45.4388 121.685 45.4778 121.55 45.5603C120.881 45.9987 120.232 46.4275 119.521 46.9011ZM120.28 45.4387C120.696 45.1699 121.044 44.9299 121.409 44.7155C121.539 44.6451 121.688 44.6161 121.835 44.6323C122.51 44.748 123.203 44.702 123.857 44.4979C126.251 43.7459 127.428 40.8979 126.203 38.7379C125.851 38.0292 125.286 37.4482 124.588 37.0759C123.89 36.7035 123.093 36.5585 122.308 36.6611C121.498 36.7037 120.722 37.0005 120.09 37.5095C119.458 38.0185 119.003 38.7137 118.788 39.4963C118.264 41.1379 118.712 42.5651 119.979 43.7395C120.095 43.8561 120.168 44.0083 120.187 44.1715C120.248 44.5715 120.254 44.9811 120.28 45.4259V45.4387Z" fill="white"/>
<path d="M120.001 39.487C120.174 38.959 120.625 38.9014 120.999 39.295C121.146 39.4486 121.188 39.503 121.342 39.6854C121.45 39.779 121.521 39.9082 121.542 40.0497C121.563 40.1911 121.533 40.3355 121.457 40.4566C121.338 40.6582 121.399 40.7766 121.569 40.9142C122.086 41.3204 122.709 41.5693 123.364 41.631C123.405 41.642 123.449 41.6445 123.491 41.6385C123.533 41.6324 123.574 41.618 123.611 41.5959C123.648 41.5738 123.68 41.5446 123.705 41.5099C123.73 41.4753 123.748 41.4359 123.758 41.3942C124.001 40.7766 124.01 40.7798 124.673 40.8566L124.9 40.8854C125.006 40.8828 125.111 40.9102 125.203 40.9644C125.294 41.0186 125.368 41.0975 125.417 41.192C125.466 41.2864 125.487 41.3927 125.478 41.4986C125.469 41.6046 125.431 41.7059 125.367 41.791C125.256 42.0114 125.086 42.1972 124.877 42.3286C124.668 42.4599 124.427 42.5318 124.18 42.5366C122.896 42.6105 121.633 42.1812 120.66 41.3398C120.334 41.1126 120.089 40.7876 119.959 40.4118C119.884 40.1059 119.899 39.785 120.001 39.487Z" fill="white"/>
<path d="M76.288 90.3711C76.288 90.3711 74.0256 97.5391 71.168 106.87C67.9936 117.241 64.0832 130.278 61.7344 139.107H83.1104C83.4688 137.686 83.8592 136.15 84.272 134.518L86.0768 127.478C87.7856 120.825 89.6672 113.552 91.3088 107.225C93.7696 97.7439 95.6896 90.3807 95.6896 90.3807L76.288 90.3711Z" fill="#455A64"/>
<path d="M91.5466 95.5745C91.0858 97.2161 90.5066 98.8289 89.9978 100.451C89.489 102.074 88.9642 103.776 88.4522 105.44C87.4367 108.736 86.4298 112.033 85.4314 115.331C83.4282 121.925 81.4314 128.524 79.441 135.126C79.041 136.454 78.6218 137.779 78.209 139.107H78.849C79.6149 136.564 80.3807 134.019 81.1466 131.472C83.1562 124.771 85.1583 118.067 87.153 111.36C88.1514 107.992 89.1445 104.62 90.1322 101.245C90.6282 99.5393 91.0922 97.8305 91.5882 96.1249C91.841 95.2737 91.7322 94.8993 91.5466 95.5745Z" fill="#263238"/>
<path d="M78.4922 90.3711C79.8394 100.793 82.4058 120.339 84.2778 134.531C88.6586 117.35 95.6954 90.3711 95.6954 90.3711H78.4922Z" fill="#263238"/>
<path d="M86.0808 127.469C86.1864 131.392 86.292 135.497 86.3752 139.107H106.017C105.617 130.185 104.929 117.593 104.353 107.443C103.809 97.8015 103.361 90.3711 103.361 90.3711H76.916C76.916 90.3711 77.364 99.6511 79.476 107.011C79.6456 107.619 79.8312 108.217 80.0328 108.79C81.9809 109.578 83.8532 110.542 85.6264 111.67C85.6264 111.67 85.8632 119.136 86.0808 127.469Z" fill="#455A64"/>
<path d="M102.915 139.108H103.235C103.104 136.745 102.985 134.382 102.876 132.02C102.307 119.252 101.859 106.475 101.436 93.7035C101.436 93.6011 101.276 93.5915 101.279 93.7035C101.494 100.926 101.683 108.151 101.919 115.374C102.195 123.271 102.526 131.183 102.915 139.108Z" fill="#263238"/>
<path d="M79.0909 108.238C81.3684 109.19 83.5591 110.338 85.6381 111.669C85.6527 111.68 85.6631 111.695 85.6671 111.713C85.6712 111.731 85.6688 111.75 85.6603 111.766C85.6518 111.782 85.6378 111.795 85.6208 111.802C85.6038 111.808 85.585 111.809 85.5677 111.803C83.3597 110.728 81.1037 109.694 78.9565 108.504C78.9269 108.483 78.9058 108.452 78.8971 108.417C78.8883 108.382 78.8925 108.345 78.9088 108.313C78.9251 108.281 78.9525 108.255 78.9859 108.242C79.0194 108.228 79.0566 108.227 79.0909 108.238Z" fill="#263238"/>
<path d="M77.7214 97.9651C77.9038 98.9475 78.1406 99.9203 78.3614 100.896C78.5598 101.812 78.7038 102.746 78.947 103.648C79.1426 104.526 79.587 105.328 80.227 105.959C80.5854 106.279 80.9822 106.599 81.3662 106.893C81.571 107.056 81.795 107.213 82.0062 107.383C81.9774 107.255 81.955 107.12 81.9326 106.989C81.8654 106.615 81.8046 106.244 81.7406 105.872C81.603 105.044 81.4686 104.215 81.3438 103.386C81.0942 101.757 80.8638 100.112 80.5246 98.4995C80.5246 98.4874 80.5287 98.4756 80.5362 98.466C80.5436 98.4565 80.5541 98.4497 80.5658 98.4467C80.5776 98.4438 80.59 98.4449 80.6011 98.4498C80.6122 98.4547 80.6213 98.4632 80.627 98.4739C81.0334 100.074 81.4814 101.655 81.8334 103.274C82.0062 104.064 82.627 107.968 82.6526 108.244C82.6782 108.519 82.7038 108.813 82.7166 109.101C82.7534 109.392 82.7534 109.687 82.7166 109.978C82.7006 110.048 82.6142 110.036 82.5822 109.978C82.4645 109.707 82.3807 109.422 82.3326 109.13C82.2622 108.852 82.1982 108.57 82.1502 108.285C82.131 108.183 82.1182 108.08 82.1022 107.965C81.7182 107.732 81.3598 107.424 81.0014 107.162C80.643 106.9 80.2206 106.608 79.8526 106.301C79.1766 105.728 78.6883 104.966 78.451 104.112C78.2155 103.192 78.0624 102.253 77.9934 101.306C77.8686 100.199 77.779 99.0819 77.6222 97.9779C77.6094 97.9267 77.7086 97.8979 77.7214 97.9651Z" fill="#263238"/>
<path d="M81.2232 64.5772C79.9112 75.0348 77.62 92.574 73.9112 93.9916C73.2712 94.238 70.5384 94.7788 68.6728 92.6796C65.5272 89.1404 60.0872 77.198 58.5608 73.3548C57.8856 71.6524 68.9896 66.0972 69.94 67.8092C71.2712 70.206 72.6696 73.8156 72.932 73.694C73.3768 73.4924 74.132 69.0412 77.092 62.7884C80.788 55.0188 81.7128 60.6892 81.2232 64.5772Z" fill="#AD6359"/>
<path d="M55.342 69.2262C56.4364 71.575 60.5516 75.5014 61.9084 76.0678C63.2652 76.6342 70.174 69.863 69.998 68.3622C69.822 66.8614 65.518 59.2454 63.1596 58.071C60.8012 56.8966 54.2124 66.7942 55.342 69.2262Z" fill="#AD6359"/>
<path d="M69.4956 66.9388C69.4956 66.9388 69.2684 63.5756 70.0652 60.718C70.7372 58.3148 72.0076 54.8204 70.7276 54.4108C68.1036 53.5692 64.942 62.2828 64.942 62.2828C64.942 62.2828 64.1612 66.35 66.6892 67.4028C67.1543 67.5916 67.6625 67.6482 68.1578 67.5663C68.653 67.4844 69.116 67.2673 69.4956 66.9388Z" fill="#AD6359"/>
<path d="M62.4608 69.7168L58.5664 69.032L60.5536 57.752L65.4816 58.6192L62.4608 69.7168Z" fill="#664EFE"/>
<path d="M65.4829 58.6192L64.3309 62.8528L62.4621 69.72L58.5645 69.032L60.5549 57.752L65.4829 58.6192Z" fill="#664EFE"/>
<path opacity="0.1" d="M65.4813 58.6192L64.3293 62.8528L59.7949 62.0528L60.5533 57.752L65.4813 58.6192Z" fill="black"/>
<path d="M66.4627 55.7122L60.3301 54.6309L59.5088 59.2886L65.6414 60.3699L66.4627 55.7122Z" fill="#664EFE"/>
<path d="M70.8773 54.7263L66.0293 54.3615L67.3573 46.8223L72.0357 48.1407L70.8773 54.7263Z" fill="#664EFE"/>
<path d="M65.1675 44.8992L63.2091 56.0256L55.0459 55.5744L35.2539 59.136L39.9643 32.416L57.3435 42.5344L65.1675 44.8992Z" fill="#664EFE"/>
<path d="M41.4918 46.4676C42.7991 39.0533 41.9274 32.7021 39.5447 32.282C37.162 31.8619 34.1706 37.5318 32.8633 44.9462C31.5559 52.3606 32.4276 58.7117 34.8103 59.1318C37.193 59.5519 40.1844 53.882 41.4918 46.4676Z" fill="#664EFE"/>
<path opacity="0.2" d="M40.5283 46.0597C41.689 39.4773 41.0482 33.8623 39.0972 33.5183C37.1461 33.1742 34.6235 38.2315 33.4629 44.8139C32.3022 51.3963 32.943 57.0113 34.894 57.3553C36.8451 57.6994 39.3676 52.6421 40.5283 46.0597Z" fill="black"/>
<path d="M39.9525 45.939C39.7957 46.8158 39.6325 47.6638 39.4181 48.4766C38.9711 48.7248 38.4629 48.8414 37.9523 48.8128C37.4417 48.7842 36.9497 48.6116 36.5332 48.315C36.1167 48.0183 35.7927 47.6098 35.5987 47.1366C35.4048 46.6634 35.3488 46.145 35.4373 45.6414L35.6581 44.3806C35.7456 43.8783 35.9734 43.4109 36.3151 43.0325C36.6568 42.6541 37.0985 42.38 37.5893 42.2418C38.08 42.1036 38.5999 42.107 39.0888 42.2516C39.5777 42.3962 40.0158 42.6761 40.3525 43.059C40.2597 43.9998 40.1253 44.979 39.9525 45.939Z" fill="#664EFE"/>
<path d="M67.4112 57.4023L58.0352 56.6983L60.6048 42.1191L69.6576 44.6631L67.4112 57.4023Z" fill="#664EFE"/>
<path opacity="0.2" d="M67.4112 57.4023L58.0352 56.6983L60.6048 42.1191L69.6576 44.6631L67.4112 57.4023Z" fill="black"/>
<path opacity="0.2" d="M40.8932 34.4688C41.3855 35.3693 41.7107 36.3515 41.8532 37.3679C42.0147 38.3796 42.0949 39.4026 42.0932 40.4271C42.0932 40.9391 42.0772 41.4511 42.0612 41.9599C42.0452 42.4687 41.994 42.9807 41.9396 43.4895C41.8852 43.9983 41.8308 44.5072 41.754 45.0128C41.6772 45.5184 41.6036 46.0239 41.514 46.5264C41.1625 48.5433 40.6269 50.5239 39.914 52.4432C39.553 53.4024 39.1075 54.3276 38.5828 55.208C38.0733 56.1001 37.3808 56.8744 36.5508 57.4799C37.3442 56.8386 37.9976 56.0414 38.4708 55.1376C38.9666 54.2523 39.3831 53.325 39.7156 52.3664C40.3861 50.4491 40.8925 48.4782 41.2292 46.4751C41.6099 44.4804 41.824 42.4574 41.8692 40.4271C41.897 39.4123 41.8446 38.3969 41.7124 37.3903C41.6101 36.3765 41.3329 35.388 40.8932 34.4688Z" fill="black"/>
<path d="M31.1465 32.1484C31.7001 32.5868 32.2345 33.054 32.7465 33.5212C33.2585 33.9884 33.7897 34.4812 34.3017 34.9548C34.8137 35.4284 35.3161 35.934 35.8089 36.4428L36.5417 37.2044C36.7785 37.4668 37.0249 37.7228 37.2553 37.9916C36.9737 37.774 36.7081 37.5436 36.4329 37.3196L35.6361 36.6188C35.1081 36.1548 34.5929 35.6588 34.0809 35.1852C33.5689 34.7116 33.0665 34.206 32.5769 33.6972C32.0873 33.1884 31.6105 32.6828 31.1465 32.1484Z" fill="#263238"/>
<path d="M35.0825 52.7949C34.3113 52.9965 33.5305 53.1629 32.7529 53.3229C31.9753 53.4829 31.1913 53.6429 30.4073 53.7677C29.6233 53.8925 28.8393 54.0333 28.0489 54.1421L26.8649 54.3021C26.4713 54.3437 26.0745 54.3949 25.6777 54.4269C26.0617 54.3245 26.4521 54.2413 26.8393 54.1453L28.0073 53.8989C28.7849 53.7325 29.5689 53.5789 30.3529 53.4541C31.1369 53.3293 31.9209 53.1885 32.7113 53.0829C33.5017 52.9773 34.2889 52.8653 35.0825 52.7949Z" fill="#263238"/>
<path d="M20.4258 50.0197C21.5938 49.9301 22.7618 49.8725 23.9458 49.8213C25.1298 49.7701 26.2818 49.7349 27.4498 49.7061C28.6178 49.6773 29.789 49.6613 30.9698 49.6645H32.7234C33.309 49.6645 33.8946 49.6645 34.4802 49.7061C33.8946 49.7541 33.3122 49.7829 32.7266 49.8213L30.973 49.9077C29.805 49.9621 28.637 49.9909 27.453 50.0229C26.269 50.0549 25.1138 50.0645 23.933 50.0613C22.7522 50.0581 21.597 50.0613 20.4258 50.0197Z" fill="#263238"/>
<path d="M24.6152 32.3809C25.6136 33.0209 26.5928 33.6929 27.5688 34.3681C28.5448 35.0433 29.5112 35.7313 30.4744 36.4225C31.4376 37.1137 32.3944 37.8177 33.3352 38.5377L34.7496 39.6161C35.2136 39.9873 35.684 40.3457 36.1448 40.7233C35.6424 40.4033 35.1528 40.0833 34.6568 39.7441L33.1912 38.7361C32.212 38.0641 31.2488 37.3729 30.2856 36.6817C29.3224 35.9905 28.3656 35.2833 27.4248 34.5665C26.484 33.8497 25.5368 33.1393 24.6152 32.3809Z" fill="#263238"/>
<path d="M34.9251 45.1971C33.5683 45.0115 32.2147 44.7907 30.8643 44.5571C29.5139 44.3235 28.1667 44.0771 26.8195 43.8403C25.4723 43.6035 24.1283 43.3251 22.7875 43.0467L20.7747 42.6275C20.1091 42.4739 19.4371 42.3331 18.7715 42.1699C19.4499 42.2627 20.1283 42.3715 20.8035 42.4707L22.8323 42.7907C24.1827 43.0147 25.5299 43.2707 26.8771 43.5075C28.2243 43.7443 29.5683 44.0227 30.9091 44.3011C32.2499 44.5795 33.6003 44.8803 34.9251 45.1971Z" fill="#263238"/>
<path d="M66.4417 60.6084C66.2913 61.9716 64.7681 61.018 64.7681 61.018C64.7681 61.018 66.6305 62.9188 65.9329 64.2692C65.2577 65.5652 63.4593 64.346 63.3281 64.2692C63.4273 64.3716 65.0913 66.1636 64.2529 67.4468C63.4145 68.73 61.7825 67.2452 61.6929 67.146C61.7537 67.2708 62.5473 68.9348 61.6929 69.7636C60.2145 71.1876 58.0737 66.986 56.4737 66.5412C56.4737 66.5412 55.4081 69.1652 55.3601 69.2356C55.3601 69.2356 53.2417 65.2836 53.9649 63.1556C54.0648 62.845 54.2676 62.5777 54.5399 62.3979C54.8122 62.2181 55.1377 62.1366 55.4625 62.1668C55.4625 62.1668 54.6401 60.97 55.2673 59.9268C55.5873 59.3988 56.7265 59.4468 56.7265 59.4468C56.7265 59.4468 56.1057 58.458 56.7265 57.578C57.2161 56.874 58.2753 57.0308 58.2753 57.0308C58.2753 57.0308 58.1185 55.8084 58.8545 55.2484C60.3105 54.1284 66.7553 57.6868 66.4417 60.6084Z" fill="#AD6359"/>
<path d="M58.4256 57.0371C58.4222 57.0357 58.4192 57.0332 58.4172 57.0301C58.4152 57.0269 58.4141 57.0233 58.4141 57.0196C58.4141 57.0158 58.4152 57.0122 58.4172 57.009C58.4192 57.0059 58.4222 57.0034 58.4256 57.002C60.832 57.642 63.2736 59.1076 64.848 61.0596C64.8992 61.1236 64.816 61.2356 64.7456 61.1748C62.8495 59.498 60.7208 58.1043 58.4256 57.0371Z" fill="#263238"/>
<path d="M56.6826 59.4209C56.657 59.4209 56.6826 59.3665 56.705 59.3761C59.1786 60.0609 61.8826 61.7761 63.425 64.2369C63.4762 64.3233 63.441 64.4513 63.3706 64.3585C62.2282 62.8001 58.8554 60.3905 56.6826 59.4209Z" fill="#263238"/>
<path d="M61.7278 67.3447C60.1502 65.0407 57.9934 63.4727 55.5486 62.1831C55.5166 62.1831 55.5486 62.1223 55.5742 62.1319C56.9406 62.4519 58.4158 63.4119 59.4974 64.2855C60.5177 65.0671 61.3145 66.1034 61.8078 67.2903C61.827 67.3383 61.7598 67.3799 61.7278 67.3447Z" fill="#263238"/>
<path d="M64.8165 61.0156C64.8773 61.0924 64.6981 61.0988 64.7557 61.1756C65.0085 61.4956 66.3397 63.6332 65.7573 64.3116C65.2901 64.8556 64.2341 64.6028 63.8693 64.3468L62.9445 63.7068L63.5845 64.6316C63.8701 65.0403 64.0863 65.4933 64.2245 65.9724C64.3037 66.1902 64.3359 66.4223 64.3188 66.6535C64.3017 66.8846 64.2357 67.1095 64.1253 67.3132C64.021 67.5019 63.8551 67.649 63.6553 67.73C63.4555 67.811 63.2339 67.8209 63.0277 67.758C62.5697 67.6066 62.1571 67.3425 61.8277 66.99L60.8901 66.03L61.4629 67.2268C61.6239 67.5594 61.7422 67.911 61.8149 68.2732C61.8962 68.6137 61.8774 68.9704 61.7605 69.3004C61.6987 69.4458 61.5978 69.5713 61.469 69.6628C61.3402 69.7543 61.1886 69.8083 61.0309 69.8188C60.6767 69.7891 60.3382 69.6592 60.0549 69.4444C59.4331 68.986 58.8479 68.48 58.3045 67.9308C58.0229 67.662 57.7381 67.3932 57.4405 67.1372C57.1557 66.8647 56.8166 66.6554 56.4453 66.5228C56.7945 66.6926 57.1075 66.9284 57.3669 67.2172C57.6421 67.4924 57.9013 67.7804 58.1637 68.0684C58.6793 68.6671 59.2504 69.2157 59.8693 69.7068C60.1999 69.9807 60.604 70.151 61.0309 70.1964C61.265 70.1949 61.4936 70.1254 61.689 69.9965C61.8844 69.8675 62.0382 69.6846 62.1317 69.47C62.2956 69.0639 62.3335 68.6179 62.2405 68.19C62.168 67.7852 62.0432 67.3915 61.8693 67.0188L61.5045 67.2684C61.8863 67.6936 62.3729 68.0114 62.9157 68.19C63.2196 68.2801 63.5453 68.262 63.8373 68.1388C64.1187 68.0079 64.3549 67.7963 64.5157 67.5308C64.6555 67.2725 64.7389 66.9875 64.7604 66.6946C64.7819 66.4017 64.741 66.1076 64.6405 65.8316C64.4769 65.3065 64.2271 64.8123 63.9013 64.3692L63.6197 64.6508C64.0997 64.9708 65.2453 65.3708 66.0773 64.6188C67.0277 63.4988 65.1813 61.3772 64.8165 61.0156Z" fill="#263238"/>
<path d="M64.7676 61.0177C65.0322 61.1182 65.3106 61.1776 65.5932 61.1937C65.7062 61.2031 65.8197 61.1822 65.9221 61.1333C66.0244 61.0844 66.1119 61.0092 66.1756 60.9153C66.2842 60.6897 66.3254 60.4374 66.294 60.1889C66.2748 59.9137 66.2396 59.6257 66.1916 59.3281C66.3818 59.5684 66.5182 59.8466 66.5916 60.1441C66.641 60.3049 66.6583 60.4739 66.6423 60.6414C66.6264 60.8088 66.5776 60.9715 66.4988 61.1201C66.3963 61.2761 66.2474 61.3958 66.0732 61.4625C65.9073 61.519 65.7291 61.5289 65.558 61.4913C65.2509 61.4215 64.974 61.2556 64.7676 61.0177Z" fill="#263238"/>
<path d="M57.6953 77.1232L69.8329 67.3792C69.8329 67.3792 72.7737 73.4592 72.9465 73.4336C73.1193 73.408 75.0457 65.3408 78.2393 60.3136C81.4329 55.2864 82.2009 60.7424 81.5225 64.8896C80.8441 69.0368 77.6505 92.0224 74.7801 94.128C71.9097 96.2336 69.2121 93.5968 68.0601 92.48C66.4505 90.9216 57.6953 77.1232 57.6953 77.1232Z" fill="#664EFE"/>
<path d="M60.0324 78.2215C60.4132 77.8311 64.2276 74.8551 65.0692 74.2279L67.6036 72.3463C68.474 71.7063 69.3348 70.9991 70.2564 70.4263C70.2604 70.4231 70.265 70.4208 70.2699 70.4194C70.2748 70.418 70.2799 70.4176 70.285 70.4182C70.29 70.4188 70.2949 70.4204 70.2993 70.4229C70.3038 70.4254 70.3077 70.4287 70.3108 70.4327C70.314 70.4367 70.3163 70.4413 70.3177 70.4462C70.3191 70.4511 70.3195 70.4562 70.3189 70.4612C70.3183 70.4663 70.3167 70.4712 70.3142 70.4756C70.3118 70.48 70.3084 70.4839 70.3044 70.4871C69.5044 71.2231 68.602 71.8631 67.7444 72.5319C66.8868 73.2007 66.058 73.8567 65.2132 74.5127C64.3684 75.1687 60.5284 78.0327 60.0676 78.2855C60.0292 78.3047 60.0068 78.2599 60.0324 78.2215Z" fill="#263238"/>
<path d="M72.9609 73.418C73.2809 74.1348 73.6009 74.8708 73.8697 75.6068C74.1385 76.3428 74.4073 77.0948 74.6473 77.8468C74.8873 78.5988 75.1049 79.3604 75.2873 80.1316C75.4784 80.9001 75.6247 81.679 75.7257 82.4644C75.6073 82.0836 75.5113 81.7028 75.4057 81.3284C75.3001 80.954 75.1817 80.5732 75.0633 80.1956L74.3593 77.9556L73.6553 75.7156L73.2809 74.5572C73.1721 74.1764 73.0537 73.7988 72.9609 73.418Z" fill="#263238"/>
<path d="M73.0048 98.456C73.5296 98.9776 105.802 97.2688 105.965 97.0608C106.39 96.4912 94.848 62.1456 87.2832 56.712C85.6576 55.544 81.2864 57.1088 80.1632 58.2352C79.4592 58.9424 77.9232 63.4064 76.9248 67.096C74.9088 74.488 72.5472 97.9984 73.0048 98.456Z" fill="white"/>
<path d="M80.8204 56.7849C79.5404 57.7449 78.5612 62.6441 81.486 63.3065C84.4108 63.9689 87.1244 59.3513 87.5244 57.8665C87.9244 56.3817 83.5884 54.7305 80.8204 56.7849Z" fill="#664EFE"/>
<path d="M81.6965 62.6351C83.5109 62.8687 86.2661 59.8447 87.2357 57.5151C87.3029 57.3551 86.9157 55.7967 86.5125 53.8767C86.2789 52.7119 86.0485 51.4095 85.9205 50.2031L78.5605 52.8303C78.5605 52.8303 79.5685 55.2783 79.7765 57.3807C79.7925 57.5467 79.7925 57.7139 79.7765 57.8799C79.7765 57.9023 79.7765 57.9311 79.7765 57.9631C79.7157 58.9263 79.9429 62.4111 81.6965 62.6351Z" fill="#AD6359"/>
<path d="M85.5716 50.3359C85.4948 51.8655 84.9156 57.3759 80.5508 57.9327C80.2919 57.9653 80.0308 57.9781 79.77 57.9711C79.7649 57.9436 79.7649 57.9154 79.77 57.8879C79.7828 57.7218 79.7828 57.5549 79.77 57.3887C79.5588 55.2895 78.5508 52.8415 78.5508 52.8415L85.5716 50.3359Z" fill="#263238"/>
<path d="M86.0444 41.1851C87.1164 43.7899 86.438 51.6683 84.6972 53.5787C82.1692 56.3467 77.6572 57.0155 75.222 53.8987C72.854 50.8747 73.9196 40.6187 75.9004 38.8587C78.8156 36.2315 84.4572 37.3387 86.0444 41.1851Z" fill="#AD6359"/>
<path d="M79.0844 46.6275C79.0844 46.6083 79.126 46.6563 79.1228 46.6787C79.062 47.2099 79.0844 47.8243 79.5484 48.0387C79.5484 48.0387 79.5484 48.0739 79.5484 48.0707C78.9628 47.9395 78.9436 47.1203 79.0844 46.6275Z" fill="#263238"/>
<path d="M79.6065 46.1133C80.4641 46.1133 80.3937 47.8349 79.6065 47.8317C78.8193 47.8285 78.8865 46.1101 79.6065 46.1133Z" fill="#263238"/>
<path d="M76.1063 46.5184C76.1063 46.4992 76.0647 46.544 76.0647 46.5632C76.0647 47.0976 75.9623 47.7056 75.4727 47.8624V47.8944C76.0679 47.8368 76.1863 47.024 76.1063 46.5184Z" fill="#263238"/>
<path d="M75.6538 45.9397C74.7994 45.8405 74.6618 47.5397 75.4522 47.6485C76.2426 47.7573 76.3674 46.0293 75.6538 45.9397Z" fill="#263238"/>
<path d="M80.3211 45.3546C80.0976 45.2799 79.8785 45.1923 79.6651 45.0922C79.4217 45.0323 79.2046 44.894 79.0475 44.6986C79.0102 44.6273 78.9974 44.5456 79.0113 44.4663C79.0252 44.387 79.065 44.3145 79.1243 44.2602C79.2578 44.1708 79.4126 44.1186 79.5729 44.109C79.7333 44.0995 79.8932 44.1329 80.0363 44.2058C80.3491 44.309 80.6124 44.5245 80.7755 44.8106C80.8089 44.8779 80.822 44.9535 80.8132 45.0281C80.8043 45.1027 80.774 45.1731 80.7258 45.2308C80.6776 45.2885 80.6137 45.3309 80.5419 45.3529C80.47 45.3748 80.3933 45.3754 80.3211 45.3546Z" fill="#263238"/>
<path d="M75.0282 45.05C75.265 45.0212 75.4826 44.954 75.7162 44.9028C75.9671 44.8851 76.2049 44.7837 76.3914 44.6148C76.4402 44.5515 76.4666 44.4739 76.4666 44.394C76.4666 44.3141 76.4402 44.2364 76.3914 44.1732C76.2747 44.0619 76.1304 43.9839 75.9733 43.9474C75.8163 43.9108 75.6524 43.9169 75.4986 43.9652C75.1737 44.0143 74.8785 44.1819 74.6698 44.4356C74.6263 44.4968 74.6014 44.5692 74.598 44.6442C74.5947 44.7192 74.613 44.7935 74.6508 44.8584C74.6887 44.9232 74.7444 44.9757 74.8113 45.0097C74.8782 45.0437 74.9535 45.0577 75.0282 45.05Z" fill="#263238"/>
<path d="M79.7657 51.6144C79.6345 51.7328 79.5001 51.8992 79.3049 51.9056C79.107 51.895 78.9137 51.8415 78.7385 51.7488C78.7351 51.748 78.7316 51.7481 78.7282 51.7492C78.7249 51.7502 78.7219 51.7522 78.7196 51.7548C78.7173 51.7574 78.7157 51.7607 78.7151 51.7641C78.7145 51.7676 78.7149 51.7711 78.7161 51.7744C78.7863 51.8836 78.8853 51.9713 79.0022 52.0278C79.1191 52.0843 79.2494 52.1073 79.3785 52.0944C79.4882 52.0713 79.5885 52.0161 79.6666 51.9357C79.7447 51.8553 79.797 51.7535 79.8169 51.6432C79.8265 51.608 79.7849 51.5952 79.7657 51.6144Z" fill="#263238"/>
<path d="M79.2737 49.9937C79.1307 50.199 78.9464 50.3723 78.7326 50.5023C78.5188 50.6323 78.2802 50.7163 78.0321 50.7489C77.8199 50.7795 77.6043 50.7795 77.3921 50.7489C77.35 50.7461 77.3083 50.7397 77.2673 50.7297L77.1521 50.7073C77.1236 50.7009 77.098 50.6851 77.0794 50.6625C77.0609 50.6399 77.0504 50.6117 77.0497 50.5825C77.0481 50.5644 77.0481 50.5462 77.0497 50.5281V50.4801C77.0497 50.0705 77.1233 49.4497 77.1233 49.4497C76.9697 49.5169 76.1921 49.8305 76.2113 49.6161C76.3937 47.8465 76.5921 45.8817 77.1457 44.1761C77.1617 44.1185 77.2513 44.1345 77.2417 44.1761C77.1361 45.8849 76.7297 47.5585 76.6017 49.2705C76.8777 49.156 77.1686 49.0816 77.4657 49.0497C77.5233 49.0689 77.3185 50.2465 77.3313 50.4321C77.3306 50.4385 77.3306 50.4449 77.3313 50.4513C78.0161 50.5697 78.5441 50.3809 79.2289 49.9489C79.2673 49.9169 79.3089 49.9521 79.2737 49.9937Z" fill="#263238"/>
<path d="M77.6836 50.6497C77.9193 50.9304 78.2235 51.1453 78.5668 51.2737C78.7572 51.3347 78.962 51.3347 79.1524 51.2737C79.5684 51.1425 79.5588 50.7553 79.4724 50.4289C79.4203 50.2548 79.3483 50.0873 79.258 49.9297C78.8241 50.3324 78.2721 50.5849 77.6836 50.6497Z" fill="#263238"/>
<path d="M78.5664 51.2745C78.7568 51.3355 78.9616 51.3355 79.152 51.2745C79.568 51.1433 79.5584 50.7561 79.472 50.4297C79.2476 50.4469 79.0357 50.5399 78.8712 50.6934C78.7066 50.8469 78.5991 51.0518 78.5664 51.2745Z" fill="#F392B9"/>
<path d="M86.2145 47.7186C86.4065 47.0306 88.1824 39.613 87.9872 38.8034C87.808 38.0674 87.0017 38.3682 86.9921 38.3266C86.9825 38.285 86.9536 37.613 86.5376 37.3666C86.3958 37.3051 86.2427 37.2733 86.088 37.2733C85.9334 37.2733 85.7803 37.3051 85.6384 37.3666C85.6384 37.3666 85.5136 36.6594 85.0688 36.4674C84.9199 36.4203 84.7612 36.4129 84.6085 36.446C84.4558 36.4791 84.3145 36.5516 84.1984 36.6562C84.1576 36.4683 84.0715 36.2932 83.9477 36.146C83.8239 35.9988 83.6662 35.884 83.488 35.8114C83.3292 35.7654 83.1598 35.7717 83.0048 35.8293C82.8498 35.8869 82.7175 35.9928 82.6272 36.1314C82.6272 36.1314 82.4384 35.4562 81.9872 35.325C81.536 35.1938 81.1232 35.6962 81.1232 35.6962C81.0565 35.5259 80.9453 35.3767 80.8012 35.2641C80.6571 35.1515 80.4854 35.0797 80.304 35.0562C80.1278 35.0682 79.959 35.1325 79.8194 35.2408C79.6798 35.3491 79.5756 35.4965 79.52 35.6642C79.52 35.6642 79.2 35.069 78.656 35.053C78.112 35.037 77.9456 35.693 77.9456 35.693C77.9456 35.693 77.728 35.1042 77.2288 35.1426C76.7296 35.181 76.6144 35.8786 76.6144 35.8786C76.6144 35.8786 76.3361 35.2386 75.7473 35.421C74.8481 35.7122 74.736 40.013 74.5312 41.8818C74.5312 41.8818 74.7808 40.989 75.1712 40.957C75.5617 40.925 75.8368 41.5298 76.5504 41.6898C77.5648 41.9138 79.2544 40.7298 80.6528 41.021C82.0512 41.3122 83.0176 42.7394 83.5072 44.861C84.0416 47.3218 85.7601 49.3506 86.2145 47.7186Z" fill="#263238"/>
<path d="M79.4185 49.2615C78.8445 49.1564 78.3357 48.8278 78.0039 48.3478C77.672 47.8677 77.5444 47.2756 77.6489 46.7015C77.7224 46.2981 77.9076 45.9234 78.1834 45.62C78.4592 45.3165 78.8146 45.0965 79.2092 44.985C79.6037 44.8735 80.0217 44.8748 80.4155 44.989C80.8094 45.1031 81.1633 45.3254 81.4371 45.6307C81.7109 45.9359 81.8936 46.3118 81.9645 46.7157C82.0353 47.1196 81.9914 47.5352 81.8378 47.9154C81.6842 48.2956 81.4271 48.6251 81.0956 48.8665C80.7641 49.1078 80.3715 49.2513 79.9625 49.2807C79.7811 49.2964 79.5984 49.29 79.4185 49.2615ZM77.9369 46.7655C77.8701 47.1355 77.9145 47.517 78.0645 47.8617C78.2145 48.2064 78.4634 48.4989 78.7796 48.7022C79.0959 48.9055 79.4653 49.0105 79.8412 49.0038C80.2171 48.9971 80.5826 48.8791 80.8914 48.6647C81.2002 48.4504 81.4386 48.1492 81.5762 47.7993C81.7139 47.4495 81.7447 47.0667 81.6648 46.6993C81.5849 46.332 81.3979 45.9965 81.1273 45.7355C80.8568 45.4744 80.5149 45.2994 80.1449 45.2327C79.9899 45.2037 79.8317 45.1951 79.6745 45.2071C79.2526 45.2361 78.8526 45.4052 78.5378 45.6876C78.223 45.9699 78.0115 46.3493 77.9369 46.7655Z" fill="#664EFE"/>
<path d="M74.7904 49.0302C73.8912 48.9886 73.2064 47.971 73.2608 46.7646C73.2769 46.2177 73.4638 45.6895 73.7952 45.2542C73.9262 45.0588 74.1053 44.9006 74.3153 44.7947C74.5253 44.6888 74.759 44.639 74.9939 44.6499C75.2288 44.6609 75.4569 44.7322 75.6562 44.8572C75.8554 44.9821 76.0191 45.1563 76.1312 45.363C76.4206 45.8267 76.5572 46.3695 76.5216 46.915C76.4704 48.0606 75.7696 48.9694 74.9216 49.0302H74.7904ZM74.0224 45.4366C73.7304 45.8237 73.567 46.2926 73.5552 46.7774C73.5072 47.8238 74.0672 48.6974 74.8032 48.739C75.5392 48.7806 76.1824 47.9486 76.2304 46.9022C76.2608 46.4182 76.1413 45.9366 75.888 45.523C75.794 45.3607 75.6624 45.2234 75.5042 45.1227C75.3461 45.0219 75.166 44.9605 74.9792 44.9438H74.88C74.7106 44.9616 74.5469 45.0147 74.3992 45.0996C74.2515 45.1844 74.1232 45.2992 74.0224 45.4366Z" fill="#664EFE"/>
<path d="M77.709 46.9696L77.9074 46.752C77.5874 46.4576 76.8386 46.048 76.2754 46.5952L76.4802 46.8032C76.9826 46.3136 77.6802 46.9408 77.709 46.9696Z" fill="#664EFE"/>
<path d="M87.4444 47.9837L87.7132 47.8621C87.6556 47.7373 87.134 46.6429 86.4876 46.5085C85.8412 46.3741 81.9372 46.5661 81.7676 46.5757V46.8669C82.8972 46.8125 85.9276 46.6973 86.4108 46.7933C86.894 46.8893 87.3068 47.6829 87.4444 47.9837Z" fill="#664EFE"/>
<path d="M84.4801 47.4476C84.4801 47.4476 86.0481 44.8076 87.2321 45.3484C88.4161 45.8892 87.3697 49.6236 86.0705 50.222C85.9092 50.3104 85.7317 50.3651 85.5487 50.3829C85.3656 50.4007 85.1809 50.3812 85.0056 50.3256C84.8303 50.2699 84.6681 50.1793 84.5288 50.0592C84.3896 49.9391 84.2761 49.792 84.1953 49.6268L84.4801 47.4476Z" fill="#AD6359"/>
<path d="M86.8929 46.4102C86.8963 46.4116 86.8992 46.4141 86.9012 46.4172C86.9033 46.4204 86.9044 46.424 86.9044 46.4278C86.9044 46.4315 86.9033 46.4352 86.9012 46.4383C86.8992 46.4414 86.8963 46.4439 86.8929 46.4454C85.9841 46.8966 85.5552 47.8022 85.2768 48.7302C85.5296 48.3622 85.8945 48.1414 86.3841 48.439C86.3888 48.4428 86.3922 48.4479 86.3938 48.4538C86.3954 48.4596 86.3951 48.4658 86.3929 48.4715C86.3908 48.4772 86.387 48.482 86.3819 48.4854C86.3769 48.4887 86.3709 48.4904 86.3649 48.4902C86.196 48.4509 86.0191 48.4645 85.8582 48.5292C85.6974 48.5939 85.5603 48.7065 85.4656 48.8518C85.3098 49.0962 85.181 49.357 85.0816 49.6294C85.0432 49.7158 84.8897 49.6838 84.9121 49.5846C84.9134 49.5772 84.9134 49.5696 84.9121 49.5622C84.8161 48.3686 85.6193 46.6278 86.8929 46.4102Z" fill="#263238"/>
<path d="M91.8412 58.9569C102.283 66.1377 109.819 77.3953 110.545 79.7569C112.302 85.5169 114.923 95.6609 115.326 100.218C115.476 101.904 102.491 101.591 102.273 99.7953C101.598 94.1697 99.1788 81.9329 99.118 81.7249C98.686 80.2433 94.9996 73.8337 91.2108 66.8609C87.422 59.8881 87.438 55.9329 91.8412 58.9569Z" fill="#AD6359"/>
<path d="M103.303 117.568C104.628 118.023 105.489 116.852 105.489 116.852C105.93 117.393 106.547 117.762 107.233 117.895C108.452 118.074 109.265 116.24 109.265 116.24C109.841 116.705 110.543 116.986 111.281 117.047C112.465 117.098 113.546 115.367 113.546 115.367C114.312 115.498 115.099 115.353 115.767 114.957C116.89 114.234 117.444 110.653 117.425 108.637C117.405 106.621 115.463 100.925 115.204 99.7988H102.266C102.266 99.7988 99.7798 108.858 100.141 111.226C100.442 113.232 101.815 117.06 103.303 117.568Z" fill="#AD6359"/>
<path d="M105.28 116.766C104.451 114.721 104.269 112.545 103.965 110.382C103.965 110.372 103.969 110.362 103.976 110.355C103.983 110.348 103.993 110.344 104.003 110.344C104.013 110.344 104.023 110.348 104.03 110.355C104.038 110.362 104.042 110.372 104.042 110.382C104.317 112.536 105.018 114.609 105.382 116.747C105.381 116.759 105.376 116.769 105.368 116.778C105.36 116.787 105.35 116.792 105.338 116.795C105.327 116.797 105.315 116.795 105.305 116.79C105.294 116.785 105.285 116.777 105.28 116.766Z" fill="#263238"/>
<path d="M109.095 116.199C108.952 115.716 108.872 115.217 108.858 114.714C108.809 114.183 108.771 113.649 108.743 113.114C108.682 112.048 108.644 110.983 108.641 109.914C108.641 109.866 108.711 109.853 108.714 109.914C108.778 110.976 108.855 112.036 108.961 113.092C109.015 113.623 109.073 114.151 109.133 114.692C109.224 115.186 109.26 115.69 109.239 116.192C109.234 116.207 109.225 116.22 109.213 116.23C109.2 116.24 109.185 116.245 109.169 116.246C109.154 116.247 109.138 116.242 109.125 116.234C109.111 116.226 109.101 116.213 109.095 116.199Z" fill="#263238"/>
<path d="M113.542 115.322C113.419 114.883 113.371 114.426 113.402 113.972C113.382 113.488 113.363 113.012 113.341 112.516C113.296 111.556 113.248 110.576 113.168 109.607C113.168 109.597 113.172 109.587 113.179 109.58C113.186 109.572 113.196 109.568 113.206 109.568C113.217 109.568 113.226 109.572 113.234 109.58C113.241 109.587 113.245 109.597 113.245 109.607C113.328 110.589 113.427 111.572 113.507 112.557L113.613 114.007C113.684 114.445 113.676 114.893 113.59 115.328C113.588 115.333 113.584 115.337 113.579 115.34C113.575 115.342 113.569 115.343 113.564 115.342C113.559 115.342 113.554 115.339 113.55 115.336C113.546 115.332 113.543 115.327 113.542 115.322Z" fill="#263238"/>
<path d="M101.648 99.9531L115.84 98.8075C115.84 98.8075 112.713 83.5211 111.017 79.3899C109.321 75.2587 100.877 65.0667 92.0703 59.0251C86.0799 54.9195 86.4511 58.4203 89.2191 63.8603C91.9871 69.3003 98.4991 81.7515 98.8191 82.7403C99.1391 83.7291 101.648 99.9531 101.648 99.9531Z" fill="#664EFE"/>
<path d="M101.898 97.0253C102.429 96.9005 107.245 96.4589 108.298 96.3853L111.443 96.1677C112.528 96.0941 113.629 95.9693 114.717 95.9821C114.723 95.9804 114.729 95.98 114.735 95.9811C114.741 95.9821 114.746 95.9845 114.751 95.9881C114.756 95.9917 114.76 95.9963 114.762 96.0016C114.765 96.007 114.766 96.0129 114.766 96.0189C114.766 96.0248 114.765 96.0308 114.762 96.0361C114.76 96.0414 114.756 96.0461 114.751 96.0497C114.746 96.0532 114.741 96.0556 114.735 96.0567C114.729 96.0577 114.723 96.0574 114.717 96.0557C113.648 96.2445 112.541 96.2989 111.463 96.4013L108.263 96.7021C107.194 96.7981 102.423 97.1309 101.895 97.0957C101.853 97.0925 101.863 97.0349 101.898 97.0253Z" fill="#263238"/>
</svg>
