<svg width="461" height="280" viewBox="0 0 461 280" fill="none" xmlns="http://www.w3.org/2000/svg">
<path d="M202.753 0.404095C128.093 -4.28066 101.61 32.5432 63.6644 70.6316C25.7194 108.717 8.17898 148.922 30.2293 206.152C52.2803 263.382 104.342 277.935 186.055 277.935C267.769 277.935 351.92 285.908 394.537 254.778C437.153 223.651 451.672 152.515 389.924 115.294C353.557 93.371 305.963 6.88061 202.753 0.404095Z" fill="#FFFAEB"/>
<mask id="mask0_9128_28568" style="mask-type:luminance" maskUnits="userSpaceOnUse" x="20" y="0" width="412" height="279">
<path d="M202.745 0.404095C128.084 -4.28066 101.601 32.5432 63.6558 70.6316C25.7107 108.717 8.17032 148.922 30.2206 206.152C52.2716 263.382 104.333 277.935 186.046 277.935C267.761 277.935 351.911 285.908 394.528 254.778C437.144 223.651 451.663 152.515 389.916 115.294C353.548 93.371 305.954 6.88061 202.745 0.404095Z" fill="white"/>
</mask>
<g mask="url(#mask0_9128_28568)">
<path d="M83.1127 265.906C82.3138 255.99 79.0972 246.573 75.8894 237.225C72.7194 227.987 69.1537 218.241 68.9946 208.36C68.9254 204.095 70.8714 195.423 76.9523 197.052C79.0073 197.604 80.3006 199.836 81.229 201.573C82.4517 203.862 83.4103 206.298 84.2551 208.747C87.4429 217.993 88.0162 227.889 87.9922 237.592C87.9737 244.89 87.4655 252.221 88.0628 259.506C88.0985 259.941 88.7499 259.954 88.7485 259.506C88.7211 249.282 89.2923 239.071 91.0964 228.995C91.9569 224.188 93.1226 219.44 94.5016 214.757C94.9953 213.08 96.5608 210.511 98.2819 210.064C100.84 209.401 104.003 210.115 104.987 212.876C108.661 223.188 105.547 234.29 102.124 244.204C100.679 248.389 99.2405 252.57 97.3829 256.588C95.8675 259.867 94.3788 263.16 92.9224 266.466C92.4952 267.435 92.0735 268.405 91.6669 269.383C91.4968 269.792 92.1606 269.967 92.3279 269.565C94.9288 263.31 98.1646 257.302 100.45 250.928C103.875 241.378 107.699 231.57 107.268 221.248C107.173 218.967 106.785 216.704 106.205 214.499C105.685 212.517 105.072 211.013 103.29 209.9C102.035 209.116 100.432 209.057 99.0115 209.232C97.2026 209.455 96.582 209.938 95.6111 211.411C95.2401 211.974 94.3713 212.813 94.1889 213.416C93.8399 214.567 93.5025 215.719 93.1775 216.877C92.4904 219.325 91.887 221.797 91.3391 224.28C90.3373 228.827 89.6139 233.433 89.0872 238.059C88.2767 245.175 88.0429 252.348 88.0621 259.506C88.2905 259.506 88.5195 259.506 88.7478 259.506C88.0607 251.123 88.7615 242.676 88.6628 234.278C88.551 224.779 87.5012 215.236 84.0967 206.308C82.8487 203.036 81.3689 199.083 78.3929 196.991C75.3162 194.828 71.8911 197.205 70.2111 199.889C67.9764 203.461 68.1169 208.216 68.5681 212.226C69.0899 216.858 70.2049 221.43 71.4927 225.902C75.3196 239.197 81.3031 251.958 82.427 265.906C82.4619 266.343 83.1483 266.347 83.1127 265.906Z" fill="#C29700"/>
<path d="M83.0472 265.791C82.873 263.889 82.6652 261.997 82.262 260.127C82.1804 259.75 81.5654 259.832 81.5887 260.219C81.7032 262.124 81.9754 264.01 82.2737 265.894C82.3423 266.33 83.0026 266.144 82.9347 265.712C82.6474 263.888 82.3862 262.063 82.2751 260.218C82.0508 260.248 81.8259 260.279 81.6017 260.309C81.9919 262.118 82.1935 263.949 82.3622 265.79C82.4012 266.227 83.0876 266.231 83.0472 265.791Z" fill="#C29700"/>
<path d="M73.6787 266.055C70.7802 258.391 64.7014 252.765 59.3022 246.842C56.4092 243.668 53.7123 240.31 51.769 236.461C49.9265 232.814 47.425 227.335 49.934 223.475C52.1022 220.138 56.8446 222.842 59.2055 224.432C62.2171 226.459 64.5931 229.179 66.8738 231.97C73.1939 239.708 77.95 248.778 80.6832 258.386C81.3552 260.749 81.8647 263.157 82.2569 265.582C82.3269 266.018 82.9879 265.832 82.9179 265.399C81.4039 256.047 77.8231 247.172 72.8332 239.143C68.9576 232.906 64.1186 226.203 57.5303 222.606C55.3936 221.44 52.6096 220.544 50.4106 222.023C47.6204 223.899 48.062 227.996 48.782 230.774C50.8364 238.7 56.4674 244.854 61.9147 250.661C66.2984 255.332 70.7165 260.152 73.0177 266.237C73.172 266.648 73.8351 266.47 73.6787 266.055Z" fill="#C29700"/>
<path d="M100.478 214.417C95.9359 221.494 96.7965 230.523 95.4079 238.494C94.6097 243.074 92.9729 247.431 92.1371 251.997C91.2539 256.821 90.285 261.617 89.1364 266.385C89.0329 266.815 89.6939 266.997 89.7974 266.567C90.8966 262.007 91.8655 257.418 92.698 252.801C93.4811 248.458 94.9896 244.307 95.8296 239.978C96.6291 235.854 96.9734 231.715 97.3615 227.54C97.7777 223.063 98.6054 218.604 101.07 214.762C101.31 214.39 100.716 214.046 100.478 214.417Z" fill="#C29700"/>
<path d="M74.8004 204.096C75.1089 209.266 76.8602 214.161 78.0513 219.165C79.3802 224.748 80.4629 230.401 81.5868 236.028C82.6812 241.506 83.6631 247.011 84.8398 252.472C86.0542 258.108 87.0245 263.824 87.0533 269.603C87.0553 270.046 87.741 270.046 87.739 269.603C87.7129 264.403 86.9161 259.266 85.8951 254.178C84.7575 248.512 83.6289 242.845 82.5118 237.174C81.4401 231.736 80.3615 226.291 79.1512 220.882C77.9046 215.312 75.8282 209.827 75.4861 204.096C75.46 203.657 74.7743 203.654 74.8004 204.096Z" fill="#C29700"/>
<path d="M57.7613 232.683C62.9268 237.6 67.1747 243.35 71.0593 249.306C73.0259 252.323 74.808 255.485 76.5875 258.616C78.5781 262.119 79.7122 265.826 81.1536 269.561C81.3113 269.969 81.9744 269.793 81.8146 269.379C80.5138 266.007 79.5429 262.575 77.8032 259.388C75.9717 256.032 74.0401 252.676 71.9747 249.459C67.9997 243.269 63.5906 237.284 58.2468 232.198C57.9266 231.894 57.4404 232.378 57.7613 232.683Z" fill="#C29700"/>
<path d="M58.696 241.916C62.8583 244.713 67.421 246.911 71.3576 250.039C71.6998 250.311 72.1887 249.829 71.8424 249.554C67.8571 246.388 63.2546 244.155 59.0423 241.325C58.6734 241.077 58.3305 241.672 58.696 241.916Z" fill="#C29700"/>
<path d="M70.1671 241.382C71.6908 243.39 72.6014 245.978 73.4599 248.318C74.5145 251.193 75.2564 254.223 75.9456 257.203C76.045 257.633 76.706 257.45 76.6066 257.02C75.8811 253.887 75.0727 250.73 73.9639 247.708C73.1376 245.455 72.2208 242.961 70.7589 241.036C70.4956 240.688 69.8997 241.029 70.1671 241.382Z" fill="#C29700"/>
<path d="M92.741 233.399C92.9762 236.296 94.3771 238.938 94.4697 241.855C94.4834 242.297 95.1691 242.298 95.1554 241.855C95.0621 238.932 93.6619 236.295 93.4267 233.399C93.3911 232.963 92.7047 232.959 92.741 233.399Z" fill="#C29700"/>
<path d="M79.3569 209.294C78.3969 212.307 78.5272 215.59 78.1199 218.7C78.063 219.138 78.7494 219.132 78.8056 218.7C79.2061 215.648 79.0765 212.431 80.018 209.476C80.1524 209.053 79.4906 208.874 79.3569 209.294Z" fill="#C29700"/>
<path d="M73.9035 221.794C75.4093 223.917 76.6395 226.208 78.1905 228.3C79.6168 230.224 80.7832 232.081 81.3077 234.441C81.4037 234.873 82.0648 234.689 81.9688 234.258C81.5162 232.221 80.6694 230.694 79.5071 228.981C77.8154 226.489 76.2369 223.903 74.4952 221.448C74.2415 221.091 73.647 221.432 73.9035 221.794Z" fill="#C29700"/>
<path d="M84.9157 230.1C84.2155 234.32 83.5346 238.542 83.1314 242.803C83.0896 243.244 83.776 243.239 83.8171 242.803C84.2149 238.603 84.8868 234.442 85.5767 230.282C85.6487 229.85 84.9877 229.665 84.9157 230.1Z" fill="#C29700"/>
<path d="M103.001 219.2C101.306 223.629 98.431 227.536 96.4253 231.821C96.2388 232.219 96.8299 232.567 97.0171 232.167C99.0488 227.826 101.944 223.87 103.661 219.382C103.82 218.968 103.157 218.792 103.001 219.2Z" fill="#C29700"/>
</g>
<mask id="mask1_9128_28568" style="mask-type:luminance" maskUnits="userSpaceOnUse" x="20" y="0" width="412" height="279">
<path d="M202.745 0.404095C128.084 -4.28066 101.601 32.5432 63.6558 70.6316C25.7107 108.717 8.17032 148.922 30.2206 206.152C52.2716 263.382 104.333 277.935 186.046 277.935C267.761 277.935 351.911 285.908 394.528 254.778C437.144 223.651 451.663 152.515 389.916 115.294C353.548 93.371 305.954 6.88061 202.745 0.404095Z" fill="white"/>
</mask>
<g mask="url(#mask1_9128_28568)">
<path d="M347.793 276.65C346.46 273.451 344.748 270.538 342.394 267.982C339.436 264.77 335.618 262.656 333.001 259.101C330.434 255.613 328.271 251.693 326.142 247.929C324.889 245.712 323.874 243.471 323.456 240.947C323.048 238.488 323.154 235.935 323.332 233.461C323.16 233.559 322.988 233.658 322.817 233.757C324.475 234.467 325.695 235.72 327.033 236.887C328.361 238.045 329.925 238.927 331.344 239.966C334.66 242.394 337.633 245.583 340.05 248.889C342.293 251.956 343.869 255.574 345.389 259.038C346.71 262.049 347.783 265.486 349.741 268.156C349.955 268.447 350.506 268.286 350.368 267.892C347.95 260.98 346.978 253.641 347.198 246.334C347.299 243.02 347.699 239.66 348.205 236.385C348.697 233.208 349.466 229.988 351.106 227.193C350.909 227.193 350.712 227.193 350.515 227.193C351.307 228.734 351.492 230.418 351.805 232.096C352.157 233.983 352.82 235.77 353.495 237.56C354.982 241.501 355.821 245.72 356.591 249.851C357.41 254.246 357.603 258.371 356.93 262.801C356.314 266.861 355.189 270.831 354.344 274.846C354.268 275.209 354.789 275.475 354.971 275.11C356.184 272.67 357.322 270.198 358.336 267.669C359.44 264.912 360.172 262.048 361.148 259.249C362.682 254.853 365.3 250.856 369.5 248.664C374.524 246.044 386.01 243.435 387.321 251.584C387.489 251.454 387.657 251.326 387.824 251.197C380.235 247.983 374.284 255.075 370.473 260.727C367.892 264.554 365.22 268.157 362.272 271.719C361.103 273.134 360.054 274.876 358.691 276.104C357.475 277.199 355.111 278.878 353.387 278.716C352.946 278.674 352.95 279.361 353.387 279.402C355.673 279.617 358.841 277.297 360.114 275.54C362.713 271.952 365.799 268.744 368.398 265.154C372.681 259.241 378.347 247.923 387.478 251.788C387.765 251.91 388.032 251.715 387.982 251.401C386.681 243.317 376.105 245.128 370.718 247.349C366.627 249.036 363.75 252.037 361.77 255.986C360.4 258.72 359.713 261.705 358.744 264.587C357.568 268.09 356.021 271.459 354.378 274.764C354.588 274.852 354.796 274.941 355.005 275.028C355.891 270.812 357.034 266.649 357.681 262.385C358.301 258.296 358.103 254.373 357.371 250.322C356.584 245.963 355.688 241.544 354.156 237.377C353.491 235.57 352.87 233.8 352.465 231.914C352.092 230.17 351.935 228.457 351.106 226.847C350.986 226.614 350.639 226.634 350.515 226.847C347.388 232.172 346.937 239.096 346.568 245.133C346.095 252.846 347.154 260.779 349.706 268.073C349.915 267.985 350.124 267.896 350.333 267.809C348.27 264.994 347.135 261.32 345.736 258.131C344.122 254.452 342.352 250.785 339.92 247.571C337.723 244.669 335.035 241.95 332.149 239.728C330.498 238.456 328.679 237.415 327.106 236.043C325.845 234.944 324.722 233.832 323.161 233.165C322.916 233.06 322.665 233.181 322.645 233.461C322.328 237.877 322.502 242.09 324.425 246.136C326.403 250.295 329.012 254.295 331.519 258.152C332.586 259.795 333.797 261.322 335.207 262.683C336.752 264.174 338.589 265.347 340.191 266.781C343.304 269.569 345.531 272.993 347.131 276.832C347.299 277.234 347.963 277.057 347.793 276.65Z" fill="#C29700"/>
<path d="M343.122 277.088C339.239 270.807 336.141 262.288 328.698 259.414C324.736 257.885 319.949 258.754 316.23 260.518C312.033 262.51 308.698 266.053 305.744 269.546C305.534 269.794 305.726 270.222 306.078 270.119C312.434 268.246 320.414 267.859 326.306 271.373C329.12 273.051 331.322 275.902 333.542 278.265C335.009 279.827 336.085 282.454 338.356 283C338.786 283.103 338.968 282.442 338.538 282.338C337.017 281.973 335.985 280.31 335.106 279.142C334.268 278.03 333.319 277.057 332.372 276.04C330.103 273.607 327.88 271.163 324.764 269.833C318.908 267.336 311.894 267.69 305.896 269.457C306.007 269.649 306.118 269.84 306.229 270.031C311.639 263.633 319.493 256.976 328.515 260.075C332.213 261.345 334.866 264.742 336.941 267.876C338.981 270.956 340.589 274.294 342.53 277.433C342.762 277.809 343.355 277.465 343.122 277.088Z" fill="#C29700"/>
<path d="M332.733 247.288C335.509 253.113 340.435 257.415 343.98 262.725C345.74 265.363 347.272 268.312 348.6 271.189C350.234 274.727 349.715 278.372 349.688 282.151C349.685 282.593 350.37 282.593 350.374 282.151C350.397 278.956 350.944 275.577 349.876 272.509C348.757 269.292 346.877 266.219 345.15 263.297C341.707 257.47 336.265 253.111 333.324 246.942C333.134 246.543 332.543 246.891 332.733 247.288Z" fill="#C29700"/>
<path d="M323.333 264.932C328.413 267.624 333.375 270.435 336.897 275.089C338.147 276.741 339.366 278.416 340.637 280.052C341.011 280.532 342.046 282.323 342.825 282.241C343.261 282.196 343.265 281.509 342.825 281.555C342.253 281.615 340.398 278.625 340.121 278.257C338.968 276.735 337.851 275.185 336.677 273.679C333.358 269.427 328.353 266.817 323.678 264.34C323.288 264.134 322.942 264.725 323.333 264.932Z" fill="#C29700"/>
<path d="M351.758 246.081C351.814 249.103 352.635 252.005 352.989 254.992C353.412 258.572 353.068 262.281 352.542 265.828C351.573 272.358 352.024 278.986 350.224 285.407C350.449 285.437 350.673 285.468 350.897 285.498C350.897 285.24 350.897 284.982 350.897 284.724C350.897 284.282 350.212 284.282 350.212 284.724C350.212 284.982 350.212 285.24 350.212 285.498C350.212 285.887 350.78 285.962 350.885 285.589C352.625 279.381 352.476 272.888 353.146 266.524C353.508 263.078 353.941 259.726 353.773 256.246C353.609 252.818 352.507 249.522 352.443 246.082C352.436 245.64 351.75 245.639 351.758 246.081Z" fill="#C29700"/>
<path d="M374.084 250.422C368.84 253.74 365.03 259.475 362.038 264.798C359.16 269.92 356.628 276.233 350.898 278.759C350.494 278.938 350.844 279.528 351.244 279.351C356.344 277.103 359.029 271.819 361.534 267.157C364.715 261.236 368.633 254.682 374.43 251.014C374.803 250.778 374.459 250.185 374.084 250.422Z" fill="#C29700"/>
</g>
<path d="M231.307 137.792C231.307 141.441 228.35 144.4 224.701 144.4C221.052 144.4 218.094 141.441 218.094 137.792V133.208C218.094 129.56 221.052 126.602 224.701 126.602C228.35 126.602 231.307 129.56 231.307 133.208V137.792Z" fill="#664EFE"/>
<path d="M298.615 209.927C296.794 201.027 288.907 176.963 269.695 168.266C250.481 159.569 232.481 166.648 225.809 170.691C219.135 174.735 211.451 190.511 208.012 205.275C204.574 220.038 192.844 219.837 183.743 223.072L187.99 238.443L281.829 239.049C281.829 239.049 281.829 239.049 282.031 236.623C306.502 235.207 300.436 218.825 298.615 209.927ZM202.653 233.488C206.394 233.488 223.079 220.949 226.517 221.353C228.235 230.555 228.439 235.409 228.641 236.016C228.844 236.623 203.664 241.071 202.653 233.488Z" fill="#664EFE"/>
<path d="M235.989 174.939C234.776 180.735 229.788 216.196 238.283 239.521C244.888 240.059 254.73 239.521 254.73 239.521C252.843 227.251 249.068 193.274 256.887 173.859C249.068 173.993 235.989 174.939 235.989 174.939Z" fill="#FFE4B5"/>
<path d="M240.304 164.423C233.631 164.83 232.08 172.042 235.114 176.491C238.147 180.94 243.876 177.299 244.888 175.076C252.102 181.884 261.473 175.75 263.494 165.638C263.493 164.83 252.035 162.604 240.304 164.423Z" fill="#FFE4B5"/>
<path d="M259.316 127.869C259.012 121.14 252.102 108.299 235.721 109.024C224.059 109.922 222.643 120.968 222.643 120.968C222.239 122.209 220.149 124.832 220.149 124.832C219.543 119.656 222.815 105.94 237.542 105.572C254.125 105.158 262.044 118.136 262.35 127.457C261.034 129.63 259.316 127.869 259.316 127.869Z" fill="#664EFE"/>
<path d="M226.778 115.134C221.177 118.971 217.822 125.357 220.661 131.707C223.5 138.06 224.305 140.858 221.552 145.827C217.679 152.818 216.046 159.343 218.96 165.278C236.528 162.852 244.258 160.876 244.258 160.876C244.258 160.876 237.465 114.393 226.778 115.134Z" fill="#121212"/>
<path d="M252.856 147.117C252.856 147.117 257.201 160.209 257.612 165.74C257.987 170.812 241.203 174.196 240.013 168.879C238.772 162.553 236.928 151.799 236.928 151.799" fill="#C97440"/>
<path d="M254.251 152.584L252.856 147.117L236.928 151.799C236.928 151.799 237.496 155.103 238.223 159.245C239.405 159.47 240.627 159.578 241.886 159.52C247.071 159.292 251.547 156.574 254.251 152.584Z" fill="#AB5D2D"/>
<path d="M225.014 140.758C225.402 149.477 232.786 156.226 241.5 155.837C250.217 155.448 256.969 148.066 256.579 139.347L255.833 122.656C255.445 113.939 248.06 107.187 239.345 107.579C230.628 107.968 223.877 115.349 224.267 124.067L225.014 140.758Z" fill="#C97440"/>
<path d="M245.864 123.475C243.871 122.405 241.251 121.907 239.167 122.983C238.387 123.384 239.075 124.559 239.854 124.157C241.478 123.319 243.64 123.824 245.177 124.65C245.95 125.064 246.637 123.89 245.864 123.475Z" fill="#121212"/>
<path d="M226.815 125.682C227.757 124.79 229.107 124.465 230.362 124.722C231.219 124.898 231.583 123.587 230.724 123.411C228.98 123.053 227.161 123.481 225.852 124.72C225.215 125.325 226.179 126.285 226.815 125.682Z" fill="#121212"/>
<path d="M236.229 137.852C236.108 137.852 235.987 137.809 235.889 137.723L232.812 135.013C232.687 134.902 232.623 134.739 232.64 134.573C232.658 134.407 232.755 134.26 232.9 134.178L236 132.433C236.249 132.294 236.562 132.382 236.701 132.629C236.84 132.877 236.753 133.19 236.506 133.329L234.035 134.719L236.57 136.951C236.782 137.138 236.803 137.463 236.615 137.677C236.514 137.793 236.372 137.852 236.229 137.852Z" fill="#121212"/>
<path d="M237.361 142.22C236.532 142.22 235.716 142.001 235.081 141.567C234.847 141.407 234.786 141.087 234.947 140.853C235.106 140.619 235.426 140.559 235.661 140.718C236.534 141.315 238.003 141.344 239.005 140.786C239.608 140.449 240.314 139.756 240.25 138.366C240.236 138.082 240.456 137.841 240.74 137.829C241.019 137.813 241.264 138.035 241.277 138.319C241.346 139.814 240.716 141.009 239.505 141.685C238.862 142.043 238.106 142.22 237.361 142.22Z" fill="#121212"/>
<path d="M239.68 132.163C240.055 133.155 241.164 133.656 242.156 133.28C243.145 132.906 243.649 131.799 243.272 130.807C242.897 129.813 241.79 129.312 240.798 129.687C239.805 130.061 239.306 131.17 239.68 132.163Z" fill="#011627"/>
<path d="M228.196 132.848C228.571 133.838 229.679 134.343 230.671 133.967C231.661 133.593 232.165 132.482 231.79 131.49C231.414 130.499 230.307 129.999 229.315 130.375C228.323 130.748 227.821 131.856 228.196 132.848Z" fill="#011627"/>
<path d="M228.7 132.395C228.62 132.395 228.539 132.373 228.465 132.328L226.592 131.18C226.379 131.05 226.313 130.771 226.443 130.559C226.573 130.346 226.852 130.281 227.064 130.41L228.937 131.558C229.149 131.688 229.217 131.967 229.086 132.179C229.001 132.318 228.853 132.395 228.7 132.395Z" fill="#011627"/>
<path d="M242.303 131.722C242.16 131.722 242.02 131.654 241.932 131.527C241.79 131.322 241.841 131.041 242.046 130.899L244.004 129.541C244.209 129.399 244.49 129.451 244.632 129.656C244.774 129.861 244.723 130.142 244.518 130.285L242.56 131.642C242.482 131.696 242.392 131.722 242.303 131.722Z" fill="#011627"/>
<path d="M271.601 140.859C268.981 135.214 272.215 131.708 270.82 126.33C269.598 121.625 263.998 121.771 261.11 115.107C256.685 104.888 233.914 95.6888 225.424 116.425C234.863 110.025 244.537 113.351 248.208 118.083C255.613 127.624 248.015 131.666 250.873 137.339C252.956 141.473 254.321 144.258 251.63 150.515C248.938 156.77 252.706 162.72 252.706 162.72C261.518 161.744 271.48 160.878 280.531 159.345C280.531 144.076 274.219 146.505 271.601 140.859Z" fill="#121212"/>
<path d="M231.542 219.023C223.858 219.697 220.892 221.99 214.015 225.631C207.139 229.271 205.656 230.08 207.273 230.755C203.229 231.024 205.588 233.18 208.419 232.236C206.532 233.045 209.161 233.922 212.936 232.507C213.879 233.99 218.734 233.318 221.835 231.564C224.935 229.81 232.351 228.326 239.092 230.619C239.902 226.44 237.34 219.159 237.34 219.159L231.542 219.023Z" fill="#C97440"/>
<path d="M236.424 219.124C240.57 218.215 252.166 217.269 259.042 217.675C259.447 223.067 256.481 233.989 256.481 233.989L238.143 229.943C238.143 229.943 239.055 224.18 236.424 219.124Z" fill="#664EFE"/>
<path d="M236.077 219.225C244.264 218.042 252.544 218.065 260.795 217.833C264.77 217.72 268.583 217.259 272.521 216.808C276.265 216.38 280.699 217.193 284.298 218.282C284.723 218.41 284.902 217.748 284.481 217.62C281.158 216.615 277.267 215.954 273.788 216.029C272.063 216.066 270.335 216.419 268.635 216.673C266.268 217.026 263.857 217.049 261.47 217.126C252.928 217.402 244.372 217.338 235.895 218.564C235.458 218.627 235.644 219.287 236.077 219.225Z" fill="#011627"/>
<path d="M272.599 198.22C273.379 203.915 273.785 209.64 273.801 215.388C273.803 215.83 274.488 215.83 274.487 215.388C274.471 209.577 274.049 203.794 273.261 198.038C273.201 197.601 272.54 197.788 272.599 198.22Z" fill="#011627"/>
<path d="M237.605 230.288C240.084 230.258 242.381 231.358 244.733 231.995C247.528 232.753 250.264 233.703 253.057 234.469C258.701 236.016 264.571 236.999 270.415 237.337C279.713 237.875 290.962 237.419 297.982 230.458C298.296 230.147 297.811 229.662 297.497 229.973C290.16 237.248 278.099 237.257 268.47 236.522C262.711 236.081 256.936 234.907 251.397 233.286C248.909 232.558 246.426 231.798 243.941 231.056C241.85 230.431 239.824 229.575 237.606 229.602C237.164 229.608 237.163 230.293 237.605 230.288Z" fill="#011627"/>
<path d="M223.929 191.159C223.316 192.999 223.499 194.977 223.526 196.888C223.563 199.518 223.756 202.143 223.893 204.768C224.028 207.36 224.106 209.955 224.315 212.543C224.507 214.932 225.411 217.197 225.535 219.563C225.558 220.003 226.244 220.005 226.22 219.563C226.107 217.399 225.277 215.352 225.059 213.188C224.82 210.82 224.745 208.436 224.64 206.059C224.534 203.662 224.37 201.269 224.27 198.873C224.171 196.474 223.823 193.647 224.591 191.341C224.73 190.92 224.067 190.742 223.929 191.159Z" fill="#011627"/>
<path d="M234.313 167.703C233.237 171.498 232.48 176.343 236.736 178.477C238.27 179.246 240.019 178.865 241.499 178.194C242.54 177.723 243.447 176.926 244.307 176.189C245.176 175.444 245.558 176.574 246.326 177.124C252.58 181.596 260.812 175.403 262.883 169.233C263.024 168.813 262.361 168.634 262.222 169.051C260.012 175.635 250.568 181.682 245.132 174.967C245.01 174.817 244.774 174.853 244.647 174.967C242.392 176.994 239.461 179.394 236.385 177.496C233.033 175.425 234.106 170.944 234.974 167.885C235.095 167.459 234.434 167.279 234.313 167.703Z" fill="#011627"/>
<path d="M212.628 233.114C214.788 232.73 216.52 231.379 218.339 230.239C220.845 228.666 223.661 227.763 226.379 226.642C226.782 226.476 226.606 225.812 226.197 225.98C223.953 226.907 221.654 227.688 219.485 228.79C217.128 229.986 215.117 231.979 212.445 232.453C212.01 232.53 212.196 233.191 212.628 233.114Z" fill="#011627"/>
<path d="M207.715 233.075C213.175 230.768 218.205 227.528 223.811 225.558C224.225 225.412 224.046 224.749 223.628 224.896C217.966 226.887 212.884 230.153 207.369 232.483C206.963 232.654 207.312 233.245 207.715 233.075Z" fill="#011627"/>
<path d="M206.497 231.456C208.653 230.147 211.114 229.538 213.331 228.361C215.526 227.195 217.709 226 219.98 224.985C220.383 224.804 220.034 224.214 219.634 224.393C217.363 225.408 215.178 226.6 212.985 227.769C210.768 228.951 208.31 229.554 206.151 230.864C205.773 231.093 206.118 231.686 206.497 231.456Z" fill="#011627"/>
<path d="M242.068 180.793C242.299 182.01 244.021 181.968 244.578 181.027C244.887 180.505 244.551 179.889 244.074 179.618C243.489 179.285 242.606 179.342 242.206 179.921C241.954 180.286 242.548 180.628 242.797 180.267C243.099 179.83 244.36 180.286 243.917 180.777C243.58 181.149 242.837 181.178 242.73 180.611C242.647 180.177 241.986 180.361 242.068 180.793Z" fill="#011627"/>
<path d="M241.149 185.867C240.974 187.08 242.38 187.421 243.196 186.746C243.612 186.402 243.83 185.738 243.479 185.27C243.114 184.782 242.406 184.861 241.894 185.023C241.474 185.155 241.653 185.817 242.076 185.684C242.332 185.604 242.666 185.508 242.915 185.655C243.127 185.78 242.843 186.162 242.729 186.246C242.479 186.429 241.737 186.564 241.811 186.049C241.873 185.617 241.212 185.43 241.149 185.867Z" fill="#011627"/>
<path d="M240.734 192.428C240.795 193.804 242.824 193.255 243.027 192.216C243.275 190.947 241.064 190.253 240.847 191.63C240.779 192.062 241.44 192.247 241.509 191.812C241.592 191.283 242.349 191.645 242.358 192.057C242.365 192.381 241.437 192.821 241.42 192.429C241.401 191.988 240.715 191.987 240.734 192.428Z" fill="#011627"/>
<path d="M227.387 229.945C227.285 230.956 227.428 232.125 227.804 233.071C227.965 233.477 228.629 233.3 228.466 232.889C228.107 231.987 227.975 230.909 228.073 229.945C228.118 229.506 227.432 229.51 227.387 229.945Z" fill="#011627"/>
<path d="M235.944 219.318C237.223 220.218 237.325 222.001 237.686 223.389C238.166 225.226 238.522 227.505 237.708 229.299C237.527 229.698 238.118 230.047 238.3 229.645C239.218 227.621 238.835 225.302 238.347 223.206C237.969 221.582 237.745 219.749 236.289 218.726C235.928 218.471 235.585 219.066 235.944 219.318Z" fill="#011627"/>
<path d="M219.407 141.749C218.33 149.746 230.144 149.772 235.244 149.529C235.685 149.509 235.687 148.823 235.244 148.844C230.743 149.058 219.079 149.274 220.068 141.931C220.127 141.499 219.465 141.313 219.407 141.749Z" fill="#011627"/>
<path d="M239.226 149.089C239.226 150.224 238.094 151.145 236.697 151.145C235.301 151.145 234.17 150.224 234.17 149.089C234.17 147.954 235.301 147.031 236.697 147.031C238.094 147.032 239.226 147.954 239.226 149.089Z" fill="#664EFE"/>
<path d="M237.541 105.572C229.14 105.783 224.471 110.334 222.119 115.167C222.92 115.256 223.786 115.491 224.507 115.832C226.248 112.816 229.549 109.5 235.72 109.024C252.102 108.299 259.011 121.14 259.314 127.869C259.314 127.869 261.033 129.63 262.349 127.456C262.043 118.136 254.123 105.158 237.541 105.572Z" fill="#664EFE"/>
<path d="M267.669 137.792C267.669 141.441 264.71 144.4 261.063 144.4C257.412 144.4 254.455 141.441 254.455 137.792V133.208C254.455 129.56 257.412 126.602 261.063 126.602C264.71 126.602 267.669 129.56 267.669 133.208V137.792Z" fill="#664EFE"/>
<path d="M266.112 137.084C265.872 141.543 259.887 142.564 258.244 138.377C257.754 137.128 258.033 135.358 258.033 134.042C258.033 129.479 264.308 128.691 265.901 132.749C266.391 133.998 266.112 135.768 266.112 137.084C266.112 137.526 266.798 137.526 266.798 137.084C266.798 134.332 267.067 131.677 264.458 129.964C261.297 127.888 257.529 130.674 257.348 134.042C257.202 136.749 257.18 139.516 259.688 141.163C262.85 143.24 266.616 140.452 266.798 137.084C266.822 136.641 266.136 136.644 266.112 137.084Z" fill="#011627"/>
<path d="M188.797 233.047C192.573 233.047 239.087 233.047 241.515 233.047C243.942 233.047 244.481 237.901 240.437 237.901C236.392 237.901 119.498 237.901 119.498 237.901C115.857 230.621 99.543 186.127 97.9254 181.948C96.3078 177.768 97.791 172.914 104.397 172.914C111.003 172.914 145.923 172.914 150.777 172.914C155.63 172.914 161.024 173.721 164.394 181.138C167.765 188.554 188.797 233.047 188.797 233.047Z" fill="#5F7E91"/>
<path d="M241.684 237.707C241.843 237.652 241.986 237.584 242.12 237.513C242.134 237.506 242.146 237.502 242.157 237.495C244.228 236.335 243.517 233.047 241.518 233.047C241.123 233.047 239.558 233.047 237.202 233.047C225.087 233.047 191.962 233.047 188.8 233.047C188.8 233.047 188.784 233.01 188.759 232.957C188.735 232.907 188.702 232.839 188.657 232.743C188.47 232.347 188.104 231.572 187.587 230.478C183.064 220.905 167.278 187.476 164.397 181.138C161.027 173.721 155.633 172.914 150.781 172.914C150.015 172.914 148.498 172.914 146.465 172.914C151.319 172.914 156.712 173.721 160.083 181.138C163.453 188.554 184.486 233.047 184.486 233.047L186.306 237.769C186.306 237.769 188.579 237.823 192.207 237.901C211.091 237.901 228.312 237.901 236.124 237.901C238.515 237.901 240.039 237.901 240.439 237.901C240.682 237.901 240.905 237.881 241.115 237.848C241.249 237.827 241.369 237.79 241.489 237.756C241.553 237.738 241.624 237.727 241.684 237.707Z" fill="#49687A"/>
<path d="M144.98 206.087C146.311 209.378 144.734 212.045 141.457 212.045C138.181 212.045 134.445 209.378 133.116 206.087C131.785 202.794 133.362 200.125 136.638 200.125C139.914 200.125 143.649 202.794 144.98 206.087Z" stroke="#011627" stroke-width="0.679187" stroke-miterlimit="10"/>
<path d="M303.365 241.664H113.182V271.812C134.06 276.257 162.199 279.469 189.91 279.819C227.844 280.298 267.179 279.868 303.365 278.108V241.664Z" fill="#F5CDB3"/>
<path d="M311.254 240.915C311.254 242.713 309.795 244.173 307.996 244.173H108.543C106.745 244.173 105.286 242.713 105.286 240.915C105.286 239.115 106.745 237.656 108.543 237.656H307.996C309.795 237.656 311.254 239.115 311.254 240.915Z" fill="#C97440"/>
<path d="M90.2632 125.418C94.7841 129.702 98.476 129.702 98.4677 125.417C98.4581 121.135 98.4437 114.126 98.4355 109.843C98.4259 105.559 94.7272 102.055 90.2145 102.055C85.7019 102.055 78.3175 102.055 73.8055 102.055C69.2936 102.055 69.3011 105.559 73.8213 109.843C78.3429 114.127 85.7424 121.135 90.2632 125.418Z" fill="#FFD029"/>
<path d="M198.09 83.9675C198.09 98.5032 186.307 110.287 171.771 110.287H75.1534C60.6178 110.287 48.8346 98.5032 48.8346 83.9675V49.2947C48.8346 34.7605 60.6178 22.9766 75.1534 22.9766H171.771C186.307 22.9766 198.09 34.7605 198.09 49.2947V83.9675Z" fill="#FFD029"/>
<path d="M116.358 49.2188V38.3851H117.67V43.2095H123.446V38.3851H124.758V49.2188H123.446V44.3732H117.67V49.2188H116.358ZM127.385 49.2188V38.3851H133.923V39.5489H128.697V43.2095H133.584V44.3732H128.697V48.055H134.008V49.2188H127.385ZM136.287 49.2188V38.3851H137.599V48.055H142.635V49.2188H136.287ZM144.667 49.2188V38.3851H148.327C149.177 38.3851 149.872 38.5385 150.411 38.8453C150.955 39.1486 151.357 39.5594 151.618 40.0779C151.878 40.5963 152.009 41.1746 152.009 41.8129C152.009 42.4512 151.878 43.0314 151.618 43.5533C151.36 44.0752 150.962 44.4914 150.422 44.8017C149.882 45.1085 149.191 45.2619 148.348 45.2619H145.725V44.0982H148.306C148.888 44.0982 149.355 43.9976 149.708 43.7966C150.061 43.5956 150.316 43.3241 150.475 42.982C150.637 42.6364 150.718 42.2467 150.718 41.8129C150.718 41.3792 150.637 40.9912 150.475 40.6492C150.316 40.3071 150.059 40.0391 149.703 39.8451C149.346 39.6476 148.874 39.5489 148.285 39.5489H145.979V49.2188H144.667ZM155.603 38.3851L155.498 46.1718H154.27L154.165 38.3851H155.603ZM154.884 49.3034C154.623 49.3034 154.399 49.2099 154.212 49.023C154.025 48.8361 153.932 48.6122 153.932 48.3512C153.932 48.0902 154.025 47.8663 154.212 47.6794C154.399 47.4925 154.623 47.399 154.884 47.399C155.145 47.399 155.369 47.4925 155.556 47.6794C155.743 47.8663 155.836 48.0902 155.836 48.3512C155.836 48.524 155.792 48.6827 155.704 48.8273C155.619 48.9719 155.505 49.0883 155.36 49.1764C155.219 49.2611 155.06 49.3034 154.884 49.3034Z" fill="#C97440"/>
<path d="M183.981 57.2422H116.596V61.6246H183.981V57.2422Z" fill="#FFF2DB"/>
<path d="M174.786 67.8906H116.596V72.2716H174.786V67.8906Z" fill="#FFF2DB"/>
<path d="M155.193 78.5391H116.596V82.92H155.193V78.5391Z" fill="#FFF2DB"/>
<path d="M179.022 89.1797H116.596V93.5627H179.022V89.1797Z" fill="#FFF2DB"/>
<path d="M103.218 91.9394C101.211 86.9536 94.2631 83.39 90.7139 83.438H78.7263C74.7849 83.8089 68.2288 86.9536 66.2211 91.9394C70.9154 96.5864 77.4667 99.4746 84.7201 99.4746C91.9728 99.4746 98.5234 96.5864 103.218 91.9394Z" fill="#121212"/>
<path d="M79.8248 73.2031C79.8248 73.2031 78.6769 82.635 77.8843 87.9671C77.3055 91.8626 91.285 92.957 91.7095 88.7577C92.0805 83.7774 92.507 75.3364 92.507 75.3364" fill="#C97440"/>
<path d="M79.2556 77.5368L79.824 73.2031L92.5062 75.3364C92.5062 75.3364 92.3739 77.9297 92.197 81.182C91.3076 81.4638 90.3778 81.6606 89.4061 81.7333C85.3954 82.033 81.7022 80.3557 79.2556 77.5368Z" fill="#AB5D2D"/>
<path d="M100.65 65.7399C101.155 72.4811 96.0988 78.3521 89.359 78.8575C82.6191 79.3601 76.7461 74.3051 76.2427 67.5632L75.2773 54.6568C74.7726 47.9183 79.8297 42.0439 86.5688 41.5426C93.3093 41.0373 99.1817 46.093 99.6857 52.8321L100.65 65.7399Z" fill="#C97440"/>
<path d="M83.9908 56.0114C85.7071 55.6479 87.0847 54.8827 88.1139 53.4461C88.6262 52.7316 87.4454 52.0528 86.9393 52.759C86.1213 53.9008 84.9734 54.4143 83.6287 54.6996C82.7709 54.8813 83.135 56.1924 83.9908 56.0114Z" fill="#121212"/>
<path d="M97.8401 53.333C96.8795 53.1526 96.2891 52.6966 95.818 51.8436C95.3942 51.0756 94.2189 51.762 94.6434 52.5307C95.2694 53.6642 96.1951 54.4041 97.4781 54.6454C98.3366 54.8059 98.7021 53.4948 97.8401 53.333Z" fill="#121212"/>
<path d="M91.7099 64.6571C91.5878 64.6571 91.4658 64.614 91.3677 64.5262C91.1559 64.3369 91.138 64.0119 91.3273 63.8L92.962 61.9712L91.0852 61.193C90.8226 61.0839 90.6985 60.7829 90.8068 60.521C90.9152 60.2583 91.2162 60.1335 91.4788 60.2426L94.0249 61.2986C94.1791 61.3623 94.2923 61.4967 94.3293 61.6592C94.3663 61.8217 94.3225 61.9918 94.2114 62.1166L92.0939 64.4857C91.9917 64.5995 91.8512 64.6571 91.7099 64.6571Z" fill="#121212"/>
<path d="M88.6233 69.8616C88.4622 69.8616 88.3031 69.7862 88.203 69.6443C88.0391 69.4125 88.094 69.0916 88.3257 68.9277C90.3513 67.4959 92.1684 66.9199 93.7332 67.2162C94.0123 67.269 94.1954 67.5384 94.1426 67.8175C94.0891 68.0959 93.821 68.2776 93.5412 68.2269C92.2651 67.9842 90.7086 68.5025 88.9202 69.7677C88.8297 69.8314 88.7262 69.8616 88.6233 69.8616Z" fill="#121212"/>
<path d="M88.5768 60.4776C88.38 61.2744 87.5736 61.762 86.7755 61.5659C85.9801 61.3691 85.4905 60.5627 85.6893 59.7645C85.8854 58.9663 86.6904 58.4788 87.4886 58.677C88.2854 58.8724 88.7736 59.6802 88.5768 60.4776Z" fill="#011627"/>
<path d="M97.4809 59.9518C97.2841 60.7465 96.4791 61.2382 95.6803 61.04C94.8835 60.8452 94.3953 60.0354 94.5921 59.2386C94.7882 58.4418 95.5952 57.955 96.3927 58.1538C97.1902 58.3493 97.6784 59.155 97.4809 59.9518Z" fill="#011627"/>
<path d="M78.5934 64.3225C79.1728 66.7067 77.7102 69.1108 75.324 69.6888C72.9384 70.2689 70.5357 68.8063 69.9562 66.42L69.625 65.0568C69.0456 62.6713 70.5089 60.2692 72.8945 59.6891C75.2787 59.1097 77.6828 60.5737 78.2622 62.9586L78.5934 64.3225Z" fill="#C97440"/>
<path d="M71.8859 60.1368C70.8415 57.1616 65.7495 45.0581 73.3217 44.6919C73.7914 39.94 80.3976 37.4337 88.648 35.8155C96.8991 34.1979 102.043 38.0612 101.416 41.9251C100.789 45.7898 95.7231 47.1989 91.7028 46.0503C90.5543 50.2277 85.0185 48.8192 83.8179 47.9827C82.8908 52.0297 78.2945 53.0089 78.8177 55.8285C79.3402 58.6489 79.5747 61.5199 79.6789 62.0952C79.7832 62.6705 77.3818 63.793 76.8593 62.6431C76.3368 61.4952 74.2749 59.4326 71.8859 60.1368Z" fill="#121212"/>
<path d="M94.6925 126.223C99.6995 127.217 96.8305 110.229 96.7969 107.668C96.6831 107.782 96.5686 107.897 96.4541 108.011C107.23 108.107 118.009 108.135 128.785 108.041C136.488 107.973 144.186 107.776 151.89 107.777C156.628 107.777 161.34 107.602 166.072 107.419C171.146 107.223 176.203 107.24 181.147 105.927C190.603 103.414 194.046 93.4151 195.023 84.6401C195.071 84.2006 194.385 84.206 194.337 84.6401C193.611 91.153 191.637 98.2898 186.398 102.628C182.452 105.896 176.636 106.311 171.739 106.548C166.862 106.786 161.964 106.992 157.082 107.062C141.638 107.284 126.182 107.434 110.736 107.399C105.976 107.388 101.214 107.367 96.4541 107.325C96.2689 107.324 96.1092 107.482 96.1112 107.668C96.1393 109.828 98.3727 126.256 94.8742 125.562C94.4429 125.477 94.2584 126.138 94.6925 126.223Z" fill="#011627"/>
<path d="M194.706 55.2926C194.711 63.8098 195.077 72.375 194.497 80.8798C194.466 81.3214 195.153 81.3187 195.182 80.8798C195.763 72.3743 195.398 63.8098 195.391 55.2926C195.391 54.8504 194.705 54.8504 194.706 55.2926Z" fill="#011627"/>
<path d="M460.937 166.561C460.937 181.631 448.721 193.847 433.651 193.847H333.482C318.413 193.847 306.196 181.631 306.196 166.561V130.615C306.196 115.545 318.413 103.328 333.482 103.328H433.651C448.721 103.328 460.937 115.545 460.937 130.615V166.561Z" fill="#FFD029"/>
<path d="M337.089 209.534C332.401 213.974 328.573 213.974 328.583 209.533C328.593 205.094 328.608 197.827 328.617 193.387C328.627 188.945 332.462 185.312 337.14 185.312C341.818 185.312 349.473 185.312 354.151 185.312C358.829 185.312 358.822 188.945 354.134 193.387C349.446 197.827 341.776 205.094 337.089 209.534Z" fill="#FFD029"/>
<path d="M326.956 122.897V121.69H335.38V122.897H331.848V132.922H330.488V122.897H326.956ZM337.479 132.922V121.69H338.839V126.692H344.828V121.69H346.188V132.922H344.828V127.898H338.839V132.922H337.479ZM349.372 132.922H347.946L352.07 121.69H353.474L357.598 132.922H356.172L352.816 123.467H352.728L349.372 132.922ZM349.898 128.534H355.646V129.741H349.898V128.534ZM368.254 121.69V132.922H366.938L360.817 124.103H360.708V132.922H359.348V121.69H360.664L366.806 130.531H366.916V121.69H368.254ZM370.976 132.922V121.69H372.336V127.262H372.467L377.513 121.69H379.29L374.573 126.758L379.29 132.922H377.644L373.74 127.701L372.336 129.28V132.922H370.976ZM387.193 124.498C387.127 123.942 386.86 123.511 386.392 123.204C385.924 122.897 385.35 122.743 384.67 122.743C384.173 122.743 383.737 122.824 383.365 122.984C382.995 123.145 382.706 123.366 382.498 123.648C382.293 123.93 382.191 124.249 382.191 124.608C382.191 124.908 382.262 125.165 382.405 125.381C382.551 125.593 382.737 125.77 382.964 125.913C383.191 126.052 383.428 126.167 383.677 126.258C383.926 126.346 384.154 126.418 384.363 126.472L385.503 126.779C385.796 126.856 386.121 126.962 386.48 127.098C386.842 127.233 387.187 127.417 387.516 127.651C387.849 127.882 388.123 128.178 388.339 128.54C388.554 128.902 388.662 129.346 388.662 129.873C388.662 130.48 388.503 131.028 388.185 131.518C387.871 132.008 387.41 132.397 386.803 132.686C386.2 132.975 385.467 133.119 384.604 133.119C383.8 133.119 383.103 132.99 382.514 132.73C381.929 132.47 381.469 132.108 381.132 131.644C380.8 131.18 380.611 130.64 380.568 130.026H381.972C382.008 130.45 382.151 130.801 382.399 131.079C382.652 131.353 382.97 131.558 383.354 131.693C383.741 131.825 384.158 131.891 384.604 131.891C385.123 131.891 385.589 131.807 386.002 131.639C386.416 131.467 386.743 131.229 386.984 130.926C387.225 130.618 387.346 130.26 387.346 129.851C387.346 129.478 387.242 129.174 387.033 128.94C386.825 128.706 386.551 128.516 386.211 128.37C385.871 128.224 385.503 128.096 385.109 127.986L383.726 127.591C382.849 127.339 382.154 126.979 381.642 126.511C381.131 126.043 380.875 125.43 380.875 124.674C380.875 124.045 381.045 123.496 381.385 123.028C381.728 122.557 382.189 122.191 382.767 121.931C383.348 121.668 383.997 121.537 384.714 121.537C385.438 121.537 386.081 121.666 386.644 121.926C387.207 122.182 387.653 122.533 387.982 122.979C388.315 123.425 388.49 123.931 388.509 124.498H387.193ZM392.434 121.69L392.324 129.763H391.052L390.942 121.69H392.434ZM391.688 133.01C391.418 133.01 391.186 132.913 390.992 132.719C390.798 132.525 390.701 132.293 390.701 132.022C390.701 131.752 390.798 131.52 390.992 131.326C391.186 131.132 391.418 131.035 391.688 131.035C391.959 131.035 392.191 131.132 392.385 131.326C392.579 131.52 392.675 131.752 392.675 132.022C392.675 132.202 392.63 132.366 392.538 132.516C392.451 132.666 392.332 132.787 392.182 132.878C392.036 132.966 391.871 133.01 391.688 133.01Z" fill="#C97440"/>
<path d="M394.218 140.758H324.357V145.3H394.218V140.758Z" fill="#FFF2DB"/>
<path d="M384.686 151.797H324.357V156.342H384.686V151.797Z" fill="#FFF2DB"/>
<path d="M364.372 162.836H324.357V167.379H364.372V162.836Z" fill="#FFF2DB"/>
<path d="M410.254 176.511C412.336 171.342 419.538 167.647 423.218 167.696H435.646C439.732 168.08 446.53 171.342 448.61 176.511C443.743 181.328 436.953 184.322 429.432 184.322C421.913 184.322 415.121 181.329 410.254 176.511Z" fill="#121212"/>
<path d="M434.501 157.086C434.501 157.086 435.691 166.863 436.514 172.392C437.114 176.43 422.62 177.565 422.181 173.212C421.795 168.049 421.354 159.298 421.354 159.298" fill="#C97440"/>
<path d="M435.09 161.579L434.502 157.086L421.354 159.299C421.354 159.299 421.49 161.988 421.675 165.36C422.598 165.652 423.56 165.855 424.568 165.93C428.725 166.241 432.554 164.502 435.09 161.579Z" fill="#AB5D2D"/>
<path d="M412.911 149.358C412.389 156.346 417.631 162.433 424.617 162.957C431.604 163.478 437.694 158.238 438.215 151.249L439.217 137.867C439.74 130.879 434.496 124.791 427.511 124.27C420.522 123.747 414.433 128.988 413.913 135.975L412.911 149.358Z" fill="#C97440"/>
<path d="M430.284 138.028C429.595 136.702 428.067 135.784 426.556 135.959C425.694 136.059 425.685 137.421 426.556 137.319C427.627 137.194 428.617 137.766 429.11 138.714C429.514 139.493 430.688 138.805 430.284 138.028Z" fill="#121212"/>
<path d="M416.495 137.648C417.09 137.025 418.182 136.596 419.033 136.802C419.886 137.009 420.248 135.696 419.395 135.49C418.076 135.172 416.467 135.708 415.533 136.686C414.929 137.321 415.889 138.285 416.495 137.648Z" fill="#121212"/>
<path d="M422.185 148.213C422.044 148.213 421.903 148.155 421.801 148.041L419.605 145.584C419.495 145.46 419.45 145.29 419.487 145.127C419.524 144.965 419.638 144.83 419.792 144.767L422.431 143.672C422.693 143.564 422.994 143.687 423.103 143.95C423.212 144.212 423.088 144.513 422.825 144.622L420.855 145.44L422.569 147.356C422.757 147.568 422.739 147.893 422.527 148.083C422.43 148.17 422.307 148.213 422.185 148.213Z" fill="#121212"/>
<path d="M421.979 155.262C420.569 155.262 419.616 153.77 419.062 150.698C419.033 150.536 419.084 150.368 419.199 150.25C419.315 150.131 419.482 150.077 419.643 150.098C420.511 150.226 421.611 150.358 423.201 150.358C424.019 150.358 424.909 150.324 425.922 150.255C426.108 150.24 426.293 150.336 426.394 150.499C426.494 150.661 426.496 150.866 426.399 151.03C424.719 153.877 423.273 155.262 421.979 155.262ZM420.214 151.213C420.644 153.143 421.275 154.233 421.978 154.233C422.431 154.233 423.397 153.835 425.001 151.338C423.147 151.43 421.735 151.396 420.214 151.213Z" fill="#121212"/>
<path d="M425.427 143.906C425.632 144.733 426.468 145.238 427.295 145.034C428.121 144.829 428.627 143.993 428.422 143.166C428.219 142.339 427.383 141.834 426.556 142.037C425.728 142.242 425.225 143.079 425.427 143.906Z" fill="#011627"/>
<path d="M416.206 143.357C416.409 144.181 417.246 144.688 418.073 144.485C418.898 144.281 419.406 143.443 419.202 142.617C418.997 141.791 418.161 141.287 417.335 141.49C416.509 141.695 416.001 142.529 416.206 143.357Z" fill="#011627"/>
<path d="M435.789 147.888C435.189 150.36 436.705 152.851 439.177 153.452C441.651 154.053 444.143 152.537 444.742 150.063L445.086 148.65C445.688 146.178 444.171 143.686 441.697 143.084C439.225 142.484 436.732 144.002 436.132 146.474L435.789 147.888Z" fill="#C97440"/>
<path d="M442.734 143.546C443.816 140.46 449.094 127.911 441.245 127.533C440.756 122.605 433.909 120.007 425.355 118.329C416.802 116.652 411.468 120.658 412.117 124.664C412.767 128.671 418.019 130.13 422.187 128.94C423.378 133.271 429.116 131.809 430.362 130.944C431.323 135.139 436.087 136.154 435.547 139.078C435.005 142.001 434.761 144.978 434.652 145.575C434.545 146.172 437.034 147.333 437.578 146.142C438.117 144.953 440.256 142.815 442.734 143.546Z" fill="#121212"/>
<path d="M433.328 191.826C443.4 191.427 454.195 185.018 456.339 174.609C456.429 174.178 455.767 173.994 455.678 174.427C453.595 184.535 443.111 190.753 433.328 191.14C432.888 191.157 432.886 191.843 433.328 191.826Z" fill="#011627"/>
<path d="M424.994 191.881C426.832 191.947 428.67 191.983 430.508 192.024C430.951 192.034 430.95 191.349 430.508 191.338C428.67 191.297 426.832 191.261 424.994 191.196C424.551 191.179 424.554 191.866 424.994 191.881Z" fill="#011627"/>
<path d="M336.933 207.023C340.386 203.917 343.853 200.826 347.098 197.499C348.599 195.96 349.939 193.952 351.753 192.734C352.826 192.013 354.158 191.897 355.413 191.825C357.884 191.682 360.37 191.747 362.843 191.713C367.329 191.651 371.808 191.412 376.296 191.42C381.102 191.43 385.906 191.647 390.707 191.865C400.058 192.292 409.432 192.734 418.766 191.772C419.201 191.728 419.206 191.041 418.766 191.086C409.216 192.07 399.625 191.586 390.06 191.15C385.031 190.921 380 190.726 374.965 190.735C370.473 190.743 365.985 190.995 361.493 191.043C358.429 191.077 354.165 190.399 351.406 192.142C349.698 193.222 348.415 195.121 347.056 196.554C343.714 200.079 340.057 203.293 336.448 206.539C336.119 206.834 336.605 207.317 336.933 207.023Z" fill="#011627"/>
<path d="M404.423 68.2972C404.423 76.1849 398.028 82.5799 390.141 82.5799H257.156C249.268 82.5799 242.873 76.1849 242.873 68.2972V55.002C242.873 47.1143 249.268 40.7188 257.156 40.7188H390.141C398.028 40.7188 404.423 47.1143 404.423 55.002V68.2972Z" fill="#F7F5FF"/>
<path d="M265.1 50.7137C265.6 49.6996 266.42 49.6996 266.92 50.7137L268.519 53.9537C269.019 54.9679 270.345 55.932 271.465 56.0945L275.041 56.6143C276.161 56.7768 276.414 57.5564 275.603 58.3457L273.018 60.8663C272.207 61.6556 271.701 63.2142 271.892 64.3298L272.503 67.89C272.694 69.005 272.031 69.4871 271.03 68.9611L267.832 67.2791C266.83 66.7525 265.191 66.7525 264.19 67.2798L260.992 68.9604C259.991 69.4871 259.328 69.005 259.52 67.89L260.131 64.3298C260.322 63.2142 259.816 61.6563 259.006 60.8663L256.419 58.3457C255.609 57.5564 255.862 56.7768 256.982 56.6143L260.556 56.0931C261.676 55.9306 263.002 54.9665 263.502 53.9523L265.1 50.7137Z" fill="#664EFE"/>
<path d="M293.67 50.7137C294.171 49.6996 294.99 49.6996 295.491 50.7137L297.088 53.9537C297.588 54.9679 298.914 55.932 300.034 56.0945L303.609 56.6143C304.729 56.7768 304.982 57.5564 304.171 58.3457L301.585 60.8663C300.775 61.6556 300.269 63.2142 300.46 64.3298L301.071 67.89C301.262 69.005 300.599 69.4871 299.599 68.9604L296.401 67.2798C295.4 66.7525 293.761 66.7525 292.76 67.2791L289.56 68.9611C288.559 69.4877 287.896 69.005 288.088 67.89L288.699 64.3298C288.89 63.2142 288.384 61.6563 287.574 60.8663L284.988 58.3457C284.177 57.5564 284.43 56.7768 285.55 56.6143L289.125 56.0931C290.245 55.9306 291.571 54.9665 292.072 53.9523L293.67 50.7137Z" fill="#664EFE"/>
<path d="M322.233 50.7137C322.735 49.6996 323.554 49.6996 324.054 50.7137L325.652 53.9537C326.152 54.9679 327.478 55.932 328.598 56.0945L332.173 56.6143C333.293 56.7768 333.546 57.5564 332.736 58.3457L330.15 60.8663C329.339 61.6556 328.833 63.2142 329.024 64.3298L329.635 67.89C329.826 69.005 329.164 69.4871 328.163 68.9604L324.964 67.2798C323.963 66.7525 322.324 66.7525 321.323 67.2798L318.126 68.9604C317.125 69.4871 316.462 69.005 316.653 67.89L317.263 64.3298C317.455 63.2142 316.948 61.6563 316.137 60.8663L313.552 58.3457C312.742 57.5564 312.995 56.7768 314.115 56.6136L317.687 56.0938C318.807 55.9306 320.132 54.9665 320.634 53.9523L322.233 50.7137Z" fill="#664EFE"/>
<path d="M350.807 50.7137C351.308 49.6996 352.128 49.6996 352.628 50.7137L354.225 53.9537C354.725 54.9679 356.051 55.932 357.171 56.0945L360.746 56.6143C361.866 56.7768 362.119 57.5564 361.309 58.3457L358.723 60.8663C357.912 61.6556 357.406 63.2142 357.598 64.3298L358.209 67.89C358.4 69.005 357.737 69.4871 356.736 68.9604L353.538 67.2798C352.537 66.7525 350.898 66.7525 349.896 67.2798L346.698 68.9604C345.697 69.4871 345.034 69.005 345.225 67.89L345.836 64.3298C346.027 63.2149 345.521 61.6563 344.71 60.8663L342.125 58.3457C341.314 57.5564 341.567 56.7768 342.687 56.6143L346.261 56.0931C347.381 55.9306 348.707 54.9665 349.208 53.9523L350.807 50.7137Z" fill="#664EFE"/>
<path d="M379.385 50.7137C379.886 49.6996 380.705 49.6996 381.206 50.7137L382.805 53.9537C383.305 54.9679 384.632 55.932 385.751 56.0945L389.327 56.6143C390.446 56.7768 390.699 57.5564 389.889 58.3457L387.302 60.8663C386.491 61.6556 385.985 63.2142 386.177 64.3298L386.788 67.89C386.979 69.005 386.316 69.4871 385.315 68.9611L382.116 67.2791C381.115 66.7525 379.476 66.7525 378.474 67.2798L375.278 68.9604C374.277 69.4871 373.614 69.005 373.805 67.89L374.417 64.3298C374.607 63.2142 374.101 61.6563 373.291 60.8663L370.705 58.3457C369.894 57.5564 370.147 56.7768 371.267 56.6136L374.84 56.0938C375.96 55.9306 377.286 54.9665 377.787 53.9523L379.385 50.7137Z" fill="#664EFE"/>
<path d="M314.344 80.4829C316.6 80.4568 318.852 80.2587 321.108 80.2326C321.551 80.2278 321.551 79.5421 321.108 79.5469C318.852 79.573 316.6 79.7711 314.344 79.7972C313.902 79.802 313.901 80.4877 314.344 80.4829Z" fill="#011627"/>
<path d="M324.251 80.2292C332.314 80.0474 340.376 80.4074 348.438 80.2758C352.46 80.21 356.451 79.8342 360.465 79.6367C364.683 79.4296 368.912 79.5009 373.132 79.61C377.164 79.7135 381.193 79.8705 385.226 79.9302C388.007 79.9713 390.834 80.105 393.571 79.514C398.049 78.5457 399.955 74.9197 400.251 70.6114C400.282 70.1698 399.596 70.1726 399.566 70.6114C399.4 73.0025 398.846 75.3531 397.066 77.0646C395.447 78.6225 393.008 79.0422 390.861 79.2109C387.664 79.4625 384.388 79.2438 381.187 79.1615C377.387 79.0635 373.588 78.9181 369.786 78.8516C362.197 78.7192 354.675 79.5126 347.094 79.61C339.479 79.708 331.866 79.372 324.25 79.5435C323.809 79.5537 323.808 80.2394 324.251 80.2292Z" fill="#011627"/>
<path d="M84.9928 170.945C84.9928 178.832 78.5979 185.227 70.7102 185.227H14.2826C6.39491 185.227 0 178.832 0 170.945V154.329C0 146.441 6.39423 140.047 14.2826 140.047H70.7109C78.5986 140.047 84.9935 146.441 84.9935 154.329L84.9928 170.945Z" fill="#F7F5FF"/>
<path d="M17.6861 168.086V166.692L22.921 160.961C23.5354 160.29 24.0413 159.707 24.4389 159.211C24.8364 158.71 25.1307 158.241 25.3217 157.802C25.5179 157.358 25.616 156.893 25.616 156.408C25.616 155.85 25.4817 155.368 25.2133 154.96C24.95 154.552 24.5886 154.237 24.1291 154.015C23.6696 153.793 23.1534 153.682 22.5803 153.682C21.9711 153.682 21.4393 153.809 20.985 154.061C20.5359 154.309 20.1874 154.658 19.9396 155.107C19.6969 155.556 19.5756 156.083 19.5756 156.687H17.748C17.748 155.757 17.9623 154.942 18.3908 154.24C18.8193 153.537 19.4027 152.99 20.1409 152.598C20.8844 152.205 21.7181 152.009 22.6423 152.009C23.5715 152.009 24.395 152.205 25.1126 152.598C25.8302 152.99 26.393 153.519 26.8008 154.185C27.2087 154.851 27.4126 155.592 27.4126 156.408C27.4126 156.991 27.3067 157.562 27.0951 158.119C26.8886 158.672 26.5272 159.289 26.0109 159.97C25.4998 160.646 24.7899 161.473 23.8813 162.448L20.319 166.258V166.382H27.6914V168.086H17.6861ZM30.1772 164.833V163.254L37.1468 152.226H38.293V154.673H37.5186L32.2526 163.006V163.13H41.6384V164.833H30.1772ZM37.6425 168.086V164.353V163.618V152.226H39.47V168.086H37.6425ZM50.1781 151.483L45.0671 170.471H43.3943L48.5054 151.483H50.1781ZM52.8092 168.086L59.9027 154.054V153.93H51.725V152.226H61.8852V154.023L54.8226 168.086H52.8092Z" fill="#8471FE"/>
<path d="M48.9726 182.772C58.7501 180.378 69.6501 185.188 78.5595 179.167C78.9236 178.922 78.5808 178.326 78.2132 178.575C69.4122 184.524 58.4799 179.738 48.7902 182.11C48.3609 182.216 48.5433 182.877 48.9726 182.772Z" fill="#011627"/>
<path d="M81.8129 157.446C81.9644 158.92 81.8904 160.394 82.0906 161.866C82.3231 163.57 82.5747 165.217 82.5576 166.941C82.526 170.204 82.2504 173.675 80.3564 176.441C80.1055 176.807 80.7007 177.149 80.9482 176.787C82.6131 174.356 83.0328 171.431 83.1953 168.549C83.2796 167.06 83.3132 165.54 83.1089 164.059C82.8031 161.846 82.7256 159.657 82.4986 157.445C82.4547 157.01 81.7676 157.005 81.8129 157.446Z" fill="#011627"/>
</svg>
