<svg width="280" height="280" viewBox="0 0 280 280" fill="none" xmlns="http://www.w3.org/2000/svg">
<path d="M31.2822 39.5977H123.615V160.278H31.2822V39.5977ZM121.179 42.0337H33.7182V157.842H121.179V42.0337Z" fill="#EBEBEB"/>
<path d="M79.6157 42.6719H77.1797V159.062H79.6157V42.6719Z" fill="#EBEBEB"/>
<path d="M29.0701 47.9141L125.821 47.9141V44.5261L29.0701 44.5261V47.9141Z" fill="#EBEBEB"/>
<path d="M29.0701 51.7305L125.821 51.7305V48.3425L29.0701 48.3425V51.7305Z" fill="#EBEBEB"/>
<path d="M29.0701 55.5352L125.821 55.5352V52.1472L29.0701 52.1472V55.5352Z" fill="#EBEBEB"/>
<path d="M29.0701 59.3555L125.821 59.3555V55.9675L29.0701 55.9675V59.3555Z" fill="#EBEBEB"/>
<path d="M29.0701 63.168L125.821 63.168V59.78L29.0701 59.78V63.168Z" fill="#EBEBEB"/>
<path d="M29.0701 66.9844L125.821 66.9844V63.5964L29.0701 63.5964V66.9844Z" fill="#EBEBEB"/>
<path d="M29.0701 70.7969L125.821 70.7969V67.4089L29.0701 67.4089V70.7969Z" fill="#EBEBEB"/>
<path d="M29.0701 74.6172L125.821 74.6172V71.2292L29.0701 71.2292V74.6172Z" fill="#EBEBEB"/>
<path d="M29.0701 78.4297L125.821 78.4297V75.0417L29.0701 75.0417V78.4297Z" fill="#EBEBEB"/>
<path d="M36.9161 43.832H36.3057V121.98H36.9161V43.832Z" fill="#011627"/>
<path d="M35.5273 124.821H37.6889L37.1457 121.719H36.0705L35.5273 124.821Z" fill="#011627"/>
<path d="M34.7208 43.832H34.1104V156.885H34.7208V43.832Z" fill="#011627"/>
<path d="M33.3379 159.169H35.4939L34.9563 156.066H33.8755L33.3379 159.169Z" fill="#011627"/>
<path d="M25.296 46.2188L129.602 46.2188V39.1236L25.296 39.1236V46.2188Z" fill="#DBDBDB"/>
<path d="M232.288 187.941H247.117V181.675H232.288V187.941Z" fill="#EBEBEB"/>
<path d="M240.56 195.844H255.389V189.577H240.56V195.844Z" fill="#EBEBEB"/>
<path d="M224.012 195.844H238.841V189.577H224.012V195.844Z" fill="#EBEBEB"/>
<path d="M32.8841 195.844H47.7129V189.577H32.8841V195.844Z" fill="#EBEBEB"/>
<path d="M32.8841 26.7461L47.7129 26.7461V20.4797H32.8841V26.7461Z" fill="#EBEBEB"/>
<path d="M24.6126 34.6484H39.4414V28.382H24.6126V34.6484Z" fill="#EBEBEB"/>
<path d="M240.56 26.7539L255.389 26.7539V20.4875H240.56V26.7539Z" fill="#EBEBEB"/>
<path d="M160.278 68.7852H145.449V75.0516H160.278V68.7852Z" fill="#EBEBEB"/>
<path d="M152.007 60.8828H137.178V67.1492H152.007V60.8828Z" fill="#EBEBEB"/>
<path d="M20.5576 229.55L50.4168 229.415L80.276 229.365L140 229.27L199.718 229.365L229.583 229.415L259.442 229.55L229.583 229.684L199.718 229.734L140 229.83L80.276 229.734L50.4168 229.684L20.5576 229.55Z" fill="#011627"/>
<path d="M90.8152 264.091C129.617 264.091 161.073 259.204 161.073 253.176C161.073 247.148 129.617 242.262 90.8152 242.262C52.013 242.262 20.5576 247.148 20.5576 253.176C20.5576 259.204 52.013 264.091 90.8152 264.091Z" fill="#EBEBEB"/>
<path d="M229.975 260.197C245.191 260.197 257.527 257.053 257.527 253.175C257.527 249.296 245.191 246.152 229.975 246.152C214.758 246.152 202.423 249.296 202.423 253.175C202.423 257.053 214.758 260.197 229.975 260.197Z" fill="#EEEBFE"/>
<path d="M227.494 240.588H86.6318L99.7134 53.4805H240.581L227.494 240.588Z" fill="#FDC500"/>
<g opacity="0.1">
<path d="M227.494 240.588H86.6318L99.7134 53.4805H240.581L227.494 240.588Z" fill="#2E2E2E"/>
</g>
<path d="M224.045 240.588H83.1768L96.264 53.4805H237.126L224.045 240.588Z" fill="#FDC500"/>
<path d="M217.633 229.509L93.1787 231.094L102.816 62.534L227.276 60.9492L217.633 229.509Z" fill="#EBEBEB"/>
<path d="M214.581 231.632L90.4453 228.95L105.868 60.418L230.003 63.0948L214.581 231.632Z" fill="#DBDBDB"/>
<path d="M216.507 230.309H92.1533L103.941 61.7383H228.295L216.507 230.309Z" fill="white"/>
<path d="M129.875 114.907H117.46L118.328 102.492H130.743L129.875 114.907Z" fill="#EBEBEB"/>
<path d="M177.542 104.312H137.317L137.446 102.492H177.671L177.542 104.312Z" fill="#011627"/>
<path d="M207.838 107.84H137.071L137.2 106.02H207.962L207.838 107.84Z" fill="#EBEBEB"/>
<path d="M207.587 111.371H136.825L136.954 109.551H207.716L207.587 111.371Z" fill="#EBEBEB"/>
<path d="M207.34 114.906H136.578L136.707 113.086H207.469L207.34 114.906Z" fill="#EBEBEB"/>
<path d="M118.854 108.081C119.286 108.461 119.694 108.865 120.098 109.262C120.501 109.66 120.887 110.08 121.285 110.489C122.063 111.317 122.808 112.169 123.525 113.025L122.091 113.121C123.39 110.769 124.84 108.503 126.431 106.339C127.232 105.253 128.066 104.194 128.951 103.164C129.842 102.121 130.796 101.134 131.807 100.207C131.343 101.484 130.793 102.728 130.161 103.931C129.55 105.129 128.884 106.294 128.178 107.437C126.771 109.729 125.214 111.927 123.519 114.017L122.668 115.058L122.108 114.106C121.548 113.137 120.943 112.163 120.428 111.161C120.159 110.651 119.868 110.158 119.627 109.643C119.386 109.128 119.084 108.585 118.854 108.081Z" fill="#FDC500"/>
<path d="M128.251 138.118H115.836L116.704 125.703H129.119L128.251 138.118Z" fill="#EBEBEB"/>
<path d="M175.918 127.523H135.693L135.822 125.703H176.047L175.918 127.523Z" fill="#011627"/>
<path d="M206.214 131.058H135.447L135.576 129.238H206.338L206.214 131.058Z" fill="#EBEBEB"/>
<path d="M205.968 134.59H135.201L135.33 132.77H206.092L205.968 134.59Z" fill="#EBEBEB"/>
<path d="M205.721 138.119H134.954L135.083 136.305H205.844L205.721 138.119Z" fill="#EBEBEB"/>
<path d="M117.23 131.268C117.662 131.649 118.07 132.047 118.474 132.45C118.877 132.853 119.263 133.267 119.661 133.676C120.439 134.505 121.184 135.356 121.901 136.213L120.473 136.303C121.769 133.949 123.219 131.683 124.813 129.521C125.608 128.44 126.442 127.382 127.327 126.351C128.217 125.307 129.171 124.32 130.183 123.395C129.717 124.67 129.169 125.914 128.542 127.119C127.926 128.317 127.26 129.482 126.554 130.624C125.151 132.914 123.6 135.11 121.912 137.199L121.061 138.24L120.501 137.288C119.907 136.319 119.33 135.339 118.787 134.337C118.518 133.833 118.227 133.335 117.986 132.825C117.746 132.315 117.46 131.8 117.23 131.268Z" fill="#FDC500"/>
<path d="M126.627 161.337H114.212L115.08 148.922H127.495L126.627 161.337Z" fill="#EBEBEB"/>
<path d="M174.294 150.742H134.069L134.198 148.922H174.423L174.294 150.742Z" fill="#011627"/>
<path d="M204.59 154.273H133.823L133.952 152.453H204.719L204.59 154.273Z" fill="#EBEBEB"/>
<path d="M204.344 157.803H133.577L133.706 155.988H204.473L204.344 157.803Z" fill="#EBEBEB"/>
<path d="M204.097 161.336H133.33L133.459 159.516H204.22L204.097 161.336Z" fill="#EBEBEB"/>
<path d="M115.606 154.487C116.038 154.868 116.446 155.265 116.85 155.668C117.253 156.072 117.639 156.486 118.037 156.895C118.815 157.718 119.56 158.575 120.277 159.432L118.849 159.521C120.15 157.169 121.604 154.903 123.2 152.74C123.995 151.659 124.83 150.595 125.714 149.57C126.604 148.526 127.558 147.539 128.57 146.613C128.105 147.887 127.557 149.129 126.93 150.332C126.314 151.53 125.647 152.7 124.942 153.843C123.536 156.135 121.979 158.331 120.282 160.417L119.431 161.459L118.871 160.512C118.278 159.544 117.701 158.564 117.158 157.561C116.894 157.057 116.598 156.559 116.357 156.044C116.116 155.528 115.836 155.019 115.606 154.487Z" fill="#FDC500"/>
<path d="M125.003 184.552H112.588L113.456 172.137H125.871L125.003 184.552Z" fill="#EBEBEB"/>
<path d="M172.67 173.957H132.445L132.574 172.137H172.799L172.67 173.957Z" fill="#011627"/>
<path d="M202.966 177.484H132.199L132.328 175.664H203.095L202.966 177.484Z" fill="#EBEBEB"/>
<path d="M202.72 181.019H131.953L132.082 179.199H202.849L202.72 181.019Z" fill="#EBEBEB"/>
<path d="M202.473 184.554H131.706L131.835 182.734H202.602L202.473 184.554Z" fill="#EBEBEB"/>
<path d="M123.379 207.765H110.964L111.832 195.355H124.247L123.379 207.765Z" fill="#EBEBEB"/>
<path d="M171.046 197.17H130.827L130.95 195.355H171.175L171.046 197.17Z" fill="#011627"/>
<path d="M201.343 200.703H130.581L130.704 198.883H201.471L201.343 200.703Z" fill="#EBEBEB"/>
<path d="M201.096 204.238H130.329L130.458 202.418H201.225L201.096 204.238Z" fill="#EBEBEB"/>
<path d="M200.849 207.765H130.082L130.211 205.945H200.978L200.849 207.765Z" fill="#EBEBEB"/>
<path d="M196.174 68.6903H135.095L136.394 50.0703H197.473L196.174 68.6903Z" fill="#C7C7C7"/>
<path d="M186.323 39.8828H148.4L146.02 50.0636H187.846L186.323 39.8828ZM167.132 47.2076C166.843 47.2119 166.558 47.1556 166.293 47.0424C166.028 46.9291 165.79 46.7615 165.594 46.5502C165.398 46.339 165.249 46.089 165.156 45.8163C165.063 45.5437 165.028 45.2545 165.054 44.9676C165.103 44.3638 165.375 43.7997 165.817 43.3855C166.259 42.9714 166.839 42.7368 167.445 42.7276C167.733 42.7233 168.019 42.7796 168.284 42.8928C168.549 43.0061 168.787 43.1738 168.983 43.385C169.179 43.5962 169.328 43.8462 169.421 44.1189C169.514 44.3915 169.549 44.6807 169.523 44.9676C169.477 45.5724 169.205 46.1379 168.763 46.5526C168.32 46.9673 167.738 47.201 167.132 47.2076Z" fill="#C7C7C7"/>
<path d="M187.846 50.0644H146.02L146.557 47.7852H187.504L187.846 50.0644Z" fill="#A6A6A6"/>
<path d="M69.9657 105.458C70.7945 111.618 75.4033 126.324 78.8417 127.259C82.0449 128.127 96.1233 123.933 97.9377 121.138C98.9065 119.643 102.743 105.906 101.023 106.73C98.8505 107.766 82.9129 115.824 82.2577 115.662C80.8745 115.314 78.1753 109.86 75.8401 106.814C70.7553 100.161 69.5737 102.569 69.9657 105.458Z" fill="#774442"/>
<path d="M79.5816 111.596L72.3632 118.209C72.3632 118.209 69.8096 108.762 69.5184 104.389C69.2272 100.015 72.8 100.513 79.5816 111.596Z" fill="#011627"/>
<path d="M50.0134 174.284C50.0134 174.284 42.3806 186.363 34.5686 180.489C26.7566 174.614 36.2486 163.93 36.2486 163.93L50.0134 174.284Z" fill="#DD6A57"/>
<path d="M35.8905 164.372L49.6709 174.727L110.026 94.3992L96.2459 84.045L35.8905 164.372Z" fill="#FDC500"/>
<path opacity="0.1" d="M35.8905 164.372L49.6709 174.727L110.026 94.3992L96.2459 84.045L35.8905 164.372Z" fill="#3A3A3A"/>
<path d="M34.4075 163.937L50.498 176.027L52.8965 172.835L36.806 160.745L34.4075 163.937Z" fill="#37474F"/>
<path d="M37.0598 160.41L53.1504 172.5L55.5489 169.308L39.4583 157.218L37.0598 160.41Z" fill="#37474F"/>
<path d="M96.2412 84.0504L108.88 78.0304L113.036 76.0312L112.302 80.6064L110.062 94.4161L107.161 95.368C107.161 95.368 107.307 92.3944 107.301 92.344L104.4 93.2961C104.4 93.2961 104.552 90.3224 104.54 90.2664L101.673 91.2464C101.673 91.2464 101.791 88.2505 101.785 88.1945L98.9124 89.1745C98.9124 89.1745 99.03 86.1784 99.0244 86.1224L96.1572 87.0968C96.1572 87.0968 96.2524 84.1008 96.2412 84.0504Z" fill="#EBEBEB"/>
<path d="M108.881 78.0304L113.036 76.0312L112.302 80.6064L108.881 78.0304Z" fill="#37474F"/>
<g opacity="0.1">
<path d="M55.625 159.975C59.3602 154.806 63.1458 149.682 66.9426 144.558L78.4002 129.231L89.9362 113.982L95.721 106.4L101.573 98.8398L95.9394 106.568L90.261 114.24L78.8258 129.567L67.2842 144.816C63.4202 149.882 59.5338 154.935 55.625 159.975Z" fill="#3A3A3A"/>
<path d="M51.7998 157.558C55.535 152.395 59.3206 147.265 63.1118 142.141L74.5526 126.814L86.0886 111.565L91.8958 103.972L97.7478 96.4062L92.1142 104.162L86.4358 111.851L74.995 127.178L63.459 142.427C59.5894 147.467 55.7198 152.535 51.7998 157.558Z" fill="#3A3A3A"/>
<path d="M47.9697 155.121C51.7105 149.952 55.4961 144.828 59.2873 139.704L70.7225 124.377L82.2641 109.128L88.0713 101.529L93.9233 93.9688L88.2897 101.697L82.6057 109.386L71.1705 124.713L59.6289 140.001C55.7649 145.041 51.8953 150.114 47.9697 155.121Z" fill="#3A3A3A"/>
</g>
<path d="M102.396 106.232C102.597 108.372 103.952 111.429 103.594 112.986C103.518 113.373 103.319 113.724 103.028 113.99C102.737 114.255 102.368 114.419 101.976 114.459C101.976 114.459 103.191 115.741 102.631 117.096C102.34 117.796 100.951 117.948 100.951 117.948C101.209 118.253 101.378 118.623 101.441 119.018C101.503 119.413 101.455 119.818 101.304 120.188C100.85 121.123 99.5452 121.134 99.5452 121.134C99.5452 121.134 99.9596 122.579 99.1868 123.374C97.6244 125.004 89.2076 121.952 89.034 118.379C88.9556 116.699 90.9716 117.572 90.9716 117.572C90.9716 117.572 88.3676 115.64 88.9556 113.888C89.5436 112.135 92.0916 113.412 92.0916 113.412C92.0916 113.412 89.5884 111.513 90.378 109.76C91.1676 108.008 93.5364 109.648 93.5364 109.648C93.5364 109.648 92.1252 107.7 93.038 106.496C94.5444 104.508 97.0644 108.607 99.0692 108.842L101.197 106.165L102.396 106.232Z" fill="#774442"/>
<path d="M103.119 109.498C103.119 107.454 106.137 106.042 106.4 104.088C106.764 101.445 103.13 102.845 101.22 106.182L100.195 109.033L103.119 109.498Z" fill="#774442"/>
<path d="M99.3606 121.172C99.3606 121.172 99.3606 121.222 99.3606 121.216C96.2278 120.886 93.2701 119.609 90.8822 117.554C90.8094 117.487 90.8822 117.336 90.9774 117.397C93.5746 119.054 96.3984 120.325 99.3606 121.172Z" fill="#011627"/>
<path d="M101.007 117.981C101.041 117.981 101.007 118.042 101.007 118.042C97.5557 117.64 94.3617 116.018 92.0022 113.467C91.9238 113.377 91.9462 113.215 92.047 113.31C93.7102 114.968 98.2126 117.225 101.007 117.981Z" fill="#011627"/>
<path d="M93.447 109.411C95.7766 111.88 98.6662 113.359 101.847 114.451C101.886 114.451 101.847 114.523 101.847 114.523C100.167 114.411 98.1902 113.51 96.7286 112.675C95.3515 111.927 94.1934 110.833 93.3686 109.5C93.3294 109.439 93.4022 109.36 93.447 109.411Z" fill="#011627"/>
<path d="M101.757 252.326C100.682 252.684 69.9658 252.595 68.7954 251.85C68.353 251.575 68.1066 247.095 67.9554 241.68C67.9554 240.51 67.8994 239.306 67.8826 238.079C67.8826 236.623 67.8434 235.156 67.8322 233.728C67.793 227.311 67.8826 221.66 67.8826 221.66H87.8802V233.728V238.079L87.7794 241.68C87.7794 241.68 99.5394 246.978 100.715 247.93C101.891 248.882 102.827 252.001 101.757 252.326Z" fill="#774442"/>
<path d="M101.757 252.324C100.682 252.683 69.9656 252.593 68.7952 251.848C68.3528 251.574 68.1064 247.094 67.9552 241.679C67.9552 240.508 67.8992 239.304 67.8824 238.078C67.8824 236.622 67.8432 235.155 67.832 233.727H87.8688V238.078L87.768 241.679C87.768 241.679 99.528 246.976 100.704 247.928C101.88 248.88 102.826 251.999 101.757 252.324Z" fill="white"/>
<path d="M101.853 252.368C101.147 252.597 88.0654 252.648 78.5398 252.452C76.339 252.401 74.323 252.34 72.6934 252.273C70.4534 252.166 68.947 252.043 68.7062 251.892C68.1462 251.545 67.9054 244.97 67.7822 238.043H87.8806L87.7742 241.666C87.7742 241.666 99.5846 246.986 100.789 247.949C101.993 248.913 102.928 251.998 101.853 252.368Z" fill="#FDC500"/>
<path d="M101.41 251.13C96.2303 250.99 75.3367 250.906 70.2071 251.158C70.1679 251.158 70.1679 251.191 70.2071 251.191C75.3367 251.443 96.2303 251.359 101.41 251.219C101.517 251.214 101.517 251.135 101.41 251.13Z" fill="#011627"/>
<path d="M88.5077 240.517C86.4749 240.131 83.9829 240.433 82.4205 241.883C82.3589 241.939 82.4205 242.023 82.5045 242.001C84.4472 241.386 86.4505 240.983 88.4797 240.797C88.5168 240.801 88.5539 240.789 88.5828 240.766C88.6117 240.742 88.63 240.708 88.6337 240.671C88.6374 240.634 88.6262 240.597 88.6026 240.568C88.579 240.539 88.5448 240.521 88.5077 240.517Z" fill="#011627"/>
<path d="M89.9755 241.411C87.9427 241.025 85.4507 241.327 83.8883 242.778C83.8267 242.834 83.8883 242.918 83.9723 242.895C85.9222 242.275 87.9328 241.864 89.9699 241.669C90.004 241.67 90.0371 241.657 90.0618 241.633C90.0864 241.61 90.1007 241.577 90.1015 241.543C90.1022 241.509 90.0894 241.476 90.0657 241.451C90.0421 241.426 90.0096 241.412 89.9755 241.411Z" fill="#011627"/>
<path d="M91.4477 242.298C89.4093 241.912 86.9173 242.214 85.3549 243.665C85.2933 243.721 85.3549 243.805 85.4445 243.782C87.3924 243.161 89.4012 242.75 91.4365 242.556C91.4707 242.557 91.504 242.545 91.5292 242.522C91.5545 242.499 91.5695 242.467 91.5709 242.433C91.5724 242.398 91.5603 242.365 91.5372 242.34C91.5141 242.315 91.4819 242.3 91.4477 242.298Z" fill="#011627"/>
<path d="M92.9145 243.189C90.8761 242.802 88.3841 243.105 86.8217 244.555C86.7601 244.611 86.8217 244.695 86.9113 244.673C88.8592 244.052 90.868 243.64 92.9033 243.446C92.9375 243.448 92.9708 243.436 92.9961 243.413C93.0213 243.39 93.0363 243.357 93.0377 243.323C93.0392 243.289 93.0271 243.256 93.004 243.23C92.9809 243.205 92.9487 243.19 92.9145 243.189Z" fill="#011627"/>
<path d="M92.2879 235.815C91.4871 234.695 89.9975 235.204 89.1463 235.916C87.7039 237.164 86.6164 238.771 85.9935 240.575C85.9897 240.582 85.9879 240.591 85.9883 240.599C85.9887 240.608 85.9913 240.616 85.9958 240.624C86.0002 240.631 86.0065 240.637 86.0139 240.641C86.0214 240.645 86.0298 240.648 86.0383 240.648C86.0369 240.687 86.0448 240.727 86.0614 240.762C86.0781 240.798 86.1029 240.83 86.134 240.855C86.1651 240.879 86.2015 240.896 86.2404 240.904C86.2792 240.912 86.3194 240.91 86.3575 240.9C88.0375 240.284 89.9191 239.83 91.3639 238.716C92.2095 238.066 93.0383 236.879 92.2879 235.815ZM88.7207 239.444C87.8975 239.768 87.0407 240.048 86.2623 240.401C86.8485 239.477 87.4821 238.583 88.1607 237.724C88.4945 237.312 88.8556 236.923 89.2415 236.56C89.8519 236 92.2543 234.84 91.8903 237.075C91.6887 238.307 89.7007 239.057 88.7207 239.444Z" fill="#011627"/>
<path d="M80.8132 240.025C82.4932 240.748 84.4252 240.714 86.206 240.893C86.2457 240.894 86.2851 240.885 86.3209 240.868C86.3567 240.851 86.3879 240.825 86.4119 240.794C86.4359 240.762 86.4521 240.725 86.4592 240.686C86.4662 240.647 86.4639 240.607 86.4524 240.568C86.4604 240.566 86.4677 240.561 86.4737 240.555C86.4797 240.549 86.4843 240.541 86.487 240.533C86.4897 240.525 86.4905 240.517 86.4893 240.508C86.4882 240.5 86.4851 240.492 86.4804 240.484C85.4281 238.895 83.9756 237.61 82.2692 236.76C81.2612 236.284 79.6932 236.2 79.2004 237.449C78.7076 238.698 79.8388 239.605 80.8132 240.025ZM79.9004 238.569C78.9876 236.497 81.5804 237.029 82.3308 237.41C82.798 237.661 83.2455 237.948 83.6692 238.267C84.5419 238.928 85.3793 239.635 86.178 240.384C85.31 240.244 84.4308 240.176 83.5572 240.07C82.5156 239.941 80.4044 239.712 79.9004 238.558V238.569Z" fill="#011627"/>
<path d="M61.2139 136.441C61.2139 136.441 66.6179 189.893 66.7467 190.571C66.7467 190.661 66.8027 191.691 66.8531 193.371C67.1443 202.572 67.8667 231.261 67.8667 231.261H89.9139C89.9139 231.261 88.4747 197.28 87.6739 189.35C86.6211 179.237 79.9403 136.441 79.9403 136.441H61.2139Z" fill="#011627"/>
<path d="M69.3726 192.46C68.6968 180.887 67.6758 169.332 66.3094 157.796C65.531 151.3 64.6294 144.832 63.6774 138.358C63.6774 138.302 63.5766 138.302 63.5878 138.358C65.2678 149.883 66.4998 161.492 67.5414 173.078C68.583 184.665 69.311 196.274 69.7814 207.899C70.0558 214.485 70.2574 220.438 70.4702 227.029C70.4761 227.056 70.4913 227.081 70.5132 227.099C70.5352 227.116 70.5624 227.126 70.5906 227.126C70.6187 227.126 70.646 227.116 70.6679 227.099C70.6898 227.081 70.705 227.056 70.711 227.029C70.403 215.291 70.0614 204.181 69.3726 192.46Z" fill="#3A3A3A"/>
<path d="M88.4013 227.607C78.3213 227.288 69.6525 227.518 68.9021 227.574C68.2805 227.624 68.6277 227.686 68.9357 227.708C77.4701 228.218 88.0653 227.736 88.4013 227.708C88.4797 227.686 88.4797 227.607 88.4013 227.607Z" fill="#3A3A3A"/>
<path d="M61.2139 136.441C61.2139 136.441 66.6179 189.893 66.7467 190.571C66.7467 190.661 66.8027 191.691 66.8531 193.371L77.2467 136.441H61.2139Z" fill="#3A3A3A"/>
<path d="M68.2075 256.691C67.0875 256.965 36.489 254.591 35.3746 253.756C34.9546 253.448 35.0386 248.963 35.3018 243.559C35.3522 242.388 35.3634 241.173 35.4922 239.958C35.649 238.423 35.8226 236.895 36.013 235.416C36.8082 229.01 37.7322 223.656 37.7322 223.656L57.1195 225.118L55.9155 236.704L55.4395 241.442L55.0698 245.026C55.0698 245.026 66.3875 251.186 67.5075 252.222C68.6275 253.258 69.3051 256.411 68.2075 256.691Z" fill="#774442"/>
<path d="M68.2075 256.692C67.0875 256.967 36.489 254.592 35.3746 253.758C34.9546 253.45 35.0386 248.964 35.3018 243.56C35.3522 242.39 35.3634 241.175 35.4922 239.96C35.649 238.425 35.8226 236.896 36.013 235.418C41.9826 235.838 50.573 236.37 55.9098 236.695L55.4395 241.444L55.0698 245.028C55.0698 245.028 66.3875 251.188 67.5075 252.224C68.6275 253.26 69.3051 256.412 68.2075 256.692Z" fill="white"/>
<path d="M68.3196 256.736C67.1996 257.016 36.3996 254.625 35.3076 253.796C34.7924 253.41 35.022 246.841 35.4196 239.914L55.4396 241.409L55.07 245.016C55.07 245.016 66.4492 251.204 67.5748 252.251C68.7004 253.298 69.4004 256.479 68.3196 256.736Z" fill="#FDC500"/>
<path d="M67.9554 255.472C62.8034 254.945 41.9714 253.305 36.8362 253.176C36.797 253.176 36.7914 253.176 36.8362 253.209C41.9322 253.842 62.7754 255.315 67.9442 255.556C68.0562 255.561 68.0618 255.483 67.9554 255.472Z" fill="#011627"/>
<path d="M55.8762 243.925C53.877 243.393 51.3962 243.51 49.7162 244.838C49.649 244.888 49.7162 244.978 49.789 244.961C51.7746 244.48 53.8058 244.211 55.8482 244.16C55.8724 244.153 55.894 244.139 55.9102 244.12C55.9265 244.1 55.9368 244.077 55.9398 244.052C55.9428 244.027 55.9383 244.001 55.927 243.979C55.9157 243.956 55.898 243.937 55.8762 243.925Z" fill="#011627"/>
<path d="M57.2769 244.921C55.2721 244.389 52.7969 244.507 51.1169 245.834C51.0553 245.884 51.1169 245.974 51.1953 245.957C53.1853 245.482 55.2203 245.221 57.2657 245.179C57.2826 245.179 57.2995 245.177 57.3154 245.171C57.3313 245.165 57.3459 245.156 57.3584 245.145C57.3709 245.133 57.381 245.12 57.3882 245.104C57.3953 245.089 57.3994 245.072 57.4001 245.055C57.4008 245.038 57.3982 245.022 57.3924 245.006C57.3867 244.99 57.3778 244.975 57.3663 244.963C57.3549 244.95 57.3411 244.94 57.3258 244.933C57.3104 244.926 57.2938 244.922 57.2769 244.921Z" fill="#011627"/>
<path d="M58.6768 245.923C56.672 245.363 54.1632 245.503 52.5168 246.83C52.4496 246.881 52.5168 246.97 52.5952 246.959C54.585 246.482 56.62 246.219 58.6656 246.175C58.6949 246.171 58.7216 246.156 58.7413 246.134C58.761 246.112 58.7725 246.083 58.7738 246.054C58.7751 246.024 58.7662 245.995 58.7485 245.971C58.7309 245.947 58.7055 245.931 58.6768 245.923Z" fill="#011627"/>
<path d="M60.0705 246.919C58.0713 246.359 55.5905 246.499 53.9105 247.827C53.8433 247.877 53.9105 247.967 53.9833 247.955C55.9732 247.479 58.0081 247.216 60.0537 247.171C60.0832 247.167 60.1104 247.153 60.1308 247.132C60.1511 247.11 60.1633 247.082 60.1653 247.052C60.1673 247.023 60.1589 246.993 60.1417 246.969C60.1244 246.945 60.0992 246.927 60.0705 246.919Z" fill="#011627"/>
<path d="M59.9927 239.516C59.2815 238.357 57.7527 238.738 56.8511 239.382C55.3231 240.523 54.1204 242.044 53.3623 243.794C53.3623 243.834 53.3623 243.862 53.4071 243.873C53.4071 244.024 53.5247 244.198 53.7039 244.147C55.4287 243.66 57.3383 243.346 58.8615 242.338C59.7519 241.756 60.6703 240.619 59.9927 239.516ZM56.1679 242.876C55.3279 243.139 54.4879 243.358 53.6423 243.649C54.3255 242.792 54.9695 241.907 55.7367 241.118C56.1022 240.732 56.4933 240.371 56.9071 240.037C57.5511 239.538 60.0375 238.553 59.5055 240.754C59.2087 241.958 57.1759 242.557 56.1679 242.87V242.876Z" fill="#011627"/>
<path d="M48.2435 242.866C49.8619 243.706 51.7883 243.818 53.5579 244.132C53.7371 244.165 53.8491 243.975 53.8267 243.824C53.8345 243.821 53.8416 243.817 53.8476 243.812C53.8537 243.806 53.8584 243.8 53.8616 243.792C53.8648 243.785 53.8664 243.777 53.8661 243.769C53.8659 243.76 53.8639 243.752 53.8603 243.745C52.9293 242.081 51.5776 240.691 49.9403 239.713C48.9715 239.153 47.4203 238.946 46.8267 240.172C46.2331 241.399 47.2971 242.373 48.2435 242.866ZM47.4371 241.36C46.6811 239.226 49.2571 239.948 49.9515 240.385C50.3953 240.675 50.8199 240.993 51.2227 241.337C52.0404 242.052 52.8216 242.807 53.5635 243.6C52.7067 243.392 51.8387 243.264 50.9707 243.09C49.9403 242.905 47.8515 242.524 47.4371 241.36Z" fill="#011627"/>
<path d="M79.917 136.441C79.917 136.441 79.2674 141.885 76.1426 145.81C75.3922 146.751 73.1018 147.625 71.9146 148.487C71.9146 148.487 67.4794 189.244 66.1298 193.847C64.629 198.988 58.7994 234.077 58.7994 234.077L35.7666 232.465C35.7666 232.465 42.6826 198.047 44.3234 189.524C44.693 187.62 49.621 151.752 49.5146 150.923C48.1874 141.045 52.9922 136.469 52.9922 136.469L79.917 136.441Z" fill="#011627"/>
<path d="M62.1096 137.043C61.6608 138.596 60.712 139.958 59.4104 140.918C57.974 141.94 56.2718 142.524 54.5104 142.598C54.2136 142.598 54.1912 143.068 54.5104 143.074C58.1056 143.074 61.74 140.795 62.2664 137.065C62.2664 136.981 62.16 136.964 62.1096 137.043Z" fill="#3A3A3A"/>
<path d="M76.5681 145.648C75.2636 146.171 74.0189 146.832 72.8553 147.619C71.6233 148.381 70.4809 149.299 69.2881 150.1C69.2433 150.134 69.2881 150.207 69.3329 150.179C70.5817 149.462 71.8809 148.835 73.1185 148.095C74.3552 147.418 75.5284 146.631 76.6241 145.743C76.6633 145.71 76.6241 145.626 76.5681 145.648Z" fill="#3A3A3A"/>
<path d="M77.0783 138.151C76.8823 138.974 76.6471 139.792 76.4287 140.609C76.2103 141.427 76.0647 142.161 75.8239 142.917C75.6253 143.652 75.2166 144.314 74.6479 144.821C74.3343 145.089 73.9871 145.319 73.6511 145.565L73.0911 145.957C73.1191 145.845 73.1471 145.733 73.1695 145.621C73.2423 145.313 73.3095 145 73.3767 144.686C73.5223 143.992 73.6679 143.297 73.8079 142.597C74.0823 141.231 74.3679 139.848 74.6871 138.498C74.684 138.49 74.6782 138.482 74.6707 138.477C74.6632 138.472 74.6543 138.469 74.6451 138.469C74.636 138.469 74.6271 138.472 74.6196 138.477C74.6121 138.482 74.6063 138.49 74.6031 138.498C74.1999 139.837 73.7576 141.158 73.3992 142.508C73.22 143.169 72.5479 146.428 72.5143 146.68C72.4807 146.932 72.4471 147.161 72.4247 147.402C72.3829 147.646 72.3716 147.895 72.3911 148.141C72.3961 148.152 72.404 148.161 72.4139 148.168C72.4238 148.174 72.4353 148.177 72.4471 148.177C72.4589 148.177 72.4705 148.174 72.4804 148.168C72.4903 148.161 72.4982 148.152 72.5031 148.141C72.6149 147.918 72.6959 147.681 72.7439 147.436C72.8167 147.201 72.8783 146.965 72.9343 146.73L72.9847 146.467C73.3207 146.282 73.6343 146.036 73.9479 145.829C74.2615 145.621 74.6311 145.392 74.9503 145.145C75.5463 144.689 75.9896 144.062 76.2215 143.348C76.4572 142.578 76.624 141.789 76.7199 140.99C76.8655 140.061 76.9887 139.12 77.1623 138.19C77.1735 138.123 77.0895 138.095 77.0783 138.151Z" fill="#3A3A3A"/>
<path d="M57.6794 230.069C47.689 228.949 39.0034 228.478 38.253 228.473C37.6258 228.473 37.9674 228.562 38.253 228.607C46.7146 229.8 57.293 230.169 57.657 230.158C57.6629 230.16 57.669 230.16 57.675 230.159C57.681 230.158 57.6867 230.156 57.6919 230.153C57.6971 230.15 57.7017 230.146 57.7053 230.141C57.7089 230.136 57.7115 230.131 57.713 230.125C57.7144 230.119 57.7147 230.113 57.7138 230.107C57.713 230.101 57.7109 230.095 57.7078 230.09C57.7046 230.084 57.7005 230.08 57.6957 230.076C57.6908 230.073 57.6853 230.07 57.6794 230.069Z" fill="#3A3A3A"/>
<path d="M79.3629 125.286L81.2389 140.765C81.2389 140.765 56.1005 140.541 49.8789 139.953C49.8789 139.953 55.6469 111.242 62.5293 104.113C65.9677 100.551 69.8989 100.915 72.3517 103.525C72.9733 104.18 80.3149 114.378 81.0205 118.225C81.6309 121.624 79.3629 125.286 79.3629 125.286Z" fill="#FDC500"/>
<path d="M68.5215 112.649C68.7327 112.578 68.9593 112.567 69.1767 112.616C69.2923 112.658 69.3928 112.734 69.4655 112.834C69.5382 112.934 69.5799 113.052 69.5855 113.176C69.5827 113.259 69.6019 113.342 69.6412 113.416C69.6805 113.489 69.7386 113.551 69.8095 113.596C69.8841 113.651 69.9744 113.68 70.0671 113.68C70.1735 113.68 70.2743 113.713 70.3807 113.741C70.1672 113.806 69.939 113.806 69.7255 113.741C69.6132 113.696 69.5167 113.619 69.448 113.519C69.3792 113.42 69.3414 113.302 69.3391 113.181C69.336 113.098 69.3124 113.016 69.2704 112.944C69.2285 112.872 69.1693 112.811 69.0983 112.767C69.0179 112.721 68.9275 112.696 68.8351 112.694C68.7287 112.688 68.6279 112.677 68.5215 112.649Z" fill="white"/>
<path d="M74.2617 133.173C74.473 133.102 74.6995 133.09 74.9169 133.139C75.0319 133.182 75.1316 133.258 75.2034 133.358C75.2751 133.458 75.3157 133.576 75.3201 133.699C75.3189 133.782 75.3389 133.864 75.378 133.938C75.4172 134.011 75.4743 134.074 75.5441 134.119C75.6235 134.169 75.7139 134.197 75.8073 134.203C75.9081 134.203 76.0145 134.237 76.1153 134.265C75.9018 134.33 75.6736 134.33 75.4601 134.265C75.3452 134.215 75.2473 134.133 75.1786 134.029C75.1099 133.924 75.0734 133.802 75.0737 133.677C75.0734 133.594 75.0515 133.513 75.0103 133.441C74.9691 133.369 74.9099 133.31 74.8385 133.268C74.757 133.219 74.6645 133.192 74.5697 133.189C74.4668 133.189 74.364 133.184 74.2617 133.173Z" fill="white"/>
<path d="M64.9991 104.426C64.789 104.504 64.5599 104.513 64.3439 104.454C64.2294 104.404 64.1319 104.322 64.0633 104.218C63.9947 104.113 63.958 103.991 63.9575 103.866C63.9572 103.784 63.9354 103.702 63.8941 103.631C63.8529 103.559 63.7937 103.499 63.7223 103.458C63.6408 103.409 63.5483 103.382 63.4535 103.379H63.3359L63.4591 103.278C63.5736 103.26 63.6907 103.27 63.8007 103.306C63.9153 103.35 64.0146 103.426 64.0863 103.526C64.1579 103.625 64.1988 103.744 64.2039 103.866C64.2029 103.95 64.2228 104.033 64.2619 104.108C64.301 104.182 64.3581 104.245 64.4279 104.292C64.5073 104.342 64.5978 104.37 64.6911 104.376C64.7946 104.387 64.8974 104.404 64.9991 104.426Z" fill="white"/>
<path d="M60.3848 121.233C60.5966 121.165 60.8223 121.154 61.04 121.199C61.1552 121.243 61.2553 121.319 61.3279 121.418C61.4005 121.518 61.4425 121.636 61.4488 121.759C61.4466 121.844 61.4661 121.927 61.5053 122.001C61.5445 122.076 61.6022 122.139 61.6728 122.185C61.7497 122.235 61.8386 122.264 61.9304 122.269L62.244 122.325C62.0337 122.402 61.8048 122.412 61.5888 122.353C61.4725 122.305 61.3733 122.224 61.3044 122.119C61.2354 122.014 61.1998 121.891 61.2024 121.765C61.1999 121.682 61.1765 121.601 61.1344 121.53C61.0923 121.458 61.0329 121.399 60.9616 121.356C60.8817 121.309 60.7912 121.282 60.6984 121.278C60.592 121.272 60.48 121.261 60.3848 121.233Z" fill="white"/>
<path d="M73.6458 140.672H73.3602C73.3224 140.587 73.3033 140.496 73.3042 140.403C73.3027 140.32 73.2798 140.239 73.2376 140.167C73.1954 140.095 73.1354 140.036 73.0634 139.994C72.9843 139.945 72.8934 139.918 72.8002 139.916C72.6966 139.903 72.5938 139.884 72.4922 139.86C72.7015 139.789 72.9263 139.778 73.1418 139.826C73.2574 139.869 73.3579 139.945 73.4306 140.045C73.5033 140.144 73.545 140.263 73.5506 140.386C73.547 140.49 73.5808 140.591 73.6458 140.672Z" fill="white"/>
<path d="M66.6064 129.919C66.8177 129.848 67.0443 129.836 67.2616 129.885C67.3771 129.928 67.4772 130.004 67.549 130.103C67.6209 130.203 67.6612 130.322 67.6648 130.445C67.6648 130.529 67.6858 130.611 67.7259 130.684C67.766 130.758 67.824 130.82 67.8944 130.865C67.9702 130.918 68.0598 130.947 68.152 130.949C68.2528 130.949 68.3592 130.983 68.46 131.011C68.2483 131.075 68.0222 131.075 67.8104 131.011C67.6986 130.965 67.6025 130.888 67.5338 130.788C67.4652 130.689 67.4271 130.572 67.424 130.451C67.421 130.367 67.3974 130.286 67.3554 130.213C67.3134 130.141 67.2543 130.08 67.1832 130.036C67.1029 129.991 67.0124 129.966 66.92 129.964C66.8136 129.975 66.7128 129.964 66.6064 129.919Z" fill="white"/>
<path d="M53.0821 128.53C52.9113 128.58 52.7331 128.599 52.5557 128.586C52.5557 128.536 52.5837 128.486 52.6005 128.43C52.6557 128.453 52.7144 128.466 52.7741 128.469C52.8749 128.491 52.9813 128.502 53.0821 128.53Z" fill="white"/>
<path d="M55.4395 131.774C55.6507 131.703 55.8773 131.692 56.0947 131.741C56.2097 131.784 56.3093 131.86 56.3811 131.959C56.4529 132.059 56.4935 132.178 56.4979 132.301C56.4967 132.384 56.5166 132.466 56.5558 132.539C56.5949 132.613 56.6521 132.675 56.7219 132.721C56.8001 132.773 56.8912 132.802 56.9851 132.805C57.0859 132.805 57.1923 132.838 57.2931 132.866C57.0795 132.931 56.8514 132.931 56.6379 132.866C56.5229 132.817 56.425 132.735 56.3563 132.63C56.2876 132.526 56.2512 132.403 56.2515 132.278C56.2511 132.195 56.2293 132.114 56.188 132.043C56.1468 131.971 56.0876 131.911 56.0163 131.869C55.9353 131.82 55.8421 131.795 55.7475 131.797C55.6523 131.813 55.5459 131.802 55.4395 131.774Z" fill="white"/>
<path d="M71.7471 121.487C71.9578 121.414 72.1851 121.402 72.4023 121.453C72.5173 121.497 72.617 121.573 72.6887 121.672C72.7605 121.772 72.8011 121.891 72.8055 122.013C72.8044 122.097 72.8243 122.18 72.8634 122.255C72.9026 122.329 72.9596 122.392 73.0295 122.439C73.1088 122.489 73.1993 122.517 73.2927 122.523C73.3935 122.523 73.4999 122.557 73.6007 122.585C73.3872 122.65 73.159 122.65 72.9455 122.585C72.8305 122.535 72.7327 122.453 72.664 122.349C72.5953 122.244 72.5588 122.122 72.5591 121.997C72.5588 121.914 72.5369 121.833 72.4957 121.761C72.4544 121.689 72.3952 121.63 72.3239 121.588C72.2424 121.539 72.1499 121.512 72.0551 121.509C71.9521 121.507 71.8493 121.5 71.7471 121.487Z" fill="white"/>
<path d="M64.7975 109.423C64.6999 109.622 64.5487 109.791 64.3607 109.91C64.2458 109.96 64.1184 109.976 63.9948 109.954C63.8711 109.932 63.7568 109.874 63.6663 109.787C63.6072 109.727 63.5343 109.684 63.4542 109.659C63.3741 109.635 63.2893 109.63 63.2071 109.647C63.1174 109.666 63.0343 109.708 62.9663 109.77C62.8767 109.831 62.7983 109.893 62.7031 109.949C62.8263 109.781 62.9103 109.574 63.1511 109.467C63.2674 109.421 63.395 109.41 63.5176 109.436C63.6403 109.461 63.7524 109.523 63.8399 109.613C63.9007 109.669 63.9745 109.709 64.0546 109.73C64.1348 109.75 64.2188 109.751 64.2991 109.731C64.3888 109.708 64.4715 109.664 64.5399 109.602C64.6222 109.537 64.7082 109.477 64.7975 109.423Z" fill="white"/>
<path d="M80.8805 121.223C80.7573 121.391 80.6733 121.592 80.4437 121.704C80.3298 121.758 80.2022 121.776 80.0781 121.754C79.9539 121.733 79.8392 121.675 79.7493 121.587C79.6554 121.496 79.5299 121.445 79.3993 121.445C79.2688 121.445 79.1433 121.496 79.0493 121.587L78.7861 121.766C78.8824 121.565 79.0364 121.397 79.2285 121.284C79.3444 121.238 79.4715 121.226 79.5939 121.251C79.7164 121.276 79.8288 121.336 79.9173 121.424C79.977 121.482 80.0505 121.524 80.1309 121.546C80.2113 121.567 80.2958 121.568 80.3765 121.547C80.4667 121.523 80.5495 121.477 80.6173 121.413C80.7069 121.34 80.7853 121.273 80.8805 121.223Z" fill="white"/>
<path d="M69.9994 105.277C70.0702 105.489 70.0818 105.715 70.033 105.933C69.9905 106.048 69.9145 106.148 69.8147 106.22C69.7149 106.292 69.5959 106.332 69.473 106.336C69.3893 106.336 69.307 106.357 69.2336 106.397C69.1602 106.437 69.0981 106.495 69.053 106.565C69.0003 106.641 68.9711 106.731 68.969 106.823C68.969 106.924 68.9354 107.03 68.9074 107.131C68.8421 106.917 68.8421 106.689 68.9074 106.476C68.9539 106.365 69.0316 106.27 69.131 106.202C69.2304 106.135 69.3472 106.097 69.4674 106.095C69.551 106.092 69.6327 106.069 69.705 106.027C69.7774 105.985 69.8381 105.926 69.8818 105.854C69.9274 105.774 69.9524 105.683 69.9546 105.591C69.9658 105.473 69.9994 105.373 69.9994 105.277Z" fill="white"/>
<path d="M67.5359 123.508C67.6065 123.717 67.6181 123.942 67.5695 124.157C67.5267 124.273 67.4508 124.374 67.3512 124.446C67.2516 124.519 67.1327 124.561 67.0095 124.566C66.9262 124.565 66.8438 124.584 66.7703 124.623C66.6968 124.663 66.6345 124.72 66.5895 124.79C66.5353 124.865 66.5059 124.955 66.5055 125.048C66.5055 125.154 66.4719 125.255 66.4439 125.361C66.3694 125.151 66.3597 124.923 66.4159 124.706C66.4653 124.591 66.5474 124.493 66.6519 124.425C66.7564 124.356 66.8788 124.32 67.0039 124.32C67.0873 124.319 67.1691 124.297 67.2409 124.255C67.3127 124.212 67.372 124.152 67.4127 124.079C67.4619 124 67.489 123.909 67.4911 123.816C67.4967 123.715 67.5079 123.609 67.5359 123.508Z" fill="white"/>
<path d="M80.3878 137.074C80.4586 137.285 80.4702 137.512 80.4214 137.729C80.3783 137.844 80.3022 137.944 80.2025 138.016C80.1028 138.088 79.9841 138.128 79.8614 138.133C79.7781 138.131 79.6957 138.151 79.6222 138.19C79.5487 138.229 79.4864 138.286 79.4414 138.357C79.387 138.434 79.3577 138.526 79.3574 138.62C79.3574 138.721 79.3238 138.827 79.2958 138.928C79.2334 138.714 79.2334 138.487 79.2958 138.273C79.3438 138.162 79.4216 138.068 79.5206 137.999C79.6196 137.931 79.7357 137.892 79.8558 137.886C79.9391 137.885 80.0208 137.863 80.0933 137.822C80.1658 137.781 80.2266 137.722 80.2702 137.651C80.3167 137.569 80.3418 137.477 80.343 137.382C80.3486 137.281 80.3598 137.197 80.3878 137.074Z" fill="white"/>
<path d="M57.4837 124.156C57.5515 124.368 57.5631 124.594 57.5173 124.811C57.4742 124.926 57.398 125.026 57.2984 125.098C57.1987 125.17 57.08 125.21 56.9573 125.215C56.8729 125.215 56.7898 125.236 56.7155 125.276C56.6412 125.316 56.578 125.374 56.5317 125.444C56.4814 125.521 56.4525 125.61 56.4477 125.702C56.4477 125.803 56.4477 125.909 56.3917 126.015C56.3239 125.802 56.3239 125.573 56.3917 125.36C56.4379 125.249 56.5154 125.153 56.6147 125.085C56.7141 125.016 56.831 124.978 56.9517 124.974C57.0346 124.971 57.1155 124.948 57.187 124.906C57.2584 124.864 57.3181 124.804 57.3605 124.733C57.408 124.653 57.435 124.563 57.4389 124.47C57.4445 124.363 57.4557 124.263 57.4837 124.156Z" fill="white"/>
<path d="M62.4007 113.602C62.4734 113.812 62.4869 114.039 62.4399 114.257C62.3959 114.372 62.3196 114.471 62.2203 114.544C62.1209 114.616 62.0028 114.659 61.8799 114.666C61.7958 114.663 61.7125 114.683 61.638 114.722C61.5635 114.761 61.5002 114.819 61.4543 114.89C61.4041 114.967 61.3751 115.055 61.3703 115.147C61.3703 115.254 61.3367 115.354 61.3087 115.461C61.2434 115.247 61.2434 115.019 61.3087 114.806C61.3544 114.694 61.4317 114.598 61.5312 114.529C61.6306 114.46 61.7479 114.422 61.8687 114.419C61.9516 114.417 62.0326 114.393 62.104 114.351C62.1755 114.309 62.2352 114.25 62.2775 114.178C62.3251 114.098 62.3521 114.008 62.3559 113.915C62.3655 113.81 62.3804 113.705 62.4007 113.602Z" fill="white"/>
<path d="M76.7924 115.812C76.8631 116.024 76.8747 116.25 76.826 116.468C76.7835 116.583 76.7075 116.683 76.6077 116.755C76.5079 116.827 76.3889 116.867 76.266 116.871C76.1822 116.87 76.0997 116.891 76.0262 116.931C75.9527 116.971 75.8907 117.03 75.846 117.101C75.7933 117.176 75.7641 117.266 75.762 117.358C75.762 117.459 75.7283 117.565 75.7003 117.666C75.635 117.453 75.635 117.224 75.7003 117.011C75.7469 116.9 75.8246 116.805 75.9239 116.738C76.0233 116.67 76.1402 116.633 76.2603 116.63C76.3439 116.627 76.4254 116.603 76.4976 116.561C76.5699 116.519 76.6307 116.46 76.6748 116.389C76.7204 116.309 76.7454 116.218 76.7476 116.126C76.7532 116.02 76.7644 115.919 76.7924 115.812Z" fill="white"/>
<path d="M63.4925 134.281C63.5633 134.492 63.5749 134.719 63.5261 134.936C63.4831 135.051 63.4069 135.151 63.3072 135.223C63.2076 135.295 63.0889 135.335 62.9661 135.34C62.8829 135.338 62.8008 135.358 62.7273 135.398C62.6539 135.437 62.5915 135.494 62.5461 135.564C62.4942 135.642 62.4651 135.733 62.4621 135.827C62.4621 135.928 62.4285 136.034 62.4005 136.135C62.3352 135.921 62.3352 135.693 62.4005 135.48C62.448 135.369 62.5257 135.274 62.6248 135.206C62.7239 135.137 62.8403 135.098 62.9605 135.093C63.0441 135.093 63.1262 135.072 63.1989 135.03C63.2715 134.989 63.3322 134.93 63.3749 134.858C63.4215 134.776 63.4465 134.684 63.4477 134.589C63.4533 134.488 63.4645 134.399 63.4925 134.281Z" fill="white"/>
<path d="M58.7998 137.074C58.8648 137.297 58.8648 137.534 58.7998 137.757C58.7561 137.872 58.6797 137.971 58.5802 138.043C58.4807 138.115 58.3623 138.156 58.2398 138.161C58.1558 138.16 58.0729 138.179 57.9985 138.219C57.9242 138.258 57.8608 138.315 57.8142 138.385C57.7646 138.464 57.7357 138.554 57.7302 138.648C57.7169 138.751 57.6982 138.854 57.6742 138.956C57.606 138.743 57.606 138.514 57.6742 138.301C57.7221 138.19 57.8 138.096 57.899 138.027C57.9979 137.959 58.1141 137.92 58.2342 137.914C58.3169 137.914 58.3981 137.892 58.4697 137.851C58.5414 137.81 58.6011 137.75 58.643 137.679C58.6914 137.598 58.7184 137.505 58.7214 137.41C58.7438 137.281 58.755 137.197 58.7998 137.074Z" fill="white"/>
<path d="M74.1436 109.943C74.2374 109.741 74.3895 109.571 74.5804 109.456C74.6944 109.403 74.8218 109.386 74.9458 109.407C75.0698 109.428 75.1845 109.486 75.2748 109.574C75.3687 109.664 75.4942 109.715 75.6248 109.715C75.7553 109.715 75.8808 109.664 75.9748 109.574C76.0644 109.518 76.1428 109.451 76.238 109.395C76.1402 109.596 75.9841 109.764 75.79 109.876C75.6751 109.924 75.5487 109.936 75.4269 109.911C75.3051 109.886 75.1936 109.825 75.1068 109.736C75.046 109.678 74.9715 109.636 74.8902 109.615C74.8089 109.593 74.7235 109.593 74.642 109.613C74.5517 109.637 74.469 109.683 74.4012 109.747C74.3172 109.82 74.2332 109.887 74.1436 109.943Z" fill="white"/>
<path d="M65.9346 118.197C66.0284 117.995 66.1805 117.825 66.3714 117.71C66.4854 117.657 66.6129 117.64 66.7368 117.661C66.8608 117.682 66.9755 117.74 67.0658 117.828C67.1597 117.918 67.2852 117.969 67.4158 117.969C67.5463 117.969 67.6718 117.918 67.7658 117.828C67.8554 117.772 67.9338 117.704 68.029 117.648C67.933 117.851 67.7765 118.02 67.581 118.13C67.4662 118.178 67.3397 118.19 67.2179 118.165C67.0961 118.14 66.9846 118.079 66.8978 117.99C66.8381 117.932 66.7646 117.89 66.6842 117.869C66.6038 117.847 66.5193 117.846 66.4386 117.867C66.3464 117.89 66.2616 117.936 66.1922 118.001C66.1082 118.074 66.0242 118.158 65.9346 118.197Z" fill="white"/>
<path d="M60.2441 129.399C60.3436 129.201 60.4944 129.033 60.6809 128.912C60.7952 128.86 60.9224 128.843 61.0462 128.864C61.17 128.885 61.2847 128.943 61.3753 129.03C61.4333 129.091 61.506 129.136 61.5865 129.16C61.667 129.185 61.7524 129.188 61.8345 129.17C61.9256 129.15 62.0103 129.107 62.0809 129.047C62.1649 128.991 62.2489 128.923 62.3385 128.873C62.2209 129.041 62.1369 129.248 61.8961 129.349C61.7803 129.396 61.6531 129.408 61.5305 129.383C61.4079 129.358 61.2955 129.298 61.2073 129.209C61.1477 129.151 61.0742 129.109 60.9938 129.088C60.9134 129.066 60.8288 129.065 60.7481 129.086C60.6579 129.11 60.5751 129.156 60.5073 129.22C60.4177 129.282 60.3393 129.36 60.2441 129.399Z" fill="white"/>
<path d="M73.707 128.237C73.8081 128.04 73.9586 127.872 74.1438 127.75C74.2586 127.699 74.3862 127.683 74.51 127.705C74.6338 127.727 74.7482 127.786 74.8382 127.873C74.8977 127.932 74.9705 127.976 75.0505 128C75.1305 128.025 75.2153 128.029 75.2974 128.013C75.3885 127.993 75.4732 127.951 75.5438 127.89C75.6261 127.825 75.7121 127.766 75.8014 127.711C75.7052 127.912 75.5511 128.08 75.359 128.193C75.2427 128.239 75.1151 128.25 74.9925 128.224C74.8699 128.199 74.7577 128.137 74.6702 128.047C74.6103 127.989 74.5366 127.948 74.4561 127.928C74.3756 127.907 74.2912 127.908 74.211 127.929C74.1214 127.952 74.0386 127.996 73.9702 128.058C73.8861 128.123 73.7982 128.183 73.707 128.237Z" fill="white"/>
<path d="M68.5439 136.397C68.6415 136.197 68.7928 136.028 68.9807 135.909C69.0957 135.859 69.223 135.843 69.3467 135.865C69.4704 135.887 69.5847 135.945 69.6751 136.033C69.7334 136.093 69.8062 136.138 69.8865 136.162C69.9669 136.187 70.0522 136.19 70.1343 136.173C70.2241 136.153 70.3071 136.111 70.3751 136.049C70.4647 135.988 70.5431 135.926 70.6383 135.87C70.5406 136.072 70.3845 136.24 70.1903 136.352C70.074 136.398 69.9465 136.409 69.8238 136.384C69.7012 136.358 69.589 136.296 69.5015 136.206C69.4408 136.15 69.367 136.11 69.2868 136.089C69.2067 136.069 69.1226 136.068 69.0423 136.089C68.9516 136.111 68.8684 136.157 68.8015 136.223C68.7175 136.279 68.6335 136.346 68.5439 136.397Z" fill="white"/>
<path d="M52.276 134.785C52.1584 134.959 52.0688 135.166 51.828 135.267C51.7131 135.314 51.5867 135.327 51.4649 135.302C51.3431 135.277 51.2316 135.216 51.1448 135.127C51.0937 135.076 51.0299 135.039 50.96 135.02C50.96 134.948 50.9992 134.869 51.016 134.791C51.1267 134.817 51.229 134.871 51.3128 134.948C51.3704 135.009 51.4431 135.054 51.5237 135.079C51.6043 135.103 51.6899 135.106 51.772 135.088C51.862 135.069 51.9454 135.027 52.0128 134.964C52.08 134.908 52.1808 134.841 52.276 134.785Z" fill="white"/>
<path d="M55.877 118.462C55.977 118.262 56.1301 118.093 56.3194 117.975C56.4336 117.922 56.5608 117.906 56.6846 117.927C56.8084 117.948 56.9231 118.005 57.0138 118.092C57.0714 118.154 57.1441 118.199 57.2247 118.224C57.3052 118.248 57.3909 118.251 57.473 118.232C57.5627 118.213 57.6457 118.171 57.7138 118.109C57.8034 118.053 57.8818 117.986 57.977 117.93C57.8538 118.103 57.7698 118.311 57.529 118.411C57.4132 118.459 57.2859 118.471 57.1633 118.446C57.0407 118.421 56.9283 118.36 56.8402 118.271C56.7805 118.213 56.707 118.172 56.6266 118.15C56.5462 118.128 56.4616 118.128 56.381 118.148C56.2907 118.172 56.208 118.218 56.1402 118.283C56.0556 118.347 55.9677 118.407 55.877 118.462Z" fill="white"/>
<path d="M80.3428 133.53C80.0964 132.113 79.9172 131.004 79.71 129.61C79.5028 128.216 79.29 126.771 79.1052 125.348V125.253L79.1668 125.164C79.878 124.082 80.3883 122.881 80.6732 121.619C80.8222 120.993 80.8937 120.352 80.886 119.709C80.8933 119.067 80.8065 118.428 80.6284 117.811C80.2396 116.554 79.7412 115.334 79.1388 114.165C78.5452 112.984 78.058 111.992 77.3972 110.839C77.2852 110.66 77.358 110.62 77.4588 110.76C78.1252 111.707 78.8532 113 79.4244 114.014C80.1046 115.174 80.6674 116.399 81.1044 117.671C81.3165 118.328 81.426 119.013 81.4292 119.704C81.4425 120.389 81.371 121.074 81.2164 121.742C80.9166 123.079 80.3614 124.345 79.5812 125.472L79.626 125.287C79.7884 126.715 79.9228 128.143 80.0572 129.571C80.186 130.853 80.3316 132.242 80.4212 133.53C80.4212 133.648 80.4268 134.051 80.3428 133.53Z" fill="#011627"/>
<path d="M78.6016 111.902C78.8745 112.321 79.0981 112.77 79.268 113.241C79.3558 113.474 79.4269 113.714 79.4808 113.958C79.5452 114.203 79.5791 114.455 79.5816 114.708C79.3688 114.249 79.1728 113.801 79.0216 113.336C78.8384 112.872 78.6978 112.392 78.6016 111.902Z" fill="#011627"/>
<path d="M63.733 107.347C61.689 110.432 52.029 122.579 51.6706 123.743C51.3122 124.908 53.5018 127.327 53.4794 127.803C53.3954 129.735 48.529 141.372 46.8042 140.123C44.5642 138.505 36.4386 128.296 37.5194 122.915C38.6002 117.533 59.3594 104.115 62.7754 102.855C66.1914 101.595 65.749 104.306 63.733 107.347Z" fill="#774442"/>
<path d="M55.8882 144.31C57.1986 143.072 54.9866 142.238 54.9866 142.238C54.9866 142.238 58.4586 142.675 59.3154 140.877C60.1722 139.08 57.4282 138.228 57.2378 138.156C57.4226 138.156 60.5978 138.497 61.2922 136.599C61.9866 134.7 59.1194 134.18 58.9346 134.152C59.1138 134.112 61.4826 133.62 61.6674 132.063C61.981 129.392 55.0818 130.22 53.3458 128.904C53.3458 128.904 53.4578 125.421 53.4914 125.32C53.1709 126.149 52.5786 126.844 51.8114 127.292C50.3946 127.958 49.101 128.412 48.6138 129.229C48.3852 129.586 48.2775 130.007 48.3067 130.429C48.336 130.852 48.5006 131.254 48.7762 131.576C48.7762 131.576 46.8666 131.671 46.2898 133.144C45.993 133.905 46.945 135.048 46.945 135.048C46.5142 135.091 46.1038 135.253 45.759 135.514C45.4141 135.776 45.1482 136.128 44.9906 136.532C44.6434 137.601 45.6514 138.581 45.6514 138.581C45.6514 138.581 44.2402 139.393 44.2402 140.603C44.2402 143.044 53.0826 146.959 55.8882 144.31Z" fill="#774442"/>
<path d="M45.7905 138.766C45.7905 138.766 45.7345 138.766 45.7905 138.805C48.4698 140.884 51.7174 142.101 55.1033 142.294C55.2097 142.294 55.2601 142.126 55.1425 142.098C51.88 141.447 48.7296 140.324 45.7905 138.766Z" fill="#011627"/>
<path d="M46.8996 135.051C46.866 135.051 46.838 135.084 46.866 135.112C49.852 137.38 53.55 138.506 57.2932 138.288C57.4276 138.288 57.534 138.131 57.3828 138.136C54.8348 138.164 49.638 136.552 46.8996 135.051Z" fill="#011627"/>
<path d="M59.1915 134.035C55.5291 134.214 52.1803 133.206 48.8875 131.672C48.8427 131.672 48.8203 131.711 48.8483 131.739C50.2539 132.932 52.4547 133.688 54.2187 134.136C55.8473 134.579 57.5635 134.589 59.1971 134.164C59.2587 134.147 59.2699 134.029 59.1915 134.035Z" fill="#011627"/>
<path d="M45.5559 138.591C45.2128 138.338 44.9461 137.995 44.7851 137.6C44.6241 137.204 44.575 136.773 44.6431 136.351C44.7484 135.937 45.0038 135.575 45.3599 135.338C45.7859 135.11 46.2601 134.987 46.7431 134.979C46.4204 134.652 46.2043 134.234 46.1234 133.781C46.0424 133.329 46.1003 132.862 46.2895 132.443C46.5096 132.071 46.8646 131.798 47.2807 131.681C47.7618 131.558 48.2569 131.498 48.7535 131.502C48.5123 131.297 48.3223 131.038 48.1989 130.746C48.0754 130.454 48.0218 130.138 48.0423 129.822C48.0764 129.476 48.1928 129.142 48.3818 128.85C48.5708 128.558 48.8269 128.315 49.1287 128.142C49.8363 127.747 50.5882 127.436 51.3687 127.218C51.761 127.088 52.1369 126.914 52.4887 126.697C52.8632 126.438 53.1549 126.076 53.3287 125.655C53.3623 125.583 53.3679 125.655 53.3287 125.717C53.2182 126.004 53.0611 126.271 52.8639 126.507C52.6553 126.754 52.4142 126.973 52.1471 127.156C51.4741 127.546 50.7721 127.883 50.0471 128.164C49.4178 128.448 48.8986 128.93 48.5687 129.536C48.4265 129.853 48.3754 130.203 48.4208 130.547C48.4663 130.891 48.6067 131.216 48.8263 131.485C48.8313 131.492 48.8342 131.501 48.8347 131.51C48.8353 131.519 48.8335 131.528 48.8295 131.536C48.8255 131.544 48.8195 131.55 48.8121 131.555C48.8046 131.56 48.796 131.563 48.7871 131.563C48.3454 131.627 47.9142 131.75 47.5047 131.927C47.164 132.077 46.8769 132.327 46.6815 132.644C46.5149 133.029 46.4526 133.451 46.5007 133.868C46.5489 134.285 46.7059 134.682 46.9559 135.019C46.4896 135.127 46.0461 135.317 45.6455 135.579C45.382 135.792 45.1872 136.078 45.0855 136.402C44.9744 136.768 44.9679 137.159 45.0669 137.529C45.1658 137.899 45.3662 138.234 45.6455 138.496C45.6469 138.506 45.6469 138.515 45.6455 138.524C45.6455 138.524 45.6455 138.524 45.6455 138.552C45.6455 138.552 45.2031 138.827 45.1751 138.832C45.2958 138.742 45.4231 138.662 45.5559 138.591Z" fill="#011627"/>
<path d="M58.4921 114.84L49.9297 110.097C49.9297 110.097 58.6545 104.306 62.7089 102.643C66.7633 100.98 66.8529 104.906 58.4921 114.84Z" fill="#011627"/>
<path d="M66.9814 100.766C65.6206 101.326 65.2398 102.301 65.6654 103.443C66.1358 104.726 70.0726 107.218 71.7078 106.378C73.119 105.65 71.8982 102.273 71.1478 101.511C70.5809 101.03 69.8968 100.708 69.165 100.577C68.4332 100.447 67.6798 100.512 66.9814 100.766Z" fill="#011627"/>
<path d="M66.0794 103.146C66.2866 103.611 69.2154 106.305 71.4106 105.767C72.1274 105.588 71.3378 101.646 71.3378 101.646V101.338L71.4498 97.076L66.0794 94.9368L65.3066 94.668C65.3066 94.668 65.3514 95.8328 65.4242 97.2888C65.4242 97.356 65.4242 97.4232 65.4242 97.496C65.4242 97.5688 65.4242 97.6528 65.4242 97.7312C65.4242 97.9496 65.4242 98.1736 65.4522 98.392C65.4802 98.6104 65.4522 98.7224 65.4914 98.9016C65.5306 99.0808 65.4914 99.2488 65.5306 99.428C65.6264 100.679 65.8098 101.921 66.0794 103.146Z" fill="#774442"/>
<path d="M65.4018 97.2888C66.0362 98.3589 66.8965 99.2777 67.9228 99.9809C68.949 100.684 70.1164 101.155 71.3434 101.36L71.4554 97.0984L66.0794 94.9368L65.3066 94.668C65.3066 94.668 65.329 95.8328 65.4018 97.2888Z" fill="#011627"/>
<path d="M76.4451 90.4895C77.5147 97.8983 73.2027 99.3711 71.6011 99.6007C70.1507 99.8079 65.1891 100.334 63.3579 93.0767C61.5267 85.8191 64.6347 82.9967 67.9275 82.3303C71.2203 81.6639 75.3755 83.0807 76.4451 90.4895Z" fill="#774442"/>
<path d="M74.4793 88.7071C74.307 88.7072 74.1349 88.696 73.9641 88.6735C73.7802 88.6901 73.5962 88.6426 73.4433 88.5391C73.4006 88.4989 73.3729 88.4454 73.3648 88.3874C73.3567 88.3293 73.3686 88.2702 73.3985 88.2199C73.47 88.1263 73.5657 88.054 73.6752 88.0106C73.7847 87.9672 73.9039 87.9543 74.0201 87.9735C74.2605 87.9735 74.4922 88.0634 74.6697 88.2255C74.7071 88.265 74.7325 88.3143 74.7428 88.3677C74.7532 88.4211 74.748 88.4764 74.728 88.527C74.708 88.5776 74.674 88.6214 74.6299 88.6533C74.5859 88.6852 74.5336 88.7039 74.4793 88.7071Z" fill="#011627"/>
<path d="M69.5074 89.6258C69.6709 89.5744 69.8317 89.5146 69.989 89.4466C70.1698 89.4084 70.333 89.312 70.4538 89.1722C70.4816 89.1199 70.4917 89.06 70.4826 89.0014C70.4735 88.9429 70.4457 88.8889 70.4034 88.8474C70.3074 88.7796 70.195 88.7387 70.0778 88.7289C69.9607 88.719 69.843 88.7406 69.737 88.7914C69.5041 88.8591 69.3046 89.0107 69.177 89.217C69.1507 89.2665 69.1395 89.3226 69.1449 89.3783C69.1502 89.4341 69.1718 89.4871 69.207 89.5307C69.2422 89.5742 69.2895 89.6065 69.3429 89.6234C69.3963 89.6403 69.4535 89.6412 69.5074 89.6258Z" fill="#011627"/>
<path d="M71.0191 91.2773C71.0191 91.2773 70.9799 91.3109 70.9855 91.3277C71.0863 91.8317 71.1199 92.4197 70.6943 92.6605C70.6943 92.6605 70.6943 92.6941 70.6943 92.6885C71.2431 92.5205 71.1927 91.7365 71.0191 91.2773Z" fill="#011627"/>
<path d="M70.4812 90.8298C69.6636 90.9082 69.8708 92.5378 70.6324 92.465C71.394 92.3922 71.1644 90.7682 70.4812 90.8298Z" fill="#011627"/>
<path d="M70.1732 90.9587C70.0388 91.0707 69.9212 91.2499 69.7532 91.2891C69.5852 91.3283 69.3836 91.1827 69.2324 91.0371C69.2716 91.3507 69.434 91.6531 69.7924 91.6587C70.1508 91.6643 70.2852 91.3563 70.3524 91.0315C70.2852 90.9923 70.2236 90.9139 70.1732 90.9587Z" fill="#011627"/>
<path d="M73.7856 90.7188C73.7856 90.7188 73.8304 90.7188 73.8304 90.758C73.8752 91.2676 74.0152 91.8388 74.4912 91.9564V91.9843C73.92 91.9507 73.7464 91.1836 73.7856 90.7188Z" fill="#011627"/>
<path d="M74.1717 90.113C74.9781 89.9506 75.2413 91.5746 74.4965 91.7258C73.7517 91.877 73.4997 90.2474 74.1717 90.113Z" fill="#011627"/>
<path d="M74.53 90.1581C74.67 90.2253 74.8268 90.3597 74.978 90.3485C75.1292 90.3373 75.2636 90.1301 75.3476 89.9453C75.4092 90.2533 75.3476 90.5893 75.0676 90.7013C74.7876 90.8133 74.5636 90.5613 74.4404 90.2645C74.4404 90.2309 74.4796 90.1581 74.53 90.1581Z" fill="#011627"/>
<path d="M71.4559 95.3828C71.5847 95.4892 71.7247 95.646 71.9095 95.646C72.1065 95.6288 72.2974 95.5696 72.4695 95.4724C72.4052 95.5783 72.3135 95.6649 72.2041 95.723C72.0947 95.7812 71.9717 95.8087 71.8479 95.8028C71.7432 95.7825 71.6465 95.7327 71.5691 95.6593C71.4917 95.5859 71.4369 95.4919 71.4111 95.3884L71.4559 95.3828Z" fill="#011627"/>
<path d="M73.309 93.2617C73.309 93.2617 73.5161 94.0009 73.5665 94.3817C73.5665 94.4153 73.4882 94.4433 73.3706 94.4713C73.0732 94.5688 72.755 94.5833 72.45 94.5132C72.1451 94.4431 71.8651 94.2912 71.6401 94.0737C71.6345 94.067 71.6312 94.0586 71.6309 94.0498C71.6306 94.0411 71.6332 94.0324 71.6384 94.0253C71.6435 94.0182 71.6509 94.0131 71.6594 94.0107C71.6678 94.0083 71.6768 94.0088 71.6849 94.0121C72.1822 94.2591 72.7457 94.3396 73.2922 94.2417C73.2922 94.1353 72.8889 92.9873 72.9449 92.9761C73.2248 92.9612 73.5055 92.9838 73.7793 93.0433C73.3873 91.4921 72.7433 90.0137 72.3793 88.4625C72.3789 88.4519 72.3819 88.4415 72.3877 88.4327C72.3936 88.4238 72.4021 88.4171 72.412 88.4134C72.4219 88.4096 72.4328 88.4091 72.443 88.4119C72.4532 88.4147 72.4623 88.4207 72.469 88.4289C73.2024 89.9899 73.7783 91.6201 74.1881 93.2953C74.2273 93.4633 73.4602 93.3009 73.309 93.2617Z" fill="#011627"/>
<path d="M63.3527 92.4712C65.1111 92.348 64.8815 89.5816 64.8815 89.5816C64.8815 89.5816 66.8639 89.2456 66.7575 86.02C67.1956 86.6355 67.7706 87.141 68.4372 87.4966C69.1038 87.8523 69.8439 88.0484 70.5991 88.0696C71.1591 88.1088 69.1487 86.776 69.1487 86.776C69.1487 86.776 71.6071 88.68 75.8071 87.56C76.1039 87.4816 75.4095 82.5704 71.9431 81.2992C68.4767 80.028 65.2231 81.5904 63.3359 83.8584C63.3359 83.8584 60.9727 85.1744 60.8775 87.5208C60.7823 89.8672 62.6695 92.516 63.3527 92.4712Z" fill="#011627"/>
<path d="M69.9992 94.1636C69.5494 94.1894 69.1014 94.0886 68.7061 93.8725C68.3108 93.6564 67.9841 93.3338 67.763 92.9413C67.5419 92.5487 67.4354 92.1021 67.4555 91.652C67.4756 91.202 67.6216 90.7666 67.8768 90.3954C68.1321 90.0241 68.4863 89.7319 68.8993 89.552C69.3123 89.3721 69.7675 89.3116 70.2131 89.3774C70.6588 89.4433 71.0771 89.6328 71.4204 89.9245C71.7637 90.2163 72.0182 90.5984 72.1552 91.0276C72.268 91.3775 72.299 91.7486 72.2458 92.1124C72.1926 92.4761 72.0566 92.8228 71.8483 93.1258C71.6401 93.4287 71.3651 93.6798 71.0445 93.8597C70.7239 94.0397 70.3663 94.1436 69.9992 94.1636ZM69.736 89.6836C69.3017 89.7096 68.8864 89.8706 68.5481 90.144C68.2097 90.4175 67.9652 90.7897 67.8486 91.2088C67.732 91.628 67.7492 92.073 67.8977 92.4819C68.0463 92.8908 68.3188 93.2431 68.6772 93.4897C69.0356 93.7362 69.4621 93.8647 69.8971 93.8571C70.332 93.8496 70.7538 93.7065 71.1035 93.4477C71.4532 93.1889 71.7134 92.8274 71.8477 92.4136C71.982 91.9998 71.9838 91.5544 71.8528 91.1396C71.7156 90.6976 71.4354 90.3136 71.0563 90.048C70.6773 89.7825 70.2207 89.6504 69.7584 89.6724L69.736 89.6836Z" fill="#FDC500"/>
<path d="M75.4657 93.1733C74.5473 93.2293 73.6569 92.3333 73.4329 91.0957C73.3204 90.5053 73.3948 89.8946 73.6457 89.3485C73.7386 89.1071 73.8923 88.8938 74.0919 88.7294C74.2914 88.5649 74.5301 88.4548 74.7848 88.4097C75.0395 88.3646 75.3014 88.3861 75.5454 88.4721C75.7893 88.5581 76.0068 88.7057 76.1769 88.9005C76.599 89.3274 76.877 89.8757 76.9721 90.4685C77.2017 91.7789 76.5969 92.9829 75.6225 93.1565C75.571 93.1676 75.5184 93.1732 75.4657 93.1733ZM74.9617 88.6933H74.8385C74.6318 88.74 74.4399 88.8371 74.2797 88.9758C74.1195 89.1145 73.996 89.2906 73.9201 89.4885C73.7027 89.9749 73.6402 90.5165 73.7409 91.0397C73.9425 92.1597 74.7545 92.9829 75.5553 92.8373C76.3561 92.6917 76.8433 91.6613 76.6417 90.5245C76.5574 89.9987 76.313 89.5118 75.9417 89.1301C75.8156 88.9969 75.6637 88.891 75.4951 88.8187C75.3266 88.7465 75.1451 88.7095 74.9617 88.7101V88.6933Z" fill="#FDC500"/>
<path d="M72.1497 91.3166L71.9033 91.1094C72.2057 90.7398 72.9673 90.191 73.6561 90.7062L73.4657 90.9638C72.8497 90.499 72.1777 91.2774 72.1497 91.3166Z" fill="#FDC500"/>
<path d="M61.6781 93.7922L61.3701 93.697C61.4149 93.557 61.8293 92.2914 62.4901 92.0506C63.1509 91.8098 67.4573 91.4906 67.6421 91.457V91.7818C66.3989 91.8826 63.0669 92.1794 62.5685 92.3418C62.0701 92.5042 61.7901 93.445 61.6781 93.7922Z" fill="#FDC500"/>
<path d="M64.6181 93.474C64.6181 93.474 62.8541 91.234 61.8181 91.878C60.7821 92.522 62.2101 95.8316 63.4981 96.2236C63.6589 96.2891 63.8315 96.3208 64.0052 96.3167C64.1788 96.3126 64.3497 96.2728 64.5073 96.1998C64.6649 96.1268 64.8058 96.0221 64.9212 95.8923C65.0366 95.7625 65.124 95.6103 65.1781 95.4452L64.6181 93.474Z" fill="#774442"/>
<path d="M63.4929 84.8611C64.5513 84.0211 66.8081 78.1019 61.7065 75.4979C56.6049 72.8939 50.9601 79.5187 54.7457 84.0771C57.2937 87.1347 61.2529 86.6419 63.4929 84.8611Z" fill="#011627"/>
<path d="M233.476 204.194C237.496 195.929 244.53 191.69 252.454 194.03C260.378 196.371 261.61 207.431 255.691 210.22C249.772 213.009 243.858 204.861 240.733 203.186C237.608 201.512 233.476 204.194 233.476 204.194Z" fill="#80DF12"/>
<path d="M229.6 226.185C229.6 225.188 229.662 224.192 229.696 223.195C229.768 221.207 229.836 219.219 229.908 217.231C230.043 213.596 230.435 210.024 231.941 206.669C233.272 203.629 235.497 201.066 238.32 199.322C239.37 198.692 240.5 198.206 241.68 197.877C242.75 196.795 244.112 196.048 245.6 195.727C247.444 195.353 249.339 195.306 251.2 195.587C251.267 195.587 251.267 195.704 251.2 195.693C249.434 195.47 247.641 195.597 245.924 196.068C245.189 196.272 244.476 196.549 243.796 196.897C243.37 197.128 242.961 197.388 242.57 197.676C244.169 197.343 245.821 197.359 247.414 197.72C247.988 197.862 248.55 198.049 249.094 198.28C249.528 198.188 249.972 198.15 250.416 198.168C250.994 198.189 251.569 198.271 252.129 198.415C253.277 198.74 254.375 199.218 255.394 199.837C255.45 199.871 255.394 199.96 255.338 199.927C254.337 199.381 253.264 198.978 252.152 198.728C251.614 198.606 251.067 198.525 250.516 198.488C250.214 198.471 249.911 198.471 249.609 198.488C251.869 199.529 253.685 201.339 254.733 203.595C254.761 203.656 254.666 203.707 254.644 203.645C254.019 202.337 253.107 201.186 251.975 200.279C250.844 199.373 249.522 198.733 248.108 198.409C247.935 198.364 247.756 198.342 247.582 198.303C247.644 198.56 247.632 198.863 247.666 199.104C247.716 199.507 247.784 199.904 247.868 200.302C248.029 201.122 248.244 201.93 248.512 202.721C248.78 203.523 249.1 204.307 249.469 205.068C249.83 205.863 250.281 206.615 250.813 207.308C250.858 207.364 250.768 207.431 250.729 207.369C250.253 206.624 249.699 205.936 249.262 205.129C248.845 204.391 248.486 203.621 248.187 202.828C247.885 202.021 247.649 201.192 247.481 200.347C247.392 199.904 247.324 199.456 247.274 199.003C247.218 198.734 247.201 198.459 247.224 198.185C246.297 198.045 245.355 198.026 244.424 198.129C244.776 200.1 245.157 202.15 246.26 203.864C246.294 203.92 246.199 203.976 246.165 203.914C245.649 203.013 245.194 202.077 244.804 201.114C244.421 200.196 244.167 199.229 244.048 198.241C242.413 198.461 240.833 198.989 239.395 199.798C236.686 201.375 234.524 203.741 233.196 206.58C231.8 209.636 231.02 212.938 230.9 216.296C230.636 220.518 230.58 224.763 230.16 228.974C230.132 229.248 229.696 229.344 229.645 229.03C229.539 228.085 229.524 227.133 229.6 226.185Z" fill="#011627"/>
<path d="M238.874 198.659C239.139 198.338 239.446 198.054 239.787 197.814C240.117 197.545 240.453 197.282 240.806 197.041C241.504 196.564 242.276 196.207 243.091 195.982C243.104 195.979 243.118 195.98 243.13 195.987C243.142 195.994 243.151 196.005 243.155 196.019C243.159 196.032 243.157 196.046 243.15 196.059C243.143 196.071 243.132 196.079 243.119 196.083C242.302 196.296 241.539 196.677 240.879 197.203C240.543 197.45 240.223 197.713 239.91 197.987C239.628 198.278 239.319 198.541 238.986 198.771C238.978 198.779 238.97 198.784 238.96 198.788C238.95 198.792 238.94 198.794 238.93 198.794C238.919 198.794 238.909 198.792 238.899 198.788C238.89 198.784 238.881 198.779 238.874 198.771C238.866 198.764 238.861 198.755 238.857 198.745C238.853 198.736 238.851 198.726 238.851 198.715C238.851 198.705 238.853 198.694 238.857 198.685C238.861 198.675 238.866 198.667 238.874 198.659Z" fill="#011627"/>
<path d="M251.703 201.657C252.368 202.43 252.983 203.243 253.546 204.093C254.094 204.951 254.554 205.863 254.918 206.815C254.918 206.843 254.884 206.86 254.867 206.815C253.947 205.017 252.862 203.309 251.625 201.713C251.58 201.674 251.658 201.601 251.703 201.657Z" fill="#011627"/>
<path d="M243.04 200.841C243.124 201.358 243.276 201.861 243.494 202.337C243.713 202.796 243.968 203.238 244.255 203.658C244.255 203.686 244.255 203.714 244.21 203.692C243.518 202.894 243.074 201.911 242.934 200.864C242.945 200.797 243.04 200.774 243.04 200.841Z" fill="#011627"/>
<path d="M230.16 204.401C230.16 204.401 224.47 197.249 213.489 199.781C203.045 202.194 198.229 221.335 208.779 223.625C219.33 225.916 217.47 208.203 221.312 205.196C224.118 202.984 228.172 203.46 230.16 204.401Z" fill="#80DF12"/>
<path opacity="0.1" d="M230.16 204.401C230.16 204.401 224.47 197.249 213.489 199.781C203.045 202.194 198.229 221.335 208.779 223.625C219.33 225.916 217.47 208.203 221.312 205.196C224.118 202.984 228.172 203.46 230.16 204.401Z" fill="#2E2E2E"/>
<path d="M204.988 210.23C205.697 209.606 206.445 209.028 207.228 208.5C207.973 207.989 208.785 207.583 209.642 207.296C210.848 205.448 212.475 203.913 214.391 202.816C214.282 202.811 214.174 202.811 214.066 202.816C213.484 202.785 212.901 202.785 212.319 202.816C211.147 202.888 209.999 203.175 208.931 203.662C208.869 203.662 208.824 203.589 208.886 203.566C209.963 203.096 211.09 202.752 212.246 202.542C212.812 202.443 213.385 202.394 213.959 202.396C214.267 202.396 214.581 202.396 214.883 202.452H215.063C216.07 201.946 217.132 201.555 218.227 201.287L217.924 201.209C217.387 201.086 216.843 200.996 216.295 200.94C215.201 200.814 214.096 200.831 213.007 200.99C212.996 200.987 212.986 200.98 212.98 200.97C212.973 200.961 212.969 200.949 212.969 200.937C212.969 200.925 212.973 200.914 212.98 200.904C212.986 200.895 212.996 200.888 213.007 200.884C214.109 200.752 215.219 200.708 216.328 200.75C217.258 200.78 218.182 200.9 219.089 201.108C219.752 200.989 220.421 200.913 221.094 200.878C224.924 200.722 229.096 202.15 231.454 205.297C233.811 208.444 234.254 212.655 234.691 216.452C235.334 221.749 235.475 227.094 235.111 232.418C235.111 232.731 234.646 232.675 234.635 232.378C234.495 227.865 234.332 223.351 233.901 218.849C233.699 216.766 233.481 214.677 233.134 212.61C232.882 210.834 232.373 209.104 231.622 207.475C230.803 205.812 229.514 204.426 227.915 203.488C226.305 202.568 224.511 202.017 222.662 201.875C221.005 201.738 219.337 201.893 217.734 202.334C217.79 202.656 217.8 202.984 217.762 203.309C217.727 203.716 217.646 204.118 217.521 204.507C217.4 204.875 217.247 205.231 217.062 205.571C216.855 205.952 216.603 206.288 216.373 206.646C216.339 206.708 216.244 206.646 216.289 206.59C216.754 205.942 217.055 205.191 217.168 204.401C217.235 204.031 217.28 203.657 217.303 203.281C217.303 202.995 217.303 202.721 217.303 202.43C215.56 202.965 213.934 203.824 212.509 204.961C212.24 205.179 211.983 205.403 211.731 205.638C212.092 205.966 212.405 206.343 212.66 206.758C213.037 207.308 213.364 207.889 213.64 208.494C214.148 209.718 214.489 211.005 214.654 212.319C214.654 212.386 214.559 212.403 214.553 212.319C214.35 211.05 213.927 209.826 213.304 208.702C213.013 208.144 212.688 207.606 212.33 207.089C212.145 206.826 211.949 206.562 211.77 206.31C211.663 206.176 211.54 206.036 211.439 205.89C210.143 207.175 209.087 208.681 208.32 210.337C208.837 210.886 209.27 211.509 209.603 212.185C209.998 212.893 210.342 213.629 210.633 214.386C211.165 215.849 211.603 217.346 211.943 218.866C211.943 218.927 211.854 218.95 211.843 218.866C211.509 217.336 210.986 215.853 210.286 214.453C209.957 213.762 209.61 213.085 209.244 212.42C208.865 211.8 208.521 211.159 208.214 210.499C207.479 212.102 207.053 213.829 206.959 215.59C206.959 215.657 206.847 215.646 206.853 215.59C207.054 212.831 207.898 210.158 209.317 207.783C208.651 208.069 207.973 208.343 207.329 208.69C206.503 209.129 205.736 209.669 205.044 210.298C205.005 210.359 204.96 210.275 204.988 210.23Z" fill="#011627"/>
<path d="M213.041 210.639C213.371 211.719 213.786 212.772 214.083 213.87C214.387 214.921 214.551 216.007 214.57 217.101C214.57 217.129 214.519 217.129 214.519 217.101C214.22 214.907 213.692 212.751 212.946 210.667C212.942 210.66 212.941 210.653 212.94 210.645C212.94 210.638 212.942 210.631 212.945 210.624C212.948 210.617 212.952 210.611 212.957 210.606C212.963 210.601 212.97 210.598 212.977 210.596C212.984 210.594 212.991 210.593 212.998 210.594C213.006 210.595 213.013 210.598 213.019 210.602C213.025 210.606 213.03 210.612 213.034 210.618C213.038 210.624 213.04 210.631 213.041 210.639Z" fill="#011627"/>
<path d="M206.08 207.948C206.512 207.533 207.002 207.184 207.536 206.912C208.078 206.664 208.64 206.463 209.216 206.312C209.283 206.313 209.306 206.402 209.216 206.419C208.647 206.567 208.101 206.791 207.592 207.085C207.074 207.355 206.576 207.662 206.102 208.004C206.096 208.003 206.09 208.001 206.085 207.997C206.08 207.994 206.076 207.989 206.074 207.983C206.071 207.977 206.071 207.97 206.072 207.964C206.073 207.958 206.076 207.952 206.08 207.948Z" fill="#011627"/>
<path d="M224.739 194.843C224.739 194.843 223.686 181.997 214.133 177.831C206.158 174.353 201.589 183.313 207.228 188.801C211.792 193.242 219.105 191.237 224.739 194.843Z" fill="#80DF12"/>
<path opacity="0.1" d="M224.739 194.843C224.739 194.843 223.686 181.997 214.133 177.831C206.158 174.353 201.589 183.313 207.228 188.801C211.792 193.242 219.105 191.237 224.739 194.843Z" fill="#2E2E2E"/>
<path d="M208.998 180.321C210.45 180.909 211.867 181.58 213.242 182.331C214.386 182.992 215.488 183.723 216.541 184.521C216.384 184.196 216.244 183.86 216.087 183.541C215.835 183.043 215.572 182.561 215.275 182.091C214.687 181.118 213.98 180.223 213.17 179.425C213.119 179.38 213.17 179.302 213.248 179.352C214.053 180.15 214.793 181.011 215.46 181.928C215.791 182.395 216.093 182.882 216.367 183.384C216.65 183.845 216.867 184.342 217.011 184.863L217.118 184.941C218.785 186.277 220.314 187.778 221.682 189.421C221.654 189.298 221.626 189.169 221.592 189.051C221.413 188.424 221.222 187.808 221.032 187.187C220.62 185.869 220.04 184.61 219.307 183.44C219.268 183.384 219.363 183.328 219.397 183.39C220.147 184.559 220.815 185.779 221.396 187.041C221.661 187.659 221.882 188.296 222.057 188.945C222.195 189.365 222.298 189.796 222.365 190.233C222.785 190.759 223.194 191.291 223.58 191.84C227.679 197.681 229.74 204.72 230.233 211.804C230.377 213.912 230.413 216.026 230.339 218.138C230.324 220.266 230.136 222.39 229.779 224.488C229.751 224.623 229.544 224.583 229.55 224.455C229.594 222.595 229.79 220.747 229.824 218.888C229.858 217.029 229.796 215.164 229.645 213.288C229.342 209.581 228.643 205.916 227.562 202.357C226.446 198.712 224.803 195.25 222.684 192.081C222.286 192.003 221.883 191.891 221.491 191.79L220.08 191.409C219.164 191.17 218.273 190.841 217.42 190.429C217.358 190.401 217.42 190.306 217.476 190.339C218.318 190.798 219.23 191.114 220.175 191.275C220.92 191.42 221.698 191.521 222.449 191.689C221.754 190.681 221.008 189.709 220.209 188.771C218.388 188.938 216.553 188.801 214.777 188.368C213.826 188.139 212.891 187.849 211.977 187.5C211.019 187.131 210.112 186.655 209.177 186.263C209.104 186.235 209.177 186.128 209.216 186.167C210.927 187.101 212.795 187.712 214.726 187.971C216.432 188.244 218.156 188.386 219.884 188.396C219.201 187.618 218.501 186.862 217.756 186.156C215.247 183.771 212.262 181.57 208.958 180.427C208.88 180.394 208.936 180.321 208.998 180.321Z" fill="#011627"/>
<path d="M216.77 180.354C217.2 180.897 217.591 181.47 217.941 182.068C218.298 182.697 218.58 183.366 218.781 184.061C218.781 184.061 218.753 184.095 218.747 184.061C218.428 183.429 218.159 182.773 217.834 182.146C217.526 181.528 217.15 180.946 216.714 180.41C216.653 180.377 216.72 180.321 216.77 180.354Z" fill="#011627"/>
<path d="M207.889 184.632C208.509 184.974 209.164 185.248 209.843 185.45C210.498 185.676 211.166 185.863 211.843 186.01V186.066C211.139 185.991 210.446 185.838 209.776 185.612C209.114 185.364 208.469 185.074 207.844 184.744C207.76 184.694 207.827 184.598 207.889 184.632Z" fill="#011627"/>
<path d="M232.164 192.529C232.22 193.089 233.609 187.864 241.684 183.228C249.02 179.022 257.773 168.074 250.583 161.158C244.775 155.575 229.482 167.744 232.164 192.529Z" fill="#80DF12"/>
<path d="M226.604 222.462C226.72 217.028 227.148 211.606 227.886 206.222C228.518 201.272 229.655 196.401 231.28 191.684C231.879 190.004 232.568 188.324 233.312 186.644C233.27 186.004 233.281 185.361 233.346 184.723C233.385 183.9 233.458 183.077 233.536 182.259C233.615 181.442 233.693 180.618 233.794 179.801C233.895 178.983 234.063 178.166 234.096 177.348C234.096 177.275 234.22 177.292 234.197 177.348C234.038 178.208 233.942 179.078 233.912 179.952C233.85 180.742 233.805 181.537 233.777 182.332C233.749 183.127 233.777 183.922 233.777 184.718C233.777 185.003 233.777 185.306 233.805 185.614C234.567 184.006 235.379 182.427 236.264 180.887C235.704 177.527 236.426 174.038 237.109 170.762C237.109 170.701 237.221 170.729 237.21 170.796C236.873 172.506 236.695 174.244 236.678 175.987C236.644 177.359 236.712 178.737 236.717 180.109C236.908 179.778 237.104 179.448 237.277 179.123C238.326 177.417 239.446 175.746 240.637 174.111C240.543 173.317 240.569 172.512 240.716 171.726C240.85 170.843 241.046 169.971 241.304 169.116C241.561 168.259 241.864 167.436 242.2 166.596C242.536 165.756 243.012 164.944 243.353 164.093C243.354 164.085 243.357 164.078 243.362 164.072C243.366 164.066 243.372 164.06 243.379 164.057C243.386 164.053 243.393 164.051 243.401 164.051C243.408 164.051 243.416 164.052 243.423 164.055C243.43 164.058 243.436 164.063 243.441 164.069C243.446 164.074 243.45 164.081 243.452 164.089C243.454 164.096 243.454 164.104 243.452 164.111C243.451 164.119 243.447 164.126 243.443 164.132C243.017 164.939 242.679 165.79 242.435 166.669C242.167 167.494 241.946 168.333 241.774 169.183C241.6 170.029 241.46 170.863 241.343 171.742C241.264 172.302 241.214 172.902 241.119 173.473C242.847 171.151 244.735 168.952 246.769 166.893C246.82 166.842 246.887 166.921 246.842 166.966C243.764 170.426 241.016 174.167 238.632 178.138C238.543 178.289 238.459 178.44 238.375 178.591C238.817 178.311 239.327 178.087 239.747 177.858C240.531 177.421 241.317 176.99 242.104 176.564L244.389 175.31C244.781 175.091 245.168 174.867 245.565 174.666C246.043 174.449 246.501 174.195 246.937 173.904C246.999 173.859 247.06 173.954 246.999 173.988C246.22 174.414 245.532 175.052 244.759 175.528C243.986 176.004 243.269 176.514 242.48 176.962C241.046 177.762 239.484 178.339 238.072 179.168C237.094 180.885 236.189 182.642 235.356 184.438C236.211 183.889 237.085 183.366 237.977 182.87C238.537 182.55 239.097 182.231 239.708 181.929C240.284 181.662 240.829 181.331 241.332 180.943C241.342 180.938 241.355 180.936 241.366 180.939C241.378 180.941 241.389 180.947 241.397 180.956C241.405 180.964 241.41 180.975 241.412 180.987C241.413 180.999 241.41 181.011 241.404 181.022C240.465 181.868 239.423 182.592 238.302 183.178C237.266 183.788 236.213 184.37 235.138 184.902C234.27 186.79 233.492 188.722 232.797 190.682C229.398 200.308 228.149 210.528 227.55 220.675C227.376 223.705 227.281 226.723 227.248 229.758C227.214 232.794 227.365 235.806 227.36 238.83C227.36 238.92 227.214 238.942 227.203 238.83C226.839 236.148 226.772 233.421 226.643 230.716C226.514 228.011 226.542 225.211 226.604 222.462Z" fill="#011627"/>
<path d="M241.276 178.878C242.753 178.221 244.188 177.473 245.571 176.638C246.974 175.846 248.335 174.983 249.648 174.051C249.648 174.051 249.693 174.051 249.676 174.09C248.433 175.089 247.124 176.002 245.756 176.823C244.324 177.624 242.842 178.335 241.321 178.951C241.265 178.996 241.215 178.906 241.276 178.878Z" fill="#011627"/>
<path d="M238.935 167.999C239.058 167.529 239.204 167.07 239.366 166.61C239.362 166.607 239.359 166.602 239.357 166.598C239.355 166.593 239.354 166.588 239.354 166.582C239.354 166.577 239.355 166.572 239.357 166.567C239.359 166.562 239.362 166.558 239.366 166.554C239.467 166.297 239.573 166.039 239.68 165.782L239.719 165.686L239.781 165.535C239.753 165.625 239.73 165.714 239.702 165.804C239.692 165.853 239.679 165.902 239.663 165.95C239.127 167.746 238.726 169.581 238.465 171.438C238.465 171.494 238.364 171.494 238.369 171.438C238.449 170.276 238.638 169.125 238.935 167.999Z" fill="#011627"/>
<path d="M218.069 224.41L218.646 231.242L220.41 252.08H239.31L241.074 231.242L241.651 224.41H218.069Z" fill="#664EFE"/>
<path d="M218.069 224.41L218.646 231.242H241.074L241.651 224.41H218.069Z" fill="#011627"/>
<path d="M216.159 228.312H243.448V221.76H216.159V228.312Z" fill="#664EFE"/>
<path d="M138.384 89.5597C137.856 89.5597 137.363 89.5149 136.906 89.4253C136.449 89.3357 136.046 89.2013 135.696 89.0221C135.356 88.834 135.092 88.5965 134.903 88.3098C134.715 88.0141 134.621 87.6647 134.621 87.2615C134.621 87.136 134.63 87.0016 134.648 86.8583C134.666 86.706 134.693 86.5716 134.729 86.4551H136.221C136.203 86.5357 136.18 86.6298 136.153 86.7373C136.135 86.8448 136.126 86.9389 136.126 87.0196C136.126 87.3063 136.216 87.5437 136.395 87.7319C136.574 87.92 136.825 88.0589 137.148 88.1485C137.47 88.2292 137.847 88.2695 138.277 88.2695C138.698 88.2695 139.065 88.2381 139.379 88.1754C139.693 88.1037 139.957 88.0052 140.172 87.8797C140.387 87.7453 140.548 87.5885 140.656 87.4093C140.763 87.2212 140.817 87.0151 140.817 86.7911C140.817 86.5671 140.75 86.3789 140.615 86.2266C140.49 86.0653 140.32 85.9264 140.105 85.81C139.89 85.6935 139.643 85.5904 139.365 85.5008C139.097 85.4112 138.814 85.3261 138.519 85.2455C138.178 85.138 137.838 85.026 137.497 84.9095C137.157 84.784 136.843 84.6272 136.557 84.4391C136.279 84.2509 136.055 84.0224 135.885 83.7536C135.723 83.4848 135.643 83.1533 135.643 82.7591C135.643 82.2842 135.741 81.8765 135.938 81.536C136.144 81.1956 136.422 80.9133 136.772 80.6893C137.121 80.4653 137.524 80.2996 137.981 80.192C138.438 80.0756 138.922 80.0173 139.433 80.0173C139.934 80.0173 140.391 80.0621 140.804 80.1517C141.225 80.2413 141.592 80.3757 141.906 80.5549C142.219 80.7252 142.461 80.9492 142.631 81.2269C142.802 81.4957 142.887 81.8138 142.887 82.1812C142.887 82.2618 142.882 82.3559 142.873 82.4634C142.864 82.5709 142.846 82.6964 142.82 82.8397H141.328C141.355 82.7412 141.373 82.6605 141.381 82.5978C141.39 82.5351 141.395 82.4813 141.395 82.4365C141.395 82.0692 141.225 81.7869 140.884 81.5898C140.553 81.3927 140.082 81.2941 139.473 81.2941C139.034 81.2941 138.64 81.3434 138.29 81.442C137.941 81.5405 137.668 81.6839 137.47 81.872C137.273 82.0512 137.175 82.2797 137.175 82.5575C137.175 82.7456 137.224 82.9069 137.323 83.0413C137.43 83.1757 137.573 83.2922 137.753 83.3908C137.941 83.4893 138.151 83.5834 138.384 83.673C138.617 83.7536 138.864 83.8298 139.124 83.9015C139.491 84.018 139.863 84.1389 140.239 84.2644C140.624 84.3898 140.978 84.5466 141.301 84.7348C141.623 84.9229 141.883 85.1648 142.08 85.4605C142.277 85.7472 142.376 86.1012 142.376 86.5223C142.376 87.0688 142.264 87.5348 142.04 87.92C141.825 88.3053 141.529 88.6189 141.153 88.8608C140.777 89.1028 140.347 89.282 139.863 89.3984C139.388 89.506 138.895 89.5597 138.384 89.5597ZM147.67 89.5597C146.568 89.5597 145.713 89.3312 145.103 88.8743C144.503 88.4084 144.203 87.705 144.203 86.7642C144.203 86.6298 144.212 86.482 144.23 86.3207C144.248 86.1594 144.27 85.9981 144.297 85.8368L145.291 80.1786H146.783L145.775 85.9309C145.757 86.0116 145.739 86.1191 145.722 86.2535C145.704 86.3789 145.695 86.4909 145.695 86.5895C145.695 87.154 145.865 87.5796 146.205 87.8663C146.546 88.144 147.039 88.2829 147.684 88.2829C148.427 88.2829 149.041 88.0903 149.525 87.705C150.009 87.3197 150.318 86.7463 150.452 85.9847L151.474 80.1786H152.979L151.958 85.9444C151.814 86.7687 151.555 87.4496 151.178 87.9872C150.811 88.5248 150.331 88.9236 149.74 89.1834C149.158 89.4343 148.468 89.5597 147.67 89.5597ZM153.484 89.3984L155.11 80.1786H159.733C160.352 80.1786 160.862 80.2727 161.265 80.4608C161.669 80.64 161.969 80.8954 162.166 81.2269C162.363 81.5495 162.462 81.9392 162.462 82.3962C162.462 82.9517 162.372 83.44 162.193 83.8612C162.023 84.2823 161.776 84.6362 161.454 84.9229C161.14 85.2096 160.764 85.4336 160.325 85.5949L161.588 89.3984H160.002L158.86 85.8503H155.621L154.989 89.3984H153.484ZM155.849 84.5735H159.008C159.366 84.5735 159.688 84.4928 159.975 84.3316C160.262 84.1703 160.49 83.9418 160.661 83.6461C160.831 83.3504 160.916 82.9965 160.916 82.5844C160.916 82.226 160.808 81.9527 160.593 81.7645C160.378 81.5674 160.051 81.4688 159.612 81.4688H156.4L155.849 84.5735ZM165.511 89.3984L163.751 80.1786H165.283L166.318 85.81C166.363 86.0608 166.403 86.3117 166.439 86.5626C166.483 86.8135 166.524 87.042 166.56 87.248C166.595 87.4541 166.618 87.6244 166.627 87.7588H166.721C166.811 87.5616 166.918 87.3376 167.043 87.0868C167.178 86.8269 167.308 86.576 167.433 86.3341C167.559 86.0832 167.666 85.8816 167.756 85.7293L170.672 80.1786H172.272L167.272 89.3984H165.511ZM171.925 89.3984L173.537 80.1786H180.688L180.459 81.4688H174.828L174.371 84.0359H179.424L179.209 85.3261H174.129L173.645 88.1082H179.384L179.155 89.3984H171.925ZM183.615 89.3984L184.287 85.6084L181.639 80.1786H183.185L185.188 84.2778H185.268L188.669 80.1786H190.322L185.779 85.6084L185.12 89.3984H183.615Z" fill="#2E2E2E"/>
</svg>
