<svg width="900" height="899" viewBox="0 0 900 899" fill="none" xmlns="http://www.w3.org/2000/svg">
<path d="M208.476 425.882L165.234 612.696L350.006 708.926L393.248 522.111L208.476 425.882Z" fill="#EEEBFE"/>
<path d="M393.218 522.136C393.239 522.221 392.449 522.766 390.922 523.728C389.23 524.757 386.999 526.114 384.213 527.808C378.177 531.351 369.747 536.299 359.398 542.374C338.213 554.533 309.214 571.176 277.095 589.611L276.417 590L276.028 589.077C275.732 588.373 275.41 587.61 275.089 586.845C256.607 542.619 239.883 502.596 227.654 473.333C221.733 458.924 216.907 447.181 213.452 438.771C211.879 434.836 210.62 431.688 209.667 429.303C208.819 427.124 208.397 425.954 208.449 425.905C208.501 425.856 209.023 426.929 209.969 429.017C210.994 431.336 212.347 434.394 214.036 438.219C217.607 446.517 222.596 458.109 228.716 472.329C241.058 501.483 257.937 541.36 276.59 585.424C276.911 586.189 277.232 586.953 277.528 587.657L276.464 587.122C308.656 568.976 337.72 552.594 358.953 540.626C369.385 534.88 377.883 530.201 383.967 526.849C386.803 525.346 389.072 524.143 390.794 523.231C392.363 522.43 393.196 522.05 393.218 522.136Z" fill="#FBFAFF"/>
<path d="M165.237 612.713C164.986 612.079 184.809 593.71 209.505 571.686C234.21 549.654 254.434 532.312 254.685 532.946C254.936 533.578 235.118 551.945 210.413 573.975C185.716 596 165.488 613.345 165.237 612.713Z" fill="#FBFAFF"/>
<path d="M316.705 562.598C317.169 562.361 325.013 594.932 334.225 635.338C343.439 675.759 350.53 708.708 350.066 708.947C349.601 709.185 341.758 676.621 332.545 636.2C323.333 595.794 316.241 562.836 316.705 562.598Z" fill="#FBFAFF"/>
<path d="M753.665 377.327L570.849 423.806L591.734 608.643L774.551 562.165L753.665 377.327Z" fill="#FBFAFF"/>
<path d="M753.672 377.395C753.716 377.451 753.224 378.446 752.248 380.288C751.154 382.302 749.713 384.955 747.913 388.271C743.974 395.346 738.473 405.227 731.72 417.359C717.812 441.961 698.774 475.639 677.687 512.939L677.242 513.725L676.638 513.223C676.177 512.841 675.678 512.426 675.179 512.012C646.368 487.902 620.296 466.086 601.232 450.135C591.93 442.213 584.347 435.755 578.917 431.13C576.413 428.936 574.41 427.181 572.892 425.853C571.524 424.622 570.818 423.938 570.846 423.862C570.874 423.786 571.634 424.321 573.056 425.408C574.613 426.634 576.667 428.25 579.235 430.272C584.728 434.725 592.398 440.944 601.81 448.574C620.934 464.358 647.09 485.948 675.995 509.803C676.494 510.219 676.993 510.633 677.454 511.016L676.406 511.301C697.642 474.19 716.814 440.685 730.82 416.208C737.742 404.294 743.381 394.589 747.419 387.641C749.318 384.451 750.839 381.899 751.992 379.962C753.05 378.225 753.628 377.339 753.672 377.395Z" fill="#EEEBFE"/>
<path d="M591.676 608.71C591.275 608.355 602.162 579.523 615.987 544.319C629.818 509.102 641.351 480.851 641.752 481.203C642.152 481.556 631.269 510.383 617.438 545.6C603.613 580.805 592.077 609.063 591.676 608.71Z" fill="#EEEBFE"/>
<path d="M702.381 463.441C702.694 462.926 719.121 484.627 739.065 511.904C759.017 539.192 774.931 561.722 774.618 562.237C774.305 562.752 757.882 541.057 737.931 513.77C717.987 486.491 702.067 463.955 702.381 463.441Z" fill="#EEEBFE"/>
<path d="M570.946 83.4769L538.019 209.096L662.266 282.375L695.194 156.756L570.946 83.4769Z" fill="#EEEBFE"/>
<path d="M695.28 158.471C695.293 158.531 694.744 158.869 693.685 159.461C692.513 160.093 690.966 160.927 689.034 161.967C684.852 164.134 679.01 167.16 671.84 170.875C657.167 178.291 637.082 188.443 614.836 199.686L614.366 199.924L614.118 199.277C613.928 198.784 613.724 198.251 613.519 197.717C601.728 166.786 591.056 138.796 583.255 118.33C579.482 108.257 576.407 100.047 574.205 94.1683C573.204 91.4197 572.404 89.2201 571.798 87.5533C571.259 86.0305 570.994 85.2169 571.03 85.1845C571.066 85.1539 571.402 85.9063 572.009 87.3697C572.665 88.9933 573.53 91.1353 574.614 93.8137C576.898 99.6223 580.086 107.733 583.999 117.687C591.881 138.083 602.659 165.981 614.572 196.808C614.777 197.342 614.982 197.877 615.17 198.368L614.454 197.96C636.745 186.917 656.87 176.947 671.573 169.662C678.794 166.175 684.676 163.335 688.888 161.301C690.85 160.394 692.419 159.667 693.611 159.116C694.692 158.637 695.267 158.414 695.28 158.471Z" fill="#FBFAFF"/>
<path d="M538.045 210.813C537.885 210.372 551.743 198.661 568.993 184.663C586.249 170.659 600.362 159.668 600.522 160.111C600.681 160.552 586.826 172.259 569.57 186.263C552.32 200.261 538.203 211.254 538.045 210.813Z" fill="#FBFAFF"/>
<path d="M642.229 182.893C642.55 182.751 647.302 205.29 652.841 233.232C658.381 261.182 662.613 283.95 662.291 284.092C661.971 284.235 657.22 261.7 651.678 233.748C646.14 205.809 641.909 183.037 642.229 182.893Z" fill="#FBFAFF"/>
<path d="M793.837 821.742C793.837 822.001 639.859 822.21 449.96 822.21C259.997 822.21 106.051 821.999 106.051 821.742C106.051 821.483 259.997 821.274 449.96 821.274C639.859 821.272 793.837 821.483 793.837 821.742Z" fill="#2E2E2E"/>
<path d="M139.932 331.024L157.112 321.896L149.738 307.127C149.613 306.159 149.227 302.748 149.21 297.241C149.205 295.539 149.404 293.848 149.78 292.241C150.235 290.292 150.91 287.739 151.569 286.513C152.385 284.998 151.548 282.782 150.408 283.237C149.268 283.693 146.953 287.79 145.929 293.872C144.906 299.954 142.129 291.004 141.078 287.772C140.026 284.537 136.461 274.759 135.543 274.457C134.196 274.012 133.63 276.097 134.73 279.29C135.843 282.523 138.678 292.408 137.512 293.157C136.364 293.897 131.163 277.323 131.163 277.323C131.163 277.323 130.434 273.51 129.068 274.309C126.604 275.751 132.998 292.759 133.633 294.356C134.074 295.465 132.828 296.349 132.396 295.119C131.952 293.854 127.465 278.406 124.946 279.839C123.014 280.939 130.118 293.902 129.862 297.882C129.606 301.862 125.142 287.23 123.325 288.393C122.648 288.826 122.184 289.291 125.557 297.139C126.698 299.794 128.745 303.702 130.97 307.743L139.932 331.024Z" fill="#B78876"/>
<path d="M294.383 362.502C294.383 362.502 285.918 332.825 280.067 318.411C274.56 304.844 267.268 302.639 263.381 302.227C260.445 300.938 258.431 300.708 258.431 300.708L226.641 300.303C226.641 300.303 216.768 299.525 207.669 310.737C206.202 312.544 195.214 331.651 180.644 358.873L155.14 317.538L139.936 331.023C139.936 331.023 156.449 416.545 177.17 410.673C189.447 407.194 199.048 394.371 199.048 394.371L215.182 374.864L215.555 378.095C215.882 382.039 216.7 388.409 217.317 392.274C219.268 404.488 220.352 420.582 216.161 431.244C216.161 431.244 210.411 437.839 214.985 445.096H274.798C274.798 445.096 283.271 436.482 275.536 426.895L270.688 408.69L273.821 386.481L274.995 377.587L280.254 391.122C280.254 391.122 290.676 410.788 301.51 408.369C314.536 405.46 322.085 369.874 310.328 322.822L296.168 329.284L294.383 362.502Z" fill="#B2EBE1"/>
<g opacity="0.4">
<path d="M139.964 331.026L141.467 338.163L158.356 322.705L155.168 317.541L139.964 331.026Z" fill="#2E2E2E"/>
</g>
<g opacity="0.2">
<path d="M216.169 431.244C221.296 430.198 225.683 425.845 228.764 419.608C231.844 413.371 233.164 405.241 232.339 397.578C232.047 394.876 231.389 392.009 229.844 390.556C227.957 388.783 225.383 389.696 223.419 388.126C221.817 386.847 220.96 384.217 219.851 382.062C218.743 379.908 217.187 376.549 215.525 377.64C215.525 377.64 217.533 393.48 218.41 400.532C219.292 407.631 219.571 417.711 217.922 425.122C217.468 427.314 216.874 429.345 216.169 431.244Z" fill="#2E2E2E"/>
</g>
<path d="M178.229 373.476C178.04 373.433 178.343 370.042 179.116 366.044C179.886 362.055 180.461 358.831 180.629 358.871C180.817 358.914 180.515 362.305 179.742 366.305C178.972 370.292 178.397 373.516 178.229 373.476Z" fill="#2E2E2E"/>
<path d="M182.02 369.533C181.843 369.587 181.38 367.24 180.984 364.293C180.588 361.345 180.41 358.913 180.586 358.861C180.762 358.807 181.225 361.154 181.621 364.101C182.017 367.047 182.195 369.479 182.02 369.533Z" fill="#2E2E2E"/>
<path d="M296.14 264.751L274.424 317.538L291.515 324.668L310.472 280.812L296.14 264.751Z" fill="#454545"/>
<path d="M294.767 309.725L295.51 317.439L298.539 323.288L298.844 328.081L309.739 323.109L305.336 299.792C305.336 299.792 306.043 293.004 305.761 290.247L302.769 296.212L301.943 286.492L295.8 279.085C295.134 278.34 294.19 278.558 293.704 279.567C293.273 280.462 293.343 281.693 293.866 282.467L298.796 288.987L299.115 297.036L295.551 292.059C295.199 291.568 294.764 291.233 294.293 291.093L289.339 289.606C288.59 289.381 287.876 290.173 287.8 291.312C287.739 292.23 288.118 293.085 288.706 293.357L293.211 295.436L297.772 302.339L293.318 299.794L287.258 301.067C286.678 301.189 286.246 301.932 286.246 302.811C286.246 303.822 286.812 304.625 287.486 304.569L291.338 304.249L293.601 305.309L288.388 307.379C287.908 307.57 287.582 308.24 287.607 308.983C287.637 309.874 288.152 310.551 288.744 310.477L294.767 309.725Z" fill="#B78876"/>
<g opacity="0.4">
<path d="M296.238 329.287L295.774 337.934L312.294 331.098L310.398 322.827L296.238 329.287Z" fill="#2E2E2E"/>
</g>
<path d="M274.403 317.539C274.403 317.539 272.945 314.566 273.056 314.06C273.169 313.554 293.724 262.809 293.724 262.809L296.118 264.753L274.403 317.539Z" fill="#2E2E2E"/>
<path d="M301.573 278.021C301.94 277.47 302.678 277.751 302.827 278.496C302.974 279.241 302.458 280.083 301.951 279.923C301.443 279.763 301.196 278.683 301.531 278.089" fill="#2E2E2E"/>
<path d="M288.03 343.148C288.03 343.148 287.892 343.668 287.403 344.415C286.92 345.159 286.026 346.046 284.732 346.5C283.447 346.991 281.791 346.962 279.963 346.493C278.143 346.111 276.043 345.323 273.81 346.079C271.574 346.813 269.436 348.962 267.312 351.506C265.166 353.981 262.902 357.032 259.849 358.473C258.328 359.121 256.686 359.339 255.045 359.039C253.408 358.713 251.804 357.957 250.232 357.035C247.084 355.179 244.065 352.573 240.758 350.769C239.106 349.88 237.417 349.277 235.73 349.094C234.039 348.935 232.36 349.22 230.739 349.727C227.49 350.733 224.444 352.433 221.403 353.399C215.269 355.466 209.469 353.347 205.358 350.069C201.181 346.773 198.523 342.477 197.006 339.311C195.501 336.089 195.007 334.026 195.007 334.026C195.084 333.963 195.66 335.97 197.209 339.084C198.77 342.147 201.439 346.298 205.567 349.455C209.636 352.596 215.301 354.584 221.275 352.519C224.258 351.551 227.295 349.833 230.61 348.789C232.263 348.266 234.002 347.961 235.768 348.125C237.534 348.311 239.287 348.941 240.978 349.851C244.356 351.696 247.38 354.317 250.466 356.146C252.007 357.057 253.561 357.793 255.123 358.115C256.688 358.409 258.235 358.211 259.676 357.613C262.561 356.286 264.813 353.334 266.98 350.867C269.126 348.343 271.354 346.134 273.714 345.404C276.088 344.657 278.222 345.531 280.021 345.953C281.832 346.467 283.417 346.547 284.676 346.127C285.936 345.744 286.814 344.945 287.313 344.271C287.816 343.595 288.001 343.116 288.03 343.148Z" fill="#FBFAFF"/>
<path d="M294.745 377.438C294.565 377.448 294.346 373.873 294.255 369.456C294.163 365.037 294.234 361.449 294.414 361.442C294.594 361.433 294.814 365.008 294.905 369.427C294.996 373.842 294.924 377.429 294.745 377.438Z" fill="#2E2E2E"/>
<path d="M257.336 708.399C257.863 711.522 270.101 814.466 270.101 814.466L288.85 812.362L285.422 707.247L257.336 708.399Z" fill="#B78876"/>
<path d="M289.259 813.999L289.2 811.04L269.219 811.664L269.339 821.422L270.574 821.498C276.07 821.768 298.53 822.333 302.176 820.679C306.242 818.832 289.259 813.999 289.259 813.999Z" fill="#B2EBE1"/>
<g opacity="0.3">
<path d="M276.528 821.004C276.209 818.695 275.252 816.567 273.899 815.161C272.545 813.755 270.895 813.041 269.219 813.275L269.334 821.027L276.528 821.004Z" fill="#2E2E2E"/>
</g>
<g opacity="0.3">
<path d="M297.646 816.767C297.646 816.767 303.607 818.983 302.888 820.365C302.17 821.746 279.458 822.367 269.421 821.418L269.444 820.797L295.941 820.389C295.941 820.389 296.488 816.868 297.646 816.767Z" fill="#2E2E2E"/>
</g>
<path d="M269.08 820.794C269.08 820.807 269.198 820.819 269.423 820.836C269.718 820.852 270.041 820.872 270.407 820.891C271.39 820.924 272.6 820.963 274.026 821.01C277.082 821.08 281.306 821.098 285.968 820.976C290.632 820.852 294.851 820.612 297.903 820.382C299.327 820.26 300.533 820.157 301.515 820.074C301.878 820.035 302.201 819.999 302.495 819.966C302.72 819.937 302.837 819.918 302.836 819.905C302.835 819.892 302.717 819.891 302.493 819.898C302.198 819.91 301.874 819.927 301.509 819.943C300.527 819.997 299.319 820.065 297.893 820.144C294.84 820.314 290.622 820.515 285.96 820.639C281.301 820.76 277.08 820.78 274.025 820.773C272.598 820.767 271.39 820.764 270.407 820.76C270.042 820.762 269.718 820.765 269.423 820.767C269.199 820.774 269.081 820.783 269.08 820.794Z" fill="#2E2E2E"/>
<path d="M295.935 820.818C296.008 820.829 296.047 819.623 296.574 818.394C297.087 817.15 297.821 816.515 297.778 816.43C297.762 816.347 296.917 816.893 296.365 818.225C295.803 819.544 295.875 820.84 295.935 820.818Z" fill="#2E2E2E"/>
<path d="M290.11 816.826C290.166 816.875 290.44 816.391 290.721 815.745C291.001 815.098 291.183 814.537 291.126 814.488C291.07 814.44 290.796 814.924 290.515 815.57C290.233 816.216 290.052 816.778 290.11 816.826Z" fill="#2E2E2E"/>
<path d="M288.517 815.689C288.563 815.758 288.873 815.457 289.209 815.018C289.545 814.579 289.781 814.168 289.735 814.1C289.69 814.032 289.38 814.332 289.044 814.771C288.707 815.211 288.472 815.621 288.517 815.689Z" fill="#2E2E2E"/>
<path d="M287.479 813.092C287.48 813.186 287.945 813.256 288.519 813.248C289.094 813.241 289.558 813.16 289.557 813.069C289.556 812.977 289.09 812.907 288.517 812.912C287.943 812.919 287.477 813 287.479 813.092Z" fill="#2E2E2E"/>
<path d="M287 811.249C286.978 811.332 287.489 811.638 288.165 811.686C288.84 811.742 289.372 811.517 289.358 811.431C289.344 811.335 288.82 811.404 288.178 811.35C287.537 811.305 287.02 811.155 287 811.249Z" fill="#2E2E2E"/>
<path d="M290.653 814.386C290.652 814.424 291.144 814.494 291.931 814.339C292.324 814.262 292.788 814.12 293.286 813.884C293.533 813.752 293.793 813.653 294.059 813.414C294.184 813.293 294.322 813.124 294.367 812.852C294.417 812.584 294.31 812.287 294.163 812.145C292.929 811.295 291.719 812.287 291.279 813.18C291.035 813.637 290.928 814.078 290.879 814.381C290.832 814.687 290.839 814.861 290.853 814.863C290.898 814.885 290.928 814.159 291.412 813.326C291.651 812.917 292.015 812.518 292.489 812.307C292.938 812.107 293.58 812.041 294.015 812.41C294.221 812.613 294.147 812.948 293.923 813.142C293.716 813.338 293.446 813.461 293.212 813.59C292.732 813.835 292.283 813.999 291.903 814.103C291.139 814.318 290.652 814.332 290.653 814.386Z" fill="#2E2E2E"/>
<path d="M291.053 814.464C291.071 814.482 291.253 814.023 291.181 813.222C291.144 812.829 291.033 812.365 290.813 811.929C290.581 811.541 290.282 811.002 289.735 811.049C289.44 811.11 289.302 811.586 289.353 811.883C289.381 812.194 289.485 812.459 289.583 812.673C289.779 813.114 289.999 813.468 290.202 813.735C290.611 814.269 290.93 814.471 290.943 814.437C290.965 814.392 290.684 814.124 290.323 813.569C290.143 813.292 289.947 812.939 289.772 812.514C289.591 812.142 289.461 811.469 289.781 811.379C290.1 811.326 290.433 811.762 290.634 812.113C290.84 812.493 290.958 812.905 291.013 813.261C291.122 813.985 291.009 814.451 291.053 814.464Z" fill="#2E2E2E"/>
<path d="M269.421 813.181C269.426 813.244 269.99 813.089 270.891 813.213C271.784 813.327 273.029 813.802 274.125 814.968C275.219 816.136 275.875 817.69 276.188 818.862C276.509 820.042 276.55 820.842 276.596 820.833C276.61 820.831 276.615 820.631 276.589 820.273C276.562 819.915 276.494 819.398 276.35 818.782C276.07 817.558 275.414 815.921 274.273 814.7C273.13 813.485 271.825 813.03 270.905 812.976C270.442 812.943 270.067 812.985 269.812 813.044C269.555 813.103 269.417 813.161 269.421 813.181Z" fill="#2E2E2E"/>
<path d="M279.275 818.231C279.268 818.317 280.569 818.58 282.185 818.553C283.803 818.533 285.099 818.236 285.089 818.148C285.081 818.051 283.784 818.196 282.182 818.216C280.581 818.243 279.281 818.133 279.275 818.231Z" fill="#2E2E2E"/>
<path d="M275.289 818.32C275.241 818.388 275.401 818.701 275.54 819.113C275.683 819.524 275.757 819.891 275.825 819.884C275.89 819.882 275.921 819.443 275.757 818.969C275.596 818.492 275.331 818.251 275.289 818.32Z" fill="#2E2E2E"/>
<path d="M273.638 815.814C273.591 815.881 273.725 816.165 273.935 816.452C274.145 816.738 274.352 816.914 274.399 816.848C274.446 816.781 274.313 816.497 274.103 816.21C273.893 815.924 273.685 815.748 273.638 815.814Z" fill="#2E2E2E"/>
<path d="M271.628 814.698C271.643 814.791 271.907 814.78 272.201 814.917C272.498 815.043 272.709 815.265 272.76 815.2C272.813 815.148 272.64 814.757 272.273 814.597C271.908 814.433 271.606 814.613 271.628 814.698Z" fill="#2E2E2E"/>
<path d="M270.18 814.196C270.157 814.283 270.274 814.423 270.44 814.508C270.607 814.592 270.76 814.59 270.784 814.504C270.806 814.418 270.69 814.277 270.523 814.193C270.356 814.106 270.203 814.108 270.18 814.196Z" fill="#2E2E2E"/>
<path d="M209.637 699.808C209.541 703.025 201.743 803.281 201.743 803.281L220.1 809.376L237.027 707.244L209.637 699.808Z" fill="#B78876"/>
<path d="M220.993 812.041L221.406 809.146L201.9 802.618L200.468 812.138L201.656 812.653C206.951 814.877 228.677 823.445 232.479 823.141C236.721 822.797 220.993 812.041 220.993 812.041Z" fill="#B2EBE1"/>
<g opacity="0.3">
<path d="M207.424 814.309C207.48 811.953 206.889 809.544 205.798 807.696C204.707 805.847 203.218 804.564 201.551 804.193L200.433 811.764L207.424 814.309Z" fill="#2E2E2E"/>
</g>
<g opacity="0.3">
<path d="M228.594 817.708C228.594 817.708 234.031 821.989 233.115 823.074C232.198 824.159 210.04 816.651 200.443 812.146L200.563 811.55L226.363 820.615C226.363 820.615 227.454 817.391 228.594 817.708Z" fill="#2E2E2E"/>
</g>
<path d="M200.064 811.431C200.061 811.441 200.174 811.497 200.39 811.594C200.674 811.717 200.985 811.85 201.337 811.999C202.287 812.381 203.455 812.853 204.832 813.407C207.789 814.566 211.888 816.091 216.436 817.639C220.986 819.185 225.122 820.458 228.123 821.323C229.526 821.714 230.714 822.045 231.681 822.313C232.041 822.405 232.36 822.486 232.651 822.56C232.873 822.612 232.99 822.634 232.992 822.623C232.993 822.612 232.879 822.567 232.659 822.493C232.37 822.402 232.054 822.299 231.697 822.186C230.734 821.889 229.55 821.521 228.153 821.091C225.162 820.166 221.032 818.856 216.486 817.311C211.94 815.765 207.838 814.276 204.872 813.178C203.487 812.665 202.314 812.23 201.36 811.875C201.004 811.747 200.69 811.634 200.402 811.531C200.182 811.454 200.066 811.42 200.064 811.431Z" fill="#2E2E2E"/>
<path d="M226.199 821.024C226.268 821.062 226.497 819.904 227.204 818.896C227.899 817.872 228.714 817.516 228.685 817.418C228.683 817.332 227.775 817.561 227.029 818.657C226.273 819.74 226.137 821.024 226.199 821.024Z" fill="#2E2E2E"/>
<path d="M221.024 815.038C221.072 815.105 221.414 814.732 221.79 814.206C222.165 813.681 222.431 813.198 222.383 813.132C222.335 813.065 221.993 813.438 221.617 813.963C221.241 814.489 220.976 814.971 221.024 815.038Z" fill="#2E2E2E"/>
<path d="M219.775 813.339C219.809 813.422 220.156 813.24 220.552 812.934C220.948 812.628 221.243 812.313 221.21 812.23C221.177 812.148 220.829 812.329 220.433 812.635C220.037 812.941 219.743 813.256 219.775 813.339Z" fill="#2E2E2E"/>
<path d="M219.219 810.46C219.204 810.55 219.646 810.785 220.205 810.983C220.764 811.181 221.227 811.27 221.242 811.18C221.256 811.09 220.815 810.856 220.255 810.656C219.697 810.458 219.233 810.37 219.219 810.46Z" fill="#2E2E2E"/>
<path d="M219.018 808.532C218.984 808.605 219.432 809.084 220.08 809.374C220.727 809.669 221.279 809.64 221.279 809.552C221.281 809.455 220.76 809.333 220.146 809.052C219.53 808.778 219.051 808.449 219.018 808.532Z" fill="#2E2E2E"/>
<path d="M222.052 812.89C222.045 812.926 222.512 813.171 223.3 813.303C223.694 813.367 224.167 813.394 224.689 813.344C224.949 813.306 225.217 813.301 225.513 813.164C225.654 813.09 225.814 812.975 225.902 812.728C225.992 812.485 225.936 812.158 225.816 811.969C224.751 810.703 223.419 811.234 222.849 811.945C222.541 812.302 222.366 812.692 222.271 812.97C222.177 813.25 222.156 813.421 222.169 813.429C222.21 813.466 222.355 812.772 222.956 812.136C223.252 811.825 223.67 811.566 224.164 811.531C224.631 811.499 225.266 811.661 225.63 812.176C225.798 812.448 225.672 812.746 225.424 812.854C225.192 812.97 224.91 812.993 224.661 813.034C224.156 813.101 223.695 813.099 223.308 813.065C222.536 812.997 222.06 812.836 222.052 812.89Z" fill="#2E2E2E"/>
<path d="M222.263 813.086C222.278 813.111 222.528 812.728 222.586 811.925C222.612 811.531 222.579 811.04 222.434 810.537C222.27 810.077 222.066 809.448 221.526 809.297C221.23 809.25 221.021 809.663 221.024 809.97C221.001 810.284 221.061 810.577 221.121 810.82C221.242 811.318 221.399 811.741 221.554 812.073C221.866 812.739 222.144 813.047 222.164 813.02C222.192 812.984 221.962 812.623 221.699 811.956C221.568 811.623 221.435 811.21 221.331 810.733C221.214 810.307 221.194 809.607 221.519 809.634C221.837 809.697 222.092 810.238 222.232 810.651C222.372 811.093 222.422 811.536 222.418 811.902C222.407 812.647 222.224 813.059 222.263 813.086Z" fill="#2E2E2E"/>
<path d="M201.779 804.148C201.774 804.211 202.345 804.263 203.202 804.704C204.05 805.132 205.186 806.04 206.064 807.564C206.941 809.091 207.331 810.833 207.449 812.082C207.574 813.344 207.487 814.134 207.532 814.141C207.546 814.145 207.582 813.952 207.613 813.596C207.644 813.24 207.66 812.712 207.617 812.064C207.54 810.775 207.162 808.95 206.248 807.359C205.332 805.77 204.136 804.862 203.251 804.481C202.806 804.285 202.435 804.191 202.178 804.157C201.923 804.121 201.78 804.128 201.779 804.148Z" fill="#2E2E2E"/>
<path d="M210.195 812.491C210.175 812.574 211.396 813.292 212.971 813.843C214.545 814.401 215.851 814.575 215.855 814.487C215.863 814.39 214.58 814.069 213.021 813.515C211.462 812.97 210.217 812.399 210.195 812.491Z" fill="#2E2E2E"/>
<path d="M206.419 811.2C206.361 811.25 206.467 811.61 206.537 812.06C206.611 812.508 206.624 812.894 206.691 812.91C206.754 812.931 206.855 812.516 206.771 811.997C206.689 811.477 206.471 811.148 206.419 811.2Z" fill="#2E2E2E"/>
<path d="M205.45 808.219C205.395 808.268 205.477 808.592 205.637 808.943C205.795 809.295 205.969 809.542 206.026 809.493C206.081 809.445 205.998 809.121 205.839 808.768C205.679 808.417 205.505 808.17 205.45 808.219Z" fill="#2E2E2E"/>
<path d="M203.504 806.395C203.504 806.493 203.762 806.575 204.028 806.813C204.295 807.042 204.466 807.331 204.526 807.286C204.586 807.254 204.479 806.813 204.149 806.527C203.82 806.237 203.498 806.304 203.504 806.395Z" fill="#2E2E2E"/>
<path d="M202.202 805.351C202.166 805.429 202.257 805.605 202.405 805.747C202.554 805.89 202.703 805.942 202.739 805.866C202.775 805.791 202.683 805.612 202.536 805.47C202.387 805.328 202.238 805.276 202.202 805.351Z" fill="#2E2E2E"/>
<path d="M278.618 253.377C278.12 251.239 276.913 249.626 276.327 247.538C275.45 244.413 276.093 240.867 276.333 237.496C276.572 234.125 276.103 230.035 274.042 228.642C273.194 228.068 272.193 228.06 271.404 227.324C269.802 225.828 269.886 222.394 269.738 219.572C269.642 217.732 269.322 215.88 268.796 214.204C268.905 214.152 269.018 214.1 269.133 214.046C271.713 213.047 274.479 215.396 275.268 218.603C275.686 220.18 275.652 221.971 275.059 223.121C274.482 224.295 273.434 224.788 272.728 224.246C272.016 223.703 271.678 222.396 271.878 221.512C272.056 220.563 272.734 220.311 273.188 220.407C273.667 220.491 273.98 220.869 274.118 221.183C274.255 221.503 274.268 221.73 274.303 221.721C274.316 221.723 274.358 221.487 274.245 221.078C274.13 220.679 273.789 220.162 273.235 219.995C272.962 219.912 272.637 219.906 272.302 220.092C271.965 220.259 271.642 220.718 271.501 221.312C271.207 222.509 271.567 224.118 272.494 224.914C273.47 225.702 274.791 225.081 275.527 223.663C276.308 222.198 276.342 220.056 275.883 218.247C275.049 214.791 272.343 212.294 269.572 212.865C270.169 211.416 270.254 209.591 269.94 208.082C269.51 205.983 268.345 204.576 267.171 203.915C265.982 203.224 264.722 203.238 263.654 203.629C262.574 204.011 261.655 204.718 260.882 205.469C260.104 206.23 259.504 207.065 258.92 207.625C258.34 208.201 257.781 208.503 257.301 208.561C256.323 208.692 255.876 208.014 255.848 208.109C255.805 208.106 256.221 208.975 257.316 208.971C257.844 208.979 258.493 208.694 259.126 208.129C259.77 207.58 260.397 206.779 261.148 206.102C262.611 204.772 264.793 203.546 266.934 204.828C267.966 205.433 268.94 206.684 269.272 208.385C269.61 210.01 269.341 212.042 268.444 213.189C267.81 211.545 266.953 210.132 265.846 209.196C263.449 207.166 259.902 208.154 258.685 211.86L238.995 201.723C236.578 198.519 233.016 197.574 229.951 198.994C229.815 198.958 229.686 198.92 229.538 198.897C228.618 198.755 227.433 198.879 226.212 199.723C224.954 200.533 223.934 202.333 222.864 204.111C222.316 204.993 221.715 205.875 220.975 206.46C220.855 206.554 220.725 206.621 220.599 206.693C219.741 206.853 218.858 206.86 217.969 206.829C216.312 206.261 214.598 204.833 212.556 204.52C211.453 204.322 210.282 204.387 209.143 204.887C208.004 205.397 206.925 206.365 206.1 207.773C205.264 209.164 204.772 211.099 204.783 213.027C204.775 214.429 204.963 215.79 205.214 217.111C204.782 218.891 204.568 220.783 204.634 222.687C204.722 225.188 205.202 227.807 205.22 230.269C204.754 230.827 204.202 231.239 203.608 231.502C202.569 231.993 201.457 232.229 200.402 232.838C198.277 234.09 196.785 236.771 196.148 239.593C195.574 242.147 195.618 245.099 196.681 247.031C196.22 250.341 196.629 253.941 198.069 256.558C199.029 258.304 200.338 259.605 201.156 261.51C202.449 264.525 202.264 268.386 202.591 271.939C202.917 275.49 204.29 279.503 206.676 279.737C208.598 279.926 210.324 277.505 212.245 277.74C214.939 278.072 216.04 282.912 217.598 286.226C219.567 290.412 223.149 292.752 226.533 292.063C228.981 291.563 231.408 289.62 233.803 290.533C236.815 291.68 238.624 296.975 241.7 297.638C243.99 298.129 246.109 295.848 247.808 293.494C249.507 291.14 251.236 288.454 253.513 287.842C256.252 287.104 258.891 289.59 261.649 290.157C265.209 290.891 268.98 288.053 270.716 283.333C272.232 279.213 272.227 274.157 273.644 269.957C274.592 267.144 276.123 264.881 277.3 262.271C278.476 259.661 279.312 256.353 278.618 253.377ZM199.659 240.093C199.224 239.953 198.984 240.045 198.984 240.045C198.982 240.093 199.184 240.099 199.522 240.246C199.4 240.381 199.272 240.507 199.154 240.651C198.025 242.028 197.246 243.931 196.83 246.012C196.2 244.361 196.208 241.989 196.71 239.888C197.316 237.307 198.716 234.864 200.638 233.765C201.602 233.216 202.696 232.992 203.812 232.483C204.272 232.29 204.741 231.972 205.183 231.57C205.112 232.539 204.944 233.473 204.616 234.357C203.586 237.122 201.402 238.257 199.659 240.093ZM213.099 206.979C209.89 207.751 207.121 211.157 205.681 215.5C205.564 214.676 205.489 213.853 205.494 213.041C205.488 211.324 205.897 209.706 206.628 208.466C208.094 205.91 210.434 205.114 212.481 205.505C213.619 205.652 214.669 206.203 215.71 206.747C214.831 206.732 213.956 206.772 213.099 206.979ZM222.975 205.728C222.734 205.893 222.484 206.001 222.236 206.124C222.607 205.643 222.936 205.128 223.237 204.624C224.311 202.765 225.236 201.064 226.386 200.267C227.421 199.494 228.445 199.287 229.292 199.316C228.778 199.62 228.279 199.98 227.811 200.43C226.126 202.047 224.794 204.475 222.975 205.728Z" fill="#2E2E2E"/>
<path d="M265.413 267.564C266.351 258.696 266.055 244.155 265.555 232.268C265.107 221.569 258.815 213.584 251.709 214.711L231.083 217.983C228.924 218.325 227.299 221.09 227.341 224.346L229.468 300.351C226.613 300.364 224.698 300.369 224.698 300.369V314.134C224.698 329.88 233.208 342.646 243.706 342.646C254.203 342.646 262.714 329.88 262.714 314.134V302.223C262.714 302.223 257.772 299.804 254.772 300.049C254.603 300.063 254.346 300.076 254.033 300.089C254.055 293.119 254.415 287.669 254.415 287.669C254.415 287.669 263.525 285.397 265.413 267.564Z" fill="#B78876"/>
<path d="M262.578 243.81C262.606 245.017 261.948 246.049 261.108 246.117C260.269 246.184 259.564 245.262 259.536 244.054C259.507 242.847 260.166 241.813 261.004 241.745C261.844 241.678 262.549 242.602 262.578 243.81Z" fill="#2E2E2E"/>
<path d="M263.506 239.829C263.316 240.128 262.162 238.845 260.52 238.852C258.881 238.823 257.678 240.089 257.499 239.788C257.411 239.655 257.604 239.117 258.129 238.544C258.645 237.974 259.526 237.419 260.547 237.426C261.569 237.435 262.428 237.999 262.923 238.577C263.428 239.156 263.598 239.696 263.506 239.829Z" fill="#2E2E2E"/>
<path d="M246.477 243.821C246.505 245.029 245.846 246.061 245.007 246.129C244.168 246.196 243.463 245.274 243.435 244.066C243.406 242.858 244.065 241.825 244.903 241.757C245.743 241.69 246.448 242.614 246.477 243.821Z" fill="#2E2E2E"/>
<path d="M247.462 240.294C247.272 240.593 246.115 239.311 244.476 239.316C242.837 239.288 241.633 240.553 241.455 240.252C241.367 240.119 241.558 239.581 242.085 239.008C242.601 238.438 243.48 237.883 244.503 237.891C245.525 237.9 246.384 238.463 246.879 239.041C247.383 239.622 247.554 240.161 247.462 240.294Z" fill="#2E2E2E"/>
<path d="M253.215 258.548C253.208 258.407 254.227 258.143 255.881 257.826C256.299 257.761 256.695 257.637 256.766 257.207C256.865 256.753 256.689 256.075 256.487 255.344C256.093 253.823 255.68 252.23 255.247 250.558C253.526 243.745 252.281 238.141 252.464 238.04C252.648 237.94 254.191 243.379 255.912 250.192C256.326 251.872 256.722 253.474 257.099 255.005C257.257 255.72 257.529 256.53 257.316 257.471C257.203 257.941 256.896 258.281 256.627 258.389C256.358 258.512 256.123 258.519 255.915 258.537C254.253 258.677 253.221 258.688 253.215 258.548Z" fill="#2E2E2E"/>
<path d="M254.501 287.675C254.501 287.675 246.503 288.449 238.579 281.305C238.579 281.305 242.442 293.556 254.341 291.887L254.501 287.675Z" fill="#B78876"/>
<path d="M252.707 264.47C252.116 263.3 251.083 262.658 250.056 262.823C249.344 262.938 248.624 263.453 248.192 264.323C247.759 265.192 247.669 266.427 248.063 267.257C248.505 268.191 249.431 268.407 250.214 268.072C250.998 267.739 251.671 266.965 252.311 266.195C252.488 265.982 252.668 265.759 252.78 265.467C252.89 265.176 252.914 264.792 252.777 264.551" fill="#B78876"/>
<path d="M248.504 260.242C248.771 260.219 248.774 262.89 250.299 264.787C251.821 266.69 253.719 266.389 253.734 266.764C253.759 266.931 253.311 267.282 252.51 267.315C251.724 267.354 250.575 266.976 249.643 265.817C248.713 264.654 248.313 263.103 248.252 262.006C248.184 260.889 248.383 260.228 248.504 260.242Z" fill="#2E2E2E"/>
<path d="M248.202 235.98C248.04 236.65 246.402 236.333 244.477 236.68C242.547 236.97 240.994 237.816 240.739 237.215C240.625 236.927 240.896 236.299 241.524 235.651C242.145 235.005 243.139 234.389 244.294 234.196C245.45 234.007 246.508 234.283 247.209 234.709C247.916 235.138 248.271 235.663 248.202 235.98Z" fill="#2E2E2E"/>
<path d="M262.99 234.812C262.701 235.372 261.572 234.79 260.212 234.763C258.854 234.664 257.702 235.14 257.438 234.555C257.321 234.27 257.503 233.71 258.005 233.181C258.501 232.654 259.33 232.224 260.264 232.265C261.197 232.31 262.006 232.816 262.48 233.388C262.96 233.964 263.117 234.538 262.99 234.812Z" fill="#2E2E2E"/>
<path d="M270.174 216.358C269.362 211.61 266.96 207.203 263.746 206.31C261.65 205.727 259.494 206.66 257.367 206.453C255.612 206.282 254.974 204.188 253.304 203.364C250.517 201.992 248.379 197.35 242.367 198.32C240.762 198.579 238.697 201.366 237.226 204.545C234.923 203.054 231.886 204.658 230.226 205.747C226.787 208.004 224.636 213.813 223.958 219.715C223.28 225.617 223.833 231.687 224.388 237.621C224.642 240.332 224.895 243.043 225.149 245.756C225.317 247.554 225.518 249.406 226.107 250.94L223.37 289.116C228.81 292.156 235.619 286.544 236.825 278.026C237.887 270.522 235.103 262.875 235.544 255.233C235.806 250.684 237.52 246.443 237.509 241.877C237.506 240.464 237.357 238.961 237.086 237.434L237.087 237.432C241.924 231.548 243.155 226.809 242.952 221.295C244.443 222.813 246.183 223.761 247.988 223.796C250.535 223.844 253.18 222.363 255.564 223.711C257.282 224.681 258.497 226.935 259.803 228.868C261.108 230.801 262.803 232.589 264.62 232.207C265.496 232.022 266.288 231.348 267.118 230.889C267.948 230.43 268.925 230.209 269.684 230.891C270.476 226.137 270.986 221.106 270.174 216.358Z" fill="#2E2E2E"/>
<path d="M199.041 255.425C199.094 255.298 200.279 257.103 202.986 258.811C204.334 259.632 206.081 260.408 208.151 260.449C210.199 260.494 212.613 259.774 214.718 257.481C216.795 255.256 218.658 251.57 218.969 247.037C219.122 244.813 218.88 242.393 218.075 240.35C217.299 238.311 215.816 236.777 214.175 236.714C213.363 236.677 212.557 237.076 211.91 237.832C211.263 238.597 210.801 239.72 210.523 240.937C209.985 243.409 210.249 246.296 211.434 248.382C212.561 250.52 214.308 251.876 216.142 252.578C217.99 253.265 219.982 253.294 221.904 252.722C223.828 252.142 225.648 250.94 227.148 249.178C228.649 247.414 229.779 245.068 230.397 242.465C231.033 239.875 231.167 237.067 230.826 234.475C230.653 233.181 230.365 231.93 229.938 230.81C229.517 229.678 229.005 228.679 228.324 227.961C227.666 227.227 226.883 226.732 226.12 226.721C225.359 226.692 224.645 227.304 224.288 228.267C223.927 229.226 223.861 230.436 224.054 231.493C224.245 232.558 224.689 233.505 225.217 234.275C227.443 237.334 230.478 238.27 233.011 237.865C235.593 237.481 237.756 235.681 239.177 233.469C240.619 231.251 241.394 228.753 241.811 226.674C242.587 222.417 242.072 219.911 242.184 219.926C242.184 219.926 242.315 220.516 242.374 221.684C242.434 222.847 242.429 224.606 242.054 226.777C241.665 228.92 240.907 231.514 239.438 233.849C237.991 236.178 235.748 238.109 233.061 238.552C230.419 239.006 227.259 238.117 224.844 234.86C224.263 234.023 223.753 232.978 223.519 231.714C223.29 230.465 223.347 229.055 223.794 227.844C224.233 226.618 225.176 225.808 226.121 225.844C227.063 225.855 227.942 226.431 228.679 227.237C229.436 228.024 230.025 229.167 230.473 230.368C230.936 231.572 231.25 232.913 231.437 234.295C231.808 237.064 231.668 240.039 230.999 242.793C230.349 245.558 229.135 248.08 227.55 249.943C225.963 251.811 224.049 253.075 222.035 253.681C220.017 254.281 217.94 254.252 215.987 253.523C214.054 252.778 212.182 251.341 210.938 248.981C210.311 247.838 209.874 246.427 209.709 244.967C209.552 243.509 209.645 242.024 209.936 240.649C210.249 239.29 210.774 238.012 211.533 237.118C212.294 236.228 213.26 235.768 214.193 235.82C216.074 235.904 217.725 237.672 218.569 239.918C219.441 242.17 219.68 244.753 219.506 247.126C219.146 251.953 217.164 255.766 214.985 258.048C212.772 260.404 210.246 261.101 208.145 260.998C206.016 260.905 204.243 260.053 202.889 259.166C201.527 258.269 200.564 257.294 199.945 256.588C199.628 256.248 199.41 255.942 199.259 255.749C199.107 255.546 199.034 255.438 199.041 255.425Z" fill="#454545"/>
<path d="M270.872 224.414C270.88 224.432 270.7 224.678 270.299 225.017C269.901 225.357 269.273 225.784 268.41 226.05C267.55 226.293 266.45 226.385 265.221 225.969C263.996 225.562 262.664 224.603 261.472 223.042C260.278 221.487 259.223 219.356 258.516 216.758C258.185 215.468 257.955 213.848 258.419 212.329C258.644 211.601 259.013 210.928 259.536 210.534C260.052 210.125 260.733 210.136 261.258 210.566C262.293 211.416 262.868 213.367 262.496 215.138C262.146 216.881 261.183 218.125 260.147 218.893C258.028 220.456 255.453 220.247 253.199 219.043C252.059 218.445 250.991 217.644 249.996 216.726C249.021 215.77 248.048 214.859 247.269 213.473C246.494 212.14 246.183 209.908 247 208.358C247.394 207.589 248.12 207.249 248.717 207.445C249.318 207.634 249.824 208.147 250.184 208.826C250.547 209.492 250.732 210.431 250.652 211.272C250.583 212.116 250.328 212.878 249.988 213.484C249.302 214.69 248.31 215.369 247.348 215.477C246.386 215.605 245.478 215.317 244.659 214.946C243.838 214.559 243.081 214.112 242.367 213.623C240.944 212.649 239.741 211.339 239.013 209.769C238.263 208.199 238.088 206.477 238.151 205.163C238.215 203.822 238.565 202.866 238.851 202.326C239.151 201.79 239.375 201.624 239.375 201.624C239.465 201.674 238.484 202.589 238.403 205.184C238.38 206.425 238.586 208.032 239.306 209.447C240.014 210.885 241.163 212.089 242.555 212.995C243.948 213.833 245.571 214.894 247.294 214.672C248.139 214.564 248.978 213.954 249.546 212.937C250.114 211.942 250.308 210.415 249.711 209.384C249.18 208.318 248.024 207.85 247.479 208.948C247.208 209.45 247.102 210.183 247.16 210.894C247.206 211.609 247.438 212.273 247.762 212.876C248.421 214.057 249.393 214.994 250.334 215.903C251.295 216.785 252.323 217.554 253.409 218.123C255.562 219.269 257.942 219.44 259.865 218.035C260.8 217.352 261.623 216.249 261.898 214.872C262.204 213.554 261.729 211.976 260.976 211.36C260.21 210.685 259.272 211.506 258.934 212.69C258.557 213.857 258.714 215.266 259.017 216.47C259.662 218.933 260.655 221.015 261.773 222.526C262.893 224.047 264.142 224.999 265.302 225.438C266.468 225.886 267.526 225.856 268.364 225.676C270.053 225.251 270.839 224.304 270.872 224.414Z" fill="#454545"/>
<path d="M236.238 266.282C236.248 266.3 236.089 266.543 235.73 266.898C235.374 267.25 234.798 267.704 233.988 267.947C233.185 268.192 232.139 268.231 231.016 267.659C229.931 267.083 228.644 265.956 228.042 263.775C227.747 262.743 227.749 261.172 228.498 260.257C229.196 259.336 230.342 259.41 231.085 260.254C232.597 261.888 233.224 265.013 232.927 267.934C232.655 270.832 231.504 273.945 229.454 275.307C227.449 276.699 224.974 276.315 223.004 274.591C222.019 273.723 221.144 272.582 220.534 271.138C219.92 269.722 219.636 267.882 219.949 266.23C220.103 265.416 220.366 264.628 220.794 264.03C221.213 263.426 221.81 263.071 222.386 263.109C223.549 263.168 224.483 264.362 224.957 265.697C225.449 267.049 225.618 268.514 225.661 269.9C225.703 271.295 225.612 272.654 225.401 273.921C224.981 276.456 224.13 278.645 223.036 280.16C221.947 281.703 220.604 282.443 219.439 282.588C218.263 282.759 217.247 282.38 216.498 281.886C215.747 281.375 215.242 280.768 214.943 280.309C214.644 279.847 214.518 279.566 214.532 279.55C214.586 279.447 215.122 280.641 216.595 281.537C217.325 281.955 218.297 282.259 219.401 282.046C220.499 281.854 221.723 281.128 222.72 279.658C223.722 278.212 224.502 276.132 224.876 273.732C225.065 272.534 225.139 271.25 225.09 269.945C225.042 268.644 224.867 267.294 224.434 266.134C224.021 264.984 223.24 264.074 222.372 264.038C221.504 263.967 220.79 265.112 220.564 266.477C220.309 267.846 220.536 269.353 221.08 270.618C221.617 271.891 222.426 272.951 223.33 273.745C225.14 275.332 227.401 275.667 229.189 274.436C231.005 273.255 232.066 270.467 232.334 267.801C232.628 265.134 232.045 262.317 230.778 260.916C230.167 260.218 229.344 260.187 228.817 260.837C228.282 261.462 228.234 262.619 228.473 263.532C228.958 265.434 230.13 266.568 231.138 267.144C232.18 267.729 233.171 267.751 233.944 267.573C235.512 267.177 236.198 266.16 236.238 266.282Z" fill="#454545"/>
<path d="M186.704 703.843C186.704 703.843 194.722 727.231 215.661 715.871C215.661 715.871 236.154 732.577 255.756 713.866C255.756 713.866 281.14 718.971 294.951 708.948L277.188 479.189L274.939 443.902H218.935C218.935 443.902 202.296 455.262 199.623 510.725C196.951 566.188 191.159 642.366 191.159 642.366L186.704 703.843Z" fill="#2E2E2E"/>
<path d="M254.534 714.574C254.523 714.576 254.501 714.34 254.471 713.883C254.441 713.379 254.401 712.704 254.35 711.846C254.254 709.999 254.119 707.367 253.945 704.001C253.599 697.188 253.162 687.324 252.681 675.129C251.714 650.741 250.677 617.02 250.133 579.749C249.599 542.466 249.659 508.705 249.921 484.277C250.049 472.062 250.199 462.18 250.348 455.353C250.425 451.98 250.485 449.343 250.527 447.492C250.553 446.632 250.574 445.955 250.589 445.449C250.607 444.988 250.622 444.753 250.633 444.754C250.643 444.754 250.651 444.992 250.654 445.453C250.654 445.96 250.654 446.637 250.654 447.499C250.64 449.35 250.619 451.99 250.593 455.364C250.539 462.245 250.46 472.114 250.364 484.288C250.216 508.712 250.225 542.46 250.759 579.731C251.302 616.989 252.269 650.701 253.123 675.095C253.571 687.25 253.934 697.105 254.188 703.98C254.312 707.349 254.409 709.986 254.476 711.835C254.501 712.697 254.521 713.372 254.535 713.88C254.545 714.337 254.545 714.574 254.534 714.574Z" fill="#454545"/>
<path d="M259.426 648.853C259.412 648.812 259.545 648.61 259.863 648.484C260.177 648.353 260.684 648.362 261.226 648.743C261.748 649.127 262.35 649.912 262.515 651.173C262.7 652.45 262.166 653.879 261.351 654.55C260.549 655.259 259.457 655.216 258.82 654.325C258.182 653.467 258.04 652.289 258.087 651.422C258.146 650.527 258.4 649.87 258.635 649.534C258.87 649.188 259.054 649.118 259.07 649.159C259.149 649.265 258.518 649.91 258.527 651.451C258.536 652.178 258.716 653.098 259.188 653.665C259.646 654.253 260.409 654.277 261.04 653.737C261.671 653.198 262.048 652.203 261.945 651.312C261.861 650.412 261.426 649.71 261.015 649.328C260.139 648.526 259.446 649.008 259.426 648.853Z" fill="#454545"/>
<path d="M258.233 580.58C258.218 580.539 258.351 580.337 258.669 580.211C258.984 580.08 259.49 580.089 260.033 580.47C260.555 580.854 261.157 581.639 261.321 582.9C261.506 584.177 260.972 585.606 260.157 586.277C259.356 586.986 258.264 586.941 257.627 586.052C256.988 585.194 256.847 584.016 256.893 583.149C256.952 582.254 257.207 581.597 257.442 581.261C257.677 580.915 257.861 580.845 257.876 580.886C257.955 580.992 257.324 581.637 257.334 583.178C257.342 583.903 257.522 584.823 257.995 585.392C258.452 585.978 259.215 586.004 259.847 585.464C260.478 584.925 260.855 583.93 260.751 583.039C260.667 582.139 260.233 581.437 259.821 581.054C258.944 580.253 258.253 580.735 258.233 580.58Z" fill="#454545"/>
<path d="M257.508 520.248C257.494 520.206 257.627 520.007 257.945 519.879C258.259 519.747 258.766 519.756 259.308 520.138C259.83 520.521 260.432 521.306 260.597 522.568C260.782 523.844 260.248 525.273 259.433 525.945C258.631 526.654 257.539 526.609 256.902 525.72C256.264 524.861 256.122 523.684 256.169 522.816C256.228 521.922 256.482 521.265 256.717 520.928C256.952 520.583 257.136 520.512 257.152 520.554C257.231 520.658 256.6 521.304 256.609 522.845C256.618 523.572 256.798 524.49 257.27 525.059C257.728 525.648 258.491 525.671 259.122 525.131C259.753 524.593 260.13 523.598 260.027 522.707C259.943 521.807 259.508 521.105 259.097 520.721C258.22 519.918 257.528 520.403 257.508 520.248Z" fill="#454545"/>
<path d="M256.061 455.693C256.046 455.651 256.179 455.45 256.497 455.324C256.812 455.192 257.318 455.201 257.859 455.583C258.381 455.966 258.984 456.751 259.148 458.013C259.333 459.289 258.799 460.718 257.984 461.39C257.183 462.099 256.091 462.054 255.453 461.165C254.815 460.306 254.673 459.129 254.72 458.261C254.779 457.367 255.033 456.711 255.269 456.373C255.504 456.027 255.687 455.957 255.703 455.999C255.782 456.105 255.151 456.749 255.161 458.29C255.169 459.017 255.349 459.937 255.822 460.504C256.279 461.091 257.042 461.116 257.673 460.576C258.305 460.038 258.681 459.042 258.578 458.151C258.494 457.251 258.06 456.549 257.648 456.168C256.772 455.363 256.081 455.847 256.061 455.693Z" fill="#454545"/>
<path d="M328.785 310.599L570.168 308.898L576.896 468.092L326.953 465.844L328.785 310.599Z" fill="#664EFE"/>
<path d="M328.82 310.602L443.06 220.933C447.898 217.136 454.819 217.158 459.632 220.984L570.204 308.901" fill="#664EFE"/>
<g opacity="0.3">
<path d="M328.82 310.602L443.06 220.933C447.898 217.136 454.819 217.158 459.632 220.984L570.204 308.901" fill="#2E2E2E"/>
</g>
<path d="M326.957 465.843C326.656 465.569 345.98 445.102 370.113 420.135C394.256 395.159 414.063 375.14 414.365 375.414C414.666 375.688 395.345 396.151 371.204 421.126C347.07 446.094 327.257 466.117 326.957 465.843Z" fill="#2E2E2E"/>
<path d="M576.939 468.095C576.63 468.361 557.811 448.308 534.91 423.311C512.001 398.304 493.687 377.825 493.996 377.559C494.304 377.293 513.12 397.342 536.029 422.348C558.929 447.344 577.247 467.829 576.939 468.095Z" fill="#2E2E2E"/>
<g opacity="0.5">
<path d="M570.203 308.898L448.994 402.827L328.82 310.599" fill="#2E2E2E"/>
</g>
<path d="M341.017 319.299L340.641 246.168L552.004 243.744L554.385 320.69L449.023 401.6L341.017 319.299Z" fill="#FBFAFF"/>
<path d="M341.034 319.296C341.034 319.296 341.718 319.793 343.016 320.769C344.318 321.753 346.24 323.206 348.75 325.103C353.772 328.913 361.141 334.504 370.561 341.651C389.382 355.963 416.392 376.502 449.174 401.43L448.904 401.431C479.256 378.107 515.269 350.433 554.238 320.488L554.138 320.696C553.682 306.016 553.205 290.617 552.718 274.945C552.392 264.396 552.07 253.971 551.754 243.75L552.023 243.999C466.846 244.939 391.707 245.768 340.659 246.332L340.828 246.165C340.911 269.175 340.977 287.445 341.022 299.972C341.035 306.234 341.045 311.06 341.051 314.328C341.05 315.956 341.049 317.194 341.048 318.034C341.046 318.866 341.034 319.296 341.034 319.296C341.034 319.296 341.018 318.88 341.005 318.053C340.996 317.218 340.983 315.985 340.964 314.365C340.938 311.102 340.898 306.284 340.847 300.032C340.763 287.492 340.64 269.202 340.485 246.167L340.484 246.002L340.654 246C391.702 245.393 466.84 244.498 552.015 243.485L552.275 243.482L552.284 243.735C552.601 253.955 552.923 264.38 553.251 274.93C553.735 290.602 554.211 306.001 554.664 320.681L554.668 320.81L554.564 320.89C515.574 350.81 479.541 378.461 449.174 401.765L449.039 401.869L448.904 401.766C416.146 376.753 389.157 356.146 370.35 341.785C360.971 334.607 353.634 328.991 348.634 325.164C346.148 323.254 344.244 321.792 342.956 320.801C341.678 319.811 341.034 319.296 341.034 319.296Z" fill="#2E2E2E"/>
<path d="M518.544 280.567C518.545 280.71 486.221 281.015 446.355 281.251C406.475 281.486 374.157 281.56 374.156 281.417C374.155 281.274 406.472 280.969 446.352 280.733C486.218 280.499 518.543 280.424 518.544 280.567Z" fill="#2E2E2E"/>
<path d="M518.544 301.222C518.545 301.365 486.221 301.671 446.355 301.906C406.475 302.141 374.157 302.216 374.156 302.073C374.155 301.93 406.472 301.624 446.352 301.389C486.218 301.154 518.543 301.079 518.544 301.222Z" fill="#2E2E2E"/>
<path d="M518.544 325.033C518.545 325.176 486.221 325.481 446.355 325.717C406.475 325.951 374.157 326.026 374.156 325.883C374.155 325.74 406.472 325.435 446.352 325.199C486.218 324.964 518.543 324.89 518.544 325.033Z" fill="#2E2E2E"/>
<path d="M518.54 348.842C518.541 348.985 487.703 349.281 449.669 349.506C411.623 349.73 380.79 349.796 380.789 349.653C380.788 349.51 411.62 349.213 449.666 348.988C487.699 348.765 518.539 348.7 518.54 348.842Z" fill="#2E2E2E"/>
<path d="M491.496 369.737C491.496 369.755 491.204 369.774 490.649 369.795C490.045 369.811 489.237 369.833 488.222 369.859C486.059 369.893 483.022 369.942 479.292 370.002C471.706 370.107 461.313 370.252 449.832 370.412C438.323 370.598 427.903 370.661 420.362 370.67C416.631 370.661 413.593 370.654 411.431 370.649C410.415 370.635 409.606 370.624 409.003 370.616C408.448 370.603 408.156 370.587 408.156 370.569C408.156 370.551 408.448 370.533 409.003 370.512C409.606 370.496 410.415 370.474 411.43 370.448C413.592 370.413 416.629 370.365 420.359 370.305C427.945 370.2 438.339 370.055 449.824 369.895C461.329 369.709 471.748 369.646 479.289 369.637C483.02 369.646 486.057 369.653 488.22 369.658C489.236 369.672 490.044 369.683 490.648 369.691C491.204 369.704 491.496 369.72 491.496 369.737Z" fill="#2E2E2E"/>
<path d="M464.293 389.825C464.293 389.968 457.4 390.083 448.901 390.083C440.398 390.083 433.508 389.967 433.508 389.825C433.508 389.682 440.398 389.567 448.901 389.567C457.4 389.566 464.293 389.682 464.293 389.825Z" fill="#2E2E2E"/>
<path d="M535.453 373.606C549.553 373.606 560.984 362.518 560.984 348.84C560.984 335.162 549.553 324.074 535.453 324.074C521.353 324.074 509.922 335.162 509.922 348.84C509.922 362.518 521.353 373.606 535.453 373.606Z" fill="#2E2E2E"/>
<path d="M528.765 373.606C542.866 373.606 554.297 362.518 554.297 348.84C554.297 335.162 542.866 324.074 528.765 324.074C514.665 324.074 503.234 335.162 503.234 348.84C503.234 362.518 514.665 373.606 528.765 373.606Z" fill="#DC362E"/>
<path d="M532.048 337.307V357.898H528.106V340.513H523.617V337.307H532.048Z" fill="white"/>
<path d="M345.242 208.433L372.62 208.421L368.919 202.04L368.915 186.758C368.913 178.494 364.445 171.796 358.936 171.798C353.426 171.801 348.962 178.503 348.963 186.767L348.967 201.309L345.242 208.433Z" fill="#664EFE"/>
<path d="M355.075 206.419C355.138 208.815 356.192 211.088 357.667 212.015C359.141 212.942 360.961 212.473 362.144 210.86C363.327 209.247 363.813 206.576 363.34 204.286" fill="#664EFE"/>
<path d="M360.41 165.582H357.724V174.145H360.41V165.582Z" fill="#664EFE"/>
<path d="M398.792 180.328C398.778 180.332 398.713 179.967 398.601 179.254C398.485 178.483 398.325 177.432 398.121 176.084C397.959 174.673 397.586 172.999 397.149 171.021C396.915 170.041 396.747 168.938 396.416 167.847C396.096 166.749 395.756 165.583 395.397 164.348C393.854 159.504 391.607 153.76 388.14 148.26C384.697 142.768 380.046 137.557 374.313 133.987C371.479 132.069 368.317 130.935 365.024 130.02C361.705 129.426 358.206 129.03 354.636 129.772C352.835 129.936 351.06 130.638 349.239 131.185C348.331 131.475 347.455 131.997 346.55 132.396C345.647 132.81 344.739 133.239 343.872 133.865C340.284 135.921 336.893 139.152 333.719 142.98C327.344 150.639 322.364 162.175 320.165 175.504C319.061 182.172 318.834 189.314 319.379 196.395C319.825 203.507 321.29 210.558 323.491 217.052L324.187 219.01L324.279 219.27L324.225 219.536C322.013 230.426 319.844 241.105 317.742 251.454L317.173 250.681C323.084 246.057 328.817 241.575 334.315 237.273L334.527 237.108L334.721 237.331C340.247 243.706 346.56 247.576 352.77 249.09C358.998 250.608 365.085 249.697 370.501 247.276C375.929 244.855 380.673 240.821 384.522 236.022C388.382 231.222 391.349 225.679 393.542 220.191C395.713 214.649 397.001 209.127 397.917 204.234C398.675 199.264 399.038 194.907 399.103 191.341C399.111 189.564 399.117 187.984 399.123 186.607C399.044 185.259 398.977 184.114 398.922 183.165C398.874 182.28 398.837 181.581 398.808 181.054C398.786 180.575 398.78 180.332 398.792 180.328C398.803 180.327 398.831 180.564 398.875 181.036C398.919 181.561 398.979 182.256 399.054 183.14C399.127 184.09 399.217 185.241 399.321 186.591C399.333 187.977 399.348 189.566 399.363 191.353C399.338 194.948 399.012 199.351 398.283 204.387C397.394 209.344 396.126 214.953 393.957 220.593C391.766 226.18 388.784 231.83 384.888 236.737C381.003 241.642 376.199 245.778 370.692 248.277C365.198 250.773 359.012 251.736 352.67 250.222C346.347 248.712 339.907 244.797 334.265 238.312L334.67 238.369C329.175 242.684 323.449 247.18 317.54 251.817L316.676 252.496L316.97 251.047C319.069 240.695 321.234 230.014 323.443 219.122L323.48 219.646L322.769 217.646C320.519 211.008 319.025 203.795 318.569 196.527C318.014 189.291 318.253 181.988 319.385 175.177C321.641 161.562 326.741 149.817 333.246 142.039C336.486 138.151 339.945 134.882 343.601 132.805C344.486 132.175 345.409 131.743 346.328 131.325C347.249 130.924 348.141 130.398 349.065 130.108C350.918 129.563 352.723 128.861 354.553 128.706C358.182 127.979 361.739 128.402 365.106 129.034C368.449 129.986 371.652 131.167 374.521 133.14C380.322 136.817 385.009 142.152 388.463 147.757C391.94 153.372 394.171 159.216 395.683 164.134C396.033 165.387 396.365 166.571 396.675 167.685C396.998 168.79 397.155 169.908 397.379 170.898C397.795 172.902 398.144 174.595 398.281 176.023C398.453 177.385 398.585 178.451 398.683 179.229C398.768 179.954 398.805 180.327 398.792 180.328Z" fill="#2E2E2E"/>
</svg>
